<?xml version="1.0" encoding="UTF-8" standalone="no"?>
<!-- Created with Inkscape (http://www.inkscape.org/) -->
<svg
   xmlns:dc="http://purl.org/dc/elements/1.1/"
   xmlns:cc="http://web.resource.org/cc/"
   xmlns:rdf="http://www.w3.org/1999/02/22-rdf-syntax-ns#"
   xmlns:svg="http://www.w3.org/2000/svg"
   xmlns="http://www.w3.org/2000/svg"
   xmlns:sodipodi="http://sodipodi.sourceforge.net/DTD/sodipodi-0.dtd"
   xmlns:inkscape="http://www.inkscape.org/namespaces/inkscape"
   version="1.0"
   width="738.57141"
   height="492.38095"
   id="svg1901"
   sodipodi:version="0.32"
   inkscape:version="0.44.1"
   sodipodi:docname="Flag_of_Alsace.svg"
   sodipodi:docbase="C:\Documents and Settings\Greg\Mes documents">
  <metadata
     id="metadata1954">
    <rdf:RDF>
      <cc:Work
         rdf:about="">
        <dc:format>image/svg+xml</dc:format>
        <dc:type
           rdf:resource="http://purl.org/dc/dcmitype/StillImage" />
      </cc:Work>
    </rdf:RDF>
  </metadata>
  <sodipodi:namedview
     inkscape:window-height="779"
     inkscape:window-width="1280"
     inkscape:pageshadow="2"
     inkscape:pageopacity="0.0"
     guidetolerance="10.0"
     gridtolerance="10.0"
     objecttolerance="10.0"
     borderopacity="1.0"
     bordercolor="#666666"
     pagecolor="#ffffff"
     id="base"
     inkscape:zoom="0.76566731"
     inkscape:cx="369.28571"
     inkscape:cy="246.19048"
     inkscape:window-x="-4"
     inkscape:window-y="-4"
     inkscape:current-layer="g4348" />
  <defs
     id="defs1903">
    <style
       type="text/css"
       id="style2256" />
  </defs>
  <g
     transform="translate(-2.1428702,-5.219317)"
     style="opacity:1"
     id="layer1">
    <rect
       width="789.13116"
       height="540.22955"
       x="-11.313708"
       y="-13.907502"
       transform="translate(2.1428702,5.219317)"
       style="opacity:1;fill:#ffffff;fill-opacity:1;fill-rule:nonzero;stroke:none;stroke-width:14;stroke-linecap:round;stroke-miterlimit:4;stroke-dasharray:none;stroke-opacity:1"
       id="rect4367" />
    <path
       d="M 1305.7116,241.71285 L 2053.278,241.71285 L 2053.278,739.60377 L 1305.7116,739.60377 L 1305.7116,241.71285 z "
       style="fill:#de0000;fill-rule:evenodd"
       id="path2258" />
    <g
       transform="matrix(0.7300454,0,0,0.7300454,1299.9973,241.71285)"
       style="fill-rule:evenodd"
       id="Layer 1">
      <rect
         width="133"
         height="696"
         x="275"
         y="-7"
         style="fill:#fcd116"
         id="rect2261" />
      <path
         d="M -6,408 L -6,274 L 1027,274 L 1027,408 L -6,408 z "
         style="fill:#fcd116"
         id="path2263" />
    </g>
    <g
       id="g4348">
      <path
         d="M 67.14287,0.564553 L 768.93815,405.74625"
         style="opacity:1;color:#000000;fill:none;fill-opacity:1;fill-rule:nonzero;stroke:#f60000;stroke-width:14;stroke-linecap:butt;stroke-linejoin:miter;marker:none;marker-start:none;marker-mid:none;marker-end:none;stroke-miterlimit:4;stroke-dasharray:none;stroke-dashoffset:0;stroke-opacity:1;visibility:visible;display:inline;overflow:visible;enable-background:accumulate"
         id="path4248" />
      <path
         d="M 735.1787,288.37219 C 734.49709,287.97871 733.44006,287.58979 732.00759,287.20544 C 727.20088,286.85367 723.7835,288.43411 721.75549,291.94677 L 721.54361,292.31377 C 720.72629,293.72935 720.287,295.70101 720.22572,298.22875 C 720.03629,299.72721 720.3174,301.52061 721.06904,303.60894 L 721.02364,303.68757 L 720.945,303.64217 C 719.86435,302.36586 718.57258,301.29381 717.06966,300.42609 L 716.83373,300.28987 C 715.94242,299.7753 714.85954,299.2899 713.58509,298.83368 C 708.44849,297.80212 704.70475,299.32229 702.35384,303.39419 C 701.76862,304.4078 701.35143,305.63492 701.10222,307.07553 C 700.85672,311.61738 702.40294,314.85188 705.74086,316.77904 C 710.02248,319.25103 714.43453,318.57108 718.97704,314.7392 L 719.05568,314.78461 L 719.01027,314.86326 C 714.40864,324.3396 685.82293,324.68675 686.40828,305.46745 C 670.03482,315.62167 656.04261,290.69214 661.94853,281.96885 L 661.99394,281.8902 L 661.98467,282.03243 C 660.98511,287.83992 662.59996,291.96454 666.82919,294.40629 C 668.13049,295.01779 669.19123,295.42049 670.01138,295.61439 C 674.71318,295.90563 678.0983,294.25996 680.16675,290.67738 C 680.7721,289.62881 681.20678,288.41179 681.4708,287.02631 C 681.83118,282.52753 679.93176,279.07744 675.7725,276.67608 L 675.27444,276.38851 C 673.8064,275.54097 672.28454,274.98855 670.70885,274.73122 L 670.63021,274.68582 L 673.11114,274.02106 C 676.82258,272.43568 679.26859,270.62063 680.44912,268.57593 C 680.96169,267.56701 681.36672,266.54258 681.66426,265.50266 C 682.18953,260.51653 680.58221,256.94385 676.84239,254.78462 M 676.84239,254.78462 C 676.16078,254.39114 675.10375,254.00222 673.67128,253.61787 C 668.86457,253.2661 665.44719,254.84654 663.41918,258.3592 L 663.2073,258.7262 C 662.38998,260.14178 661.95069,262.11344 661.88941,264.64118 C 661.69998,266.13964 661.98109,267.93304 662.73273,270.02137 L 662.68733,270.1 L 662.60869,270.0546 C 661.52804,268.77829 660.23627,267.70624 658.73335,266.83852 L 658.49742,266.7023 C 657.60611,266.18773 656.52323,265.70233 655.24878,265.24611 C 650.11218,264.21455 646.36844,265.73472 644.01753,269.80662 C 643.43231,270.82023 643.01512,272.04735 642.76591,273.48796 C 642.52041,278.02981 644.06663,281.26431 647.40455,283.19147 C 651.68617,285.66346 656.09822,284.98351 660.64073,281.15163 L 660.71937,281.19704 L 660.67396,281.27569 C 656.07233,290.75203 627.48662,291.09918 628.07196,271.79149 C 611.69851,281.85732 597.7063,256.92779 603.61222,248.2045 L 603.65763,248.12585 L 603.64836,248.26808 C 602.6488,254.07557 604.26365,258.20019 608.49288,260.64194 C 609.79418,261.25344 610.85492,261.65614 611.67507,261.85004 C 616.37687,262.14128 619.76199,260.49561 621.83044,256.91303 C 622.43579,255.86446 622.87047,254.64744 623.13449,253.26196 C 623.49487,248.76318 621.59545,245.31309 617.43619,242.91173 L 616.93813,242.62416 C 615.47009,241.77662 613.94823,241.2242 612.37254,240.96687 L 612.2939,240.92147 L 614.77483,240.25671 C 618.48627,238.67133 620.93228,236.85628 622.11281,234.81158 C 622.62538,233.80266 623.03041,232.77823 623.32795,231.73831 C 623.85322,226.75218 622.2459,223.1795 618.50608,221.02027 M 618.50608,221.02027 C 617.82447,220.62679 616.76744,220.23787 615.33497,219.85352 C 610.52826,219.50175 607.11088,221.08219 605.08287,224.59485 L 604.87099,224.96185 C 604.05367,226.37743 603.61438,228.34909 603.5531,230.87683 C 603.36367,232.37529 603.64478,234.16869 604.39642,236.25702 L 604.35102,236.33565 L 604.27238,236.29025 C 603.19173,235.01394 601.89996,233.94189 600.39704,233.07417 L 600.16111,232.93795 C 599.2698,232.42338 598.18692,231.93798 596.91247,231.48176 C 591.77587,230.4502 588.03213,231.97037 585.68122,236.04227 C 585.096,237.05588 584.67881,238.283 584.4296,239.72361 C 584.1841,244.26546 585.73032,247.49996 589.06824,249.42712 C 593.34986,251.89911 597.76191,251.21916 602.30442,247.38728 L 602.38306,247.43269 L 602.33765,247.51134 C 597.73602,256.98768 569.15031,257.33483 569.7422,238.03432 C 553.37529,248.10732 539.38308,223.17779 545.289,214.4545 L 545.33441,214.37585 L 545.32514,214.51808 C 544.32558,220.32557 545.94043,224.45019 550.16966,226.89194 C 551.47096,227.50344 552.5317,227.90614 553.35185,228.10004 C 558.05365,228.39128 561.43877,226.74561 563.50722,223.16303 C 564.11257,222.11446 564.54725,220.89744 564.81127,219.51196 C 565.17165,215.01318 563.27223,211.56309 559.11297,209.16173 L 558.61491,208.87416 C 557.14687,208.02662 555.62501,207.4742 554.04932,207.21687 L 553.97068,207.17147 L 556.45161,206.50671 C 560.16305,204.92133 562.60906,203.10628 563.78959,201.06158 C 564.30216,200.05266 564.70719,199.02823 565.00473,197.98831 C 565.53,193.00218 563.92268,189.4295 560.18286,187.27027 M 560.18286,187.27027 C 559.50125,186.87679 558.44422,186.48787 557.01175,186.10352 C 552.20504,185.75175 548.78766,187.33219 546.75965,190.84485 L 546.54777,191.21185 C 545.73045,192.62743 545.29116,194.59909 545.22988,197.12683 C 545.04045,198.62529 545.32156,200.41869 546.0732,202.50702 L 546.0278,202.58565 L 545.94916,202.54025 C 544.86851,201.26394 543.57674,200.19189 542.07382,199.32417 L 541.83789,199.18795 C 540.94658,198.67338 539.8637,198.18798 538.58925,197.73176 C 533.45265,196.7002 529.70891,198.22037 527.358,202.29227 C 526.77278,203.30588 526.35559,204.533 526.10638,205.97361 C 525.86088,210.51546 527.4071,213.74996 530.74502,215.67712 C 535.02664,218.14911 539.43869,217.46916 543.9812,213.63728 L 544.05984,213.68269 L 544.01443,213.76134 C 539.4128,223.23768 510.82709,223.58483 511.45559,204.40932 C 495.12529,214.60732 481.13308,189.67779 487.039,180.9545 L 487.08441,180.87585 L 487.07514,181.01808 C 486.07558,186.82557 487.69043,190.95019 491.91966,193.39194 C 493.22096,194.00344 494.2817,194.40614 495.10185,194.60004 C 499.80365,194.89128 503.18877,193.24561 505.25722,189.66303 C 505.86257,188.61446 506.29725,187.39744 506.56127,186.01196 C 506.92165,181.51318 505.02223,178.06309 500.86297,175.66173 L 500.36491,175.37416 C 498.89687,174.52662 497.37501,173.9742 495.79932,173.71687 L 495.72068,173.67147 L 498.20161,173.00671 C 501.91305,171.42133 504.35906,169.60628 505.53959,167.56158 C 506.05216,166.55266 506.45719,165.52823 506.75473,164.48831 C 507.28,159.50218 505.67268,155.9295 501.93286,153.77027 M 501.93286,153.77027 C 501.25125,153.37679 500.19422,152.98787 498.76175,152.60352 C 493.95504,152.25175 490.53766,153.83219 488.50965,157.34485 L 488.29777,157.71185 C 487.48045,159.12743 487.04116,161.09909 486.97988,163.62683 C 486.79045,165.12529 487.07156,166.91869 487.8232,169.00702 L 487.7778,169.08565 L 487.69916,169.04025 C 486.61851,167.76394 485.32674,166.69189 483.82382,165.82417 L 483.58789,165.68795 C 482.69658,165.17338 481.6137,164.68798 480.33925,164.23176 C 475.20265,163.2002 471.45891,164.72037 469.108,168.79227 C 468.52278,169.80588 468.10559,171.033 467.85638,172.47361 C 467.61088,177.01546 469.1571,180.24996 472.49502,182.17712 C 476.77664,184.64911 481.18869,183.96916 485.7312,180.13728 L 485.80984,180.18269 L 485.76443,180.26134 C 481.1628,189.73768 452.57709,190.08483 453.20559,170.78432 C 436.87529,180.85732 422.88308,155.92779 428.789,147.2045 L 428.83441,147.12585 L 428.82514,147.26808 C 427.82558,153.07557 429.44043,157.20019 433.66966,159.64194 C 434.97096,160.25344 436.0317,160.65614 436.85185,160.85004 C 441.55365,161.14128 444.93877,159.49561 447.00722,155.91303 C 447.61257,154.86446 448.04725,153.64744 448.31127,152.26196 C 448.67165,147.76318 446.77223,144.31309 442.61297,141.91173 L 442.11491,141.62416 C 440.64687,140.77662 439.12501,140.2242 437.54932,139.96687 L 437.47068,139.92147 L 439.95161,139.25671 C 443.66305,137.67133 446.10906,135.85628 447.28959,133.81158 C 447.80216,132.80266 448.20719,131.77823 448.50473,130.73831 C 449.03,125.75218 447.42268,122.1795 443.68286,120.02027 M 443.68286,120.02027 C 443.00125,119.62679 441.94422,119.23787 440.51175,118.85352 C 435.70504,118.50175 432.28766,120.08219 430.25965,123.59485 L 430.04777,123.96185 C 429.23045,125.37743 428.79116,127.34909 428.72988,129.87683 C 428.54045,131.37529 428.82156,133.16869 429.5732,135.25702 L 429.5278,135.33565 L 429.44916,135.29025 C 428.36851,134.01394 427.07674,132.94189 425.57382,132.07417 L 425.33789,131.93795 C 424.44658,131.42338 423.3637,130.93798 422.08925,130.48176 C 416.95265,129.4502 413.20891,130.97037 410.858,135.04227 C 410.27278,136.05588 409.85559,137.283 409.60638,138.72361 C 409.36088,143.26546 410.9071,146.49996 414.24502,148.42712 C 418.52664,150.89911 422.93869,150.21916 427.4812,146.38728 L 427.55984,146.43269 L 427.51443,146.51134 C 422.9128,155.98768 394.32709,156.33483 394.83059,137.03432 C 378.37529,147.10732 364.38308,122.17779 370.289,113.4545 L 370.33441,113.37585 L 370.32514,113.51808 C 369.32558,119.32557 370.94043,123.45019 375.16966,125.89194 C 376.47096,126.50344 377.5317,126.90614 378.35185,127.10004 C 383.05365,127.39128 386.43877,125.74561 388.50722,122.16303 C 389.11257,121.11446 389.54725,119.89744 389.81127,118.51196 C 390.17165,114.01318 388.27223,110.56309 384.11297,108.16173 L 383.61491,107.87416 C 382.14687,107.02662 380.62501,106.4742 379.04932,106.21687 L 378.97068,106.17147 L 381.45161,105.50671 C 385.16305,103.92133 387.60906,102.10628 388.78959,100.06158 C 389.30216,99.052659 389.70719,98.028226 390.00473,96.988308 C 390.53,92.00218 388.92268,88.429502 385.18286,86.270266 M 268.43286,19.020266 C 272.17268,21.179502 273.78,24.75218 273.25473,29.738308 C 272.95719,30.778226 272.55216,31.802659 272.03959,32.811585 C 270.85906,34.85628 268.41305,36.671327 264.70161,38.25671 L 262.22068,38.921473 L 262.29932,38.966872 C 263.87501,39.224204 265.39687,39.776617 266.86491,40.624162 L 267.36297,40.911726 C 271.52223,43.313091 273.42165,46.763176 273.06127,51.261963 C 272.79725,52.647442 272.36257,53.864465 271.75722,54.913029 C 269.68877,58.495607 266.30365,60.141284 261.60185,59.850042 C 260.7817,59.656139 259.72096,59.253436 258.41966,58.641937 C 254.19043,56.200188 252.57558,52.075572 253.57514,46.268079 L 253.58441,46.125848 L 253.539,46.204499 C 247.63308,54.927794 261.62529,79.85732 277.95559,69.659322 C 277.32709,88.834831 305.9128,88.487677 310.51443,79.011345 L 310.55984,78.932694 L 310.4812,78.887285 C 305.93869,82.719164 301.52664,83.399113 297.24502,80.927124 C 293.9071,78.999964 292.36088,75.76546 292.60638,71.223612 C 292.85559,69.782998 293.27278,68.555882 293.858,67.542275 C 296.20891,63.470367 299.95265,61.950201 305.08925,62.981763 C 306.3637,63.437984 307.44658,63.923377 308.33789,64.437949 L 308.57382,64.574166 C 310.07674,65.441895 311.36851,66.513938 312.44916,67.790253 L 312.5278,67.835652 L 312.5732,67.757019 C 311.82156,65.668688 311.54045,63.875287 311.72988,62.37683 C 311.79116,59.849089 312.23045,57.877434 313.04777,56.46185 L 313.25965,56.094853 C 315.28766,52.58219 318.70504,51.001747 323.51175,51.353524 C 324.94422,51.737871 326.00125,52.126787 326.68286,52.520266 M 385.18286,86.270266 C 384.50125,85.876787 383.44422,85.487871 382.01175,85.103524 C 377.20504,84.751747 373.78766,86.33219 371.75965,89.844853 L 371.54777,90.21185 C 370.73045,91.627434 370.29116,93.599089 370.22988,96.12683 C 370.04045,97.625287 370.32156,99.418688 371.0732,101.50702 L 371.0278,101.58565 L 370.94916,101.54025 C 369.86851,100.26394 368.57674,99.191895 367.07382,98.324166 L 366.83789,98.187949 C 365.94658,97.673377 364.8637,97.187984 363.58925,96.731763 C 358.45265,95.700201 354.70891,97.220367 352.358,101.29227 C 351.77278,102.30588 351.35559,103.533 351.10638,104.97361 C 350.86088,109.51546 352.4071,112.74996 355.74502,114.67712 C 360.02664,117.14911 364.43869,116.46916 368.9812,112.63728 L 369.05984,112.68269 L 369.01443,112.76134 C 364.4128,122.23768 335.82709,122.58483 336.33059,103.28432 C 319.87529,113.35732 305.88308,88.427794 311.789,79.704499 L 311.83441,79.625848 L 311.82514,79.768079 C 310.82558,85.575572 312.44043,89.700188 316.66966,92.141937 C 317.97096,92.753436 319.0317,93.156139 319.85185,93.350042 C 324.55365,93.641284 327.93877,91.995607 330.00722,88.413029 C 330.61257,87.364465 331.04725,86.147442 331.31127,84.761963 C 331.67165,80.263176 329.77223,76.813091 325.61297,74.411726 L 325.11491,74.124162 C 323.64687,73.276617 322.12501,72.724204 320.54932,72.466872 L 320.47068,72.421473 L 322.95161,71.75671 C 326.66305,70.171327 329.10906,68.35628 330.28959,66.311585 C 330.80216,65.302659 331.20719,64.278226 331.50473,63.238308 C 332.03,58.25218 330.42268,54.679502 326.68286,52.520266 M 210.18286,-14.729734 C 213.92268,-12.570498 215.53,-8.9978199 215.00473,-4.0116919 C 214.70719,-2.9717739 214.30216,-1.9473409 213.78959,-0.93841489 C 212.60906,1.1062801 210.16305,2.9213271 206.45161,4.5067101 L 203.97068,5.1714731 L 204.04932,5.2168721 C 205.62501,5.4742041 207.14687,6.0266171 208.61491,6.8741621 L 209.11297,7.1617261 C 213.27223,9.5630911 215.17165,13.013176 214.81127,17.511963 C 214.54725,18.897442 214.11257,20.114465 213.50722,21.163029 C 211.43877,24.745607 208.05365,26.391284 203.35185,26.100042 C 202.5317,25.906139 201.47096,25.503436 200.16966,24.891937 C 195.94043,22.450188 194.32558,18.325572 195.32514,12.518079 L 195.33441,12.375848 L 195.289,12.454499 C 189.38308,21.177794 203.37529,46.10732 219.70559,36.034322 C 219.07709,55.334831 247.6628,54.987677 252.26443,45.511345 L 252.30984,45.432694 L 252.2312,45.387285 C 247.68869,49.219164 243.27664,49.899113 238.99502,47.427124 C 235.6571,45.499964 234.11088,42.26546 234.35638,37.723612 C 234.60559,36.282998 235.02278,35.055882 235.608,34.042275 C 237.95891,29.970367 241.70265,28.450201 246.83925,29.481763 C 248.1137,29.937984 249.19658,30.423377 250.08789,30.937949 L 250.32382,31.074166 C 251.82674,31.941895 253.11851,33.013938 254.19916,34.290253 L 254.2778,34.335652 L 254.3232,34.257019 C 253.57156,32.168688 253.29045,30.375287 253.47988,28.87683 C 253.54116,26.349089 253.98045,24.377434 254.79777,22.96185 L 255.00965,22.594853 C 257.03766,19.08219 260.45504,17.501747 265.26175,17.853524 C 266.69422,18.237871 267.75125,18.626787 268.43286,19.020266 M 210.18286,-14.729734 C 209.50125,-15.123213 208.44422,-15.512129 207.01175,-15.896476 C 202.20504,-16.248253 198.78766,-14.66781 196.75965,-11.155147 L 196.54777,-10.78815 C 195.73045,-9.3725659 195.29116,-7.4009109 195.22988,-4.8731699 C 195.04045,-3.3747129 195.32156,-1.5813119 196.0732,0.50701911 L 196.0278,0.58565211 L 195.94916,0.54025311 C 194.86851,-0.73606189 193.57674,-1.8081049 192.07382,-2.6758339 L 191.83789,-2.8120509 C 190.94658,-3.3266229 189.8637,-3.8120159 188.58925,-4.2682369 C 183.45265,-5.2997989 179.70891,-3.7796329 177.358,0.29227511 C 176.77278,1.3058821 176.35559,2.5329981 176.10638,3.9736121 C 175.86088,8.5154601 177.4071,11.749964 180.74502,13.677124 C 185.02664,16.149113 189.43869,15.469164 193.9812,11.637285 L 194.05984,11.682694 L 194.01443,11.761345 C 189.4128,21.237677 160.82709,21.584831 161.3095,2.2810151 L 162.14287,-78.399729 L 866.14287,3.6002703 L 745.4952,340.36991 C 728.37113,349.20924 714.37892,324.27971 720.28484,315.55642 L 720.33025,315.47777 L 720.32098,315.62 C 719.32142,321.42749 720.93627,325.55211 725.1655,327.99386 C 726.4668,328.60536 727.52754,329.00806 728.34769,329.20196 C 733.04949,329.4932 736.43461,327.84753 738.50306,324.26495 C 739.10841,323.21638 739.54309,321.99936 739.80711,320.61388 C 740.16749,316.1151 738.26807,312.66501 734.10881,310.26365 L 733.61075,309.97608 C 732.14271,309.12854 730.62085,308.57612 729.04516,308.31879 L 728.96652,308.27339 L 731.44745,307.60863 C 735.15889,306.02325 737.6049,304.2082 738.78543,302.1635 C 739.298,301.15458 739.70303,300.13015 740.00057,299.09023 C 740.52584,294.1041 738.91852,290.53142 735.1787,288.37219"
         style="font-size:32px;font-style:normal;font-weight:normal;fill:#f60000;fill-opacity:1;stroke:none;stroke-width:1;stroke-linecap:butt;stroke-linejoin:miter;stroke-miterlimit:4;stroke-opacity:1;font-family:Sans"
         id="text4239" />
    </g>
    <g
       transform="matrix(-1,0,0,-1,739.60955,509.70901)"
       id="g4355">
      <path
         d="M 67.14287,0.564553 L 768.93815,405.74625"
         style="opacity:1;color:#000000;fill:none;fill-opacity:1;fill-rule:nonzero;stroke:#f60000;stroke-width:14;stroke-linecap:butt;stroke-linejoin:miter;marker:none;marker-start:none;marker-mid:none;marker-end:none;stroke-miterlimit:4;stroke-dasharray:none;stroke-dashoffset:0;stroke-opacity:1;visibility:visible;display:inline;overflow:visible;enable-background:accumulate"
         id="path4357" />
      <path
         d="M 735.1787,288.37219 C 734.49709,287.97871 733.44006,287.58979 732.00759,287.20544 C 727.20088,286.85367 723.7835,288.43411 721.75549,291.94677 L 721.54361,292.31377 C 720.72629,293.72935 720.287,295.70101 720.22572,298.22875 C 720.03629,299.72721 720.3174,301.52061 721.06904,303.60894 L 721.02364,303.68757 L 720.945,303.64217 C 719.86435,302.36586 718.57258,301.29381 717.06966,300.42609 L 716.83373,300.28987 C 715.94242,299.7753 714.85954,299.2899 713.58509,298.83368 C 708.44849,297.80212 704.70475,299.32229 702.35384,303.39419 C 701.76862,304.4078 701.35143,305.63492 701.10222,307.07553 C 700.85672,311.61738 702.40294,314.85188 705.74086,316.77904 C 710.02248,319.25103 714.43453,318.57108 718.97704,314.7392 L 719.05568,314.78461 L 719.01027,314.86326 C 714.40864,324.3396 685.82293,324.68675 686.40828,305.46745 C 670.03482,315.62167 656.04261,290.69214 661.94853,281.96885 L 661.99394,281.8902 L 661.98467,282.03243 C 660.98511,287.83992 662.59996,291.96454 666.82919,294.40629 C 668.13049,295.01779 669.19123,295.42049 670.01138,295.61439 C 674.71318,295.90563 678.0983,294.25996 680.16675,290.67738 C 680.7721,289.62881 681.20678,288.41179 681.4708,287.02631 C 681.83118,282.52753 679.93176,279.07744 675.7725,276.67608 L 675.27444,276.38851 C 673.8064,275.54097 672.28454,274.98855 670.70885,274.73122 L 670.63021,274.68582 L 673.11114,274.02106 C 676.82258,272.43568 679.26859,270.62063 680.44912,268.57593 C 680.96169,267.56701 681.36672,266.54258 681.66426,265.50266 C 682.18953,260.51653 680.58221,256.94385 676.84239,254.78462 M 676.84239,254.78462 C 676.16078,254.39114 675.10375,254.00222 673.67128,253.61787 C 668.86457,253.2661 665.44719,254.84654 663.41918,258.3592 L 663.2073,258.7262 C 662.38998,260.14178 661.95069,262.11344 661.88941,264.64118 C 661.69998,266.13964 661.98109,267.93304 662.73273,270.02137 L 662.68733,270.1 L 662.60869,270.0546 C 661.52804,268.77829 660.23627,267.70624 658.73335,266.83852 L 658.49742,266.7023 C 657.60611,266.18773 656.52323,265.70233 655.24878,265.24611 C 650.11218,264.21455 646.36844,265.73472 644.01753,269.80662 C 643.43231,270.82023 643.01512,272.04735 642.76591,273.48796 C 642.52041,278.02981 644.06663,281.26431 647.40455,283.19147 C 651.68617,285.66346 656.09822,284.98351 660.64073,281.15163 L 660.71937,281.19704 L 660.67396,281.27569 C 656.07233,290.75203 627.48662,291.09918 628.07196,271.79149 C 611.69851,281.85732 597.7063,256.92779 603.61222,248.2045 L 603.65763,248.12585 L 603.64836,248.26808 C 602.6488,254.07557 604.26365,258.20019 608.49288,260.64194 C 609.79418,261.25344 610.85492,261.65614 611.67507,261.85004 C 616.37687,262.14128 619.76199,260.49561 621.83044,256.91303 C 622.43579,255.86446 622.87047,254.64744 623.13449,253.26196 C 623.49487,248.76318 621.59545,245.31309 617.43619,242.91173 L 616.93813,242.62416 C 615.47009,241.77662 613.94823,241.2242 612.37254,240.96687 L 612.2939,240.92147 L 614.77483,240.25671 C 618.48627,238.67133 620.93228,236.85628 622.11281,234.81158 C 622.62538,233.80266 623.03041,232.77823 623.32795,231.73831 C 623.85322,226.75218 622.2459,223.1795 618.50608,221.02027 M 618.50608,221.02027 C 617.82447,220.62679 616.76744,220.23787 615.33497,219.85352 C 610.52826,219.50175 607.11088,221.08219 605.08287,224.59485 L 604.87099,224.96185 C 604.05367,226.37743 603.61438,228.34909 603.5531,230.87683 C 603.36367,232.37529 603.64478,234.16869 604.39642,236.25702 L 604.35102,236.33565 L 604.27238,236.29025 C 603.19173,235.01394 601.89996,233.94189 600.39704,233.07417 L 600.16111,232.93795 C 599.2698,232.42338 598.18692,231.93798 596.91247,231.48176 C 591.77587,230.4502 588.03213,231.97037 585.68122,236.04227 C 585.096,237.05588 584.67881,238.283 584.4296,239.72361 C 584.1841,244.26546 585.73032,247.49996 589.06824,249.42712 C 593.34986,251.89911 597.76191,251.21916 602.30442,247.38728 L 602.38306,247.43269 L 602.33765,247.51134 C 597.73602,256.98768 569.15031,257.33483 569.7422,238.03432 C 553.37529,248.10732 539.38308,223.17779 545.289,214.4545 L 545.33441,214.37585 L 545.32514,214.51808 C 544.32558,220.32557 545.94043,224.45019 550.16966,226.89194 C 551.47096,227.50344 552.5317,227.90614 553.35185,228.10004 C 558.05365,228.39128 561.43877,226.74561 563.50722,223.16303 C 564.11257,222.11446 564.54725,220.89744 564.81127,219.51196 C 565.17165,215.01318 563.27223,211.56309 559.11297,209.16173 L 558.61491,208.87416 C 557.14687,208.02662 555.62501,207.4742 554.04932,207.21687 L 553.97068,207.17147 L 556.45161,206.50671 C 560.16305,204.92133 562.60906,203.10628 563.78959,201.06158 C 564.30216,200.05266 564.70719,199.02823 565.00473,197.98831 C 565.53,193.00218 563.92268,189.4295 560.18286,187.27027 M 560.18286,187.27027 C 559.50125,186.87679 558.44422,186.48787 557.01175,186.10352 C 552.20504,185.75175 548.78766,187.33219 546.75965,190.84485 L 546.54777,191.21185 C 545.73045,192.62743 545.29116,194.59909 545.22988,197.12683 C 545.04045,198.62529 545.32156,200.41869 546.0732,202.50702 L 546.0278,202.58565 L 545.94916,202.54025 C 544.86851,201.26394 543.57674,200.19189 542.07382,199.32417 L 541.83789,199.18795 C 540.94658,198.67338 539.8637,198.18798 538.58925,197.73176 C 533.45265,196.7002 529.70891,198.22037 527.358,202.29227 C 526.77278,203.30588 526.35559,204.533 526.10638,205.97361 C 525.86088,210.51546 527.4071,213.74996 530.74502,215.67712 C 535.02664,218.14911 539.43869,217.46916 543.9812,213.63728 L 544.05984,213.68269 L 544.01443,213.76134 C 539.4128,223.23768 510.82709,223.58483 511.45559,204.40932 C 495.12529,214.60732 481.13308,189.67779 487.039,180.9545 L 487.08441,180.87585 L 487.07514,181.01808 C 486.07558,186.82557 487.69043,190.95019 491.91966,193.39194 C 493.22096,194.00344 494.2817,194.40614 495.10185,194.60004 C 499.80365,194.89128 503.18877,193.24561 505.25722,189.66303 C 505.86257,188.61446 506.29725,187.39744 506.56127,186.01196 C 506.92165,181.51318 505.02223,178.06309 500.86297,175.66173 L 500.36491,175.37416 C 498.89687,174.52662 497.37501,173.9742 495.79932,173.71687 L 495.72068,173.67147 L 498.20161,173.00671 C 501.91305,171.42133 504.35906,169.60628 505.53959,167.56158 C 506.05216,166.55266 506.45719,165.52823 506.75473,164.48831 C 507.28,159.50218 505.67268,155.9295 501.93286,153.77027 M 501.93286,153.77027 C 501.25125,153.37679 500.19422,152.98787 498.76175,152.60352 C 493.95504,152.25175 490.53766,153.83219 488.50965,157.34485 L 488.29777,157.71185 C 487.48045,159.12743 487.04116,161.09909 486.97988,163.62683 C 486.79045,165.12529 487.07156,166.91869 487.8232,169.00702 L 487.7778,169.08565 L 487.69916,169.04025 C 486.61851,167.76394 485.32674,166.69189 483.82382,165.82417 L 483.58789,165.68795 C 482.69658,165.17338 481.6137,164.68798 480.33925,164.23176 C 475.20265,163.2002 471.45891,164.72037 469.108,168.79227 C 468.52278,169.80588 468.10559,171.033 467.85638,172.47361 C 467.61088,177.01546 469.1571,180.24996 472.49502,182.17712 C 476.77664,184.64911 481.18869,183.96916 485.7312,180.13728 L 485.80984,180.18269 L 485.76443,180.26134 C 481.1628,189.73768 452.57709,190.08483 453.20559,170.78432 C 436.87529,180.85732 422.88308,155.92779 428.789,147.2045 L 428.83441,147.12585 L 428.82514,147.26808 C 427.82558,153.07557 429.44043,157.20019 433.66966,159.64194 C 434.97096,160.25344 436.0317,160.65614 436.85185,160.85004 C 441.55365,161.14128 444.93877,159.49561 447.00722,155.91303 C 447.61257,154.86446 448.04725,153.64744 448.31127,152.26196 C 448.67165,147.76318 446.77223,144.31309 442.61297,141.91173 L 442.11491,141.62416 C 440.64687,140.77662 439.12501,140.2242 437.54932,139.96687 L 437.47068,139.92147 L 439.95161,139.25671 C 443.66305,137.67133 446.10906,135.85628 447.28959,133.81158 C 447.80216,132.80266 448.20719,131.77823 448.50473,130.73831 C 449.03,125.75218 447.42268,122.1795 443.68286,120.02027 M 443.68286,120.02027 C 443.00125,119.62679 441.94422,119.23787 440.51175,118.85352 C 435.70504,118.50175 432.28766,120.08219 430.25965,123.59485 L 430.04777,123.96185 C 429.23045,125.37743 428.79116,127.34909 428.72988,129.87683 C 428.54045,131.37529 428.82156,133.16869 429.5732,135.25702 L 429.5278,135.33565 L 429.44916,135.29025 C 428.36851,134.01394 427.07674,132.94189 425.57382,132.07417 L 425.33789,131.93795 C 424.44658,131.42338 423.3637,130.93798 422.08925,130.48176 C 416.95265,129.4502 413.20891,130.97037 410.858,135.04227 C 410.27278,136.05588 409.85559,137.283 409.60638,138.72361 C 409.36088,143.26546 410.9071,146.49996 414.24502,148.42712 C 418.52664,150.89911 422.93869,150.21916 427.4812,146.38728 L 427.55984,146.43269 L 427.51443,146.51134 C 422.9128,155.98768 394.32709,156.33483 394.83059,137.03432 C 378.37529,147.10732 364.38308,122.17779 370.289,113.4545 L 370.33441,113.37585 L 370.32514,113.51808 C 369.32558,119.32557 370.94043,123.45019 375.16966,125.89194 C 376.47096,126.50344 377.5317,126.90614 378.35185,127.10004 C 383.05365,127.39128 386.43877,125.74561 388.50722,122.16303 C 389.11257,121.11446 389.54725,119.89744 389.81127,118.51196 C 390.17165,114.01318 388.27223,110.56309 384.11297,108.16173 L 383.61491,107.87416 C 382.14687,107.02662 380.62501,106.4742 379.04932,106.21687 L 378.97068,106.17147 L 381.45161,105.50671 C 385.16305,103.92133 387.60906,102.10628 388.78959,100.06158 C 389.30216,99.052659 389.70719,98.028226 390.00473,96.988308 C 390.53,92.00218 388.92268,88.429502 385.18286,86.270266 M 268.43286,19.020266 C 272.17268,21.179502 273.78,24.75218 273.25473,29.738308 C 272.95719,30.778226 272.55216,31.802659 272.03959,32.811585 C 270.85906,34.85628 268.41305,36.671327 264.70161,38.25671 L 262.22068,38.921473 L 262.29932,38.966872 C 263.87501,39.224204 265.39687,39.776617 266.86491,40.624162 L 267.36297,40.911726 C 271.52223,43.313091 273.42165,46.763176 273.06127,51.261963 C 272.79725,52.647442 272.36257,53.864465 271.75722,54.913029 C 269.68877,58.495607 266.30365,60.141284 261.60185,59.850042 C 260.7817,59.656139 259.72096,59.253436 258.41966,58.641937 C 254.19043,56.200188 252.57558,52.075572 253.57514,46.268079 L 253.58441,46.125848 L 253.539,46.204499 C 247.63308,54.927794 261.62529,79.85732 277.95559,69.659322 C 277.32709,88.834831 305.9128,88.487677 310.51443,79.011345 L 310.55984,78.932694 L 310.4812,78.887285 C 305.93869,82.719164 301.52664,83.399113 297.24502,80.927124 C 293.9071,78.999964 292.36088,75.76546 292.60638,71.223612 C 292.85559,69.782998 293.27278,68.555882 293.858,67.542275 C 296.20891,63.470367 299.95265,61.950201 305.08925,62.981763 C 306.3637,63.437984 307.44658,63.923377 308.33789,64.437949 L 308.57382,64.574166 C 310.07674,65.441895 311.36851,66.513938 312.44916,67.790253 L 312.5278,67.835652 L 312.5732,67.757019 C 311.82156,65.668688 311.54045,63.875287 311.72988,62.37683 C 311.79116,59.849089 312.23045,57.877434 313.04777,56.46185 L 313.25965,56.094853 C 315.28766,52.58219 318.70504,51.001747 323.51175,51.353524 C 324.94422,51.737871 326.00125,52.126787 326.68286,52.520266 M 385.18286,86.270266 C 384.50125,85.876787 383.44422,85.487871 382.01175,85.103524 C 377.20504,84.751747 373.78766,86.33219 371.75965,89.844853 L 371.54777,90.21185 C 370.73045,91.627434 370.29116,93.599089 370.22988,96.12683 C 370.04045,97.625287 370.32156,99.418688 371.0732,101.50702 L 371.0278,101.58565 L 370.94916,101.54025 C 369.86851,100.26394 368.57674,99.191895 367.07382,98.324166 L 366.83789,98.187949 C 365.94658,97.673377 364.8637,97.187984 363.58925,96.731763 C 358.45265,95.700201 354.70891,97.220367 352.358,101.29227 C 351.77278,102.30588 351.35559,103.533 351.10638,104.97361 C 350.86088,109.51546 352.4071,112.74996 355.74502,114.67712 C 360.02664,117.14911 364.43869,116.46916 368.9812,112.63728 L 369.05984,112.68269 L 369.01443,112.76134 C 364.4128,122.23768 335.82709,122.58483 336.33059,103.28432 C 319.87529,113.35732 305.88308,88.427794 311.789,79.704499 L 311.83441,79.625848 L 311.82514,79.768079 C 310.82558,85.575572 312.44043,89.700188 316.66966,92.141937 C 317.97096,92.753436 319.0317,93.156139 319.85185,93.350042 C 324.55365,93.641284 327.93877,91.995607 330.00722,88.413029 C 330.61257,87.364465 331.04725,86.147442 331.31127,84.761963 C 331.67165,80.263176 329.77223,76.813091 325.61297,74.411726 L 325.11491,74.124162 C 323.64687,73.276617 322.12501,72.724204 320.54932,72.466872 L 320.47068,72.421473 L 322.95161,71.75671 C 326.66305,70.171327 329.10906,68.35628 330.28959,66.311585 C 330.80216,65.302659 331.20719,64.278226 331.50473,63.238308 C 332.03,58.25218 330.42268,54.679502 326.68286,52.520266 M 210.18286,-14.729734 C 213.92268,-12.570498 215.53,-8.9978199 215.00473,-4.0116919 C 214.70719,-2.9717739 214.30216,-1.9473409 213.78959,-0.93841489 C 212.60906,1.1062801 210.16305,2.9213271 206.45161,4.5067101 L 203.97068,5.1714731 L 204.04932,5.2168721 C 205.62501,5.4742041 207.14687,6.0266171 208.61491,6.8741621 L 209.11297,7.1617261 C 213.27223,9.5630911 215.17165,13.013176 214.81127,17.511963 C 214.54725,18.897442 214.11257,20.114465 213.50722,21.163029 C 211.43877,24.745607 208.05365,26.391284 203.35185,26.100042 C 202.5317,25.906139 201.47096,25.503436 200.16966,24.891937 C 195.94043,22.450188 194.32558,18.325572 195.32514,12.518079 L 195.33441,12.375848 L 195.289,12.454499 C 189.38308,21.177794 203.37529,46.10732 219.70559,36.034322 C 219.07709,55.334831 247.6628,54.987677 252.26443,45.511345 L 252.30984,45.432694 L 252.2312,45.387285 C 247.68869,49.219164 243.27664,49.899113 238.99502,47.427124 C 235.6571,45.499964 234.11088,42.26546 234.35638,37.723612 C 234.60559,36.282998 235.02278,35.055882 235.608,34.042275 C 237.95891,29.970367 241.70265,28.450201 246.83925,29.481763 C 248.1137,29.937984 249.19658,30.423377 250.08789,30.937949 L 250.32382,31.074166 C 251.82674,31.941895 253.11851,33.013938 254.19916,34.290253 L 254.2778,34.335652 L 254.3232,34.257019 C 253.57156,32.168688 253.29045,30.375287 253.47988,28.87683 C 253.54116,26.349089 253.98045,24.377434 254.79777,22.96185 L 255.00965,22.594853 C 257.03766,19.08219 260.45504,17.501747 265.26175,17.853524 C 266.69422,18.237871 267.75125,18.626787 268.43286,19.020266 M 210.18286,-14.729734 C 209.50125,-15.123213 208.44422,-15.512129 207.01175,-15.896476 C 202.20504,-16.248253 198.78766,-14.66781 196.75965,-11.155147 L 196.54777,-10.78815 C 195.73045,-9.3725659 195.29116,-7.4009109 195.22988,-4.8731699 C 195.04045,-3.3747129 195.32156,-1.5813119 196.0732,0.50701911 L 196.0278,0.58565211 L 195.94916,0.54025311 C 194.86851,-0.73606189 193.57674,-1.8081049 192.07382,-2.6758339 L 191.83789,-2.8120509 C 190.94658,-3.3266229 189.8637,-3.8120159 188.58925,-4.2682369 C 183.45265,-5.2997989 179.70891,-3.7796329 177.358,0.29227511 C 176.77278,1.3058821 176.35559,2.5329981 176.10638,3.9736121 C 175.86088,8.5154601 177.4071,11.749964 180.74502,13.677124 C 185.02664,16.149113 189.43869,15.469164 193.9812,11.637285 L 194.05984,11.682694 L 194.01443,11.761345 C 189.4128,21.237677 160.82709,21.584831 161.3095,2.2810151 L 162.14287,-78.399729 L 866.14287,3.6002703 L 745.4952,340.36991 C 728.37113,349.20924 714.37892,324.27971 720.28484,315.55642 L 720.33025,315.47777 L 720.32098,315.62 C 719.32142,321.42749 720.93627,325.55211 725.1655,327.99386 C 726.4668,328.60536 727.52754,329.00806 728.34769,329.20196 C 733.04949,329.4932 736.43461,327.84753 738.50306,324.26495 C 739.10841,323.21638 739.54309,321.99936 739.80711,320.61388 C 740.16749,316.1151 738.26807,312.66501 734.10881,310.26365 L 733.61075,309.97608 C 732.14271,309.12854 730.62085,308.57612 729.04516,308.31879 L 728.96652,308.27339 L 731.44745,307.60863 C 735.15889,306.02325 737.6049,304.2082 738.78543,302.1635 C 739.298,301.15458 739.70303,300.13015 740.00057,299.09023 C 740.52584,294.1041 738.91852,290.53142 735.1787,288.37219"
         style="font-size:32px;font-style:normal;font-weight:normal;fill:#f60000;fill-opacity:1;stroke:none;stroke-width:1;stroke-linecap:butt;stroke-linejoin:miter;stroke-miterlimit:4;stroke-opacity:1;font-family:Sans"
         id="path4359" />
      <path
         d="M 668.28303,159.88581 C 667.77209,159.59085 666.97975,159.29932 665.90596,159.0112 C 662.30284,158.74752 659.74118,159.93222 658.22098,162.56531 L 658.06215,162.84041 C 657.4495,163.90154 657.1202,165.37948 657.07426,167.27428 C 656.93227,168.39753 657.14299,169.74186 657.70643,171.30727 L 657.6724,171.36622 L 657.61344,171.33218 C 656.80339,170.37545 655.83507,169.57186 654.70849,168.92141 L 654.53163,168.8193 C 653.86351,168.43358 653.05178,168.06973 652.09644,167.72774 C 648.24606,166.95448 645.43974,168.094 643.6775,171.1463 C 643.23882,171.90612 642.92608,172.82595 642.73928,173.90584 C 642.55525,177.31041 643.7143,179.73499 646.21641,181.17958 C 649.42591,183.03259 652.7332,182.52291 656.13826,179.65053 L 656.25967,179.6712 C 645.10285,194.85693 630.42504,178.22404 633.3622,173.01434 C 625.52632,178.35405 618.3082,173.465 618.46256,166.04404 C 620.98799,158.08487 627.64752,159.28619 633.63596,161.32512 C 625.39393,153.29578 616.13777,132.76523 617.45727,124.45157 L 602.90103,181.09067 L 682.32929,227.80902 L 723.01479,185.29612 C 716.47471,190.59567 695.27892,194.05715 684.20429,190.93402 C 688.96427,195.10069 693.33442,200.26735 687.70429,206.43402 C 681.35473,210.27818 673.51163,206.47163 674.21801,197.01571 C 671.17486,202.16421 649.43145,197.7693 656.98462,180.45358 L 657.08673,180.27673 L 657.14568,180.31077 C 656.39641,184.66406 657.60689,187.75588 660.77713,189.58622 C 661.75259,190.0446 662.54771,190.34646 663.1625,190.49181 C 666.68697,190.71012 669.22445,189.47653 670.77496,186.79103 C 671.22873,186.00502 671.55456,185.09274 671.75248,184.05418 C 672.02263,180.68189 670.59882,178.09572 667.48104,176.29564 L 667.10769,176.08009 C 666.00725,175.44477 664.86646,175.03067 663.68531,174.83778 L 663.62636,174.80374 L 665.48607,174.30544 C 668.26817,173.11703 670.10169,171.75648 670.98664,170.22376 C 671.37085,169.46749 671.67447,168.69958 671.8975,167.92005 C 672.29123,164.18245 671.08641,161.50437 668.28303,159.88581"
         style="font-size:46.46904373px;font-style:normal;font-weight:normal;fill:yellow;fill-opacity:1;stroke:none;stroke-width:1;stroke-linecap:butt;stroke-linejoin:miter;stroke-miterlimit:4;stroke-dasharray:none;stroke-opacity:1;font-family:Sans"
         id="path4365"
         sodipodi:nodetypes="cccccccccccscscccccccccccccccccsccccccccc" />
      <path
         d="M 620.02307,49.412314 C 619.51213,49.117354 618.71979,48.825824 617.646,48.537704 C 614.04288,48.274024 611.48122,49.458724 609.96102,52.091814 L 609.80219,52.366914 C 609.18954,53.428044 608.86024,54.905984 608.8143,56.800784 C 608.67231,57.924034 608.88303,59.268364 609.44647,60.833774 L 609.41244,60.892724 L 609.35348,60.858684 C 608.54343,59.901954 607.57511,59.098364 606.44853,58.447914 L 606.27167,58.345804 C 605.60355,57.960084 604.79182,57.596234 603.83648,57.254244 C 599.9861,56.480984 597.17978,57.620504 595.41754,60.672804 C 594.97886,61.432624 594.66612,62.352454 594.47932,63.432344 C 594.29529,66.836914 595.45434,69.261494 597.95645,70.706084 C 601.16595,72.559094 604.47324,72.049414 607.8783,69.177034 L 607.99971,69.197704 C 596.84289,84.383435 582.16508,67.750544 585.10224,62.540844 C 577.26636,67.880554 570.04824,62.991504 570.2026,55.570544 C 572.72803,47.611374 579.38756,48.812694 585.376,50.851624 C 577.13397,42.822284 567.87781,22.291734 569.19731,13.978074 L 554.64107,70.617174 L 634.06933,117.33553 L 674.75483,74.822624 C 668.21475,80.122175 647.01896,83.583655 635.94433,80.460525 C 640.70431,84.627195 645.07446,89.793855 639.44433,95.960525 C 633.09477,99.804685 625.25167,95.998135 625.95805,86.542215 C 622.9149,91.690715 601.17149,87.295805 608.72466,69.980084 L 608.82677,69.803234 L 608.88572,69.837274 C 608.13645,74.190564 609.34693,77.282385 612.51717,79.112725 C 613.49263,79.571105 614.28775,79.872965 614.90254,80.018315 C 618.42701,80.236625 620.96449,79.003035 622.515,76.317534 C 622.96877,75.531524 623.2946,74.619244 623.49252,73.580684 C 623.76267,70.208394 622.33886,67.622224 619.22108,65.822144 L 618.84773,65.606594 C 617.74729,64.971274 616.6065,64.557174 615.42535,64.364284 L 615.3664,64.330244 L 617.22611,63.831944 C 620.00821,62.643534 621.84173,61.282984 622.72668,59.750264 C 623.11089,58.993994 623.41451,58.226084 623.63754,57.446554 C 624.03127,53.708954 622.82645,51.030874 620.02307,49.412314"
         style="font-size:46.46904373px;font-style:normal;font-weight:normal;opacity:1;fill:yellow;fill-opacity:1;stroke:none;stroke-width:1;stroke-linecap:butt;stroke-linejoin:miter;stroke-miterlimit:4;stroke-dasharray:none;stroke-opacity:1;font-family:Sans"
         id="path1887"
         sodipodi:nodetypes="cccccccccccscscccccccccccccccccsccccccccc" />
      <path
         d="M 502.47855,63.778868 C 501.96761,63.483908 501.17527,63.192378 500.10148,62.904258 C 496.49836,62.640578 493.9367,63.825278 492.4165,66.458368 L 492.25767,66.733468 C 491.64502,67.794598 491.31572,69.272538 491.26978,71.167338 C 491.12779,72.290588 491.33851,73.634918 491.90195,75.200328 L 491.86792,75.259278 L 491.80896,75.225238 C 490.99891,74.268508 490.03059,73.464918 488.90401,72.814468 L 488.72715,72.712358 C 488.05903,72.326638 487.2473,71.962788 486.29196,71.620798 C 482.44158,70.847538 479.63526,71.987058 477.87302,75.039358 C 477.43434,75.799178 477.1216,76.719008 476.9348,77.798898 C 476.75077,81.203468 477.90982,83.628048 480.41193,85.072638 C 483.62143,86.925648 486.92872,86.415968 490.33378,83.543588 L 490.45519,83.564258 C 479.29837,98.749989 464.62056,82.117098 467.55772,76.907398 C 459.72184,82.247108 452.50372,77.358058 452.65808,69.937098 C 455.18351,61.977928 461.84304,63.179248 467.83148,65.218178 C 459.58945,57.188838 450.33329,36.658288 451.65279,28.344628 L 437.09655,84.983728 L 516.52481,131.70208 L 557.21031,89.189178 C 550.67023,94.488729 529.47444,97.950209 518.39981,94.827079 C 523.15979,98.993749 527.52994,104.16041 521.89981,110.32708 C 515.55025,114.17124 507.70715,110.36469 508.41353,100.90877 C 505.37038,106.05727 483.62697,101.66236 491.18014,84.346638 L 491.28225,84.169788 L 491.3412,84.203828 C 490.59193,88.557118 491.80241,91.648939 494.97265,93.479279 C 495.94811,93.937659 496.74323,94.239519 497.35802,94.384869 C 500.88249,94.603179 503.41997,93.369589 504.97048,90.684088 C 505.42425,89.898078 505.75008,88.985798 505.948,87.947238 C 506.21815,84.574948 504.79434,81.988778 501.67656,80.188698 L 501.30321,79.973148 C 500.20277,79.337828 499.06198,78.923728 497.88083,78.730838 L 497.82188,78.696798 L 499.68159,78.198498 C 502.46369,77.010088 504.29721,75.649538 505.18216,74.116818 C 505.56637,73.360548 505.86999,72.592638 506.09302,71.813108 C 506.48675,68.075508 505.28193,65.397428 502.47855,63.778868"
         style="font-size:46.46904373px;font-style:normal;font-weight:normal;opacity:1;fill:yellow;fill-opacity:1;stroke:none;stroke-width:1;stroke-linecap:butt;stroke-linejoin:miter;stroke-miterlimit:4;stroke-dasharray:none;stroke-opacity:1;font-family:Sans"
         id="path1889"
         sodipodi:nodetypes="cccccccccccscscccccccccccccccccsccccccccc" />
      <path
         d="M 237.78311,445.10851 C 238.29613,445.39982 239.09053,445.6857 240.16634,445.96618 C 243.77124,446.20423 246.32441,445.00135 247.82585,442.35751 L 247.98272,442.08128 C 248.58781,441.01582 248.90659,439.53558 248.93905,437.6405 C 249.07304,436.51627 248.85277,435.17347 248.27821,433.61211 L 248.31182,433.55292 L 248.37102,433.58654 C 249.18786,434.53748 250.16187,435.33416 251.29304,435.97658 L 251.47063,436.07743 C 252.14147,436.4584 252.95577,436.81646 253.91351,437.15165 C 257.7693,437.8975 260.56744,436.73805 262.30793,433.67329 C 262.7412,432.91038 263.04738,431.98835 263.2265,430.90716 C 263.38632,427.50136 262.21004,425.08509 259.69773,423.65833 C 256.47513,421.8282 253.17154,422.36138 249.787,425.25791 L 249.66545,425.2381 C 260.71398,409.97341 275.50972,426.50148 272.60968,431.73194 C 280.40739,426.33664 287.6601,431.17422 287.55852,438.59609 C 285.08977,446.57302 278.42186,445.4191 272.41907,443.42281 C 280.718,451.39333 290.11994,471.85753 288.85961,480.18036 L 303.01264,423.43917 L 223.25411,377.28692 L 182.87201,420.0881 C 189.37423,414.74217 210.54487,411.13003 221.64143,414.17431 C 216.85194,410.04161 212.44515,404.90616 218.03128,398.6996 C 224.35333,394.81038 232.22331,398.56105 231.58421,408.02176 C 234.59066,402.85174 256.36478,407.0919 248.93495,424.4609 L 248.8341,424.63847 L 248.77491,424.60485 C 249.4932,420.24634 248.26076,417.16321 245.07759,415.35546 C 244.09889,414.90403 243.30164,414.60783 242.68583,414.46686 C 239.1599,414.27363 236.63126,415.52522 235.09989,418.22169 C 234.65172,419.01091 234.33238,419.92548 234.14186,420.96542 C 233.89569,424.33955 235.33787,426.91552 238.46837,428.69338 L 238.84325,428.90628 C 239.94817,429.53375 241.09187,429.93972 242.27437,430.12421 L 242.33357,430.15783 L 240.47744,430.66935 C 237.70386,431.87752 235.88007,433.25107 235.00604,434.79004 C 234.62722,435.54903 234.32907,436.31908 234.11159,437.10017 C 233.74445,440.84048 234.96829,443.50992 237.78311,445.10851"
         style="font-size:46.46904373px;font-style:normal;font-weight:normal;opacity:1;fill:yellow;fill-opacity:1;stroke:none;stroke-width:1;stroke-linecap:butt;stroke-linejoin:miter;stroke-miterlimit:4;stroke-dasharray:none;stroke-opacity:1;font-family:Sans"
         id="path1891"
         sodipodi:nodetypes="cccccccccccscscccccccccccccccccsccccccccc" />
      <path
         d="M 118.46383,460.78626 C 118.97685,461.07757 119.77125,461.36345 120.84706,461.64393 C 124.45196,461.88198 127.00513,460.6791 128.50657,458.03526 L 128.66344,457.75903 C 129.26853,456.69357 129.58731,455.21333 129.61977,453.31825 C 129.75376,452.19402 129.53349,450.85122 128.95893,449.28986 L 128.99254,449.23067 L 129.05174,449.26429 C 129.86858,450.21523 130.84259,451.01191 131.97376,451.65433 L 132.15135,451.75518 C 132.82219,452.13615 133.63649,452.49421 134.59423,452.8294 C 138.45002,453.57525 141.24816,452.4158 142.98865,449.35104 C 143.42192,448.58813 143.7281,447.6661 143.90722,446.58491 C 144.06704,443.17911 142.89076,440.76284 140.37845,439.33608 C 137.15585,437.50595 133.85226,438.03913 130.46772,440.93566 L 130.34617,440.91585 C 141.3947,425.65116 156.19044,442.17923 153.2904,447.40969 C 161.08811,442.01439 168.34082,446.85197 168.23924,454.27384 C 165.77049,462.25077 159.10258,461.09685 153.09979,459.10056 C 161.39872,467.07108 170.80066,487.53528 169.54033,495.85811 L 183.69336,439.11692 L 103.93483,392.96467 L 63.552733,435.76585 C 70.054953,430.41992 91.225593,426.80778 102.32215,429.85206 C 97.532663,425.71936 93.125873,420.58391 98.712003,414.37735 C 105.03405,410.48813 112.90403,414.2388 112.26493,423.69951 C 115.27138,418.52949 137.0455,422.76965 129.61567,440.13865 L 129.51482,440.31622 L 129.45563,440.2826 C 130.17392,435.92409 128.94148,432.84096 125.75831,431.03321 C 124.77961,430.58178 123.98236,430.28558 123.36655,430.14461 C 119.84062,429.95138 117.31198,431.20297 115.78061,433.89944 C 115.33244,434.68866 115.0131,435.60323 114.82258,436.64317 C 114.57641,440.0173 116.01859,442.59327 119.14909,444.37113 L 119.52397,444.58403 C 120.62889,445.2115 121.77259,445.61747 122.95509,445.80196 L 123.01429,445.83558 L 121.15816,446.3471 C 118.38458,447.55527 116.56079,448.92882 115.68676,450.46779 C 115.30794,451.22678 115.00979,451.99683 114.79231,452.77792 C 114.42517,456.51823 115.64901,459.18767 118.46383,460.78626"
         style="font-size:46.46904373px;font-style:normal;font-weight:normal;opacity:1;fill:yellow;fill-opacity:1;stroke:none;stroke-width:1;stroke-linecap:butt;stroke-linejoin:miter;stroke-miterlimit:4;stroke-dasharray:none;stroke-opacity:1;font-family:Sans"
         id="path1893"
         sodipodi:nodetypes="cccccccccccscscccccccccccccccccsccccccccc" />
      <path
         d="M 70.752072,351.07802 C 71.265092,351.36933 72.059492,351.65521 73.135302,351.93569 C 76.740202,352.17374 79.293372,350.97086 80.794812,348.32702 L 80.951682,348.05079 C 81.556772,346.98533 81.875552,345.50509 81.908012,343.61001 C 82.042002,342.48578 81.821732,341.14298 81.247172,339.58162 L 81.280782,339.52243 L 81.339982,339.55605 C 82.156822,340.50699 83.130832,341.30367 84.262002,341.94609 L 84.439592,342.04694 C 85.110432,342.42791 85.924732,342.78597 86.882472,343.12116 C 90.738262,343.86701 93.536402,342.70756 95.276892,339.6428 C 95.710162,338.87989 96.016342,337.95786 96.195462,336.87667 C 96.355282,333.47087 95.179002,331.0546 92.666692,329.62784 C 89.444092,327.79771 86.140502,328.33089 82.755962,331.22742 L 82.634412,331.20761 C 93.682942,315.94292 108.47868,332.47099 105.57864,337.70145 C 113.37635,332.30615 120.62906,337.14373 120.52748,344.5656 C 118.05873,352.54253 111.39082,351.38861 105.38803,349.39232 C 113.68696,357.36284 123.0889,377.82704 121.82857,386.14987 L 135.9816,329.40868 L 56.22307,283.25643 L 15.840973,326.05761 C 22.343193,320.71168 43.513833,317.09954 54.61039,320.14382 C 49.820903,316.01112 45.414113,310.87567 51.000243,304.66911 C 57.32229,300.77989 65.192272,304.53056 64.553172,313.99127 C 67.559622,308.82125 89.333742,313.06141 81.903912,330.43041 L 81.803062,330.60798 L 81.743872,330.57436 C 82.462162,326.21585 81.229722,323.13272 78.046552,321.32497 C 77.067852,320.87354 76.270602,320.57734 75.654792,320.43637 C 72.128862,320.24314 69.600222,321.49473 68.068852,324.1912 C 67.620682,324.98042 67.301342,325.89499 67.110822,326.93493 C 66.864652,330.30906 68.306832,332.88503 71.437332,334.66289 L 71.812212,334.87579 C 72.917132,335.50326 74.060832,335.90923 75.243332,336.09372 L 75.302532,336.12734 L 73.446402,336.63886 C 70.672822,337.84703 68.849032,339.22058 67.975002,340.75955 C 67.596182,341.51854 67.298032,342.28859 67.080552,343.06968 C 66.713412,346.80999 67.937252,349.47943 70.752072,351.07802"
         style="font-size:46.46904373px;font-style:normal;font-weight:normal;opacity:1;fill:yellow;fill-opacity:1;stroke:none;stroke-width:1;stroke-linecap:butt;stroke-linejoin:miter;stroke-miterlimit:4;stroke-dasharray:none;stroke-opacity:1;font-family:Sans"
         id="path1895"
         sodipodi:nodetypes="cccccccccccscscccccccccccccccccsccccccccc" />
    </g>
  </g>
</svg>
