<?xml version="1.0" encoding="UTF-8"?>
<svg version="1.0" xmlns="http://www.w3.org/2000/svg" xmlns:xlink="http://www.w3.org/1999/xlink" width="600" height="360">
	<g id="q1">
		<rect width="300" height="180" fill="#009"/>
		<g id="fleur" fill="#ffd700">
			<path d="M 43.85562,90.81755 C 34.10027,86.95639 29.29778,81.11194 28.78212,72.86116 C 28.45141,67.90107 33.40226,62.08328 38.70238,61.94886 C 55.25989,61.50106 60.79549,88.49615 60.69565,95.08521 C 59.9966,95.0832 56.55231,95.01447 55.69784,95.04757 C 54.94321,90.88637 55.59129,85.78863 50.3005,81.48978 C 45.0097,77.19102 42.67053,80.46673 42.00911,83.11213 C 41.3477,85.75753 44.45117,91.08649 43.85562,90.81755 z"/>
			<path d="M 88.07878,90.81755 C 97.83413,86.9563 102.63662,81.11194 103.15228,72.86116 C 103.48299,67.90098 98.53213,62.08319 93.23201,61.94886 C 76.67451,61.50097 71.1389,88.49615 71.23874,95.08521 C 71.93779,95.08312 75.38208,95.01438 76.23655,95.04749 C 76.99119,90.88629 76.3431,85.78855 81.6339,81.48978 C 86.9247,77.19102 89.26387,80.46665 89.92528,83.11213 C 90.5867,85.75744 87.48322,91.08649 88.07878,90.81755 z"/>
			<path d="M 65.82955,30.46155 C 54.57878,42.16034 51.55764,54.05875 59.05893,73.11877 C 61.63211,79.48498 62.72111,87.12392 62.61543,95.06404 C 63.70443,95.08922 68.34061,95.03633 69.43876,94.95836 C 69.34231,87.11469 70.64275,78.85998 73.2067,72.38801 C 81.89352,52.92366 75.63299,39.72056 66.1282,30.46155 L 65.97887,30.46155 z"/>
			<path d="M 59.91872,99.55926 C 57.61526,105.70714 53.54964,108.03072 50.22636,109.6589 C 55.2916,112.05706 61.14598,109.45252 62.2477,108.21254 C 62.11371,109.94605 61.97649,114.63049 62.60924,117.79434 C 63.03779,120.34557 64.12252,121.81528 65.95387,123.85075 C 67.85213,121.86206 69.02616,120.25949 69.65891,117.9996 C 70.42774,114.71883 69.61422,110.06514 69.68226,108.32745 C 70.56069,109.40791 77.56679,112.00809 82.17683,109.7482 C 77.88478,107.87756 73.72558,105.69956 72.37174,99.44434 C 71.86984,99.47527 61.18422,99.46883 59.91872,99.46883 z"/>
			<rect x="52.77988" y="95.24809" width="26.65843" height="3.9655"/>
		</g>
		<use xlink:href="#fleur" x="84" y="30"/>
		<use xlink:href="#fleur" x="168"/>
		<path d="M 10,10 H 290 V 170 H 10 z" fill="none" stroke="#fff" stroke-width="20"/>
		<path d="M 0,0 h 50 v 20 h -30 z M 100,0 h 50 v 20 h -50 z M 200,0 h 50 v 20 h -50 z M 300,0 v 45 h -20 v -25 z M 300,90 v 45 h -20 v -45 z M 300,180 h -50 v -20 h 30 z M 200,180 h -50 v -20 h 50 z M 100,180 h -50 v -20 h 50 z M 0,180 v -50 h 20 v 30 z M 0,90 v -45 h 20 v 45 z" fill="#f00"/>
	</g>
	<g id="q2">
		<rect x="300" width="300" height="180" fill="#f00"/>
		<rect x="330" y="30" width="240" height="120" fill="#009"/>
		<path d="M 570,70 V 30 H 490 z M 410,30 H 330 L 570,150 V 110 z M 330,70 V 110 L 410,150 H 490 z" fill="#ffd700"/>
	</g>
	<use xlink:href="#q2" x="-300" y="180"/>
	<use xlink:href="#q1" x="300" y="180"/>
</svg>