<?xml version="1.0" encoding="UTF-8"?>
<svg xmlns="http://www.w3.org/2000/svg" xmlns:xlink="http://www.w3.org/1999/xlink" width="360" height="216">
	<rect width="360" height="216" fill="#ffd700"/>
	<path d="M 0,0 L 360,216" stroke="#f00" stroke-width="72"/>
	<path id="v" d="M 48.72318 34.55931 C 56.47992 32.91842 57.25289 36.98326 60.46235 38.41782 C 73.71279 44.42282 77.3821 38.68984 70.89749 34.4482 C 65.63354 30.77168 71.35913 23.91302 76.6239 26.54205 C 82.43069 29.72441 95.4453 28.90182 98.8696 26.76804 C 97.5274 33.74666 88.35011 35.33592 83.80379 33.8316 C 86.489 38.19632 93.03951 37.51488 98.8959 35.21894 C 98.4225 41.3089 87.0276 44.07211 83.35011 41.67931 C 85.4323 46.52407 95.1086 47.29507 100.362 45.47897 C 95.5564 51.07628 84.959 52.61377 80.67841 50.70078 C 82.95499 54.79958 88.6236 59.94237 92.5084 56.65417 C 91.82121 61.73217 97.2853 60.11763 100.0845 58.36577 C 99.09324 61.32064 98.69605 65.12704 101.6441 68.01299 C 97.62357 67.30434 94.88129 68.20236 92.13548 71.40914 C 92.71954 67.09853 90.54604 63.56184 86.44776 66.23935 C 87.37973 61.47278 81.7877 59.27467 76.2296 57.98417 C 79.9981 62.47206 83.8572 69.05487 81.2178 74.89847 C 79.0838 71.47417 76.7876 65.61777 71.2294 64.32737 C 73.77204 68.01767 75.58825 73.27097 71.86563 78.99127 C 70.47778 75.76138 68.76521 67.66757 64.41314 65.41727 C 66.35259 69.58747 67.49414 74.98337 64.30352 79.88657 C 62.2927 75.37926 61.54008 68.49137 54.32794 64.38007 C 48.99443 61.13527 51.67043 54.42217 57.86874 54.46978 C 69.68173 54.63476 59.86584 45.59095 56.40256 44.2098 C 53.27635 42.75715 48.19808 42.06985 48.79454 34.89658 z" transform="translate(2,-3)" fill="#fff" stroke="#000"/>
	<use xlink:href="#v" x="100" y="60"/>
	<use xlink:href="#v" x="200" y="120"/>
</svg>