<?xml version="1.0" encoding="UTF-8"?>
<svg xmlns="http://www.w3.org/2000/svg" xmlns:xlink="http://www.w3.org/1999/xlink" width="360" height="216">
	<rect width="360" height="216" fill="#d70000"/>
	<g id="castle" transform="translate(0,-0.625025)" fill="#ffd700">
		<rect height="13.6914825" style="stroke:#000;stroke-width:0.625" transform="matrix(2.04944,0,0,1.997947,-113.5278,249.6203)" width="6.84574127" x="94.9068451" y="-108.564163"/>
		<g style="stroke:#000;stroke-width:0.625" transform="matrix(1.296695,0,0,1.626177,-40.10305,185.03)">
			<rect height="4.18057226" width="3.30044536" x="90.5613884" y="-97.648392"/>
			<rect height="2.20030175" width="3.08042103" x="93.8885286" y="-95.6681402"/>
		</g>
		<g style="stroke:#000;stroke-width:0.625" transform="matrix(1.296695,0,0,1.626177,-40.10305,185.03)">
			<rect height="4.18057226" width="3.30044536" x="90.5613884" y="-97.648392"/>
			<rect height="2.20030175" width="3.08042103" x="93.8885286" y="-95.6681402"/>
		</g>
		<g style="stroke:#000;stroke-width:0.625" transform="matrix(-1.296695,0,0,1.626177,216.1796,185.03)">
			<rect height="4.18057226" width="3.30044536" x="90.5613884" y="-97.648392"/>
			<rect height="2.20030175" width="3.08042103" x="93.8885286" y="-95.6681402"/>
		</g>
		<rect height="3.32454225" style="stroke:#000;stroke-width:0.617783" transform="matrix(2.04944,0,0,1.997947,-159.5003,249.4668)" width="2.08821451" x="119.593326" y="-111.729841"/>
		<rect height="1.38353947" style="stroke-width:0.625" transform="matrix(2.04944,0,0,1.997947,-113.5278,249.6203)" width="9.05644744" x="94.201481" y="-110.005455"/>
		<rect height="2.80052121" style="fill:#d70000;stroke:#000;stroke-width:0.625" transform="matrix(2.04944,0,0,1.997947,-113.5278,249.6203)" width="2.02260458" x="97.2406042" y="-105.452484"/>
		<rect height="17.9166211" style="stroke:#000;stroke-width:0.625" transform="matrix(2.04944,0,0,1.997947,-159.5003,249.4668)" width="6.84574086" x="106.045869" y="-112.712501"/>
		<rect height="13.6560411" style="stroke:#000;stroke-width:0.624191" transform="matrix(2.04944,0,0,1.997947,-159.5003,249.4668)" width="6.84574039" x="94.9068318" y="-108.528701"/>
		<g style="stroke:#000;stroke-width:0.625" transform="matrix(1.296695,0,0,1.588839,-86.07552,181.2306)">
			<rect height="4.18057226" width="3.30044536" x="90.5613884" y="-97.648392"/>
			<rect height="2.20030175" width="3.08042103" x="93.8885286" y="-95.6681402"/>
		</g>
		<rect height="3.32454259" style="stroke:#000;stroke-width:0.443332" transform="matrix(2.04944,0,0,1.997947,-159.5003,249.4668)" width="2.08821466" x="93.125573" y="-111.806686"/>
		<rect height="1.52911463" style="stroke:#000;stroke-width:0.414439" transform="matrix(2.04944,0,0,1.997947,-159.5003,249.4668)" width="1.94900358" x="95.2306691" y="-110.194908"/>
		<g style="stroke:#000;stroke-width:0.625" transform="matrix(-1.296695,0,0,1.584464,170.2072,180.8034)">
			<rect height="4.18057226" width="3.30044536" x="90.5613884" y="-97.648392"/>
			<rect height="2.20030175" width="3.08042103" x="93.8885286" y="-95.6681402"/>
		</g>
		<rect height="3.22814519" style="stroke:#000;stroke-width:0.608761" transform="matrix(2.04944,0,0,1.997947,-159.5003,249.4668)" width="2.08821451" x="97.1616077" y="-111.806661"/>
		<rect height="1.30541504" style="stroke-width:0.625" transform="matrix(2.04944,0,0,1.997947,-159.5003,249.4668)" width="9.05644649" x="94.2014791" y="-110.005458"/>
		<rect height="2.80052121" style="fill:#d70000;stroke:#000;stroke-width:0.625" transform="matrix(2.04944,0,0,1.997947,-159.5003,249.4668)" width="2.02260458" x="97.2406042" y="-105.452484"/>
		<g style="stroke:#000;stroke-width:0.625" transform="matrix(2.04944,0,0,1.997947,-157.2683,249.4668)">
			<g transform="translate(0,-2.516348e-5)">
				<rect height="4.18057226" width="3.30044536" x="90.5613884" y="-97.648392"/>
				<rect height="2.20030175" width="3.08042103" x="93.8885286" y="-95.6681402"/>
			</g>
			<g transform="translate(0,-2.516348e-5)">
				<rect height="4.18057226" width="3.30044536" x="90.5613884" y="-97.648392"/>
				<rect height="2.20030175" width="3.08042103" x="93.8885286" y="-95.6681402"/>
			</g>
			<g transform="matrix(-1,0,0,1,216.3134,-2.516348e-5)">
				<rect height="4.18057226" width="3.30044536" x="90.5613884" y="-97.648392"/>
				<rect height="2.20030175" width="3.08042103" x="93.8885286" y="-95.6681402"/>
			</g>
			<g transform="translate(25.51594,-6.09e-6)">
				<rect height="4.18057226" width="3.30044536" x="90.5613884" y="-97.648392"/>
				<rect height="2.20030175" width="3.08042103" x="93.8885286" y="-95.6681402"/>
			</g>
			<g transform="translate(19.13695,-6.09e-6)">
				<rect height="4.18057226" width="3.30044536" x="90.5613884" y="-97.648392"/>
				<rect height="2.20030175" width="3.08042103" x="93.8885286" y="-95.6681402"/>
			</g>
			<g transform="translate(12.75797,-6.09e-6)">
				<rect height="4.18057226" width="3.30044536" x="90.5613884" y="-97.648392"/>
				<rect height="2.20030175" width="3.08042103" x="93.8885286" y="-95.6681402"/>
			</g>
			<g transform="translate(6.378984,-6.09e-6)">
				<rect height="4.18057226" width="3.30044536" x="90.5613884" y="-97.648392"/>
				<rect height="2.20030175" width="3.08042103" x="93.8885286" y="-95.6681402"/>
			</g>
		</g>
		<path d="M 92.72004 -93.39172 L 125.8469 -93.42302 L 126.9888 -80.40993 L 91.61989 -79.96986 L 92.72004 -93.39172 L 92.72004 -93.39172 L 92.72004 -93.39172 z " style="fill:#ffd700;fill-rule:evenodd;stroke:#000;stroke-width:0.625" transform="matrix(2.04944,0,0,1.997947,-159.5003,249.4668)"/>
		<rect height="4.4005873" style="stroke:#000;stroke-width:0.625" transform="matrix(2.04944,0,0,1.997947,-159.5003,249.4668)" width="38.7111145" x="90.0483593" y="-80.2733396"/>
		<rect height="1.63269027" style="stroke-width:0.625" transform="matrix(2.04944,0,0,1.997947,-159.5003,249.4668)" width="31.7393398" x="93.3509924" y="-95.3394439"/>
		<g style="stroke:#000;stroke-width:0.8709" transform="matrix(1.296695,0,0,1.626177,-63.24674,176.5884)">
			<rect height="4.18057226" width="3.30044536" x="90.5613884" y="-97.648392"/>
			<rect height="2.20030175" width="3.08042103" x="93.8885286" y="-95.6681402"/>
		</g>
		<g style="stroke:#000;stroke-width:0.8709" transform="matrix(1.296695,0,0,1.626177,-63.24674,176.5884)">
			<rect height="4.18057226" width="3.30044536" x="90.5613884" y="-97.648392"/>
			<rect height="2.20030175" width="3.08042103" x="93.8885286" y="-95.6681402"/>
		</g>
		<g style="stroke:#000;stroke-width:0.8709" transform="matrix(-1.296695,0,0,1.626177,193.0359,176.5884)">
			<rect height="4.18057226" width="3.30044536" x="90.5613884" y="-97.648392"/>
			<rect height="2.20030175" width="3.08042103" x="93.8885286" y="-95.6681402"/>
		</g>
		<rect height="3.40266747" style="stroke:#000;stroke-width:0.625" transform="matrix(2.04944,0,0,1.997947,-136.6715,241.1786)" width="2.08821466" x="97.1616105" y="-111.806664"/>
		<rect height="1.26635292" style="stroke-width:0.625" transform="matrix(2.04944,0,0,1.997947,-159.5003,249.4668)" width="9.05644649" x="105.340509" y="-114.153783"/>
		<rect height="2.80052121" style="fill:#d70000;stroke:#000;stroke-width:0.625" transform="matrix(2.04944,0,0,1.997947,-136.6715,241.1786)" width="2.02260458" x="97.2406042" y="-105.452484"/>
		<rect height="4.02207064" style="fill:#d70000;stroke:#000;stroke-width:0.625" transform="matrix(2.04944,0,0,1.997947,-159.5003,249.4668)" width="3.1568914" x="118.850024" y="-91.015885"/>
		<rect height="4.02207017" style="fill:#d70000;stroke:#000;stroke-width:0.625" transform="matrix(2.04944,0,0,1.997947,-159.5003,249.4668)" width="3.15689116" x="96.8621635" y="-90.9286429"/>
		<path d="M 107.7579 -80.60714 C 107.7579 -81.39242 107.7579 -86.1041 107.7579 -87.50015 C 107.7579 -89.41972 111.6843 -89.24524 111.7716 -87.67467 C 111.8588 -86.1041 111.8588 -81.04341 111.8588 -80.60715 C 111.4225 -80.5199 108.2815 -80.60712 107.7579 -80.60715 L 107.7579 -80.60714 z " style="fill:#d70000;fill-rule:evenodd;stroke:#000;stroke-width:0.625" transform="matrix(2.04944,0,0,1.997947,-159.5003,249.4668)"/>
	</g>
	<use xlink:href="#castle" transform="translate(234)"/>
	<use xlink:href="#castle" transform="translate(117,52)"/>
	<use xlink:href="#castle" transform="translate(234,104)"/>
	<use xlink:href="#castle" transform="translate(0,104)"/>
</svg>