<?xml version="1.0" encoding="UTF-8" standalone="no"?>
<svg
   xmlns:svg="http://www.w3.org/2000/svg"
   xmlns="http://www.w3.org/2000/svg"
   xmlns:xlink="http://www.w3.org/1999/xlink"
   version="1.1"
   width="1000"
   height="581.43604"
   id="Provence-Alpes-Cote-d-Azur">
    <title
       id="title3833">Provence Alpes Cote-d'Azur</title>
    <defs
       id="defs4">
        <rect
           width="59.348999"
           height="577.40289"
           x="62.228001"
           y="1.987306"
           id="redstripe"
           style="fill:#ff0000;fill-opacity:1;stroke:none" />
        <path
           d="m 672.105,549.96978 c 2.68315,-18.77099 6.81737,-31.85723 13.43502,-43.13351 7.07107,-1.47694 16.97057,-2.51209 21.21321,-0.70711 8.24574,7.69581 15.92658,29.57601 18.38477,41.0122 -10.0554,27.46359 -54.45899,10.08493 -53.033,2.82842 z"
           id="rock"
           style="fill:#000000;fill-opacity:1;stroke:#000000;stroke-width:1px" />
    </defs>
    <g
       id="g3685">
        <rect
           width="491.68695"
           height="293.75546"
           x="507.39581"
           y="287.68057"
           id="rect2910"
           style="fill:#00ffff;fill-opacity:0;stroke:none" />
        <rect
           width="489.186"
           height="295.65558"
           x="509.61737"
           y="288.00589"
           id="rect2911"
           style="fill:#ffffff;fill-opacity:1;stroke:none" />
        <g
           id="orange"
           style="display:inline">
            <rect
               width="507.46252"
               height="579.95697"
               x="2.3889999"
               y="2.311065"
               id="rect3603"
               style="fill:#ffc000;fill-opacity:1;stroke:none" />
        </g>
        <use
           transform="translate(0,0.012694)"
           id="r0"
           style="display:inline"
           x="0"
           y="0"
           width="1000"
           height="581.43604"
           xlink:href="#redstripe" />
        <use
           transform="translate(106.852,0.012694)"
           id="use3661"
           style="display:inline"
           x="0"
           y="0"
           width="1000"
           height="581.43604"
           xlink:href="#redstripe" />
        <use
           transform="translate(225.704,0.012694)"
           id="use3663"
           style="display:inline"
           x="0"
           y="0"
           width="1000"
           height="581.43604"
           xlink:href="#redstripe" />
        <use
           transform="translate(334.556,0.012694)"
           id="use3665"
           style="display:inline"
           x="0"
           y="0"
           width="1000"
           height="581.43604"
           xlink:href="#redstripe" />
        <rect
           width="486.80301"
           height="288.172"
           x="510.5376"
           y="0.29397574"
           id="rect2931"
           style="fill:#ffd700;fill-opacity:1;stroke:none;display:inline" />
        <path
           d="m 689.65485,87.712677 21.56328,-3.854425 -6.28354,-12.567079 -22.34872,12.996194 c -3.74597,2.178351 -1.62115,4.978666 7.06898,3.42531 z"
           id="tongue"
           style="fill:#d70000;fill-opacity:1;stroke:#000000;stroke-width:2px;stroke-linecap:butt;stroke-linejoin:miter;stroke-opacity:1;display:inline" />
        <path
           d="m 668.80423,68.934846 c -1.07466,8.129939 -1.22703,15.79874 14.13797,15.708849 11.55152,-6.074549 19.19973,-5.703232 25.13416,-2.356328 13.62448,7.683949 28.903,4.754263 40.05756,8.639867 29.50789,10.278846 48.01613,40.375186 46.3411,64.406276 -1.67503,24.03109 -0.75231,38.86097 -29.06137,58.90819 -11.97064,8.47708 -23.4961,17.25302 -39.27212,11.78163 l 31.4177,42.41389 c 0.0783,-9.47118 5.61718,-17.0415 13.35252,-25.13415 14.32575,-14.98748 37.27867,-23.29203 54.98097,-40.05757 36.63723,-34.69849 29.15442,-62.20355 25.9196,-88.75499 -2.35802,-19.354652 -11.1063,-37.440508 -21.99239,-54.195531 -7.99015,-12.297808 -21.99238,-21.992388 -40.843,-29.846812 3.90141,-6.749645 3.42296,-12.623318 -3.14177,-17.279734 -5.52813,4.88573 -11.48943,7.062849 -15.70885,9.068982 -3.69259,-2.604545 -3.56454,-9.119409 -3.14177,-13.7816366 -1.89016,4.7126546 -4.77099,9.4253086 -14.92341,14.1379636 -28.32509,-2.143674 -48.13302,4.276403 -61.26451,17.279734 -3.83833,3.800873 -2.36171,10.019738 -2.35633,20.421503 0.004,7.82906 -10.44971,9.281246 -19.63606,8.639867 z"
           id="body"
           style="fill:#0000d7;fill-opacity:1;stroke:#080101;stroke-width:2.5999999;stroke-linecap:butt;stroke-linejoin:miter;stroke-miterlimit:4;stroke-opacity:1;stroke-dasharray:none;display:inline" />
        <path
           d="m 671.946,97.210774 c 1.19304,-4.56687 5.58181,-5.938017 8.63987,-8.639867 18.87699,0.759078 25.13416,-7.854425 25.13416,-7.854425 l 18.85062,8.639867 -18.85062,1.570885 c -7.2681,0.605675 -13.31784,6.2021 -20.4215,7.854425 -9.166,2.132031 -14.42317,-1.214003 -13.35253,-1.570885 z"
           id="jaw"
           style="fill:#0000d7;fill-opacity:1;stroke:#000000;stroke-width:2.5999999px;stroke-linecap:butt;stroke-linejoin:miter;stroke-opacity:1;display:inline" />
        <path
           d="m 752.84656,89.749079 c 12.85686,3.543432 24.79217,2.479077 41.62845,25.919601"
           id="finline"
           style="fill:none;stroke:#000000;stroke-width:3.29999995;stroke-linecap:round;stroke-linejoin:miter;stroke-miterlimit:4;stroke-opacity:1;stroke-dasharray:none;display:inline" />
        <path
           d="m 723.51317,88.2989 c 6.4255,3.719605 12.96446,7.439209 17.16742,11.158814 4.39575,7.022966 1.88754,11.284366 -5.15023,13.733936 11.77412,-0.5292 15.51077,-6.91016 15.84009,-18.884156 L 723.51317,88.2989 z"
           id="right_dorsal"
           style="fill:#d70000;fill-opacity:1;stroke:#000000;stroke-width:2.84140944px;stroke-linecap:butt;stroke-linejoin:miter;stroke-opacity:1;display:inline" />
        <path
           d="m 717.50165,66.971249 c 9.92808,13.090707 21.239,26.181414 35.34491,39.272121 2.84416,2.05497 4.18482,6.1146 0.78544,16.49429 4.682,-2.09451 6.56467,-4.18903 7.06899,-6.28354 4.53668,-7.2868 -1.40516,-11.95398 -4.71266,-17.279732 -6.10661,-9.017246 2.87068,-13.006528 8.63987,-18.065175 -28.57275,2.433957 -36.70157,-6.489826 -47.12655,-14.137964 z"
           id="left_dorsal"
           style="fill:#d70000;fill-opacity:1;stroke:#000000;stroke-width:2.5999999px;stroke-linecap:butt;stroke-linejoin:miter;stroke-opacity:1;display:inline" />
        <path
           d="m 792.11868,29.270013 c 3.1809,-1.682226 7.57091,-2.759902 14.92341,-2.356328 7.85442,2.392049 15.70885,-2.975221 23.56327,-10.996193 -2.24776,5.263237 3.13933,6.284893 -16.49429,21.206945 14.37663,3.095476 24.21655,-2.882466 34.55947,-7.854424 11.04429,-5.840067 18.80222,-6.202877 23.56327,-1.570885 -12.22738,3.231436 -24.97066,6.061617 -18.85062,23.563273 C 840.90481,49.95494 832.70493,53.460778 836.8889,70.898461 825.636,55.187059 811.72372,40.805347 792.11868,29.270013 z"
           id="back_1"
           style="fill:#d70000;fill-opacity:1;stroke:#000000;stroke-width:2.5999999px;stroke-linecap:butt;stroke-linejoin:miter;stroke-opacity:1;display:inline" />
        <path
           d="m 847.38319,96.534522 c 4.56402,16.520868 7.65325,32.094458 5.85443,56.689818 0.85634,-9.25565 9.01323,-1.47668 15.84681,3.21456 -7.20409,-11.57384 -12.0387,-22.75277 5.49809,-30.20314 -15.76871,-11.57598 -18.90743,-19.99446 -27.19933,-29.701238 z"
           id="back_2"
           style="fill:#d70000;fill-opacity:1;stroke:#000000;stroke-width:2.5999999px;stroke-linecap:butt;stroke-linejoin:miter;stroke-opacity:1;display:inline" />
        <path
           d="m 835.88509,192.99836 c -7.36722,8.09319 -9.99245,14.40813 -33.12654,28.41389 13.17564,21.31225 22.33031,22.51962 31.41008,23.35253 -9.40739,-12.82012 -7.71286,-30.57443 1.71646,-51.76642 z"
           id="back_3"
           style="fill:#d70000;fill-opacity:1;stroke:#000000;stroke-width:2.5999999px;stroke-linecap:butt;stroke-linejoin:miter;stroke-opacity:1;display:inline" />
        <path
           d="m 660.24476,187.14394 c 8.84561,-5.31369 14.86181,-3.0823 17.4253,8.35633 -1.64627,6.73951 3.94962,6.23687 4.28354,10.99619 -17.29329,-8.59244 -22.53356,-0.31064 -29.84681,5.06898 9.53422,-0.86673 18.4709,1.85172 25.9196,13.4981 18.08101,17.20045 48.35051,19.88069 54.3411,13.70885 -7.97158,13.67849 -20.07477,8.76468 -32.13035,4.06517 1.49806,3.06079 -3.03734,4.91489 7.85443,9.85443 6.7154,2.22152 12.31673,1.10086 20.9234,8.99619 2.31699,1.45799 4.56864,3.04667 8.92341,0.42912 0.70212,3.67659 -6.80319,-0.85425 2.14558,11.06898 5.80148,4.91856 11.86734,9.70493 21.78163,12.56708 17.21047,4.33305 22.66088,-3.09396 29.84681,-8.78545 -18.75149,4.39239 -31.74086,1.58212 -33.77402,-14.9234 -7.69402,-6.42947 6.24981,-22.1323 11.70124,-34.19553 -48.3462,11.01763 -64.71389,-14.20704 -82.54425,-37.77402 -6.44078,-10.17823 -14.17727,-15.60552 -26.85061,-2.93102 z"
           id="tail"
           style="fill:#d70000;fill-opacity:1;stroke:#000000;stroke-width:2.5999999px;stroke-linecap:butt;stroke-linejoin:miter;stroke-opacity:1;display:inline" />
        <path
           d="m 713.57444,62.258594 c 12.55305,20.671095 33.61516,20.367483 56.55185,16.065176"
           id="cheek"
           style="fill:none;stroke:#000000;stroke-width:2.9000001;stroke-linecap:round;stroke-linejoin:miter;stroke-miterlimit:4;stroke-opacity:1;stroke-dasharray:none;display:inline" />
        <path
           d="m 717.26044,62.352313 a 3.7433711,3.7433711 0 1 1 -7.48674,0 3.7433711,3.7433711 0 1 1 7.48674,0 z"
           id="eye"
           style="fill:#f9f9fe;fill-opacity:1;stroke:none;display:inline" />
        <path
           d="m 688.44028,60.68771 c 0,0 6.72662,8.513831 18.06518,-3.14177 11.33856,-11.655601 19.63606,-3.14177 19.63606,-3.14177"
           id="brow"
           style="fill:none;stroke:#000000;stroke-width:2.4000001;stroke-linecap:round;stroke-linejoin:miter;stroke-miterlimit:4;stroke-opacity:1;stroke-dasharray:none;display:inline" />
        <path
           d="m 786.22786,46.549746 c 0,0 6.64952,5.218407 3.14177,14.923406 8.95363,-12.184267 14.69259,-9.056174 19.63606,-5.498097 3.42873,-6.201576 8.2352,-7.304235 14.92341,-4.712654 -2.88747,-6.205834 7.85442,-7.42531 7.85442,-7.42531"
           id="gill"
           style="fill:none;stroke:#000000;stroke-width:3.5999999;stroke-linecap:round;stroke-linejoin:miter;stroke-miterlimit:4;stroke-opacity:1;stroke-dasharray:none;display:inline" />
        <path
           d="m 778.76616,72.469346 c 60.51108,15.949396 65.5816,90.892964 14.13796,137.452424"
           id="bodystripe"
           style="fill:none;stroke:#000000;stroke-width:5.30000019;stroke-linecap:butt;stroke-linejoin:miter;stroke-miterlimit:4;stroke-opacity:1;stroke-dasharray:none;display:inline" />
        <use
           id="r1"
           style="display:inline"
           x="0"
           y="0"
           width="1000"
           height="581.43604"
           xlink:href="#rock" />
        <use
           transform="matrix(1,0,0.07519009,1,14.461867,1.4142136)"
           id="r2"
           style="display:inline"
           x="0"
           y="0"
           width="1000"
           height="581.43604"
           xlink:href="#rock" />
        <use
           transform="matrix(1,0,0.22557027,1,-14.371757,0)"
           id="r3"
           style="display:inline"
           x="0"
           y="0"
           width="1000"
           height="581.43604"
           xlink:href="#rock" />
        <path
           d="m 999.38434,546.91953 1.6e-4,35.11269 -488.97472,-0.92893 10e-6,-34.18376 c 20.32798,21.06923 37.74624,14.49611 54.33051,0 15.51184,17.32216 33.16939,20.33961 54.3305,0 13.89756,13.33992 29.26596,22.0222 54.33051,0 16.95045,20.56438 37.21906,20.95518 54.3305,0 15.1083,17.26073 31.74258,25.74713 54.33051,0 14.77191,14.6883 30.28949,26.09572 54.3305,0 13.75192,14.52749 29.38388,22.78819 54.33051,0 15.2521,12.86129 31.62406,20.68324 54.3305,0 22.71012,20.69978 39.07386,12.84086 54.33051,0 z"
           id="path3654"
           style="fill:#0000c6;fill-opacity:1;stroke:none;display:inline" />
        <path
           d="m 656.90221,353.04054 c -1.5945,3.3683 4.55077,1.83182 7.35005,1.93888 0.13822,5.20932 -6.95549,7.53493 -7.35005,10.08194 6.00921,1.71389 23.58184,-12.31635 4.94974,4.24264 -10.68427,9.60197 -32.63471,33.77135 -22.62741,28.99138 4.9203,-2.75617 6.81898,-2.29344 15.55635,-11.31371 8.46129,-4.7283 5.39109,-0.12158 0,6.36396 -4.85961,10.23677 -24.19778,33.2815 -13.43503,29.69848 4.00694,-2.57472 8.01387,-9.08033 12.02081,-15.55634 9.4067,-8.44877 6.4428,-3.79926 4.94975,-0.70711 -6.01933,10.2181 -13.23863,20.26478 -14.84924,31.1127 -0.65215,7.54648 -1.20512,14.85211 2.7071,11.31371 3.57577,-6.39079 5.19584,-12.8111 10.72793,-20.5061 11.15319,-6.7391 11.21285,-4.49771 8.48528,0 -6.01965,8.52144 -9.99093,18.16949 -2.82843,33.94112 4.10116,6.72737 7.57736,11.0442 7.07107,0 -0.7874,-5.99829 -5.1719,-9.05348 0.7071,-20.50609 0.14715,-1.88562 1.47579,-3.77124 4.94975,-5.65686 0.29625,3.77124 -0.6642,7.54247 1.41422,11.31371 7.4897,14.10977 6.50608,7.88357 7.77817,7.07107 -0.20597,-4.47516 -1.85966,-7.98516 -0.29289,-13.64214 0.57254,-2.49773 -0.34024,-7.75485 7.07106,-4.03553 1.66731,3.05355 3.30421,4.91317 5.94975,7.07107 2.99058,0.98936 5.17558,2.70092 2.87132,-2.82843 -0.77391,-2.75632 -1.38122,-4.29353 -1.5,-6.36396 -1.74028,-2.26291 -0.62595,-2.59851 3.53554,-2.28553 l 4.28553,3.69974 c 7.61978,3.30111 4.82145,-1.85173 3.69975,-3.28553 l -1.57843,-3.78553 c -2.67897,-5.90093 0.35184,-5.57302 4.94975,-3.53554 1.59319,2.23771 2.85617,4.69555 6.36396,5.65686 l 2.41421,4.24264 c -3.7729,6.45502 -6.03582,13.58922 -18.88477,20.04899 l -5.03554,2.99264 c 1.68459,1.07447 5.02975,1.16726 7.36396,0.29289 2.02967,-0.82163 3.9252,-1.52402 0.0858,2.87132 -1.79311,2.96867 -6.93691,3.95354 -10.69239,5.61396 -2.71959,0.85856 -8.03273,1.412 0,3.53554 4.1879,1.59907 8.37581,-0.043 12.56371,-0.95711 -5.90766,8.92903 -10.002,20.36936 -10.44239,27.82716 -0.44039,7.4578 -1.80893,3.29811 -4.94975,3.53554 -3.14082,0.23743 -11.49127,-1.20916 -9.89949,9.19239 l 34.64823,8.48528 c 0.7074,-5.63073 -1.77904,-10.55172 -7.07107,-14.84924 -1.23082,-5.89268 3.37876,-17.13905 10.10661,-30.32717 1.31582,2.83164 2.12795,6.16697 4.03553,8.40685 1.37741,0.18716 4.46935,4.83209 2.82843,-2.82842 0.23345,-11.26859 2.32279,-20.86689 9.19239,-26.16295 7.38816,3.84435 -0.51752,12.18689 -3.53554,19.09188 -0.11595,1.47219 -3.16746,4.41216 2.82843,2.82843 l 4.24264,0.7071 c -2.22105,3.9883 -3.98821,6.81284 -9.3566,12.02082 l -4,3.74264 c 3.79983,0.60108 8.59966,-0.64306 12.64949,-1.62132 -2.30344,5.5788 -2.9692,10.71661 -9.81371,14.34924 -0.25982,1.11924 -9.00709,5.69705 3.44975,3.32843 4.22021,-0.48636 6.17687,-2.48175 8.48528,-4.24264 -3.50446,5.42115 -4.90159,10.8423 -12.02081,16.26345 -3.21881,3.52291 -4.61855,6.00635 1.41421,4.24265 l 38.89087,-1.41422 c 8.11243,2.14971 8.88174,1.08679 6.36397,-1.41421 -5.18545,-5.05918 -10.3709,-6.54387 -15.55635,-16.97056 l 5.65685,2.82842 c 5.83124,1.64106 7.64881,0.77357 2.82843,-4.24264 -3.7165,-3.72019 -7.433,-6.87374 -11.1495,-14.43503 2.81254,1.83795 5.3812,2.94426 7.52818,2.78554 4.60951,-1.64992 4.86586,-1.54983 2.2071,-3.19975 -3.64746,-3.4616 -7.29492,-3.94772 -10.94238,-11.56371 1.76184,0.38342 3.52369,0.5319 5.28553,0.25 3.08551,0.66422 1.2174,-2.38678 -1,-5.69975 -7.2494,-3.25334 -3.73383,-10.32818 -5.36396,-16.22056 7.67504,2.22497 11.01382,10.02514 9.3566,24.24874 1.41421,5.13818 4.07843,4.7242 5.49264,1.91421 l 0,-4.24264 c -2.13497,-8.67157 11.23416,14.62597 15.84924,20.92031 2.57526,1.21717 1.79851,4.10635 -0.29289,6.65686 -2.31664,1.8495 -9.11802,3.11127 -4.24264,12.72792 l 31.1127,-6.36396 c -1.17597,0.71785 6.32383,-4.2065 -4.94975,-10.60661 -3.51367,-2.30237 -5.54263,-0.89297 -7.77817,0 -3.01301,-10.24712 -9.43649,-20.49425 -15.68503,-30.74137 12.82976,4.79356 14.99382,3.37927 19.22056,3.87132 6.72968,-0.94281 5.25542,-1.88562 0.70711,-2.82843 -6.47186,-1.11043 -12.57946,-4.04218 -18.38478,-8.48528 -2.85337,-5.1532 2.97355,-1.62611 5.44239,-1.45711 5.36495,-1.23581 0.95315,-2.86724 -0.49264,-4.19975 -8.08812,-6.19177 -20.56547,-9.94508 -23.33453,-19.09188 -3.81557,-3.04122 -4.34073,-4.1082 -4.90685,-5.19975 0.43321,-4.99897 3.22156,-10.30554 4.24264,-5.65685 l -0.29289,4.40685 c 0.33698,1.61585 0.75872,3.35456 3.74264,1 l 1.66421,-3.74264 c 1.29044,-4.55399 3.08088,-2.53431 4.37132,0.82843 0.0976,2.27954 -0.30473,4.19035 -0.7071,5.28553 0.40045,2.30865 -0.031,5.88192 4.48528,3.57843 l 2.25,-5.44975 c 0.69624,-6.58627 3.02349,-4.47382 5.69974,-0.5 2.51625,5.11642 4.28591,10.23283 3.49265,15.34925 0.53117,1.41644 -0.51916,5.54404 4.36396,-0.5 l 2.04289,-5.86397 c 1.00048,-2.76637 0.3267,-9.71836 6.32107,0 3.7251,7.70335 5.25715,14.09088 5.65685,19.79899 0.72117,5.68513 2.47916,6.96374 5.86396,1.32843 l 1.37132,-11.22792 c 0.2837,-4.09806 0.72499,-7.85844 5.57843,-2.16421 5.57244,5.05785 6.68526,12.90297 6.98528,21.25609 -0.16722,3.47007 -2.40828,8.73614 3.74264,3.99264 7.5007,-23.53348 4.65981,-30.31983 -0.2071,-40.76219 -3.62429,-5.74561 -0.72355,-4.96618 4.94974,-1.41421 4.86309,3.42375 6.05786,9.59874 8.48528,14.84924 2.79417,4.96378 4.81144,6.23734 4.94975,-1.41421 -5.83782,-28.71782 -11.67563,-27.11366 -17.51345,-36.51956 -5.68389,-6.14565 -1.59823,-4.61522 1.75,-3.66421 4.15931,3.0167 8.31861,4.97111 12.47792,11.1066 4.44275,6.73101 7.67569,6.16712 4.69975,-3.44975 -2.43558,-6.77645 -4.86202,-13.55975 -9.8995,-18.38477 -2.11807,-3.25018 -4.55292,-6.72663 2.40685,-3.49264 l 4,2.03553 c 1.7929,-0.56412 7.60858,4.39452 3.49265,-2.07843 -4.38971,-6.52397 -6.25208,-13.77004 -14.84925,-19.09188 -4.48741,-3.19759 -6.44679,-4.7624 0.95711,-4.65685 l 5.40685,1.82842 c 2.21425,-0.21247 -0.0333,-1.29039 -0.29289,-2.12132 -12.00814,-8.31297 -21.34094,-21.3402 -35.76955,-21.2132 -12.97674,0.11422 -25.08159,7.44855 -16.97056,20.5061 2.99782,4.82604 9.71327,7.60303 11.3137,14.14213 1.09322,4.46672 -0.11813,9.80547 -8.48528,12.72792 -4.16762,1.45565 -8.79275,-0.56173 -12.3566,-2.62132 -3.59846,-2.07959 -5.27146,-3.40662 -8.52817,-5.61396 -4.56582,-2.91176 -5.08966,-5.82352 -7.27818,-8.73528 -1.99519,-4.36729 0.9325,-4.45267 6.86396,-3.53553 2.06008,-0.13906 8.59241,-1.58527 5.99264,-4.61396 -2.75321,-0.62289 -4.22996,-1.49689 -9.02817,-3.37133 -4.59122,-1.77009 -1.06434,-3.0233 -1.5,-4.19974 l 3.91421,-3.53554 c 2.02066,-3.94672 -0.17512,-3.67699 -2.74264,-3.03553 -2.73325,1.26409 -5.4665,1.14296 -8.19975,0.41421 -1.05483,-2.46895 -4.14381,-4.9379 -8.52817,-7.40685 0,0 8.9422,-6.94234 3.87132,-10.93503 -2.83922,-2.23554 -6.12149,-3.5372 -9.6066,-4.49264 -3.02837,-0.83022 -8.13471,-1.85976 -14.39214,0.87132 -3.68262,1.6073 -12.31725,5.34876 -0.12132,12.72792 -8.77141,2.12543 -10.611,3.66354 -13.31371,7.8995 -0.87372,2.36413 0.35015,5.15507 2.12132,5.53553 6.94023,-0.28304 9.66943,-3.04293 14.84925,-0.70711 2.9065,1.41495 6.0366,2.49452 6.36396,7.77818 -3.43096,9.05186 -5.76735,6.06347 -8.60661,8.6066 -2.3333,1.79651 -3.80235,4.3732 -0.29289,4.87132 2.73681,-1.83927 5.98649,-2.61006 7.6066,-2.28553 0.87281,1.20321 -3.79749,6.10838 -12.14213,8.6066 0,0 -4.12132,1.53553 -4.12132,0.12132 0,-1.41421 -0.82157,-4.51371 -2.12132,-5.07107 -1.41422,-0.60645 -8.6066,-0.74741 -8.6066,0.58579 -2.57862,-0.45212 -8.33214,3.8581 -13.43503,7.19239 -7.85039,1.24071 -7.08801,-0.38951 -9.8995,-0.82843 -2.53004,-5.07669 0.5721,-9.3373 1.41421,-12.72792 l 7.8995,-14.02082 c 3.36357,-6.51368 2.34508,-10.83633 2.12132,-15.55635 -2.72384,-2.99857 -4.94365,-5.24916 -11.43503,-6.36396 -20.1574,3.9836 -18.5511,10.65648 -33.94112,14.84924 z"
           id="path3642"
           style="fill:#f30000;fill-opacity:1;stroke:none;display:inline" />
        <path
           d="m 770,402.81103 c 5.51665,0.70125 13.0575,8.33462 12.5,19.25 1.83333,-0.0969 2.66667,2.75385 4.5,-1.5 0.36962,-7.00739 -0.16401,-9.25663 -1,-13.25 0.59788,-4.03568 15.44287,0.81538 13.5,14.25 -0.63115,4.36429 4.15357,2.82856 4.75,-0.75 -0.32898,-6.14179 -3.6308,-10.30169 -5.75,-15.25 5.9867,0.27647 7.86338,-1.48562 17.25,14.5 2.4687,1.95122 2.27298,-0.31229 2.75,-5 l -9.25,-14.5 c 0.96635,-5.18964 6.05382,-0.76331 13,8 4.46708,2.65895 5.36586,2.34045 4.5,-3 -1.91974,-4.63787 -7.05755,-8.20304 -10.75,-12.25 -0.29212,-10.53342 5.60099,-1.22741 9.25,3.25 2.72231,0.16688 4.24879,2.81376 3.75,-4.75 l -13,-15.75 c -1.09519,-6.79877 7.08928,1.91924 9.75,5.75 3.24141,1.36211 3.75742,-0.11387 3,-4.75 l -10.75,-11.25 c -3.61216,-0.0257 -6.44345,-1.61311 -11.25,0.75 -2.34722,1.68611 -1.40201,2.71373 -0.5,3.75 10.25954,10.00714 4.77486,18.80319 -2,27.5 -12.19507,6.11977 -22.66925,0.63211 -32.5,0.25 -0.67573,1.39854 -2.84867,-0.19734 -1.75,4.75 z"
           id="path3701"
           style="fill:#000000;fill-opacity:1;stroke:none;display:inline" />
        <path
           d="m 674.37501,385.93603 c -1.45721,16.56053 -0.50759,26.62566 1.25,27.75 2.44813,-0.3254 1.39247,-18.05206 4.25,-16.25 2.07796,1.31044 0.74664,19.49664 6.25,18.75 1.13861,-1.19515 -3.55434,-14.46918 1.25,-15.75 3.10903,-0.7757 1.99654,14.67012 9.25,15 1.38723,-1.08084 -5.1522,-12.19672 -2,-16.75 1.46376,6.6108 8.2511,17.12445 11,15.75 3.92172,-1.83117 -8.51652,-13.63803 -2.25,-15.5 3.33854,0.65138 5.62376,11.2768 11,10.5 1.58092,-0.6256 -2.41663,-5.11112 -4.31184,-9.61702 -1.3992,-4.94009 8.72529,-6.66341 0.0618,-8.88298 -6.90783,3.95584 -9.21295,3.14808 -15.5,4 -15.46403,-0.95719 -12.18718,-5.36256 -15.5,-8.75 -1.77525,-1.23482 -3.61818,-2.87572 -4.75,-0.25 z"
           id="path3668"
           style="fill:#030000;fill-opacity:1;stroke:#2d0000;stroke-width:1px;stroke-linecap:butt;stroke-linejoin:miter;stroke-opacity:1;display:inline" />
        <path
           d="m 778.00001,388.06103 c -7.35114,2.92239 -13.1698,-1.81765 -19.25,-5.25 -3.70584,4.38533 -6.9612,5.53104 -14,7.25 l 6.25,-9.25 c -17.57329,10.31225 -19.58565,8.33954 -25.25,9.25 1.41744,2.79225 1.99089,4.9515 0.75,5.75 -4.28115,2.78816 -4.61875,4.2618 -5,5.75 -4.20582,9.90682 -0.63019,15.14478 1.5,21.25 2.15031,3.86994 4.34845,7.73031 3.25,12.25 2.13123,7.2021 5.36929,11.29737 9.5,16.5 l 0,7.25"
           id="path3671"
           style="fill:none;stroke:#ffffff;stroke-width:2.4000001;stroke-linecap:butt;stroke-linejoin:miter;stroke-miterlimit:4;stroke-opacity:1;stroke-dasharray:none;display:inline" />
        <path
           d="m 762.25001,433.81103 c -2.13854,7.44532 -3.28682,12.36628 -6.75,16.5 -0.16968,3.3285 -0.54957,5.62681 2.25,10.75"
           id="path3674"
           style="fill:none;stroke:#ffffff;stroke-width:2.5;stroke-linecap:round;stroke-linejoin:miter;stroke-miterlimit:4;stroke-opacity:1;stroke-dasharray:none;display:inline" />
        <path
           d="m 700.75001,473.31103 c 5.15587,-1.58479 9.41817,-2.27198 15.75,-7 0.20044,6.71623 1.80756,12.02577 4,16.75"
           id="path3677"
           style="fill:none;stroke:#fff8f8;stroke-width:2.5;stroke-linecap:round;stroke-linejoin:miter;stroke-miterlimit:4;stroke-opacity:1;stroke-dasharray:none;display:inline" />
        <path
           d="m 771.25001,482.81103 c 2.44073,-5.66667 2.13732,-11.33333 2.75,-17 4.43634,2.77122 8.90622,5.53126 17.25,7"
           id="path3680"
           style="fill:none;stroke:#ffffff;stroke-width:2.5;stroke-linecap:round;stroke-linejoin:miter;stroke-miterlimit:4;stroke-opacity:1;stroke-dasharray:none;display:inline" />
        <path
           d="m 727.25001,343.56103 c 11.75038,-2.63393 20.25383,-0.0728 28.75,2.5"
           id="path3683"
           style="fill:none;stroke:#ffffff;stroke-width:2.20000005;stroke-linecap:round;stroke-linejoin:miter;stroke-miterlimit:4;stroke-opacity:1;stroke-dasharray:none;display:inline" />
        <path
           d="m 710.50001,358.81103 c 2.51123,-0.48877 8.49703,5.33015 13.75,4.75 6.03635,-0.66667 11.33941,-2.83333 13.75,-2 3.4632,5.93583 -8.9115,7.38804 -15.75,6.5 -11.85601,-1.53961 -13.25286,-6.8477 -11.75,-9.25 z"
           id="path3686"
           style="fill:#ff0000;fill-opacity:1;stroke:none;display:inline" />
        <path
           d="m 738,348.68604 a 1.875,1.125 0 0 1 -3.75,0 1.875,1.125 0 1 1 3.75,0 z"
           id="path3689"
           style="fill:#ffffff;fill-opacity:1;stroke:none;display:inline" />
        <rect
           width="2.5"
           height="2"
           x="569.94525"
           y="568.91553"
           transform="matrix(0.93834312,-0.34570536,0.34570536,0.93834312,0,0)"
           id="rect3692"
           style="fill:#ffffff;fill-opacity:1;stroke:none" />
        <rect
           width="2.5"
           height="2"
           x="696.36682"
           y="414.64209"
           transform="matrix(0.99388373,-0.11043153,0.11043153,0.99388373,0,0)"
           id="rect3694"
           style="fill:#ffffff;fill-opacity:1;stroke:none" />
        <rect
           width="2.5"
           height="2"
           x="776.409"
           y="252.95793"
           transform="matrix(0.9941724,0.10780183,-0.10780183,0.9941724,0,0)"
           id="rect3696"
           style="fill:#ffffff;fill-opacity:1;stroke:none" />
        <rect
           width="2.5"
           height="2"
           x="816.30579"
           y="104.75886"
           transform="matrix(0.9570244,0.2900074,-0.2900074,0.9570244,0,0)"
           id="rect3698"
           style="fill:#ffffff;fill-opacity:1;stroke:none" />
    </g>
</svg>
