<?xml version="1.0" encoding="UTF-8" standalone="no"?>
<svg
   xmlns:dc="http://purl.org/dc/elements/1.1/"
   xmlns:cc="http://web.resource.org/cc/"
   xmlns:rdf="http://www.w3.org/1999/02/22-rdf-syntax-ns#"
   xmlns:svg="http://www.w3.org/2000/svg"
   xmlns="http://www.w3.org/2000/svg"
   xmlns:xlink="http://www.w3.org/1999/xlink"
   xmlns:sodipodi="http://sodipodi.sourceforge.net/DTD/sodipodi-0.dtd"
   xmlns:inkscape="http://www.inkscape.org/namespaces/inkscape"
   height="660"
   width="600"
   version="1.0"
   id="svg2"
   sodipodi:version="0.32"
   inkscape:version="0.44.1"
   sodipodi:docname="Blason département fr Aisne.svg"
   sodipodi:docbase="C:\Documents and Settings\Standard\Mes documents\aaaOuiqui\Blasons\Blasons Yvelines svg"
   inkscape:export-filename="/Users/olivier/Desktop/Blason Rouge/Blason_Vide_3D.png"
   inkscape:export-xdpi="144"
   inkscape:export-ydpi="144">
  <metadata
     id="metadata49">
    <rdf:RDF>
      <cc:Work
         rdf:about="">
        <dc:format>image/svg+xml</dc:format>
        <dc:type
           rdf:resource="http://purl.org/dc/dcmitype/StillImage" />
        <dc:title>Gabarit d'un blason en pointe pour le projet Blasons de Wikipédia</dc:title>
        <dc:date>03-AUG-2006</dc:date>
        <dc:creator>
          <cc:Agent>
            <dc:title>Jérôme BLUM (wagner51)</dc:title>
          </cc:Agent>
        </dc:creator>
        <cc:license
           rdf:resource="http://web.resource.org/cc/PublicDomain" />
        <dc:language>fr</dc:language>
        <dc:subject>
          <rdf:Bag>
            <rdf:li>gabarit modèle blason projet wikipédia</rdf:li>
          </rdf:Bag>
        </dc:subject>
      </cc:Work>
      <cc:License
         rdf:about="http://web.resource.org/cc/PublicDomain">
        <cc:permits
           rdf:resource="http://web.resource.org/cc/Reproduction" />
        <cc:permits
           rdf:resource="http://web.resource.org/cc/Distribution" />
        <cc:permits
           rdf:resource="http://web.resource.org/cc/DerivativeWorks" />
      </cc:License>
    </rdf:RDF>
  </metadata>
  <sodipodi:namedview
     inkscape:window-height="708"
     inkscape:window-width="1024"
     inkscape:pageshadow="2"
     inkscape:pageopacity="0.0"
     guidetolerance="10.0"
     gridtolerance="10.0"
     objecttolerance="10.0"
     borderopacity="1.0"
     bordercolor="#666666"
     pagecolor="#ffffff"
     id="base"
     showgrid="false"
     height="660px"
     inkscape:zoom="0.77575759"
     inkscape:cx="262.10852"
     inkscape:cy="325.73705"
     inkscape:window-x="-4"
     inkscape:window-y="-4"
     inkscape:current-layer="layer3"
     showguides="true"
     inkscape:guide-bbox="true" />
  <desc
     id="desc4">Flag of Canton of Valais (Wallis)</desc>
  <defs
     id="defs6">
    <linearGradient
       id="linearGradient2893">
      <stop
         style="stop-color:white;stop-opacity:0.3137255;"
         offset="0"
         id="stop2895" />
      <stop
         id="stop2897"
         offset="0.19"
         style="stop-color:white;stop-opacity:0.25098041;" />
      <stop
         style="stop-color:#6b6b6b;stop-opacity:0.1254902;"
         offset="0.60000002"
         id="stop2901" />
      <stop
         style="stop-color:black;stop-opacity:0.1254902;"
         offset="1"
         id="stop2899" />
    </linearGradient>
    <radialGradient
       inkscape:collect="always"
       xlink:href="#linearGradient2893"
       id="radialGradient3163"
       gradientUnits="userSpaceOnUse"
       gradientTransform="matrix(1.353218,0,0,1.348928,-77.62935,-85.74693)"
       cx="221.44487"
       cy="226.33101"
       fx="221.44487"
       fy="226.33101"
       r="300" />
  </defs>
  <g
     inkscape:groupmode="layer"
     id="layer3"
     inkscape:label="Fond écu"
     style="opacity:1;display:inline">
    <path
       id="path2855"
       style="fill:#2b5df2;fill-opacity:1;fill-rule:evenodd;stroke:none;stroke-width:1px;stroke-linecap:butt;stroke-linejoin:miter;stroke-opacity:1"
       d="M 300,658.5 C 300,658.5 598.50001,546.17969 598.50001,260.72817 C 598.50001,-24.723354 598.50001,2.1764765 598.50001,2.1764765 L 1.5,2.1764765 L 1.5,260.72817 C 1.5,546.17969 300,658.5 300,658.5 z "
       sodipodi:nodetypes="cccccc" />
    <path
       style="opacity:1;fill:white;fill-opacity:1;fill-rule:evenodd;stroke:black;stroke-width:3;stroke-linecap:butt;stroke-linejoin:miter;stroke-miterlimit:4;stroke-dasharray:none;stroke-opacity:1;display:inline"
       d="M 3.7865429,301.42281 C 3.3987645,302.94586 4.3190622,303.37931 3.96875,304.90625 C 5.685698,320.13721 8.2539915,334.79953 11.59375,348.9375 L 448.6875,567.125 C 469.61393,549.2949 490.56478,528.669 509.875,505.0625 L 101.94467,301.42281 L 3.7865429,301.42281 z "
       id="path14871"
       sodipodi:nodetypes="ccccccc" />
    <path
       style="opacity:1;fill:#fcef3c;fill-opacity:1;fill-rule:evenodd;stroke:black;stroke-width:1.5;stroke-linecap:butt;stroke-linejoin:miter;stroke-miterlimit:4;stroke-dasharray:none;stroke-opacity:1;display:inline"
       d="M 52.84375,218.125 C 50.971597,219.88674 49.162579,221.69184 47.40625,223.5 L 61.90625,230.71875 L 78.25,238.90625 L 94.59375,247.0625 L 98.15625,248.8125 L 97.0625,251.0625 L 91.4375,262.65625 L 90.34375,264.875 L 86.8125,263.125 L 74,256.71875 L 70.5625,263.8125 L 83.375,270.21875 L 99.71875,278.40625 L 112.59375,284.8125 L 116.03125,277.6875 L 103.15625,271.28125 L 99.65625,269.53125 L 100.75,267.28125 L 106.34375,255.71875 L 107.4375,253.46875 L 110.96875,255.21875 L 127.34375,263.40625 L 143.71875,271.59375 L 160.0625,279.75 L 163.59375,281.5 L 162.53125,283.75 L 156.9375,295.34375 L 155.84375,297.5625 L 152.28125,295.8125 L 139.46875,289.40625 L 136,296.5 L 148.84375,302.90625 L 165.21875,311.0625 L 178.03125,317.5 L 181.5,310.40625 L 168.65625,303.96875 L 165.09375,302.21875 L 166.1875,299.96875 L 171.8125,288.375 L 172.90625,286.15625 L 176.40625,287.90625 L 192.8125,296.09375 L 209.1875,304.25 L 225.53125,312.4375 L 229.09375,314.21875 L 228,316.4375 L 222.375,328.03125 L 221.28125,330.25 L 217.75,328.5 L 204.9375,322.09375 L 201.46875,329.1875 L 214.28125,335.59375 L 230.65625,343.75 L 243.46875,350.15625 L 246.90625,343.0625 L 234.09375,336.65625 L 230.5625,334.875 L 231.65625,332.65625 L 237.28125,321.0625 L 238.34375,318.84375 L 241.90625,320.59375 L 258.25,328.75 L 274.625,336.9375 L 291,345.125 L 294.53125,346.875 L 293.46875,349.125 L 287.84375,360.71875 L 286.75,362.9375 L 283.21875,361.15625 L 270.40625,354.75 L 266.9375,361.875 L 279.75,368.28125 L 296.375,376.5625 L 309.1875,382.96875 L 312.625,375.875 L 299.8125,369.46875 L 296.25,367.6875 L 297.375,365.46875 L 303,353.875 L 304.0625,351.65625 L 307.625,353.40625 L 323.96875,361.5625 L 340.3125,369.75 L 356.6875,377.90625 L 360.25,379.6875 L 359.15625,381.90625 L 353.5,393.5 L 352.4375,395.75 L 348.875,393.96875 L 336.0625,387.5625 L 332.625,394.6875 L 345.4375,401.0625 L 361.8125,409.25 L 374.65625,415.625 L 378.09375,408.53125 L 365.28125,402.15625 L 361.75,400.375 L 362.8125,398.15625 L 368.4375,386.5625 L 369.53125,384.3125 L 373.0625,386.09375 L 389.4375,394.28125 L 405.78125,402.40625 L 422.125,410.59375 L 425.6875,412.375 L 424.59375,414.59375 L 419,426.1875 L 417.875,428.40625 L 414.34375,426.625 L 401.53125,420.25 L 398.09375,427.375 L 410.90625,433.75 L 427.3125,441.9375 L 440.125,448.34375 L 443.53125,441.21875 L 430.71875,434.84375 L 427.1875,433.0625 L 428.25,430.8125 L 433.90625,419.21875 L 435,417 L 438.53125,418.78125 L 454.90625,426.9375 L 471.25,435.125 L 487.59375,443.25 L 491.15625,445.03125 L 490.0625,447.28125 L 484.4375,458.875 L 483.34375,461.09375 L 479.8125,459.34375 L 467,452.9375 L 463.5625,460.03125 L 476.375,466.4375 L 492.71875,474.59375 L 505.5625,481.03125 L 509.03125,473.90625 L 496.15625,467.5 L 492.625,465.75 L 493.71875,463.5 L 499.34375,451.90625 L 500.40625,449.65625 L 503.96875,451.4375 L 520.34375,459.625 L 536.71875,467.8125 L 537.03125,467.96875 C 538.3482,465.94585 539.64958,463.90212 540.9375,461.84375 L 52.84375,218.125 z M 46.9375,228.8125 L 43.46875,235.90625 L 56.28125,242.3125 L 59.84375,244.09375 L 58.71875,246.34375 L 53.125,257.875 L 52.03125,260.125 L 48.5,258.375 L 32.125,250.1875 L 27.78125,248.03125 C 26.454105,250.06139 25.159252,252.09318 23.9375,254.15625 L 514.625,499.15625 C 516.90403,496.27 519.14949,493.31594 521.375,490.34375 L 526.46875,479.84375 L 527.53125,477.625 L 529.78125,478.71875 C 531.30105,476.53812 532.79425,474.34924 534.28125,472.125 L 518.1875,464.09375 L 505.34375,457.6875 L 501.875,464.8125 L 514.71875,471.21875 L 518.28125,472.96875 L 517.1875,475.21875 L 511.5625,486.78125 L 510.46875,489 L 506.9375,487.25 L 490.53125,479.0625 L 474.21875,470.90625 L 457.84375,462.71875 L 454.3125,460.96875 L 455.40625,458.75 L 461,447.15625 L 462.09375,444.9375 L 465.625,446.71875 L 478.4375,453.09375 L 481.90625,445.96875 L 469.0625,439.59375 L 452.71875,431.40625 L 439.90625,425.03125 L 436.4375,432.125 L 449.25,438.53125 L 452.8125,440.3125 L 451.71875,442.53125 L 446.125,454.09375 L 445,456.34375 L 441.5,454.5625 L 425.125,446.40625 L 408.75,438.21875 L 392.375,430.0625 L 388.8125,428.28125 L 389.90625,426.03125 L 395.53125,414.46875 L 396.625,412.25 L 400.15625,414 L 413,420.4375 L 416.4375,413.3125 L 403.625,406.90625 L 387.25,398.71875 L 374.46875,392.34375 L 371,399.46875 L 383.8125,405.84375 L 387.34375,407.59375 L 386.25,409.84375 L 380.65625,421.40625 L 379.5625,423.65625 L 376,421.875 L 359.65625,413.71875 L 343.28125,405.53125 L 326.9375,397.375 L 323.375,395.59375 L 324.46875,393.375 L 330.09375,381.8125 L 331.1875,379.5625 L 334.6875,381.3125 L 347.53125,387.71875 L 350.96875,380.59375 L 338.15625,374.1875 L 321.8125,366.03125 L 308.96875,359.625 L 305.5,366.75 L 318.34375,373.15625 L 321.875,374.9375 L 320.78125,377.15625 L 315.1875,388.75 L 314.125,390.96875 L 310.5625,389.1875 L 294.1875,381.03125 L 277.59375,372.75 L 261.21875,364.5625 L 257.6875,362.8125 L 258.75,360.5625 L 264.40625,349 L 265.46875,346.75 L 269,348.53125 L 281.8125,354.9375 L 285.28125,347.8125 L 272.46875,341.40625 L 256.09375,333.25 L 243.28125,326.84375 L 239.8125,333.96875 L 252.625,340.375 L 256.15625,342.125 L 255.09375,344.34375 L 249.46875,355.9375 L 248.40625,358.15625 L 244.84375,356.375 L 228.5,348.21875 L 212.15625,340.0625 L 195.78125,331.90625 L 192.21875,330.125 L 193.3125,327.875 L 198.9375,316.3125 L 200,314.0625 L 203.5625,315.84375 L 216.375,322.25 L 219.84375,315.125 L 207.03125,308.71875 L 190.65625,300.5625 L 177.8125,294.15625 L 174.34375,301.25 L 187.1875,307.6875 L 190.71875,309.46875 L 189.65625,311.6875 L 184.0625,323.25 L 182.96875,325.5 L 179.40625,323.71875 L 163.03125,315.53125 L 146.65625,307.375 L 130.3125,299.21875 L 126.75,297.4375 L 127.875,295.21875 L 133.46875,283.625 L 134.53125,281.40625 L 138.09375,283.15625 L 150.90625,289.5625 L 154.34375,282.4375 L 141.5625,276.0625 L 125.1875,267.875 L 112.34375,261.46875 L 108.875,268.59375 L 121.71875,275 L 125.28125,276.78125 L 124.1875,279 L 118.5625,290.5625 L 117.5,292.8125 L 113.9375,291.0625 L 97.5625,282.84375 L 81.21875,274.6875 L 64.84375,266.5 L 61.3125,264.75 L 62.40625,262.53125 L 68,250.9375 L 69.09375,248.71875 L 72.65625,250.5 L 85.46875,256.875 L 88.90625,249.75 L 76.09375,243.375 L 59.75,235.1875 L 46.9375,228.8125 z M 35.3125,237.40625 C 33.664476,239.53379 32.080269,241.6713 30.5625,243.84375 L 34.3125,245.71875 L 47.125,252.125 L 50.5625,245 L 37.75,238.625 L 35.3125,237.40625 z M 13.96875,358.4375 C 14.803157,361.5918 15.685274,364.71356 16.59375,367.8125 L 32.21875,375.59375 L 48.59375,383.78125 L 65,391.96875 L 68.53125,393.71875 L 67.4375,395.96875 L 61.8125,407.53125 L 60.75,409.75 L 57.1875,407.96875 L 44.34375,401.59375 L 40.875,408.6875 L 53.75,415.09375 L 70.09375,423.28125 L 82.90625,429.6875 L 86.375,422.5625 L 73.5625,416.15625 L 70,414.375 L 71.09375,412.15625 L 76.71875,400.59375 L 77.8125,398.34375 L 81.34375,400.125 L 97.6875,408.28125 L 114.0625,416.4375 L 130.4375,424.625 L 134,426.40625 L 132.90625,428.65625 L 127.28125,440.21875 L 126.1875,442.4375 L 122.65625,440.6875 L 109.8125,434.28125 L 106.375,441.375 L 119.21875,447.8125 L 135.53125,455.96875 L 148.34375,462.34375 L 151.84375,455.25 L 139,448.84375 L 135.5,447.0625 L 136.5625,444.84375 L 142.15625,433.28125 L 143.25,431.03125 L 146.8125,432.8125 L 163.15625,440.96875 L 179.5,449.125 L 195.875,457.3125 L 199.40625,459.0625 L 198.34375,461.3125 L 192.71875,472.875 L 191.625,475.125 L 188.09375,473.34375 L 175.28125,466.9375 L 171.8125,474.0625 L 184.625,480.46875 L 201.03125,488.65625 L 213.84375,495.0625 L 217.3125,487.9375 L 204.5,481.53125 L 200.9375,479.75 L 202.03125,477.53125 L 207.625,465.9375 L 208.71875,463.71875 L 212.28125,465.46875 L 228.625,473.65625 L 245.21875,481.9375 L 261.59375,490.125 L 265.125,491.875 L 264.0625,494.125 L 258.4375,505.6875 L 257.34375,507.9375 L 253.8125,506.15625 L 241,499.75 L 237.53125,506.875 L 250.34375,513.28125 L 266.71875,521.4375 L 279.53125,527.84375 L 282.96875,520.71875 L 270.15625,514.34375 L 266.625,512.5625 L 267.71875,510.3125 L 273.3125,498.75 L 274.40625,496.5 L 277.9375,498.28125 L 294.3125,506.46875 L 310.71875,514.625 L 327.0625,522.78125 L 330.59375,524.5625 L 329.5,526.8125 L 323.90625,538.375 L 322.8125,540.59375 L 319.28125,538.84375 L 306.46875,532.4375 L 303,539.5625 L 315.8125,545.96875 L 332.1875,554.125 L 345,560.53125 L 348.4375,553.40625 L 335.625,547 L 332.09375,545.21875 L 333.15625,543 L 338.78125,531.40625 L 339.875,529.1875 L 343.40625,530.96875 L 359.78125,539.125 L 376.15625,547.3125 L 392.53125,555.5 L 396.0625,557.25 L 394.96875,559.46875 L 389.34375,571.0625 L 388.28125,573.28125 L 384.71875,571.53125 L 371.90625,565.125 L 368.4375,572.25 L 381.25,578.625 L 397.625,586.8125 L 410.4375,593.21875 L 413.90625,586.09375 L 401.09375,579.6875 L 397.53125,577.90625 L 398.625,575.6875 L 404.25,564.125 L 405.34375,561.875 L 408.875,563.65625 L 425.21875,571.8125 L 436.3125,577.34375 C 438.35376,575.70642 440.39128,574.06558 442.4375,572.375 L 13.96875,358.4375 z M 18.5625,374.3125 C 19.681441,377.8829 20.849027,381.41056 22.0625,384.90625 L 26.625,387.1875 L 30.1875,388.9375 L 29.0625,391.1875 L 26.375,396.71875 C 28.053752,401.06933 29.807699,405.36316 31.625,409.59375 L 32.71875,407.40625 L 38.34375,395.8125 L 39.4375,393.5625 L 43,395.34375 L 55.8125,401.78125 L 59.28125,394.65625 L 46.4375,388.25 L 30.0625,380.0625 L 18.5625,374.3125 z M 82.6875,406.34375 L 79.28125,413.46875 L 92.0625,419.875 L 95.625,421.625 L 94.53125,423.875 L 88.9375,435.4375 L 87.8125,437.6875 L 84.28125,435.90625 L 67.9375,427.75 L 51.59375,419.59375 L 35.1875,411.40625 L 31.65625,409.65625 C 33.157855,413.15011 34.721714,416.58746 36.3125,420 L 399.65625,601.4375 C 401.2917,601.31632 402.92946,601.17715 404.5625,601.03125 C 406.00651,600.02989 407.45056,599.02922 408.90625,598 L 395.46875,591.28125 L 379.09375,583.09375 L 362.75,574.9375 L 359.21875,573.1875 L 360.28125,570.9375 L 365.9375,559.34375 L 367,557.125 L 370.53125,558.875 L 383.34375,565.28125 L 386.8125,558.1875 L 374,551.78125 L 357.59375,543.59375 L 344.78125,537.1875 L 341.34375,544.3125 L 354.15625,550.71875 L 357.6875,552.46875 L 356.59375,554.6875 L 351,566.3125 L 349.90625,568.53125 L 346.34375,566.78125 L 330,558.59375 L 313.625,550.4375 L 297.28125,542.25 L 293.75,540.5 L 294.8125,538.25 L 300.4375,526.65625 L 301.53125,524.4375 L 305.0625,526.1875 L 317.875,532.59375 L 321.34375,525.5 L 308.53125,519.09375 L 292.125,510.90625 L 279.34375,504.53125 L 275.84375,511.625 L 288.6875,518 L 292.21875,519.78125 L 291.125,522.03125 L 285.53125,533.59375 L 284.4375,535.84375 L 280.90625,534.09375 L 264.53125,525.90625 L 248.1875,517.75 L 231.8125,509.5625 L 228.28125,507.8125 L 229.34375,505.5625 L 235,493.96875 L 236.0625,491.75 L 239.625,493.53125 L 252.4375,499.90625 L 255.875,492.8125 L 243.0625,486.40625 L 226.4375,478.125 L 213.625,471.71875 L 210.1875,478.8125 L 223,485.21875 L 226.5625,487 L 225.46875,489.21875 L 219.8125,500.8125 L 218.75,503.0625 L 215.21875,501.28125 L 198.84375,493.125 L 182.46875,484.9375 L 166.09375,476.75 L 162.5625,475 L 163.625,472.75 L 169.28125,461.15625 L 170.375,458.9375 L 173.90625,460.71875 L 186.71875,467.09375 L 190.1875,460 L 177.375,453.625 L 161,445.4375 L 148.1875,439.03125 L 144.71875,446.15625 L 157.5625,452.53125 L 161.0625,454.3125 L 160,456.5625 L 154.375,468.125 L 153.28125,470.375 L 149.75,468.59375 L 133.40625,460.4375 L 117.03125,452.28125 L 100.65625,444.09375 L 97.09375,442.3125 L 98.1875,440.0625 L 103.8125,428.5 L 104.875,426.25 L 108.4375,428.03125 L 121.28125,434.4375 L 124.71875,427.34375 L 111.875,420.90625 L 95.53125,412.78125 L 82.6875,406.34375 z M 410.25,569.875 L 406.78125,577 L 419.59375,583.40625 L 423.15625,585.15625 L 422.0625,587.40625 L 421.3125,588.96875 C 424.86114,586.31486 428.44733,583.56686 432.03125,580.75 L 423.0625,576.28125 L 410.25,569.875 z "
       id="path15762" />
  </g>
  <g
     inkscape:groupmode="layer"
     id="layer4"
     inkscape:label="Meubles"
     style="display:inline">
    <g
       style="display:inline"
       id="g22331"
       transform="translate(-546.6213,62.45929)" />
    <path
       style="opacity:1;fill:#fcef3c;fill-opacity:1;fill-rule:evenodd;stroke:black;stroke-width:3;stroke-linecap:butt;stroke-linejoin:miter;stroke-miterlimit:4;stroke-dasharray:none;stroke-opacity:1;display:inline"
       d="M 1.9375,2.53125 L 1.78125,275.9375 C 2.1079578,284.59268 2.7319144,293.11105 3.59375,301.4375 L 596.40625,301.4375 C 597.09848,294.74969 597.65074,287.93091 598,281.03125 L 598,2.53125 L 1.9375,2.53125 z "
       id="path10395" />
    <path
       style="opacity:1;fill:#2b5df2;fill-opacity:1;fill-rule:evenodd;stroke:black;stroke-width:3;stroke-linecap:butt;stroke-linejoin:miter;stroke-miterlimit:4;stroke-dasharray:none;stroke-opacity:1;display:inline"
       d="M 123.65625,2.53125 L 358.125,301.4375 L 481.90625,301.4375 L 247.40625,2.53125 L 123.65625,2.53125 z M 371.1875,2.53125 L 597.375,290.875 C 597.62828,287.61502 597.83283,284.33379 598,281.03125 L 598,133.875 L 494.96875,2.53125 L 371.1875,2.53125 z M 1.9375,5.1875 L 1.84375,162.84375 L 110.5625,301.4375 L 234.34375,301.4375 L 1.9375,5.1875 z "
       id="path13081" />
    <path
       style="opacity:1;fill:white;fill-opacity:1;fill-rule:evenodd;stroke:black;stroke-width:3;stroke-linecap:butt;stroke-linejoin:miter;stroke-miterlimit:4;stroke-dasharray:none;stroke-opacity:1;display:inline"
       d="M 62.375,243.1875 C 32.468749,243.1875 45.583984,254.875 2.59375,254.875 C 2.237554,254.875 1.8597346,254.87659 1.5,254.875 L 1.5,260.71875 C 1.5,296.68524 6.2476733,329.90901 14.53125,360.5 C 43.228761,358.50677 35.666001,349.1875 62.375,349.1875 C 92.281251,349.1875 92.312496,360.875 122.21875,360.875 C 152.125,360.875 152.125,349.1875 182.03125,349.1875 C 211.9375,349.1875 211.9375,360.875 241.84375,360.875 C 271.75,360.875 271.75,349.1875 301.65625,349.1875 C 331.5625,349.1875 331.5625,360.875 361.46875,360.875 C 391.375,360.875 391.375,349.1875 421.28125,349.1875 C 451.1875,349.1875 451.1875,360.875 481.09375,360.875 C 511,360.875 511,349.1875 540.90625,349.1875 C 567.16957,349.1875 555.2983,358.21033 585.5,360.40625 C 593.76757,329.84165 598.5,296.64778 598.5,260.71875 C 598.5,254.2665 598.5,261.01199 598.5,254.875 C 551.92977,254.52111 570.34524,243.1875 540.90625,243.1875 C 511,243.1875 511,254.875 481.09375,254.875 C 451.1875,254.875 451.1875,243.1875 421.28125,243.1875 C 391.375,243.1875 391.375,254.875 361.46875,254.875 C 331.5625,254.875 331.5625,243.1875 301.65625,243.1875 C 271.75,243.1875 271.75,254.875 241.84375,254.875 C 211.9375,254.875 211.9375,243.1875 182.03125,243.1875 C 152.125,243.1875 152.125,254.875 122.21875,254.875 C 92.312499,254.875 92.281251,243.1875 62.375,243.1875 z "
       id="path13979" />
  </g>
  <g
     inkscape:groupmode="layer"
     id="layer2"
     inkscape:label="Reflet final"
     sodipodi:insensitive="true"
     style="display:inline">
    <path
       sodipodi:nodetypes="cccccc"
       d="M 300.00001,658.5 C 300.00001,658.5 598.50001,546.17969 598.50001,260.72817 C 598.50001,-24.723334 598.50001,2.1764865 598.50001,2.1764865 L 1.5,2.1764865 L 1.5,260.72817 C 1.5,546.17969 300.00001,658.5 300.00001,658.5 z "
       style="opacity:1;fill:url(#radialGradient3163);fill-opacity:1;fill-rule:evenodd;stroke:none;stroke-width:1px;stroke-linecap:butt;stroke-linejoin:miter;stroke-opacity:1"
       id="path2875"
       inkscape:export-xdpi="144"
       inkscape:export-ydpi="144" />
  </g>
  <g
     inkscape:groupmode="layer"
     id="layer1"
     inkscape:label="Contour final"
     style="display:inline"
     sodipodi:insensitive="true">
    <path
       sodipodi:nodetypes="cccccc"
       d="M 299.99999,658.50028 C 299.99999,658.50028 1.5,546.17992 1.5,260.72828 C 1.5,-24.723336 1.5,2.1764957 1.5,2.1764957 L 598.49999,2.1764957 L 598.49999,260.72828 C 598.49999,546.17992 299.99999,658.50028 299.99999,658.50028 z "
       style="opacity:1;fill:none;fill-opacity:1;fill-rule:evenodd;stroke:black;stroke-width:3.00000048;stroke-linecap:butt;stroke-linejoin:miter;stroke-miterlimit:4;stroke-dasharray:none;stroke-opacity:1"
       id="path1411"
       inkscape:export-xdpi="144"
       inkscape:export-ydpi="144" />
  </g>
</svg>
