<?xml version="1.0" encoding="UTF-8" standalone="no"?>
<svg
   xmlns:dc="http://purl.org/dc/elements/1.1/"
   xmlns:cc="http://web.resource.org/cc/"
   xmlns:rdf="http://www.w3.org/1999/02/22-rdf-syntax-ns#"
   xmlns:svg="http://www.w3.org/2000/svg"
   xmlns="http://www.w3.org/2000/svg"
   xmlns:xlink="http://www.w3.org/1999/xlink"
   xmlns:sodipodi="http://sodipodi.sourceforge.net/DTD/sodipodi-0.dtd"
   xmlns:inkscape="http://www.inkscape.org/namespaces/inkscape"
   height="660"
   width="600"
   version="1.0"
   id="svg2"
   sodipodi:version="0.32"
   inkscape:version="0.44.1"
   sodipodi:docname="Blason département fr Calvados.svg"
   sodipodi:docbase="C:\Documents and Settings\Standard\Mes documents\aaaOuiqui\Blasons\Blasons Yvelines svg"
   inkscape:export-filename="/Users/olivier/Desktop/Blason Rouge/Blason_Vide_3D.png"
   inkscape:export-xdpi="144"
   inkscape:export-ydpi="144">
  <metadata
     id="metadata49">
    <rdf:RDF>
      <cc:Work
         rdf:about="">
        <dc:format>image/svg+xml</dc:format>
        <dc:type
           rdf:resource="http://purl.org/dc/dcmitype/StillImage" />
        <dc:title>Gabarit d'un blason en pointe pour le projet Blasons de Wikipédia</dc:title>
        <dc:date>03-AUG-2006</dc:date>
        <dc:creator>
          <cc:Agent>
            <dc:title>Jérôme BLUM (wagner51)</dc:title>
          </cc:Agent>
        </dc:creator>
        <cc:license
           rdf:resource="http://web.resource.org/cc/PublicDomain" />
        <dc:language>fr</dc:language>
        <dc:subject>
          <rdf:Bag>
            <rdf:li>gabarit modèle blason projet wikipédia</rdf:li>
          </rdf:Bag>
        </dc:subject>
      </cc:Work>
      <cc:License
         rdf:about="http://web.resource.org/cc/PublicDomain">
        <cc:permits
           rdf:resource="http://web.resource.org/cc/Reproduction" />
        <cc:permits
           rdf:resource="http://web.resource.org/cc/Distribution" />
        <cc:permits
           rdf:resource="http://web.resource.org/cc/DerivativeWorks" />
      </cc:License>
    </rdf:RDF>
  </metadata>
  <sodipodi:namedview
     inkscape:window-height="712"
     inkscape:window-width="1024"
     inkscape:pageshadow="2"
     inkscape:pageopacity="0.0"
     guidetolerance="10.0"
     gridtolerance="10.0"
     objecttolerance="10.0"
     borderopacity="1.0"
     bordercolor="#666666"
     pagecolor="#ffffff"
     id="base"
     showgrid="false"
     height="660px"
     inkscape:zoom="0.44547727"
     inkscape:cx="277.81907"
     inkscape:cy="417.37017"
     inkscape:window-x="-4"
     inkscape:window-y="-4"
     inkscape:current-layer="layer4"
     showguides="true"
     inkscape:guide-bbox="true" />
  <desc
     id="desc4">Flag of Canton of Valais (Wallis)</desc>
  <defs
     id="defs6">
    <linearGradient
       id="linearGradient2893">
      <stop
         style="stop-color:white;stop-opacity:0.3137255;"
         offset="0"
         id="stop2895" />
      <stop
         id="stop2897"
         offset="0.19"
         style="stop-color:white;stop-opacity:0.25098041;" />
      <stop
         style="stop-color:#6b6b6b;stop-opacity:0.1254902;"
         offset="0.60000002"
         id="stop2901" />
      <stop
         style="stop-color:black;stop-opacity:0.1254902;"
         offset="1"
         id="stop2899" />
    </linearGradient>
    <radialGradient
       inkscape:collect="always"
       xlink:href="#linearGradient2893"
       id="radialGradient3163"
       gradientUnits="userSpaceOnUse"
       gradientTransform="matrix(1.353218,0,0,1.348928,-77.62935,-85.74693)"
       cx="221.44487"
       cy="226.33101"
       fx="221.44487"
       fy="226.33101"
       r="300" />
  </defs>
  <g
     inkscape:groupmode="layer"
     id="layer3"
     inkscape:label="Fond écu"
     style="display:inline"
     sodipodi:insensitive="true">
    <rect
       y="-38.278225"
       x="855.11908"
       height="0"
       width="2"
       id="rect12745"
       style="fill:white;fill-opacity:1;fill-rule:evenodd;stroke:black;stroke-width:2;stroke-linecap:round;stroke-linejoin:round;stroke-miterlimit:4;stroke-dasharray:none;stroke-dashoffset:0;stroke-opacity:1" />
    <path
       sodipodi:nodetypes="cccccc"
       d="M 299.66274,658.47179 C 299.66274,658.47179 598.16274,546.15148 598.16274,260.69996 C 598.16274,-24.751565 598.16274,2.1482651 598.16274,2.1482651 L 1.1627438,2.1482651 L 1.1627438,260.69996 C 1.1627438,546.15148 299.66274,658.47179 299.66274,658.47179 z "
       style="fill:#e20909;fill-opacity:1;fill-rule:evenodd;stroke:none;stroke-width:1px;stroke-linecap:butt;stroke-linejoin:miter;stroke-opacity:1;display:inline"
       id="path11575" />
  </g>
  <g
     inkscape:groupmode="layer"
     id="layer4"
     inkscape:label="Meubles"
     style="display:inline">
    <g
       id="g23598"
       transform="translate(0,4.489566)">
      <g
         id="g23553">
        <g
           transform="matrix(0.515747,0,0,0.404626,107.8924,362.1868)"
           style="fill:#2b5df2;fill-opacity:1;stroke:black;stroke-width:5.47261715;stroke-linecap:round;stroke-linejoin:round;stroke-miterlimit:4;stroke-dasharray:none;stroke-opacity:1"
           id="g9977">
          <path
             d="M 370.34823,418.67157 C 369.59061,418.2634 381.14253,411.22848 378.93815,408.11824 C 366.77198,397.72823 355.26008,391.91814 348.25987,417.68986 C 358.24624,408.39728 364.16766,414.00953 370.34823,418.67157 z "
             style="opacity:1;color:black;fill:#2b5df2;fill-opacity:1;fill-rule:nonzero;stroke:black;stroke-width:5.47261715;stroke-linecap:round;stroke-linejoin:round;marker:none;marker-start:none;marker-mid:none;marker-end:none;stroke-miterlimit:4;stroke-dasharray:none;stroke-dashoffset:0;stroke-opacity:1;visibility:visible;display:inline;overflow:visible"
             id="path9979" />
          <path
             d="M 363.96715,461.86659 C 365.59487,463.77168 361.50088,436.46906 353.1684,444.68675 C 337.81791,454.14291 338.34688,464.35524 350.46871,475.11961 C 352.82305,459.11816 358.42472,460.65234 363.96715,461.86659 z "
             style="opacity:1;color:black;fill:#2b5df2;fill-opacity:1;fill-rule:nonzero;stroke:black;stroke-width:5.47261715;stroke-linecap:round;stroke-linejoin:round;marker:none;marker-start:none;marker-mid:none;marker-end:none;stroke-miterlimit:4;stroke-dasharray:none;stroke-dashoffset:0;stroke-opacity:1;visibility:visible;display:inline;overflow:visible"
             id="path9981" />
          <path
             d="M 410.10729,474.87418 C 411.32197,472.07178 405.75519,469.78856 400.33657,469.50094 C 394.91796,469.21332 389.64752,470.9213 391.45489,476.10131 C 395.33051,486.87571 399.87551,491.41242 402.7443,493.86261 C 404.94246,492.26872 409.17652,485.49087 410.10729,474.87418 z "
             style="opacity:1;color:black;fill:#2b5df2;fill-opacity:1;fill-rule:nonzero;stroke:black;stroke-width:5.47261715;stroke-linecap:round;stroke-linejoin:round;marker:none;marker-start:none;marker-mid:none;marker-end:none;stroke-miterlimit:4;stroke-dasharray:none;stroke-dashoffset:0;stroke-opacity:1;visibility:visible;display:inline;overflow:visible"
             id="path9983" />
          <path
             d="M 439.31302,460.1486 C 439.9629,453.1393 419.27399,459.89988 423.60573,462.35744 C 427.93747,464.815 430.93148,468.34274 425.56914,478.55557 C 442.86792,475.24602 438.66314,467.1579 439.31302,460.1486 z "
             style="opacity:1;color:black;fill:#2b5df2;fill-opacity:1;fill-rule:nonzero;stroke:black;stroke-width:5.47261715;stroke-linecap:round;stroke-linejoin:round;marker:none;marker-start:none;marker-mid:none;marker-end:none;stroke-miterlimit:4;stroke-dasharray:none;stroke-dashoffset:0;stroke-opacity:1;visibility:visible;display:inline;overflow:visible"
             id="path9985" />
        </g>
        <path
           d="M 362.0819,500.42627 L 345.50433,483.08517 L 342.18881,487.27594 C 342.30057,490.2409 336.52773,492.29379 326.62432,496.59678 C 317.92033,501.10646 309.37992,507.2051 323.2167,521.01883 C 325.67251,523.46642 328.6032,527.65807 316.58567,533.66337 C 315.2423,533.9809 312.89393,534.57626 309.58625,533.95239 C 308.55468,531.92538 308.47827,530.34798 308.66527,528.89457 C 307.09088,522.04297 293.70779,527.81544 298.35033,533.95239 C 304.23928,537.91117 302.44753,539.04149 296.32419,538.57669 C 293.22926,539.01449 290.11994,539.46585 285.82506,541.03334 C 285.77175,541.84587 285.76336,542.62318 286.19345,543.05646 C 292.8852,542.44001 293.60957,548.62041 293.56126,549.99291 C 294.46015,550.15474 295.31855,550.34835 296.69258,550.13742 C 303.51661,546.49976 304.20881,546.69432 306.00999,546.80964 C 308.71022,547.57895 304.80854,554.89555 310.13884,557.21837 C 313.50094,551.7333 319.18692,554.93481 320.00106,557.05351 C 321.36824,555.49035 321.28694,552.95315 321.00635,550.28192 C 321.99304,544.35084 325.43068,547.63795 326.9006,550.13742 C 330.36138,546.57586 332.20548,547.87609 334.51617,550.57094 C 336.16316,550.75518 336.33905,550.55768 337.03134,549.99291 L 337.95232,545.80214 C 338.24905,540.17866 343.30885,540.17107 344.40953,545.14575 C 345.29007,544.39867 346.43551,543.97481 346.44912,543.20067 C 346.5825,535.61358 347.16872,537.38935 351.48807,542.31764 C 353.57562,526.81746 355.23875,537.28849 357.10862,535.10847 C 359.15942,531.2373 351.82524,525.87693 363.18706,526.87144 C 361.36221,524.71615 356.83787,524.414 358.39799,519.93501 C 358.9831,517.07275 355.59896,515.84165 351.21438,515.02169 C 342.0815,512.47036 347.43212,510.18071 349.55662,508.37427 L 357.48221,504.33616 L 362.0819,500.42627 z "
           style="color:black;fill:#fcef3c;fill-opacity:1;fill-rule:nonzero;stroke:black;stroke-width:2.5;stroke-linecap:round;stroke-linejoin:round;marker:none;marker-start:none;marker-mid:none;marker-end:none;stroke-miterlimit:4;stroke-dasharray:none;stroke-dashoffset:0;stroke-opacity:1;visibility:visible;display:inline;overflow:visible"
           id="path9987" />
        <path
           d="M 373.71936,480.85819 C 358.7368,479.23956 348.12122,472.29138 348.12122,472.29138 L 355.10253,469.06127 C 357.4106,468.39095 360.74634,468.52689 364.23194,468.78039 C 383.11135,473.79469 402.05284,478.64895 424.19964,475.24061 C 443.98075,469.42221 444.75191,455.84963 425.27368,448.69754 C 416.58382,446.31108 416.16661,441.2415 366.73805,452.06809 C 348.63273,457.73525 332.63941,458.79176 320.01696,452.4894 C 309.76544,447.35718 298.6759,443.17826 274.3699,454.03424 C 277.54819,445.52721 285.20319,443.34209 291.73369,439.56897 C 288.99474,439.03959 283.18289,439.38687 277.95007,439.56897 C 282.55198,435.52763 290.71446,437.07892 298.53599,437.88369 C 296.3447,436.83501 293.64789,435.64469 288.15352,433.67051 C 298.28841,433.56007 302.21587,435.16845 308.73945,436.05798 C 308.15725,435.16712 307.37306,434.16534 304.44325,431.98523 C 311.43924,432.277 317.30781,433.24007 322.34406,437.18149 C 321.56344,435.53918 321.09846,434.14449 321.27002,433.24919 C 324.16966,434.67464 327.02045,436.52193 329.68339,439.99028 C 330.00275,437.42067 331.39344,436.00676 333.62157,435.49622 C 333.74091,436.91517 333.86025,438.62076 333.97958,440.4116 C 335.69781,440.00908 336.71969,439.78865 337.73875,439.56897 C 336.90116,442.63842 339.16216,443.43896 341.85593,443.92259 C 349.30275,446.09863 357.02405,445.58279 364.94797,443.07996 C 372.39231,440.96774 380.13934,438.97427 389.47207,437.60282 C 419.58144,434.95409 434.03085,439.76467 444.24853,446.59095 C 449.68694,449.39081 460.42564,463.25417 443.35349,476.36413 C 437.231,479.36364 435.70335,482.98405 419.90344,483.38611 C 403.75004,483.97205 388.70194,482.47682 373.71936,480.85819 z "
           style="color:black;fill:#fcef3c;fill-opacity:1;fill-rule:nonzero;stroke:black;stroke-width:2.5;stroke-linecap:round;stroke-linejoin:round;marker:none;marker-start:none;marker-mid:none;marker-end:none;stroke-miterlimit:4;stroke-dasharray:none;stroke-dashoffset:0;stroke-opacity:1;visibility:visible;display:inline;overflow:visible"
           id="path9989" />
        <g
           transform="matrix(0.515747,0,0,0.404626,107.8924,362.1868)"
           id="g9991"
           style="fill:#2b5df2;fill-opacity:1;stroke:black;stroke-width:5.47261715;stroke-linecap:round;stroke-linejoin:round;stroke-miterlimit:4;stroke-dasharray:none;stroke-opacity:1">
          <path
             id="path9993"
             style="opacity:1;color:black;fill:#2b5df2;fill-opacity:1;fill-rule:nonzero;stroke:black;stroke-width:5.47261715;stroke-linecap:round;stroke-linejoin:round;marker:none;marker-start:none;marker-mid:none;marker-end:none;stroke-miterlimit:4;stroke-dasharray:none;stroke-dashoffset:0;stroke-opacity:1;visibility:visible;display:inline;overflow:visible"
             d="M 101.78001,203.34341 C 102.80795,206.16368 99.974163,206.67653 90.562292,208.58668 C 85.860501,202.6467 83.903404,194.62879 72.616399,192.8794 C 87.844706,182.06541 100.86232,186.07278 101.78001,203.34341 z " />
          <path
             id="path9995"
             style="opacity:1;color:black;fill:#2b5df2;fill-opacity:1;fill-rule:nonzero;stroke:black;stroke-width:5.47261715;stroke-linecap:round;stroke-linejoin:round;marker:none;marker-start:none;marker-mid:none;marker-end:none;stroke-miterlimit:4;stroke-dasharray:none;stroke-dashoffset:0;stroke-opacity:1;visibility:visible;display:inline;overflow:visible"
             d="M 137.92956,220.61257 C 137.96415,226.79869 126.31535,213.59792 125.78457,210.32933 C 133.42197,208.92575 139.58647,200.66551 133.08781,192.00658 C 152.51401,198.09168 147.00388,218.58599 137.92956,220.61257 z " />
          <path
             id="path9997"
             style="opacity:1;color:black;fill:#2b5df2;fill-opacity:1;fill-rule:nonzero;stroke:black;stroke-width:5.47261715;stroke-linecap:round;stroke-linejoin:round;marker:none;marker-start:none;marker-mid:none;marker-end:none;stroke-miterlimit:4;stroke-dasharray:none;stroke-dashoffset:0;stroke-opacity:1;visibility:visible;display:inline;overflow:visible"
             d="M 80.254389,254.23597 C 89.166116,255.98129 85.051138,232.60849 72.400748,234.60187 C 59.750358,236.59525 54.954069,246.44272 60.620288,266.75271 C 64.305986,255.43296 71.342662,252.49065 80.254389,254.23597 z " />
          <path
             id="path9999"
             style="opacity:1;color:black;fill:#2b5df2;fill-opacity:1;fill-rule:nonzero;stroke:black;stroke-width:5.47261715;stroke-linecap:round;stroke-linejoin:round;marker:none;marker-start:none;marker-mid:none;marker-end:none;stroke-miterlimit:4;stroke-dasharray:none;stroke-dashoffset:0;stroke-opacity:1;visibility:visible;display:inline;overflow:visible"
             d="M 106.76043,295.46758 C 106.30364,282.98072 91.676781,270.74767 90.807718,279.26945 C 86.697365,284.14478 83.400816,291.35816 71.173617,283.19627 C 71.377181,310.09722 100.28369,300.15422 106.76043,295.46758 z " />
        </g>
        <path
           id="path10001"
           style="color:black;fill:#fcef3c;fill-opacity:1;fill-rule:nonzero;stroke:black;stroke-width:2.5;stroke-linecap:round;stroke-linejoin:round;marker:none;marker-start:none;marker-mid:none;marker-end:none;stroke-miterlimit:4;stroke-dasharray:none;stroke-dashoffset:0;stroke-opacity:1;visibility:visible;display:inline;overflow:visible"
           d="M 211.69828,509.0388 L 220.29449,485.43443 L 214.95442,480.63181 C 204.05522,477.17075 191.98903,471.42078 179.0066,463.87373 C 170.82224,460.05148 176.91479,455.23664 180.83004,454.8816 C 181.93692,453.74336 181.27599,452.51021 180.30905,451.10081 C 177.65304,448.85074 176.10708,447.6649 174.83873,447.32002 C 173.24883,446.92237 171.23829,445.50468 171.97332,449.77242 C 172.5405,452.79082 168.41867,459.28613 163.89809,452.53138 C 163.46513,450.21615 163.42915,447.70146 163.6376,445.88945 C 162.88842,444.77416 163.0862,442.91594 160.77219,443.02832 C 157.09069,444.06768 154.38197,444.6454 152.43647,444.86762 C 151.67616,447.57341 150.85961,449.97602 157.12532,450.58989 C 157.49877,452.51489 158.29504,454.72422 156.34384,455.08596 C 151.6252,454.8045 145.53295,451.88185 142.5378,457.9471 C 151.01595,458.88684 150.24773,463.49368 147.22664,465.09993 C 148.00812,467.07548 149.48424,467.55234 151.655,466.5305 C 158.25358,464.07385 158.52879,465.23638 159.99072,465.9174 C 161.06907,469.34443 160.42763,471.9362 154.25991,471.84404 C 152.79457,472.26745 152.19361,474.02073 153.0877,476.03356 C 160.16836,477.30008 160.24017,479.14603 160.90244,481.85801 C 164.30563,483.06462 164.47776,485.25278 164.67957,478.48596 C 165.5609,474.91106 170.46858,478.29404 168.45669,480.52963 C 172.29869,482.29033 174.61481,480.64772 170.28014,484.71915 C 171.5294,486.27418 183.24953,485.26588 174.18751,489.41958 C 178.22285,490.68052 187.7982,490.31155 179.0066,495.34622 C 181.00319,497.01758 195.37506,496.31565 183.43496,500.65976 C 202.02166,502.80676 195.17108,504.34902 191.77068,505.9733 L 204.01378,508.63006 L 211.69828,509.0388 z " />
        <g
           transform="matrix(0.515747,0,0,0.404626,107.8924,362.1868)"
           id="g10003"
           style="fill:#2b5df2;fill-opacity:1;stroke:black;stroke-width:5.47261715;stroke-linecap:round;stroke-linejoin:round;stroke-miterlimit:4;stroke-dasharray:none;stroke-opacity:1">
          <path
             id="path10005"
             style="opacity:1;color:black;fill:#2b5df2;fill-opacity:1;fill-rule:nonzero;stroke:black;stroke-width:5.47261715;stroke-linecap:round;stroke-linejoin:round;marker:none;marker-start:none;marker-mid:none;marker-end:none;stroke-miterlimit:4;stroke-dasharray:none;stroke-dashoffset:0;stroke-opacity:1;visibility:visible;display:inline;overflow:visible"
             d="M 80.499816,423.58009 C 66.431558,433.37573 64.511529,451.50329 82.217799,457.44891 C 78.561446,446.03171 81.786988,438.59877 90.562292,434.37884" />
          <path
             id="path10007"
             style="opacity:1;color:black;fill:#2b5df2;fill-opacity:1;fill-rule:nonzero;stroke:black;stroke-width:5.47261715;stroke-linecap:round;stroke-linejoin:round;marker:none;marker-start:none;marker-mid:none;marker-end:none;stroke-miterlimit:4;stroke-dasharray:none;stroke-dashoffset:0;stroke-opacity:1;visibility:visible;display:inline;overflow:visible"
             d="M 117.31376,444.19589 C 110.24259,464.15834 117.84067,474.87278 140.87468,475.85588 C 131.92917,467.98053 131.35558,459.26799 135.4753,450.08612" />
          <path
             id="path10009"
             style="opacity:1;color:black;fill:#2b5df2;fill-opacity:1;fill-rule:nonzero;stroke:black;stroke-width:5.47261715;stroke-linecap:round;stroke-linejoin:round;marker:none;marker-start:none;marker-mid:none;marker-end:none;stroke-miterlimit:4;stroke-dasharray:none;stroke-dashoffset:0;stroke-opacity:1;visibility:visible;display:inline;overflow:visible"
             d="M 178.4249,432.41543 C 184.20526,449.60071 175.9265,455.85113 164.19017,459.41232 C 169.21844,449.49829 167.97943,442.09117 163.20847,436.09683" />
          <path
             id="path10011"
             style="opacity:1;color:black;fill:#2b5df2;fill-opacity:1;fill-rule:nonzero;stroke:black;stroke-width:5.47261715;stroke-linecap:round;stroke-linejoin:round;marker:none;marker-start:none;marker-mid:none;marker-end:none;stroke-miterlimit:4;stroke-dasharray:none;stroke-dashoffset:0;stroke-opacity:1;visibility:visible;display:inline;overflow:visible"
             d="M 118.54089,370.56801 C 104.26003,355.29439 87.172907,357.53956 81.726947,374.98569 C 94.885891,371.02054 98.590566,374.0217 99.397638,379.15793" />
        </g>
        <g
           transform="matrix(0.515747,0,0,0.404626,107.8924,362.1868)"
           id="g10013"
           style="fill:#2b5df2;fill-opacity:1;stroke:black;stroke-width:5.47261715;stroke-linecap:round;stroke-linejoin:round;stroke-miterlimit:4;stroke-dasharray:none;stroke-opacity:1">
          <path
             id="path10015"
             style="opacity:1;color:black;fill:#2b5df2;fill-opacity:1;fill-rule:nonzero;stroke:black;stroke-width:5.47261715;stroke-linecap:round;stroke-linejoin:round;marker:none;marker-start:none;marker-mid:none;marker-end:none;stroke-miterlimit:4;stroke-dasharray:none;stroke-dashoffset:0;stroke-opacity:1;visibility:visible;display:inline;overflow:visible"
             d="M 578.7645,436.45957 C 567.56269,445.35775 559.90006,455.23903 573.38468,470.99455 C 574.2619,459.28224 580.0865,451.52785 590.21831,447.21921" />
          <path
             id="path10017"
             style="opacity:1;color:black;fill:#2b5df2;fill-opacity:1;fill-rule:nonzero;stroke:black;stroke-width:5.47261715;stroke-linecap:round;stroke-linejoin:round;marker:none;marker-start:none;marker-mid:none;marker-end:none;stroke-miterlimit:4;stroke-dasharray:none;stroke-dashoffset:0;stroke-opacity:1;visibility:visible;display:inline;overflow:visible"
             d="M 606.70485,457.28468 C 596.55267,467.0591 594.67682,476.31625 606.70485,484.70441 C 609.291,478.1687 608.12081,469.89929 621.9766,468.56495" />
          <path
             id="path10019"
             style="opacity:1;color:black;fill:#2b5df2;fill-opacity:1;fill-rule:nonzero;stroke:black;stroke-width:5.47261715;stroke-linecap:round;stroke-linejoin:round;marker:none;marker-start:none;marker-mid:none;marker-end:none;stroke-miterlimit:4;stroke-dasharray:none;stroke-dashoffset:0;stroke-opacity:1;visibility:visible;display:inline;overflow:visible"
             d="M 647.6609,463.8793 C 657.52782,467.94238 659.23269,476.49459 659.98242,485.57212 C 675.63872,477.8396 671.16224,465.75404 670.56852,454.508" />
          <path
             id="path10021"
             style="opacity:1;color:black;fill:#2b5df2;fill-opacity:1;fill-rule:nonzero;stroke:black;stroke-width:5.47261715;stroke-linecap:round;stroke-linejoin:round;marker:none;marker-start:none;marker-mid:none;marker-end:none;stroke-miterlimit:4;stroke-dasharray:none;stroke-dashoffset:0;stroke-opacity:1;visibility:visible;display:inline;overflow:visible"
             d="M 661.89139,421.70846 C 670.33707,419.30003 677.09206,420.73409 680.46045,429.86496 C 686.63568,413.37558 676.87484,407.62572 661.89139,405.39545" />
        </g>
        <path
           id="path10023"
           style="color:black;fill:#fcef3c;fill-opacity:1;fill-rule:nonzero;stroke:black;stroke-width:2.5;stroke-linecap:round;stroke-linejoin:round;marker:none;marker-start:none;marker-mid:none;marker-end:none;stroke-miterlimit:4;stroke-dasharray:none;stroke-dashoffset:0;stroke-opacity:1;visibility:visible;display:inline;overflow:visible"
           d="M 253.33909,522.94187 C 262.21289,516.43899 261.80249,521.63003 262.55537,524.39445 C 273.50874,509.77171 268.9119,514.88609 272.49033,517.02137 C 280.87538,504.46813 278.45315,511.88101 280.18767,511.61445 C 286.6687,500.4305 286.88348,504.25372 289.22757,502.97742 C 299.85858,493.14642 321.61182,490.41787 342.12445,486.89709 C 349.77747,488.52817 350.00726,492.16748 350.98535,495.60434 C 354.45273,497.27019 356.61707,500.46949 357.69815,504.94358 C 375.29509,518.90358 396.28453,515.71131 415.78625,520.04082 C 418.18167,522.66565 420.82135,525.16271 423.93112,527.4139 C 423.46309,529.30837 424.02754,531.04084 424.73666,532.75061 C 420.37914,533.64275 417.53952,532.05396 410.59502,537.17445 L 405.94081,537.52555 C 402.91072,537.33546 402.97174,538.42924 403.97172,539.91302 C 405.56492,539.47246 408.3482,541.48274 411.84808,544.96884 C 423.1392,539.50168 423.69771,541.34493 425.09467,542.23027 C 420.16427,544.83341 417.6453,544.03088 419.18741,548.40962 C 423.76175,547.69849 425.56584,550.89947 427.8693,553.39521 C 430.05036,553.52862 432.36805,554.37662 433.86607,550.93753 C 435.08995,546.45484 440.01522,547.87494 440.84738,551.9206 C 450.45586,545.65377 451.63756,547.54073 454.452,547.84785 C 457.173,545.60924 455.81718,544.0103 453.82547,542.51115 C 439.75917,537.57075 449.65869,534.57512 452.21439,534.08478 C 449.03793,532.55814 449.06665,529.221 451.85638,524.32423 C 449.79891,524.25354 448.36639,523.91883 443.35349,525.09665 C 436.08968,522.5073 442.21791,522.12987 443.08498,520.88346 C 430.92317,513.92992 442.58664,517.17198 442.54796,515.40632 C 428.9855,508.64837 440.76938,511.07902 440.84738,509.22698 C 438.73985,507.01855 429.90007,512.00385 433.95557,503.39874 C 428.54697,503.93525 422.13909,505.58453 423.84162,498.20248 C 418.43109,500.24817 404.66352,504.02627 388.04,488.30149 C 381.1482,480.92841 363.05794,468.35687 350.17981,468.71017 C 328.78303,470.70739 318.20318,468.13502 283.05179,475.94281 L 227.3803,477.55786 L 214.0442,478.47072 C 214.33312,497.88808 208.34597,507.61282 200.14296,512.31171 C 199.73799,512.54368 194.40913,514.45397 193.98964,514.65671 C 185.8138,518.60814 178.57565,522.54311 175.19945,521.7261 C 171.36145,521.30686 170.32916,519.89709 171.26127,517.7938 C 171.70793,515.94481 171.99299,514.12118 171.26127,512.45709 C 170.62673,511.66014 170.78907,510.39428 168.39715,510.63138 C 166.11066,514.22183 162.32626,515.2269 157.65667,514.70412 C 156.49314,515.10477 155.75724,516.43343 156.76163,517.93424 C 163.72337,521.27555 162.28115,521.85276 162.8479,526.50105 C 158.911,527.35134 154.98396,528.20522 154.0765,530.15247 C 151.91232,529.9931 149.69434,529.77041 147.99023,530.15247 C 147.13855,531.6905 146.75478,533.15512 147.09519,534.50609 C 154.72552,536.8614 152.43662,537.91969 153.53948,539.42149 C 157.83596,538.67312 161.30782,535.98396 165.17501,534.22522 C 171.22917,532.44698 170.84098,536.22259 169.4712,538.15753 C 168.0988,538.35015 166.72641,539.84487 165.35401,541.10676 C 164.52554,542.59936 164.83595,543.19848 165.17501,543.77511 C 176.02326,542.97165 174.63075,545.10258 177.70557,546.16258 C 182.92857,547.00179 180.41438,544.53 180.92771,543.35379 C 179.65139,539.61778 181.84649,539.42229 182.71779,537.87664 C 184.34494,536.81009 187.14837,535.33595 187.01398,539.42149 C 187.88607,542.92219 190.42212,542.32006 192.92125,541.80896 C 192.1369,537.68649 194.78492,537.04226 199.72355,538.71929 C 200.68851,538.32696 201.44097,537.65681 201.69264,536.33182 C 198.71472,531.15953 205.87771,530.04934 209.74801,532.53995 L 209.21099,537.59577 C 213.02179,532.62871 216.31707,530.41266 218.69841,529.8716 C 217.92125,532.86226 217.80647,535.25902 218.69841,536.75313 C 224.1409,529.18164 226.99094,528.72879 229.6179,528.88852 C 229.20565,531.59301 229.40721,533.0936 229.43889,534.92742 C 232.93795,532.75155 234.92125,530.40579 236.77822,528.04588 C 240.76898,525.86487 241.2254,528.35392 240.7164,532.11862 C 241.79103,532.28832 243.26808,531.21714 245.72862,529.02896 C 248.54972,524.34698 250.54305,524.22338 253.06795,524.95621 C 253.32302,522.08439 254.47418,517.8083 252.88894,516.52984 C 253.51759,515.90954 255.61376,516.90113 257.36415,517.51291 C 257.89969,514.87125 257.27821,511.14032 256.64811,507.40127 C 258.53313,507.42042 259.55656,508.1155 260.7653,508.66522 C 260.29352,505.1538 259.79076,501.73152 258.6172,500.23885" />
        <path
           d="M 213.83805,475.28565 C 211.73919,477.92051 208.85787,480.01824 204.85102,481.34331 C 211.91728,483.00493 214.37921,482.08635 218.39485,482.03845 C 218.76105,484.09209 217.23337,485.81554 215.48357,487.50026 C 219.45811,487.41817 222.15327,486.73384 224.97689,486.10999 C 225.92037,488.1292 224.69783,490.14842 224.09085,492.16764 C 227.06142,490.7718 228.83559,488.85677 230.41974,487.99679 C 230.35129,490.85744 232.76862,492.01167 234.47023,493.65722 C 235.31121,491.9931 236.17871,490.41223 237.25494,489.48638 C 239.37384,490.47701 241.04059,491.58589 242.44464,492.76347 C 243.36151,491.27135 244.32881,489.93744 245.4825,489.18846 C 249.93882,490.69765 250.54978,491.38816 252.3177,492.36625 C 252.69968,491.41095 252.48997,489.97874 253.07717,488.0961 C 256.02802,490.08686 260.10685,490.08648 263.96286,490.47944 C 262.88716,489.07244 261.88926,487.6044 261.05157,486.01068 C 264.90373,485.74653 267.60596,486.02369 270.29174,486.3086 C 268.90202,484.78981 267.22055,483.2456 263.7097,481.54192 C 266.47989,481.70173 268.74186,481.66218 271.05122,481.64122 C 268.57745,480.18114 266.07967,478.77756 263.83628,476.77524 C 265.50608,475.94 267.92956,475.89315 270.29174,475.78218 C 267.55879,474.43013 265.63255,472.95149 264.08943,471.41273 L 268.2665,471.21412 C 266.77895,469.78089 265.11112,468.40423 262.44392,467.3412 L 263.07682,465.55369 C 260.48028,464.64383 259.79831,463.23328 258.52001,461.97868 C 258.38808,460.33384 258.68908,459.19846 259.02633,458.10576 C 262.02443,457.47773 259.70066,454.87195 258.39343,452.64394 C 259.64391,450.93173 260.87913,450.06785 261.49909,445.08965 C 275.40091,442.82215 266.96304,430.83124 257.25424,436.15919 C 255.39776,435.17668 253.54128,432.62919 251.68481,434.17307 L 251.1785,431.98835 C 250.02196,432.06816 248.22393,432.65123 246.11538,433.47793 C 245.32465,432.68349 245.19036,431.88904 245.10277,431.09459 C 242.54421,432.13814 241.32656,433.11379 239.65992,433.97446 L 237.25494,431.59113 C 236.71435,432.23159 236.1386,432.88387 233.96392,434.07377 C 232.23094,433.65844 230.49293,433.25213 227.12872,435.76197 C 218.03445,425.74739 202.59393,438.21536 217.50881,445.79185 C 217.09256,448.90343 216.48952,452.01501 216.74934,455.12659 C 215.09065,455.70794 214.86203,456.66328 214.59752,457.60923 C 215.73672,457.07444 216.87592,456.58309 218.01511,456.41756 C 217.42537,460.62356 215.71366,462.40892 214.21778,464.65994 L 218.52143,463.17035 C 219.60631,469.54543 212.79265,471.37622 207.00286,473.79607 C 208.99877,474.84664 211.36858,475.16388 213.83805,475.28565 z "
           style="color:black;fill:#fcef3c;fill-opacity:1;fill-rule:nonzero;stroke:black;stroke-width:2.5;stroke-linecap:round;stroke-linejoin:round;marker:none;marker-start:none;marker-mid:none;marker-end:none;stroke-miterlimit:4;stroke-dasharray:none;stroke-dashoffset:0;stroke-opacity:1;visibility:visible;display:inline;overflow:visible"
           id="path10025" />
        <g
           transform="matrix(0.515747,0,0,0.404626,107.8924,362.1868)"
           id="g10027"
           style="fill:black;fill-opacity:1;stroke:black;stroke-width:1.09452271;stroke-miterlimit:4;stroke-dasharray:none;stroke-opacity:1">
          <path
             id="path10029"
             style="opacity:1;color:black;fill:black;fill-opacity:1;fill-rule:nonzero;stroke:black;stroke-width:1.09452271;stroke-linecap:round;stroke-linejoin:round;marker:none;stroke-miterlimit:4;stroke-dasharray:none;stroke-dashoffset:0;stroke-opacity:1;visibility:visible;display:inline;overflow:visible"
             d="M 230.42302,203.92378 C 226.07618,204.69161 223.06568,206.24777 220.81002,211.40545 C 220.13421,212.95072 226.16064,207.3174 226.85769,209.55963 C 227.13798,210.46125 226.85092,212.89272 228.01895,214.47785 C 229.34081,216.27174 230.59001,217.03125 233.28393,217.44929 C 239.11714,218.35447 242.37465,214.36537 243.17455,211.50306 C 244.16751,211.8825 245.26276,213.38932 245.68636,213.58651 C 245.8875,213.68014 245.08451,211.4288 246.28233,211.59582 C 249.29857,212.01639 250.26577,208.63371 250.64466,209.46243 C 251.62256,211.60139 256.52121,210.08411 257.38015,207.8481 C 257.68797,207.04678 256.42787,206.37206 255.04475,206.20594 C 254.30659,206.11728 254.7618,204.75123 254.45902,204.736 C 253.65092,204.69537 254.34517,207.24878 252.30703,206.28543 C 251.21048,205.76713 251.75505,203.30118 251.75799,203.15971 C 252.23868,202.46679 251.96958,200.61506 250.14046,200.21132 C 248.87086,199.93109 249.53513,198.10976 248.93207,198.62575 C 248.64991,198.86718 249.3159,204.65492 248.98966,204.96051 C 247.2651,206.5759 245.17502,208.95577 245.05901,208.67111 C 243.70882,205.35806 241.40596,204.7286 236.94436,203.8045 C 235.57821,203.52153 231.91483,203.79101 230.42302,203.92378 z " />
          <path
             id="path10031"
             style="opacity:1;color:black;fill:black;fill-opacity:1;fill-rule:nonzero;stroke:black;stroke-width:1.09452271;stroke-linecap:round;stroke-linejoin:round;marker:none;stroke-miterlimit:4;stroke-dasharray:none;stroke-dashoffset:0;stroke-opacity:1;visibility:visible;display:inline;overflow:visible"
             d="M 267.97324,202.57393 C 256.69396,210.57336 257.47127,198.1688 256.70361,199.80906 C 252.94766,207.83438 264.00024,209.02831 265.63504,209.43692 C 266.55105,209.66587 265.93505,211.29745 267.10308,212.88258 C 268.42494,214.67647 271.09215,215.02612 273.77926,215.48588 C 280.15242,216.57633 281.54368,211.45733 282.13597,208.43523 C 283.22232,208.49113 286.38303,209.98306 286.7339,210.33461 C 287.31924,210.9211 285.85498,206.99461 285.87224,206.16618 C 282.82274,203.69941 280.90126,203.6536 276.02849,202.20923 C 274.69087,201.81274 270.01726,201.76624 267.97324,202.57393 z " />
        </g>
        <g
           transform="matrix(0.515747,0,0,0.404626,107.8924,362.1868)"
           id="g10033"
           style="fill:white;fill-opacity:1;stroke:black;stroke-width:1.09452271;stroke-miterlimit:4;stroke-dasharray:none;stroke-opacity:1">
          <path
             id="path10035"
             style="opacity:1;color:black;fill:white;fill-opacity:1;fill-rule:nonzero;stroke:black;stroke-width:1.09452271;stroke-linecap:round;stroke-linejoin:round;marker:none;stroke-miterlimit:4;stroke-dasharray:none;stroke-dashoffset:0;stroke-opacity:1;visibility:visible;display:inline;overflow:visible"
             d="M 231.11911,207.60053 C 230.69386,207.81197 230.66898,209.59547 230.82774,210.04306 C 231.43173,211.83695 231.03718,211.13957 232.10061,212.01829 C 233.16404,212.89701 236.02268,212.80192 237.22827,212.62119 C 239.63946,212.25973 240.17241,211.39991 240.1875,208.65625 C 240.19828,208.11699 239.30477,208.72739 239.2099,208.19642 C 239.14288,207.82131 238.66703,206.99267 237.94698,207.32172 C 237.45641,207.5459 237.92424,209.37412 237.617,210.09756 C 237.00913,211.52885 235.85862,211.45041 235.16425,211.5545 C 234.81706,211.60655 233.46791,210.42913 232.9638,210.01258 C 231.4635,208.26854 232.51611,206.90591 231.11911,207.60053 z " />
          <path
             id="path10037"
             style="opacity:1;color:black;fill:white;fill-opacity:1;fill-rule:nonzero;stroke:black;stroke-width:1.09452271;stroke-linecap:round;stroke-linejoin:round;marker:none;stroke-miterlimit:4;stroke-dasharray:none;stroke-dashoffset:0;stroke-opacity:1;visibility:visible;display:inline;overflow:visible"
             d="M 270.01917,205.63712 C 269.62989,205.90916 269.75311,208.92055 269.91187,209.36814 C 270.51586,211.16203 270.00769,209.96623 270.87796,211.03659 C 271.46268,211.75574 273.95846,211.95243 276.00562,211.63949 C 277.23428,211.45167 278.33526,210.22887 278.96485,207.67455 C 278.97563,207.13529 278.08212,207.74569 277.98725,207.21472 C 277.92023,206.83961 277.44438,206.01097 276.72433,206.34002 C 276.23376,206.5642 276.64866,208.37216 276.39435,209.11586 C 275.96646,210.36717 275.27335,209.27912 274.43245,209.52974 C 274.09601,209.63001 273.10654,209.08667 272.47743,208.90817 C 269.59265,208.08965 271.9011,204.32198 270.01917,205.63712 z " />
          <path
             id="path10039"
             style="opacity:1;color:black;fill:white;fill-opacity:1;fill-rule:nonzero;stroke:black;stroke-width:1.09452271;stroke-linecap:round;stroke-linejoin:round;marker:none;stroke-miterlimit:4;stroke-dasharray:none;stroke-dashoffset:0;stroke-opacity:1;visibility:visible;display:inline;overflow:visible"
             d="M 234.67515,206.73291 C 234.62982,206.90778 234.66926,207.10867 234.8125,207.21875 C 235.63184,207.45611 235.90196,207.93001 236.09375,208.5625 C 236.09375,208.5625 236.72906,208.52245 236.72906,208.52245 C 237.54669,206.39836 235.99334,206.16199 234.67515,206.73291 z " />
          <path
             id="path10041"
             style="opacity:1;color:black;fill:white;fill-opacity:1;fill-rule:nonzero;stroke:black;stroke-width:1.09452271;stroke-linecap:round;stroke-linejoin:round;marker:none;stroke-miterlimit:4;stroke-dasharray:none;stroke-dashoffset:0;stroke-opacity:1;visibility:visible;display:inline;overflow:visible"
             d="M 273.63546,204.69378 C 273.59013,204.86865 273.62957,205.06954 273.77281,205.17962 C 274.59215,205.41698 274.86227,205.89088 275.05406,206.52337 C 275.05406,206.52337 275.68937,206.48332 275.68937,206.48332 C 276.507,204.35923 274.95365,204.12286 273.63546,204.69378 z " />
        </g>
        <g
           transform="matrix(0.515747,0,0,0.404626,107.8924,362.1868)"
           id="g10043"
           style="fill:black;fill-opacity:1;stroke:black;stroke-width:1.09452271;stroke-miterlimit:4;stroke-dasharray:none;stroke-opacity:1">
          <path
             id="path10045"
             style="opacity:1;color:black;fill:black;fill-opacity:1;fill-rule:nonzero;stroke:black;stroke-width:1.09452271;stroke-linecap:round;stroke-linejoin:round;marker:none;stroke-miterlimit:4;stroke-dasharray:none;stroke-dashoffset:0;stroke-opacity:1;visibility:visible;display:inline;overflow:visible"
             d="M 218.40625,179.0625 C 217.32154,179.01878 216.38932,179.21721 215.12729,179.41997 C 212.15739,179.89713 208.99252,180.50633 207.90168,188.32279 C 207.45295,189.02178 208.71246,191.63608 209.52057,191.44398 C 210.23063,191.27518 210.05502,190.47442 210.41473,189.73856 C 211.6257,187.26124 212.38591,185.80829 213.29502,184.70767 C 214.44458,183.31595 216.1598,182.54861 217.15168,182.41082 C 218.11499,182.277 218.97157,184.40696 217.69665,185.45465 C 216.36154,186.5518 215.22344,189.06243 214.83575,191.23209 C 215.2045,191.89656 214.70157,196.2613 215.07126,195.67302 C 218.45333,190.29122 220.94579,188.96401 222.59641,186.02173 C 223.75239,183.96116 223.20883,183.26248 222.59527,181.60785 C 222.24363,180.65955 219.49096,179.10622 218.40625,179.0625 z " />
          <path
             id="path10047"
             style="opacity:1;color:black;fill:black;fill-opacity:1;fill-rule:nonzero;stroke:black;stroke-width:1.09452271;stroke-linecap:round;stroke-linejoin:round;marker:none;stroke-miterlimit:4;stroke-dasharray:none;stroke-dashoffset:0;stroke-opacity:1;visibility:visible;display:inline;overflow:visible"
             d="M 298.58604,184.69664 C 301.05951,184.39774 304.46329,183.83573 306.11844,190.89977 C 303.96727,189.57744 304.16882,188.77094 300.66374,187.7755 C 298.69911,188.01761 296.10427,187.87741 295.95533,189.44283 C 295.86424,190.40019 296.10762,190.83698 296.30061,192.64329 C 295.93186,193.30776 296.83071,197.16325 296.43324,196.59337 C 293.12092,191.84423 292.03247,193.02704 291.73049,189.82584 C 291.21761,184.38892 295.5945,185.05815 298.58604,184.69664 z " />
        </g>
        <path
           id="path10049"
           style="color:black;fill:black;fill-opacity:1;fill-rule:nonzero;stroke:black;stroke-width:0.5;stroke-linecap:round;stroke-linejoin:round;marker:none;stroke-miterlimit:4;stroke-dasharray:none;stroke-dashoffset:0;stroke-opacity:1;visibility:visible;display:inline;overflow:visible"
           d="M 234.86284,453.6701 C 234.60553,453.69696 234.38254,453.82327 234.26906,454.00642 C 234.15558,454.18957 234.21147,455.03715 234.34349,455.21249 C 235.62098,456.51612 236.69865,456.8175 237.29652,457.55198 C 237.88529,458.2753 239.13607,459.95924 240.045,459.9709 C 240.21375,459.97307 240.54348,460.82 240.54856,460.6883 C 240.60433,459.24472 242.28179,457.81062 245.84937,455.77719 C 246.19511,455.58013 246.15349,454.28291 245.80634,454.08737 C 245.45919,453.89184 245.03508,453.99453 244.72649,454.22646 C 242.66458,455.77613 241.21674,456.88466 240.32653,457.13471 C 239.71139,457.30749 239.36732,456.87717 238.60544,456.38033 C 237.55324,455.69417 237.30152,455.41643 235.96583,454.19688 C 235.81327,453.97189 235.18456,453.63496 234.86284,453.6701 L 234.86284,453.6701 z " />
        <path
           id="path10051"
           style="color:black;fill:black;fill-opacity:1;fill-rule:nonzero;stroke:black;stroke-width:0.5;stroke-linecap:round;stroke-linejoin:round;marker:none;stroke-miterlimit:4;stroke-dasharray:none;stroke-dashoffset:0;stroke-opacity:1;visibility:visible;display:inline;overflow:visible"
           d="M 252.8387,457.44947 C 252.41751,457.47642 251.83328,457.83374 251.86105,458.16457 C 251.95289,459.57433 251.73468,460.45158 251.23779,460.90278 C 250.74091,461.35399 250.01366,461.56173 248.93305,461.57295 C 246.77183,461.59539 244.0847,460.51308 240.99249,459.79436 C 238.78369,459.15617 239.14187,459.5077 238.87819,460.25362 C 235.20579,462.57467 232.60583,462.36795 231.32568,461.95363 C 230.70176,461.7517 229.84121,461.33244 229.43669,460.85638 C 228.96902,460.30598 228.95461,459.45782 229.22186,458.52561 C 229.28107,458.30067 228.67018,457.86159 228.40657,457.96154 C 227.07502,458.4664 227.04344,458.746 226.48243,459.43982 C 226.49689,460.98417 227.08175,461.33355 227.64066,461.71178 C 228.40581,462.2296 228.71883,462.81276 229.76091,463.18433 C 230.00177,463.2702 230.87057,462.63898 231.60482,463.45498 C 232.44761,464.39158 232.91802,465.91078 233.52165,466.74575 C 233.63257,466.89917 234.95096,467.21044 234.98773,467.27564 C 235.51172,468.20465 235.04893,475.41535 241.12846,475.17017 C 245.15526,475.21065 246.36088,472.06556 247.12185,466.20321 C 247.24821,465.22977 248.89432,467.69971 249.35194,466.64891 C 249.82645,465.55933 250.34268,461.73611 252.77236,461.87494 C 255.07103,462.00628 255.2923,458.01446 252.8387,457.44947 z " />
        <g
           style="fill:#2b5df2;fill-opacity:1;stroke:black;stroke-width:1.09452271;stroke-miterlimit:4;stroke-dasharray:none;stroke-opacity:1"
           transform="matrix(0.515747,0,0,0.404626,107.8924,362.1868)"
           id="g10053">
          <path
             id="path10055"
             style="opacity:1;color:black;fill:#2b5df2;fill-opacity:1;fill-rule:nonzero;stroke:black;stroke-width:1.09452271;stroke-linecap:round;stroke-linejoin:round;marker:none;stroke-miterlimit:4;stroke-dasharray:none;stroke-dashoffset:0;stroke-opacity:1;visibility:visible;display:inline;overflow:visible"
             d="M 263.03697,247.25609 C 261.94316,247.33844 259.06735,244.87223 258.82356,245.9417 L 259.13111,257.52883 L 255.96494,257.66312 L 255.85213,246.82013 C 255.58462,245.46531 253.3491,248.6334 251.99428,248.90091 C 250.63946,249.16842 249.57395,250.79037 249.84146,252.14519 C 249.69618,255.74547 249.55391,260.78648 250.13645,264.10916 L 251.25268,267.48897 C 251.67736,268.7509 253.27688,275.88653 257.39552,275.98487 C 260.54762,276.06013 263.61773,273.58133 265.11213,267.31722 C 265.83244,264.29794 266.17799,257.80429 266.33689,255.38108 C 266.53025,254.60078 266.39796,249.35743 265.87785,248.74445 C 265.35774,248.13147 264.02242,247.62188 263.03697,247.25609 z " />
          <path
             id="path10057"
             style="opacity:1;color:black;fill:#2b5df2;fill-opacity:1;fill-rule:nonzero;stroke:black;stroke-width:1.09452271;stroke-linecap:round;stroke-linejoin:round;marker:none;stroke-miterlimit:4;stroke-dasharray:none;stroke-dashoffset:0;stroke-opacity:1;visibility:visible;display:inline;overflow:visible"
             d="M 243.71075,251.93293 C 244.55611,253.80763 244.9549,254.71456 246.61319,255.77869 C 247.18949,255.84821 246.52705,254.41323 246.8359,253.92172 C 247.14474,253.43022 246.16061,251.94565 245.84795,251.45656 L 245.72332,250.65168 C 244.4893,249.94447 243.91928,250.61491 243.71075,251.93293 z " />
          <path
             id="path10059"
             style="opacity:1;color:black;fill:#2b5df2;fill-opacity:1;fill-rule:nonzero;stroke:black;stroke-width:1.09452271;stroke-linecap:round;stroke-linejoin:round;marker:none;stroke-miterlimit:4;stroke-dasharray:none;stroke-dashoffset:0;stroke-opacity:1;visibility:visible;display:inline;overflow:visible"
             d="M 269.66425,248.53697 L 269.71875,249.96875 C 269.51066,250.48717 269.60785,251.07827 269.97099,251.50276 C 270.33412,251.92724 271.02576,252.5443 271.57014,252.419 L 272.9375,249.8125 C 273.11175,249.32772 273.02508,248.78744 272.70794,248.38149 C 272.39079,247.97555 271.76483,248.12886 271.25229,248.18064 C 270.48529,248.25988 270.09205,248.11147 269.66425,248.53697 z " />
        </g>
        <path
           sodipodi:nodetypes="cccc"
           id="path10061"
           d="M 346.64728,488.84059 C 344.94808,487.78622 345.84516,488.17001 342.28258,487.2124 C 336.53583,488.59965 329.25302,490.71402 323.06422,493.48852 C 334.11564,491.34453 338.69026,489.53421 346.64728,488.84059 z "
           style="fill:#fcef3c;fill-rule:evenodd;stroke:black;stroke-width:2.5;stroke-linecap:butt;stroke-linejoin:miter;stroke-miterlimit:4;stroke-dasharray:none;stroke-opacity:1" />
      </g>
      <g
         id="g23508">
        <g
           id="g10065"
           style="fill:#2b5df2;fill-opacity:1;stroke:black;stroke-width:5.47261715;stroke-linecap:round;stroke-linejoin:round;stroke-miterlimit:4;stroke-dasharray:none;stroke-opacity:1"
           transform="matrix(0.515747,0,0,0.404626,107.8924,225.6789)">
          <path
             id="path10067"
             style="opacity:1;color:black;fill:#2b5df2;fill-opacity:1;fill-rule:nonzero;stroke:black;stroke-width:5.47261715;stroke-linecap:round;stroke-linejoin:round;marker:none;marker-start:none;marker-mid:none;marker-end:none;stroke-miterlimit:4;stroke-dasharray:none;stroke-dashoffset:0;stroke-opacity:1;visibility:visible;display:inline;overflow:visible"
             d="M 370.34823,418.67157 C 369.59061,418.2634 381.14253,411.22848 378.93815,408.11824 C 366.77198,397.72823 355.26008,391.91814 348.25987,417.68986 C 358.24624,408.39728 364.16766,414.00953 370.34823,418.67157 z " />
          <path
             id="path10069"
             style="opacity:1;color:black;fill:#2b5df2;fill-opacity:1;fill-rule:nonzero;stroke:black;stroke-width:5.47261715;stroke-linecap:round;stroke-linejoin:round;marker:none;marker-start:none;marker-mid:none;marker-end:none;stroke-miterlimit:4;stroke-dasharray:none;stroke-dashoffset:0;stroke-opacity:1;visibility:visible;display:inline;overflow:visible"
             d="M 363.96715,461.86659 C 365.59487,463.77168 361.50088,436.46906 353.1684,444.68675 C 337.81791,454.14291 338.34688,464.35524 350.46871,475.11961 C 352.82305,459.11816 358.42472,460.65234 363.96715,461.86659 z " />
          <path
             id="path10071"
             style="opacity:1;color:black;fill:#2b5df2;fill-opacity:1;fill-rule:nonzero;stroke:black;stroke-width:5.47261715;stroke-linecap:round;stroke-linejoin:round;marker:none;marker-start:none;marker-mid:none;marker-end:none;stroke-miterlimit:4;stroke-dasharray:none;stroke-dashoffset:0;stroke-opacity:1;visibility:visible;display:inline;overflow:visible"
             d="M 410.10729,474.87418 C 411.32197,472.07178 405.75519,469.78856 400.33657,469.50094 C 394.91796,469.21332 389.64752,470.9213 391.45489,476.10131 C 395.33051,486.87571 399.87551,491.41242 402.7443,493.86261 C 404.94246,492.26872 409.17652,485.49087 410.10729,474.87418 z " />
          <path
             id="path10073"
             style="opacity:1;color:black;fill:#2b5df2;fill-opacity:1;fill-rule:nonzero;stroke:black;stroke-width:5.47261715;stroke-linecap:round;stroke-linejoin:round;marker:none;marker-start:none;marker-mid:none;marker-end:none;stroke-miterlimit:4;stroke-dasharray:none;stroke-dashoffset:0;stroke-opacity:1;visibility:visible;display:inline;overflow:visible"
             d="M 439.31302,460.1486 C 439.9629,453.1393 419.27399,459.89988 423.60573,462.35744 C 427.93747,464.815 430.93148,468.34274 425.56914,478.55557 C 442.86792,475.24602 438.66314,467.1579 439.31302,460.1486 z " />
        </g>
        <path
           id="path10075"
           style="color:black;fill:#fcef3c;fill-opacity:1;fill-rule:nonzero;stroke:black;stroke-width:2.5;stroke-linecap:round;stroke-linejoin:round;marker:none;marker-start:none;marker-mid:none;marker-end:none;stroke-miterlimit:4;stroke-dasharray:none;stroke-dashoffset:0;stroke-opacity:1;visibility:visible;display:inline;overflow:visible"
           d="M 362.0819,363.91837 L 345.50433,346.57727 L 342.18881,350.76804 C 342.30057,353.733 336.52773,355.78589 326.62432,360.08888 C 317.92033,364.59856 309.37992,370.6972 323.2167,384.51093 C 325.67251,386.95852 328.6032,391.15017 316.58567,397.15547 C 315.2423,397.473 312.89393,398.06836 309.58625,397.44449 C 308.55468,395.41748 308.47827,393.84008 308.66527,392.38667 C 307.09088,385.53507 293.70779,391.30754 298.35033,397.44449 C 304.23928,401.40327 302.44753,402.53359 296.32419,402.06879 C 293.22926,402.50659 290.11994,402.95795 285.82506,404.52544 C 285.77175,405.33797 285.76336,406.11528 286.19345,406.54856 C 292.8852,405.93211 293.60957,412.11251 293.56126,413.48501 C 294.46015,413.64684 295.31855,413.84045 296.69258,413.62952 C 303.51661,409.99186 304.20881,410.18642 306.00999,410.30174 C 308.71022,411.07105 304.80854,418.38765 310.13884,420.71047 C 313.50094,415.2254 319.18692,418.42691 320.00106,420.54561 C 321.36824,418.98245 321.28694,416.44525 321.00635,413.77402 C 321.99304,407.84294 325.43068,411.13005 326.9006,413.62952 C 330.36138,410.06796 332.20548,411.36819 334.51617,414.06304 C 336.16316,414.24728 336.33905,414.04978 337.03134,413.48501 L 337.95232,409.29424 C 338.24905,403.67076 343.30885,403.66317 344.40953,408.63785 C 345.29007,407.89077 346.43551,407.46691 346.44912,406.69277 C 346.5825,399.10568 347.16872,400.88145 351.48807,405.80974 C 353.57562,390.30956 355.23875,400.78059 357.10862,398.60057 C 359.15942,394.7294 351.82524,389.36903 363.18706,390.36354 C 361.36221,388.20825 356.83787,387.9061 358.39799,383.42711 C 358.9831,380.56485 355.59896,379.33375 351.21438,378.51379 C 342.0815,375.96246 347.43212,373.67281 349.55662,371.86637 L 357.48221,367.82826 L 362.0819,363.91837 z " />
        <path
           id="path10077"
           style="color:black;fill:#fcef3c;fill-opacity:1;fill-rule:nonzero;stroke:black;stroke-width:2.5;stroke-linecap:round;stroke-linejoin:round;marker:none;marker-start:none;marker-mid:none;marker-end:none;stroke-miterlimit:4;stroke-dasharray:none;stroke-dashoffset:0;stroke-opacity:1;visibility:visible;display:inline;overflow:visible"
           d="M 373.71936,344.35029 C 358.7368,342.73166 348.12122,335.78348 348.12122,335.78348 L 355.10253,332.55337 C 357.4106,331.88305 360.74634,332.01899 364.23194,332.27249 C 383.11135,337.28679 402.05284,342.14105 424.19964,338.73271 C 443.98075,332.91431 444.75191,319.34173 425.27368,312.18964 C 416.58382,309.80318 416.16661,304.7336 366.73805,315.56019 C 348.63273,321.22735 332.63941,322.28386 320.01696,315.9815 C 309.76544,310.84928 298.6759,306.67036 274.3699,317.52634 C 277.54819,309.01931 285.20319,306.83419 291.73369,303.06107 C 288.99474,302.53169 283.18289,302.87897 277.95007,303.06107 C 282.55198,299.01973 290.71446,300.57102 298.53599,301.37579 C 296.3447,300.32711 293.64789,299.13679 288.15352,297.16261 C 298.28841,297.05217 302.21587,298.66055 308.73945,299.55008 C 308.15725,298.65922 307.37306,297.65744 304.44325,295.47733 C 311.43924,295.7691 317.30781,296.73217 322.34406,300.67359 C 321.56344,299.03128 321.09846,297.63659 321.27002,296.74129 C 324.16966,298.16674 327.02045,300.01403 329.68339,303.48238 C 330.00275,300.91277 331.39344,299.49886 333.62157,298.98832 C 333.74091,300.40727 333.86025,302.11286 333.97958,303.9037 C 335.69781,303.50118 336.71969,303.28075 337.73875,303.06107 C 336.90116,306.13052 339.16216,306.93106 341.85593,307.41469 C 349.30275,309.59073 357.02405,309.07489 364.94797,306.57206 C 372.39231,304.45984 380.13934,302.46637 389.47207,301.09492 C 419.58144,298.44619 434.03085,303.25677 444.24853,310.08305 C 449.68694,312.88291 460.42564,326.74627 443.35349,339.85623 C 437.231,342.85574 435.70335,346.47615 419.90344,346.87821 C 403.75004,347.46415 388.70194,345.96892 373.71936,344.35029 z " />
        <g
           style="fill:#2b5df2;fill-opacity:1;stroke:black;stroke-width:5.47261715;stroke-linecap:round;stroke-linejoin:round;stroke-miterlimit:4;stroke-dasharray:none;stroke-opacity:1"
           id="g10079"
           transform="matrix(0.515747,0,0,0.404626,107.8924,225.6789)">
          <path
             d="M 101.78001,203.34341 C 102.80795,206.16368 99.974163,206.67653 90.562292,208.58668 C 85.860501,202.6467 83.903404,194.62879 72.616399,192.8794 C 87.844706,182.06541 100.86232,186.07278 101.78001,203.34341 z "
             style="opacity:1;color:black;fill:#2b5df2;fill-opacity:1;fill-rule:nonzero;stroke:black;stroke-width:5.47261715;stroke-linecap:round;stroke-linejoin:round;marker:none;marker-start:none;marker-mid:none;marker-end:none;stroke-miterlimit:4;stroke-dasharray:none;stroke-dashoffset:0;stroke-opacity:1;visibility:visible;display:inline;overflow:visible"
             id="path10081" />
          <path
             d="M 137.92956,220.61257 C 137.96415,226.79869 126.31535,213.59792 125.78457,210.32933 C 133.42197,208.92575 139.58647,200.66551 133.08781,192.00658 C 152.51401,198.09168 147.00388,218.58599 137.92956,220.61257 z "
             style="opacity:1;color:black;fill:#2b5df2;fill-opacity:1;fill-rule:nonzero;stroke:black;stroke-width:5.47261715;stroke-linecap:round;stroke-linejoin:round;marker:none;marker-start:none;marker-mid:none;marker-end:none;stroke-miterlimit:4;stroke-dasharray:none;stroke-dashoffset:0;stroke-opacity:1;visibility:visible;display:inline;overflow:visible"
             id="path10083" />
          <path
             d="M 80.254389,254.23597 C 89.166116,255.98129 85.051138,232.60849 72.400748,234.60187 C 59.750358,236.59525 54.954069,246.44272 60.620288,266.75271 C 64.305986,255.43296 71.342662,252.49065 80.254389,254.23597 z "
             style="opacity:1;color:black;fill:#2b5df2;fill-opacity:1;fill-rule:nonzero;stroke:black;stroke-width:5.47261715;stroke-linecap:round;stroke-linejoin:round;marker:none;marker-start:none;marker-mid:none;marker-end:none;stroke-miterlimit:4;stroke-dasharray:none;stroke-dashoffset:0;stroke-opacity:1;visibility:visible;display:inline;overflow:visible"
             id="path10085" />
          <path
             d="M 106.76043,295.46758 C 106.30364,282.98072 91.676781,270.74767 90.807718,279.26945 C 86.697365,284.14478 83.400816,291.35816 71.173617,283.19627 C 71.377181,310.09722 100.28369,300.15422 106.76043,295.46758 z "
             style="opacity:1;color:black;fill:#2b5df2;fill-opacity:1;fill-rule:nonzero;stroke:black;stroke-width:5.47261715;stroke-linecap:round;stroke-linejoin:round;marker:none;marker-start:none;marker-mid:none;marker-end:none;stroke-miterlimit:4;stroke-dasharray:none;stroke-dashoffset:0;stroke-opacity:1;visibility:visible;display:inline;overflow:visible"
             id="path10087" />
        </g>
        <path
           d="M 211.69828,372.5309 L 220.29449,348.92653 L 214.95442,344.12391 C 204.05522,340.66285 191.98903,334.91288 179.0066,327.36583 C 170.82224,323.54358 176.91479,318.72874 180.83004,318.3737 C 181.93692,317.23546 181.27599,316.00231 180.30905,314.59291 C 177.65304,312.34284 176.10708,311.157 174.83873,310.81212 C 173.24883,310.41447 171.23829,308.99678 171.97332,313.26452 C 172.5405,316.28292 168.41867,322.77823 163.89809,316.02348 C 163.46513,313.70825 163.42915,311.19356 163.6376,309.38155 C 162.88842,308.26626 163.0862,306.40804 160.77219,306.52042 C 157.09069,307.55978 154.38197,308.1375 152.43647,308.35972 C 151.67616,311.06551 150.85961,313.46812 157.12532,314.08199 C 157.49877,316.00699 158.29504,318.21632 156.34384,318.57806 C 151.6252,318.2966 145.53295,315.37395 142.5378,321.4392 C 151.01595,322.37894 150.24773,326.98578 147.22664,328.59203 C 148.00812,330.56758 149.48424,331.04444 151.655,330.0226 C 158.25358,327.56595 158.52879,328.72848 159.99072,329.4095 C 161.06907,332.83653 160.42763,335.4283 154.25991,335.33614 C 152.79457,335.75955 152.19361,337.51283 153.0877,339.52566 C 160.16836,340.79218 160.24017,342.63813 160.90244,345.35011 C 164.30563,346.55672 164.47776,348.74488 164.67957,341.97806 C 165.5609,338.40316 170.46858,341.78614 168.45669,344.02173 C 172.29869,345.78243 174.61481,344.13982 170.28014,348.21125 C 171.5294,349.76628 183.24953,348.75798 174.18751,352.91168 C 178.22285,354.17262 187.7982,353.80365 179.0066,358.83832 C 181.00319,360.50968 195.37506,359.80775 183.43496,364.15186 C 202.02166,366.29886 195.17108,367.84112 191.77068,369.4654 L 204.01378,372.12216 L 211.69828,372.5309 z "
           style="color:black;fill:#fcef3c;fill-opacity:1;fill-rule:nonzero;stroke:black;stroke-width:2.5;stroke-linecap:round;stroke-linejoin:round;marker:none;marker-start:none;marker-mid:none;marker-end:none;stroke-miterlimit:4;stroke-dasharray:none;stroke-dashoffset:0;stroke-opacity:1;visibility:visible;display:inline;overflow:visible"
           id="path10089" />
        <g
           style="fill:#2b5df2;fill-opacity:1;stroke:black;stroke-width:5.47261715;stroke-linecap:round;stroke-linejoin:round;stroke-miterlimit:4;stroke-dasharray:none;stroke-opacity:1"
           id="g10091"
           transform="matrix(0.515747,0,0,0.404626,107.8924,225.6789)">
          <path
             d="M 80.499816,423.58009 C 66.431558,433.37573 64.511529,451.50329 82.217799,457.44891 C 78.561446,446.03171 81.786988,438.59877 90.562292,434.37884"
             style="opacity:1;color:black;fill:#2b5df2;fill-opacity:1;fill-rule:nonzero;stroke:black;stroke-width:5.47261715;stroke-linecap:round;stroke-linejoin:round;marker:none;marker-start:none;marker-mid:none;marker-end:none;stroke-miterlimit:4;stroke-dasharray:none;stroke-dashoffset:0;stroke-opacity:1;visibility:visible;display:inline;overflow:visible"
             id="path10093" />
          <path
             d="M 117.31376,444.19589 C 110.24259,464.15834 117.84067,474.87278 140.87468,475.85588 C 131.92917,467.98053 131.35558,459.26799 135.4753,450.08612"
             style="opacity:1;color:black;fill:#2b5df2;fill-opacity:1;fill-rule:nonzero;stroke:black;stroke-width:5.47261715;stroke-linecap:round;stroke-linejoin:round;marker:none;marker-start:none;marker-mid:none;marker-end:none;stroke-miterlimit:4;stroke-dasharray:none;stroke-dashoffset:0;stroke-opacity:1;visibility:visible;display:inline;overflow:visible"
             id="path10095" />
          <path
             d="M 178.4249,432.41543 C 184.20526,449.60071 175.9265,455.85113 164.19017,459.41232 C 169.21844,449.49829 167.97943,442.09117 163.20847,436.09683"
             style="opacity:1;color:black;fill:#2b5df2;fill-opacity:1;fill-rule:nonzero;stroke:black;stroke-width:5.47261715;stroke-linecap:round;stroke-linejoin:round;marker:none;marker-start:none;marker-mid:none;marker-end:none;stroke-miterlimit:4;stroke-dasharray:none;stroke-dashoffset:0;stroke-opacity:1;visibility:visible;display:inline;overflow:visible"
             id="path10097" />
          <path
             d="M 118.54089,370.56801 C 104.26003,355.29439 87.172907,357.53956 81.726947,374.98569 C 94.885891,371.02054 98.590566,374.0217 99.397638,379.15793"
             style="opacity:1;color:black;fill:#2b5df2;fill-opacity:1;fill-rule:nonzero;stroke:black;stroke-width:5.47261715;stroke-linecap:round;stroke-linejoin:round;marker:none;marker-start:none;marker-mid:none;marker-end:none;stroke-miterlimit:4;stroke-dasharray:none;stroke-dashoffset:0;stroke-opacity:1;visibility:visible;display:inline;overflow:visible"
             id="path10099" />
        </g>
        <g
           style="fill:#2b5df2;fill-opacity:1;stroke:black;stroke-width:5.47261715;stroke-linecap:round;stroke-linejoin:round;stroke-miterlimit:4;stroke-dasharray:none;stroke-opacity:1"
           id="g10101"
           transform="matrix(0.515747,0,0,0.404626,107.8924,225.6789)">
          <path
             d="M 578.7645,436.45957 C 567.56269,445.35775 559.90006,455.23903 573.38468,470.99455 C 574.2619,459.28224 580.0865,451.52785 590.21831,447.21921"
             style="opacity:1;color:black;fill:#2b5df2;fill-opacity:1;fill-rule:nonzero;stroke:black;stroke-width:5.47261715;stroke-linecap:round;stroke-linejoin:round;marker:none;marker-start:none;marker-mid:none;marker-end:none;stroke-miterlimit:4;stroke-dasharray:none;stroke-dashoffset:0;stroke-opacity:1;visibility:visible;display:inline;overflow:visible"
             id="path10103" />
          <path
             d="M 606.70485,457.28468 C 596.55267,467.0591 594.67682,476.31625 606.70485,484.70441 C 609.291,478.1687 608.12081,469.89929 621.9766,468.56495"
             style="opacity:1;color:black;fill:#2b5df2;fill-opacity:1;fill-rule:nonzero;stroke:black;stroke-width:5.47261715;stroke-linecap:round;stroke-linejoin:round;marker:none;marker-start:none;marker-mid:none;marker-end:none;stroke-miterlimit:4;stroke-dasharray:none;stroke-dashoffset:0;stroke-opacity:1;visibility:visible;display:inline;overflow:visible"
             id="path10105" />
          <path
             d="M 647.6609,463.8793 C 657.52782,467.94238 659.23269,476.49459 659.98242,485.57212 C 675.63872,477.8396 671.16224,465.75404 670.56852,454.508"
             style="opacity:1;color:black;fill:#2b5df2;fill-opacity:1;fill-rule:nonzero;stroke:black;stroke-width:5.47261715;stroke-linecap:round;stroke-linejoin:round;marker:none;marker-start:none;marker-mid:none;marker-end:none;stroke-miterlimit:4;stroke-dasharray:none;stroke-dashoffset:0;stroke-opacity:1;visibility:visible;display:inline;overflow:visible"
             id="path10107" />
          <path
             d="M 661.89139,421.70846 C 670.33707,419.30003 677.09206,420.73409 680.46045,429.86496 C 686.63568,413.37558 676.87484,407.62572 661.89139,405.39545"
             style="opacity:1;color:black;fill:#2b5df2;fill-opacity:1;fill-rule:nonzero;stroke:black;stroke-width:5.47261715;stroke-linecap:round;stroke-linejoin:round;marker:none;marker-start:none;marker-mid:none;marker-end:none;stroke-miterlimit:4;stroke-dasharray:none;stroke-dashoffset:0;stroke-opacity:1;visibility:visible;display:inline;overflow:visible"
             id="path10109" />
        </g>
        <path
           d="M 253.33909,386.43397 C 262.21289,379.93109 261.80249,385.12213 262.55537,387.88655 C 273.50874,373.26381 268.9119,378.37819 272.49033,380.51347 C 280.87538,367.96023 278.45315,375.37311 280.18767,375.10655 C 286.6687,363.9226 286.88348,367.74582 289.22757,366.46952 C 299.85858,356.63852 321.61182,353.90997 342.12445,350.38919 C 349.77747,352.02027 350.00726,355.65958 350.98535,359.09644 C 354.45273,360.76229 356.61707,363.96159 357.69815,368.43568 C 375.29509,382.39568 396.28453,379.20341 415.78625,383.53292 C 418.18167,386.15775 420.82135,388.65481 423.93112,390.906 C 423.46309,392.80047 424.02754,394.53294 424.73666,396.24271 C 420.37914,397.13485 417.53952,395.54606 410.59502,400.66655 L 405.94081,401.01765 C 402.91072,400.82756 402.97174,401.92134 403.97172,403.40512 C 405.56492,402.96456 408.3482,404.97484 411.84808,408.46094 C 423.1392,402.99378 423.69771,404.83703 425.09467,405.72237 C 420.16427,408.32551 417.6453,407.52298 419.18741,411.90172 C 423.76175,411.19059 425.56584,414.39157 427.8693,416.88731 C 430.05036,417.02072 432.36805,417.86872 433.86607,414.42963 C 435.08995,409.94694 440.01522,411.36704 440.84738,415.4127 C 450.45586,409.14587 451.63756,411.03283 454.452,411.33995 C 457.173,409.10134 455.81718,407.5024 453.82547,406.00325 C 439.75917,401.06285 449.65869,398.06722 452.21439,397.57688 C 449.03793,396.05024 449.06665,392.7131 451.85638,387.81633 C 449.79891,387.74564 448.36639,387.41093 443.35349,388.58875 C 436.08968,385.9994 442.21791,385.62197 443.08498,384.37556 C 430.92317,377.42202 442.58664,380.66408 442.54796,378.89842 C 428.9855,372.14047 440.76938,374.57112 440.84738,372.71908 C 438.73985,370.51065 429.90007,375.49595 433.95557,366.89084 C 428.54697,367.42735 422.13909,369.07663 423.84162,361.69458 C 418.43109,363.74027 404.66352,367.51837 388.04,351.79359 C 381.1482,344.42051 363.05794,331.84897 350.17981,332.20227 C 328.78303,334.19949 318.20318,331.62712 283.05179,339.43491 L 227.3803,341.04996 L 214.0442,341.96282 C 214.33312,361.38018 208.34597,371.10492 200.14296,375.80381 C 199.73799,376.03578 194.40913,377.94607 193.98964,378.14881 C 185.8138,382.10024 178.57565,386.03521 175.19945,385.2182 C 171.36145,384.79896 170.32916,383.38919 171.26127,381.2859 C 171.70793,379.43691 171.99299,377.61328 171.26127,375.94919 C 170.62673,375.15224 170.78907,373.88638 168.39715,374.12348 C 166.11066,377.71393 162.32626,378.719 157.65667,378.19622 C 156.49314,378.59687 155.75724,379.92553 156.76163,381.42634 C 163.72337,384.76765 162.28115,385.34486 162.8479,389.99315 C 158.911,390.84344 154.98396,391.69732 154.0765,393.64457 C 151.91232,393.4852 149.69434,393.26251 147.99023,393.64457 C 147.13855,395.1826 146.75478,396.64722 147.09519,397.99819 C 154.72552,400.3535 152.43662,401.41179 153.53948,402.91359 C 157.83596,402.16522 161.30782,399.47606 165.17501,397.71732 C 171.22917,395.93908 170.84098,399.71469 169.4712,401.64963 C 168.0988,401.84225 166.72641,403.33697 165.35401,404.59886 C 164.52554,406.09146 164.83595,406.69058 165.17501,407.26721 C 176.02326,406.46375 174.63075,408.59468 177.70557,409.65468 C 182.92857,410.49389 180.41438,408.0221 180.92771,406.84589 C 179.65139,403.10988 181.84649,402.91439 182.71779,401.36874 C 184.34494,400.30219 187.14837,398.82805 187.01398,402.91359 C 187.88607,406.41429 190.42212,405.81216 192.92125,405.30106 C 192.1369,401.17859 194.78492,400.53436 199.72355,402.21139 C 200.68851,401.81906 201.44097,401.14891 201.69264,399.82392 C 198.71472,394.65163 205.87771,393.54144 209.74801,396.03205 L 209.21099,401.08787 C 213.02179,396.12081 216.31707,393.90476 218.69841,393.3637 C 217.92125,396.35436 217.80647,398.75112 218.69841,400.24523 C 224.1409,392.67374 226.99094,392.22089 229.6179,392.38062 C 229.20565,395.08511 229.40721,396.5857 229.43889,398.41952 C 232.93795,396.24365 234.92125,393.89789 236.77822,391.53798 C 240.76898,389.35697 241.2254,391.84602 240.7164,395.61072 C 241.79103,395.78042 243.26808,394.70924 245.72862,392.52106 C 248.54972,387.83908 250.54305,387.71548 253.06795,388.44831 C 253.32302,385.57649 254.47418,381.3004 252.88894,380.02194 C 253.51759,379.40164 255.61376,380.39323 257.36415,381.00501 C 257.89969,378.36335 257.27821,374.63242 256.64811,370.89337 C 258.53313,370.91252 259.55656,371.6076 260.7653,372.15732 C 260.29352,368.6459 259.79076,365.22362 258.6172,363.73095"
           style="color:black;fill:#fcef3c;fill-opacity:1;fill-rule:nonzero;stroke:black;stroke-width:2.5;stroke-linecap:round;stroke-linejoin:round;marker:none;marker-start:none;marker-mid:none;marker-end:none;stroke-miterlimit:4;stroke-dasharray:none;stroke-dashoffset:0;stroke-opacity:1;visibility:visible;display:inline;overflow:visible"
           id="path10111" />
        <path
           id="path10113"
           style="color:black;fill:#fcef3c;fill-opacity:1;fill-rule:nonzero;stroke:black;stroke-width:2.5;stroke-linecap:round;stroke-linejoin:round;marker:none;marker-start:none;marker-mid:none;marker-end:none;stroke-miterlimit:4;stroke-dasharray:none;stroke-dashoffset:0;stroke-opacity:1;visibility:visible;display:inline;overflow:visible"
           d="M 213.83805,338.77775 C 211.73919,341.41261 208.85787,343.51034 204.85102,344.83541 C 211.91728,346.49703 214.37921,345.57845 218.39485,345.53055 C 218.76105,347.58419 217.23337,349.30764 215.48357,350.99236 C 219.45811,350.91027 222.15327,350.22594 224.97689,349.60209 C 225.92037,351.6213 224.69783,353.64052 224.09085,355.65974 C 227.06142,354.2639 228.83559,352.34887 230.41974,351.48889 C 230.35129,354.34954 232.76862,355.50377 234.47023,357.14932 C 235.31121,355.4852 236.17871,353.90433 237.25494,352.97848 C 239.37384,353.96911 241.04059,355.07799 242.44464,356.25557 C 243.36151,354.76345 244.32881,353.42954 245.4825,352.68056 C 249.93882,354.18975 250.54978,354.88026 252.3177,355.85835 C 252.69968,354.90305 252.48997,353.47084 253.07717,351.5882 C 256.02802,353.57896 260.10685,353.57858 263.96286,353.97154 C 262.88716,352.56454 261.88926,351.0965 261.05157,349.50278 C 264.90373,349.23863 267.60596,349.51579 270.29174,349.8007 C 268.90202,348.28191 267.22055,346.7377 263.7097,345.03402 C 266.47989,345.19383 268.74186,345.15428 271.05122,345.13332 C 268.57745,343.67324 266.07967,342.26966 263.83628,340.26734 C 265.50608,339.4321 267.92956,339.38525 270.29174,339.27428 C 267.55879,337.92223 265.63255,336.44359 264.08943,334.90483 L 268.2665,334.70622 C 266.77895,333.27299 265.11112,331.89633 262.44392,330.8333 L 263.07682,329.04579 C 260.48028,328.13593 259.79831,326.72538 258.52001,325.47078 C 258.38808,323.82594 258.68908,322.69056 259.02633,321.59786 C 262.02443,320.96983 259.70066,318.36405 258.39343,316.13604 C 259.64391,314.42383 260.87913,313.55995 261.49909,308.58175 C 275.40091,306.31425 266.96304,294.32334 257.25424,299.65129 C 255.39776,298.66878 253.54128,296.12129 251.68481,297.66517 L 251.1785,295.48045 C 250.02196,295.56026 248.22393,296.14333 246.11538,296.97003 C 245.32465,296.17559 245.19036,295.38114 245.10277,294.58669 C 242.54421,295.63024 241.32656,296.60589 239.65992,297.46656 L 237.25494,295.08323 C 236.71435,295.72369 236.1386,296.37597 233.96392,297.56587 C 232.23094,297.15054 230.49293,296.74423 227.12872,299.25407 C 218.03445,289.23949 202.59393,301.70746 217.50881,309.28395 C 217.09256,312.39553 216.48952,315.50711 216.74934,318.61869 C 215.09065,319.20004 214.86203,320.15538 214.59752,321.10133 C 215.73672,320.56654 216.87592,320.07519 218.01511,319.90966 C 217.42537,324.11566 215.71366,325.90102 214.21778,328.15204 L 218.52143,326.66245 C 219.60631,333.03753 212.79265,334.86832 207.00286,337.28817 C 208.99877,338.33874 211.36858,338.65598 213.83805,338.77775 z " />
        <g
           style="fill:black;fill-opacity:1;stroke:black;stroke-width:1.09452271;stroke-miterlimit:4;stroke-dasharray:none;stroke-opacity:1"
           id="g10115"
           transform="matrix(0.515747,0,0,0.404626,107.8924,225.6789)">
          <path
             d="M 230.42302,203.92378 C 226.07618,204.69161 223.06568,206.24777 220.81002,211.40545 C 220.13421,212.95072 226.16064,207.3174 226.85769,209.55963 C 227.13798,210.46125 226.85092,212.89272 228.01895,214.47785 C 229.34081,216.27174 230.59001,217.03125 233.28393,217.44929 C 239.11714,218.35447 242.37465,214.36537 243.17455,211.50306 C 244.16751,211.8825 245.26276,213.38932 245.68636,213.58651 C 245.8875,213.68014 245.08451,211.4288 246.28233,211.59582 C 249.29857,212.01639 250.26577,208.63371 250.64466,209.46243 C 251.62256,211.60139 256.52121,210.08411 257.38015,207.8481 C 257.68797,207.04678 256.42787,206.37206 255.04475,206.20594 C 254.30659,206.11728 254.7618,204.75123 254.45902,204.736 C 253.65092,204.69537 254.34517,207.24878 252.30703,206.28543 C 251.21048,205.76713 251.75505,203.30118 251.75799,203.15971 C 252.23868,202.46679 251.96958,200.61506 250.14046,200.21132 C 248.87086,199.93109 249.53513,198.10976 248.93207,198.62575 C 248.64991,198.86718 249.3159,204.65492 248.98966,204.96051 C 247.2651,206.5759 245.17502,208.95577 245.05901,208.67111 C 243.70882,205.35806 241.40596,204.7286 236.94436,203.8045 C 235.57821,203.52153 231.91483,203.79101 230.42302,203.92378 z "
             style="opacity:1;color:black;fill:black;fill-opacity:1;fill-rule:nonzero;stroke:black;stroke-width:1.09452271;stroke-linecap:round;stroke-linejoin:round;marker:none;stroke-miterlimit:4;stroke-dasharray:none;stroke-dashoffset:0;stroke-opacity:1;visibility:visible;display:inline;overflow:visible"
             id="path10117" />
          <path
             d="M 267.97324,202.57393 C 256.69396,210.57336 257.47127,198.1688 256.70361,199.80906 C 252.94766,207.83438 264.00024,209.02831 265.63504,209.43692 C 266.55105,209.66587 265.93505,211.29745 267.10308,212.88258 C 268.42494,214.67647 271.09215,215.02612 273.77926,215.48588 C 280.15242,216.57633 281.54368,211.45733 282.13597,208.43523 C 283.22232,208.49113 286.38303,209.98306 286.7339,210.33461 C 287.31924,210.9211 285.85498,206.99461 285.87224,206.16618 C 282.82274,203.69941 280.90126,203.6536 276.02849,202.20923 C 274.69087,201.81274 270.01726,201.76624 267.97324,202.57393 z "
             style="opacity:1;color:black;fill:black;fill-opacity:1;fill-rule:nonzero;stroke:black;stroke-width:1.09452271;stroke-linecap:round;stroke-linejoin:round;marker:none;stroke-miterlimit:4;stroke-dasharray:none;stroke-dashoffset:0;stroke-opacity:1;visibility:visible;display:inline;overflow:visible"
             id="path10119" />
        </g>
        <g
           style="fill:white;fill-opacity:1;stroke:black;stroke-width:1.09452271;stroke-miterlimit:4;stroke-dasharray:none;stroke-opacity:1"
           id="g10121"
           transform="matrix(0.515747,0,0,0.404626,107.8924,225.6789)">
          <path
             d="M 231.11911,207.60053 C 230.69386,207.81197 230.66898,209.59547 230.82774,210.04306 C 231.43173,211.83695 231.03718,211.13957 232.10061,212.01829 C 233.16404,212.89701 236.02268,212.80192 237.22827,212.62119 C 239.63946,212.25973 240.17241,211.39991 240.1875,208.65625 C 240.19828,208.11699 239.30477,208.72739 239.2099,208.19642 C 239.14288,207.82131 238.66703,206.99267 237.94698,207.32172 C 237.45641,207.5459 237.92424,209.37412 237.617,210.09756 C 237.00913,211.52885 235.85862,211.45041 235.16425,211.5545 C 234.81706,211.60655 233.46791,210.42913 232.9638,210.01258 C 231.4635,208.26854 232.51611,206.90591 231.11911,207.60053 z "
             style="opacity:1;color:black;fill:white;fill-opacity:1;fill-rule:nonzero;stroke:black;stroke-width:1.09452271;stroke-linecap:round;stroke-linejoin:round;marker:none;stroke-miterlimit:4;stroke-dasharray:none;stroke-dashoffset:0;stroke-opacity:1;visibility:visible;display:inline;overflow:visible"
             id="path10123" />
          <path
             d="M 270.01917,205.63712 C 269.62989,205.90916 269.75311,208.92055 269.91187,209.36814 C 270.51586,211.16203 270.00769,209.96623 270.87796,211.03659 C 271.46268,211.75574 273.95846,211.95243 276.00562,211.63949 C 277.23428,211.45167 278.33526,210.22887 278.96485,207.67455 C 278.97563,207.13529 278.08212,207.74569 277.98725,207.21472 C 277.92023,206.83961 277.44438,206.01097 276.72433,206.34002 C 276.23376,206.5642 276.64866,208.37216 276.39435,209.11586 C 275.96646,210.36717 275.27335,209.27912 274.43245,209.52974 C 274.09601,209.63001 273.10654,209.08667 272.47743,208.90817 C 269.59265,208.08965 271.9011,204.32198 270.01917,205.63712 z "
             style="opacity:1;color:black;fill:white;fill-opacity:1;fill-rule:nonzero;stroke:black;stroke-width:1.09452271;stroke-linecap:round;stroke-linejoin:round;marker:none;stroke-miterlimit:4;stroke-dasharray:none;stroke-dashoffset:0;stroke-opacity:1;visibility:visible;display:inline;overflow:visible"
             id="path10125" />
          <path
             d="M 234.67515,206.73291 C 234.62982,206.90778 234.66926,207.10867 234.8125,207.21875 C 235.63184,207.45611 235.90196,207.93001 236.09375,208.5625 C 236.09375,208.5625 236.72906,208.52245 236.72906,208.52245 C 237.54669,206.39836 235.99334,206.16199 234.67515,206.73291 z "
             style="opacity:1;color:black;fill:white;fill-opacity:1;fill-rule:nonzero;stroke:black;stroke-width:1.09452271;stroke-linecap:round;stroke-linejoin:round;marker:none;stroke-miterlimit:4;stroke-dasharray:none;stroke-dashoffset:0;stroke-opacity:1;visibility:visible;display:inline;overflow:visible"
             id="path10127" />
          <path
             d="M 273.63546,204.69378 C 273.59013,204.86865 273.62957,205.06954 273.77281,205.17962 C 274.59215,205.41698 274.86227,205.89088 275.05406,206.52337 C 275.05406,206.52337 275.68937,206.48332 275.68937,206.48332 C 276.507,204.35923 274.95365,204.12286 273.63546,204.69378 z "
             style="opacity:1;color:black;fill:white;fill-opacity:1;fill-rule:nonzero;stroke:black;stroke-width:1.09452271;stroke-linecap:round;stroke-linejoin:round;marker:none;stroke-miterlimit:4;stroke-dasharray:none;stroke-dashoffset:0;stroke-opacity:1;visibility:visible;display:inline;overflow:visible"
             id="path10129" />
        </g>
        <g
           style="fill:black;fill-opacity:1;stroke:black;stroke-width:1.09452271;stroke-miterlimit:4;stroke-dasharray:none;stroke-opacity:1"
           id="g10131"
           transform="matrix(0.515747,0,0,0.404626,107.8924,225.6789)">
          <path
             d="M 218.40625,179.0625 C 217.32154,179.01878 216.38932,179.21721 215.12729,179.41997 C 212.15739,179.89713 208.99252,180.50633 207.90168,188.32279 C 207.45295,189.02178 208.71246,191.63608 209.52057,191.44398 C 210.23063,191.27518 210.05502,190.47442 210.41473,189.73856 C 211.6257,187.26124 212.38591,185.80829 213.29502,184.70767 C 214.44458,183.31595 216.1598,182.54861 217.15168,182.41082 C 218.11499,182.277 218.97157,184.40696 217.69665,185.45465 C 216.36154,186.5518 215.22344,189.06243 214.83575,191.23209 C 215.2045,191.89656 214.70157,196.2613 215.07126,195.67302 C 218.45333,190.29122 220.94579,188.96401 222.59641,186.02173 C 223.75239,183.96116 223.20883,183.26248 222.59527,181.60785 C 222.24363,180.65955 219.49096,179.10622 218.40625,179.0625 z "
             style="opacity:1;color:black;fill:black;fill-opacity:1;fill-rule:nonzero;stroke:black;stroke-width:1.09452271;stroke-linecap:round;stroke-linejoin:round;marker:none;stroke-miterlimit:4;stroke-dasharray:none;stroke-dashoffset:0;stroke-opacity:1;visibility:visible;display:inline;overflow:visible"
             id="path10133" />
          <path
             d="M 298.58604,184.69664 C 301.05951,184.39774 304.46329,183.83573 306.11844,190.89977 C 303.96727,189.57744 304.16882,188.77094 300.66374,187.7755 C 298.69911,188.01761 296.10427,187.87741 295.95533,189.44283 C 295.86424,190.40019 296.10762,190.83698 296.30061,192.64329 C 295.93186,193.30776 296.83071,197.16325 296.43324,196.59337 C 293.12092,191.84423 292.03247,193.02704 291.73049,189.82584 C 291.21761,184.38892 295.5945,185.05815 298.58604,184.69664 z "
             style="opacity:1;color:black;fill:black;fill-opacity:1;fill-rule:nonzero;stroke:black;stroke-width:1.09452271;stroke-linecap:round;stroke-linejoin:round;marker:none;stroke-miterlimit:4;stroke-dasharray:none;stroke-dashoffset:0;stroke-opacity:1;visibility:visible;display:inline;overflow:visible"
             id="path10135" />
        </g>
        <path
           d="M 234.86284,317.1622 C 234.60553,317.18906 234.38254,317.31537 234.26906,317.49852 C 234.15558,317.68167 234.21147,318.52925 234.34349,318.70459 C 235.62098,320.00822 236.69865,320.3096 237.29652,321.04408 C 237.88529,321.7674 239.13607,323.45134 240.045,323.463 C 240.21375,323.46517 240.54348,324.3121 240.54856,324.1804 C 240.60433,322.73682 242.28179,321.30272 245.84937,319.26929 C 246.19511,319.07223 246.15349,317.77501 245.80634,317.57947 C 245.45919,317.38394 245.03508,317.48663 244.72649,317.71856 C 242.66458,319.26823 241.21674,320.37676 240.32653,320.62681 C 239.71139,320.79959 239.36732,320.36927 238.60544,319.87243 C 237.55324,319.18627 237.30152,318.90853 235.96583,317.68898 C 235.81327,317.46399 235.18456,317.12706 234.86284,317.1622 L 234.86284,317.1622 z "
           style="color:black;fill:black;fill-opacity:1;fill-rule:nonzero;stroke:black;stroke-width:0.5;stroke-linecap:round;stroke-linejoin:round;marker:none;stroke-miterlimit:4;stroke-dasharray:none;stroke-dashoffset:0;stroke-opacity:1;visibility:visible;display:inline;overflow:visible"
           id="path10137" />
        <path
           d="M 252.8387,320.94157 C 252.41751,320.96852 251.83328,321.32584 251.86105,321.65667 C 251.95289,323.06643 251.73468,323.94368 251.23779,324.39488 C 250.74091,324.84609 250.01366,325.05383 248.93305,325.06505 C 246.77183,325.08749 244.0847,324.00518 240.99249,323.28646 C 238.78369,322.64827 239.14187,322.9998 238.87819,323.74572 C 235.20579,326.06677 232.60583,325.86005 231.32568,325.44573 C 230.70176,325.2438 229.84121,324.82454 229.43669,324.34848 C 228.96902,323.79808 228.95461,322.94992 229.22186,322.01771 C 229.28107,321.79277 228.67018,321.35369 228.40657,321.45364 C 227.07502,321.9585 227.04344,322.2381 226.48243,322.93192 C 226.49689,324.47627 227.08175,324.82565 227.64066,325.20388 C 228.40581,325.7217 228.71883,326.30486 229.76091,326.67643 C 230.00177,326.7623 230.87057,326.13108 231.60482,326.94708 C 232.44761,327.88368 232.91802,329.40288 233.52165,330.23785 C 233.63257,330.39127 234.95096,330.70254 234.98773,330.76774 C 235.51172,331.69675 235.04893,338.90745 241.12846,338.66227 C 245.15526,338.70275 246.36088,335.55766 247.12185,329.69531 C 247.24821,328.72187 248.89432,331.19181 249.35194,330.14101 C 249.82645,329.05143 250.34268,325.22821 252.77236,325.36704 C 255.07103,325.49838 255.2923,321.50656 252.8387,320.94157 z "
           style="color:black;fill:black;fill-opacity:1;fill-rule:nonzero;stroke:black;stroke-width:0.5;stroke-linecap:round;stroke-linejoin:round;marker:none;stroke-miterlimit:4;stroke-dasharray:none;stroke-dashoffset:0;stroke-opacity:1;visibility:visible;display:inline;overflow:visible"
           id="path10139" />
        <g
           id="g10141"
           transform="matrix(0.515747,0,0,0.404626,107.8924,225.6789)"
           style="fill:#2b5df2;fill-opacity:1;stroke:black;stroke-width:1.09452271;stroke-miterlimit:4;stroke-dasharray:none;stroke-opacity:1">
          <path
             d="M 263.03697,247.25609 C 261.94316,247.33844 259.06735,244.87223 258.82356,245.9417 L 259.13111,257.52883 L 255.96494,257.66312 L 255.85213,246.82013 C 255.58462,245.46531 253.3491,248.6334 251.99428,248.90091 C 250.63946,249.16842 249.57395,250.79037 249.84146,252.14519 C 249.69618,255.74547 249.55391,260.78648 250.13645,264.10916 L 251.25268,267.48897 C 251.67736,268.7509 253.27688,275.88653 257.39552,275.98487 C 260.54762,276.06013 263.61773,273.58133 265.11213,267.31722 C 265.83244,264.29794 266.17799,257.80429 266.33689,255.38108 C 266.53025,254.60078 266.39796,249.35743 265.87785,248.74445 C 265.35774,248.13147 264.02242,247.62188 263.03697,247.25609 z "
             style="opacity:1;color:black;fill:#2b5df2;fill-opacity:1;fill-rule:nonzero;stroke:black;stroke-width:1.09452271;stroke-linecap:round;stroke-linejoin:round;marker:none;stroke-miterlimit:4;stroke-dasharray:none;stroke-dashoffset:0;stroke-opacity:1;visibility:visible;display:inline;overflow:visible"
             id="path10143" />
          <path
             d="M 243.71075,251.93293 C 244.55611,253.80763 244.9549,254.71456 246.61319,255.77869 C 247.18949,255.84821 246.52705,254.41323 246.8359,253.92172 C 247.14474,253.43022 246.16061,251.94565 245.84795,251.45656 L 245.72332,250.65168 C 244.4893,249.94447 243.91928,250.61491 243.71075,251.93293 z "
             style="opacity:1;color:black;fill:#2b5df2;fill-opacity:1;fill-rule:nonzero;stroke:black;stroke-width:1.09452271;stroke-linecap:round;stroke-linejoin:round;marker:none;stroke-miterlimit:4;stroke-dasharray:none;stroke-dashoffset:0;stroke-opacity:1;visibility:visible;display:inline;overflow:visible"
             id="path10145" />
          <path
             d="M 269.66425,248.53697 L 269.71875,249.96875 C 269.51066,250.48717 269.60785,251.07827 269.97099,251.50276 C 270.33412,251.92724 271.02576,252.5443 271.57014,252.419 L 272.9375,249.8125 C 273.11175,249.32772 273.02508,248.78744 272.70794,248.38149 C 272.39079,247.97555 271.76483,248.12886 271.25229,248.18064 C 270.48529,248.25988 270.09205,248.11147 269.66425,248.53697 z "
             style="opacity:1;color:black;fill:#2b5df2;fill-opacity:1;fill-rule:nonzero;stroke:black;stroke-width:1.09452271;stroke-linecap:round;stroke-linejoin:round;marker:none;stroke-miterlimit:4;stroke-dasharray:none;stroke-dashoffset:0;stroke-opacity:1;visibility:visible;display:inline;overflow:visible"
             id="path10147" />
        </g>
        <path
           style="fill:#fcef3c;fill-rule:evenodd;stroke:black;stroke-width:2.5;stroke-linecap:butt;stroke-linejoin:miter;stroke-miterlimit:4;stroke-dasharray:none;stroke-opacity:1"
           d="M 346.64728,352.33269 C 344.94808,351.27832 345.84516,351.66211 342.28258,350.7045 C 336.53583,352.09175 329.25302,354.20612 323.06422,356.98062 C 334.11564,354.83663 338.69026,353.02631 346.64728,352.33269 z "
           id="path10149"
           sodipodi:nodetypes="cccc" />
      </g>
    </g>
    <path
       style="fill:#2b5df2;fill-opacity:1;fill-rule:evenodd;stroke:black;stroke-width:3;stroke-linecap:butt;stroke-linejoin:miter;stroke-miterlimit:4;stroke-dasharray:none;stroke-opacity:0.99082571;display:inline"
       d="M 2.2936508,2.15625 L 1.1686508,49.09375 L 1.1686508,260.6875 C 1.1686508,263.32786 1.2117949,265.95172 1.2624008,268.5625 C 31.99576,269.06215 40.822137,292.40293 76.981151,290.625 C 114.18815,288.79554 114.44055,268.625 151.7624,268.625 C 189.08425,268.625 189.01045,290.625 226.2624,290.625 C 263.51435,290.625 263.51045,268.625 300.7624,268.625 C 338.01435,268.625 338.0417,290.625 375.29365,290.625 C 412.5456,290.625 412.5417,268.625 449.79365,268.625 C 487.0456,268.625 487.09851,292.6818 524.29365,290.625 C 559.02972,288.70418 568.62558,270.84776 598.0749,268.8125 C 598.12877,266.11952 598.16865,263.41197 598.16865,260.6875 C 598.16866,-24.764016 598.16865,2.15625 598.16865,2.15625 L 2.2936508,2.15625 z "
       id="path17136" />
  </g>
  <g
     inkscape:groupmode="layer"
     id="layer2"
     inkscape:label="Reflet final"
     style="display:inline"
     sodipodi:insensitive="true">
    <path
       sodipodi:nodetypes="cccccc"
       d="M 300.00001,658.5 C 300.00001,658.5 598.50001,546.17969 598.50001,260.72817 C 598.50001,-24.723334 598.50001,2.1764865 598.50001,2.1764865 L 1.5,2.1764865 L 1.5,260.72817 C 1.5,546.17969 300.00001,658.5 300.00001,658.5 z "
       style="opacity:1;fill:url(#radialGradient3163);fill-opacity:1;fill-rule:evenodd;stroke:none;stroke-width:1px;stroke-linecap:butt;stroke-linejoin:miter;stroke-opacity:1"
       id="path2875"
       inkscape:export-xdpi="144"
       inkscape:export-ydpi="144" />
  </g>
  <g
     inkscape:groupmode="layer"
     id="layer1"
     inkscape:label="Contour final"
     sodipodi:insensitive="true"
     style="display:inline">
    <path
       sodipodi:nodetypes="cccccc"
       d="M 299.99999,658.50028 C 299.99999,658.50028 1.5,546.17992 1.5,260.72828 C 1.5,-24.723336 1.5,2.1764957 1.5,2.1764957 L 598.49999,2.1764957 L 598.49999,260.72828 C 598.49999,546.17992 299.99999,658.50028 299.99999,658.50028 z "
       style="opacity:1;fill:none;fill-opacity:1;fill-rule:evenodd;stroke:black;stroke-width:3.00000048;stroke-linecap:butt;stroke-linejoin:miter;stroke-miterlimit:4;stroke-dasharray:none;stroke-opacity:1"
       id="path1411"
       inkscape:export-xdpi="144"
       inkscape:export-ydpi="144" />
  </g>
</svg>
