<?xml version="1.0" encoding="UTF-8" standalone="no"?>
<svg xmlns="http://www.w3.org/2000/svg" xmlns:xlink="http://www.w3.org/1999/xlink" width="450" height="500">
  <title>Coat of Arms of Corsica</title>
  <defs>
    <radialGradient id="GradientCoA" spreadMethod="pad" gradientUnits="userSpaceOnUse"
                    r="475" fy="380" fx="300" cy="320" cx="320"
                    gradientTransform="scale(0.4743415,0.5270465)">
      <stop offset="0.2" style="stop-color:#FFF" />
      <stop offset="1"   style="stop-color:#CCC" />
    </radialGradient>
  </defs>

  <path style="fill:url(#GradientCoA);stroke:none;"
     d="M 0,0 L 0,175 C 0,357 105,440 225,500 C 345,440 450,357 450,175 L 450,0 z" />
  <g transform="matrix(1.785103,0, 0,1.785103, -82.5458,-385.10395)">
    <path d="M 215.36820,385.60290 C 199.36140,393.00610 195.44930,402.75510 188.38060,410.53070 C 181.31190,418.30630 170.77270,435.03350 150.27360,429.37850 C 149.63060,425.18930 146.98280,413.63570 139.25320,408.41010 C 134.47690,405.50080 128.65020,401.34140 127.58990,394.27270 C 119.10750,396.39330 97.866360,398.08940 96.841050,386.85060 C 96.487610,382.96280 99.818180,377.00640 96.256130,372.90560 C 95.451580,372.93120 90.943680,373.02150 89.761890,372.47010 C 88.525310,371.00920 89.746060,365.69410 90.642360,364.51380 L 90.632770,364.46460 C 88.516780,364.27170 83.057130,359.28270 89.772350,355.74840 C 91.543270,353.66670 91.233130,351.96570 91.227310,350.04710 C 90.117740,350.06220 87.391010,350.03090 86.992130,350.00420 C 79.913860,349.97790 80.823060,345.41130 82.861790,340.55070 C 84.275520,337.36980 92.246400,322.17210 93.660130,320.05150 C 95.073870,317.93090 95.073870,316.87060 94.013600,314.75000 C 92.953260,312.62930 93.306690,309.09500 94.013600,306.62100 C 94.720440,304.14690 96.134190,300.25910 95.073870,299.19880 C 94.013600,298.13850 94.367000,294.60420 94.720440,293.89730 C 95.073870,293.19040 95.073870,291.42330 95.073870,290.71640 C 95.073870,290.00950 95.427300,288.24240 96.487610,287.53550 C 97.547910,286.82860 98.254780,284.35460 97.547910,283.64770 C 96.841050,282.94080 97.901340,277.99280 98.961640,277.63930 C 100.02200,277.28590 102.14260,276.57900 103.20290,274.10500 C 103.07760,270.61460 105.81920,266.65350 107.44410,264.91570 C 108.50440,263.85540 108.15100,260.32100 108.15100,260.32100 L 111.26070,260.39220 C 111.59950,260.27930 114.15930,256.78670 116.63340,256.07980 C 119.10740,255.37300 124.76240,252.54550 124.76240,252.54550 L 128.65020,248.30430 L 132.18450,250.07140 C 132.18450,250.07140 135.01200,249.01110 137.48600,248.65770 C 139.96010,248.30430 145.26160,246.53710 147.02880,243.70960 C 148.79590,240.88210 148.44250,247.07460 148.49900,247.41340 C 148.72480,247.46980 151.62340,245.83020 156.57150,246.18370 C 161.51960,246.53710 167.17450,248.65770 168.94170,247.95080 C 170.70890,247.24400 172.47600,249.36460 172.47600,249.36460 C 172.47600,249.36460 176.01040,251.48520 178.83790,251.48520 C 181.66530,251.48520 184.13940,251.48520 184.13940,251.48520 L 184.49280,253.95920 C 184.49280,253.95920 189.79430,255.78290 192.26840,256.84320 C 194.74240,257.90340 196.86300,259.26070 200.04390,259.61420 C 203.22480,259.96760 204.28510,261.02790 204.28510,261.02790 L 202.87140,263.85540 C 202.87140,263.85540 206.68810,264.63340 207.81950,268.45000 C 209.94010,271.27750 212.76760,275.87220 214.88820,276.22560 C 217.00880,276.57900 218.42250,277.63930 218.42250,277.63930 L 215.59510,281.17370 C 215.59510,281.17370 216.30190,282.23400 217.71570,283.64770 C 219.12940,285.06150 221.95690,287.53550 221.95690,287.53550 L 220.18970,290.71640 C 220.18970,290.71640 220.18970,291.42330 220.54310,293.19040 C 220.89660,294.95760 220.89660,298.13850 222.66370,298.84540 C 224.43090,299.55230 224.43090,301.67290 224.43090,301.67290 C 224.43090,301.67290 224.78440,302.02630 222.66370,302.73320 C 220.54310,303.44010 219.12940,303.44010 220.18970,304.85380 C 221.25000,306.26750 223.01720,308.74160 223.01720,308.74160 C 223.01720,308.74160 221.25000,309.80190 219.48280,310.15530 C 217.71570,310.50870 215.94850,310.50870 215.94850,310.50870 C 215.94850,310.50870 217.36220,317.22400 218.77600,318.28430 C 220.18970,319.34460 216.65530,320.05150 214.53470,318.99120 C 212.41410,317.93090 213.73920,322.17210 215.15300,322.52550 C 216.56680,322.87890 214.63990,323.37350 212.97880,323.39100 C 211.56510,323.03760 209.74540,323.28490 210.55830,325.37050 C 211.61870,328.19790 212.76760,329.59420 209.94010,331.00790 C 207.11260,332.42170 204.54990,338.78350 205.96370,340.90410 C 207.37750,343.02470 208.17290,346.20560 208.17290,346.20560 L 201.45770,346.55910 C 201.45770,346.55910 200.99810,347.61940 202.76530,349.38650 C 204.53240,351.15370 206.29960,353.16820 206.05230,353.66280 C 206.10570,354.42770 200.73340,354.11740 200.78680,354.88220 C 205.35730,377.47470 216.21290,383.81120 216.22780,385.00120 L 215.36820,385.60290 L 215.36820,385.60290 L 215.36820,385.60290 L 215.36820,385.60290 L 215.36820,385.60290 L 215.36820,385.60290 L 215.36820,385.60290 L 215.36820,385.60290 L 215.36820,385.60290 L 215.36820,385.60290 L 215.36820,385.60290 L 215.36820,385.60290 L 215.36820,385.60290 L 215.36820,385.60290 L 215.36820,385.60290 L 215.36820,385.60290 L 215.36820,385.60290 L 215.36820,385.60290 L 215.36820,385.60290 z "
          style="fill:black; fill-rule:evenodd;stroke:black" />
    <path d="M 102.75570,277.38290 C 100.40030,279.14950 98.339250,282.09380 100.40030,283.86040 C 103.05010,286.21580 104.22780,287.09910 104.22780,287.09910 C 104.22780,287.09910 99.516960,285.62690 98.633680,287.39350 C 97.750400,289.16010 96.719600,291.84700 98.633680,292.39880 C 100.10580,293.28210 103.34450,295.04870 103.34450,295.04870 C 103.34450,295.04870 95.983820,294.16540 97.750400,294.45980 C 96.867120,296.81520 95.983820,300.93720 100.69470,302.70380 C 105.40560,304.47040 120.12700,309.77010 122.77690,311.24230 C 125.42670,312.71440 131.31530,313.59770 134.25960,313.59770 C 137.20390,313.59770 148.09900,314.18650 146.33120,314.18650 L 139.85370,315.95310 C 138.74890,316.06360 153.25060,320.88380 155.38560,320.44300 C 156.52630,317.79250 171.35760,303.88150 179.60160,320.95840 C 180.48490,324.78600 177.54060,330.67460 174.59630,331.85230 C 171.65210,333.03000 170.17990,334.50210 169.00220,337.74090 C 167.82450,340.97960 164.80910,346.75700 161.56920,346.27990 C 157.11390,343.37210 155.16400,343.62940 157.22500,345.98490 C 159.50700,349.22420 164.84310,349.37170 167.53000,345.39600 C 169.77500,342.63570 171.79780,335.49650 176.36290,333.61890 C 178.71830,332.73560 181.66260,327.14140 181.66260,327.14140 C 181.66260,327.14140 185.78460,326.84700 187.55120,328.61360 C 189.31780,330.38010 193.73420,330.38010 196.38410,330.08570 C 199.03390,329.79130 203.48750,328.79810 202.01530,328.79810 C 200.54320,328.79810 206.10150,328.61420 207.86800,328.90860 C 209.63460,329.20300 209.04450,324.49160 206.10020,322.13610 C 203.15600,319.78070 194.91200,315.95310 193.14540,313.59770 C 191.37880,311.24230 178.71840,304.17600 175.18520,303.88150 C 171.65210,303.58710 167.23560,301.23170 167.23560,301.23170 C 167.23560,301.23170 173.86110,301.12180 170.62240,300.53290 C 167.38370,299.94410 161.05260,297.40410 157.81390,296.22640 C 154.57520,295.04870 151.92530,295.04870 148.39220,295.04870 C 144.85900,295.04870 121.40380,289.30400 115.55110,285.73260 C 111.13470,284.26050 136.50450,291.62600 139.44880,291.92050 C 144.45410,292.65660 146.03680,291.66280 137.79270,287.68790 C 134.25960,285.62690 118.52470,277.37540 105.93140,273.92790 C 104.64230,275.21700 105.11110,275.61640 102.75570,277.38290 L 102.75570,277.38290 L 102.75570,277.38290 L 102.75570,277.38290 z "
          style="fill:white;fill-rule:evenodd;stroke:black;stroke-width:0.125px" />
    <path d="M 167.04770,325.85380 C 167.16240,325.86710 167.63720,325.95100 167.94180,326.26980 C 168.27960,326.70560 168.56590,327.09670 168.73650,327.51760 C 168.86170,328.07910 169.02640,328.54300 168.93520,329.07740 C 168.74470,329.60090 168.48900,329.97310 168.14040,330.32520 C 167.74690,330.81100 167.46080,331.05710 167.04770,331.36510 C 166.58710,331.58320 166.14560,332.00790 165.75610,332.19690 C 165.56960,332.44960 165.09040,332.63600 164.86200,332.92480 C 164.59730,333.27980 164.39290,333.45620 164.36530,333.96470 C 164.19340,334.46970 164.13600,335.09180 164.06720,335.62850 C 163.96960,336.21870 163.83120,336.77260 163.76920,337.29230 C 163.52120,337.73740 163.25020,337.96580 162.67640,338.12420 C 162.20160,338.20840 161.71050,338.22820 161.18630,338.22820 C 160.88940,337.94420 160.38340,337.62340 160.09340,337.29230 C 160.09340,337.01500 160.09340,336.73770 160.09340,336.4603"
          style="fill:none;stroke:white;stroke-width:2.529824px;stroke-linecap:round" />
    <path d="M 158.76760,323.53360 C 161.30880,319.44560 177.21870,311.93260 173.35170,326.51670 C 172.46780,328.06350 174.12510,328.72640 174.56710,327.62160 C 178.65510,310.38590 161.08780,317.56740 158.32570,322.09730 C 157.22080,323.97560 158.76760,323.64410 158.76760,323.53360 L 158.76760,323.53360 L 158.76760,323.53360 z "
          style="fill:white;fill-rule:evenodd;stroke:white;stroke-width:1px" />
    <path d="M 101.42570,298.67440 C 107.39190,298.56390 113.68960,298.89530 118.55090,301.98890 C 123.41230,305.08250 127.72120,305.96640 132.91400,305.96640 C 138.10690,305.96640 140.75850,306.07690 140.75850,306.07690 L 140.75850,306.0769"
          style="fill:none;stroke:black;stroke-width:2px;stroke-linecap:round" />
    <path d="M 174.84980,307.63060 C 184.82010,311.48990 186.58710,312.62510 190.79680,315.34930 C 195.00650,318.07350 196.56290,318.52750 200.10790,320.79770 C 202.74480,322.38680 204.31760,324.20300 204.31760,324.20300 C 206.58780,326.01920 194.46730,317.16540 186.59260,318.98160 C 183.71230,318.98160 183.26910,318.98160 180.61040,316.03030 C 177.95170,313.07910 174.84980,310.58190 170.41850,308.76570 C 165.98730,306.94950 158.23260,303.99830 158.23260,303.9983"
          style="fill:none;stroke:black;stroke-width:1.9758151px" />
    <path d="M 185.92900,324.88410 C 186.53330,324.88410 189.04830,324.78870 190.01540,325.11110 C 190.85920,325.22510 192.20940,325.33470 192.96660,325.56520 C 194.25040,325.71800 195.43380,325.98520 196.82590,326.01920 C 198.32330,326.03270 198.85570,326.48990 200.23120,326.70020 C 200.66120,327.23770 201.47350,327.88340 202.04740,328.2894"
          style="fill:none;stroke:black;stroke-width:1.75px;stroke-linecap:round" />
    <path d="M 103.55630,316.51710 C 107.21710,321.56590 112.82750,324.33420 118.95970,325.64740 C 118.80480,327.13120 111.51730,327.22600 108.80130,330.6669"
          style="fill:none;stroke:white;stroke-width:2.25px" />
    <path d="M 240.49910,258.36740 C 240.61620,259.65650 241.02110,265.28550 240.46000,265.34890 C 237.28180,265.80290 235.08980,266.33510 232.36550,269.05930 C 229.64130,271.78350 223.40690,276.42190 219.87210,270.05520 C 218.05590,266.42290 222.47910,264.72390 224.74930,264.72390 C 226.98040,264.64580 230.48590,262.92250 234.11820,262.01430 C 237.75060,261.10630 239.22480,258.77270 239.67880,259.22680 L 240.49910,258.36740 L 240.49910,258.36740 z "
          style="fill:none;stroke:black;stroke-width:2px;stroke-linecap:butt;stroke-linejoin:miter" />
    <path d="M 254.81370,272.27400 C 255.31130,272.00030 257.66670,268.85290 256.44760,265.01690 C 254.68100,262.36710 264.44690,267.87000 262.38590,270.81430 C 259.77750,272.84620 254.61040,272.82140 254.81370,272.27400 L 254.81370,272.27400 z "
          style="fill:none;stroke:black;stroke-width:2px;stroke-linecap:butt;stroke-linejoin:miter" />
    <path d="M 231.55640,259.98360 C 231.51450,259.38310 231.44180,254.01110 231.53300,252.82500 C 233.35770,252.55130 238.76110,251.76760 239.93880,253.53420 C 244.12730,259.86260 231.92900,263.01540 231.63450,262.13210 L 231.55640,259.98360 L 231.55640,259.98360 z "
          style="fill:none;stroke:black;stroke-width:2px;stroke-linecap:butt;stroke-linejoin:miter" />
    <path d="M 221.70500,272.67210 L 229.36010,299.17070 C 229.36010,299.17070 233.68160,317.98070 220.52720,323.01940 C 216.40520,323.31390 214.93310,322.72500 214.93310,322.72500 L 216.11080,329.20240 C 221.94990,335.22390 225.71510,333.80140 230.72030,331.74040 C 235.72560,329.67940 235.92880,329.51760 238.57860,328.04540 C 241.22850,326.57330 244.88190,318.27510 245.28830,315.91570 C 246.42450,309.81550 250.26000,297.83230 261.77640,272.37760 C 259.69860,272.19520 246.15090,273.56370 245.23850,273.56370 C 244.78230,274.29350 242.65170,277.77430 239.37070,279.14950 C 235.76710,280.62160 230.57640,276.37800 235.83760,272.96650 C 238.40870,271.32780 246.94000,273.25900 246.78120,268.80300 C 246.56400,264.93130 240.84280,265.31140 238.48740,265.60580 C 236.13200,265.90020 232.89330,268.55010 231.42110,270.02220 C 228.12430,273.31910 223.47150,273.84980 221.70500,272.67210 L 221.70500,272.67210 L 221.70500,272.67210 L 221.70500,272.67210 L 221.70500,272.67210 z "
          style="fill:none;stroke:black;stroke-width:2px;stroke-linecap:butt;stroke-linejoin:miter" />
    <path d="M 209.92780,335.67990 C 211.69440,338.62410 213.46100,342.15730 214.34430,346.86820 C 215.22750,351.57900 217.77780,358.16840 224.35480,359.82300 C 229.65450,361.29520 234.36540,363.65060 235.54310,367.77260 C 236.72080,371.89460 237.56270,377.15290 237.56270,377.06170 L 245.75690,365.46690 C 245.66560,363.91600 245.60340,360.13820 245.60340,355.72180 C 245.51220,349.29810 240.75160,347.73070 236.04080,345.96410 C 231.32990,344.19760 226.05090,342.00390 224.57880,339.35400 C 223.10660,336.70420 219.34950,332.14670 217.28850,330.38010 C 215.22750,328.61360 209.92780,335.67990 209.92780,335.67990 L 209.92780,335.67990 L 209.92780,335.67990 L 209.92780,335.67990 z "
          style="fill:none;stroke:black;stroke-width:2px;stroke-linecap:butt;stroke-linejoin:miter" />
    <path d="M 218.58820,390.33640 C 223.13940,398.52010 224.18130,409.02820 226.05300,416.85750 C 229.30050,410.68920 234.35630,406.29190 239.68580,402.83020 C 239.99810,396.68850 241.55360,388.21010 243.32010,385.56020 C 251.85290,373.12520 245.84800,366.00590 245.84800,366.00590 C 237.32150,376.01950 237.02730,383.18370 218.60290,390.32150 L 218.58820,390.33640 L 218.58820,390.33640 L 218.58820,390.33640 z "
          style="fill:none;stroke:black;stroke-width:2px" />
    <path d="M 210.47890,415.63060 C 210.24450,417.66170 212.96240,424.72330 217.56280,425.03860 C 222.08220,425.34830 224.68950,421.87180 225.51580,417.80800 L 223.25130,404.16070 L 210.47890,415.63060 L 210.47890,415.63060 z "
          style="fill:none;stroke:black;stroke-width:2px" />
    <path d="M 210.44710,325.11110 C 209.53900,322.61390 210.90110,322.61380 213.39840,323.74890 C 217.48470,326.24620 214.53340,332.60270 209.99310,333.96480 C 207.49580,335.09990 206.13370,332.14870 209.76610,330.78660 C 213.17140,329.87850 210.44710,324.88410 210.44710,325.11110 L 210.67410,325.11110 L 210.44710,325.11110 L 210.44710,325.11110 z "
          style="fill:white;fill-rule:evenodd;stroke:black;stroke-width:1px" />
    <path d="M 239.95970,363.95930 C 239.95970,364.06200 239.95970,364.16470 239.95970,364.26740 C 239.95970,363.43610 239.94480,363.85870 240.18670,365.49890 C 240.18670,367.16490 240.31140,368.56410 240.41370,370.11760 C 240.41370,371.40440 240.26120,372.32610 240.18670,373.5047"
          style="fill:none;stroke:black;stroke-width:1.25px" />
    <path d="M 237.68950,365.49690 C 237.68950,365.68430 237.68950,365.87170 237.68950,366.05910 C 237.68950,365.01910 237.65970,365.31280 237.91650,366.90250 C 238.00790,368.48670 238.32550,369.31430 238.37050,370.83830 C 238.37050,372.38480 238.18590,373.58550 238.14350,375.0553"
          style="fill:none;stroke:black;stroke-width:1.25px" />
    <path d="M 236.55440,399.34650 C 236.63000,399.34650 236.70570,399.34650 236.78140,399.34650 C 236.72090,399.56000 236.78140,400.77690 236.78140,401.58990 C 236.78140,402.81350 236.75830,404.00820 236.55440,404.7949"
          style="fill:none;stroke:black;stroke-width:1.25px" />
    <path d="M 234.05710,400.48160 C 234.05710,400.63290 234.05710,400.78430 234.05710,400.93560 L 234.05710,400.48160 C 234.05710,400.63290 234.05710,400.78430 234.05710,400.93560 L 234.05710,400.48160 C 234.10620,402.15910 234.28420,403.08720 234.28420,404.79500 C 234.28420,405.31700 234.38240,405.71320 234.05710,405.9301"
          style="fill:none;stroke:black;stroke-width:1.25px" />
    <path d="M 231.78700,401.84370 C 231.87930,403.67190 232.18510,404.86850 232.24100,406.74730 C 232.24100,407.69090 232.05160,407.79610 232.01400,408.6543"
          style="fill:none;stroke:black;stroke-width:1.25px" />
    <path d="M 229.06270,403.22650 C 229.06270,403.32210 229.06270,403.41780 229.06270,403.51330 C 229.06270,402.73890 229.04790,403.13300 229.28970,404.66080 C 229.33110,406.07040 229.51680,406.83000 229.51680,408.39020 C 229.47440,409.88880 229.14300,410.51330 229.06270,411.8325"
          style="fill:none;stroke:black;stroke-width:1.25px" />
    <path d="M 227.01950,404.11390 C 227.01950,404.51950 227.14240,406.09340 227.24660,407.06510 C 227.24660,408.12460 227.24660,409.18400 227.24660,410.24340 C 227.12060,411.30130 226.88970,412.43830 226.56550,413.19470 C 226.56550,413.42170 226.56550,413.64870 226.56550,413.8757"
          style="fill:none;stroke:black;stroke-width:1.25px" />
    <path d="M 242.22980,364.45920 C 242.28750,364.88560 242.62390,366.51390 242.22980,367.56050 C 242.22980,368.48570 242.12420,368.96020 242.00280,369.6281"
          style="fill:none;stroke:black;stroke-width:1.25px" />
    <path d="M 216.01560,325.20410 C 219.06250,325.82910 226.48440,325.20410 229.45310,323.01660 C 232.42190,320.82910 232.42190,320.82910 232.42190,320.8291"
          style="fill:none;stroke:black" />
    <path d="M 216.02590,326.69810 C 218.93620,327.79540 226.36390,328.34770 229.64020,326.65530 C 232.91660,324.96290 232.91660,324.96290 232.91660,324.9629"
          style="fill:none;stroke:black" />
    <path d="M 215.78130,330.67300 C 217.34380,332.54800 218.43760,333.48550 218.90630,335.98550 C 219.37510,338.48550 219.37510,338.48550 219.37510,338.4855"
          style="fill:none;stroke:black;stroke-width:1px" />
    <path d="M 213.90630,331.61050 C 215.78130,334.26680 217.03130,335.20430 217.65630,337.86050 C 218.28130,340.51680 218.28130,340.51680 218.28130,340.5168"
          style="fill:none;stroke:black;stroke-width:1px" />
    <path d="M 212.34380,333.32930 C 213.12510,337.39180 216.25010,345.04800 218.59380,347.54800 C 220.93760,350.04800 220.93760,350.04800 220.93760,350.048"
          style="fill:none;stroke:black" />
    <path d="M 224.05980,419.62880 C 222.48310,419.42480 219.41610,416.87830 218.72780,415.96360 C 218.03950,415.04860 217.98900,414.66330 217.98900,414.6633"
          style="fill:none;stroke:black;stroke-width:1.195803px" />
    <path d="M 222.96960,421.69720 C 221.26490,421.28430 217.94620,418.49210 217.20100,417.54790 C 216.45550,416.60340 216.30510,416.35710 216.30510,416.3571"
          style="fill:none;stroke:black;stroke-width:1.195696px" />
    <path d="M 222.03400,423.60180 C 220.23390,423.40370 216.50990,420.58500 215.63870,419.56390 C 214.76740,418.54250 214.76740,418.54250 214.76740,418.5425"
          style="fill:none;stroke:black;stroke-width:1.3525521px" />
    <path d="M 244.39760,282.03830 C 244.16780,283.93420 244.05290,287.66850 244.74230,290.02400 C 245.43170,292.37950 245.43170,292.37950 245.43170,292.3795"
          style="fill:none;stroke:black;stroke-width:1px" />
    <path d="M 249.91290,276.06340 C 248.59160,276.52300 246.63820,277.55710 246.00630,278.41890 C 245.37430,279.28070 245.37430,279.28070 245.37430,279.2807"
          style="fill:none;stroke:black;stroke-width:1px" />
    <path d="M 233.96760,277.76430 C 236.81370,282.76660 235.93050,299.11120 235.34170,300.97250 C 234.75280,302.83380 234.75280,302.83380 234.75280,302.8338"
          style="fill:none;stroke:black;stroke-width:1.315111px" />
    <path d="M 224.68750,267.62610 C 223.51560,268.01670 221.09370,269.93080 220.89840,270.9854"
          style="fill:none;stroke:black;stroke-width:1px" />
    <path d="M 226.56250,268.99330 C 225.39060,269.38390 222.96870,271.29800 222.77340,272.3526"
          style="fill:none;stroke:black" />
    <path d="M 108.88313,321.53221 C 106.56243,321.40765 106.37413,328.13686 109.36473,327.98106"
          style="fill:none;stroke:white;stroke-width:1.45" />
    <path d="M 109.21203,321.66652 L 109.13233,327.30573 L 109.13233,327.30573"
          style="fill:none;stroke:white;stroke-width:3.5717881" />
    <path d="M 109.37003,321.53218 C 111.69073,321.40762 111.87903,328.13683 108.88843,327.98103"
          style="fill:none;stroke:white;stroke-width:1.45" />
  </g>
</svg>
