<?xml version="1.0" encoding="UTF-8" standalone="no"?>
<svg
   xmlns:dc="http://purl.org/dc/elements/1.1/"
   xmlns:cc="http://web.resource.org/cc/"
   xmlns:rdf="http://www.w3.org/1999/02/22-rdf-syntax-ns#"
   xmlns:svg="http://www.w3.org/2000/svg"
   xmlns="http://www.w3.org/2000/svg"
   xmlns:xlink="http://www.w3.org/1999/xlink"
   xmlns:sodipodi="http://sodipodi.sourceforge.net/DTD/sodipodi-0.dtd"
   xmlns:inkscape="http://www.inkscape.org/namespaces/inkscape"
   height="660"
   width="600"
   version="1.0"
   id="svg2"
   sodipodi:version="0.32"
   inkscape:version="0.45.1"
   sodipodi:docname="Blason_dpt_fr_Landes.svg"
   sodipodi:docbase="C:\Documents and Settings\Propriétaire\Mes documents"
   inkscape:export-filename="C:\Documents and Settings\Propriétaire\Bureau\40 - Landes.png"
   inkscape:export-xdpi="9.75"
   inkscape:export-ydpi="9.75"
   inkscape:output_extension="org.inkscape.output.svg.inkscape">
  <metadata
     id="metadata49">
    <rdf:RDF>
      <cc:Work
         rdf:about="">
        <dc:format>image/svg+xml</dc:format>
        <dc:type
           rdf:resource="http://purl.org/dc/dcmitype/StillImage" />
        <dc:title>Gabarit d'un blason en pointe pour le projet Blasons de Wikipédia</dc:title>
        <dc:date>03-AUG-2006</dc:date>
        <dc:creator>
          <cc:Agent>
            <dc:title>Jérôme BLUM (wagner51)</dc:title>
          </cc:Agent>
        </dc:creator>
        <cc:license
           rdf:resource="http://web.resource.org/cc/PublicDomain" />
        <dc:language>fr</dc:language>
        <dc:subject>
          <rdf:Bag>
            <rdf:li>gabarit modèle blason projet wikipédia</rdf:li>
          </rdf:Bag>
        </dc:subject>
      </cc:Work>
      <cc:License
         rdf:about="http://web.resource.org/cc/PublicDomain">
        <cc:permits
           rdf:resource="http://web.resource.org/cc/Reproduction" />
        <cc:permits
           rdf:resource="http://web.resource.org/cc/Distribution" />
        <cc:permits
           rdf:resource="http://web.resource.org/cc/DerivativeWorks" />
      </cc:License>
    </rdf:RDF>
  </metadata>
  <sodipodi:namedview
     inkscape:window-height="723"
     inkscape:window-width="1024"
     inkscape:pageshadow="2"
     inkscape:pageopacity="0.0"
     guidetolerance="10.0"
     gridtolerance="10.0"
     objecttolerance="10.0"
     borderopacity="1.0"
     bordercolor="#666666"
     pagecolor="#ffffff"
     id="base"
     showgrid="false"
     height="660px"
     inkscape:zoom="0.80151481"
     inkscape:cx="300"
     inkscape:cy="329.99986"
     inkscape:window-x="-4"
     inkscape:window-y="-4"
     inkscape:current-layer="layer4" />
  <desc
     id="desc4">Flag of Canton of Valais (Wallis)</desc>
  <defs
     id="defs6">
    <linearGradient
       id="linearGradient2893">
      <stop
         style="stop-color:white;stop-opacity:0.3137255;"
         offset="0"
         id="stop2895" />
      <stop
         id="stop2897"
         offset="0.19"
         style="stop-color:white;stop-opacity:0.25098041;" />
      <stop
         style="stop-color:#6b6b6b;stop-opacity:0.1254902;"
         offset="0.60000002"
         id="stop2901" />
      <stop
         style="stop-color:black;stop-opacity:0.1254902;"
         offset="1"
         id="stop2899" />
    </linearGradient>
    <radialGradient
       inkscape:collect="always"
       xlink:href="#linearGradient2893"
       id="radialGradient3163"
       gradientUnits="userSpaceOnUse"
       gradientTransform="matrix(1.353218,0,0,1.348928,-77.62935,-85.74693)"
       cx="221.44487"
       cy="226.33101"
       fx="221.44487"
       fy="226.33101"
       r="300" />
  </defs>
  <g
     inkscape:groupmode="layer"
     id="layer3"
     inkscape:label="Fond écu"
     style="display:inline">
    <path
       id="path2855"
       style="fill:#2b5df2;fill-opacity:1;fill-rule:evenodd;stroke:none;stroke-width:1px;stroke-linecap:butt;stroke-linejoin:miter;stroke-opacity:1"
       d="M 300,658.5 C 300,658.5 598.50001,546.17969 598.50001,260.72817 C 598.50001,-24.723354 598.50001,2.1764765 598.50001,2.1764765 L 1.5,2.1764765 L 1.5,260.72817 C 1.5,546.17969 300,658.5 300,658.5 z "
       sodipodi:nodetypes="cccccc" />
    <g
       id="g2352"
       transform="translate(-1.4325235e-5,-4.6722696e-3)">
      <g
         style="display:inline"
         inkscape:label="Fond écu"
         id="g2354">
        <path
           id="rect2792"
           d="M 300,2.1875 L 300,330 L 592.34375,330 C 596.31255,308.14422 598.5,285.0533 598.5,260.71875 C 598.50001,-24.732784 598.5,2.1875 598.5,2.1875 L 300,2.1875 z "
           style="opacity:1;color:#000000;fill:#e20909;fill-opacity:1;fill-rule:nonzero;stroke:#000000;stroke-width:3.00000024;stroke-linecap:butt;stroke-linejoin:miter;marker:none;marker-start:none;marker-mid:none;marker-end:none;stroke-miterlimit:4;stroke-dasharray:none;stroke-dashoffset:0;stroke-opacity:1;visibility:visible;display:inline;overflow:visible" />
        <path
           id="rect2798"
           d="M 7.3193856,330 C 49.905766,564.51904 299.66314,658.5 299.66314,658.5 L 299.66314,330 L 7.3193856,330 z "
           style="color:#000000;fill:#e20909;fill-opacity:1;fill-rule:nonzero;stroke:#000000;stroke-width:3.00000286;stroke-linecap:butt;stroke-linejoin:miter;marker:none;marker-start:none;marker-mid:none;marker-end:none;stroke-miterlimit:4;stroke-dasharray:none;stroke-dashoffset:0;stroke-opacity:1;visibility:visible;display:inline;overflow:visible" />
      </g>
      <g
         inkscape:label="Meubles"
         id="g2358" />
      <g
         inkscape:label="Reflet final"
         id="g2360" />
      <g
         inkscape:label="Contour final"
         id="g2362" />
    </g>
    <g
       id="g2385"
       inkscape:label="Calque 1"
       transform="matrix(0.6659266,0,0,0.6659266,-98.758374,-191.83906)">
      <g
         id="g2638"
         transform="matrix(0.7470143,0,0,0.7470143,148.07947,292.08412)">
        <path
           transform="matrix(0.3055425,0,0,0.3055829,3.4532614,7.453315)"
           d="M 431.93993,748.08914 C 427.43639,706.72334 427.09441,667.51965 414.12607,627.53746 C 403.05354,593.40021 399.39403,582.80114 379.11142,544.99826 C 372.69925,537.03923 360.77603,514.13616 351.40133,502.14449 C 336.21848,482.7233 331.27145,473.5097 314.97549,457.50439 C 301.62413,444.39118 287.09271,428.70571 264.85356,412.94115 C 235.35327,397.01706 211.23498,393.19355 187.09147,396.31252 C 139.10782,409.51577 92.671331,441.80974 75.452011,490.10577 C 67.386001,523.2846 72.365521,557.99033 84.445641,590.27014 C 114.6307,651.83129 142.90079,681.40183 183.71941,705.29062 C 207.41381,716.0367 240.46309,729.65213 266.78547,729.79637 C 254.89385,698.34392 247.91596,671.61805 242.74405,642.50654 C 241.73331,631.96234 245.81022,617.5068 253.80921,615.99463 C 266.0794,613.675 280.32468,623.03969 295.81347,637.42214 C 325.79027,664.13387 357.91679,691.66845 367.41413,731.82504 C 369.34194,737.11622 368.8027,743.2307 370.95532,748.43552"
           style="opacity:1;fill:#fcef3c;fill-opacity:1;fill-rule:evenodd;stroke:#000000;stroke-width:13.15753032;stroke-linecap:round;stroke-linejoin:round;stroke-miterlimit:4;stroke-dasharray:none;stroke-opacity:1;display:inline"
           id="path3753" />
        <path
           transform="matrix(0.3055425,0,0,0.3055829,3.4532614,7.453315)"
           d="M 482.21787,47.918548 C 449.12024,83.599498 422.87535,116.60226 401.47691,153.04584 C 376.85676,193.90153 361.73786,248.54614 355.91202,282.70526 C 351.40262,311.84151 344.74177,342.26985 355.32879,395.56036 C 366.60839,440.82079 380.59141,472.45598 393.38458,507.03028 C 408.16964,546.953 418.82094,575.61838 430.60198,609.53304 C 443.33392,649.18636 446.46494,674.91846 447.22405,686.70172 C 449.41915,711.14791 449.29496,730.94503 448.42696,748.08673 L 526.32468,748.08673 C 525.45668,730.94503 525.33247,711.14791 527.52759,686.70172 C 528.2867,674.91846 531.41769,649.18636 544.14966,609.53304 C 555.93069,575.61838 566.58199,546.953 581.36705,507.03028 C 594.16021,472.45598 608.14321,440.82079 619.42281,395.56036 C 630.00991,342.26985 623.34901,311.84151 618.83961,282.70526 C 613.01381,248.54614 597.89491,193.90153 573.27473,153.04584 C 551.9639,116.75146 525.84083,83.869188 492.93473,48.355968 L 487.52185,41.452538 L 482.21787,47.918548 z "
           style="opacity:1;fill:#fcef3c;fill-opacity:1;fill-rule:nonzero;stroke:#000000;stroke-width:13.15753032;stroke-linecap:round;stroke-linejoin:round;stroke-miterlimit:4;stroke-dasharray:none;stroke-opacity:1;display:inline"
           id="path3755" />
        <path
           transform="matrix(0.3055425,0,0,0.3055829,3.4532614,7.453315)"
           d="M 409.56923,802.94684 C 393.2835,848.59048 326.88094,932.18148 291.61087,956.00838 C 282.46328,962.18808 335.33725,952.44888 359.01044,947.25988 C 390.06047,940.45408 430.4182,907.36978 429.47197,919.04618 C 427.50839,943.27638 427.83564,942.87588 430.49262,963.73618 C 438.78694,1001.8595 441.25009,1012.7931 451.70763,1041.7433 C 456.64305,1055.4063 460.86357,1065.9688 463.6274,1071.8526 C 468.47657,1082.1757 474.05122,1094.1248 483.60305,1102.7274 L 487.31482,1106.6789 L 491.14859,1102.7274 C 500.50585,1094.0635 506.20979,1082.6475 511.12423,1071.8526 C 513.81767,1065.9363 518.1086,1055.4063 523.04401,1041.7433 C 533.50155,1012.7931 536.00114,1001.8595 544.29547,963.73618 C 546.95244,942.87588 547.24323,943.27638 545.27967,919.04618 C 544.33343,907.36978 584.69117,940.45408 615.74121,947.25988 C 639.41441,952.44888 692.28831,962.18808 683.14081,956.00838 C 647.87071,932.18148 581.50461,848.59048 565.21886,802.94684 L 409.56923,802.94684 z "
           style="opacity:1;fill:#fcef3c;fill-opacity:1;fill-rule:evenodd;stroke:#000000;stroke-width:13.15753032;stroke-linecap:round;stroke-linejoin:round;stroke-miterlimit:4;stroke-dasharray:none;stroke-opacity:1;display:inline"
           id="path3757" />
        <path
           transform="matrix(0.3055425,0,0,0.3055829,3.4532614,7.453315)"
           d="M 542.81485,748.08914 C 547.3184,706.72334 547.66038,667.51965 560.62872,627.53746 C 571.70124,593.40021 575.36076,582.80114 595.64341,544.99826 C 602.05551,537.03923 613.97881,514.13616 623.35341,502.14449 C 638.53631,482.7233 643.48331,473.5097 659.77931,457.50439 C 673.13071,444.39118 687.66211,428.70571 709.90121,412.94115 C 739.40151,397.01706 763.51981,393.19355 787.66331,396.31252 C 835.64701,409.51577 882.08351,441.80974 899.30281,490.10577 C 907.36881,523.2846 902.38931,557.99033 890.30911,590.27014 C 860.12411,651.83129 831.85401,681.40183 791.03541,705.29062 C 767.34101,716.0367 734.29171,729.65213 707.96931,729.79637 C 719.86091,698.34392 726.83881,671.61805 732.01071,642.50654 C 733.02151,631.96234 728.94461,617.5068 720.94561,615.99463 C 708.67541,613.675 694.43011,623.03969 678.94131,637.42214 C 648.96451,664.13387 616.83801,691.66845 607.34061,731.82504 C 605.41281,737.11622 605.95211,743.2307 603.79951,748.43552"
           style="opacity:1;fill:#fcef3c;fill-opacity:1;fill-rule:evenodd;stroke:#000000;stroke-width:13.15753032;stroke-linecap:round;stroke-linejoin:round;stroke-miterlimit:4;stroke-dasharray:none;stroke-opacity:1;display:inline"
           id="path3759" />
        <rect
           transform="matrix(0.3055425,0,0,0.3055829,3.4532614,7.453315)"
           width="370.80362"
           height="60.076641"
           x="302.26349"
           y="745.76459"
           style="opacity:1;fill:#fcef3c;fill-opacity:1;stroke:#000000;stroke-width:13.15753032;stroke-linecap:round;stroke-linejoin:round;stroke-miterlimit:4;stroke-dasharray:none;stroke-opacity:1;display:inline"
           id="rect3761" />
        <path
           d="M 438.23394,236.99823 C 436.85792,224.35754 436.75343,212.37756 432.79106,200.15968 C 429.40793,189.72792 428.2898,186.48902 422.09261,174.9371 C 420.13342,172.50496 416.49038,165.50617 413.62601,161.84172 C 408.98701,155.90694 407.47549,153.09142 402.49639,148.20047 C 398.41699,144.19329 393.97703,139.40008 387.18203,134.5827 C 378.16846,129.71657 370.79931,128.54817 363.42245,129.50127 C 348.76143,133.53596 334.57313,143.40445 329.31191,158.16289 C 326.8474,168.30178 328.36885,178.90726 332.05984,188.77142 C 341.28264,207.58346 349.92034,216.61972 362.39214,223.91973 C 369.63178,227.20354 379.72972,231.36419 387.77231,231.40827 C 384.13892,221.79693 382.00689,213.62996 380.42665,204.73398 C 380.11783,201.51185 381.36349,197.09448 383.80752,196.63239 C 387.55658,195.92355 391.90911,198.78524 396.64159,203.18027 C 405.80076,211.34292 415.61676,219.75702 418.5186,232.02819 C 419.10762,233.64509 418.94286,235.51357 419.60058,237.10407"
           style="opacity:1;fill:#fcef3c;fill-opacity:1;fill-rule:evenodd;stroke:#000000;stroke-width:4.02045048;stroke-linecap:round;stroke-linejoin:round;stroke-miterlimit:4;stroke-dasharray:none;stroke-opacity:1;display:inline"
           id="path1933" />
        <path
           d="M 453.59596,23.037997 C 443.48324,33.941489 435.46433,44.026572 428.92621,55.163111 C 421.40372,67.647915 416.78426,84.346382 415.00422,94.784822 C 413.62641,103.68837 411.59124,112.98675 414.82602,129.27142 C 418.27241,143.10224 422.54481,152.76942 426.45366,163.33474 C 430.97112,175.53444 434.22554,184.29409 437.82514,194.65784 C 441.71528,206.77522 442.67194,214.63851 442.90388,218.23927 C 443.57457,225.70961 443.53663,231.75928 443.27142,236.99749 L 467.07244,236.99749 C 466.80723,231.75928 466.76928,225.70961 467.43998,218.23927 C 467.67192,214.63851 468.62857,206.77522 472.51872,194.65784 C 476.11832,184.29409 479.37274,175.53444 483.8902,163.33474 C 487.79905,152.76942 492.07144,143.10224 495.51783,129.27142 C 498.75264,112.98675 496.71745,103.68837 495.33964,94.784822 C 493.55961,84.346382 488.94015,67.647915 481.41766,55.163111 C 474.9063,44.072165 466.92461,34.023902 456.87041,23.171665 L 455.21655,21.062095 L 453.59596,23.037997 z "
           style="opacity:1;fill:#fcef3c;fill-opacity:1;fill-rule:nonzero;stroke:#000000;stroke-width:4.02045048;stroke-linecap:round;stroke-linejoin:round;stroke-miterlimit:4;stroke-dasharray:none;stroke-opacity:1;display:inline"
           id="path1935" />
        <path
           d="M 431.39875,253.76181 C 426.42277,267.70973 406.134,293.25371 395.35752,300.53481 C 392.56254,302.42322 408.71776,299.44709 415.95092,297.86142 C 425.438,295.78168 437.76899,285.67168 437.47987,289.23979 C 436.87992,296.64413 436.9799,296.52174 437.79172,302.89629 C 440.32599,314.54613 441.07858,317.88726 444.2738,326.73394 C 445.78178,330.90912 447.07132,334.13685 447.91579,335.93483 C 449.39742,339.0894 451.10071,342.74084 454.01919,345.36965 L 455.15329,346.57716 L 456.32467,345.36965 C 459.18371,342.72211 460.9265,339.23357 462.42807,335.93483 C 463.25103,334.12691 464.56209,330.90912 466.07006,326.73394 C 469.26528,317.88726 470.02901,314.54613 472.56327,302.89629 C 473.37509,296.52174 473.46394,296.64413 472.86399,289.23979 C 472.57487,285.67168 484.90586,295.78168 494.39295,297.86142 C 501.62611,299.44709 517.7813,302.42322 514.98636,300.53481 C 504.20986,293.25371 483.93223,267.70973 478.95625,253.76181 L 431.39875,253.76181 z "
           style="opacity:1;fill:#fcef3c;fill-opacity:1;fill-rule:evenodd;stroke:#000000;stroke-width:4.02045048;stroke-linecap:round;stroke-linejoin:round;stroke-miterlimit:4;stroke-dasharray:none;stroke-opacity:1;display:inline"
           id="path1937" />
        <path
           d="M 472.11088,236.99823 C 473.48691,224.35754 473.5914,212.37756 477.55377,200.15968 C 480.93689,189.72792 482.05502,186.48902 488.25223,174.9371 C 490.21139,172.50496 493.85446,165.50617 496.7188,161.84172 C 501.35781,155.90694 502.86933,153.09142 507.84844,148.20047 C 511.92785,144.19329 516.3678,139.40008 523.16278,134.5827 C 532.17636,129.71657 539.54552,128.54817 546.92237,129.50127 C 561.58341,133.53596 575.77171,143.40445 581.03293,158.16289 C 583.49743,168.30178 581.97598,178.90726 578.28497,188.77142 C 569.06219,207.58346 560.42449,216.61972 547.95269,223.91973 C 540.71305,227.20354 530.61511,231.36419 522.57251,231.40827 C 526.20589,221.79693 528.33793,213.62996 529.91816,204.73398 C 530.22701,201.51185 528.98134,197.09448 526.53731,196.63239 C 522.78825,195.92355 518.43571,198.78524 513.70323,203.18027 C 504.54406,211.34292 494.72807,219.75702 491.82621,232.02819 C 491.23719,233.64509 491.40197,235.51357 490.74426,237.10407"
           style="opacity:1;fill:#fcef3c;fill-opacity:1;fill-rule:evenodd;stroke:#000000;stroke-width:4.02045048;stroke-linecap:round;stroke-linejoin:round;stroke-miterlimit:4;stroke-dasharray:none;stroke-opacity:1;display:inline"
           id="path1939" />
        <rect
           width="113.29608"
           height="18.3584"
           x="398.61234"
           y="236.28787"
           style="opacity:1;fill:#fcef3c;fill-opacity:1;stroke:#000000;stroke-width:4.02045048;stroke-linecap:round;stroke-linejoin:round;stroke-miterlimit:4;stroke-dasharray:none;stroke-opacity:1;display:inline"
           id="rect1941" />
        <path
           d="M 280.67425,513.60301 C 279.29823,500.96232 279.19374,488.98234 275.23137,476.76446 C 271.84824,466.3327 270.73011,463.0938 264.53292,451.54189 C 262.57373,449.10974 258.93069,442.11095 256.06633,438.4465 C 251.42733,432.51172 249.9158,429.6962 244.9367,424.80525 C 240.8573,420.79807 236.41734,416.00486 229.62235,411.18748 C 220.60877,406.32135 213.23962,405.15295 205.86276,406.10605 C 191.20174,410.14074 177.01344,420.00923 171.75222,434.76767 C 169.28771,444.90656 170.80917,455.51204 174.50015,465.3762 C 183.72295,484.18824 192.36065,493.2245 204.83246,500.52451 C 212.07209,503.80833 222.17003,507.96897 230.21263,508.01305 C 226.57924,498.40171 224.4472,490.23474 222.86696,481.33876 C 222.55814,478.11663 223.80381,473.69926 226.24783,473.23717 C 229.99689,472.52833 234.34942,475.39002 239.0819,479.78505 C 248.24107,487.9477 258.05707,496.3618 260.95891,508.63297 C 261.54794,510.24987 261.38317,512.11835 262.04089,513.70885"
           style="opacity:1;fill:#fcef3c;fill-opacity:1;fill-rule:evenodd;stroke:#000000;stroke-width:4.02045048;stroke-linecap:round;stroke-linejoin:round;stroke-miterlimit:4;stroke-dasharray:none;stroke-opacity:1;display:inline"
           id="path1943" />
        <path
           d="M 296.03627,299.64278 C 285.92356,310.54627 277.90464,320.63135 271.36652,331.76789 C 263.84403,344.25269 259.22457,360.95116 257.44453,371.3896 C 256.06672,380.29315 254.03155,389.59153 257.26633,405.8762 C 260.71272,419.70702 264.98512,429.3742 268.89397,439.93952 C 273.41143,452.13922 276.66585,460.89887 280.26545,471.26262 C 284.15559,483.38 285.11225,491.24329 285.34419,494.84406 C 286.01489,502.3144 285.97694,508.36406 285.71173,513.60227 L 309.51276,513.60227 C 309.24755,508.36406 309.20959,502.3144 309.8803,494.84406 C 310.11224,491.24329 311.06888,483.38 314.95904,471.26262 C 318.55864,460.89887 321.81305,452.13922 326.33051,439.93952 C 330.23936,429.3742 334.51175,419.70702 337.95814,405.8762 C 341.19295,389.59153 339.15776,380.29315 337.77995,371.3896 C 335.99993,360.95116 331.38047,344.25269 323.85797,331.76789 C 317.34661,320.67694 309.36492,310.62868 299.31072,299.77645 L 297.65686,297.66687 L 296.03627,299.64278 z "
           style="opacity:1;fill:#fcef3c;fill-opacity:1;fill-rule:nonzero;stroke:#000000;stroke-width:4.02045048;stroke-linecap:round;stroke-linejoin:round;stroke-miterlimit:4;stroke-dasharray:none;stroke-opacity:1;display:inline"
           id="path1945" />
        <path
           d="M 273.83906,530.36659 C 268.86309,544.31451 248.57432,569.8585 237.79783,577.13959 C 235.00286,579.028 251.15807,576.05187 258.39123,574.4662 C 267.87832,572.38646 280.2093,562.27646 279.92018,565.84457 C 279.32023,573.24891 279.42022,573.12652 280.23204,579.50108 C 282.7663,591.15092 283.5189,594.49204 286.71411,603.33873 C 288.22209,607.51391 289.51164,610.74163 290.3561,612.53962 C 291.83773,615.69418 293.54102,619.34562 296.4595,621.97443 L 297.5936,623.18194 L 298.76498,621.97443 C 301.62402,619.32689 303.36681,615.83835 304.86838,612.53962 C 305.69134,610.7317 307.0024,607.51391 308.51037,603.33873 C 311.70559,594.49204 312.46932,591.15092 315.00359,579.50108 C 315.8154,573.12652 315.90425,573.24891 315.3043,565.84457 C 315.01519,562.27646 327.34617,572.38646 336.83326,574.4662 C 344.06642,576.05187 360.22161,579.028 357.42667,577.13959 C 346.65017,569.8585 326.37254,544.31451 321.39656,530.36659 L 273.83906,530.36659 z "
           style="opacity:1;fill:#fcef3c;fill-opacity:1;fill-rule:evenodd;stroke:#000000;stroke-width:4.02045048;stroke-linecap:round;stroke-linejoin:round;stroke-miterlimit:4;stroke-dasharray:none;stroke-opacity:1;display:inline"
           id="path1947" />
        <path
           d="M 314.5512,513.60301 C 315.92722,500.96232 316.03171,488.98234 319.99408,476.76446 C 323.3772,466.3327 324.49534,463.0938 330.69254,451.54189 C 332.6517,449.10974 336.29477,442.11095 339.15911,438.4465 C 343.79812,432.51172 345.30964,429.6962 350.28875,424.80525 C 354.36816,420.79807 358.80812,416.00486 365.6031,411.18748 C 374.61668,406.32135 381.98583,405.15295 389.36268,406.10605 C 404.02372,410.14074 418.21202,420.00923 423.47324,434.76767 C 425.93774,444.90656 424.41629,455.51204 420.72529,465.3762 C 411.5025,484.18824 402.8648,493.2245 390.393,500.52451 C 383.15337,503.80833 373.05542,507.96897 365.01282,508.01305 C 368.6462,498.40171 370.77824,490.23474 372.35848,481.33876 C 372.66732,478.11663 371.42165,473.69926 368.97762,473.23717 C 365.22856,472.52833 360.87602,475.39002 356.14355,479.78505 C 346.98437,487.9477 337.16838,496.3618 334.26652,508.63297 C 333.6775,510.24987 333.84228,512.11835 333.18457,513.70885"
           style="opacity:1;fill:#fcef3c;fill-opacity:1;fill-rule:evenodd;stroke:#000000;stroke-width:4.02045048;stroke-linecap:round;stroke-linejoin:round;stroke-miterlimit:4;stroke-dasharray:none;stroke-opacity:1;display:inline"
           id="path1949" />
        <rect
           width="113.29608"
           height="18.3584"
           x="241.05266"
           y="512.89264"
           style="opacity:1;fill:#fcef3c;fill-opacity:1;stroke:#000000;stroke-width:4.02045048;stroke-linecap:round;stroke-linejoin:round;stroke-miterlimit:4;stroke-dasharray:none;stroke-opacity:1;display:inline"
           id="rect1951" />
      </g>
    </g>
    <path
       style="fill:#fcef3c;fill-opacity:1;fill-rule:evenodd;stroke:#000000;stroke-width:2;stroke-linecap:butt;stroke-linejoin:miter;stroke-opacity:1;display:inline;stroke-miterlimit:4;stroke-dasharray:none"
       d="M 517.625 461.53125 C 515.14969 468.46975 505.04833 481.19047 499.6875 484.8125 C 498.29712 485.75191 506.33932 484.25755 509.9375 483.46875 C 514.65691 482.43417 520.80007 477.41252 520.65625 479.1875 C 520.35777 482.87083 520.40865 482.79769 520.8125 485.96875 C 521.15936 487.56323 521.43106 488.82565 521.6875 489.9375 C 528.46051 480.86948 534.95744 471.40821 541.125 461.53125 L 517.625 461.53125 z "
       id="path2437" />
    <g
       style="display:inline"
       id="g2403"
       inkscape:label="Calque 1"
       transform="matrix(0.6659266,0,0,0.6659266,204.41741,140.79777)">
      <g
         id="g2405"
         transform="matrix(0.7470143,0,0,0.7470143,148.07947,292.08412)">
        <path
           transform="matrix(0.3055425,0,0,0.3055829,3.4532614,7.453315)"
           d="M 431.93993,748.08914 C 427.43639,706.72334 427.09441,667.51965 414.12607,627.53746 C 403.05354,593.40021 399.39403,582.80114 379.11142,544.99826 C 372.69925,537.03923 360.77603,514.13616 351.40133,502.14449 C 336.21848,482.7233 331.27145,473.5097 314.97549,457.50439 C 301.62413,444.39118 287.09271,428.70571 264.85356,412.94115 C 235.35327,397.01706 211.23498,393.19355 187.09147,396.31252 C 139.10782,409.51577 92.671331,441.80974 75.452011,490.10577 C 67.386001,523.2846 72.365521,557.99033 84.445641,590.27014 C 114.6307,651.83129 142.90079,681.40183 183.71941,705.29062 C 207.41381,716.0367 240.46309,729.65213 266.78547,729.79637 C 254.89385,698.34392 247.91596,671.61805 242.74405,642.50654 C 241.73331,631.96234 245.81022,617.5068 253.80921,615.99463 C 266.0794,613.675 280.32468,623.03969 295.81347,637.42214 C 325.79027,664.13387 357.91679,691.66845 367.41413,731.82504 C 369.34194,737.11622 368.8027,743.2307 370.95532,748.43552"
           style="opacity:1;fill:#fcef3c;fill-opacity:1;fill-rule:evenodd;stroke:#000000;stroke-width:13.15753032;stroke-linecap:round;stroke-linejoin:round;stroke-miterlimit:4;stroke-dasharray:none;stroke-opacity:1;display:inline"
           id="path2407" />
        <path
           transform="matrix(0.3055425,0,0,0.3055829,3.4532614,7.453315)"
           d="M 482.21787,47.918548 C 449.12024,83.599498 422.87535,116.60226 401.47691,153.04584 C 376.85676,193.90153 361.73786,248.54614 355.91202,282.70526 C 351.40262,311.84151 344.74177,342.26985 355.32879,395.56036 C 366.60839,440.82079 380.59141,472.45598 393.38458,507.03028 C 408.16964,546.953 418.82094,575.61838 430.60198,609.53304 C 443.33392,649.18636 446.46494,674.91846 447.22405,686.70172 C 449.41915,711.14791 449.29496,730.94503 448.42696,748.08673 L 526.32468,748.08673 C 525.45668,730.94503 525.33247,711.14791 527.52759,686.70172 C 528.2867,674.91846 531.41769,649.18636 544.14966,609.53304 C 555.93069,575.61838 566.58199,546.953 581.36705,507.03028 C 594.16021,472.45598 608.14321,440.82079 619.42281,395.56036 C 630.00991,342.26985 623.34901,311.84151 618.83961,282.70526 C 613.01381,248.54614 597.89491,193.90153 573.27473,153.04584 C 551.9639,116.75146 525.84083,83.869188 492.93473,48.355968 L 487.52185,41.452538 L 482.21787,47.918548 z "
           style="opacity:1;fill:#fcef3c;fill-opacity:1;fill-rule:nonzero;stroke:#000000;stroke-width:13.15753032;stroke-linecap:round;stroke-linejoin:round;stroke-miterlimit:4;stroke-dasharray:none;stroke-opacity:1;display:inline"
           id="path2409" />
        <path
           transform="matrix(0.3055425,0,0,0.3055829,3.4532614,7.453315)"
           d="M 409.56923,802.94684 C 393.2835,848.59048 326.88094,932.18148 291.61087,956.00838 C 282.46328,962.18808 335.33725,952.44888 359.01044,947.25988 C 390.06047,940.45408 430.4182,907.36978 429.47197,919.04618 C 427.50839,943.27638 427.83564,942.87588 430.49262,963.73618 C 438.78694,1001.8595 441.25009,1012.7931 451.70763,1041.7433 C 456.64305,1055.4063 460.86357,1065.9688 463.6274,1071.8526 C 468.47657,1082.1757 474.05122,1094.1248 483.60305,1102.7274 L 487.31482,1106.6789 L 491.14859,1102.7274 C 500.50585,1094.0635 506.20979,1082.6475 511.12423,1071.8526 C 513.81767,1065.9363 518.1086,1055.4063 523.04401,1041.7433 C 533.50155,1012.7931 536.00114,1001.8595 544.29547,963.73618 C 546.95244,942.87588 547.24323,943.27638 545.27967,919.04618 C 544.33343,907.36978 584.69117,940.45408 615.74121,947.25988 C 639.41441,952.44888 692.28831,962.18808 683.14081,956.00838 C 647.87071,932.18148 581.50461,848.59048 565.21886,802.94684 L 409.56923,802.94684 z "
           style="opacity:1;fill:#fcef3c;fill-opacity:1;fill-rule:evenodd;stroke:#000000;stroke-width:13.15753032;stroke-linecap:round;stroke-linejoin:round;stroke-miterlimit:4;stroke-dasharray:none;stroke-opacity:1;display:inline"
           id="path2411" />
        <path
           transform="matrix(0.3055425,0,0,0.3055829,3.4532614,7.453315)"
           d="M 542.81485,748.08914 C 547.3184,706.72334 547.66038,667.51965 560.62872,627.53746 C 571.70124,593.40021 575.36076,582.80114 595.64341,544.99826 C 602.05551,537.03923 613.97881,514.13616 623.35341,502.14449 C 638.53631,482.7233 643.48331,473.5097 659.77931,457.50439 C 673.13071,444.39118 687.66211,428.70571 709.90121,412.94115 C 739.40151,397.01706 763.51981,393.19355 787.66331,396.31252 C 835.64701,409.51577 882.08351,441.80974 899.30281,490.10577 C 907.36881,523.2846 902.38931,557.99033 890.30911,590.27014 C 860.12411,651.83129 831.85401,681.40183 791.03541,705.29062 C 767.34101,716.0367 734.29171,729.65213 707.96931,729.79637 C 719.86091,698.34392 726.83881,671.61805 732.01071,642.50654 C 733.02151,631.96234 728.94461,617.5068 720.94561,615.99463 C 708.67541,613.675 694.43011,623.03969 678.94131,637.42214 C 648.96451,664.13387 616.83801,691.66845 607.34061,731.82504 C 605.41281,737.11622 605.95211,743.2307 603.79951,748.43552"
           style="opacity:1;fill:#fcef3c;fill-opacity:1;fill-rule:evenodd;stroke:#000000;stroke-width:13.15753032;stroke-linecap:round;stroke-linejoin:round;stroke-miterlimit:4;stroke-dasharray:none;stroke-opacity:1;display:inline"
           id="path2413" />
        <rect
           transform="matrix(0.3055425,0,0,0.3055829,3.4532614,7.453315)"
           width="370.80362"
           height="60.076641"
           x="302.26349"
           y="745.76459"
           style="opacity:1;fill:#fcef3c;fill-opacity:1;stroke:#000000;stroke-width:13.15753032;stroke-linecap:round;stroke-linejoin:round;stroke-miterlimit:4;stroke-dasharray:none;stroke-opacity:1;display:inline"
           id="rect2415" />
        <path
           d="M 438.23394,236.99823 C 436.85792,224.35754 436.75343,212.37756 432.79106,200.15968 C 429.40793,189.72792 428.2898,186.48902 422.09261,174.9371 C 420.13342,172.50496 416.49038,165.50617 413.62601,161.84172 C 408.98701,155.90694 407.47549,153.09142 402.49639,148.20047 C 398.41699,144.19329 393.97703,139.40008 387.18203,134.5827 C 378.16846,129.71657 370.79931,128.54817 363.42245,129.50127 C 348.76143,133.53596 334.57313,143.40445 329.31191,158.16289 C 326.8474,168.30178 328.36885,178.90726 332.05984,188.77142 C 341.28264,207.58346 349.92034,216.61972 362.39214,223.91973 C 369.63178,227.20354 379.72972,231.36419 387.77231,231.40827 C 384.13892,221.79693 382.00689,213.62996 380.42665,204.73398 C 380.11783,201.51185 381.36349,197.09448 383.80752,196.63239 C 387.55658,195.92355 391.90911,198.78524 396.64159,203.18027 C 405.80076,211.34292 415.61676,219.75702 418.5186,232.02819 C 419.10762,233.64509 418.94286,235.51357 419.60058,237.10407"
           style="opacity:1;fill:#fcef3c;fill-opacity:1;fill-rule:evenodd;stroke:#000000;stroke-width:4.02045048;stroke-linecap:round;stroke-linejoin:round;stroke-miterlimit:4;stroke-dasharray:none;stroke-opacity:1;display:inline"
           id="path2417" />
        <path
           d="M 453.59596,23.037997 C 443.48324,33.941489 435.46433,44.026572 428.92621,55.163111 C 421.40372,67.647915 416.78426,84.346382 415.00422,94.784822 C 413.62641,103.68837 411.59124,112.98675 414.82602,129.27142 C 418.27241,143.10224 422.54481,152.76942 426.45366,163.33474 C 430.97112,175.53444 434.22554,184.29409 437.82514,194.65784 C 441.71528,206.77522 442.67194,214.63851 442.90388,218.23927 C 443.57457,225.70961 443.53663,231.75928 443.27142,236.99749 L 467.07244,236.99749 C 466.80723,231.75928 466.76928,225.70961 467.43998,218.23927 C 467.67192,214.63851 468.62857,206.77522 472.51872,194.65784 C 476.11832,184.29409 479.37274,175.53444 483.8902,163.33474 C 487.79905,152.76942 492.07144,143.10224 495.51783,129.27142 C 498.75264,112.98675 496.71745,103.68837 495.33964,94.784822 C 493.55961,84.346382 488.94015,67.647915 481.41766,55.163111 C 474.9063,44.072165 466.92461,34.023902 456.87041,23.171665 L 455.21655,21.062095 L 453.59596,23.037997 z "
           style="opacity:1;fill:#fcef3c;fill-opacity:1;fill-rule:nonzero;stroke:#000000;stroke-width:4.02045048;stroke-linecap:round;stroke-linejoin:round;stroke-miterlimit:4;stroke-dasharray:none;stroke-opacity:1;display:inline"
           id="path2419" />
        <path
           style="opacity:1;fill:#fcef3c;fill-opacity:1;fill-rule:evenodd;stroke:#000000;stroke-width:2.00000004;stroke-linecap:round;stroke-linejoin:round;stroke-miterlimit:4;stroke-dasharray:none;stroke-opacity:1;display:inline"
           d="M 572.34375 399.59375 C 569.55441 399.67067 566.64413 400.43448 563.28125 402.25 C 559.90104 404.64644 557.68556 407.03784 555.65625 409.03125 C 553.17936 411.46429 552.43273 412.86021 550.125 415.8125 C 548.70011 417.63541 546.88085 421.10263 545.90625 422.3125 C 542.82341 428.05908 542.27671 429.68566 540.59375 434.875 C 538.62264 440.95287 538.5595 446.8993 537.875 453.1875 L 546.15625 453.25 C 546.67769 452.36786 547.20293 451.48216 547.71875 450.59375 C 548.5063 447.38289 550.26869 444.72376 552.40625 442.3125 C 559.82629 428.78305 566.58808 414.5422 572.5 399.59375 C 572.44725 399.5947 572.39658 399.59229 572.34375 399.59375 z "
           transform="matrix(2.0102252,0,0,2.0102252,-609.15346,-674.03728)"
           id="path2423" />
        <path
           style="opacity:1;fill:#fcef3c;fill-opacity:1;stroke:#000000;stroke-width:2.00000004;stroke-linecap:round;stroke-linejoin:round;stroke-miterlimit:4;stroke-dasharray:none;stroke-opacity:1;display:inline"
           d="M 501.3125 452.84375 L 501.3125 461.96875 L 540.84375 461.96875 C 542.726 458.96312 544.58966 455.92544 546.40625 452.84375 L 501.3125 452.84375 z "
           transform="matrix(2.0102252,0,0,2.0102252,-609.15346,-674.03728)"
           id="rect2425" />
        <path
           style="opacity:1;fill:#fcef3c;fill-opacity:1;fill-rule:evenodd;stroke:#000000;stroke-width:2.00000004;stroke-linecap:round;stroke-linejoin:round;stroke-miterlimit:4;stroke-dasharray:none;stroke-opacity:1;display:inline"
           d="M 406.8125 537.1875 C 406.35231 537.21225 405.89621 537.25323 405.4375 537.3125 C 398.14428 539.31959 391.08598 544.25207 388.46875 551.59375 C 387.24276 556.63739 388.00765 561.90551 389.84375 566.8125 C 394.43169 576.1707 398.73331 580.64981 404.9375 584.28125 C 408.53889 585.91479 413.56165 588.00932 417.5625 588.03125 C 415.75505 583.25001 414.69235 579.17536 413.90625 574.75 C 413.75262 573.1471 414.34671 570.94862 415.5625 570.71875 C 417.4275 570.36612 419.61455 571.78241 421.96875 573.96875 C 424.85148 576.53785 427.84079 579.189 430.03125 582.3125 C 433.47143 579.63379 436.91459 576.86183 440.375 574.03125 C 440.23301 573.51339 440.10592 572.98805 439.9375 572.46875 C 438.25455 567.27943 437.70783 565.68407 434.625 559.9375 C 433.65037 558.72762 431.83115 555.22916 430.40625 553.40625 C 428.09856 550.45398 427.35189 549.05804 424.875 546.625 C 422.84568 544.63158 420.63021 542.24019 417.25 539.84375 C 413.32662 537.72567 410.03386 537.01422 406.8125 537.1875 z "
           transform="matrix(2.0102252,0,0,2.0102252,-609.15346,-674.03728)"
           id="path2427" />
        <path
           style="opacity:1;fill:#fcef3c;fill-opacity:1;fill-rule:nonzero;stroke:#000000;stroke-width:2.00000004;stroke-linecap:round;stroke-linejoin:round;stroke-miterlimit:4;stroke-dasharray:none;stroke-opacity:1;display:inline"
           d="M 451.09375 483.375 L 450.28125 484.375 C 445.25061 489.79903 441.28368 494.8038 438.03125 500.34375 C 434.28913 506.5544 431.97924 514.86983 431.09375 520.0625 C 430.40835 524.4916 429.39084 529.11783 431 537.21875 C 432.71444 544.09897 434.83677 548.90046 436.78125 554.15625 C 439.02851 560.22507 440.64685 564.59448 442.4375 569.75 C 442.672 570.48045 442.8689 571.17546 443.0625 571.84375 C 450.8686 565.37459 458.7031 558.50533 466.46875 551.25 C 468.08962 547.03628 469.76074 542.81912 471.15625 537.21875 C 472.76543 529.11781 471.7479 524.49163 471.0625 520.0625 C 470.17703 514.8698 467.86712 506.5544 464.125 500.34375 C 460.88588 494.82648 456.90778 489.83601 451.90625 484.4375 L 451.09375 483.375 z "
           transform="matrix(2.0102252,0,0,2.0102252,-609.15346,-674.03728)"
           id="path2429" />
      </g>
    </g>
    <g
       id="g2412"
       transform="matrix(0.4524219,0,0,0.4524219,307.51126,77.598607)">
      <path
         sodipodi:nodetypes="csccccsccccsscscsccscscc"
         id="path2307"
         style="fill:#fcef3c;fill-opacity:1;fill-rule:evenodd;stroke:#000000;stroke-width:2.5;stroke-linecap:butt;stroke-linejoin:miter;stroke-miterlimit:4;stroke-dasharray:none;stroke-opacity:1;display:inline"
         d="M 467.94482,188.60315 C 467.53552,186.0518 595.4346,222.74006 609.03225,149.41284 C 617.87554,101.72411 563.08825,76.732903 544.42728,71.82317 C 520.91053,68.352993 489.63939,78.309452 489.63939,78.309452 C 474.0402,78.828357 464.49843,67.266686 455.39462,54.831553 C 458.14683,65.581026 456.30237,75.888677 469.3181,87.624637 C 469.3181,87.624637 458.40349,88.079174 447.58752,83.911374 C 436.77155,79.743573 431.45157,66.944112 431.45157,66.944112 C 435.62059,81.580701 440.55197,94.139291 448.92635,97.313292 C 422.90145,96.71511 402.94202,80.694343 384.79143,60.074237 C 392.66773,79.466733 402.55754,97.130044 420.19893,108.13642 C 373.31572,109.08423 358.64924,69.766191 331.18356,24.434623 C 314.99493,-2.2844032 292.4277,-3.7724282 283.01547,9.1585928 C 269.39029,27.877598 276.32474,50.038423 281.78262,66.937686 C 281.78262,66.937686 263.70261,78.726949 276.5967,90.324144 C 291.55059,103.77398 298.56511,113.59776 318.80368,112.5971 C 315.15096,114.39329 303.43665,88.263959 306.64173,70.467741 C 309.22199,56.140963 290.23809,63.1186 290.23809,63.1186 C 280.4909,32.176023 288.9123,-9.9992572 320.69174,32.897193 C 355.43397,84.418312 359.26096,125.47709 431.11356,117.93064 C 471.92282,113.64457 508.94132,77.238385 534.07295,82.632129 C 551.30378,80.85512 614.4687,115.24348 597.50032,149.22131 C 558.05518,228.20706 423.31439,144.62579 421.72724,160.20655 L 467.94482,188.60315 z " />
      <g
         transform="translate(-57.014176,-105.42532)"
         style="fill:#fcef3c;fill-opacity:1;stroke:#000000;stroke-width:2.5;stroke-linecap:round;stroke-linejoin:round;stroke-miterlimit:4;stroke-dasharray:none;stroke-opacity:1"
         id="g2415">
        <g
           style="fill:#fcef3c;fill-opacity:1;stroke:#000000;stroke-width:2.5;stroke-linecap:round;stroke-linejoin:round;stroke-miterlimit:4;stroke-dasharray:none;stroke-opacity:1"
           id="g2417">
          <g
             style="fill:#fcef3c;fill-opacity:1;stroke:#000000;stroke-width:2.5;stroke-linecap:round;stroke-linejoin:round;stroke-miterlimit:4;stroke-dasharray:none;stroke-opacity:1"
             id="g2419">
            <path
               d="M 370.34823,418.67157 C 369.59061,418.2634 381.14253,411.22848 378.93815,408.11824 C 366.77198,397.72823 355.26008,391.91814 348.25987,417.68986 C 358.24624,408.39728 364.16766,414.00953 370.34823,418.67157 z "
               style="opacity:1;color:#000000;fill:#2b5df2;fill-opacity:1;fill-rule:nonzero;stroke:#000000;stroke-width:2.5;stroke-linecap:round;stroke-linejoin:round;marker:none;marker-start:none;marker-mid:none;marker-end:none;stroke-miterlimit:4;stroke-dasharray:none;stroke-dashoffset:0;stroke-opacity:1;visibility:visible;display:inline;overflow:visible"
               id="path2421" />
            <path
               d="M 363.96715,461.86659 C 365.59487,463.77168 361.50088,436.46906 353.1684,444.68675 C 337.81791,454.14291 338.34688,464.35524 350.46871,475.11961 C 352.82305,459.11816 358.42472,460.65234 363.96715,461.86659 z "
               style="opacity:1;color:#000000;fill:#2b5df2;fill-opacity:1;fill-rule:nonzero;stroke:#000000;stroke-width:2.5;stroke-linecap:round;stroke-linejoin:round;marker:none;marker-start:none;marker-mid:none;marker-end:none;stroke-miterlimit:4;stroke-dasharray:none;stroke-dashoffset:0;stroke-opacity:1;visibility:visible;display:inline;overflow:visible"
               id="path2424" />
            <path
               d="M 410.10729,474.87418 C 411.32197,472.07178 405.75519,469.78856 400.33657,469.50094 C 394.91796,469.21332 389.64752,470.9213 391.45489,476.10131 C 395.33051,486.87571 399.87551,491.41242 402.7443,493.86261 C 404.94246,492.26872 409.17652,485.49087 410.10729,474.87418 z "
               style="opacity:1;color:#000000;fill:#2b5df2;fill-opacity:1;fill-rule:nonzero;stroke:#000000;stroke-width:2.5;stroke-linecap:round;stroke-linejoin:round;marker:none;marker-start:none;marker-mid:none;marker-end:none;stroke-miterlimit:4;stroke-dasharray:none;stroke-dashoffset:0;stroke-opacity:1;visibility:visible;display:inline;overflow:visible"
               id="path2426" />
            <path
               d="M 439.31302,460.1486 C 439.9629,453.1393 419.27399,459.89988 423.60573,462.35744 C 427.93747,464.815 430.93148,468.34274 425.56914,478.55557 C 442.86792,475.24602 438.66314,467.1579 439.31302,460.1486 z "
               style="opacity:1;color:#000000;fill:#2b5df2;fill-opacity:1;fill-rule:nonzero;stroke:#000000;stroke-width:2.5;stroke-linecap:round;stroke-linejoin:round;marker:none;marker-start:none;marker-mid:none;marker-end:none;stroke-miterlimit:4;stroke-dasharray:none;stroke-dashoffset:0;stroke-opacity:1;visibility:visible;display:inline;overflow:visible"
               id="path2428" />
          </g>
          <path
             sodipodi:nodetypes="ccccscccccccccccccccccccccscccccccc"
             d="M 492.85714,341.6479 L 460.71429,298.79075 L 454.28572,309.1479 C 435.87268,325.06367 415.41129,332.13125 394.90612,360.32392 C 386.06961,366.7366 383.18522,363.00011 376.30563,367.20992 C 367.39047,372.66535 368.81381,380.5261 368.71369,390.21801 C 373.28573,374.04248 389.35929,368.63445 404.84079,370.27465 C 406.79744,376.66269 410.79285,384.00587 417.50001,392.54075 C 422.26166,398.58979 427.94408,408.94912 404.64286,423.79075 C 402.03815,424.57549 397.48481,426.04689 391.07143,424.50504 C 389.07128,419.49543 388.92313,415.59702 389.28571,412.00504 C 386.23306,395.07185 360.28411,409.33806 369.28571,424.50504 C 380.70401,434.28885 377.22992,437.08235 365.35714,435.93361 C 359.35626,437.01561 353.32749,438.1311 345,442.00504 C 344.89665,444.01315 344.88037,445.93419 345.71429,447.00504 C 358.68917,445.48151 360.09367,460.75588 360,464.1479 C 361.74289,464.54786 363.40726,465.02635 366.07143,464.50504 C 379.30279,455.51486 380.64491,455.99569 384.13731,456.2807 C 389.37285,458.18199 381.80774,476.26439 392.14286,482.00504 C 398.66177,468.44913 409.68652,476.36143 411.26508,481.59761 C 413.91596,477.7344 413.75834,471.4639 413.21429,464.86218 C 415.1274,450.20397 421.79278,458.32779 424.64286,464.50504 C 431.35308,455.70293 434.92867,458.91633 439.40897,465.57647 C 442.60237,466.03178 442.94341,465.5437 444.28571,464.1479 L 446.07143,453.79075 C 446.64678,439.89275 456.45739,439.87401 458.59155,452.16853 C 460.29886,450.3222 462.51981,449.27464 462.5462,447.36142 C 462.80481,428.61052 463.94144,432.99921 472.3164,445.17909 C 476.36401,406.87162 479.58873,432.74995 483.21429,427.36218 C 487.19063,417.7949 472.97014,404.54718 495,407.00504 C 491.46171,401.67842 482.68931,400.93166 485.71429,389.86218 C 486.84876,382.78834 480.28715,379.74578 471.78572,377.71932 C 454.07765,371.41391 464.45217,365.75522 468.57143,361.29075 L 483.93863,351.31087 L 492.85714,341.6479 z "
             style="opacity:1;color:#000000;fill:#fcef3c;fill-opacity:1;fill-rule:nonzero;stroke:#000000;stroke-width:2.5;stroke-linecap:round;stroke-linejoin:round;marker:none;marker-start:none;marker-mid:none;marker-end:none;stroke-miterlimit:4;stroke-dasharray:none;stroke-dashoffset:0;stroke-opacity:1;visibility:visible;display:inline;overflow:visible"
             id="path2430" />
        </g>
      </g>
      <g
         transform="translate(-57.014176,-105.42532)"
         style="fill:#fcef3c;fill-opacity:1;stroke:#000000;stroke-width:2.5;stroke-linecap:round;stroke-linejoin:round;stroke-miterlimit:4;stroke-dasharray:none;stroke-opacity:1"
         id="g2432">
        <g
           style="fill:#fcef3c;fill-opacity:1;stroke:#000000;stroke-width:2.5;stroke-linecap:round;stroke-linejoin:round;stroke-miterlimit:4;stroke-dasharray:none;stroke-opacity:1"
           id="g2434">
          <path
             d="M 101.78001,203.34341 C 102.80795,206.16368 99.974163,206.67653 90.562292,208.58668 C 85.860501,202.6467 83.903404,194.62879 72.616399,192.8794 C 87.844706,182.06541 100.86232,186.07278 101.78001,203.34341 z "
             style="opacity:1;color:#000000;fill:#2b5df2;fill-opacity:1;fill-rule:nonzero;stroke:#000000;stroke-width:2.5;stroke-linecap:round;stroke-linejoin:round;marker:none;marker-start:none;marker-mid:none;marker-end:none;stroke-miterlimit:4;stroke-dasharray:none;stroke-dashoffset:0;stroke-opacity:1;visibility:visible;display:inline;overflow:visible"
             id="path2436" />
          <path
             d="M 137.92956,220.61257 C 137.96415,226.79869 126.31535,213.59792 125.78457,210.32933 C 133.42197,208.92575 139.58647,200.66551 133.08781,192.00658 C 152.51401,198.09168 147.00388,218.58599 137.92956,220.61257 z "
             style="opacity:1;color:#000000;fill:#2b5df2;fill-opacity:1;fill-rule:nonzero;stroke:#000000;stroke-width:2.5;stroke-linecap:round;stroke-linejoin:round;marker:none;marker-start:none;marker-mid:none;marker-end:none;stroke-miterlimit:4;stroke-dasharray:none;stroke-dashoffset:0;stroke-opacity:1;visibility:visible;display:inline;overflow:visible"
             id="path2438" />
          <path
             d="M 80.254389,254.23597 C 89.166116,255.98129 85.051138,232.60849 72.400748,234.60187 C 59.750358,236.59525 54.954069,246.44272 60.620288,266.75271 C 64.305986,255.43296 71.342662,252.49065 80.254389,254.23597 z "
             style="opacity:1;color:#000000;fill:#2b5df2;fill-opacity:1;fill-rule:nonzero;stroke:#000000;stroke-width:2.5;stroke-linecap:round;stroke-linejoin:round;marker:none;marker-start:none;marker-mid:none;marker-end:none;stroke-miterlimit:4;stroke-dasharray:none;stroke-dashoffset:0;stroke-opacity:1;visibility:visible;display:inline;overflow:visible"
             id="path2440" />
          <path
             d="M 106.76043,295.46758 C 106.30364,282.98072 91.676781,270.74767 90.807718,279.26945 C 86.697365,284.14478 83.400816,291.35816 71.173617,283.19627 C 71.377181,310.09722 100.28369,300.15422 106.76043,295.46758 z "
             style="opacity:1;color:#000000;fill:#2b5df2;fill-opacity:1;fill-rule:nonzero;stroke:#000000;stroke-width:2.5;stroke-linecap:round;stroke-linejoin:round;marker:none;marker-start:none;marker-mid:none;marker-end:none;stroke-miterlimit:4;stroke-dasharray:none;stroke-dashoffset:0;stroke-opacity:1;visibility:visible;display:inline;overflow:visible"
             id="path2442" />
        </g>
        <path
           d="M 201.2729,362.93307 L 217.94042,304.59676 L 207.58635,292.72747 C 186.45351,284.17372 163.05793,269.96313 137.88582,251.31121 C 122.01688,241.86483 133.82993,229.96532 141.42136,229.08786 C 143.56753,226.2748 142.28602,223.22717 140.4112,219.74395 C 135.26136,214.18308 132.26385,211.25237 129.8046,210.40004 C 126.72187,209.41727 122.82357,205.91355 124.24876,216.46095 C 125.34847,223.92068 117.35649,239.97331 108.5914,223.27948 C 107.75191,217.55759 107.68214,211.34272 108.08632,206.8645 C 106.6337,204.10815 107.01719,199.51569 102.53048,199.79343 C 95.392268,202.36214 90.140232,203.78993 86.368043,204.33912 C 84.893862,211.02627 83.310611,216.96412 95.459416,218.48126 C 96.183523,223.23874 97.727444,228.69891 93.944187,229.59293 C 84.795053,228.89733 72.982554,221.67422 67.175144,236.664 C 83.613726,238.9865 82.124202,250.37195 76.266517,254.34167 C 77.781748,259.22407 80.643843,260.40259 84.852814,257.87721 C 97.647042,251.80579 98.180646,254.67888 101.01525,256.36198 C 103.1061,264.83161 101.86238,271.23697 89.903577,271.00919 C 87.062362,272.05562 85.897151,276.38871 87.630733,281.36326 C 101.35968,284.49337 101.49893,289.05548 102.78302,295.75793 C 109.3816,298.73995 109.71534,304.14783 110.10663,287.42417 C 111.81547,278.5891 121.33115,286.94985 117.43024,292.47493 C 124.87961,296.82636 129.37043,292.76678 120.96577,302.82899 C 123.38802,306.67214 146.1126,304.18019 128.54192,314.44575 C 136.36618,317.56204 154.93218,316.65018 137.88582,329.09296 C 141.75708,333.2236 169.62324,331.48883 146.47212,342.22494 C 182.51056,347.53109 169.22772,351.34265 162.63456,355.35693 L 186.37314,361.92292 L 201.2729,362.93307 z "
           style="opacity:1;color:#000000;fill:#fcef3c;fill-opacity:1;fill-rule:nonzero;stroke:#000000;stroke-width:2.5;stroke-linecap:round;stroke-linejoin:round;marker:none;marker-start:none;marker-mid:none;marker-end:none;stroke-miterlimit:4;stroke-dasharray:none;stroke-dashoffset:0;stroke-opacity:1;visibility:visible;display:inline;overflow:visible"
           id="path2444" />
      </g>
      <g
         style="stroke:#000000;stroke-width:2.5;stroke-miterlimit:4;stroke-dasharray:none;stroke-opacity:1"
         transform="translate(-57.014176,-105.42532)"
         id="g2446">
        <g
           style="fill:#fcef3c;fill-opacity:1;stroke:#000000;stroke-width:2.5;stroke-linecap:round;stroke-linejoin:round;stroke-miterlimit:4;stroke-dasharray:none;stroke-opacity:1"
           id="g2448">
          <path
             d="M 80.499816,423.58009 C 66.431558,433.37573 64.511529,451.50329 82.217799,457.44891 C 78.561446,446.03171 81.786988,438.59877 90.562292,434.37884"
             style="opacity:1;color:#000000;fill:#2b5df2;fill-opacity:1;fill-rule:nonzero;stroke:#000000;stroke-width:2.5;stroke-linecap:round;stroke-linejoin:round;marker:none;marker-start:none;marker-mid:none;marker-end:none;stroke-miterlimit:4;stroke-dasharray:none;stroke-dashoffset:0;stroke-opacity:1;visibility:visible;display:inline;overflow:visible"
             id="path2450" />
          <path
             d="M 117.31376,444.19589 C 110.24259,464.15834 117.84067,474.87278 140.87468,475.85588 C 131.92917,467.98053 131.35558,459.26799 135.4753,450.08612"
             style="opacity:1;color:#000000;fill:#2b5df2;fill-opacity:1;fill-rule:nonzero;stroke:#000000;stroke-width:2.5;stroke-linecap:round;stroke-linejoin:round;marker:none;marker-start:none;marker-mid:none;marker-end:none;stroke-miterlimit:4;stroke-dasharray:none;stroke-dashoffset:0;stroke-opacity:1;visibility:visible;display:inline;overflow:visible"
             id="path2452" />
          <path
             d="M 178.4249,432.41543 C 184.20526,449.60071 175.9265,455.85113 164.19017,459.41232 C 169.21844,449.49829 167.97943,442.09117 163.20847,436.09683"
             style="opacity:1;color:#000000;fill:#2b5df2;fill-opacity:1;fill-rule:nonzero;stroke:#000000;stroke-width:2.5;stroke-linecap:round;stroke-linejoin:round;marker:none;marker-start:none;marker-mid:none;marker-end:none;stroke-miterlimit:4;stroke-dasharray:none;stroke-dashoffset:0;stroke-opacity:1;visibility:visible;display:inline;overflow:visible"
             id="path2454" />
          <path
             d="M 118.54089,370.56801 C 104.26003,355.29439 87.172907,357.53956 81.726947,374.98569 C 94.885891,371.02054 98.590566,374.0217 99.397638,379.15793"
             style="opacity:1;color:#000000;fill:#2b5df2;fill-opacity:1;fill-rule:nonzero;stroke:#000000;stroke-width:2.5;stroke-linecap:round;stroke-linejoin:round;marker:none;marker-start:none;marker-mid:none;marker-end:none;stroke-miterlimit:4;stroke-dasharray:none;stroke-dashoffset:0;stroke-opacity:1;visibility:visible;display:inline;overflow:visible"
             id="path2456" />
        </g>
        <g
           style="fill:#fcef3c;fill-opacity:1;stroke:#000000;stroke-width:2.5;stroke-linecap:round;stroke-linejoin:round;stroke-miterlimit:4;stroke-dasharray:none;stroke-opacity:1"
           id="g2458">
          <path
             d="M 578.7645,436.45957 C 567.56269,445.35775 559.90006,455.23903 573.38468,470.99455 C 574.2619,459.28224 580.0865,451.52785 590.21831,447.21921"
             style="opacity:1;color:#000000;fill:#2b5df2;fill-opacity:1;fill-rule:nonzero;stroke:#000000;stroke-width:2.5;stroke-linecap:round;stroke-linejoin:round;marker:none;marker-start:none;marker-mid:none;marker-end:none;stroke-miterlimit:4;stroke-dasharray:none;stroke-dashoffset:0;stroke-opacity:1;visibility:visible;display:inline;overflow:visible"
             id="path2460" />
          <path
             d="M 606.70485,457.28468 C 596.55267,467.0591 594.67682,476.31625 606.70485,484.70441 C 609.291,478.1687 608.12081,469.89929 621.9766,468.56495"
             style="opacity:1;color:#000000;fill:#2b5df2;fill-opacity:1;fill-rule:nonzero;stroke:#000000;stroke-width:2.5;stroke-linecap:round;stroke-linejoin:round;marker:none;marker-start:none;marker-mid:none;marker-end:none;stroke-miterlimit:4;stroke-dasharray:none;stroke-dashoffset:0;stroke-opacity:1;visibility:visible;display:inline;overflow:visible"
             id="path2462" />
          <path
             d="M 647.6609,463.8793 C 657.52782,467.94238 659.23269,476.49459 659.98242,485.57212 C 675.63872,477.8396 671.16224,465.75404 670.56852,454.508"
             style="opacity:1;color:#000000;fill:#2b5df2;fill-opacity:1;fill-rule:nonzero;stroke:#000000;stroke-width:2.5;stroke-linecap:round;stroke-linejoin:round;marker:none;marker-start:none;marker-mid:none;marker-end:none;stroke-miterlimit:4;stroke-dasharray:none;stroke-dashoffset:0;stroke-opacity:1;visibility:visible;display:inline;overflow:visible"
             id="path2464" />
          <path
             d="M 661.89139,421.70846 C 670.33707,419.30003 677.09206,420.73409 680.46045,429.86496 C 686.63568,413.37558 676.87484,407.62572 661.89139,405.39545"
             style="opacity:1;color:#000000;fill:#2b5df2;fill-opacity:1;fill-rule:nonzero;stroke:#000000;stroke-width:2.5;stroke-linecap:round;stroke-linejoin:round;marker:none;marker-start:none;marker-mid:none;marker-end:none;stroke-miterlimit:4;stroke-dasharray:none;stroke-dashoffset:0;stroke-opacity:1;visibility:visible;display:inline;overflow:visible"
             id="path2466" />
        </g>
        <path
           sodipodi:nodetypes="ccccccccsscccccccccccccccccccccccccccssccccccccccccccccccccccccccccccccccccc"
           d="M 282.01179,397.2934 C 299.21751,381.22208 298.42179,394.05129 299.88157,400.88335 C 321.11944,364.7444 312.20646,377.38419 319.1448,382.66138 C 335.40287,351.63704 330.70635,369.95738 334.06946,369.2986 C 346.63577,341.65835 347.05222,351.10714 351.59726,347.95286 C 372.2101,323.65632 414.38825,316.91294 454.16092,308.21161 C 477.87897,315.12596 479.7248,353.49407 490.51946,371.02406 C 494.97145,372.44572 507.07013,377.09421 511.67224,392.80924 C 515.36099,377.09203 501.10528,368.50863 505.82054,369.91906 C 510.5358,371.3295 534.48902,379.50829 539.28693,380.39326 C 558.48574,383.93447 578.08626,385.01084 596.98646,390.12371 C 601.63101,396.61075 606.74919,402.78204 612.77884,408.34568 C 611.87136,413.02772 612.96578,417.30937 614.34072,421.53492 C 605.89178,423.73979 600.38594,419.8132 586.92099,432.4681 L 577.89678,433.33581 C 572.02161,432.866 572.13994,435.56921 574.07884,439.23626 C 577.16796,438.14743 582.56454,443.11569 589.35059,451.73132 C 611.24334,438.21967 612.32626,442.7751 615.03489,444.96316 C 605.47515,451.39659 600.59103,449.41322 603.58108,460.23491 C 612.45043,458.47743 615.94844,466.38837 620.41471,472.55643 C 624.64365,472.88614 629.1375,474.98189 632.04206,466.48244 C 634.41508,455.40385 643.96488,458.9135 645.57839,468.91204 C 664.20863,453.42407 666.49986,458.08754 671.95686,458.84657 C 677.23273,453.314 674.60387,449.36237 670.74206,445.65733 C 643.46841,433.44751 662.66296,426.04408 667.61829,424.83223 C 661.45935,421.05926 661.51502,412.81177 666.92412,400.70981 C 662.93482,400.53509 660.15726,399.7079 650.43758,402.61878 C 636.3535,396.21939 648.23577,395.28661 649.91695,392.20622 C 626.33598,375.02109 648.9507,383.0336 648.87569,378.6699 C 622.57895,361.96817 645.42714,367.97532 645.57839,363.39815 C 641.49201,357.94018 624.35226,370.26097 632.21561,348.99412 C 621.72869,350.32007 609.30419,354.39612 612.6053,336.15197 C 602.11463,341.20774 575.42019,350.54501 543.18826,311.68247 C 529.82548,293.4605 494.74963,262.39092 469.77976,263.26409 C 428.29276,268.20004 407.77911,261.84264 339.62282,281.13897 L 231.67934,285.13045 L 205.8215,287.38651 C 206.38169,335.37496 194.77299,359.40889 178.86787,371.02181 C 178.08267,371.59511 167.75036,376.31623 166.93698,376.8173 C 151.08455,386.58294 137.05023,396.30792 130.50402,394.28873 C 123.06237,393.25263 121.06083,389.76848 122.86814,384.57035 C 123.73416,380.00073 124.28689,375.49377 122.86814,371.38111 C 121.63779,369.4115 121.95255,366.28305 117.31478,366.86901 C 112.88142,375.74251 105.54372,378.22648 96.489673,376.93447 C 94.233667,377.92463 92.806791,381.20831 94.754247,384.91743 C 108.25262,393.17525 105.45625,394.60175 106.55514,406.08963 C 98.921733,408.19108 91.307462,410.30136 89.54797,415.11384 C 85.351764,414.71998 81.051219,414.16961 77.747074,415.11384 C 76.095704,418.91497 75.351596,422.53464 76.011649,425.87348 C 90.806362,431.69442 86.368318,434.3099 88.506714,438.02146 C 96.837296,436.17195 103.56902,429.52589 111.06725,425.17931 C 122.80588,420.78452 122.05321,430.11566 119.39729,434.8977 C 116.7363,435.37376 114.07532,439.06782 111.41433,442.18648 C 109.80798,445.87534 110.40983,447.35601 111.06725,448.7811 C 132.10132,446.79543 129.40133,452.06183 135.36321,454.68155 C 145.49028,456.75559 140.61542,450.64676 141.61074,447.73985 C 139.13603,438.50659 143.39219,438.02345 145.08159,434.20352 C 148.23652,431.5676 153.67221,427.9244 153.41164,438.02146 C 155.10255,446.6732 160.0198,445.18505 164.86545,443.92191 C 163.34465,433.73356 168.47898,432.14142 178.05468,436.28604 C 179.92566,435.31644 181.38465,433.6602 181.87262,430.38559 C 176.0986,417.6027 189.98719,414.85896 197.49145,421.01429 L 196.4502,433.50935 C 203.83911,421.23368 210.22845,415.75686 214.84571,414.41967 C 213.33885,421.81085 213.1163,427.73426 214.84571,431.42684 C 225.39837,412.71451 230.92441,411.59533 236.0179,411.99008 C 235.21859,418.67401 235.60941,422.38261 235.67082,426.91474 C 242.45528,421.53725 246.30076,415.7399 249.90131,409.90756 C 257.63914,404.51739 258.5241,410.66888 257.53718,419.97303 C 259.62082,420.3924 262.48475,417.74509 267.25557,412.33716 C 272.7255,400.76602 276.59043,400.46055 281.48606,402.27169 C 281.98062,395.17423 284.21265,384.6062 281.13897,381.44658 C 282.35787,379.91357 286.42222,382.3642 289.8161,383.87618 C 290.85448,377.34752 289.64949,368.12683 288.42776,358.88605 C 292.08268,358.93337 294.06707,360.65122 296.41072,362.00981 C 295.49597,353.3316 294.52114,344.87372 292.2457,341.1847"
           style="color:#000000;fill:#fcef3c;fill-opacity:1;fill-rule:nonzero;stroke:#000000;stroke-width:2.5;stroke-linecap:round;stroke-linejoin:round;marker:none;marker-start:none;marker-mid:none;marker-end:none;stroke-miterlimit:4;stroke-dasharray:none;stroke-dashoffset:0;stroke-opacity:1;visibility:visible;display:inline;overflow:visible"
           id="path2468" />
      </g>
      <path
         sodipodi:nodetypes="cccc"
         id="path2470"
         d="M 405.91623,207.58949 C 402.62159,204.98369 404.36097,205.93221 397.45334,203.56554 C 386.31079,206.99402 372.18986,212.21952 360.19019,219.07647 C 381.61817,213.77777 390.48808,209.30373 405.91623,207.58949 z "
         style="fill:#fcef3c;fill-opacity:1;fill-rule:evenodd;stroke:#000000;stroke-width:2.5;stroke-linecap:butt;stroke-linejoin:miter;stroke-miterlimit:4;stroke-dasharray:none;stroke-opacity:1" />
      <g
         style="stroke:#000000;stroke-width:1.60834372;stroke-miterlimit:4;stroke-dasharray:none;stroke-opacity:1"
         transform="matrix(1.5543941,0,0,1.5543941,31.110993,-25.811533)"
         id="g2239">
        <g
           style="stroke:#000000;stroke-width:1.60834372;stroke-miterlimit:4;stroke-dasharray:none;stroke-opacity:1"
           id="g2473"
           transform="translate(123.40958,-8.29605)" />
        <g
           style="stroke:#000000;stroke-width:1.89889455;stroke-miterlimit:4;stroke-dasharray:none;stroke-opacity:1"
           id="g11092"
           transform="matrix(0.8469895,0,0,0.8469895,-203.97891,-19.5284)">
          <rect
             y="129.35312"
             x="335.70435"
             height="38.878849"
             width="49.416107"
             id="rect9152"
             style="fill:#fcef3c;fill-opacity:1;stroke:#000000;stroke-width:1.89889455;stroke-miterlimit:4;stroke-dasharray:none;stroke-opacity:1" />
          <path
             d="M 348.47539,138.45554 C 352.18801,143.10743 350.78019,154.94772 355.25774,158.06284 C 358.25048,160.14492 361.0479,158.83904 364.25986,158.18614 C 368.4264,157.33918 367.40619,141.87029 371.28887,135.49596"
             style="fill:#2b5df2;fill-opacity:1;fill-rule:evenodd;stroke:#000000;stroke-width:1.89889455;stroke-linecap:butt;stroke-linejoin:miter;stroke-miterlimit:4;stroke-dasharray:none;stroke-opacity:1"
             id="path2896" />
          <path
             d="M 356.71767,165.43771 C 354.36614,162.0097 352.34473,150.32307 352.1093,150.07651 C 350.45874,148.34786 348.48846,162.7495 347.28151,166.97384"
             style="fill:#fcef3c;fill-rule:evenodd;stroke:#000000;stroke-width:1.89889455;stroke-linecap:round;stroke-linejoin:round;stroke-miterlimit:4;stroke-dasharray:none;stroke-opacity:1;fill-opacity:1"
             id="path2932" />
          <path
             d="M 345.19677,131.86253 C 346.23915,135.81255 347.35595,146.29736 349.36624,147.66261 C 350.96273,148.74681 351.4033,139.11201 353.75516,136.47089"
             style="fill:#fcef3c;fill-opacity:1;fill-rule:evenodd;stroke:#000000;stroke-width:1.89889455;stroke-linecap:round;stroke-linejoin:round;stroke-miterlimit:4;stroke-dasharray:none;stroke-opacity:1"
             id="path2934" />
          <path
             d="M 361.92842,164.74012 C 364.01612,161.76898 365.57364,151.29901 366.04411,150.95428 C 367.33432,150.0089 368.84205,162.31059 369.77471,166.09603"
             style="fill:#fcef3c;fill-rule:evenodd;stroke:#000000;stroke-width:1.89889455;stroke-linecap:round;stroke-linejoin:round;stroke-miterlimit:4;stroke-dasharray:none;stroke-opacity:1;fill-opacity:1"
             id="path2936" />
          <path
             d="M 366.81216,137.34866 C 368.86097,140.25631 366.72106,150.07651 368.56775,148.97927 C 370.63491,147.75102 373.66985,136.96462 375.37055,132.95975"
             style="fill:#fcef3c;fill-rule:evenodd;stroke:#000000;stroke-width:1.89889455;stroke-linecap:round;stroke-linejoin:round;stroke-miterlimit:4;stroke-dasharray:none;stroke-opacity:1;fill-opacity:1"
             id="path2938" />
          <path
             sodipodi:nodetypes="cccccccccccccccccccccccccccccccccssssssssscccc"
             d="M 353.34684,72.489918 C 351.39678,72.464108 349.4474,73.438328 347.49731,75.036198 C 343.69011,75.762138 339.61172,73.016618 336.34876,80.816918 C 311.92277,96.675008 333.54599,119.97878 310.47308,130.29724 C 314.52506,130.81081 318.24203,132.01755 323.4109,130.29724 C 316.9364,136.12153 313.90326,155.59619 301.52672,138.34898 C 304.55464,152.80973 312.24129,156.93779 326.09484,148.60289 C 310.19154,164.2299 313.06252,193.87338 286.38671,189.82502 C 305.41136,201.68028 317.84525,195.58684 330.29275,187.96693 C 305.25347,205.6452 313.30995,230.17815 287.76307,226.57396 C 305.18975,248.02145 321.72673,236.83779 338.20683,222.78896 C 340.69969,219.78895 344.14099,216.77737 348.80486,213.70495 C 345.26906,216.68843 341.74181,219.77549 338.20683,222.78896 C 325.35911,238.25058 338.10147,252.48369 343.43701,262.70354 C 344.51549,242.14613 364.8113,237.73293 375.98805,225.67933 C 361.00557,261.00821 384.31248,266.88916 400.07443,253.34426 C 372.35926,252.25759 398.96171,242.59776 404.54764,215.63186 C 403.15713,229.02378 401.93325,241.88513 417.00374,235.52034 C 401.12917,236.51072 424.05642,207.93464 420.58228,198.08321 C 417.86052,188.21916 410.08642,181.89255 403.17125,174.89146 C 410.22437,180.61175 418.00226,194.89822 426.7759,184.25074 C 424.91652,186.57499 411.84941,185.23133 418.79301,165.11927 C 422.78221,151.70306 410.14694,146.9193 403.17125,138.76189 C 407.94185,143.40465 411.82627,142.09879 417.00374,138.34898 C 402.44552,140.48556 405.70731,122.98837 404.54764,108.00013 C 405.87811,109.04846 407.20859,109.88439 408.53907,108.89477 C 404.83906,103.7205 399.69125,100.44266 399.68169,91.050668 C 397.17964,86.532318 398.51693,83.013758 388.03124,79.027648 C 386.50825,75.647848 384.34421,75.562428 382.25051,75.036198 C 378.34076,72.673928 373.92784,71.935958 368.83097,73.728648 C 365.21195,73.237888 362.66105,71.487548 356.85658,73.728648 C 355.68651,72.908948 354.51689,72.505398 353.34684,72.489918 z M 341.71657,131.12306 C 343.26768,130.74129 346.0452,135.87658 351.90168,137.3167 C 358.59476,138.96255 361.1335,139.58288 367.93633,138.21134 C 374.73913,136.83978 377.65847,129.35643 379.08488,131.88006 C 380.51126,134.4037 375.23921,140.48243 373.64823,148.32762 C 372.05728,156.17284 375.9904,160.07922 372.75359,163.26118 C 369.51681,166.44312 366.7312,161.16871 360.64157,161.059 C 354.55197,160.94929 352.01278,166.23572 348.39194,162.77945 C 344.7711,159.32319 348.00019,155.01687 346.18975,147.22653 C 344.37935,139.43622 339.73961,134.14236 341.16602,131.67361 C 341.34432,131.36501 341.49497,131.17761 341.71657,131.12306 z M 405.44227,202.96931 C 405.71455,207.44465 405.37575,211.57888 404.61644,215.35659 C 405.06125,211.07433 405.51868,206.71778 405.44227,202.96931 z "
             style="fill:#fcef3c;fill-opacity:1;fill-rule:evenodd;stroke:#000000;stroke-width:1.89889455;stroke-linecap:round;stroke-linejoin:round;stroke-miterlimit:4;stroke-dasharray:none;stroke-opacity:1"
             id="path2940" />
          <path
             d="M 327.5462,93.492388 C 317.43406,77.231138 316.96467,54.829218 339.35816,79.674658"
             style="fill:#fcef3c;fill-opacity:1;fill-rule:evenodd;stroke:#000000;stroke-width:1.89889455;stroke-linecap:round;stroke-linejoin:round;stroke-miterlimit:4;stroke-dasharray:none;stroke-opacity:1"
             id="path2942" />
          <path
             d="M 388.55362,80.788978 C 400.37843,58.892448 413.85924,65.861388 397.91401,95.498208"
             style="fill:#fcef3c;fill-opacity:1;fill-rule:evenodd;stroke:#000000;stroke-width:1.89889455;stroke-linecap:round;stroke-linejoin:round;stroke-miterlimit:4;stroke-dasharray:none;stroke-opacity:1"
             id="path2944" />
          <path
             d="M 329.28695,127.03471 L 334.7731,141.73757 C 335.0308,145.10239 335.62525,148.46724 331.92031,151.83207 C 336.54216,154.02652 338.98665,156.221 337.18701,158.41545 C 341.93322,163.07069 338.92039,166.00171 338.94257,169.60717 C 344.91778,169.4358 346.06529,171.67826 347.50096,173.77663 C 355.64822,173.28625 356.46043,178.66394 359.13155,182.55447 C 359.13155,180.86119 368.38795,177.68333 366.59271,177.50722 C 365.49597,177.39964 373.47958,170.11213 378.44279,172.02107 C 377.24444,168.72938 379.98806,166.97382 384.58727,163.68213 C 380.95349,155.11724 388.09267,153.66281 391.39007,151.17375 C 389.29171,145.76073 387.24281,140.34775 393.14563,134.93475 L 392.70675,122.86525 L 393.14566,123.52359"
             style="fill:none;fill-rule:evenodd;stroke:#000000;stroke-width:1.89889455;stroke-linecap:round;stroke-linejoin:round;stroke-miterlimit:4;stroke-dasharray:none;stroke-opacity:1"
             id="path2946" />
          <path
             d="M 330.98329,103.78464 C 340.16033,99.512848 340.70689,97.682108 354.50841,108.28766"
             style="fill:#fcef3c;fill-rule:evenodd;stroke:#000000;stroke-width:1.89889455;stroke-linecap:round;stroke-linejoin:round;stroke-miterlimit:4;stroke-dasharray:none;stroke-opacity:1;fill-opacity:1"
             id="path2948"
             sodipodi:nodetypes="cc" />
          <path
             d="M 368.59443,108.19168 C 380.17306,99.397038 380.58073,97.534508 391.05832,105.30275"
             style="fill:#fcef3c;fill-rule:evenodd;stroke:#000000;stroke-width:1.89889455;stroke-linecap:round;stroke-linejoin:round;stroke-miterlimit:4;stroke-dasharray:none;stroke-opacity:1;fill-opacity:1"
             id="path2950"
             sodipodi:nodetypes="cc" />
          <path
             d="M 329.09994,76.561058 C 329.72063,75.940368 335.30679,87.112728 335.30679,87.112728 L 332.82405,89.595468 C 332.82405,89.595468 328.47924,77.181738 329.09994,76.561058 z "
             style="fill:#fcef3c;fill-opacity:1;fill-rule:evenodd;stroke:#000000;stroke-width:1.89889455;stroke-linecap:round;stroke-linejoin:round;stroke-miterlimit:4;stroke-dasharray:none;stroke-opacity:1"
             id="path2962" />
          <path
             d="M 399.4418,75.940368 C 398.8211,75.319678 391.68319,84.629988 391.68319,84.629988 L 394.16594,87.112728 C 394.16594,87.112728 400.06246,76.561058 399.4418,75.940368 z "
             style="fill:#fcef3c;fill-opacity:1;fill-rule:evenodd;stroke:#000000;stroke-width:1.89889455;stroke-linecap:round;stroke-linejoin:round;stroke-miterlimit:4;stroke-dasharray:none;stroke-opacity:1"
             id="path2964" />
          <path
             d="M 354.64119,109.84618 C 356.48651,116.37127 348.24198,118.42615 348.22877,125.38404"
             style="fill:none;fill-rule:evenodd;stroke:#000000;stroke-width:1.89889455;stroke-linecap:round;stroke-linejoin:round;stroke-miterlimit:4;stroke-dasharray:none;stroke-opacity:1"
             id="path2974" />
          <path
             d="M 366.72618,110.33945 C 365.62353,118.10692 374.2776,118.69447 374.37177,124.64413"
             style="fill:none;fill-rule:evenodd;stroke:#000000;stroke-width:1.89889455;stroke-linecap:round;stroke-linejoin:round;stroke-miterlimit:4;stroke-dasharray:none;stroke-opacity:1"
             id="path2976" />
          <path
             d="M 354.32231,125.35669 C 355.29205,124.10237 357.0838,126.81275 360.1667,126.93607 C 363.2496,127.05939 365.62947,123.73901 366.47956,124.89077 C 367.33582,126.0509 362.19251,132.39311 360.12437,132.38932 C 357.98006,132.38555 353.33527,126.63336 354.32231,125.35669 z "
             style="fill:none;fill-rule:evenodd;stroke:#000000;stroke-width:1.89889455;stroke-linecap:round;stroke-linejoin:round;stroke-miterlimit:4;stroke-dasharray:none;stroke-opacity:1"
             id="path2978" />
          <path
             d="M 368.65667,108.54209 C 371.7096,109.95912 373.498,110.41527 375.99745,109.28548 C 380.08024,107.585 381.08245,104.97956 383.07011,104.90858 C 382.70418,103.22877 382.17066,101.64503 379.34594,101.37458 C 373.06047,103.4761 373.59709,105.63944 368.65667,108.54209 z "
             style="fill:#fcef3c;fill-opacity:1;fill-rule:evenodd;stroke:#000000;stroke-width:1.89889455;stroke-linecap:round;stroke-linejoin:round;stroke-miterlimit:4;stroke-dasharray:none;stroke-opacity:1"
             id="path6221" />
          <path
             d="M 354.51123,108.72703 C 351.4583,110.14407 349.6699,110.60022 347.17045,109.47042 C 343.08766,107.76995 342.08545,105.1645 340.09779,105.09353 C 340.46372,103.41372 340.99724,101.82997 343.82196,101.55953 C 350.10743,103.66105 349.57081,105.82438 354.51123,108.72703 z "
             style="fill:#fcef3c;fill-opacity:1;fill-rule:evenodd;stroke:#000000;stroke-width:1.89889455;stroke-linecap:round;stroke-linejoin:round;stroke-miterlimit:4;stroke-dasharray:none;stroke-opacity:1"
             id="path6223" />
        </g>
      </g>
    </g>
  </g>
  <g
     inkscape:groupmode="layer"
     id="layer4"
     inkscape:label="Meubles">
    <rect
       style="fill:#fcef3c;fill-opacity:1;stroke:#000000;stroke-width:1.13105476;stroke-miterlimit:4;stroke-dasharray:none;stroke-opacity:1"
       id="rect3530"
       width="29.434135"
       height="23.15774"
       x="82.339729"
       y="457.73062" />
    <g
       id="g3468"
       style="fill:#fcef3c;fill-opacity:1;stroke:#000000;stroke-width:2.5;stroke-linecap:round;stroke-linejoin:round;stroke-miterlimit:4;stroke-dasharray:none;stroke-opacity:1"
       transform="matrix(0.4524219,0,0,0.4524219,-14.041943,358.39708)">
      <g
         id="g3470"
         style="fill:#fcef3c;fill-opacity:1;stroke:#000000;stroke-width:2.5;stroke-linecap:round;stroke-linejoin:round;stroke-miterlimit:4;stroke-dasharray:none;stroke-opacity:1">
        <g
           id="g3472"
           style="fill:#fcef3c;fill-opacity:1;stroke:#000000;stroke-width:2.5;stroke-linecap:round;stroke-linejoin:round;stroke-miterlimit:4;stroke-dasharray:none;stroke-opacity:1" />
      </g>
    </g>
    <g
       id="g3484"
       style="fill:#fcef3c;fill-opacity:1;stroke:#000000;stroke-width:2.5;stroke-linecap:round;stroke-linejoin:round;stroke-miterlimit:4;stroke-dasharray:none;stroke-opacity:1"
       transform="matrix(0.4524219,0,0,0.4524219,-14.041943,358.39708)">
      <g
         id="g3486"
         style="fill:#fcef3c;fill-opacity:1;stroke:#000000;stroke-width:2.5;stroke-linecap:round;stroke-linejoin:round;stroke-miterlimit:4;stroke-dasharray:none;stroke-opacity:1" />
    </g>
    <g
       id="g3498"
       transform="matrix(0.4524219,0,0,0.4524219,-14.041943,358.39708)"
       style="stroke:#000000;stroke-width:2.5;stroke-miterlimit:4;stroke-dasharray:none;stroke-opacity:1">
      <g
         id="g3500"
         style="fill:#fcef3c;fill-opacity:1;stroke:#000000;stroke-width:2.5;stroke-linecap:round;stroke-linejoin:round;stroke-miterlimit:4;stroke-dasharray:none;stroke-opacity:1" />
      <g
         id="g3510"
         style="fill:#fcef3c;fill-opacity:1;stroke:#000000;stroke-width:2.5;stroke-linecap:round;stroke-linejoin:round;stroke-miterlimit:4;stroke-dasharray:none;stroke-opacity:1" />
    </g>
    <g
       id="g5779">
      <g
         id="g5671">
        <path
           d="M 223.461,491.422 C 223.27583,490.26771 281.14017,506.86628 287.29205,473.69144 C 291.29294,452.11602 266.50597,440.80945 258.06334,438.58818 C 247.42385,437.01819 233.2761,441.52271 233.2761,441.52271 C 226.21869,441.75748 221.90178,436.52672 217.78302,430.9008 C 219.02818,435.76409 218.1937,440.4275 224.08231,445.7371 C 224.08231,445.7371 219.1443,445.94275 214.25092,444.05714 C 209.35753,442.17154 206.95066,436.38078 206.95066,436.38078 C 208.83681,443.0027 211.06788,448.68448 214.85663,450.12046 C 203.0824,449.84983 194.05231,442.60169 185.84059,433.2727 C 189.404,442.04629 193.87837,450.03756 201.85972,455.01708 C 180.64873,455.44589 174.01329,437.65755 161.58721,417.14856 C 154.26312,405.06029 144.05321,404.38707 139.79492,410.23735 C 133.63059,418.70624 136.76788,428.73228 139.23715,436.37788 C 139.23715,436.37788 131.05735,441.7116 136.89092,446.95842 C 143.65639,453.04342 146.82991,457.48791 155.98629,457.03519 C 154.33372,457.84783 149.0339,446.02635 150.48395,437.97495 C 151.65132,431.4932 143.06259,434.65004 143.06259,434.65004 C 138.65274,420.65094 142.46277,401.56992 156.84049,420.97721 C 172.55863,444.28649 174.29005,462.86238 206.79773,459.4482 C 225.26074,457.50909 242.00872,441.03814 253.37882,443.47838 C 261.17442,442.67443 289.75162,458.23247 282.07475,473.60479 C 264.2289,509.33967 203.26922,471.52567 202.55116,478.57475 L 223.461,491.422 z "
           style="fill:#fcef3c;fill-opacity:1;fill-rule:evenodd;stroke:#000000;stroke-width:1.13105476;stroke-linecap:butt;stroke-linejoin:miter;stroke-miterlimit:4;stroke-dasharray:none;stroke-opacity:1;display:inline"
           id="path3466"
           sodipodi:nodetypes="csccccsccccsscscsccscscc" />
        <path
           transform="matrix(0.4524219,0,0,0.4524219,-14.041943,358.39708)"
           id="path3474"
           style="opacity:1;color:#000000;fill:#2b5df2;fill-opacity:1;fill-rule:nonzero;stroke:#000000;stroke-width:2.5;stroke-linecap:round;stroke-linejoin:round;marker:none;marker-start:none;marker-mid:none;marker-end:none;stroke-miterlimit:4;stroke-dasharray:none;stroke-dashoffset:0;stroke-opacity:1;visibility:visible;display:inline;overflow:visible"
           d="M 370.34823,418.67157 C 369.59061,418.2634 381.14253,411.22848 378.93815,408.11824 C 366.77198,397.72823 355.26008,391.91814 348.25987,417.68986 C 358.24624,408.39728 364.16766,414.00953 370.34823,418.67157 z " />
        <path
           transform="matrix(0.4524219,0,0,0.4524219,-14.041943,358.39708)"
           id="path3478"
           style="opacity:1;color:#000000;fill:#2b5df2;fill-opacity:1;fill-rule:nonzero;stroke:#000000;stroke-width:2.5;stroke-linecap:round;stroke-linejoin:round;marker:none;marker-start:none;marker-mid:none;marker-end:none;stroke-miterlimit:4;stroke-dasharray:none;stroke-dashoffset:0;stroke-opacity:1;visibility:visible;display:inline;overflow:visible"
           d="M 410.10729,474.87418 C 411.32197,472.07178 405.75519,469.78856 400.33657,469.50094 C 394.91796,469.21332 389.64752,470.9213 391.45489,476.10131 C 395.33051,486.87571 399.87551,491.41242 402.7443,493.86261 C 404.94246,492.26872 409.17652,485.49087 410.10729,474.87418 z " />
        <path
           transform="matrix(0.4524219,0,0,0.4524219,-14.041943,358.39708)"
           id="path3480"
           style="opacity:1;color:#000000;fill:#2b5df2;fill-opacity:1;fill-rule:nonzero;stroke:#000000;stroke-width:2.5;stroke-linecap:round;stroke-linejoin:round;marker:none;marker-start:none;marker-mid:none;marker-end:none;stroke-miterlimit:4;stroke-dasharray:none;stroke-dashoffset:0;stroke-opacity:1;visibility:visible;display:inline;overflow:visible"
           d="M 439.31302,460.1486 C 439.9629,453.1393 419.27399,459.89988 423.60573,462.35744 C 427.93747,464.815 430.93148,468.34274 425.56914,478.55557 C 442.86792,475.24602 438.66314,467.1579 439.31302,460.1486 z " />
        <path
           transform="matrix(0.4524219,0,0,0.4524219,-14.041943,358.39708)"
           id="path3482"
           style="opacity:1;color:#000000;fill:#fcef3c;fill-opacity:1;fill-rule:nonzero;stroke:#000000;stroke-width:2.5;stroke-linecap:round;stroke-linejoin:round;marker:none;marker-start:none;marker-mid:none;marker-end:none;stroke-miterlimit:4;stroke-dasharray:none;stroke-dashoffset:0;stroke-opacity:1;visibility:visible;display:inline;overflow:visible"
           d="M 492.85714,341.6479 L 460.71429,298.79075 L 454.28572,309.1479 C 435.87268,325.06367 415.41129,332.13125 394.90612,360.32392 C 386.06961,366.7366 383.18522,363.00011 376.30563,367.20992 C 367.39047,372.66535 368.81381,380.5261 368.71369,390.21801 C 373.28573,374.04248 389.35929,368.63445 404.84079,370.27465 C 406.79744,376.66269 410.79285,384.00587 417.50001,392.54075 C 422.26166,398.58979 427.94408,408.94912 404.64286,423.79075 C 402.03815,424.57549 397.48481,426.04689 391.07143,424.50504 C 389.07128,419.49543 388.92313,415.59702 389.28571,412.00504 C 386.23306,395.07185 360.28411,409.33806 369.28571,424.50504 C 380.70401,434.28885 377.22992,437.08235 365.35714,435.93361 C 359.35626,437.01561 353.32749,438.1311 345,442.00504 C 344.89665,444.01315 344.88037,445.93419 345.71429,447.00504 C 379.59729,473.81574 352.42758,457.70837 384.13731,456.2807 C 389.37285,458.18199 381.80774,476.26439 392.14286,482.00504 C 398.66177,468.44913 409.68652,476.36143 411.26508,481.59761 C 413.91596,477.7344 413.75834,471.4639 413.21429,464.86218 C 415.1274,450.20397 421.79278,458.32779 424.64286,464.50504 C 431.35308,455.70293 434.92867,458.91633 439.40897,465.57647 C 442.60237,466.03178 442.94341,465.5437 444.28571,464.1479 L 446.07143,453.79075 C 446.64678,439.89275 456.45739,439.87401 458.59155,452.16853 C 460.29886,450.3222 462.51981,449.27464 462.5462,447.36142 C 462.80481,428.61052 463.94144,432.99921 472.3164,445.17909 C 476.36401,406.87162 479.58873,432.74995 483.21429,427.36218 C 487.19063,417.7949 472.97014,404.54718 495,407.00504 C 491.46171,401.67842 482.68931,400.93166 485.71429,389.86218 C 486.84876,382.78834 480.28715,379.74578 471.78572,377.71932 C 454.07765,371.41391 464.45217,365.75522 468.57143,361.29075 L 483.93863,351.31087 L 492.85714,341.6479 z "
           sodipodi:nodetypes="ccccscccccccccccccccccccscccccccc" />
        <path
           transform="matrix(0.4524219,0,0,0.4524219,-14.041943,358.39708)"
           id="path3512"
           style="opacity:1;color:#000000;fill:#2b5df2;fill-opacity:1;fill-rule:nonzero;stroke:#000000;stroke-width:2.5;stroke-linecap:round;stroke-linejoin:round;marker:none;marker-start:none;marker-mid:none;marker-end:none;stroke-miterlimit:4;stroke-dasharray:none;stroke-dashoffset:0;stroke-opacity:1;visibility:visible;display:inline;overflow:visible"
           d="M 578.7645,436.45957 C 567.56269,445.35775 559.90006,455.23903 573.38468,470.99455 C 574.2619,459.28224 580.0865,451.52785 590.21831,447.21921" />
        <path
           transform="matrix(0.4524219,0,0,0.4524219,-14.041943,358.39708)"
           id="path3514"
           style="opacity:1;color:#000000;fill:#2b5df2;fill-opacity:1;fill-rule:nonzero;stroke:#000000;stroke-width:2.5;stroke-linecap:round;stroke-linejoin:round;marker:none;marker-start:none;marker-mid:none;marker-end:none;stroke-miterlimit:4;stroke-dasharray:none;stroke-dashoffset:0;stroke-opacity:1;visibility:visible;display:inline;overflow:visible"
           d="M 606.70485,457.28468 C 596.55267,467.0591 594.67682,476.31625 606.70485,484.70441 C 609.291,478.1687 608.12081,469.89929 621.9766,468.56495" />
        <path
           transform="matrix(0.4524219,0,0,0.4524219,-14.041943,358.39708)"
           id="path3516"
           style="opacity:1;color:#000000;fill:#2b5df2;fill-opacity:1;fill-rule:nonzero;stroke:#000000;stroke-width:2.5;stroke-linecap:round;stroke-linejoin:round;marker:none;marker-start:none;marker-mid:none;marker-end:none;stroke-miterlimit:4;stroke-dasharray:none;stroke-dashoffset:0;stroke-opacity:1;visibility:visible;display:inline;overflow:visible"
           d="M 647.6609,463.8793 C 657.52782,467.94238 659.23269,476.49459 659.98242,485.57212 C 675.63872,477.8396 671.16224,465.75404 670.56852,454.508" />
        <path
           transform="matrix(0.4524219,0,0,0.4524219,-14.041943,358.39708)"
           id="path3518"
           style="opacity:1;color:#000000;fill:#2b5df2;fill-opacity:1;fill-rule:nonzero;stroke:#000000;stroke-width:2.5;stroke-linecap:round;stroke-linejoin:round;marker:none;marker-start:none;marker-mid:none;marker-end:none;stroke-miterlimit:4;stroke-dasharray:none;stroke-dashoffset:0;stroke-opacity:1;visibility:visible;display:inline;overflow:visible"
           d="M 661.89139,421.70846 C 670.33707,419.30003 677.09206,420.73409 680.46045,429.86496 C 686.63568,413.37558 676.87484,407.62572 661.89139,405.39545" />
        <path
           id="path3520"
           transform="translate(-7.36775e-8,5.675326e-6)"
           d="M 198.5,477.5 C 179.73038,479.73314 170.4604,476.86367 139.625,485.59375 L 90.78125,487.40625 L 79.0625,488.40625 C 79.074474,489.43197 79.074727,490.42836 79.0625,491.40625 C 90.028548,505.96009 101.6813,519.42963 113.65625,531.9375 C 113.54315,531.53903 113.38665,531.20559 113.15625,530.96875 C 113.44275,530.60842 114.08535,530.73093 114.84375,531.03125 L 114.5,532.84375 C 115.32674,533.70283 116.17025,534.55671 117,535.40625 C 121.22819,532.87707 121.0832,537.21427 121.625,539.75 C 131.23347,523.39993 127.20469,529.14373 130.34375,531.53125 C 137.69925,517.49514 135.57221,525.7668 137.09375,525.46875 C 142.77902,512.96372 142.97497,517.23957 145.03125,515.8125 C 154.35696,504.82024 173.44347,501.78042 191.4375,497.84375 C 202.16806,500.97197 202.99126,518.31905 207.875,526.25 C 209.88917,526.89321 215.3554,529.01518 217.4375,536.125 C 219.10637,529.01422 212.67921,525.11189 214.8125,525.75 C 216.94578,526.38814 227.76682,530.09962 229.9375,530.5 C 238.62347,532.10214 247.51164,532.59308 256.0625,534.90625 C 258.16381,537.84113 260.45955,540.63914 263.1875,543.15625 C 262.77693,545.27451 263.2842,547.18202 263.90625,549.09375 C 260.08376,550.09128 257.59184,548.33715 251.5,554.0625 L 247.40625,554.4375 C 244.7482,554.22494 244.8103,555.46595 245.6875,557.125 C 247.08508,556.63238 249.52359,558.88335 252.59375,562.78125 C 262.49851,556.6683 262.99331,558.72882 264.21875,559.71875 C 259.89371,562.6294 257.67849,561.72903 259.03125,566.625 C 263.04395,565.82987 264.63561,569.39693 266.65625,572.1875 C 268.56953,572.33667 270.59216,573.28284 271.90625,569.4375 C 272.97987,564.42528 277.30126,566.00769 278.03125,570.53125 C 286.45998,563.52415 287.49988,565.6566 289.96875,566 C 292.35566,563.49694 291.15342,561.70749 289.40625,560.03125 C 277.06706,554.50726 285.7581,551.14202 288,550.59375 C 285.21355,548.88679 285.2403,545.16269 287.6875,539.6875 C 285.88264,539.60847 284.61615,539.24555 280.21875,540.5625 C 273.84681,537.66725 279.2394,537.23739 280,535.84375 C 269.33145,528.0688 279.56519,531.69298 279.53125,529.71875 C 267.63404,522.16252 277.96282,524.88331 278.03125,522.8125 C 276.18248,520.34322 268.44245,525.90284 272,516.28125 C 267.2555,516.88113 261.63151,518.7228 263.125,510.46875 C 258.3788,512.7561 246.30118,516.98851 231.71875,499.40625 C 225.67313,491.16223 209.79692,477.10496 198.5,477.5 z "
           style="color:#000000;fill:#fcef3c;fill-opacity:1;fill-rule:nonzero;stroke:#000000;stroke-width:1.13100002;stroke-linecap:round;stroke-linejoin:round;marker:none;marker-start:none;marker-mid:none;marker-end:none;stroke-miterlimit:4;stroke-dasharray:none;stroke-dashoffset:0;stroke-opacity:1;visibility:visible;display:inline;overflow:visible"
           sodipodi:nodetypes="cccccccccccccccccsscccccccccccccccccccccccc" />
        <path
           style="fill:#fcef3c;fill-opacity:1;fill-rule:evenodd;stroke:#000000;stroke-width:1.13105476;stroke-linecap:butt;stroke-linejoin:miter;stroke-miterlimit:4;stroke-dasharray:none;stroke-opacity:1"
           d="M 195.39791,500.01183 C 193.90734,498.83291 194.69428,499.26204 191.56911,498.19131 C 186.52798,499.74243 180.13936,502.10656 174.71045,505.20879 C 184.40494,502.81154 188.41788,500.78739 195.39791,500.01183 z "
           id="path3522"
           sodipodi:nodetypes="cccc" />
        <path
           id="path3534"
           style="fill:#fcef3c;fill-opacity:1;fill-rule:evenodd;stroke:#000000;stroke-width:1.13105476;stroke-linecap:round;stroke-linejoin:round;stroke-miterlimit:4;stroke-dasharray:none;stroke-opacity:1"
           d="M 94.856078,479.22398 C 93.455416,477.18212 92.251386,470.22112 92.111155,470.07426 C 91.128018,469.04461 89.954444,477.62278 89.235538,480.13896" />
        <path
           id="path3532"
           style="fill:#2b5df2;fill-opacity:1;fill-rule:evenodd;stroke:#000000;stroke-width:1.13105476;stroke-linecap:butt;stroke-linejoin:miter;stroke-miterlimit:4;stroke-dasharray:none;stroke-opacity:1"
           d="M 89.946659,463.15236 C 92.158038,465.9232 91.319486,472.97574 93.986487,474.83122 C 95.769079,476.07139 97.43533,475.29356 99.348497,474.90467 C 101.83025,474.40018 101.22257,465.18632 103.53525,461.38952" />
        <path
           id="path3541"
           style="fill:#fcef3c;fill-opacity:1;fill-rule:evenodd;stroke:#000000;stroke-width:1.13105476;stroke-linecap:round;stroke-linejoin:round;stroke-miterlimit:4;stroke-dasharray:none;stroke-opacity:1"
           d="M 100.86874,462.49306 C 102.08909,464.22497 100.81448,470.07426 101.91444,469.4207 C 103.14572,468.68911 104.95345,462.26431 105.96645,459.87886" />
        <path
           id="path3536"
           style="fill:#fcef3c;fill-opacity:1;fill-rule:evenodd;stroke:#000000;stroke-width:1.13105476;stroke-linecap:round;stroke-linejoin:round;stroke-miterlimit:4;stroke-dasharray:none;stroke-opacity:1"
           d="M 87.993786,459.22531 C 88.614668,461.57809 89.279877,467.82325 90.477283,468.63645 C 91.428214,469.28224 91.690635,463.54338 93.091493,461.97023" />
        <path
           id="path3538"
           style="fill:#fcef3c;fill-opacity:1;fill-rule:evenodd;stroke:#000000;stroke-width:1.13105476;stroke-linecap:round;stroke-linejoin:round;stroke-miterlimit:4;stroke-dasharray:none;stroke-opacity:1"
           d="M 97.959801,478.80847 C 99.203316,477.03874 100.13103,470.80243 100.41126,470.59709 C 101.17976,470.03399 102.07783,477.36135 102.63335,479.6161" />
        <path
           style="color:#000000;fill:#fcef3c;fill-opacity:1;fill-rule:nonzero;stroke:#000000;stroke-width:1.131;stroke-linecap:butt;stroke-linejoin:miter;marker:none;marker-start:none;marker-mid:none;marker-end:none;stroke-miterlimit:4;stroke-dasharray:none;stroke-dashoffset:0;stroke-opacity:1;visibility:visible;display:inline;overflow:visible"
           d="M 92.40625 423.875 C 91.389989 423.98879 90.391355 424.54222 89.375 425.375 C 87.107281 425.80741 84.662295 424.16634 82.71875 428.8125 C 68.16969 438.25818 81.055614 452.13518 67.3125 458.28125 C 69.726016 458.58715 71.952472 459.30593 75.03125 458.28125 C 71.174785 461.75042 69.340694 473.36685 61.96875 463.09375 C 63.772296 471.70712 68.373292 474.15209 76.625 469.1875 C 73.740133 472.02225 71.873483 475.638 70.25 479.21875 C 80.170478 493.40889 90.76196 506.66035 101.75 519.03125 C 103.40849 517.83002 104.99189 516.55167 106.34375 515.09375 C 105.31404 517.52182 104.58937 519.71731 104.125 521.6875 C 108.07143 526.06241 112.06407 530.32076 116.09375 534.46875 C 117.66318 533.79644 119.23234 532.84423 120.6875 531.59375 C 104.17928 530.94646 120.01655 525.18693 123.34375 509.125 C 122.51551 517.10174 121.77344 524.75986 130.75 520.96875 C 121.2945 521.55866 134.97558 504.52414 132.90625 498.65625 C 131.93191 495.12508 129.85275 492.36613 127.46875 489.8125 C 130.30189 492.56282 133.33963 494.38662 136.59375 490.4375 C 135.48623 491.82191 127.70787 491.01077 131.84375 479.03125 C 134.21986 471.04004 126.68624 468.20262 122.53125 463.34375 C 125.37281 466.10915 127.6661 465.32728 130.75 463.09375 C 122.07856 464.36637 124.03449 453.92757 123.34375 445 C 124.13623 445.62444 124.92626 446.12071 125.71875 445.53125 C 123.51488 442.44925 120.44319 440.50048 120.4375 434.90625 C 118.94718 432.21494 119.74568 430.12428 113.5 427.75 C 112.59285 425.73686 111.30959 425.68844 110.0625 425.375 C 107.7337 423.96795 105.09839 423.52595 102.0625 424.59375 C 99.906873 424.30142 98.394866 423.25886 94.9375 424.59375 C 94.240562 424.10549 93.540677 423.88422 92.84375 423.875 C 92.698559 423.87308 92.55143 423.85874 92.40625 423.875 z M 85.90625 458.78125 C 86.830153 458.55386 88.511655 461.61096 92 462.46875 C 95.98666 463.44908 97.479222 463.81694 101.53125 463 C 105.58326 462.18306 107.33788 457.74683 108.1875 459.25 C 109.0371 460.75318 105.88515 464.35835 104.9375 469.03125 C 103.98987 473.70416 106.33422 476.0422 104.40625 477.9375 C 102.4783 479.83279 100.81472 476.69035 97.1875 476.625 C 93.5603 476.55966 92.062962 479.68369 89.90625 477.625 C 87.749535 475.56631 89.672118 473.01523 88.59375 468.375 C 87.515408 463.73478 84.744125 460.59548 85.59375 459.125 C 85.699952 458.94118 85.774257 458.81374 85.90625 458.78125 z M 122.53125 484.84375 C 123.42937 485.57215 124.3421 486.56268 125.28125 487.5625 C 124.36366 486.65788 123.4368 485.76055 122.53125 484.84375 z M 123.875 501.59375 C 124.03718 504.25943 123.82727 506.7186 123.375 508.96875 C 123.63994 506.41808 123.92051 503.82648 123.875 501.59375 z "
           id="path3569" />
        <path
           id="path3545"
           style="fill:#fcef3c;fill-opacity:1;fill-rule:evenodd;stroke:#000000;stroke-width:1.13105476;stroke-linecap:round;stroke-linejoin:round;stroke-miterlimit:4;stroke-dasharray:none;stroke-opacity:1"
           d="M 77.480427,436.37058 C 71.457247,426.68475 71.177661,413.3413 84.516085,428.1402" />
        <path
           id="path3547"
           style="fill:#fcef3c;fill-opacity:1;fill-rule:evenodd;stroke:#000000;stroke-width:1.13105476;stroke-linecap:round;stroke-linejoin:round;stroke-miterlimit:4;stroke-dasharray:none;stroke-opacity:1"
           d="M 113.8188,428.80394 C 120.86211,415.76152 128.8918,419.91249 119.3942,437.56532" />
        <path
           id="path3555"
           style="fill:#fcef3c;fill-opacity:1;fill-rule:evenodd;stroke:#000000;stroke-width:1.13105476;stroke-linecap:round;stroke-linejoin:round;stroke-miterlimit:4;stroke-dasharray:none;stroke-opacity:1"
           d="M 78.405895,426.28562 C 78.775601,425.91592 82.102933,432.5706 82.102933,432.5706 L 80.624118,434.04942 C 80.624118,434.04942 78.036182,426.65532 78.405895,426.28562 z " />
        <path
           id="path3557"
           style="fill:#fcef3c;fill-opacity:1;fill-rule:evenodd;stroke:#000000;stroke-width:1.13105476;stroke-linecap:round;stroke-linejoin:round;stroke-miterlimit:4;stroke-dasharray:none;stroke-opacity:1"
           d="M 120.30421,425.91592 C 119.9345,425.54621 115.68289,431.09179 115.68289,431.09179 L 117.16171,432.5706 C 117.16171,432.5706 120.6739,426.28562 120.30421,425.91592 z " />
        <path
           sodipodi:nodetypes="cc"
           id="path3551"
           style="fill:#fcef3c;fill-opacity:1;fill-rule:evenodd;stroke:#000000;stroke-width:1.13105476;stroke-linecap:round;stroke-linejoin:round;stroke-miterlimit:4;stroke-dasharray:none;stroke-opacity:1"
           d="M 79.52769,442.50104 C 84.993889,439.95659 85.319441,438.86613 93.540158,445.18321" />
        <path
           sodipodi:nodetypes="cc"
           id="path3553"
           style="fill:#fcef3c;fill-opacity:1;fill-rule:evenodd;stroke:#000000;stroke-width:1.13105476;stroke-linecap:round;stroke-linejoin:round;stroke-miterlimit:4;stroke-dasharray:none;stroke-opacity:1"
           d="M 101.93033,445.12604 C 108.82701,439.88761 109.06984,438.77822 115.31069,443.40528" />
        <path
           id="path3563"
           style="fill:none;fill-rule:evenodd;stroke:#000000;stroke-width:1.13105476;stroke-linecap:round;stroke-linejoin:round;stroke-miterlimit:4;stroke-dasharray:none;stroke-opacity:1"
           d="M 93.429309,455.35018 C 94.006924,454.60306 95.074159,456.21747 96.910453,456.29092 C 98.746747,456.36437 100.16429,454.38663 100.67064,455.07266 C 101.18066,455.76368 98.117103,459.54134 96.88524,459.53909 C 95.608006,459.53684 92.84139,456.11061 93.429309,455.35018 z " />
        <path
           id="path3565"
           style="fill:#fcef3c;fill-opacity:1;fill-rule:evenodd;stroke:#000000;stroke-width:1.13105476;stroke-linecap:round;stroke-linejoin:round;stroke-miterlimit:4;stroke-dasharray:none;stroke-opacity:1"
           d="M 101.96741,445.33476 C 103.78585,446.1788 104.85109,446.4505 106.33986,445.77755 C 108.77172,444.76468 109.36868,443.21278 110.55261,443.1705 C 110.33464,442.16994 110.01686,441.2266 108.33435,441.06551 C 104.59048,442.31726 104.91011,443.60583 101.96741,445.33476 z " />
        <path
           id="path3567"
           style="fill:#fcef3c;fill-opacity:1;fill-rule:evenodd;stroke:#000000;stroke-width:1.13105476;stroke-linecap:round;stroke-linejoin:round;stroke-miterlimit:4;stroke-dasharray:none;stroke-opacity:1"
           d="M 93.541837,445.44492 C 91.723395,446.28896 90.658155,446.56066 89.169386,445.88771 C 86.737519,444.87484 86.140564,443.32294 84.956637,443.28066 C 85.174599,442.2801 85.492385,441.33676 87.174897,441.17568 C 90.918764,442.42742 90.599133,443.71598 93.541837,445.44492 z " />
      </g>
      <path
         d="M 78.517285,456.34967 L 81.785047,465.10726 C 81.938543,467.11148 82.29262,469.11571 80.085816,471.11994 C 82.838767,472.42704 84.2948,473.73415 83.222865,475.04125 C 86.04989,477.81409 84.255333,479.55992 84.268544,481.70747 C 87.827609,481.6054 88.51111,482.94109 89.366251,484.19096 C 94.219072,483.89887 94.702856,487.10203 96.293878,489.41938 C 96.293878,488.4108 101.80735,486.51794 100.73803,486.41304 C 100.08477,486.34897 104.84012,482.00824 107.7964,483.14528 C 107.08261,481.18462 108.71682,480.13895 111.45628,478.17829 C 109.29187,473.07671 113.54424,472.2104 115.50829,470.72782 C 114.25843,467.50361 113.03803,464.27943 116.55397,461.05524 L 116.29256,453.86618 L 116.55399,454.25832"
         style="fill:none;fill-rule:evenodd;stroke:#000000;stroke-width:1.13105476;stroke-linecap:round;stroke-linejoin:round;stroke-miterlimit:4;stroke-dasharray:none;stroke-opacity:1"
         id="path3549" />
      <path
         d="M 93.619246,446.11152 C 94.71839,449.99812 89.807631,451.22208 89.799762,455.36647"
         style="fill:none;fill-rule:evenodd;stroke:#000000;stroke-width:1.13105476;stroke-linecap:round;stroke-linejoin:round;stroke-miterlimit:4;stroke-dasharray:none;stroke-opacity:1"
         id="path3559" />
      <path
         d="M 100.81753,446.40533 C 100.16075,451.03194 105.31545,451.38191 105.37154,454.92575"
         style="fill:none;fill-rule:evenodd;stroke:#000000;stroke-width:1.13105476;stroke-linecap:round;stroke-linejoin:round;stroke-miterlimit:4;stroke-dasharray:none;stroke-opacity:1"
         id="path3561" />
    </g>
  </g>
  <g
     inkscape:groupmode="layer"
     id="layer2"
     inkscape:label="Reflet final"
     sodipodi:insensitive="true">
    <path
       sodipodi:nodetypes="cccccc"
       d="M 300.00001,658.5 C 300.00001,658.5 598.50001,546.17969 598.50001,260.72817 C 598.50001,-24.723334 598.50001,2.1764865 598.50001,2.1764865 L 1.5,2.1764865 L 1.5,260.72817 C 1.5,546.17969 300.00001,658.5 300.00001,658.5 z "
       style="opacity:1;fill:url(#radialGradient3163);fill-opacity:1;fill-rule:evenodd;stroke:none;stroke-width:1px;stroke-linecap:butt;stroke-linejoin:miter;stroke-opacity:1"
       id="path2875"
       inkscape:export-xdpi="144"
       inkscape:export-ydpi="144" />
  </g>
  <g
     inkscape:groupmode="layer"
     id="layer1"
     inkscape:label="Contour final"
     sodipodi:insensitive="true">
    <path
       sodipodi:nodetypes="cccccc"
       d="M 299.99999,658.50028 C 299.99999,658.50028 1.5,546.17992 1.5,260.72828 C 1.5,-24.723336 1.5,2.1764957 1.5,2.1764957 L 598.49999,2.1764957 L 598.49999,260.72828 C 598.49999,546.17992 299.99999,658.50028 299.99999,658.50028 z "
       style="opacity:1;fill:none;fill-opacity:1;fill-rule:evenodd;stroke:#000000;stroke-width:3.00000048;stroke-linecap:butt;stroke-linejoin:miter;stroke-miterlimit:4;stroke-dasharray:none;stroke-opacity:1"
       id="path1411"
       inkscape:export-xdpi="144"
       inkscape:export-ydpi="144" />
  </g>
</svg>
