<?xml version="1.0" encoding="UTF-8" standalone="no"?>
<svg
   xmlns:dc="http://purl.org/dc/elements/1.1/"
   xmlns:cc="http://web.resource.org/cc/"
   xmlns:rdf="http://www.w3.org/1999/02/22-rdf-syntax-ns#"
   xmlns:svg="http://www.w3.org/2000/svg"
   xmlns="http://www.w3.org/2000/svg"
   xmlns:xlink="http://www.w3.org/1999/xlink"
   xmlns:sodipodi="http://sodipodi.sourceforge.net/DTD/sodipodi-0.dtd"
   xmlns:inkscape="http://www.inkscape.org/namespaces/inkscape"
   height="660"
   width="600"
   version="1.0"
   id="svg2"
   sodipodi:version="0.32"
   inkscape:version="0.45.1"
   sodipodi:docname="Blason_departement_Loire.svg"
   sodipodi:docbase="C:\Documents and Settings\Cyrille Delon\Bureau\blasons\departements\svg"
   inkscape:export-filename="/Users/olivier/Desktop/Blason Rouge/Blason_Vide_3D.png"
   inkscape:export-xdpi="144"
   inkscape:export-ydpi="144"
   inkscape:output_extension="org.inkscape.output.svg.inkscape">
  <metadata
     id="metadata49">
    <rdf:RDF>
      <cc:Work
         rdf:about="">
        <dc:format>image/svg+xml</dc:format>
        <dc:type
           rdf:resource="http://purl.org/dc/dcmitype/StillImage" />
        <dc:title>Gabarit d'un blason en pointe pour le projet Blasons de Wikipédia</dc:title>
        <dc:date>03-AUG-2006</dc:date>
        <dc:creator>
          <cc:Agent>
            <dc:title>Jérôme BLUM (wagner51)</dc:title>
          </cc:Agent>
        </dc:creator>
        <cc:license
           rdf:resource="http://web.resource.org/cc/PublicDomain" />
        <dc:language>fr</dc:language>
        <dc:subject>
          <rdf:Bag>
            <rdf:li>gabarit modèle blason projet wikipédia</rdf:li>
          </rdf:Bag>
        </dc:subject>
      </cc:Work>
      <cc:License
         rdf:about="http://web.resource.org/cc/PublicDomain">
        <cc:permits
           rdf:resource="http://web.resource.org/cc/Reproduction" />
        <cc:permits
           rdf:resource="http://web.resource.org/cc/Distribution" />
        <cc:permits
           rdf:resource="http://web.resource.org/cc/DerivativeWorks" />
      </cc:License>
    </rdf:RDF>
  </metadata>
  <sodipodi:namedview
     inkscape:window-height="712"
     inkscape:window-width="1024"
     inkscape:pageshadow="2"
     inkscape:pageopacity="0.0"
     guidetolerance="10.0"
     gridtolerance="10.0"
     objecttolerance="10.0"
     borderopacity="1.0"
     bordercolor="#666666"
     pagecolor="#ffffff"
     id="base"
     showgrid="false"
     height="660px"
     inkscape:zoom="0.44547727"
     inkscape:cx="396.46229"
     inkscape:cy="287.6392"
     inkscape:window-x="66"
     inkscape:window-y="54"
     inkscape:current-layer="layer3" />
  <desc
     id="desc4">Flag of Canton of Valais (Wallis)</desc>
  <defs
     id="defs6">
    <linearGradient
       id="linearGradient2893">
      <stop
         style="stop-color:white;stop-opacity:0.3137255;"
         offset="0"
         id="stop2895" />
      <stop
         id="stop2897"
         offset="0.19"
         style="stop-color:white;stop-opacity:0.25098041;" />
      <stop
         style="stop-color:#6b6b6b;stop-opacity:0.1254902;"
         offset="0.60000002"
         id="stop2901" />
      <stop
         style="stop-color:black;stop-opacity:0.1254902;"
         offset="1"
         id="stop2899" />
    </linearGradient>
    <linearGradient
       id="linearGradient2885">
      <stop
         id="stop2887"
         offset="0"
         style="stop-color:white;stop-opacity:1;" />
      <stop
         style="stop-color:white;stop-opacity:1;"
         offset="0.22857143"
         id="stop2891" />
      <stop
         id="stop2889"
         offset="1"
         style="stop-color:black;stop-opacity:1;" />
    </linearGradient>
    <linearGradient
       id="linearGradient2955">
      <stop
         id="stop2867"
         offset="0"
         style="stop-color:#fd0000;stop-opacity:1;" />
      <stop
         style="stop-color:#e77275;stop-opacity:0.65882355;"
         offset="0.5"
         id="stop2873" />
      <stop
         style="stop-color:black;stop-opacity:0.32291666;"
         offset="1"
         id="stop2959" />
    </linearGradient>
    <radialGradient
       inkscape:collect="always"
       xlink:href="#linearGradient2955"
       id="radialGradient2961"
       cx="225.52438"
       cy="218.90099"
       fx="225.52438"
       fy="218.90099"
       r="300"
       gradientTransform="matrix(-4.167939e-4,2.182867,-1.884232,-3.599562e-4,615.5972,-289.1214)"
       gradientUnits="userSpaceOnUse" />
    <polygon
       id="star"
       transform="scale(53,53)"
       points="0,-1 0.58778525,0.80901699 -0.95105652,-0.30901699 0.95105652,-0.30901699 -0.58778525,0.80901699 0,-1 " />
    <clipPath
       id="clip">
      <path
         d="M 0,-200 L 0,600 L 300,600 L 300,-200 L 0,-200 z "
         id="path10" />
    </clipPath>
    <radialGradient
       inkscape:collect="always"
       xlink:href="#linearGradient2955"
       id="radialGradient1911"
       gradientUnits="userSpaceOnUse"
       gradientTransform="matrix(-4.167939e-4,2.182867,-1.884232,-3.599562e-4,615.5972,-289.1214)"
       cx="225.52438"
       cy="218.90099"
       fx="225.52438"
       fy="218.90099"
       r="300" />
    <radialGradient
       inkscape:collect="always"
       xlink:href="#linearGradient2955"
       id="radialGradient2865"
       gradientUnits="userSpaceOnUse"
       gradientTransform="matrix(0,1.748721,-1.593162,-1.049767e-7,551.7876,-191.2898)"
       cx="225.52438"
       cy="218.90099"
       fx="225.52438"
       fy="218.90099"
       r="300" />
    <radialGradient
       inkscape:collect="always"
       xlink:href="#linearGradient2955"
       id="radialGradient2871"
       gradientUnits="userSpaceOnUse"
       gradientTransform="matrix(0,1.386237,-1.323286,-5.741131e-8,-158.0823,-109.5408)"
       cx="225.52438"
       cy="218.90099"
       fx="225.52438"
       fy="218.90099"
       r="300" />
    <radialGradient
       inkscape:collect="always"
       xlink:href="#linearGradient2893"
       id="radialGradient3163"
       gradientUnits="userSpaceOnUse"
       gradientTransform="matrix(1.353218,0,0,1.348928,-77.62935,-85.74693)"
       cx="221.44487"
       cy="226.33101"
       fx="221.44487"
       fy="226.33101"
       r="300" />
  </defs>
  <g
     inkscape:groupmode="layer"
     id="layer3"
     inkscape:label="Fond écu"
     style="display:inline">
    <g
       id="g5942">
      <path
         sodipodi:nodetypes="cccccc"
         d="M 300,658.5 C 300,658.5 598.50001,546.17969 598.50001,260.72817 C 598.50001,-24.723354 598.50001,2.1764765 598.50001,2.1764765 L 1.5,2.1764765 L 1.5,260.72817 C 1.5,546.17969 300,658.5 300,658.5 z "
         style="fill:#e20909;fill-opacity:1;fill-rule:evenodd;stroke:none;stroke-width:1px;stroke-linecap:butt;stroke-linejoin:miter;stroke-opacity:1"
         id="path2855" />
      <g
         id="g5915">
        <path
           style="fill:#fcef3c;stroke:#000000;stroke-width:3;stroke-opacity:1;stroke-miterlimit:4;stroke-dasharray:none;fill-opacity:1"
           id="path2325"
           d="M 405.80462,484.58933 C 396.81062,480.0937 399.05843,481.21898 392.31497,472.22496 C 380.63788,456.18834 382.19843,419.39986 382.19843,409.28058 C 382.19843,383.42606 386.69406,384.75765 386.69406,371.06494 L 386.45913,361.36612 C 374.67401,377.89533 345.97351,405.23158 320.09224,428.57394 C 320.09224,428.57394 319.25936,431.31132 328.24805,429.51368 C 336.05387,427.95259 350.72624,430.63895 351.85151,438.50769 C 352.97405,446.37642 352.97679,447.49623 357.47242,444.12586 C 361.96805,440.75551 374.7446,436.9648 377.70552,450.87479 C 381.02647,466.47612 383.15841,474.42428 388.94735,480.09642 C 395.69354,486.70649 397.93862,487.96243 401.31171,487.96243 C 404.67934,487.95697 414.7959,489.08497 405.80462,484.58933 z "
           sodipodi:nodetypes="ccscccssssssc" />
        <path
           style="fill:#fcef3c;stroke:#000000;stroke-width:3;stroke-opacity:1;stroke-miterlimit:4;stroke-dasharray:none;fill-opacity:1"
           id="path2327"
           d="M 445.14827,322.72453 C 438.40209,317.10636 436.15427,314.85307 430.53336,308.11236 C 424.91244,301.3689 423.7899,295.74525 420.41681,292.3749 C 417.04645,289.00452 414.22145,279.10286 414.22145,279.10286 C 412.00263,299.00851 409.96046,314.14463 398.55588,338.8198 C 398.55588,338.8198 405.80462,331.72127 412.54808,338.462 C 419.29427,345.21092 419.29153,354.20492 422.66462,345.21092 C 426.03499,336.21692 422.66462,328.34818 428.28553,327.2229 C 433.90646,326.09764 429.40809,322.72727 438.40209,324.97782 C 447.39337,327.2229 451.89174,328.34818 445.14827,322.72453 z "
           sodipodi:nodetypes="csscccsscc" />
        <path
           style="fill:#fcef3c;stroke:#000000;stroke-width:3;stroke-opacity:1;stroke-miterlimit:4;stroke-dasharray:none;fill-opacity:1"
           d="M 295.64512,365.43856 C 294.16333,376.25269 295.68457,375.05471 301.26875,376.68311 C 299.83846,379.16647 304.06092,380.05998 303.86713,386.25296 C 318.52922,382.20674 325.24209,343.89062 328.24531,331.71855 C 330.38599,319.15482 330.76017,307.12104 329.36785,293.49743 C 327.03468,306.23781 323.2883,320.21471 318.12877,331.71855 C 311.83998,343.97668 299.89841,360.65103 275.41474,363.19348 C 282.15819,365.53167 289.07831,366.45669 295.64512,365.43856 z "
           id="polygon2329"
           sodipodi:nodetypes="cccccccc" />
        <path
           style="fill:#fcef3c;stroke:#000000;stroke-width:3;stroke-opacity:1;stroke-miterlimit:4;stroke-dasharray:none;fill-opacity:1"
           id="path2331"
           d="M 291.15221,229.43051 C 280.97802,223.45806 262.32467,220.13535 248.97079,213.63296 C 258.67373,227.41883 262.72389,226.71947 266.42074,231.67287 C 270.48368,237.66384 271.54356,247.18778 266.42074,258.65487 C 272.66289,256.69679 276.07866,254.73872 278.78784,248.54107 C 281.44263,242.46782 278.39712,239.67845 278.78784,230.55851 C 283.9256,234.08052 286.06033,240.78221 288.90166,248.54379 C 293.6276,260.40504 293.40736,267.85006 286.6511,277.76817 C 292.60351,276.1207 301.73563,273.06006 302.38857,265.40653 C 302.83876,256.61097 302.75899,247.4621 301.61933,238.48989 C 298.13029,235.4701 295.87779,232.8036 291.15221,229.43051 z "
           sodipodi:nodetypes="ccccscccccc" />
        <path
           style="fill:#fcef3c;stroke:#000000;stroke-width:3;stroke-opacity:1;stroke-miterlimit:4;stroke-dasharray:none;fill-opacity:1"
           id="path2333"
           d="M 189.98671,202.45395 C 190.48847,204.59033 198.95312,201.77419 204.60164,202.45395 C 217.24307,204.60375 239.78958,206.94777 242.81728,209.19468 C 257.47321,220.77635 278.82962,221.7732 291.15495,229.37343 C 296.80261,233.66816 307.98546,243.4981 313.63312,253.0367 C 319.94623,265.47059 328.1044,280.04085 329.36786,292.37762 C 330.64453,304.92194 330.56166,317.85472 328.24531,330.59327 C 326.91241,337.37765 321.98649,354.45554 318.71142,366.678 C 317.30802,372.021 306.67931,384.84135 297.89567,392.41784 C 287.82006,400.7236 276.87047,405.53346 264.17293,410.05198 C 274.79026,413.58792 315.28593,428.53447 307.37247,441.0359 C 326.19375,421.5254 348.21961,403.85995 366.45823,384.54366 C 373.78524,377.35467 380.43252,369.97149 386.69134,360.93745 C 391.93716,352.27753 397.95984,341.28701 402.42879,330.58781 C 406.30077,320.09617 409.29877,310.57562 411.42281,299.11288 C 413.22602,289.19146 414.835,279.17294 414.79316,268.76597 C 414.76549,262.93742 411.33904,253.22454 409.17499,245.1625 C 406.871,237.29378 403.98436,229.32793 399.05843,221.55631 C 387.55379,202.97609 377.7971,195.66045 363.08787,184.46048 L 327.11457,158.60647 C 313.34968,148.72697 300.45876,138.65325 285.52856,132.75519 C 274.32859,128.39949 261.47777,123.65535 248.43273,123.76664 C 237.16513,124.0171 219.19704,131.74492 215.50391,136.94791 C 211.81281,142.55366 208.31592,146.50856 209.09181,152.98828 C 209.50882,155.7083 214.68414,159.01096 214.71272,160.85701 C 214.69741,162.5231 206.7192,166.22845 200.10053,167.60321 C 193.35617,168.71143 186.41759,166.61507 179.86743,164.22738 C 177.36165,163.32104 174.17613,162.22047 172.64144,165.00424 C 171.31807,167.74329 172.51951,170.96789 175.3718,173.22138 C 183.97646,179.40972 191.12449,181.81081 202.35108,183.33794 C 215.46374,184.90508 228.09085,186.08381 233.82328,190.07866 L 243.93983,197.94739 L 232.698,196.82211 C 223.42875,194.90846 214.2566,194.93696 204.5989,194.57703 C 202.48912,194.47993 196.59213,193.12041 194.48234,194.57703 C 193.07412,195.67039 189.51291,200.42002 189.98671,202.45395 z "
           sodipodi:nodetypes="cccccccccccccccccccccccccccccccccccc" />
        <path
           style="fill:#fcef3c;stroke:#000000;stroke-width:3;stroke-opacity:1;stroke-miterlimit:4;stroke-dasharray:none;fill-opacity:1"
           id="path2323"
           d="M 325.99749,517.18954 C 311.312,517.18954 295.64784,509.31808 294.5253,499.20426 C 293.40276,489.09044 293.557,490.27057 293.40276,478.97662 C 293.19967,463.47824 299.88938,453.93275 306.89241,441.88078 C 319.32479,420.75711 329.25067,409.97262 339.48988,393.54859 L 330.4986,399.17222 L 330.4986,391.30349 C 310.27172,403.31325 284.71857,417.51617 264.17839,410.41405 C 257.80912,408.47241 251.12653,409.03724 245.07057,409.28877 C 234.83227,401.53647 222.08749,402.87016 212.47582,393.55131 C 209.79825,388.30549 205.55415,383.05966 197.86363,377.81385 C 194.6399,370.75617 187.34313,358.99885 167.51399,357.58075 C 162.01042,358.26384 153.68707,364.2732 158.52272,364.32967 C 183.11237,363.35061 189.84339,373.65068 189.99491,398.04968 C 190.00112,400.30462 184.36779,396.29339 184.374,399.17496 C 185.1664,412.12464 199.43111,412.22864 204.60983,418.28551 C 209.72894,441.76506 250.56533,443.31295 275.42294,435.14825 C 262.78126,445.66386 252.94203,449.76044 245.07329,450.88572 C 237.20456,452.0028 238.3271,450.88024 225.96547,454.25607 C 213.6011,457.62643 209.10273,457.62643 218.09674,459.87426 C 244.63334,461.81149 257.43766,476.66096 257.43766,484.60299 C 257.43766,489.09862 261.93329,491.34645 261.93329,491.34645 C 261.93329,491.34645 264.18112,493.59699 267.55422,490.22663 C 270.92731,486.85628 270.92457,481.23263 275.42294,487.97336 C 279.91857,494.725 281.04385,493.59973 285.5395,500.34045 C 290.03513,507.08118 291.63767,517.62855 309.14295,523.94664 C 329.1547,531.52346 339.11918,516.87624 325.99749,517.18954 z "
           sodipodi:nodetypes="csscccccccccccccccccscscscc" />
        <path
           style="fill:#fcef3c;fill-opacity:1;stroke:#000000;stroke-width:3;stroke-opacity:1;stroke-miterlimit:4;stroke-dasharray:none"
           id="path2339"
           d="M 237.9939,125.38472 C 245.17527,122.82609 252.35662,122.20963 259.53799,121.20472 C 265.61105,120.45301 269.06218,119.21577 274.84392,118.36695 C 287.3148,116.67085 281.64474,117.23622 287.3148,113.26771 C 292.98488,109.29921 295.25455,101.92757 292.98488,109.29921 C 290.71794,116.67085 292.98488,114.96382 289.01638,118.36695 C 285.04787,121.77009 285.61596,121.77009 282.21282,122.33546 C 278.81242,122.9063 283.34903,122.34093 289.01638,122.9063 C 294.68644,123.47167 295.25181,124.03704 299.78842,124.03704 C 304.32229,124.03704 302.62345,122.33546 308.8589,122.33546 L 317.92939,119.50316 C 325.23303,116.23564 331.08003,110.34618 336.63572,105.3307 C 339.10587,108.7108 335.16687,114.03306 332.10185,117.80159 C 326.82597,123.51713 321.55008,127.48474 314.52625,129.70438 L 318.49475,131.97405 C 325.11955,132.21323 331.74434,134.00615 337.20382,137.64413 C 343.5103,141.60434 353.50691,141.29179 358.74519,139.91106 C 363.28089,138.2113 368.59345,137.77397 372.35226,134.81182 C 375.37576,131.7874 378.30214,124.97576 381.42275,125.7386 C 381.94012,129.71681 380.61244,132.91814 378.02235,136.50792 C 370.05674,146.57879 359.85764,152.3769 346.84239,150.11501 L 342.30578,150.11501 L 346.27429,152.38194 C 352.07149,156.14653 356.41207,161.07642 359.87866,165.42366 C 365.70051,172.70608 374.3385,180.66826 381.42275,186.39694 C 387.2649,191.07218 394.17527,194.48502 400.69718,195.47014 C 409.78313,196.40596 418.67485,188.99046 426.20705,188.66387 C 425.16565,197.08967 413.83076,201.53402 402.39874,201.70559 C 394.68831,201.74228 387.65766,201.1963 379.26747,197.44576 C 372.61608,194.09659 365.96467,188.51391 359.31328,181.86305 C 359.91967,189.17821 362.0798,193.87144 367.2503,199.43865 C 351.00693,197.09148 350.78644,188.7236 349.10934,180.16149 C 346.98589,184.81551 343.21161,192.67412 337.20382,191.50164 C 340.75439,186.23547 342.55702,179.12422 341.7377,172.78985 C 340.92486,166.91768 330.98384,161.72526 324.73292,156.92129 C 326.16833,160.69951 326.82687,164.38064 326.99987,168.25597 C 327.33272,172.88302 327.95691,177.21873 322.46326,182.42842 C 315.52431,187.99311 307.12875,190.25612 295.81992,189.80008 C 300.33924,187.58528 309.9082,182.65144 311.12585,177.32918 C 312.28054,172.23115 312.56125,166.84178 312.2593,161.45242 C 311.73457,156.5292 309.26764,152.38285 306.02387,147.84807 C 299.85603,139.64347 293.97952,136.19719 280.52855,130.80875 C 269.75256,126.87945 260.53029,127.80556 248.20058,126.30396 L 237.9939,125.38472 z "
           sodipodi:nodetypes="cccssssssccccccccccccccccccccccccccccccccccc" />
        <path
           style="fill:#fcef3c;stroke:#000000;stroke-width:3;stroke-opacity:1;stroke-miterlimit:4;stroke-dasharray:none;fill-opacity:1"
           d="M 223.52099,154.75267 C 228.56045,152.43901 234.4739,150.80506 238.93071,146.64632 C 242.0614,143.83772 249.95043,142.58289 256.77124,142.59042 C 263.82149,142.65059 272.32837,147.46906 277.04804,151.51068 C 282.45672,157.23484 285.14635,168.49413 281.91239,174.2183 L 277.85921,169.34847 C 274.96861,161.22428 271.39825,155.91627 265.6915,153.13304 L 258.39632,150.69951 C 252.09446,149.1039 247.92898,150.03313 242.98661,152.32186 C 237.8576,154.20033 229.32977,157.34119 223.52099,154.75267 z "
           id="polygon2341"
           sodipodi:nodetypes="cccccccccc" />
        <ellipse
           rx="2.97"
           cy="478.45001"
           ry="2.6719999"
           cx="471.716"
           sodipodi:cy="478.45001"
           sodipodi:cx="471.716"
           style="fill:#fcef3c;stroke:#000000;stroke-opacity:1;stroke-width:1.09839821;stroke-miterlimit:4;stroke-dasharray:none;fill-opacity:1"
           id="ellipse2343"
           transform="matrix(2.7312499,0,0,2.7312499,-1038.0898,-1144.716)"
           sodipodi:rx="2.97"
           sodipodi:ry="2.6719999" />
        <circle
           cy="477.70801"
           transform="matrix(2.7312499,0,0,2.7312499,-1038.0898,-1144.716)"
           r="1.039"
           cx="470.677"
           sodipodi:cy="477.70801"
           sodipodi:cx="470.677"
           style="fill:#fcef3c;stroke:#000000;stroke-opacity:1;stroke-width:1.09839821;stroke-miterlimit:4;stroke-dasharray:none;fill-opacity:1"
           id="circle2345"
           sodipodi:rx="1.039"
           sodipodi:ry="1.039" />
        <path
           style="fill:#fcef3c;stroke:#000000;stroke-width:3;stroke-opacity:1;stroke-miterlimit:4;stroke-dasharray:none;fill-opacity:1"
           d="M 265.6915,153.13304 C 266.85681,157.7261 266.95391,162.8047 265.6915,166.9122 C 264.10699,171.6982 260.28897,173.86225 251.90687,173.40437"
           id="polyline2347"
           sodipodi:nodetypes="ccc" />
        <path
           style="fill:#fcef3c;stroke:#000000;stroke-width:3;stroke-opacity:1;stroke-miterlimit:4;stroke-dasharray:none;fill-opacity:1"
           id="path2349"
           d="M 323.27171,197.73435 C 345.46093,214.13597 367.4977,236.3841 368.69513,266.67382 C 369.34983,283.46983 371.82021,307.59549 368.33163,314.78246 C 363.33599,325.84276 359.98489,334.55372 357.33859,351.01756"
           sodipodi:nodetypes="cscc" />
        <path
           style="fill:#fcef3c;stroke:#000000;stroke-width:3;stroke-opacity:1;stroke-miterlimit:4;stroke-dasharray:none;fill-opacity:1"
           id="path2351"
           d="M 317.59617,226.93414 C 326.17289,233.80577 330.68669,240.85405 332.19744,251.25866 C 332.19744,251.25866 333.8198,252.06983 334.63098,254.50337 C 336.14589,259.04805 338.04152,262.98834 338.68689,268.29072"
           sodipodi:nodetypes="ccsc" />
        <path
           style="fill:#fcef3c;stroke:#000000;stroke-width:3;stroke-opacity:1;stroke-miterlimit:4;stroke-dasharray:none;fill-opacity:1"
           id="path2353"
           d="M 214.60073,171.78747 C 222.73831,171.29439 231.16719,174.78274 234.0609,175.84338 C 234.0609,175.84338 241.3588,175.84338 242.16997,178.27692 C 242.98389,180.71047 246.22315,179.8911 247.84825,182.3301 C 249.4706,184.76365 251.90141,185.57482 251.90141,185.57482 C 258.67808,191.50919 258.07449,199.67706 252.7126,200.17335"
           sodipodi:nodetypes="ccsscc" />
        <path
           style="fill:#fcef3c;stroke:#000000;stroke-width:3;stroke-opacity:1;stroke-miterlimit:4;stroke-dasharray:none;fill-opacity:1"
           id="path2355"
           d="M 218.65664,162.86176 C 236.59872,165.84101 244.15021,177.94845 260.82988,179.08265"
           sodipodi:nodetypes="cc" />
        <path
           style="fill:#fcef3c;stroke:#000000;stroke-width:3;stroke-opacity:1;stroke-miterlimit:4;stroke-dasharray:none;fill-opacity:1"
           d="M 261.63831,186.37781 C 266.77661,190.53838 265.31153,191.7857 265.6915,194.48963 C 266.02558,196.92408 267.42789,197.90191 264.07186,201.79299"
           id="polyline2357"
           sodipodi:nodetypes="ccc" />
        <path
           style="fill:#fcef3c;stroke:#000000;stroke-width:3;stroke-opacity:1;stroke-miterlimit:4;stroke-dasharray:none;fill-opacity:1"
           id="path2359"
           d="M 265.63454,194.164 C 278.04212,193.79373 292.78031,197.21072 297.32211,201.79299"
           sodipodi:nodetypes="cc" />
        <path
           style="fill:#fcef3c;stroke:#000000;stroke-width:3;stroke-opacity:1;stroke-miterlimit:4;stroke-dasharray:none;fill-opacity:1"
           id="path2361"
           d="M 253.52651,205.03499 C 265.56839,207.10358 282.62559,205.3543 289.15611,205.84616 C 296.19084,206.37599 301.30336,221.60157 324.89407,222.8755"
           sodipodi:nodetypes="csc" />
        <path
           style="fill:#fcef3c;stroke:#000000;stroke-width:3;stroke-opacity:1;stroke-miterlimit:4;stroke-dasharray:none;fill-opacity:1"
           id="path2363"
           d="M 334.62825,342.09456 L 333.00589,354.25681 C 328.9825,357.50063 326.61726,360.66028 325.70525,363.98826 C 324.43076,368.63902 320.46501,372.26588 316.785,375.3448 C 315.41135,378.30737 312.80115,381.4466 309.48436,382.6427"
           sodipodi:nodetypes="ccscc" />
        <path
           style="fill:#fcef3c;stroke:#000000;stroke-width:3;stroke-opacity:1;stroke-miterlimit:4;stroke-dasharray:none;fill-opacity:1"
           d="M 320.02971,336.41356 C 314.97606,347.49499 315.3985,351.51044 303.80882,355.87919 C 302.52983,359.0184 299.83764,361.80435 297.32209,363.17709"
           id="polyline2365"
           sodipodi:nodetypes="ccc" />
        <path
           style="fill:#fcef3c;stroke:#000000;stroke-width:3;stroke-opacity:1;stroke-miterlimit:4;stroke-dasharray:none;fill-opacity:1"
           id="path2367"
           d="M 413.2937,290.18989 C 413.2937,290.18989 417.88455,295.9113 418.96925,301.54097 C 420.53287,309.65635 420.56993,316.49553 419.78043,323.44286 C 419.78043,323.44286 417.80475,326.43613 417.34689,329.92957 C 417.01353,332.47301 418.96925,338.03866 418.96925,338.03866"
           sodipodi:nodetypes="cscsc" />
        <path
           style="fill:#fcef3c;stroke:#000000;stroke-width:3;stroke-opacity:1;stroke-miterlimit:4;stroke-dasharray:none;fill-opacity:1"
           id="path2369"
           sodipodi:nodetypes="ccc"
           d="M 191.89313,398.04968 C 191.75322,404.1691 221.69101,412.16837 230.01045,412.64821 C 247.39692,412.70311 263.21686,418.08427 280.29003,417.51257" />
        <path
           style="fill:#fcef3c;stroke:#000000;stroke-width:3;stroke-opacity:1;stroke-miterlimit:4;stroke-dasharray:none;fill-opacity:1"
           id="path2371"
           d="M 258.39634,468.60333 C 268.62565,452.67954 279.48158,444.27518 290.02421,432.1111"
           sodipodi:nodetypes="cc" />
        <path
           style="fill:#fcef3c;stroke:#000000;stroke-width:3;stroke-opacity:1;stroke-miterlimit:4;stroke-dasharray:none;fill-opacity:1"
           id="path2373"
           d="M 266.50268,473.47314 C 271.62727,467.12807 274.24536,462.66286 276.23685,457.25772 C 284.88763,445.0189 295.10495,439.98618 302.18918,428.06066 C 307.92145,418.3283 318.35335,413.60889 324.08562,398.86359"
           sodipodi:nodetypes="cccc" />
        <path
           style="fill:#fcef3c;stroke:#000000;stroke-width:3;stroke-opacity:1;stroke-miterlimit:4;stroke-dasharray:none;fill-opacity:1"
           id="path2375"
           d="M 354.09113,438.60055 C 354.09113,438.60055 353.27995,438.60055 353.27995,432.92501 C 353.27995,427.24947 358.14704,416.70412 358.14704,416.70412 C 361.96415,404.38417 367.01782,394.53729 374.36793,383.45388"
           sodipodi:nodetypes="cscc" />
      </g>
    </g>
  </g>
  <g
     inkscape:groupmode="layer"
     id="layer4"
     inkscape:label="Meubles"
     sodipodi:insensitive="true" />
  <g
     inkscape:groupmode="layer"
     id="layer2"
     inkscape:label="Reflet final"
     sodipodi:insensitive="true">
    <path
       sodipodi:nodetypes="cccccc"
       d="M 300.00001,658.5 C 300.00001,658.5 598.50001,546.17969 598.50001,260.72817 C 598.50001,-24.723334 598.50001,2.1764865 598.50001,2.1764865 L 1.5,2.1764865 L 1.5,260.72817 C 1.5,546.17969 300.00001,658.5 300.00001,658.5 z "
       style="opacity:1;fill:url(#radialGradient3163);fill-opacity:1;fill-rule:evenodd;stroke:none;stroke-width:1px;stroke-linecap:butt;stroke-linejoin:miter;stroke-opacity:1"
       id="path2875"
       inkscape:export-xdpi="144"
       inkscape:export-ydpi="144" />
  </g>
  <g
     inkscape:groupmode="layer"
     id="layer1"
     inkscape:label="Contour final"
     sodipodi:insensitive="true">
    <path
       sodipodi:nodetypes="cccccc"
       d="M 299.99999,658.50028 C 299.99999,658.50028 1.5,546.17992 1.5,260.72828 C 1.5,-24.723336 1.5,2.1764957 1.5,2.1764957 L 598.49999,2.1764957 L 598.49999,260.72828 C 598.49999,546.17992 299.99999,658.50028 299.99999,658.50028 z "
       style="opacity:1;fill:none;fill-opacity:1;fill-rule:evenodd;stroke:#000000;stroke-width:3.00000048;stroke-linecap:butt;stroke-linejoin:miter;stroke-miterlimit:4;stroke-dasharray:none;stroke-opacity:1"
       id="path1411"
       inkscape:export-xdpi="144"
       inkscape:export-ydpi="144" />
  </g>
</svg>
