<?xml version="1.0" encoding="UTF-8" standalone="no"?>
<!-- Created with Inkscape (http://www.inkscape.org/) -->
<svg
   xmlns:svg="http://www.w3.org/2000/svg"
   xmlns="http://www.w3.org/2000/svg"
   xmlns:xlink="http://www.w3.org/1999/xlink"
   version="1.0"
   width="600"
   height="660"
   id="svg2">
  <desc
     id="desc4">Flag of Canton of Valais (Wallis)</desc>
  <defs
     id="defs6">
    <linearGradient
       id="linearGradient2893">
      <stop
         style="stop-color:#ffffff;stop-opacity:0.3137255"
         offset="0"
         id="stop2895" />
      <stop
         style="stop-color:#ffffff;stop-opacity:0.25098041"
         offset="0.19"
         id="stop2897" />
      <stop
         style="stop-color:#6b6b6b;stop-opacity:0.1254902"
         offset="0.60000002"
         id="stop2901" />
      <stop
         style="stop-color:#000000;stop-opacity:0.1254902"
         offset="1"
         id="stop2899" />
    </linearGradient>
    <linearGradient
       id="linearGradient2885">
      <stop
         style="stop-color:#ffffff;stop-opacity:1"
         offset="0"
         id="stop2887" />
      <stop
         style="stop-color:#ffffff;stop-opacity:1"
         offset="0.22857143"
         id="stop2891" />
      <stop
         style="stop-color:#000000;stop-opacity:1"
         offset="1"
         id="stop2889" />
    </linearGradient>
    <linearGradient
       id="linearGradient2955">
      <stop
         style="stop-color:#fd0000;stop-opacity:1"
         offset="0"
         id="stop2867" />
      <stop
         style="stop-color:#e77275;stop-opacity:0.65882355"
         offset="0.5"
         id="stop2873" />
      <stop
         style="stop-color:#000000;stop-opacity:0.32291666"
         offset="1"
         id="stop2959" />
    </linearGradient>
    <radialGradient
       cx="225.52438"
       cy="218.90099"
       r="300"
       fx="225.52438"
       fy="218.90099"
       id="radialGradient2961"
       xlink:href="#linearGradient2955"
       gradientUnits="userSpaceOnUse"
       gradientTransform="matrix(-4.167939e-4,2.182867,-1.884232,-3.599562e-4,615.5972,-289.1214)" />
    <polygon
       points="0,-1 0.58778525,0.80901699 -0.95105652,-0.30901699 0.95105652,-0.30901699 -0.58778525,0.80901699 0,-1 "
       transform="scale(53,53)"
       id="star" />
    <clipPath
       id="clip">
      <path
         d="M 0,-200 L 0,600 L 300,600 L 300,-200 L 0,-200 z "
         id="path10" />
    </clipPath>
    <radialGradient
       cx="225.52438"
       cy="218.90099"
       r="300"
       fx="225.52438"
       fy="218.90099"
       id="radialGradient1911"
       xlink:href="#linearGradient2955"
       gradientUnits="userSpaceOnUse"
       gradientTransform="matrix(-4.167939e-4,2.182867,-1.884232,-3.599562e-4,615.5972,-289.1214)" />
    <radialGradient
       cx="225.52438"
       cy="218.90099"
       r="300"
       fx="225.52438"
       fy="218.90099"
       id="radialGradient2865"
       xlink:href="#linearGradient2955"
       gradientUnits="userSpaceOnUse"
       gradientTransform="matrix(0,1.748721,-1.593162,-1.049767e-7,551.7876,-191.2898)" />
    <radialGradient
       cx="225.52438"
       cy="218.90099"
       r="300"
       fx="225.52438"
       fy="218.90099"
       id="radialGradient2871"
       xlink:href="#linearGradient2955"
       gradientUnits="userSpaceOnUse"
       gradientTransform="matrix(0,1.386237,-1.323286,-5.741131e-8,-158.0823,-109.5408)" />
    <radialGradient
       cx="221.44487"
       cy="226.33101"
       r="300"
       fx="221.44487"
       fy="226.33101"
       id="radialGradient3163"
       xlink:href="#linearGradient2893"
       gradientUnits="userSpaceOnUse"
       gradientTransform="matrix(1.353218,0,0,1.348928,-77.62935,-85.74693)" />
    <radialGradient
       cx="225.52438"
       cy="218.90099"
       r="300"
       fx="225.52438"
       fy="218.90099"
       id="radialGradient6372"
       xlink:href="#linearGradient2955"
       gradientUnits="userSpaceOnUse"
       gradientTransform="matrix(0,1.386237,-1.323286,-5.741131e-8,-158.0823,-109.5408)" />
    <radialGradient
       cx="225.52438"
       cy="218.90099"
       r="300"
       fx="225.52438"
       fy="218.90099"
       id="radialGradient6370"
       xlink:href="#linearGradient2955"
       gradientUnits="userSpaceOnUse"
       gradientTransform="matrix(0,1.748721,-1.593162,-1.049767e-7,551.7876,-191.2898)" />
    <radialGradient
       cx="225.52438"
       cy="218.90099"
       r="300"
       fx="225.52438"
       fy="218.90099"
       id="radialGradient6368"
       xlink:href="#linearGradient2955"
       gradientUnits="userSpaceOnUse"
       gradientTransform="matrix(-4.167939e-4,2.182867,-1.884232,-3.599562e-4,615.5972,-289.1214)" />
    <clipPath
       id="clipPath6364">
      <path
         d="M 0,-200 L 0,600 L 300,600 L 300,-200 L 0,-200 z "
         id="path6366" />
    </clipPath>
    <polygon
       points="0,-1 0.58778525,0.80901699 -0.95105652,-0.30901699 0.95105652,-0.30901699 -0.58778525,0.80901699 0,-1 "
       transform="scale(53,53)"
       id="polygon6362" />
    <radialGradient
       cx="225.52438"
       cy="218.90099"
       r="300"
       fx="225.52438"
       fy="218.90099"
       id="radialGradient6360"
       xlink:href="#linearGradient2955"
       gradientUnits="userSpaceOnUse"
       gradientTransform="matrix(-4.167939e-4,2.182867,-1.884232,-3.599562e-4,615.5972,-289.1214)" />
    <linearGradient
       id="linearGradient6352">
      <stop
         style="stop-color:#fd0000;stop-opacity:1"
         offset="0"
         id="stop6354" />
      <stop
         style="stop-color:#e77275;stop-opacity:0.65882355"
         offset="0.5"
         id="stop6356" />
      <stop
         style="stop-color:#000000;stop-opacity:0.32291666"
         offset="1"
         id="stop6358" />
    </linearGradient>
    <linearGradient
       id="linearGradient6344">
      <stop
         style="stop-color:#ffffff;stop-opacity:1"
         offset="0"
         id="stop6346" />
      <stop
         style="stop-color:#ffffff;stop-opacity:1"
         offset="0.22857143"
         id="stop6348" />
      <stop
         style="stop-color:#000000;stop-opacity:1"
         offset="1"
         id="stop6350" />
    </linearGradient>
    <linearGradient
       id="linearGradient6334">
      <stop
         style="stop-color:#ffffff;stop-opacity:0.3137255"
         offset="0"
         id="stop6336" />
      <stop
         style="stop-color:#ffffff;stop-opacity:0.25098041"
         offset="0.19"
         id="stop6338" />
      <stop
         style="stop-color:#6b6b6b;stop-opacity:0.1254902"
         offset="0.60000002"
         id="stop6340" />
      <stop
         style="stop-color:#000000;stop-opacity:0.1254902"
         offset="1"
         id="stop6342" />
    </linearGradient>
  </defs>
  <g
     style="display:inline"
     id="layer3">
    <path
       d="M 300,657.3861 C 300,657.3861 598.50001,545.06579 598.50001,259.61427 C 598.50001,-25.83725 598.50001,1.0625806 598.50001,1.0625806 L 1.5,1.0625806 L 1.5,259.61427 C 1.5,545.06579 300,657.3861 300,657.3861 z "
       style="fill:#e20909;fill-opacity:1;fill-rule:evenodd;stroke:none;stroke-width:1px;stroke-linecap:butt;stroke-linejoin:miter;stroke-opacity:1"
       id="path2855" />
    <g
       transform="translate(-58.36439,184.07224)"
       id="g3208" />
  </g>
  <g
     id="layer4">
    <g
       transform="matrix(1.2060327,0,0,1.2060327,-1.9433031,-285.51793)"
       style="display:inline"
       id="g23241">
      <path
         d="M 311.15535,557.51279 C 306.74941,576.60884 301.17268,576.60884 296.98244,557.51279 C 292.7922,538.41672 291.49814,514.91136 296.11973,495.81531 C 300.74136,476.71924 308.25914,476.71924 312.88074,495.81531 C 317.50238,514.91136 315.56129,538.41672 311.15535,557.51279 z "
         style="fill:#fcef3c;fill-opacity:1;fill-rule:nonzero;stroke:#000000;stroke-width:1.6206044;stroke-miterlimit:4;stroke-dasharray:none;stroke-opacity:1"
         id="path18781" />
      <path
         d="M 309.23061,566.91524 C 309.38737,566.48222 309.54075,566.05504 309.68359,565.6244 L 297.06326,557.24837 C 297.18903,557.86229 297.32119,558.47245 297.45325,559.08421 L 309.23061,566.91524 z M 311.44513,559.19894 C 311.55154,558.74109 311.65678,558.28119 311.7597,557.82208 L 295.2513,546.85006 C 295.33702,547.44424 295.42386,548.03564 295.51554,548.62852 L 311.44513,559.19894 z M 313.11864,551.13846 C 313.20599,550.66543 313.29929,550.19257 313.38287,549.71855 L 294.10633,536.925 C 294.15442,537.49045 294.20341,538.05268 294.25725,538.6174 L 313.11864,551.13846 z M 314.45241,542.83415 C 314.51777,542.35161 314.57982,541.86878 314.64114,541.38555 L 293.56516,527.38723 C 293.57956,527.92683 293.59582,528.46848 293.61558,529.00792 L 314.45241,542.83415 z M 315.3835,534.27163 C 315.42537,533.77359 315.47199,533.27852 315.50932,532.78002 L 293.59038,518.22235 C 293.57339,518.74447 293.56432,519.26329 293.55265,519.78567 L 315.3835,534.27163 z M 315.89941,525.43664 C 315.91471,524.91706 315.92695,524.39299 315.93713,523.87331 L 294.14406,509.40171 C 294.09748,509.90195 294.05965,510.40682 294.01822,510.90766 L 315.89941,525.43664 z M 315.89941,516.25742 C 315.88331,515.7169 315.871,515.17699 315.84907,514.63673 L 295.21357,500.93962 C 295.1812,501.10563 295.14543,501.27651 295.11291,501.44159 C 295.0655,501.75349 295.01977,502.06164 294.97453,502.37387 L 315.89941,516.25742 z M 315.30802,506.69096 C 315.23249,506.11588 315.15895,505.53544 315.08153,504.95554 L 296.88699,492.86478 C 296.77276,493.32274 296.66459,493.78005 296.55997,494.2416 L 315.30802,506.69096 z "
         style="fill:#000000;fill-opacity:1;fill-rule:nonzero;stroke:none;stroke-width:5;stroke-miterlimit:4;stroke-opacity:1"
         id="path18783" />
      <g
         transform="matrix(-0.684626,0,0,-0.435177,486.0391,654.05754)"
         id="g18785">
        <path
           d="M 244.45691,371.58029 L 285.87317,371.58029 L 279.87317,757.43822 L 265.16504,790.79361 L 250.45691,757.43822 L 244.45691,371.58029 z "
           style="fill:#ffffff;fill-opacity:1;fill-rule:nonzero;stroke:#000000;stroke-width:2.96904898;stroke-miterlimit:4;stroke-dasharray:none;stroke-opacity:1"
           id="path18787" />
        <path
           d="M 263.40801,375.0625 L 264.28391,742.09375 L 266.92206,375.0625 L 263.40801,375.0625 z "
           style="fill:#000000;fill-opacity:1;fill-rule:evenodd;stroke:none;stroke-width:4;stroke-linecap:butt;stroke-linejoin:miter;stroke-miterlimit:4;stroke-dasharray:none;stroke-opacity:1"
           id="path18789" />
      </g>
      <rect
         width="69.822075"
         height="9.2176085"
         x="-339.41125"
         y="-496.48901"
         transform="scale(-1,-1)"
         style="fill:#fcef3c;fill-opacity:1;fill-rule:nonzero;stroke:#000000;stroke-width:1.6206044;stroke-miterlimit:4;stroke-dasharray:none;stroke-opacity:1"
         id="rect18791" />
      <path
         d="M 293.00931,501.9319 C 288.0113,502.37846 285.4444,502.69592 279.69808,506.54052 C 279.69942,509.58112 278.46269,512.62172 282.50398,515.66232 C 273.7516,514.87595 273.93357,522.55911 279.86829,526.4838 C 274.73581,525.36966 274.5744,535.88413 284.50109,540.6875 C 281.57635,539.72089 281.49222,547.33995 286.05644,549.37315 C 289.25115,550.33222 291.27655,551.27852 294.25353,551.93353 C 310.51399,552.66472 301.11646,543.49078 292.58266,542.83881 C 309.79916,548.2742 310.31423,536.50846 295.84294,533.1712 C 312.51183,536.61027 309.09825,521.75837 298.34367,521.29388 C 311.11933,523.30032 305.75622,512.3379 296.59332,510.82841 L 291.6066,508.14681 L 293.00931,501.9319 z "
         style="fill:#ffffff;fill-opacity:1;fill-rule:evenodd;stroke:#000000;stroke-width:1.6206044;stroke-linecap:butt;stroke-linejoin:miter;stroke-miterlimit:4;stroke-dasharray:none;stroke-opacity:1;display:inline"
         id="path15830" />
      <path
         d="M 288.03566,501.39809 C 281.07591,501.39968 279.57735,512.11618 292.29505,512.46428 C 296.52254,513.16149 300.45912,513.20145 304.54115,511.51368 C 306.53853,514.29888 310.78215,515.43466 315.33231,515.53054 C 315.79745,527.82307 314.57117,543.02607 311.62428,555.81376 C 321.31853,555.36751 335.30592,545.93239 343.21304,546.88472 C 374.28755,553.62272 362.20866,554.02475 396.04973,550.02053 L 422.93842,506.86712 C 397.10124,507.41878 362.94237,515.81117 346.37199,513.24766 C 326.54675,501.77789 326.31887,498.96211 319.02683,498.66358 C 310.86887,499.24845 307.02135,497.45023 301.70823,496.84056 C 298.75142,497.54021 293.81679,501.53624 288.03566,501.39809 z "
         style="fill:#ffffff;fill-opacity:1;fill-rule:evenodd;stroke:#000000;stroke-width:1.6206044;stroke-linecap:butt;stroke-linejoin:miter;stroke-miterlimit:4;stroke-dasharray:none;stroke-opacity:1;display:inline"
         id="path16951" />
      <path
         d="M 315.33344,516.79177 C 316.06466,531.96292 313.72112,547.17506 310.60032,559.76859"
         style="fill:none;fill-opacity:1;fill-rule:nonzero;stroke:#000000;stroke-width:1.6206044;stroke-miterlimit:4;stroke-dasharray:none;stroke-opacity:1;display:inline"
         id="path16953" />
      <path
         d="M 282.47223,516.06985 C 287.37035,520.43829 292.73877,520.63806 299.42947,521.45121"
         style="fill:none;fill-rule:evenodd;stroke:#000000;stroke-width:1.6206044;stroke-linecap:butt;stroke-linejoin:miter;stroke-miterlimit:4;stroke-dasharray:none;stroke-opacity:1"
         id="path22348" />
      <path
         d="M 278.9206,525.90764 C 283.7616,530.34898 292.06252,532.98905 298.45596,533.46665"
         style="fill:none;fill-rule:evenodd;stroke:#000000;stroke-width:1.6206044;stroke-linecap:butt;stroke-linejoin:miter;stroke-miterlimit:4;stroke-dasharray:none;stroke-opacity:1"
         id="path22350" />
      <path
         d="M 282.27675,539.02336 C 286.83527,542.29478 289.61288,541.98441 295.66616,543.64289"
         style="fill:none;fill-rule:evenodd;stroke:#000000;stroke-width:1.6206044;stroke-linecap:butt;stroke-linejoin:miter;stroke-miterlimit:4;stroke-dasharray:none;stroke-opacity:1"
         id="path22352" />
    </g>
    <path
       d="M 471.67435,305.1321 C 467.72681,289.73332 482.71826,282.13743 483.17838,286.29174 C 489.60655,267.16736 504.39484,271.82696 510.22517,285.781 C 628.55025,251.4143 519.78125,430.71994 487.45726,497.39225 C 458.10796,485.90163 478.74144,513.34551 456.03676,501.68133 C 433.81935,490.26748 450.35794,473.66633 459.14696,473.39378 C 448.34835,460.5586 446.46484,448.93397 456.98111,442.40164 C 440.43516,441.59186 443.9627,420.37309 454.95691,413.21612 C 442.81767,409.9216 434.81899,397.1727 448.3246,390.49061 C 428.38812,381.02862 443.97714,363.80788 451.15489,367.60902 C 443.47153,362.12211 444.43402,344.54707 454.11551,342.75587 C 449.23547,337.58965 451.74231,308.7019 471.67435,305.1321 z "
       style="fill:#2b5df2;fill-opacity:1;fill-rule:evenodd;stroke:#000000;stroke-width:1.7729739;stroke-linecap:butt;stroke-linejoin:miter;stroke-miterlimit:4;stroke-dasharray:none;stroke-opacity:1;display:inline"
       id="path18863" />
    <g
       transform="matrix(-0.938787,0,0,0.938787,569.62643,-164.94183)"
       id="g5255">
      <g
         transform="matrix(1,0,0,0.9659813,64.072623,211.38293)"
         style="display:inline"
         id="g23923">
        <g
           transform="translate(-4.988001,0)"
           id="g9368">
          <path
             d="M 306.00848,44.747667 C 329.89109,46.398644 348.75869,66.417191 348.75869,90.731088 C 348.75869,94.698689 348.26748,98.555783 347.32171,102.22694 L 334.02963,102.22694 C 335.33644,98.664967 336.0414,94.748278 336.0414,90.731088 C 336.04141,72.940678 322.05875,58.356542 304.49965,57.464957 C 303.93323,57.436196 303.3488,57.464957 302.77527,57.464957 C 284.42245,57.464957 269.58099,72.366793 269.58099,90.731088 C 269.58098,99.913236 273.29135,108.22977 279.29582,114.25076 C 285.30029,120.27176 292.42083,125.26158 296.96587,128.56175 C 301.55411,131.89329 303.34723,136.50109 303.32586,141.27904 C 303.30449,146.05698 302.70342,174.93823 302.70342,174.93823 L 288.90839,174.93823 C 288.90839,174.93823 288.90839,164.84343 288.90839,154.74864 C 288.90839,144.65384 290.07491,138.75058 286.21117,135.59643 C 282.22164,132.33959 271.576,125.79772 265.87267,118.146 C 260.16935,110.49429 256.79185,101.00892 256.79185,90.731088 C 256.79185,65.338454 277.39851,44.747667 302.77527,44.747667 C 303.46916,44.747667 304.17247,44.717173 304.85889,44.747667 C 305.04965,44.756141 305.24354,44.736863 305.43369,44.747667 C 305.62235,44.758387 305.82043,44.734667 306.00848,44.747667 z "
             style="fill:#fcef3c;fill-opacity:1;fill-rule:nonzero;stroke:#000000;stroke-width:1.99999988;stroke-miterlimit:4;stroke-dasharray:none;stroke-opacity:1"
             id="path12604" />
          <path
             d="M 317.93882,133.02681 C 313.71842,136.82097 313.29257,140.22538 316.23583,142.03423 C 319.17909,143.84308 321.34241,142.67299 321.34241,142.67299 C 321.34241,142.67299 312.43606,154.26319 305.49014,147.31727 C 302.90112,144.72825 300.66784,139.79874 303.93068,136.74922 C 307.19353,133.69969 306.84724,135.1753 309.7823,133.73538 C 305.04067,130.22068 299.07268,131.81947 299.07268,131.81947 C 299.07268,131.81947 300.83181,123.81074 310.6025,121.44196 C 314.1172,120.58987 324.29498,118.42493 327.6698,114.9414 C 322.12306,118.30468 312.67445,119.75935 310.17363,119.08926 C 294.9734,115.01637 292.26724,108.16773 290.28055,100.75331 C 289.38642,97.416353 287.69216,96.107438 284.92615,95.185178 C 282.16012,94.262904 275.53386,85.01181 277.66191,81.820328 C 280.82733,84.853211 284.4613,86.685464 289.85628,86.754422 C 285.49977,82.673782 286.75591,78.808797 284.94746,77.141898 C 283.13898,75.474992 280.31794,72.133948 280.31794,72.133948 C 280.31794,72.133948 286.80444,67.853427 293.61469,74.814244 C 292.12581,68.288956 293.72377,61.709024 296.52546,60.042507 C 299.32716,58.375988 308.51222,56.355387 308.51222,56.355387 C 308.51222,56.355387 301.5254,63.837454 303.12093,67.206556 C 304.71648,70.575661 307.96298,73.670127 307.96298,73.670127 L 308.93689,66.781501 C 308.93689,66.781501 319.21792,67.001139 317.30513,76.333939 C 316.15839,81.929041 310.5596,82.738559 308.15118,87.619409 C 312.79705,85.031018 325.08462,88.428966 322.49583,88.393293 C 319.90705,88.357609 314.89242,92.882651 311.45234,95.045567 C 308.01226,97.208517 308.88796,102.71794 311.44105,105.3424 C 313.99416,107.96688 318.43719,110.61435 324.21784,108.1679 C 329.99849,105.72145 332.41041,100.26039 332.41041,100.26039 C 332.41041,100.26039 335.49604,96.324283 332.41041,100.26039 C 329.32482,104.1965 324.53742,103.30953 321.91336,101.25246 C 319.28928,99.195401 317.60775,96.290976 318.01836,92.838475 C 339.54649,98.018449 341.78231,74.701734 344.94373,71.607277 C 362.37155,115.0571 322.1592,129.23265 317.93882,133.02681 z "
             style="fill:#fcef3c;fill-opacity:1;fill-rule:evenodd;stroke:#000000;stroke-width:1.99999988;stroke-linecap:butt;stroke-linejoin:miter;stroke-miterlimit:4;stroke-dasharray:none;stroke-opacity:1"
             id="path11679" />
          <path
             d="M 330.95066,110.14824 C 317.0496,118.03242 309.99533,114.09033 307.71307,112.4305 C 305.43081,110.77067 300.24385,103.50893 299.20645,94.379875 C 298.16906,85.250821 300.86628,75.706811 300.86628,75.706811 C 300.86628,75.706811 302.94107,78.61151 300.86628,75.706811 C 298.7915,72.802114 297.13167,67.407673 297.96158,66.162802 C 298.7915,64.91793 300.45133,62.220711 300.45133,62.220711"
             style="fill:none;fill-opacity:1;fill-rule:evenodd;stroke:#000000;stroke-width:1.99999988;stroke-linecap:butt;stroke-linejoin:miter;stroke-miterlimit:4;stroke-dasharray:none;stroke-opacity:1"
             id="path15234" />
          <path
             d="M 311.24021,74.876897 C 311.65516,77.781596 307.92055,82.346122 305.84576,84.005951 C 303.77098,85.665778 299.82889,87.948041 299.82889,87.948041"
             style="fill:#fcef3c;fill-opacity:1;fill-rule:evenodd;stroke:#000000;stroke-width:1.99999988;stroke-linecap:butt;stroke-linejoin:miter;stroke-miterlimit:4;stroke-dasharray:none;stroke-opacity:1"
             id="path15236" />
          <path
             d="M 286.55027,73.424548 C 291.52975,75.91429 291.52975,78.61151 292.56714,81.308732 C 293.60453,84.005951 298.58402,87.948041 298.58402,87.948041"
             style="fill:#fcef3c;fill-opacity:1;fill-rule:evenodd;stroke:#000000;stroke-width:1.99999988;stroke-linecap:butt;stroke-linejoin:miter;stroke-miterlimit:4;stroke-dasharray:none;stroke-opacity:1"
             id="path15238" />
          <path
             d="M 282.04816,88.15552 C 286.86054,93.135003 292.76664,92.720046 294.73534,93.54996 C 296.70404,94.379875 299.76647,96.869615 299.76647,96.869615"
             style="fill:#fcef3c;fill-opacity:1;fill-rule:evenodd;stroke:#000000;stroke-width:1.99999988;stroke-linecap:butt;stroke-linejoin:miter;stroke-miterlimit:4;stroke-dasharray:none;stroke-opacity:1"
             id="path15240" />
          <path
             d="M 313.31499,89.192913 C 306.4682,90.85274 304.39341,93.964918 303.77098,95.832225 C 303.14854,97.699531 302.52611,104.33884 302.52611,104.33884"
             style="fill:#fcef3c;fill-opacity:1;fill-rule:evenodd;stroke:#000000;stroke-width:1.99999988;stroke-linecap:butt;stroke-linejoin:miter;stroke-miterlimit:4;stroke-dasharray:none;stroke-opacity:1"
             id="path15242" />
          <path
             d="M 339.45728,89.192913 C 334.06284,96.454659 331.15814,97.492051 328.46092,98.321965 C 325.7637,99.15188 323.27396,97.699531 323.27396,97.699531"
             style="fill:#fcef3c;fill-opacity:1;fill-rule:evenodd;stroke:#000000;stroke-width:1.99999988;stroke-linecap:butt;stroke-linejoin:miter;stroke-miterlimit:4;stroke-dasharray:none;stroke-opacity:1"
             id="path16124" />
          <path
             d="M 305.84576,128.8213 C 310.20281,123.84182 315.80473,125.50164 318.70943,124.87921 C 321.61413,124.25677 329.49831,118.86233 329.49831,118.86233"
             style="fill:#fcef3c;fill-opacity:1;fill-rule:evenodd;stroke:#000000;stroke-width:1.99999988;stroke-linecap:butt;stroke-linejoin:miter;stroke-miterlimit:4;stroke-dasharray:none;stroke-opacity:1"
             id="path16126" />
          <path
             d="M 315.59725,145.00462 C 309.78786,146.45697 309.78786,144.17471 309.16542,141.47749 C 308.54298,138.78027 312.07012,132.55591 314.76734,131.10356 C 317.46456,129.65121 322.02909,124.46425 322.02909,124.46425"
             style="fill:none;fill-opacity:1;fill-rule:evenodd;stroke:#000000;stroke-width:1.99999988;stroke-linecap:butt;stroke-linejoin:miter;stroke-miterlimit:4;stroke-dasharray:none;stroke-opacity:1"
             id="path16128" />
          <g
             transform="matrix(-2.299171,0,0,2.299171,123.8468,32.3097)"
             style="fill:#fcef3c;fill-opacity:1;stroke:#000000;stroke-width:0.86987871;stroke-miterlimit:4;stroke-dasharray:none;stroke-opacity:1"
             id="g21648">
            <path
               d="M -79.37224,202.36688 C -80.635608,204.17169 -79.922712,209.23552 -84.43474,210.67938 C -76.52632,215.24531 -74.937212,231.92339 -74.90349,232.08563 C -74.859677,231.92212 -72.995283,215.09859 -65.34099,210.67938 C -69.853018,209.23552 -69.140117,204.17169 -70.40349,202.36688 C -70.597867,198.27332 -74.126146,198.96063 -75.24724,198.96063 C -76.368335,198.96063 -79.37224,198.76434 -79.37224,202.36688 z "
               style="fill:#fcef3c;fill-opacity:1;fill-rule:evenodd;stroke:#000000;stroke-width:0.86987871;stroke-linecap:butt;stroke-linejoin:miter;stroke-miterlimit:4;stroke-dasharray:none;stroke-opacity:1"
               id="path19895" />
            <path
               d="M -74.887865,229.22198 L -74.887865,205.875"
               style="fill:#fcef3c;fill-opacity:1;fill-rule:evenodd;stroke:#000000;stroke-width:0.86987871;stroke-linecap:butt;stroke-linejoin:miter;stroke-miterlimit:4;stroke-dasharray:none;stroke-opacity:1"
               id="path20773" />
          </g>
          <rect
             width="13.693581"
             height="315.26608"
             x="-302.87363"
             y="174.93213"
             transform="scale(-1,1)"
             style="fill:#fcef3c;fill-opacity:1;fill-rule:nonzero;stroke:#000000;stroke-width:1.99999988;stroke-miterlimit:4;stroke-dasharray:none;stroke-opacity:1"
             id="rect17044" />
          <g
             transform="matrix(-2.299171,0,0,2.299171,125.2717,36.90805)"
             style="fill:#fcef3c;fill-opacity:1;stroke:#000000;stroke-width:0.86987871;stroke-miterlimit:4;stroke-dasharray:none;stroke-opacity:1"
             id="g18799">
            <path
               d="M -68.384549,59.244157 C -68.320075,62.095593 -69.304823,62.059281 -74.267731,62.059281 C -79.147093,62.059281 -80.078183,61.951042 -80.150912,59.244157 C -80.227638,56.388473 -79.139577,56.429034 -74.267731,56.429034 C -69.666606,56.429034 -68.452387,56.243975 -68.384549,59.244157 z "
               style="fill:#fcef3c;fill-opacity:1;fill-rule:nonzero;stroke:#000000;stroke-width:0.86987871;stroke-miterlimit:4;stroke-dasharray:none;stroke-opacity:1"
               id="path17922" />
            <path
               d="M -67.335386,59.243743 C -67.259412,61.026133 -70.441137,61.003434 -74.267867,61.003434 C -78.094595,61.003434 -81.114646,60.935776 -81.200346,59.243743 C -81.290758,57.458698 -78.094595,57.484052 -74.267867,57.484052 C -70.441137,57.484052 -67.415324,57.368375 -67.335386,59.243743 z "
               style="fill:#fcef3c;fill-opacity:1;fill-rule:nonzero;stroke:#000000;stroke-width:0.86987871;stroke-miterlimit:4;stroke-dasharray:none;stroke-opacity:1"
               id="path17919" />
          </g>
          <g
             transform="matrix(-2.299171,0,0,2.299171,125.2717,355.94)"
             style="fill:#fcef3c;fill-opacity:1;stroke:#000000;stroke-width:0.86987871;stroke-miterlimit:4;stroke-dasharray:none;stroke-opacity:1"
             id="g19889">
            <path
               d="M -68.384549,59.244157 C -68.320075,62.095593 -69.304823,62.059281 -74.267731,62.059281 C -79.147093,62.059281 -80.078183,61.951042 -80.150912,59.244157 C -80.227638,56.388473 -79.139577,56.429034 -74.267731,56.429034 C -69.666606,56.429034 -68.452387,56.243975 -68.384549,59.244157 z "
               style="fill:#fcef3c;fill-opacity:1;fill-rule:nonzero;stroke:#000000;stroke-width:0.86987871;stroke-miterlimit:4;stroke-dasharray:none;stroke-opacity:1"
               id="path19891" />
            <path
               d="M -67.335386,59.243743 C -67.259412,61.026133 -70.441137,61.003434 -74.267867,61.003434 C -78.094595,61.003434 -81.114646,60.935776 -81.200346,59.243743 C -81.290758,57.458698 -78.094595,57.484052 -74.267867,57.484052 C -70.441137,57.484052 -67.415324,57.368375 -67.335386,59.243743 z "
               style="fill:#fcef3c;fill-opacity:1;fill-rule:nonzero;stroke:#000000;stroke-width:0.86987871;stroke-miterlimit:4;stroke-dasharray:none;stroke-opacity:1"
               id="path19893" />
          </g>
        </g>
      </g>
    </g>
    <g
       transform="matrix(-1.2060327,0,0,1.2060327,608.70562,-337.55465)"
       style="display:inline"
       id="g4163">
      <g
         transform="matrix(-0.684626,0,0,-0.435177,486.0391,654.05754)"
         id="g4169" />
      <path
         d="M 293.00931,501.9319 C 288.0113,502.37846 285.4444,502.69592 279.69808,506.54052 C 279.69942,509.58112 278.46269,512.62172 282.50398,515.66232 C 273.7516,514.87595 273.93357,522.55911 279.86829,526.4838 C 274.73581,525.36966 274.5744,535.88413 284.50109,540.6875 C 281.57635,539.72089 281.49222,547.33995 286.05644,549.37315 C 289.25115,550.33222 291.27655,551.27852 294.25353,551.93353 C 310.51399,552.66472 301.11646,543.49078 292.58266,542.83881 C 309.79916,548.2742 310.31423,536.50846 295.84294,533.1712 C 312.51183,536.61027 309.09825,521.75837 298.34367,521.29388 C 311.11933,523.30032 305.75622,512.3379 296.59332,510.82841 L 291.6066,508.14681 L 293.00931,501.9319 z "
         style="fill:#ffffff;fill-opacity:1;fill-rule:evenodd;stroke:#000000;stroke-width:1.6206044;stroke-linecap:butt;stroke-linejoin:miter;stroke-miterlimit:4;stroke-dasharray:none;stroke-opacity:1;display:inline"
         id="path4177" />
      <path
         d="M 288.03566,501.39809 C 281.07591,501.39968 279.57735,512.11618 292.29505,512.46428 C 296.52254,513.16149 300.45912,513.20145 304.54115,511.51368 C 306.53853,514.29888 310.78215,515.43466 315.33231,515.53054 C 315.79745,527.82307 314.57117,543.02607 311.62428,555.81376 C 321.31853,555.36751 335.30592,545.93239 343.21304,546.88472 C 374.28755,553.62272 362.20866,554.02475 396.04973,550.02053 L 422.93842,506.86712 C 397.10124,507.41878 362.94237,515.81117 346.37199,513.24766 C 326.54675,501.77789 326.31887,498.96211 319.02683,498.66358 C 310.86887,499.24845 307.02135,497.45023 301.70823,496.84056 C 298.75142,497.54021 293.81679,501.53624 288.03566,501.39809 z "
         style="fill:#ffffff;fill-opacity:1;fill-rule:evenodd;stroke:#000000;stroke-width:1.6206044;stroke-linecap:butt;stroke-linejoin:miter;stroke-miterlimit:4;stroke-dasharray:none;stroke-opacity:1;display:inline"
         id="path4179" />
      <path
         d="M 282.47223,516.06985 C 287.37035,520.43829 292.73877,520.63806 299.42947,521.45121"
         style="fill:none;fill-rule:evenodd;stroke:#000000;stroke-width:1.6206044;stroke-linecap:butt;stroke-linejoin:miter;stroke-miterlimit:4;stroke-dasharray:none;stroke-opacity:1"
         id="path4183" />
      <path
         d="M 278.9206,525.90764 C 283.7616,530.34898 292.06252,532.98905 298.45596,533.46665"
         style="fill:none;fill-rule:evenodd;stroke:#000000;stroke-width:1.6206044;stroke-linecap:butt;stroke-linejoin:miter;stroke-miterlimit:4;stroke-dasharray:none;stroke-opacity:1"
         id="path4185" />
      <path
         d="M 282.27675,539.02336 C 286.83527,542.29478 289.61288,541.98441 295.66616,543.64289"
         style="fill:none;fill-rule:evenodd;stroke:#000000;stroke-width:1.6206044;stroke-linecap:butt;stroke-linejoin:miter;stroke-miterlimit:4;stroke-dasharray:none;stroke-opacity:1"
         id="path4187" />
    </g>
    <path
       d="M 132.24582,251.79993 C 136.19336,236.40115 121.20191,228.80526 120.74179,232.95957 C 114.31362,213.83519 99.525331,218.49479 93.695001,232.44883 C -16.832811,168.00694 -9.4283298,401.89347 116.46291,444.06008 C 145.81221,432.56946 125.17873,460.01334 147.88341,448.34916 C 170.10082,436.93531 153.56223,420.33416 144.77321,420.06161 C 155.57182,407.22643 157.45533,395.6018 146.93906,389.06947 C 163.48501,388.25969 159.95747,367.04092 148.96326,359.88395 C 161.1025,356.58943 169.10118,343.84053 155.59557,337.15844 C 175.53205,327.69645 159.94303,310.47571 152.76528,314.27685 C 160.44864,308.78994 159.48615,291.2149 149.80466,289.4237 C 154.6847,284.25748 152.17786,255.36973 132.24582,251.79993 z "
       style="fill:#2b5df2;fill-opacity:1;fill-rule:evenodd;stroke:#000000;stroke-width:1.7729739;stroke-linecap:butt;stroke-linejoin:miter;stroke-miterlimit:4;stroke-dasharray:none;stroke-opacity:1;display:inline"
       id="path4189" />
    <g
       transform="translate(-3.0453848,2.6482583)"
       id="g6374">
      <g
         transform="translate(-3.64567,-3.5469)"
         style="opacity:1;display:inline"
         id="g6376">
        <path
           d="M 6.77067,4.7344 L 6.77067,6.2344 L 6.77067,264.2969 C 6.7706699,550.277 305.11442,662.76565 305.11442,662.76565 L 305.64567,662.95315 L 306.17692,662.76565 C 306.17691,662.76564 604.52067,550.277 604.52067,264.2969 C 604.52066,121.82876 604.52067,57.321012 604.52067,28.4219 C 604.52065,14.79451 604.52067,9.9611837 604.52067,7.7344 C 604.52065,7.6000529 604.52067,6.5943811 604.52067,6.4844 C 604.52065,6.0011739 604.52067,5.7550231 604.52067,5.64065 C 604.52065,5.6120617 604.52067,5.5901583 604.52067,5.57815 C 604.52065,5.5721509 604.52067,5.5492557 604.52067,5.5469 C 604.52065,5.5467003 603.76787,5.5468301 603.02067,5.5469 L 603.02067,4.7344 L 8.27067,4.7344 L 6.77067,4.7344 z M 155.14567,37.45315 C 170.91458,37.861177 185.89948,62.791159 192.33317,78.01565 C 192.33317,78.015653 211.38298,37.45315 230.14567,37.45315 C 248.90836,37.45315 267.39567,78.01565 267.39567,78.01565 C 267.39567,78.015653 285.98746,37.59345 305.14567,37.45315 C 324.30388,37.31285 344.02067,77.45315 344.02067,77.45315 C 344.02066,77.453148 361.94417,37.45315 380.14567,37.45315 C 398.34717,37.45315 416.83317,77.45315 416.83317,77.45315 C 416.83317,77.453148 435.98746,37.45315 455.14567,37.45315 C 474.30388,37.45315 490.80192,79.2344 490.80192,79.2344 C 496.10882,62.845532 522.99034,27.98427 549.11442,52.70315 C 573.85069,76.108841 535.48669,112.3806 526.39567,112.7344 C 526.39567,112.7875 526.39567,113.02483 526.39567,113.07815 C 532.26928,116.03697 559.63309,130.69484 560.14567,147.45315 C 560.71956,166.21584 527.42692,187.51565 527.42692,187.51565 C 527.42694,187.51565 559.58317,207.78682 559.58317,226.4219 C 559.58319,245.05698 527.42692,262.0469 527.42692,262.0469 C 527.42694,262.04691 557.16228,287.98601 555.08317,306.95315 C 553.00408,325.92028 516.86442,349.70315 516.86442,349.70315 C 516.86443,349.70316 543.42431,384.69502 533.55192,407.9219 C 524.084,430.19711 483.60696,430.81483 480.27067,430.82815 C 480.11532,431.06939 479.95778,431.30634 479.80192,431.5469 C 480.66291,435.36473 490.28562,479.65212 476.33317,496.26565 C 461.75406,513.62534 421.33317,500.26565 421.33317,500.26565 C 421.33316,500.26565 429.91097,542.84215 413.52067,554.64065 C 397.38106,566.2587 357.22008,548.1075 355.98942,547.5469 C 355.85136,547.6295 355.72083,547.71475 355.58317,547.7969 C 354.59551,549.71777 330.09267,596.92402 306.27067,597.26565 C 281.95676,597.61435 258.48942,548.8594 258.48942,548.8594 C 258.48942,548.85942 217.23474,566.27123 200.14567,552.45315 C 183.26072,538.80013 189.9515,494.81846 190.11442,493.76565 C 190.07133,493.72504 190.03251,493.6813 189.98942,493.64065 C 189.09683,493.99625 147.40501,510.47112 134.02067,494.1719 C 121.05013,478.37657 134.64527,432.21412 135.80192,428.39065 C 135.657,428.1609 135.50886,427.9335 135.36442,427.70315 C 131.85943,427.84149 88.754261,429.09708 80.14567,407.45315 C 71.174598,384.89787 99.58317,348.6719 99.58317,348.6719 C 99.583169,348.67189 57.505372,326.77348 55.14567,307.64065 C 52.785967,288.50782 90.70817,260.9219 90.70817,260.9219 C 90.708172,260.92189 50.285968,244.26369 50.14567,225.9219 C 50.005372,207.58012 90.14567,187.5469 90.14567,187.5469 C 90.14567,187.54689 51.130372,165.71585 51.27067,146.95315 C 51.398522,129.85505 84.177574,116.38847 90.05192,114.1094 C 81.807202,114.09341 40.825437,82.153576 66.36442,52.6094 C 93.696208,20.991264 119.38504,64.560773 121.11442,79.57815 C 127.39548,66.755118 139.38768,37.045406 155.14567,37.45315 z M 90.05192,114.1094 C 90.584733,114.11043 90.975526,113.97804 91.20817,113.70315 L 91.20817,113.6719 C 91.176677,113.68343 90.593363,113.89934 90.05192,114.1094 z "
           style="fill:#ffffff;fill-opacity:1;fill-rule:evenodd;stroke:none;stroke-width:3;stroke-linecap:butt;stroke-linejoin:miter;stroke-miterlimit:4;stroke-opacity:1"
           id="path5919" />
        <path
           d="M 64.369947,52.806619 C 91.701727,21.188482 117.39199,64.751411 119.12137,79.768789 C 125.40243,66.945755 137.38804,37.246587 153.14603,37.654331 C 168.91494,38.062358 183.90636,62.991038 190.34005,78.21553 C 190.34005,78.21553 209.38334,37.654331 228.14603,37.654331 C 246.90872,37.654331 265.39081,78.21553 265.39081,78.21553 C 265.39081,78.21553 283.98782,37.794631 303.14603,37.654331 C 322.30424,37.514031 342.02364,77.65433 342.02364,77.65433 C 342.02364,77.65433 359.94453,37.654331 378.14603,37.654331 C 396.34753,37.654331 414.82962,77.65433 414.82962,77.65433 C 414.82962,77.65433 433.98782,37.654331 453.14603,37.654331 C 472.30424,37.654331 488.78679,79.440044 488.78679,79.440044 C 494.09368,63.051176 520.97912,28.189865 547.1032,52.908745 C 573.22729,77.627627 528.97083,116.69971 523.14602,112.65433 C 523.14602,112.65433 557.57213,128.89164 558.14602,147.65433 C 558.71991,166.41702 525.44157,187.7051 525.44157,187.7051 C 525.44157,187.7051 557.58482,207.99839 557.58482,226.63347 C 557.58482,245.26855 525.44157,262.24543 525.44157,262.24543 C 525.44157,262.24543 555.17437,288.17677 553.09526,307.14391 C 551.01615,326.11105 514.88038,349.89912 514.88038,349.89912 C 514.88038,349.89912 541.43635,384.88713 531.56396,408.11401 C 521.69157,431.34089 477.6356,431.02152 477.6356,431.02152 C 477.6356,431.02152 488.89828,479.12149 474.31918,496.48119 C 459.74008,513.84089 419.31918,500.46033 419.31918,500.46033 C 419.31918,500.46033 427.9035,543.04986 411.5132,554.84836 C 395.1229,566.64686 353.75799,547.65434 353.75799,547.65434 C 353.75799,547.65434 328.58234,597.10261 304.26842,597.45129 C 279.9545,597.79997 256.50232,549.04906 256.50232,549.04906 C 256.50232,549.04906 215.2351,566.47242 198.14603,552.65434 C 181.05696,538.83626 188.14603,493.77673 188.14603,493.77673 C 188.14603,493.77673 145.55257,510.86399 132.02364,494.38869 C 118.49471,477.91338 134.03032,427.87551 134.03032,427.87551 C 134.03032,427.87551 87.117097,430.20963 78.146027,407.65434 C 69.174957,385.09905 97.584837,348.87826 97.584837,348.87826 C 97.584837,348.87826 55.505727,326.99022 53.146027,307.85739 C 50.786327,288.72456 88.707217,261.12304 88.707217,261.12304 C 88.707217,261.12304 48.286327,244.46483 48.146037,226.12304 C 48.005737,207.78125 88.146027,187.75587 88.146027,187.75587 C 88.146027,187.75587 49.128127,165.90659 49.268427,147.14389 C 49.408727,128.38119 89.268417,113.82748 89.268417,113.82748 C 85.886087,118.78823 37.038157,84.424758 64.369947,52.806619 z "
           style="opacity:1;color:#000000;fill:none;fill-opacity:1;fill-rule:evenodd;stroke:#000000;stroke-width:3;stroke-linecap:butt;stroke-linejoin:miter;marker:none;marker-start:none;marker-mid:none;marker-end:none;stroke-miterlimit:4;stroke-dashoffset:0;stroke-opacity:1;visibility:visible;display:inline;overflow:visible"
           id="path2737" />
      </g>
      <g
         style="opacity:0.7"
         id="g6380" />
    </g>
  </g>
  <g
     id="layer2">
    <path
       d="M 300.00001,658.5 C 300.00001,658.5 598.50001,546.17969 598.50001,260.72817 C 598.50001,-24.723334 598.50001,2.1764865 598.50001,2.1764865 L 1.5,2.1764865 L 1.5,260.72817 C 1.5,546.17969 300.00001,658.5 300.00001,658.5 z "
       style="opacity:1;fill:url(#radialGradient3163);fill-opacity:1;fill-rule:evenodd;stroke:none;stroke-width:1px;stroke-linecap:butt;stroke-linejoin:miter;stroke-opacity:1"
       id="path2875" />
  </g>
  <g
     id="layer1">
    <path
       d="M 299.99999,658.50028 C 299.99999,658.50028 1.5,546.17992 1.5,260.72828 C 1.5,-24.723336 1.5,2.1764957 1.5,2.1764957 L 598.49999,2.1764957 L 598.49999,260.72828 C 598.49999,546.17992 299.99999,658.50028 299.99999,658.50028 z "
       style="opacity:1;fill:none;fill-opacity:1;fill-rule:evenodd;stroke:#000000;stroke-width:3.00000048;stroke-linecap:butt;stroke-linejoin:miter;stroke-miterlimit:4;stroke-dasharray:none;stroke-opacity:1"
       id="path1411" />
  </g>
</svg>
