<?xml version="1.0" encoding="UTF-8" standalone="no"?>
<svg
   xmlns:dc="http://purl.org/dc/elements/1.1/"
   xmlns:cc="http://web.resource.org/cc/"
   xmlns:rdf="http://www.w3.org/1999/02/22-rdf-syntax-ns#"
   xmlns:svg="http://www.w3.org/2000/svg"
   xmlns="http://www.w3.org/2000/svg"
   xmlns:xlink="http://www.w3.org/1999/xlink"
   xmlns:sodipodi="http://sodipodi.sourceforge.net/DTD/sodipodi-0.dtd"
   xmlns:inkscape="http://www.inkscape.org/namespaces/inkscape"
   height="660"
   width="600"
   version="1.0"
   id="svg2"
   sodipodi:version="0.32"
   inkscape:version="0.45.1"
   sodipodi:docname="Blason_departement_Maine-et-Loire.svg"
   sodipodi:docbase="C:\Documents and Settings\Cyrille Delon\Bureau\blasons\departements\svg"
   inkscape:export-filename="/Users/olivier/Desktop/Blason Rouge/Blason_Vide_3D.png"
   inkscape:export-xdpi="144"
   inkscape:export-ydpi="144"
   inkscape:output_extension="org.inkscape.output.svg.inkscape">
  <metadata
     id="metadata49">
    <rdf:RDF>
      <cc:Work
         rdf:about="">
        <dc:format>image/svg+xml</dc:format>
        <dc:type
           rdf:resource="http://purl.org/dc/dcmitype/StillImage" />
        <dc:title>Gabarit d'un blason en pointe pour le projet Blasons de Wikipédia</dc:title>
        <dc:date>03-AUG-2006</dc:date>
        <dc:creator>
          <cc:Agent>
            <dc:title>Jérôme BLUM (wagner51)</dc:title>
          </cc:Agent>
        </dc:creator>
        <cc:license
           rdf:resource="http://web.resource.org/cc/PublicDomain" />
        <dc:language>fr</dc:language>
        <dc:subject>
          <rdf:Bag>
            <rdf:li>gabarit modèle blason projet wikipédia</rdf:li>
          </rdf:Bag>
        </dc:subject>
      </cc:Work>
      <cc:License
         rdf:about="http://web.resource.org/cc/PublicDomain">
        <cc:permits
           rdf:resource="http://web.resource.org/cc/Reproduction" />
        <cc:permits
           rdf:resource="http://web.resource.org/cc/Distribution" />
        <cc:permits
           rdf:resource="http://web.resource.org/cc/DerivativeWorks" />
      </cc:License>
    </rdf:RDF>
  </metadata>
  <sodipodi:namedview
     inkscape:window-height="712"
     inkscape:window-width="1024"
     inkscape:pageshadow="2"
     inkscape:pageopacity="0.0"
     guidetolerance="10.0"
     gridtolerance="10.0"
     objecttolerance="10.0"
     borderopacity="1.0"
     bordercolor="#666666"
     pagecolor="#ffffff"
     id="base"
     showgrid="false"
     height="660px"
     inkscape:zoom="0.78181818"
     inkscape:cx="300"
     inkscape:cy="355.84666"
     inkscape:window-x="146"
     inkscape:window-y="10"
     inkscape:current-layer="layer3" />
  <desc
     id="desc4">Flag of Canton of Valais (Wallis)</desc>
  <defs
     id="defs6">
    <linearGradient
       id="linearGradient2893">
      <stop
         style="stop-color:white;stop-opacity:0.3137255;"
         offset="0"
         id="stop2895" />
      <stop
         id="stop2897"
         offset="0.19"
         style="stop-color:white;stop-opacity:0.25098041;" />
      <stop
         style="stop-color:#6b6b6b;stop-opacity:0.1254902;"
         offset="0.60000002"
         id="stop2901" />
      <stop
         style="stop-color:black;stop-opacity:0.1254902;"
         offset="1"
         id="stop2899" />
    </linearGradient>
    <linearGradient
       id="linearGradient2885">
      <stop
         id="stop2887"
         offset="0"
         style="stop-color:white;stop-opacity:1;" />
      <stop
         style="stop-color:white;stop-opacity:1;"
         offset="0.22857143"
         id="stop2891" />
      <stop
         id="stop2889"
         offset="1"
         style="stop-color:black;stop-opacity:1;" />
    </linearGradient>
    <linearGradient
       id="linearGradient2955">
      <stop
         id="stop2867"
         offset="0"
         style="stop-color:#fd0000;stop-opacity:1;" />
      <stop
         style="stop-color:#e77275;stop-opacity:0.65882355;"
         offset="0.5"
         id="stop2873" />
      <stop
         style="stop-color:black;stop-opacity:0.32291666;"
         offset="1"
         id="stop2959" />
    </linearGradient>
    <radialGradient
       inkscape:collect="always"
       xlink:href="#linearGradient2955"
       id="radialGradient2961"
       cx="225.52438"
       cy="218.90099"
       fx="225.52438"
       fy="218.90099"
       r="300"
       gradientTransform="matrix(-4.167939e-4,2.182867,-1.884232,-3.599562e-4,615.5972,-289.1214)"
       gradientUnits="userSpaceOnUse" />
    <polygon
       id="star"
       transform="scale(53,53)"
       points="0,-1 0.58778525,0.80901699 -0.95105652,-0.30901699 0.95105652,-0.30901699 -0.58778525,0.80901699 0,-1 " />
    <clipPath
       id="clip">
      <path
         d="M 0,-200 L 0,600 L 300,600 L 300,-200 L 0,-200 z "
         id="path10" />
    </clipPath>
    <radialGradient
       inkscape:collect="always"
       xlink:href="#linearGradient2955"
       id="radialGradient1911"
       gradientUnits="userSpaceOnUse"
       gradientTransform="matrix(-4.167939e-4,2.182867,-1.884232,-3.599562e-4,615.5972,-289.1214)"
       cx="225.52438"
       cy="218.90099"
       fx="225.52438"
       fy="218.90099"
       r="300" />
    <radialGradient
       inkscape:collect="always"
       xlink:href="#linearGradient2955"
       id="radialGradient2865"
       gradientUnits="userSpaceOnUse"
       gradientTransform="matrix(0,1.748721,-1.593162,-1.049767e-7,551.7876,-191.2898)"
       cx="225.52438"
       cy="218.90099"
       fx="225.52438"
       fy="218.90099"
       r="300" />
    <radialGradient
       inkscape:collect="always"
       xlink:href="#linearGradient2955"
       id="radialGradient2871"
       gradientUnits="userSpaceOnUse"
       gradientTransform="matrix(0,1.386237,-1.323286,-5.741131e-8,-158.0823,-109.5408)"
       cx="225.52438"
       cy="218.90099"
       fx="225.52438"
       fy="218.90099"
       r="300" />
    <radialGradient
       inkscape:collect="always"
       xlink:href="#linearGradient2893"
       id="radialGradient3163"
       gradientUnits="userSpaceOnUse"
       gradientTransform="matrix(1.353218,0,0,1.348928,-77.62935,-85.74693)"
       cx="221.44487"
       cy="226.33101"
       fx="221.44487"
       fy="226.33101"
       r="300" />
  </defs>
  <g
     inkscape:groupmode="layer"
     id="layer3"
     inkscape:label="Fond écu"
     style="display:inline">
    <g
       id="g3528">
      <path
         sodipodi:nodetypes="cccccc"
         d="M 300,658.5 C 300,658.5 598.50001,546.17969 598.50001,260.72817 C 598.50001,-24.723354 598.50001,2.1764765 598.50001,2.1764765 L 1.5,2.1764765 L 1.5,260.72817 C 1.5,546.17969 300,658.5 300,658.5 z "
         style="fill:#e20909;fill-opacity:1;fill-rule:evenodd;stroke:none;stroke-width:1px;stroke-linecap:butt;stroke-linejoin:miter;stroke-opacity:1"
         id="path2855" />
      <path
         id="path2262"
         style="fill:#2b5df2;fill-opacity:1;fill-rule:evenodd;stroke:#000000;stroke-width:3;stroke-linecap:butt;stroke-linejoin:miter;stroke-miterlimit:4;stroke-dasharray:none;stroke-opacity:1"
         d="M 300,576.97714 C 300,576.97714 528.50172,490.99596 528.50172,272.48286 C 528.50172,53.969753 528.50172,74.56157 528.50172,74.56157 L 71.498293,74.56157 L 71.498293,272.48286 C 71.498293,490.99596 300,576.97714 300,576.97714 z "
         sodipodi:nodetypes="cccccc" />
      <g
         id="g3336"
         transform="translate(-2.3426934,99.77651)"
         style="display:inline">
        <path
           id="path1876"
           style="fill:#fcef3c;fill-opacity:1;fill-rule:evenodd;stroke:#000000;stroke-width:3;stroke-linecap:butt;stroke-linejoin:miter;marker-start:none;stroke-miterlimit:4;stroke-dasharray:none;stroke-opacity:1;display:inline"
           d="M 312.60173,331.55963 C 312.90847,318.21927 316.20859,305.8204 322.35348,294.07058 C 338.44098,260.22535 387.57826,261.03368 376.74656,302.42743 C 372.75521,317.68056 359.19614,326.64529 343.088,328.18292 C 344.25064,324.1639 350.64579,309.95557 345.48332,307.17598 C 337.22835,307.48785 326.9778,321.75423 324.51271,328.5574 C 324.15685,329.53411 324.25639,330.6628 323.85903,331.62357" />
        <path
           id="path1902"
           style="fill:#fcef3c;fill-opacity:1;fill-rule:evenodd;stroke:#000000;stroke-width:3;stroke-linecap:butt;stroke-linejoin:miter;marker-start:none;stroke-miterlimit:4;stroke-dasharray:none;stroke-opacity:1"
           d="M 292.13808,332.44159 C 291.83134,319.10123 288.53122,306.70237 282.38633,294.95255 C 266.29883,261.10732 217.16156,261.91564 227.99325,303.3094 C 231.98461,318.56252 245.54368,327.52726 261.65181,329.06489 C 260.48917,325.04586 254.09402,310.83753 259.25649,308.05794 C 267.51146,308.36981 277.76202,322.6362 280.2271,329.43936 C 280.58296,330.41608 280.48342,331.54476 280.88078,332.50553" />
        <path
           id="path3734"
           style="fill:#fcef3c;fill-opacity:1;fill-rule:nonzero;stroke:#000000;stroke-width:3;stroke-linecap:butt;stroke-linejoin:miter;marker-start:none;stroke-miterlimit:4;stroke-dasharray:none;stroke-opacity:1"
           d="M 301.41901,203.19538 C 284.47025,221.46515 273.09053,242.59065 277.99624,267.36744 C 280.70272,281.03679 287.264,293.6967 291.8911,306.86518 C 294.78425,315.12697 295.52403,323.7574 295.18146,332.44115 L 309.56079,332.44115 C 308.87252,323.69353 310.38045,315.21594 312.85115,306.86518 C 317.25965,293.61476 323.96721,281.04714 326.74601,267.36744 C 331.94126,241.79191 319.74663,222.50349 303.39726,203.27612 L 302.39808,202.0018 L 301.41901,203.19538 z " />
        <path
           id="path6395"
           style="fill:#fcef3c;fill-opacity:1;fill-rule:evenodd;stroke:#000000;stroke-width:3;stroke-linecap:butt;stroke-linejoin:miter;marker-start:none;stroke-miterlimit:4;stroke-dasharray:none;stroke-opacity:1"
           d="M 288.00862,342.56791 C 285.00239,350.99339 272.74498,366.42365 266.23439,370.82192 C 264.54582,371.96265 274.30595,370.16486 278.67584,369.20702 C 284.40745,367.95071 291.85718,361.8436 291.68251,363.99897 C 291.66623,373.86886 294.44098,390.33782 301.6747,397.90513 L 302.35987,398.63455 L 303.06755,397.90513 C 310.2975,389.47084 313.02343,374.64154 313.05974,363.99897 C 312.88507,361.8436 320.33481,367.95071 326.06641,369.20702 C 330.4363,370.16486 340.19644,371.96265 338.50786,370.82192 C 331.99727,366.42365 319.74659,350.99339 316.74037,342.56791 L 288.00862,342.56791 z " />
        <rect
           id="rect4623"
           style="fill:#fcef3c;fill-opacity:1;stroke:#000000;stroke-width:3;stroke-miterlimit:4;stroke-dasharray:none;stroke-opacity:1"
           y="332.01251"
           x="268.20078"
           height="11.089695"
           width="68.447556" />
      </g>
      <path
         id="path3387"
         style="fill:#2b5df2;fill-opacity:1;fill-rule:evenodd;stroke:#000000;stroke-width:3;stroke-linecap:butt;stroke-linejoin:miter;stroke-opacity:1;stroke-miterlimit:4;stroke-dasharray:none"
         d="M 300,658.5 C 300,658.5 598.50001,546.17969 598.50001,260.72817 C 598.50001,-24.723354 598.50001,2.1764765 598.50001,2.1764765 L 300,2.1764765 L 300,658.5 z "
         sodipodi:nodetypes="ccccc" />
      <g
         id="g3504">
        <path
           d="M 196.25904,263.33614 C 196.56578,249.99578 199.8659,237.59691 206.01079,225.84709 C 222.09829,192.00186 271.23557,192.81019 260.40387,234.20394 C 256.41252,249.45707 242.85345,258.4218 226.74531,259.95943 C 227.90795,255.94041 234.3031,241.73208 229.14063,238.95249 C 220.88566,239.26436 210.63511,253.53074 208.17002,260.33391 C 207.81416,261.31062 207.9137,262.43931 207.51634,263.40008"
           style="fill:#fcef3c;fill-opacity:1;fill-rule:evenodd;stroke:#000000;stroke-width:3;stroke-linecap:butt;stroke-linejoin:miter;marker-start:none;stroke-miterlimit:4;stroke-dasharray:none;stroke-opacity:1;display:inline"
           id="path3397" />
        <path
           d="M 175.79539,264.2181 C 175.48865,250.87774 172.18853,238.47888 166.04364,226.72906 C 149.95614,192.88383 100.81887,193.69215 111.65056,235.08591 C 115.64192,250.33903 129.20099,259.30377 145.30912,260.8414 C 144.14648,256.82237 137.75133,242.61404 142.9138,239.83445 C 151.16877,240.14632 161.41933,254.41271 163.88441,261.21587 C 164.24027,262.19259 164.14073,263.32127 164.53809,264.28204"
           style="fill:#fcef3c;fill-opacity:1;fill-rule:evenodd;stroke:#000000;stroke-width:3;stroke-linecap:butt;stroke-linejoin:miter;marker-start:none;stroke-miterlimit:4;stroke-dasharray:none;stroke-opacity:1"
           id="path3399" />
        <path
           d="M 185.07632,134.97189 C 168.12756,153.24166 156.74784,174.36716 161.65355,199.14395 C 164.36003,212.8133 170.92131,225.47321 175.54841,238.64169 C 178.44156,246.90348 179.18134,255.53391 178.83877,264.21766 L 193.2181,264.21766 C 192.52983,255.47004 194.03776,246.99245 196.50846,238.64169 C 200.91696,225.39127 207.62452,212.82365 210.40332,199.14395 C 215.59857,173.56842 203.40394,154.28 187.05457,135.05263 L 186.05539,133.77831 L 185.07632,134.97189 z "
           style="fill:#fcef3c;fill-opacity:1;fill-rule:nonzero;stroke:#000000;stroke-width:3;stroke-linecap:butt;stroke-linejoin:miter;marker-start:none;stroke-miterlimit:4;stroke-dasharray:none;stroke-opacity:1"
           id="path3401" />
        <path
           d="M 171.66593,274.34442 C 168.6597,282.7699 156.40229,298.20016 149.8917,302.59843 C 148.20313,303.73916 157.96326,301.94137 162.33315,300.98353 C 168.06476,299.72722 175.51449,293.62011 175.33982,295.77548 C 175.32354,305.64537 178.09829,322.11433 185.33201,329.68164 L 186.01718,330.41106 L 186.72486,329.68164 C 193.95481,321.24735 196.68074,306.41805 196.71705,295.77548 C 196.54238,293.62011 203.99212,299.72722 209.72372,300.98353 C 214.09361,301.94137 223.85375,303.73916 222.16517,302.59843 C 215.65458,298.20016 203.4039,282.7699 200.39768,274.34442 L 171.66593,274.34442 z "
           style="fill:#fcef3c;fill-opacity:1;fill-rule:evenodd;stroke:#000000;stroke-width:3;stroke-linecap:butt;stroke-linejoin:miter;marker-start:none;stroke-miterlimit:4;stroke-dasharray:none;stroke-opacity:1"
           id="path3403" />
        <rect
           width="68.447556"
           height="11.089695"
           x="151.85808"
           y="263.78903"
           style="fill:#fcef3c;fill-opacity:1;stroke:#000000;stroke-width:3;stroke-miterlimit:4;stroke-dasharray:none;stroke-opacity:1"
           id="rect3405" />
      </g>
      <g
         id="g3524">
        <path
           style="opacity:1;fill:#fcef3c;fill-opacity:1;stroke:#000000;stroke-width:3;stroke-miterlimit:4;stroke-dasharray:none;stroke-dashoffset:0;stroke-opacity:1"
           d="M 420.1836,26.836027 L 420.1836,90.498457 L 363.1232,90.498457 L 363.1232,153.12343 L 420.1836,153.12343 L 420.1836,183.96434 L 332.47092,183.96434 L 332.47092,246.58932 L 420.1836,246.58932 L 420.1836,506.7093 L 482.90288,506.7093 L 482.90288,246.58932 L 570.61558,246.58932 L 570.61558,183.96434 L 482.90288,183.96434 L 482.90288,153.12343 L 539.9633,153.12343 L 539.9633,90.498457 L 482.90288,90.498457 L 482.90288,26.836027 L 420.1836,26.836027 z "
           id="rect3492" />
        <path
           style="opacity:1;fill:#e20909;fill-opacity:1;stroke:#000000;stroke-width:3;stroke-miterlimit:4;stroke-dasharray:none;stroke-dashoffset:0;stroke-opacity:1"
           d="M 430.4375 36.8125 L 430.4375 100.6875 L 373.53125 100.6875 L 373.53125 142.90625 L 430.4375 142.90625 L 430.4375 194.15625 L 342.65625 194.15625 L 342.65625 236.34375 L 430.4375 236.34375 L 430.4375 496.28125 L 472.65625 496.28125 L 472.65625 236.34375 L 559.09375 236.34375 L 559.09375 194.15625 L 472.65625 194.15625 L 472.65625 142.90625 L 529.78125 142.90625 L 529.78125 100.6875 L 472.65625 100.6875 L 472.65625 36.8125 L 430.4375 36.8125 z "
           id="rect3513" />
      </g>
    </g>
  </g>
  <g
     inkscape:groupmode="layer"
     id="layer4"
     inkscape:label="Meubles"
     sodipodi:insensitive="true" />
  <g
     inkscape:groupmode="layer"
     id="layer2"
     inkscape:label="Reflet final"
     sodipodi:insensitive="true">
    <path
       sodipodi:nodetypes="cccccc"
       d="M 300.00001,658.5 C 300.00001,658.5 598.50001,546.17969 598.50001,260.72817 C 598.50001,-24.723334 598.50001,2.1764865 598.50001,2.1764865 L 1.5,2.1764865 L 1.5,260.72817 C 1.5,546.17969 300.00001,658.5 300.00001,658.5 z "
       style="opacity:1;fill:url(#radialGradient3163);fill-opacity:1;fill-rule:evenodd;stroke:none;stroke-width:1px;stroke-linecap:butt;stroke-linejoin:miter;stroke-opacity:1"
       id="path2875"
       inkscape:export-xdpi="144"
       inkscape:export-ydpi="144" />
  </g>
  <g
     inkscape:groupmode="layer"
     id="layer1"
     inkscape:label="Contour final"
     sodipodi:insensitive="true">
    <path
       sodipodi:nodetypes="cccccc"
       d="M 299.99999,658.50028 C 299.99999,658.50028 1.5,546.17992 1.5,260.72828 C 1.5,-24.723336 1.5,2.1764957 1.5,2.1764957 L 598.49999,2.1764957 L 598.49999,260.72828 C 598.49999,546.17992 299.99999,658.50028 299.99999,658.50028 z "
       style="opacity:1;fill:none;fill-opacity:1;fill-rule:evenodd;stroke:#000000;stroke-width:3.00000048;stroke-linecap:butt;stroke-linejoin:miter;stroke-miterlimit:4;stroke-dasharray:none;stroke-opacity:1"
       id="path1411"
       inkscape:export-xdpi="144"
       inkscape:export-ydpi="144" />
  </g>
</svg>
