<?xml version="1.0" encoding="UTF-8" standalone="no"?>
<svg
   xmlns:dc="http://purl.org/dc/elements/1.1/"
   xmlns:cc="http://web.resource.org/cc/"
   xmlns:rdf="http://www.w3.org/1999/02/22-rdf-syntax-ns#"
   xmlns:svg="http://www.w3.org/2000/svg"
   xmlns="http://www.w3.org/2000/svg"
   xmlns:xlink="http://www.w3.org/1999/xlink"
   xmlns:sodipodi="http://sodipodi.sourceforge.net/DTD/sodipodi-0.dtd"
   xmlns:inkscape="http://www.inkscape.org/namespaces/inkscape"
   height="660.00031"
   width="600"
   version="1.0"
   id="svg2"
   sodipodi:version="0.32"
   inkscape:version="0.44.1"
   sodipodi:docname="Blason département fr Mayenne.svg"
   sodipodi:docbase="C:\Documents and Settings\Standard\Mes documents\aaaOuiqui\Blasons\Blasons Yvelines svg"
   inkscape:export-filename="/Users/olivier/Desktop/Blason Rouge/Blason_Vide_3D.png"
   inkscape:export-xdpi="144"
   inkscape:export-ydpi="144">
  <metadata
     id="metadata49">
    <rdf:RDF>
      <cc:Work
         rdf:about="">
        <dc:format>image/svg+xml</dc:format>
        <dc:type
           rdf:resource="http://purl.org/dc/dcmitype/StillImage" />
        <dc:title>Gabarit d'un blason en pointe pour le projet Blasons de Wikipédia</dc:title>
        <dc:date>03-AUG-2006</dc:date>
        <dc:creator>
          <cc:Agent>
            <dc:title>Jérôme BLUM (wagner51)</dc:title>
          </cc:Agent>
        </dc:creator>
        <cc:license
           rdf:resource="http://web.resource.org/cc/PublicDomain" />
        <dc:language>fr</dc:language>
        <dc:subject>
          <rdf:Bag>
            <rdf:li>gabarit modèle blason projet wikipédia</rdf:li>
          </rdf:Bag>
        </dc:subject>
      </cc:Work>
      <cc:License
         rdf:about="http://web.resource.org/cc/PublicDomain">
        <cc:permits
           rdf:resource="http://web.resource.org/cc/Reproduction" />
        <cc:permits
           rdf:resource="http://web.resource.org/cc/Distribution" />
        <cc:permits
           rdf:resource="http://web.resource.org/cc/DerivativeWorks" />
      </cc:License>
    </rdf:RDF>
  </metadata>
  <sodipodi:namedview
     inkscape:window-height="712"
     inkscape:window-width="1024"
     inkscape:pageshadow="2"
     inkscape:pageopacity="0.0"
     guidetolerance="10.0"
     gridtolerance="10.0"
     objecttolerance="10.0"
     borderopacity="1.0"
     bordercolor="#666666"
     pagecolor="#ffffff"
     id="base"
     showgrid="false"
     height="660px"
     inkscape:zoom="0.44547727"
     inkscape:cx="266.17009"
     inkscape:cy="126.13625"
     inkscape:window-x="-4"
     inkscape:window-y="-4"
     inkscape:current-layer="layer4"
     showguides="true"
     inkscape:guide-bbox="true" />
  <desc
     id="desc4">Flag of Canton of Valais (Wallis)</desc>
  <defs
     id="defs6">
    <linearGradient
       id="linearGradient2893">
      <stop
         style="stop-color:white;stop-opacity:0.3137255;"
         offset="0"
         id="stop2895" />
      <stop
         id="stop2897"
         offset="0.19"
         style="stop-color:white;stop-opacity:0.25098041;" />
      <stop
         style="stop-color:#6b6b6b;stop-opacity:0.1254902;"
         offset="0.60000002"
         id="stop2901" />
      <stop
         style="stop-color:black;stop-opacity:0.1254902;"
         offset="1"
         id="stop2899" />
    </linearGradient>
    <radialGradient
       inkscape:collect="always"
       xlink:href="#linearGradient2893"
       id="radialGradient3163"
       gradientUnits="userSpaceOnUse"
       gradientTransform="matrix(1.353218,0,0,1.348928,-77.62935,-85.74693)"
       cx="221.44487"
       cy="226.33101"
       fx="221.44487"
       fy="226.33101"
       r="300" />
  </defs>
  <g
     inkscape:groupmode="layer"
     id="layer3"
     inkscape:label="Fond écu"
     style="display:inline"
     transform="translate(2.384186e-7,1.252533e-6)">
    <path
       id="path2855"
       style="fill:#2b5df2;fill-opacity:1;fill-rule:evenodd;stroke:none;stroke-width:1px;stroke-linecap:butt;stroke-linejoin:miter;stroke-opacity:1"
       d="M 300,658.5 C 300,658.5 598.50001,546.17969 598.50001,260.72817 C 598.50001,-24.723354 598.50001,2.1764765 598.50001,2.1764765 L 1.5,2.1764765 L 1.5,260.72817 C 1.5,546.17969 300,658.5 300,658.5 z "
       sodipodi:nodetypes="cccccc" />
    <path
       style="fill:#e20909;fill-opacity:1;fill-rule:evenodd;stroke:black;stroke-width:3;stroke-linecap:butt;stroke-linejoin:miter;stroke-miterlimit:4;stroke-dasharray:none;stroke-opacity:1"
       d="M 1.5,2.1875 L 1.5,260.71875 C 1.5,546.17026 300,658.5 300,658.5 C 300,658.5 598.5,546.17027 598.5,260.71875 C 598.50001,-24.732783 598.5,2.1875 598.5,2.1875 L 1.5,2.1875 z M 72.71875,80.375 L 527.28125,80.375 C 527.28125,80.375 527.28122,59.899072 527.28125,277.25 C 527.28125,494.60091 300.00001,580.12498 300,580.125 C 300,580.125 72.718749,494.60091 72.71875,277.25 L 72.71875,80.375 z "
       transform="translate(-2.384186e-7,-1.252533e-6)"
       id="path2915" />
    <g
       id="g17503">
      <g
         transform="matrix(0.674087,0,0,0.639766,50.38336,0.337623)"
         id="g4133"
         style="fill:#fcef3c;fill-opacity:1;stroke:black;stroke-width:3.46194696;stroke-linecap:round;stroke-linejoin:round;stroke-miterlimit:4;stroke-dasharray:none;stroke-opacity:1">
        <path
           id="path4135"
           style="opacity:1;color:black;fill:#fcef3c;fill-opacity:1;fill-rule:nonzero;stroke:black;stroke-width:3.46194696;stroke-linecap:round;stroke-linejoin:round;marker:none;marker-start:none;marker-mid:none;marker-end:none;stroke-miterlimit:4;stroke-dasharray:none;stroke-dashoffset:0;stroke-opacity:1;visibility:visible;display:inline;overflow:visible"
           d="M 370.34823,418.67157 C 369.59061,418.2634 381.14253,411.22848 378.93815,408.11824 C 366.77198,397.72823 355.26008,391.91814 348.25987,417.68986 C 358.24624,408.39728 364.16766,414.00953 370.34823,418.67157 z " />
        <path
           id="path4137"
           style="opacity:1;color:black;fill:#fcef3c;fill-opacity:1;fill-rule:nonzero;stroke:black;stroke-width:3.46194696;stroke-linecap:round;stroke-linejoin:round;marker:none;marker-start:none;marker-mid:none;marker-end:none;stroke-miterlimit:4;stroke-dasharray:none;stroke-dashoffset:0;stroke-opacity:1;visibility:visible;display:inline;overflow:visible"
           d="M 363.96715,461.86659 C 365.59487,463.77168 361.50088,436.46906 353.1684,444.68675 C 337.81791,454.14291 338.34688,464.35524 350.46871,475.11961 C 352.82305,459.11816 358.42472,460.65234 363.96715,461.86659 z " />
        <path
           id="path4139"
           style="opacity:1;color:black;fill:#fcef3c;fill-opacity:1;fill-rule:nonzero;stroke:black;stroke-width:3.46194696;stroke-linecap:round;stroke-linejoin:round;marker:none;marker-start:none;marker-mid:none;marker-end:none;stroke-miterlimit:4;stroke-dasharray:none;stroke-dashoffset:0;stroke-opacity:1;visibility:visible;display:inline;overflow:visible"
           d="M 410.10729,474.87418 C 411.32197,472.07178 405.75519,469.78856 400.33657,469.50094 C 394.91796,469.21332 389.64752,470.9213 391.45489,476.10131 C 395.33051,486.87571 399.87551,491.41242 402.7443,493.86261 C 404.94246,492.26872 409.17652,485.49087 410.10729,474.87418 z " />
        <path
           id="path4141"
           style="opacity:1;color:black;fill:#fcef3c;fill-opacity:1;fill-rule:nonzero;stroke:black;stroke-width:3.46194696;stroke-linecap:round;stroke-linejoin:round;marker:none;marker-start:none;marker-mid:none;marker-end:none;stroke-miterlimit:4;stroke-dasharray:none;stroke-dashoffset:0;stroke-opacity:1;visibility:visible;display:inline;overflow:visible"
           d="M 439.31302,460.1486 C 439.9629,453.1393 419.27399,459.89988 423.60573,462.35744 C 427.93747,464.815 430.93148,468.34274 425.56914,478.55557 C 442.86792,475.24602 438.66314,467.1579 439.31302,460.1486 z " />
      </g>
      <path
         id="path4143"
         style="color:black;fill:#fcef3c;fill-opacity:1;fill-rule:nonzero;stroke:black;stroke-width:2.27347016;stroke-linecap:round;stroke-linejoin:round;marker:none;marker-start:none;marker-mid:none;marker-end:none;stroke-miterlimit:4;stroke-dasharray:none;stroke-dashoffset:0;stroke-opacity:1;visibility:visible;display:inline;overflow:visible"
         d="M 382.61218,218.91248 L 360.94509,191.49392 L 356.61167,198.12008 C 356.75774,202.80806 349.21255,206.05396 336.26867,212.85755 C 324.89244,219.98795 313.73003,229.63071 331.81488,251.47202 C 335.02465,255.342 338.85509,261.96955 323.14804,271.46472 C 321.39223,271.96677 318.32289,272.90812 313.99971,271.92171 C 312.65143,268.71672 312.55156,266.22265 312.79597,263.92462 C 310.73822,253.09133 293.24636,262.21838 299.31422,271.92171 C 307.01116,278.18106 304.66931,279.96825 296.66603,279.23332 C 292.62091,279.92554 288.55699,280.6392 282.94353,283.11761 C 282.87386,284.40233 282.8629,285.63135 283.42503,286.31645 C 292.17123,285.34174 293.11798,295.11377 293.05484,297.28387 C 294.22971,297.53976 295.35164,297.84587 297.14752,297.51236 C 306.06661,291.76074 306.97132,292.06836 309.3255,292.25071 C 312.85471,293.46709 307.75517,305.0356 314.72194,308.70827 C 319.11625,300.03566 326.5479,305.09768 327.61199,308.44761 C 329.39892,305.97606 329.29267,301.96441 328.92593,297.74085 C 330.21554,288.36301 334.70858,293.56037 336.62978,297.51236 C 341.15306,291.88107 343.56332,293.93689 346.58344,298.19783 C 348.73607,298.48912 348.96596,298.17686 349.87078,297.28387 L 351.07451,290.65772 C 351.46236,281.76624 358.07556,281.75426 359.51417,289.61988 C 360.66505,288.43865 362.16216,287.76846 362.17996,286.54444 C 362.35428,274.54825 363.12047,277.35599 368.76592,285.14826 C 371.49437,260.64043 373.66811,277.19652 376.11205,273.7496 C 378.79245,267.62878 369.2066,259.15334 384.05665,260.72579 C 381.67153,257.318 375.75817,256.84025 377.79727,249.75837 C 378.562,245.23275 374.1389,243.28623 368.40819,241.98977 C 356.47141,237.95578 363.46474,234.33554 366.24149,231.47932 L 376.60032,225.09453 L 382.61218,218.91248 z " />
      <path
         id="path4145"
         style="color:black;fill:#fcef3c;fill-opacity:1;fill-rule:nonzero;stroke:black;stroke-width:2.27347016;stroke-linecap:round;stroke-linejoin:round;marker:none;marker-start:none;marker-mid:none;marker-end:none;stroke-miterlimit:4;stroke-dasharray:none;stroke-dashoffset:0;stroke-opacity:1;visibility:visible;display:inline;overflow:visible"
         d="M 397.82249,187.97277 C 378.24009,185.4135 364.3654,174.42752 364.3654,174.42752 L 373.49006,169.32029 C 376.50674,168.26042 380.86659,168.47535 385.42231,168.87618 C 410.09789,176.80445 434.8547,184.47967 463.8008,179.09064 C 489.65499,169.89098 490.66294,148.43093 465.20463,137.12254 C 453.84692,133.34923 453.30159,125.33357 388.69783,142.45182 C 365.03395,151.41235 344.13048,153.08284 327.63277,143.11798 C 314.23391,135.00325 299.73975,128.39584 267.97151,145.56057 C 272.12557,132.10983 282.13073,128.65486 290.66618,122.68907 C 287.08634,121.85205 279.49019,122.40115 272.65082,122.68907 C 278.66557,116.29917 289.33405,118.75197 299.55688,120.02443 C 296.69284,118.36632 293.16806,116.48426 285.98687,113.36282 C 299.23328,113.18821 304.36654,115.73127 312.89293,117.13773 C 312.13199,115.72917 311.10704,114.14521 307.27775,110.69818 C 316.42158,111.15951 324.09189,112.68225 330.67432,118.91415 C 329.65404,116.31743 329.04631,114.11225 329.27053,112.69666 C 333.06042,114.95049 336.78642,117.87129 340.26692,123.35522 C 340.68432,119.29233 342.50198,117.05675 345.41417,116.24951 C 345.57015,118.49306 345.72612,121.18982 345.8821,124.02138 C 348.12783,123.38494 349.46346,123.03642 350.79538,122.68907 C 349.70064,127.54227 352.65579,128.80803 356.1766,129.57272 C 365.90967,133.01332 376.00151,132.19772 386.35817,128.2404 C 396.08803,124.90071 406.21348,121.74877 418.41149,119.58032 C 457.76476,115.39234 476.65037,122.99849 490.00504,133.79174 C 497.11307,138.21869 511.1487,160.13849 488.83513,180.86706 C 480.83303,185.60968 478.83635,191.33404 458.18565,191.96974 C 437.07298,192.89619 417.40494,190.53204 397.82249,187.97277 z " />
      <g
         transform="matrix(0.674087,0,0,0.639766,50.38336,0.337623)"
         style="fill:#fcef3c;fill-opacity:1;stroke:black;stroke-width:3.46194696;stroke-linecap:round;stroke-linejoin:round;stroke-miterlimit:4;stroke-dasharray:none;stroke-opacity:1"
         id="g4149">
        <path
           d="M 101.78001,203.34341 C 102.80795,206.16368 99.974163,206.67653 90.562292,208.58668 C 85.860501,202.6467 83.903404,194.62879 72.616399,192.8794 C 87.844706,182.06541 100.86232,186.07278 101.78001,203.34341 z "
           style="opacity:1;color:black;fill:#fcef3c;fill-opacity:1;fill-rule:nonzero;stroke:black;stroke-width:3.46194696;stroke-linecap:round;stroke-linejoin:round;marker:none;marker-start:none;marker-mid:none;marker-end:none;stroke-miterlimit:4;stroke-dasharray:none;stroke-dashoffset:0;stroke-opacity:1;visibility:visible;display:inline;overflow:visible"
           id="path4151" />
        <path
           d="M 137.92956,220.61257 C 137.96415,226.79869 126.31535,213.59792 125.78457,210.32933 C 133.42197,208.92575 139.58647,200.66551 133.08781,192.00658 C 152.51401,198.09168 147.00388,218.58599 137.92956,220.61257 z "
           style="opacity:1;color:black;fill:#fcef3c;fill-opacity:1;fill-rule:nonzero;stroke:black;stroke-width:3.46194696;stroke-linecap:round;stroke-linejoin:round;marker:none;marker-start:none;marker-mid:none;marker-end:none;stroke-miterlimit:4;stroke-dasharray:none;stroke-dashoffset:0;stroke-opacity:1;visibility:visible;display:inline;overflow:visible"
           id="path4153" />
        <path
           d="M 80.254389,254.23597 C 89.166116,255.98129 85.051138,232.60849 72.400748,234.60187 C 59.750358,236.59525 54.954069,246.44272 60.620288,266.75271 C 64.305986,255.43296 71.342662,252.49065 80.254389,254.23597 z "
           style="opacity:1;color:black;fill:#fcef3c;fill-opacity:1;fill-rule:nonzero;stroke:black;stroke-width:3.46194696;stroke-linecap:round;stroke-linejoin:round;marker:none;marker-start:none;marker-mid:none;marker-end:none;stroke-miterlimit:4;stroke-dasharray:none;stroke-dashoffset:0;stroke-opacity:1;visibility:visible;display:inline;overflow:visible"
           id="path4155" />
        <path
           d="M 106.76043,295.46758 C 106.30364,282.98072 91.676781,270.74767 90.807718,279.26945 C 86.697365,284.14478 83.400816,291.35816 71.173617,283.19627 C 71.377181,310.09722 100.28369,300.15422 106.76043,295.46758 z "
           style="opacity:1;color:black;fill:#fcef3c;fill-opacity:1;fill-rule:nonzero;stroke:black;stroke-width:3.46194696;stroke-linecap:round;stroke-linejoin:round;marker:none;marker-start:none;marker-mid:none;marker-end:none;stroke-miterlimit:4;stroke-dasharray:none;stroke-dashoffset:0;stroke-opacity:1;visibility:visible;display:inline;overflow:visible"
           id="path4157" />
      </g>
      <path
         d="M 186.0589,232.53002 L 197.29426,195.20841 L 190.31471,187.61484 C 176.06934,182.14243 160.29866,173.05097 143.33046,161.1181 C 132.63341,155.07462 140.59644,147.46172 145.71373,146.90035 C 147.16044,145.10065 146.29658,143.15088 145.03279,140.92243 C 141.56135,137.36477 139.54076,135.4898 137.88301,134.94451 C 135.80498,134.31576 133.17719,132.0742 134.1379,138.82207 C 134.8792,143.59456 129.4919,153.8645 123.58347,143.18434 C 123.01757,139.52367 122.97054,135.5476 123.24299,132.68259 C 122.2638,130.91917 122.52231,127.98107 119.49787,128.15875 C 114.6861,129.80213 111.14577,130.71558 108.60298,131.06693 C 107.60925,135.34515 106.542,139.14399 114.73136,140.1146 C 115.21947,143.15828 116.2602,146.65151 113.70996,147.22348 C 107.54265,146.77845 99.579984,142.15735 95.665287,151.74731 C 106.74633,153.23316 105.74225,160.5172 101.79366,163.05689 C 102.81506,166.18048 104.74436,166.93447 107.58158,165.3188 C 116.20601,161.43452 116.56571,163.27262 118.47648,164.34941 C 119.88589,169.768 119.04751,173.86593 110.98624,173.72021 C 109.07101,174.38968 108.28555,177.16184 109.45414,180.34439 C 118.70866,182.34694 118.80252,185.26562 119.66811,189.55362 C 124.11613,191.46142 124.3411,194.9212 124.60486,184.22196 C 125.75677,178.56958 132.17117,183.9185 129.54161,187.45327 C 134.56314,190.23717 137.59034,187.63998 131.92487,194.07745 C 133.55767,196.53617 148.87603,194.9419 137.03186,201.50946 C 142.30609,203.50316 154.8212,202.91978 143.33046,210.88025 C 145.94003,213.5229 164.72426,212.41305 149.11838,219.28165 C 173.41144,222.67635 164.45765,225.11486 160.01328,227.68306 L 176.01516,231.88376 L 186.0589,232.53002 z "
         style="color:black;fill:#fcef3c;fill-opacity:1;fill-rule:nonzero;stroke:black;stroke-width:2.27347016;stroke-linecap:round;stroke-linejoin:round;marker:none;marker-start:none;marker-mid:none;marker-end:none;stroke-miterlimit:4;stroke-dasharray:none;stroke-dashoffset:0;stroke-opacity:1;visibility:visible;display:inline;overflow:visible"
         id="path4159" />
      <g
         transform="matrix(0.674087,0,0,0.639766,50.38336,0.337623)"
         style="fill:#fcef3c;fill-opacity:1;stroke:black;stroke-width:3.46194696;stroke-linecap:round;stroke-linejoin:round;stroke-miterlimit:4;stroke-dasharray:none;stroke-opacity:1"
         id="g4163">
        <path
           d="M 80.499816,423.58009 C 66.431558,433.37573 64.511529,451.50329 82.217799,457.44891 C 78.561446,446.03171 81.786988,438.59877 90.562292,434.37884"
           style="opacity:1;color:black;fill:#fcef3c;fill-opacity:1;fill-rule:nonzero;stroke:black;stroke-width:3.46194696;stroke-linecap:round;stroke-linejoin:round;marker:none;marker-start:none;marker-mid:none;marker-end:none;stroke-miterlimit:4;stroke-dasharray:none;stroke-dashoffset:0;stroke-opacity:1;visibility:visible;display:inline;overflow:visible"
           id="path4165" />
        <path
           d="M 117.31376,444.19589 C 110.24259,464.15834 117.84067,474.87278 140.87468,475.85588 C 131.92917,467.98053 131.35558,459.26799 135.4753,450.08612"
           style="opacity:1;color:black;fill:#fcef3c;fill-opacity:1;fill-rule:nonzero;stroke:black;stroke-width:3.46194696;stroke-linecap:round;stroke-linejoin:round;marker:none;marker-start:none;marker-mid:none;marker-end:none;stroke-miterlimit:4;stroke-dasharray:none;stroke-dashoffset:0;stroke-opacity:1;visibility:visible;display:inline;overflow:visible"
           id="path4167" />
        <path
           d="M 178.4249,432.41543 C 184.20526,449.60071 175.9265,455.85113 164.19017,459.41232 C 169.21844,449.49829 167.97943,442.09117 163.20847,436.09683"
           style="opacity:1;color:black;fill:#fcef3c;fill-opacity:1;fill-rule:nonzero;stroke:black;stroke-width:3.46194696;stroke-linecap:round;stroke-linejoin:round;marker:none;marker-start:none;marker-mid:none;marker-end:none;stroke-miterlimit:4;stroke-dasharray:none;stroke-dashoffset:0;stroke-opacity:1;visibility:visible;display:inline;overflow:visible"
           id="path4169" />
        <path
           d="M 118.54089,370.56801 C 104.26003,355.29439 87.172907,357.53956 81.726947,374.98569 C 94.885891,371.02054 98.590566,374.0217 99.397638,379.15793"
           style="opacity:1;color:black;fill:#fcef3c;fill-opacity:1;fill-rule:nonzero;stroke:black;stroke-width:3.46194696;stroke-linecap:round;stroke-linejoin:round;marker:none;marker-start:none;marker-mid:none;marker-end:none;stroke-miterlimit:4;stroke-dasharray:none;stroke-dashoffset:0;stroke-opacity:1;visibility:visible;display:inline;overflow:visible"
           id="path4171" />
      </g>
      <g
         transform="matrix(0.674087,0,0,0.639766,50.38336,0.337623)"
         style="fill:#fcef3c;fill-opacity:1;stroke:black;stroke-width:3.46194696;stroke-linecap:round;stroke-linejoin:round;stroke-miterlimit:4;stroke-dasharray:none;stroke-opacity:1"
         id="g4173">
        <path
           d="M 578.7645,436.45957 C 567.56269,445.35775 559.90006,455.23903 573.38468,470.99455 C 574.2619,459.28224 580.0865,451.52785 590.21831,447.21921"
           style="opacity:1;color:black;fill:#fcef3c;fill-opacity:1;fill-rule:nonzero;stroke:black;stroke-width:3.46194696;stroke-linecap:round;stroke-linejoin:round;marker:none;marker-start:none;marker-mid:none;marker-end:none;stroke-miterlimit:4;stroke-dasharray:none;stroke-dashoffset:0;stroke-opacity:1;visibility:visible;display:inline;overflow:visible"
           id="path4175" />
        <path
           d="M 606.70485,457.28468 C 596.55267,467.0591 594.67682,476.31625 606.70485,484.70441 C 609.291,478.1687 608.12081,469.89929 621.9766,468.56495"
           style="opacity:1;color:black;fill:#fcef3c;fill-opacity:1;fill-rule:nonzero;stroke:black;stroke-width:3.46194696;stroke-linecap:round;stroke-linejoin:round;marker:none;marker-start:none;marker-mid:none;marker-end:none;stroke-miterlimit:4;stroke-dasharray:none;stroke-dashoffset:0;stroke-opacity:1;visibility:visible;display:inline;overflow:visible"
           id="path4177" />
        <path
           d="M 647.6609,463.8793 C 657.52782,467.94238 659.23269,476.49459 659.98242,485.57212 C 675.63872,477.8396 671.16224,465.75404 670.56852,454.508"
           style="opacity:1;color:black;fill:#fcef3c;fill-opacity:1;fill-rule:nonzero;stroke:black;stroke-width:3.46194696;stroke-linecap:round;stroke-linejoin:round;marker:none;marker-start:none;marker-mid:none;marker-end:none;stroke-miterlimit:4;stroke-dasharray:none;stroke-dashoffset:0;stroke-opacity:1;visibility:visible;display:inline;overflow:visible"
           id="path4179" />
        <path
           d="M 661.89139,421.70846 C 670.33707,419.30003 677.09206,420.73409 680.46045,429.86496 C 686.63568,413.37558 676.87484,407.62572 661.89139,405.39545"
           style="opacity:1;color:black;fill:#fcef3c;fill-opacity:1;fill-rule:nonzero;stroke:black;stroke-width:3.46194696;stroke-linecap:round;stroke-linejoin:round;marker:none;marker-start:none;marker-mid:none;marker-end:none;stroke-miterlimit:4;stroke-dasharray:none;stroke-dashoffset:0;stroke-opacity:1;visibility:visible;display:inline;overflow:visible"
           id="path4181" />
      </g>
      <path
         d="M 240.48397,254.5126 C 252.08214,244.23072 251.54575,252.43842 252.52977,256.80934 C 266.84595,233.68885 260.83782,241.77537 265.51487,245.15153 C 276.47423,225.3032 273.30836,237.02394 275.5754,236.60247 C 284.04619,218.91917 284.32691,224.96419 287.39066,222.94618 C 301.28552,207.40207 329.71728,203.08789 356.52753,197.52107 C 366.53013,200.10003 366.83047,205.85425 368.10885,211.28839 C 372.64077,213.9223 375.46958,218.98082 376.88256,226.05494 C 399.88199,248.12756 427.31541,243.08015 452.80443,249.92568 C 455.93526,254.07587 459.38534,258.02405 463.44991,261.58348 C 462.83812,264.5789 463.57593,267.31816 464.50276,270.02152 C 458.80743,271.43212 455.09599,268.92002 446.01947,277.0162 L 439.93629,277.57133 C 435.97598,277.27076 436.0557,279.00018 437.36273,281.34625 C 439.445,280.64964 443.0828,283.82818 447.65723,289.34016 C 462.4148,280.69586 463.14476,283.61027 464.97071,285.01012 C 458.52655,289.12601 455.23423,287.85712 457.24976,294.78048 C 463.2285,293.6561 465.58651,298.71725 468.59712,302.66337 C 471.44782,302.87431 474.47709,304.2151 476.43502,298.77743 C 478.0346,291.68972 484.47204,293.93508 485.55961,300.33181 C 498.11804,290.42313 499.66254,293.40666 503.34104,293.89226 C 506.89743,290.35271 505.12535,287.82458 502.52221,285.45423 C 484.1373,277.64279 497.07611,272.90632 500.4165,272.13103 C 496.26484,269.71721 496.30236,264.44074 499.94856,256.69831 C 497.25944,256.58653 495.3871,256.05732 488.83513,257.91961 C 479.34126,253.82549 487.35093,253.22873 488.48424,251.258 C 472.5886,240.26353 487.83287,245.38966 487.78228,242.59792 C 470.05602,231.91271 485.45768,235.75588 485.55961,232.82756 C 482.80506,229.33574 471.25141,237.21817 476.55199,223.61235 C 469.48288,224.46064 461.10767,227.06837 463.33295,215.39638 C 456.26132,218.63088 438.26688,224.60456 416.53971,199.7416 C 407.53209,188.08381 383.88788,168.20653 367.05601,168.76515 C 339.09014,171.92301 325.26214,167.85576 279.31884,180.2009 L 206.5555,182.75452 L 189.12505,184.19787 C 189.50267,214.89927 181.67739,230.27537 170.95595,237.70493 C 170.42666,238.07171 163.46177,241.09212 162.91349,241.41268 C 152.22756,247.66041 142.7672,253.88213 138.35448,252.59032 C 133.33816,251.92746 131.98894,249.69842 133.20723,246.37283 C 133.79101,243.44934 134.16359,240.56593 133.20723,237.93479 C 132.37787,236.6747 132.59005,234.67322 129.46378,235.04811 C 126.47531,240.72507 121.52906,242.31424 115.42584,241.48765 C 113.9051,242.12112 112.94326,244.22191 114.25601,246.59488 C 123.35509,251.87796 121.4701,252.79058 122.21085,260.14014 C 117.06526,261.48458 111.93258,262.83466 110.74652,265.91352 C 107.91792,265.66155 105.01897,265.30944 102.79169,265.91352 C 101.67852,268.34536 101.17693,270.66111 101.62186,272.79719 C 111.59479,276.52122 108.60316,278.19452 110.04463,280.56905 C 115.66016,279.3858 120.19794,275.13388 125.2524,272.35308 C 133.16527,269.54144 132.6579,275.51119 130.86758,278.57058 C 129.07384,278.87514 127.28011,281.23848 125.48636,283.2337 C 124.40355,285.5937 124.80924,286.54099 125.2524,287.45271 C 139.4312,286.18234 137.61118,289.55161 141.63,291.22762 C 148.45653,292.55452 145.17046,288.6463 145.84138,286.78655 C 144.17322,280.87942 147.04224,280.57033 148.18104,278.12647 C 150.30774,276.44009 153.97187,274.10929 153.79622,280.56905 C 154.93605,286.10414 158.2507,285.15208 161.51709,284.34397 C 160.49195,277.8258 163.95293,276.8072 170.40779,279.45879 C 171.669,278.83847 172.65248,277.77887 172.98142,275.68388 C 169.08921,267.50582 178.45134,265.75046 183.50987,269.68844 L 182.80798,277.68236 C 187.78875,269.8288 192.09572,266.32491 195.20816,265.46942 C 194.19241,270.19805 194.04239,273.98765 195.20816,276.35003 C 202.32157,264.37852 206.04661,263.66251 209.48007,263.91505 C 208.94127,268.1912 209.20471,270.56384 209.24611,273.46335 C 213.81943,270.02301 216.41161,266.31406 218.8387,262.58273 C 224.05468,259.13427 224.65122,263.06979 223.98595,269.02227 C 225.3905,269.29058 227.32104,267.59692 230.53699,264.1371 C 234.2242,256.73427 236.8295,256.53884 240.12958,257.69755 C 240.46296,253.15683 241.96754,246.39577 239.89561,244.37435 C 240.71726,243.39358 243.45698,244.96141 245.74476,245.92872 C 246.44472,241.75191 245.63245,235.85281 244.8089,229.94088 C 247.27263,229.97115 248.61028,231.07017 250.19011,231.93935 C 249.57348,226.38732 248.91636,220.97625 247.38252,218.61615"
         style="color:black;fill:#fcef3c;fill-opacity:1;fill-rule:nonzero;stroke:black;stroke-width:2.27347016;stroke-linecap:round;stroke-linejoin:round;marker:none;marker-start:none;marker-mid:none;marker-end:none;stroke-miterlimit:4;stroke-dasharray:none;stroke-dashoffset:0;stroke-opacity:1;visibility:visible;display:inline;overflow:visible"
         id="path4183" />
      <path
         id="path4185"
         style="color:black;fill:#fcef3c;fill-opacity:1;fill-rule:nonzero;stroke:black;stroke-width:2.27347016;stroke-linecap:round;stroke-linejoin:round;marker:none;marker-start:none;marker-mid:none;marker-end:none;stroke-miterlimit:4;stroke-dasharray:none;stroke-dashoffset:0;stroke-opacity:1;visibility:visible;display:inline;overflow:visible"
         d="M 188.85561,179.16186 C 186.11237,183.32791 182.34647,186.64469 177.10945,188.7398 C 186.34515,191.36706 189.56292,189.91465 194.8114,189.83892 C 195.29003,193.08598 193.29334,195.81099 191.00631,198.47476 C 196.2011,198.34496 199.7237,197.26294 203.41423,196.27655 C 204.64735,199.4692 203.04949,202.66185 202.25615,205.85449 C 206.13871,203.6475 208.45758,200.61958 210.52809,199.25984 C 210.43863,203.78289 213.59811,205.60789 215.82213,208.20973 C 216.9213,205.57853 218.05513,203.07897 219.46178,201.61507 C 222.23122,203.1814 224.40966,204.93468 226.24477,206.79659 C 227.44314,204.43734 228.70742,202.32826 230.2153,201.14403 C 236.03978,203.53024 236.8383,204.62203 239.14899,206.16852 C 239.64824,204.65807 239.37415,202.39355 240.14163,199.41686 C 243.99843,202.5645 249.32951,202.56392 254.36936,203.18522 C 252.96342,200.96058 251.65914,198.63942 250.56427,196.11953 C 255.5991,195.70188 259.13095,196.14011 262.6413,196.59058 C 260.82491,194.18918 258.62721,191.74758 254.03849,189.05384 C 257.65915,189.30652 260.61558,189.24398 263.63393,189.21085 C 260.40069,186.90226 257.13606,184.68302 254.20392,181.51709 C 256.38638,180.19646 259.55389,180.12238 262.6413,179.94694 C 259.06929,177.80915 256.55166,175.47123 254.5348,173.03826 L 259.99428,172.72423 C 258.05004,170.45809 255.87016,168.28142 252.38409,166.60062 L 253.21129,163.77434 C 249.81758,162.33573 248.92625,160.10547 247.25549,158.12178 C 247.08305,155.52106 247.47645,153.72589 247.91725,151.99818 C 251.83581,151.00518 248.79863,146.8851 247.09006,143.36232 C 248.72444,140.6551 250.33889,139.28919 251.14918,131.41799 C 269.31904,127.83278 258.29063,108.87357 245.6011,117.29775 C 243.17467,115.74428 240.74824,111.71636 238.3218,114.15745 L 237.66005,110.7031 C 236.14843,110.82929 233.79839,111.75122 231.04249,113.05833 C 230.009,111.80221 229.83348,110.54609 229.71898,109.28996 C 226.37492,110.93995 224.78344,112.48258 222.60511,113.84342 L 219.46178,110.07505 C 218.75522,111.0877 218.00271,112.11905 215.16037,114.00043 C 212.89534,113.34375 210.62374,112.70131 206.22668,116.66969 C 194.34036,100.83533 174.1594,120.54884 193.65333,132.52826 C 193.1093,137.44807 192.32111,142.3679 192.6607,147.28771 C 190.49277,148.20691 190.19397,149.71744 189.84824,151.21311 C 191.33719,150.36753 192.82614,149.59063 194.31509,149.32892 C 193.54429,155.97915 191.30706,158.80204 189.35192,162.3612 L 194.97685,160.00597 C 196.3948,170.0858 187.48926,172.98052 179.92192,176.80663 C 182.53061,178.46773 185.62798,178.96932 188.85561,179.16186 z " />
      <g
         transform="matrix(0.674087,0,0,0.639766,50.38336,0.337623)"
         style="fill:black;fill-opacity:1;stroke:none;stroke-width:1.52275991;stroke-miterlimit:4;stroke-dasharray:none;stroke-opacity:1"
         id="g4189">
        <path
           d="M 230.42302,203.92378 C 226.07618,204.69161 223.06568,206.24777 220.81002,211.40545 C 220.13421,212.95072 226.16064,207.3174 226.85769,209.55963 C 227.13798,210.46125 226.85092,212.89272 228.01895,214.47785 C 229.34081,216.27174 230.59001,217.03125 233.28393,217.44929 C 239.11714,218.35447 242.37465,214.36537 243.17455,211.50306 C 244.16751,211.8825 245.26276,213.38932 245.68636,213.58651 C 245.8875,213.68014 245.08451,211.4288 246.28233,211.59582 C 249.29857,212.01639 250.26577,208.63371 250.64466,209.46243 C 251.62256,211.60139 256.52121,210.08411 257.38015,207.8481 C 257.68797,207.04678 256.42787,206.37206 255.04475,206.20594 C 254.30659,206.11728 254.7618,204.75123 254.45902,204.736 C 253.65092,204.69537 254.34517,207.24878 252.30703,206.28543 C 251.21048,205.76713 251.75505,203.30118 251.75799,203.15971 C 252.23868,202.46679 251.96958,200.61506 250.14046,200.21132 C 248.87086,199.93109 249.53513,198.10976 248.93207,198.62575 C 248.64991,198.86718 249.3159,204.65492 248.98966,204.96051 C 247.2651,206.5759 245.17502,208.95577 245.05901,208.67111 C 243.70882,205.35806 241.40596,204.7286 236.94436,203.8045 C 235.57821,203.52153 231.91483,203.79101 230.42302,203.92378 z "
           style="opacity:1;color:black;fill:black;fill-opacity:1;fill-rule:nonzero;stroke:none;stroke-width:1.52275991;stroke-linecap:round;stroke-linejoin:round;marker:none;stroke-miterlimit:4;stroke-dasharray:none;stroke-dashoffset:0;stroke-opacity:1;visibility:visible;display:inline;overflow:visible"
           id="path4191" />
        <path
           d="M 267.97324,202.57393 C 256.69396,210.57336 257.47127,198.1688 256.70361,199.80906 C 252.94766,207.83438 264.00024,209.02831 265.63504,209.43692 C 266.55105,209.66587 265.93505,211.29745 267.10308,212.88258 C 268.42494,214.67647 271.09215,215.02612 273.77926,215.48588 C 280.15242,216.57633 281.54368,211.45733 282.13597,208.43523 C 283.22232,208.49113 286.38303,209.98306 286.7339,210.33461 C 287.31924,210.9211 285.85498,206.99461 285.87224,206.16618 C 282.82274,203.69941 280.90126,203.6536 276.02849,202.20923 C 274.69087,201.81274 270.01726,201.76624 267.97324,202.57393 z "
           style="opacity:1;color:black;fill:black;fill-opacity:1;fill-rule:nonzero;stroke:none;stroke-width:1.52275991;stroke-linecap:round;stroke-linejoin:round;marker:none;stroke-miterlimit:4;stroke-dasharray:none;stroke-dashoffset:0;stroke-opacity:1;visibility:visible;display:inline;overflow:visible"
           id="path4193" />
      </g>
      <g
         transform="matrix(0.674087,0,0,0.639766,50.38336,0.337623)"
         style="fill:#fcef3c;fill-opacity:1;stroke:black;stroke-width:1.52275991;stroke-miterlimit:4;stroke-dasharray:none;stroke-opacity:1"
         id="g4195">
        <path
           d="M 231.11911,207.60053 C 230.69386,207.81197 230.66898,209.59547 230.82774,210.04306 C 231.43173,211.83695 231.03718,211.13957 232.10061,212.01829 C 233.16404,212.89701 236.02268,212.80192 237.22827,212.62119 C 239.63946,212.25973 240.17241,211.39991 240.1875,208.65625 C 240.19828,208.11699 239.30477,208.72739 239.2099,208.19642 C 239.14288,207.82131 238.66703,206.99267 237.94698,207.32172 C 237.45641,207.5459 237.92424,209.37412 237.617,210.09756 C 237.00913,211.52885 235.85862,211.45041 235.16425,211.5545 C 234.81706,211.60655 233.46791,210.42913 232.9638,210.01258 C 231.4635,208.26854 232.51611,206.90591 231.11911,207.60053 z "
           style="opacity:1;color:black;fill:#fcef3c;fill-opacity:1;fill-rule:nonzero;stroke:black;stroke-width:1.52275991;stroke-linecap:round;stroke-linejoin:round;marker:none;stroke-miterlimit:4;stroke-dasharray:none;stroke-dashoffset:0;stroke-opacity:1;visibility:visible;display:inline;overflow:visible"
           id="path4197" />
        <path
           d="M 270.01917,205.63712 C 269.62989,205.90916 269.75311,208.92055 269.91187,209.36814 C 270.51586,211.16203 270.00769,209.96623 270.87796,211.03659 C 271.46268,211.75574 273.95846,211.95243 276.00562,211.63949 C 277.23428,211.45167 278.33526,210.22887 278.96485,207.67455 C 278.97563,207.13529 278.08212,207.74569 277.98725,207.21472 C 277.92023,206.83961 277.44438,206.01097 276.72433,206.34002 C 276.23376,206.5642 276.64866,208.37216 276.39435,209.11586 C 275.96646,210.36717 275.27335,209.27912 274.43245,209.52974 C 274.09601,209.63001 273.10654,209.08667 272.47743,208.90817 C 269.59265,208.08965 271.9011,204.32198 270.01917,205.63712 z "
           style="opacity:1;color:black;fill:#fcef3c;fill-opacity:1;fill-rule:nonzero;stroke:black;stroke-width:1.52275991;stroke-linecap:round;stroke-linejoin:round;marker:none;stroke-miterlimit:4;stroke-dasharray:none;stroke-dashoffset:0;stroke-opacity:1;visibility:visible;display:inline;overflow:visible"
           id="path4199" />
        <path
           d="M 234.67515,206.73291 C 234.62982,206.90778 234.66926,207.10867 234.8125,207.21875 C 235.63184,207.45611 235.90196,207.93001 236.09375,208.5625 C 236.09375,208.5625 236.72906,208.52245 236.72906,208.52245 C 237.54669,206.39836 235.99334,206.16199 234.67515,206.73291 z "
           style="opacity:1;color:black;fill:#fcef3c;fill-opacity:1;fill-rule:nonzero;stroke:black;stroke-width:1.52275991;stroke-linecap:round;stroke-linejoin:round;marker:none;stroke-miterlimit:4;stroke-dasharray:none;stroke-dashoffset:0;stroke-opacity:1;visibility:visible;display:inline;overflow:visible"
           id="path4201" />
        <path
           d="M 273.63546,204.69378 C 273.59013,204.86865 273.62957,205.06954 273.77281,205.17962 C 274.59215,205.41698 274.86227,205.89088 275.05406,206.52337 C 275.05406,206.52337 275.68937,206.48332 275.68937,206.48332 C 276.507,204.35923 274.95365,204.12286 273.63546,204.69378 z "
           style="opacity:1;color:black;fill:#fcef3c;fill-opacity:1;fill-rule:nonzero;stroke:black;stroke-width:1.52275991;stroke-linecap:round;stroke-linejoin:round;marker:none;stroke-miterlimit:4;stroke-dasharray:none;stroke-dashoffset:0;stroke-opacity:1;visibility:visible;display:inline;overflow:visible"
           id="path4203" />
      </g>
      <g
         transform="matrix(0.674087,0,0,0.639766,50.38336,0.337623)"
         style="fill:black;fill-opacity:1;stroke:none;stroke-width:1.52275991;stroke-miterlimit:4;stroke-dasharray:none;stroke-opacity:1"
         id="g4205">
        <path
           d="M 218.40625,179.0625 C 217.32154,179.01878 216.38932,179.21721 215.12729,179.41997 C 212.15739,179.89713 208.99252,180.50633 207.90168,188.32279 C 207.45295,189.02178 208.71246,191.63608 209.52057,191.44398 C 210.23063,191.27518 210.05502,190.47442 210.41473,189.73856 C 211.6257,187.26124 212.38591,185.80829 213.29502,184.70767 C 214.44458,183.31595 216.1598,182.54861 217.15168,182.41082 C 218.11499,182.277 218.97157,184.40696 217.69665,185.45465 C 216.36154,186.5518 215.22344,189.06243 214.83575,191.23209 C 215.2045,191.89656 214.70157,196.2613 215.07126,195.67302 C 218.45333,190.29122 220.94579,188.96401 222.59641,186.02173 C 223.75239,183.96116 223.20883,183.26248 222.59527,181.60785 C 222.24363,180.65955 219.49096,179.10622 218.40625,179.0625 z "
           style="opacity:1;color:black;fill:black;fill-opacity:1;fill-rule:nonzero;stroke:none;stroke-width:1.52275991;stroke-linecap:round;stroke-linejoin:round;marker:none;stroke-miterlimit:4;stroke-dasharray:none;stroke-dashoffset:0;stroke-opacity:1;visibility:visible;display:inline;overflow:visible"
           id="path4207" />
        <path
           d="M 298.58604,184.69664 C 301.05951,184.39774 304.46329,183.83573 306.11844,190.89977 C 303.96727,189.57744 304.16882,188.77094 300.66374,187.7755 C 298.69911,188.01761 296.10427,187.87741 295.95533,189.44283 C 295.86424,190.40019 296.10762,190.83698 296.30061,192.64329 C 295.93186,193.30776 296.83071,197.16325 296.43324,196.59337 C 293.12092,191.84423 292.03247,193.02704 291.73049,189.82584 C 291.21761,184.38892 295.5945,185.05815 298.58604,184.69664 z "
           style="opacity:1;color:black;fill:black;fill-opacity:1;fill-rule:nonzero;stroke:none;stroke-width:1.52275991;stroke-linecap:round;stroke-linejoin:round;marker:none;stroke-miterlimit:4;stroke-dasharray:none;stroke-dashoffset:0;stroke-opacity:1;visibility:visible;display:inline;overflow:visible"
           id="path4209" />
      </g>
      <path
         d="M 216.33526,144.98481 C 215.99897,145.0273 215.70752,145.22699 215.55919,145.51659 C 215.41087,145.80617 215.48393,147.14629 215.65648,147.42353 C 217.32618,149.48474 218.7347,149.96127 219.51612,151.12257 C 220.28567,152.26623 221.92044,154.92877 223.10843,154.94722 C 223.32898,154.95064 223.75995,156.28974 223.76659,156.08152 C 223.83948,153.79903 226.03194,151.53153 230.6948,148.31641 C 231.14669,148.00483 231.09229,145.95374 230.63856,145.64458 C 230.18483,145.33541 229.63053,145.49778 229.22719,145.8645 C 226.53224,148.31472 224.63991,150.06746 223.47638,150.46282 C 222.67239,150.736 222.22268,150.05561 221.22689,149.27005 C 219.85165,148.18514 219.52265,147.746 217.7769,145.81772 C 217.57751,145.46198 216.75577,144.92925 216.33526,144.98481 L 216.33526,144.98481 z "
         style="color:black;fill:black;fill-opacity:1;fill-rule:nonzero;stroke:none;stroke-width:1;stroke-linecap:round;stroke-linejoin:round;marker:none;stroke-miterlimit:4;stroke-dasharray:none;stroke-dashoffset:0;stroke-opacity:1;visibility:visible;display:inline;overflow:visible"
         id="path4211" />
      <path
         d="M 239.82995,150.9605 C 239.27944,151.0031 238.51585,151.56807 238.55214,152.09116 C 238.67219,154.32018 238.38698,155.70723 237.73754,156.42064 C 237.0881,157.13405 236.13759,157.46252 234.72521,157.48025 C 231.90048,157.51574 228.38836,155.80447 224.3468,154.66808 C 221.45988,153.65901 221.92803,154.21483 221.58338,155.39422 C 216.7835,159.0641 213.38534,158.73727 211.71216,158.08218 C 210.89669,157.76289 209.77194,157.09999 209.24323,156.34727 C 208.63198,155.47701 208.61313,154.13596 208.96244,152.66202 C 209.03984,152.30635 208.24138,151.61211 207.89685,151.77014 C 206.1565,152.56839 206.11522,153.01047 205.38197,154.1075 C 205.40088,156.54933 206.1653,157.10174 206.89579,157.69978 C 207.89585,158.51852 208.30497,159.44057 209.66699,160.02806 C 209.98179,160.16384 211.11731,159.1658 212.07701,160.456 C 213.17854,161.9369 213.79337,164.33894 214.58233,165.65914 C 214.72728,165.90171 216.45044,166.39388 216.49851,166.49697 C 217.18337,167.96584 216.57849,179.36692 224.52452,178.97926 C 229.78758,179.04327 231.36336,174.07045 232.35795,164.80131 C 232.52311,163.26219 234.67459,167.16747 235.27271,165.50602 C 235.89289,163.78326 236.56761,157.73824 239.74323,157.95775 C 242.74763,158.16541 243.03684,151.85381 239.82995,150.9605 z "
         style="color:black;fill:black;fill-opacity:1;fill-rule:nonzero;stroke:none;stroke-width:1;stroke-linecap:round;stroke-linejoin:round;marker:none;stroke-miterlimit:4;stroke-dasharray:none;stroke-dashoffset:0;stroke-opacity:1;visibility:visible;display:inline;overflow:visible"
         id="path4213" />
      <g
         style="fill:#fcef3c;fill-opacity:1;stroke:black;stroke-width:0.13847788;stroke-miterlimit:4;stroke-dasharray:none;stroke-opacity:1"
         transform="matrix(0.674087,0,0,0.639766,50.38336,0.337623)"
         id="g4215">
        <path
           d="M 263.03697,247.25609 C 261.94316,247.33844 259.06735,244.87223 258.82356,245.9417 L 259.13111,257.52883 L 255.96494,257.66312 L 255.85213,246.82013 C 255.58462,245.46531 253.3491,248.6334 251.99428,248.90091 C 250.63946,249.16842 249.57395,250.79037 249.84146,252.14519 C 249.69618,255.74547 249.55391,260.78648 250.13645,264.10916 L 251.25268,267.48897 C 251.67736,268.7509 253.27688,275.88653 257.39552,275.98487 C 260.54762,276.06013 263.61773,273.58133 265.11213,267.31722 C 265.83244,264.29794 266.17799,257.80429 266.33689,255.38108 C 266.53025,254.60078 266.39796,249.35743 265.87785,248.74445 C 265.35774,248.13147 264.02242,247.62188 263.03697,247.25609 z "
           style="opacity:1;color:black;fill:#fcef3c;fill-opacity:1;fill-rule:nonzero;stroke:black;stroke-width:0.13847788;stroke-linecap:round;stroke-linejoin:round;marker:none;stroke-miterlimit:4;stroke-dasharray:none;stroke-dashoffset:0;stroke-opacity:1;visibility:visible;display:inline;overflow:visible"
           id="path4217" />
        <path
           d="M 243.71075,251.93293 C 244.55611,253.80763 244.9549,254.71456 246.61319,255.77869 C 247.18949,255.84821 246.52705,254.41323 246.8359,253.92172 C 247.14474,253.43022 246.16061,251.94565 245.84795,251.45656 L 245.72332,250.65168 C 244.4893,249.94447 243.91928,250.61491 243.71075,251.93293 z "
           style="opacity:1;color:black;fill:#fcef3c;fill-opacity:1;fill-rule:nonzero;stroke:black;stroke-width:0.13847788;stroke-linecap:round;stroke-linejoin:round;marker:none;stroke-miterlimit:4;stroke-dasharray:none;stroke-dashoffset:0;stroke-opacity:1;visibility:visible;display:inline;overflow:visible"
           id="path4219" />
        <path
           d="M 269.66425,248.53697 L 269.71875,249.96875 C 269.51066,250.48717 269.60785,251.07827 269.97099,251.50276 C 270.33412,251.92724 271.02576,252.5443 271.57014,252.419 L 272.9375,249.8125 C 273.11175,249.32772 273.02508,248.78744 272.70794,248.38149 C 272.39079,247.97555 271.76483,248.12886 271.25229,248.18064 C 270.48529,248.25988 270.09205,248.11147 269.66425,248.53697 z "
           style="opacity:1;color:black;fill:#fcef3c;fill-opacity:1;fill-rule:nonzero;stroke:black;stroke-width:0.13847788;stroke-linecap:round;stroke-linejoin:round;marker:none;stroke-miterlimit:4;stroke-dasharray:none;stroke-dashoffset:0;stroke-opacity:1;visibility:visible;display:inline;overflow:visible"
           id="path4221" />
      </g>
      <path
         style="fill:#fcef3c;fill-opacity:1;fill-rule:evenodd;stroke:black;stroke-width:2.27347016;stroke-linecap:butt;stroke-linejoin:miter;stroke-miterlimit:4;stroke-dasharray:none;stroke-opacity:1"
         d="M 362.43893,200.594 C 360.21805,198.92689 361.39055,199.53372 356.7342,198.0196 C 349.22315,200.21303 339.7044,203.55613 331.61558,207.94298 C 346.05991,204.55305 352.039,201.69071 362.43893,200.594 z "
         id="path4223"
         sodipodi:nodetypes="cccc" />
    </g>
    <g
       style="stroke:black;stroke-width:6.01026535;stroke-miterlimit:4;stroke-dasharray:none;stroke-opacity:1;display:inline"
       id="g3413"
       transform="matrix(0.383236,0,0,0.383236,209.4042,629.184)">
      <path
         sodipodi:nodetypes="csssssscscsscccccccsscscssssssc"
         id="path3415"
         d="M -48.09683,-730.04688 C -18.63463,-698.20088 -1.311324,-680.63851 1.71567,-631.22551 C 4.516922,-585.49753 -25.91305,-547.26746 -32.47183,-503.03801 C -33.71586,-494.64886 -34.78343,-477.52504 -33.65933,-470.58029 C -32.82682,-465.43703 -30.2673,-449.72452 -27.47183,-469.16609 C -26.89689,-473.16463 -26.48464,-493.22641 -24.72183,-503.41301 C -21.50976,-521.97423 -11.22367,-554.61188 6.62192,-572.69426 C 24.45989,-590.7689 52.7264,-602.49289 77.93442,-593.03801 C 100.77409,-582.49963 102.93306,-552.73834 96.43442,-530.97551 C 88.29557,-503.71988 57.19325,-484.85525 29.30942,-483.00676 C 34.83452,-493.933 48.05897,-525.11969 33.71567,-523.88176 C 17.11291,-522.44882 -2.746744,-494.20056 -7.917294,-474.82293 C -9.864494,-467.52547 -9.07753,-456.19513 -19.50308,-456.66301 C -12.62837,-433.43496 6.77717,-418.06468 23.77817,-401.85051 C 6.05563,-400.37739 -11.47738,-408.7178 -26.94058,-416.66301 C -26.286749,-400.73784 -29.378446,-367.09562 -48.09683,-348.72551 C -65.471545,-367.64157 -67.052581,-390.71209 -67.37808,-416.66301 C -82.84128,-408.7178 -100.37429,-400.37739 -118.09683,-401.85051 C -101.09583,-418.06468 -81.690291,-433.43496 -74.81558,-456.66301 C -85.24113,-456.19513 -85.868385,-466.81836 -87.81558,-474.11582 C -92.98613,-493.49343 -111.43157,-522.44884 -128.03433,-523.88176 C -142.37763,-525.11969 -129.15318,-493.933 -123.62808,-483.00676 C -151.51191,-484.85525 -182.61422,-503.71988 -190.75308,-530.97551 C -197.25172,-552.73834 -195.09274,-582.49964 -172.25308,-593.03801 C -147.04505,-602.49289 -118.77855,-590.76891 -100.94058,-572.69426 C -83.094993,-554.61188 -72.808901,-521.97423 -69.59683,-503.41301 C -67.83402,-493.22641 -68.128878,-474.57884 -67.553937,-470.58029 C -64.758467,-451.13871 -61.491841,-465.43705 -60.65933,-470.58029 C -59.53523,-477.52504 -60.602801,-494.64887 -61.84683,-503.03801 C -68.40561,-547.26744 -95.955806,-587.0527 -96.03433,-631.22551 C -96.103977,-671.11179 -76.05061,-701.46041 -48.09683,-730.04688 z "
         style="fill:#fcef3c;fill-opacity:1;fill-rule:evenodd;stroke:black;stroke-width:6.01026535;stroke-linecap:butt;stroke-linejoin:miter;stroke-miterlimit:4;stroke-dasharray:none;stroke-opacity:1" />
      <rect
         transform="scale(-1,1)"
         ry="7.0119839"
         y="-474.15433"
         x="-20.840672"
         height="22"
         width="136"
         id="rect3417"
         style="fill:#fcef3c;fill-opacity:1;fill-rule:evenodd;stroke:black;stroke-width:6.01026535;stroke-linejoin:round;stroke-miterlimit:4;stroke-dasharray:none;stroke-opacity:1"
         rx="7.0119839" />
    </g>
    <g
       transform="matrix(0.383236,0,0,0.383236,426.7421,629.184)"
       id="g5973"
       style="stroke:black;stroke-width:6.01026535;stroke-miterlimit:4;stroke-dasharray:none;stroke-opacity:1;display:inline">
      <path
         style="fill:#fcef3c;fill-opacity:1;fill-rule:evenodd;stroke:black;stroke-width:6.01026535;stroke-linecap:butt;stroke-linejoin:miter;stroke-miterlimit:4;stroke-dasharray:none;stroke-opacity:1"
         d="M -48.09683,-730.04688 C -18.63463,-698.20088 -1.311324,-680.63851 1.71567,-631.22551 C 4.516922,-585.49753 -25.91305,-547.26746 -32.47183,-503.03801 C -33.71586,-494.64886 -34.78343,-477.52504 -33.65933,-470.58029 C -32.82682,-465.43703 -30.2673,-449.72452 -27.47183,-469.16609 C -26.89689,-473.16463 -26.48464,-493.22641 -24.72183,-503.41301 C -21.50976,-521.97423 -11.22367,-554.61188 6.62192,-572.69426 C 24.45989,-590.7689 52.7264,-602.49289 77.93442,-593.03801 C 100.77409,-582.49963 102.93306,-552.73834 96.43442,-530.97551 C 88.29557,-503.71988 57.19325,-484.85525 29.30942,-483.00676 C 34.83452,-493.933 48.05897,-525.11969 33.71567,-523.88176 C 17.11291,-522.44882 -2.746744,-494.20056 -7.917294,-474.82293 C -9.864494,-467.52547 -9.07753,-456.19513 -19.50308,-456.66301 C -12.62837,-433.43496 6.77717,-418.06468 23.77817,-401.85051 C 6.05563,-400.37739 -11.47738,-408.7178 -26.94058,-416.66301 C -26.286749,-400.73784 -29.378446,-367.09562 -48.09683,-348.72551 C -65.471545,-367.64157 -67.052581,-390.71209 -67.37808,-416.66301 C -82.84128,-408.7178 -100.37429,-400.37739 -118.09683,-401.85051 C -101.09583,-418.06468 -81.690291,-433.43496 -74.81558,-456.66301 C -85.24113,-456.19513 -85.868385,-466.81836 -87.81558,-474.11582 C -92.98613,-493.49343 -111.43157,-522.44884 -128.03433,-523.88176 C -142.37763,-525.11969 -129.15318,-493.933 -123.62808,-483.00676 C -151.51191,-484.85525 -182.61422,-503.71988 -190.75308,-530.97551 C -197.25172,-552.73834 -195.09274,-582.49964 -172.25308,-593.03801 C -147.04505,-602.49289 -118.77855,-590.76891 -100.94058,-572.69426 C -83.094993,-554.61188 -72.808901,-521.97423 -69.59683,-503.41301 C -67.83402,-493.22641 -68.128878,-474.57884 -67.553937,-470.58029 C -64.758467,-451.13871 -61.491841,-465.43705 -60.65933,-470.58029 C -59.53523,-477.52504 -60.602801,-494.64887 -61.84683,-503.03801 C -68.40561,-547.26744 -95.955806,-587.0527 -96.03433,-631.22551 C -96.103977,-671.11179 -76.05061,-701.46041 -48.09683,-730.04688 z "
         id="path5975"
         sodipodi:nodetypes="csssssscscsscccccccsscscssssssc" />
      <rect
         rx="7.0119839"
         style="fill:#fcef3c;fill-opacity:1;fill-rule:evenodd;stroke:black;stroke-width:6.01026535;stroke-linejoin:round;stroke-miterlimit:4;stroke-dasharray:none;stroke-opacity:1"
         id="rect5977"
         width="136"
         height="22"
         x="-20.840672"
         y="-474.15433"
         ry="7.0119839"
         transform="scale(-1,1)" />
    </g>
  </g>
  <g
     inkscape:groupmode="layer"
     id="layer4"
     inkscape:label="Meubles"
     transform="translate(2.384186e-7,1.252533e-6)"
     style="display:inline">
    <g
       id="g17548"
       transform="matrix(0.915222,0,0,1.009632,25.74689,-7.400828e-3)">
      <path
         id="path7769"
         d="M 230.26052,2.2033717 C 230.28048,2.928726 230.29033,3.6377951 230.29177,4.3908717 C 230.36869,44.530355 207.54177,44.167606 207.54177,83.95337 C 207.54177,123.73915 230.29177,123.76136 230.29177,163.54714 C 230.29177,203.33291 207.54177,203.32386 207.54177,243.10964 C 207.54177,282.89542 230.29177,282.88637 230.29177,322.67214 C 230.29177,362.45792 207.54177,362.44886 207.54177,402.23464 C 207.54177,442.02041 230.29177,442.04263 230.29177,481.82839 C 230.29177,521.61416 207.54177,521.60511 207.54177,561.39089 C 207.54177,593.78959 222.62612,597.46237 228.22927,620.0639 C 272.08297,642.4572 281.81687,645.13317 299.66677,652.22726 C 319.05028,644.27048 331.86581,641.39969 386.47927,611.71177 C 379.7575,596.11217 369.01051,588.74358 369.01052,561.39089 C 369.01052,521.60513 391.76051,521.61417 391.76052,481.82839 C 391.76052,442.04262 369.01051,442.02041 369.01052,402.23464 C 369.01052,362.44886 391.76051,362.45792 391.76052,322.67214 C 391.76052,282.88637 369.01051,282.89541 369.01052,243.10964 C 369.01052,203.32387 391.76051,203.33291 391.76052,163.54714 C 391.76052,123.76136 369.01051,123.73915 369.01052,83.95337 C 369.01052,44.167607 390.56429,44.153885 391.76052,4.3908717 C 391.78303,3.6425728 391.77072,2.9220159 391.76052,2.2033717 L 230.26052,2.2033717 z "
         style="fill:white;fill-opacity:1;fill-rule:evenodd;stroke:black;stroke-width:3;stroke-linecap:butt;stroke-linejoin:miter;stroke-miterlimit:4;stroke-dasharray:none;stroke-opacity:1;display:inline"
         sodipodi:nodetypes="csssssssscccsssssssscc" />
      <g
         transform="translate(3.065453,-3.984129)"
         id="g13802">
        <g
           transform="matrix(0.34755,0,0,0.383054,105.4218,556.4037)"
           style="display:inline"
           id="use12885">
          <g
             style="fill:black;fill-opacity:1"
             id="g13058">
            <path
               sodipodi:nodetypes="cccc"
               d="M 377.12803,135.62208 C 372.97927,156.24936 367.77576,166.89622 361.77004,184.14571 L 397.54703,201.8397 C 388.98679,180.02855 382.00022,163.65038 377.12803,135.62208 z "
               style="fill:black;fill-opacity:1;fill-rule:evenodd;stroke:black;stroke-width:3;stroke-linecap:round;stroke-linejoin:round;stroke-miterlimit:4;stroke-dasharray:none;stroke-opacity:1"
               id="path13060" />
            <path
               sodipodi:nodetypes="cscscc"
               d="M 318.3687,126.26461 C 327.82694,122.13117 335.83663,115.27515 344.54617,116.90127 C 349.5545,117.83635 354.38174,121.57622 358.96194,130.25146 C 362.00722,137.96231 356.98981,148.46229 348.9248,153.15861 C 343.67687,156.21453 342.1287,156.81309 335.68172,152.58681 L 318.3687,126.26461 z "
               style="fill:black;fill-opacity:1;fill-rule:evenodd;stroke:black;stroke-width:3;stroke-linecap:round;stroke-linejoin:round;stroke-miterlimit:4;stroke-dasharray:none;stroke-opacity:1"
               id="path13062" />
            <path
               d="M 431.71563,139.34811 C 433.01156,135.27027 451.25343,148.32281 461.31064,120.96076 C 437.31923,148.54451 412.53036,91.919 392.47687,129.90175 C 386.28805,145.57226 413.39901,172.76215 431.71563,139.34811 z "
               style="fill:black;fill-opacity:1;fill-rule:evenodd;stroke:black;stroke-width:3;stroke-linecap:round;stroke-linejoin:round;stroke-miterlimit:4;stroke-dasharray:none;stroke-opacity:1;display:inline"
               id="path13064" />
            <path
               d="M 383.38239,79.374824 C 379.68544,77.220552 396.40299,62.265328 371.89381,46.481478 C 393.57969,75.912309 332.91037,87.751712 365.60384,115.60792 C 379.5469,125.06613 411.99605,104.53936 383.38239,79.374824 z "
               style="fill:black;fill-opacity:1;fill-rule:evenodd;stroke:black;stroke-width:3;stroke-linecap:round;stroke-linejoin:round;stroke-miterlimit:4;stroke-dasharray:none;stroke-opacity:1;display:inline"
               id="path13066" />
          </g>
        </g>
        <g
           transform="matrix(0.34755,0,0,0.383054,105.4218,331.6103)"
           style="display:inline"
           id="use12897">
          <g
             style="fill:black;fill-opacity:1"
             id="g13130">
            <path
               sodipodi:nodetypes="ccccccccccccc"
               d="M 377.12803,135.62208 C 366.14827,189.30046 346.03177,241.46925 311.69686,286.53739 L 313.41555,289.12937 C 323.90117,284.59874 335.26288,276.09118 346.30099,268.51112 C 339.79631,283.66727 333.29162,297.2434 326.78694,310.6332 L 329.4102,313.93268 C 336.69484,307.02867 348.32202,293.92105 362.59516,277.03346 C 365.77841,310.06027 370.08215,347.25496 376.51201,369.64909 C 381.63098,347.29082 385.41835,310.2849 389.48097,276.30682 C 401.72195,291.50121 413.61062,306.87175 430.17301,319.90544 L 406.92042,267.5871 C 418.92697,275.98511 432.19471,287.10163 444.92715,291.7876 C 414.7385,254.31996 389.31682,205.74061 377.12803,135.62208 z "
               style="fill:black;fill-opacity:1;fill-rule:evenodd;stroke:black;stroke-width:3;stroke-linecap:round;stroke-linejoin:round;stroke-miterlimit:4;stroke-dasharray:none;stroke-opacity:1"
               id="path13132" />
            <path
               sodipodi:nodetypes="ccccc"
               d="M 319.72318,139.69782 C 318.61477,136.21005 305.1098,145.25376 294.93203,130.82414 L 296.14479,126.55882 C 318.22179,140.10641 340.58106,95.436756 358.96194,130.25146 C 365.15076,145.92197 338.0398,173.11186 319.72318,139.69782 z "
               style="fill:black;fill-opacity:1;fill-rule:evenodd;stroke:black;stroke-width:3;stroke-linecap:round;stroke-linejoin:round;stroke-miterlimit:4;stroke-dasharray:none;stroke-opacity:1"
               id="path13134" />
            <path
               d="M 431.71563,139.34811 C 433.01156,135.27027 451.25343,148.32281 461.31064,120.96076 C 437.31923,148.54451 412.53036,91.919 392.47687,129.90175 C 386.28805,145.57226 413.39901,172.76215 431.71563,139.34811 z "
               style="fill:black;fill-opacity:1;fill-rule:evenodd;stroke:black;stroke-width:3;stroke-linecap:round;stroke-linejoin:round;stroke-miterlimit:4;stroke-dasharray:none;stroke-opacity:1;display:inline"
               id="path13136" />
            <path
               d="M 383.38239,79.374824 C 379.68544,77.220552 396.40299,62.265328 371.89381,46.481478 C 393.57969,75.912309 332.91037,87.751712 365.60384,115.60792 C 379.5469,125.06613 411.99605,104.53936 383.38239,79.374824 z "
               style="fill:black;fill-opacity:1;fill-rule:evenodd;stroke:black;stroke-width:3;stroke-linecap:round;stroke-linejoin:round;stroke-miterlimit:4;stroke-dasharray:none;stroke-opacity:1;display:inline"
               id="path13138" />
          </g>
        </g>
        <g
           transform="matrix(0.34755,0,0,0.383054,166.0103,444.007)"
           style="display:inline"
           id="use12899">
          <g
             style="fill:black;fill-opacity:1"
             id="g13142">
            <path
               d="M 377.12803,135.62208 C 363.02661,205.73306 336.73998,255.37403 308.18363,291.06095 C 320.05424,287.49883 333.39868,277.37136 346.30099,268.51112 C 338.41058,286.89606 330.52017,302.95607 322.62976,319.17879 C 327.34089,317.4313 342.29073,301.0571 362.59516,277.03346 C 365.77841,310.06027 370.08215,347.25496 376.51201,369.64909 C 381.63098,347.29082 385.41835,310.2849 389.48097,276.30682 C 401.72195,291.50121 413.61062,306.87175 430.17301,319.90544 L 406.92042,267.5871 C 418.92697,275.98511 432.19471,287.10163 444.92715,291.7876 C 414.7385,254.31996 389.31682,205.74061 377.12803,135.62208 z "
               style="fill:black;fill-opacity:1;fill-rule:evenodd;stroke:black;stroke-width:3;stroke-linecap:round;stroke-linejoin:round;stroke-miterlimit:4;stroke-dasharray:none;stroke-opacity:1"
               id="path13144" />
            <path
               d="M 319.72318,139.69782 C 318.42725,135.61998 300.18538,148.67252 290.12817,121.31047 C 314.11958,148.89422 338.90845,92.268711 358.96194,130.25146 C 365.15076,145.92197 338.0398,173.11186 319.72318,139.69782 z "
               style="fill:black;fill-opacity:1;fill-rule:evenodd;stroke:black;stroke-width:3;stroke-linecap:round;stroke-linejoin:round;stroke-miterlimit:4;stroke-dasharray:none;stroke-opacity:1"
               id="path13146" />
            <path
               d="M 431.71563,139.34811 C 433.01156,135.27027 451.25343,148.32281 461.31064,120.96076 C 437.31923,148.54451 412.53036,91.919 392.47687,129.90175 C 386.28805,145.57226 413.39901,172.76215 431.71563,139.34811 z "
               style="fill:black;fill-opacity:1;fill-rule:evenodd;stroke:black;stroke-width:3;stroke-linecap:round;stroke-linejoin:round;stroke-miterlimit:4;stroke-dasharray:none;stroke-opacity:1;display:inline"
               id="path13148" />
            <path
               d="M 383.38239,79.374824 C 379.68544,77.220552 396.40299,62.265328 371.89381,46.481478 C 393.57969,75.912309 332.91037,87.751712 365.60384,115.60792 C 379.5469,125.06613 411.99605,104.53936 383.38239,79.374824 z "
               style="fill:black;fill-opacity:1;fill-rule:evenodd;stroke:black;stroke-width:3;stroke-linecap:round;stroke-linejoin:round;stroke-miterlimit:4;stroke-dasharray:none;stroke-opacity:1;display:inline"
               id="path13150" />
          </g>
        </g>
        <g
           transform="matrix(0.34755,0,0,0.383054,226.5997,556.4037)"
           style="display:inline"
           id="use12901">
          <g
             style="fill:black;fill-opacity:1"
             id="g13154">
            <path
               sodipodi:nodetypes="cccc"
               d="M 377.12803,135.62208 C 371.51712,163.519 363.97703,180.9926 355.13239,202.8183 L 390.99792,184.66955 C 385.38484,167.59313 380.69105,156.11911 377.12803,135.62208 z "
               style="fill:black;fill-opacity:1;fill-rule:evenodd;stroke:black;stroke-width:3;stroke-linecap:round;stroke-linejoin:round;stroke-miterlimit:4;stroke-dasharray:none;stroke-opacity:1"
               id="path13156" />
            <path
               d="M 319.72318,139.69782 C 318.42725,135.61998 300.18538,148.67252 290.12817,121.31047 C 314.11958,148.89422 338.90845,92.268711 358.96194,130.25146 C 365.15076,145.92197 338.0398,173.11186 319.72318,139.69782 z "
               style="fill:black;fill-opacity:1;fill-rule:evenodd;stroke:black;stroke-width:3;stroke-linecap:round;stroke-linejoin:round;stroke-miterlimit:4;stroke-dasharray:none;stroke-opacity:1"
               id="path13158" />
            <path
               sodipodi:nodetypes="ccccc"
               d="M 431.71563,139.34811 C 432.28109,137.5688 436.07288,139.05093 441.0033,139.01403 L 430.77443,124.25593 C 417.14266,117.52936 404.02463,108.02945 392.47687,129.90175 C 386.28805,145.57226 413.39901,172.76215 431.71563,139.34811 z "
               style="fill:black;fill-opacity:1;fill-rule:evenodd;stroke:black;stroke-width:3;stroke-linecap:round;stroke-linejoin:round;stroke-miterlimit:4;stroke-dasharray:none;stroke-opacity:1;display:inline"
               id="path13160" />
            <path
               d="M 383.38239,79.374824 C 379.68544,77.220552 396.40299,62.265328 371.89381,46.481478 C 393.57969,75.912309 332.91037,87.751712 365.60384,115.60792 C 379.5469,125.06613 411.99605,104.53936 383.38239,79.374824 z "
               style="fill:black;fill-opacity:1;fill-rule:evenodd;stroke:black;stroke-width:3;stroke-linecap:round;stroke-linejoin:round;stroke-miterlimit:4;stroke-dasharray:none;stroke-opacity:1;display:inline"
               id="path13162" />
          </g>
        </g>
        <g
           transform="matrix(0.34755,0,0,0.383054,105.4218,106.8167)"
           style="display:inline"
           id="use12909">
          <g
             style="fill:black;fill-opacity:1"
             id="g13202">
            <path
               d="M 377.12803,135.62208 C 363.02661,205.73306 336.73998,255.37403 308.18363,291.06095 C 320.05424,287.49883 333.39868,277.37136 346.30099,268.51112 C 338.41058,286.89606 330.52017,302.95607 322.62976,319.17879 C 327.34089,317.4313 342.29073,301.0571 362.59516,277.03346 C 365.77841,310.06027 370.08215,347.25496 376.51201,369.64909 C 381.63098,347.29082 385.41835,310.2849 389.48097,276.30682 C 401.72195,291.50121 413.61062,306.87175 430.17301,319.90544 L 406.92042,267.5871 C 418.92697,275.98511 432.19471,287.10163 444.92715,291.7876 C 414.7385,254.31996 389.31682,205.74061 377.12803,135.62208 z "
               style="fill:black;fill-opacity:1;fill-rule:evenodd;stroke:black;stroke-width:3;stroke-linecap:round;stroke-linejoin:round;stroke-miterlimit:4;stroke-dasharray:none;stroke-opacity:1"
               id="path13204" />
            <path
               sodipodi:nodetypes="ccscc"
               d="M 346.21394,117.3214 C 350.62748,118.73132 354.89222,122.54313 358.96194,130.25146 C 360.39628,133.88331 360.04195,138.13392 358.42297,142.10542 C 356.91776,145.79785 354.31938,149.24902 351.04899,151.73735 C 351.56957,140.26536 350.25641,128.79338 346.21394,117.3214 z "
               style="fill:black;fill-opacity:1;fill-rule:evenodd;stroke:black;stroke-width:3;stroke-linecap:round;stroke-linejoin:round;stroke-miterlimit:4;stroke-dasharray:none;stroke-opacity:1"
               id="path13206" />
            <path
               d="M 431.71563,139.34811 C 433.01156,135.27027 451.25343,148.32281 461.31064,120.96076 C 437.31923,148.54451 412.53036,91.919 392.47687,129.90175 C 386.28805,145.57226 413.39901,172.76215 431.71563,139.34811 z "
               style="fill:black;fill-opacity:1;fill-rule:evenodd;stroke:black;stroke-width:3;stroke-linecap:round;stroke-linejoin:round;stroke-miterlimit:4;stroke-dasharray:none;stroke-opacity:1;display:inline"
               id="path13208" />
            <path
               d="M 383.38239,79.374824 C 379.68544,77.220552 396.40299,62.265328 371.89381,46.481478 C 393.57969,75.912309 332.91037,87.751712 365.60384,115.60792 C 379.5469,125.06613 411.99605,104.53936 383.38239,79.374824 z "
               style="fill:black;fill-opacity:1;fill-rule:evenodd;stroke:black;stroke-width:3;stroke-linecap:round;stroke-linejoin:round;stroke-miterlimit:4;stroke-dasharray:none;stroke-opacity:1;display:inline"
               id="path13210" />
          </g>
        </g>
        <g
           transform="matrix(0.34755,0,0,0.383054,166.0103,219.2134)"
           style="display:inline"
           id="use12911">
          <g
             style="fill:black;fill-opacity:1"
             id="g13214">
            <path
               d="M 377.12803,135.62208 C 363.02661,205.73306 336.73998,255.37403 308.18363,291.06095 C 320.05424,287.49883 333.39868,277.37136 346.30099,268.51112 C 338.41058,286.89606 330.52017,302.95607 322.62976,319.17879 C 327.34089,317.4313 342.29073,301.0571 362.59516,277.03346 C 365.77841,310.06027 370.08215,347.25496 376.51201,369.64909 C 381.63098,347.29082 385.41835,310.2849 389.48097,276.30682 C 401.72195,291.50121 413.61062,306.87175 430.17301,319.90544 L 406.92042,267.5871 C 418.92697,275.98511 432.19471,287.10163 444.92715,291.7876 C 414.7385,254.31996 389.31682,205.74061 377.12803,135.62208 z "
               style="fill:black;fill-opacity:1;fill-rule:evenodd;stroke:black;stroke-width:3;stroke-linecap:round;stroke-linejoin:round;stroke-miterlimit:4;stroke-dasharray:none;stroke-opacity:1"
               id="path13216" />
            <path
               d="M 319.72318,139.69782 C 318.42725,135.61998 300.18538,148.67252 290.12817,121.31047 C 314.11958,148.89422 338.90845,92.268711 358.96194,130.25146 C 365.15076,145.92197 338.0398,173.11186 319.72318,139.69782 z "
               style="fill:black;fill-opacity:1;fill-rule:evenodd;stroke:black;stroke-width:3;stroke-linecap:round;stroke-linejoin:round;stroke-miterlimit:4;stroke-dasharray:none;stroke-opacity:1"
               id="path13218" />
            <path
               d="M 431.71563,139.34811 C 433.01156,135.27027 451.25343,148.32281 461.31064,120.96076 C 437.31923,148.54451 412.53036,91.919 392.47687,129.90175 C 386.28805,145.57226 413.39901,172.76215 431.71563,139.34811 z "
               style="fill:black;fill-opacity:1;fill-rule:evenodd;stroke:black;stroke-width:3;stroke-linecap:round;stroke-linejoin:round;stroke-miterlimit:4;stroke-dasharray:none;stroke-opacity:1;display:inline"
               id="path13220" />
            <path
               d="M 383.38239,79.374824 C 379.68544,77.220552 396.40299,62.265328 371.89381,46.481478 C 393.57969,75.912309 332.91037,87.751712 365.60384,115.60792 C 379.5469,125.06613 411.99605,104.53936 383.38239,79.374824 z "
               style="fill:black;fill-opacity:1;fill-rule:evenodd;stroke:black;stroke-width:3;stroke-linecap:round;stroke-linejoin:round;stroke-miterlimit:4;stroke-dasharray:none;stroke-opacity:1;display:inline"
               id="path13222" />
          </g>
        </g>
        <g
           transform="matrix(0.34755,0,0,0.383054,226.5997,331.6103)"
           style="display:inline"
           id="use12913">
          <g
             style="fill:black;fill-opacity:1"
             id="g13226">
            <path
               sodipodi:nodetypes="cccccccccccc"
               d="M 377.12803,135.62208 C 363.02661,205.73306 336.73998,255.37403 308.18363,291.06095 C 320.05424,287.49883 333.39868,277.37136 346.30099,268.51112 C 338.41058,286.89606 330.52017,302.95607 322.62976,319.17879 C 327.34089,317.4313 342.29073,301.0571 362.59516,277.03346 C 365.77841,310.06027 370.08215,347.25496 376.51201,369.64909 C 381.63098,347.29082 385.41835,310.2849 389.48097,276.30682 C 401.72195,291.50121 413.61062,306.87175 430.17301,319.90544 L 406.92042,267.5871 C 411.36918,270.69879 415.99108,274.18371 420.69475,277.57645 L 400.11758,216.403 C 390.38134,193.03948 382.47935,166.40665 377.12803,135.62208 z "
               style="fill:black;fill-opacity:1;fill-rule:evenodd;stroke:black;stroke-width:3;stroke-linecap:round;stroke-linejoin:round;stroke-miterlimit:4;stroke-dasharray:none;stroke-opacity:1"
               id="path13228" />
            <path
               d="M 319.72318,139.69782 C 318.42725,135.61998 300.18538,148.67252 290.12817,121.31047 C 314.11958,148.89422 338.90845,92.268711 358.96194,130.25146 C 365.15076,145.92197 338.0398,173.11186 319.72318,139.69782 z "
               style="fill:black;fill-opacity:1;fill-rule:evenodd;stroke:black;stroke-width:3;stroke-linecap:round;stroke-linejoin:round;stroke-miterlimit:4;stroke-dasharray:none;stroke-opacity:1"
               id="path13230" />
            <path
               sodipodi:nodetypes="cscscc"
               d="M 417.48623,117.91819 C 411.35248,115.66574 405.40555,115.25346 399.75201,120.1248 C 397.26728,122.26575 394.83922,125.42729 392.47687,129.90175 C 390.28785,135.4445 392.26488,142.4284 396.54526,147.66192 C 398.99079,150.65202 402.18819,153.07076 405.79007,154.3229 L 417.48623,117.91819 z "
               style="fill:black;fill-opacity:1;fill-rule:evenodd;stroke:black;stroke-width:3;stroke-linecap:round;stroke-linejoin:round;stroke-miterlimit:4;stroke-dasharray:none;stroke-opacity:1;display:inline"
               id="path13232" />
            <path
               d="M 383.38239,79.374824 C 379.68544,77.220552 396.40299,62.265328 371.89381,46.481478 C 393.57969,75.912309 332.91037,87.751712 365.60384,115.60792 C 379.5469,125.06613 411.99605,104.53936 383.38239,79.374824 z "
               style="fill:black;fill-opacity:1;fill-rule:evenodd;stroke:black;stroke-width:3;stroke-linecap:round;stroke-linejoin:round;stroke-miterlimit:4;stroke-dasharray:none;stroke-opacity:1;display:inline"
               id="path13234" />
          </g>
        </g>
        <g
           transform="matrix(0.34755,0,0,0.383054,105.4218,-117.9768)"
           style="display:inline"
           id="use12919">
          <g
             style="fill:black;fill-opacity:1"
             id="g13262">
            <path
               sodipodi:nodetypes="cccc"
               d="M 367.92557,324.35771 C 370.28967,341.73152 373.10181,357.77194 376.51201,369.64909 C 379.22891,357.78241 381.5707,341.78954 383.77763,324.31314 L 367.92557,324.35771 z "
               style="fill:black;fill-opacity:1;fill-rule:evenodd;stroke:black;stroke-width:3;stroke-linecap:round;stroke-linejoin:round;stroke-miterlimit:4;stroke-dasharray:none;stroke-opacity:1"
               id="path13264" />
          </g>
        </g>
        <g
           transform="matrix(0.34755,0,0,0.383054,166.0103,-5.580119)"
           style="display:inline"
           id="use12921">
          <g
             style="fill:black;fill-opacity:1"
             id="g13274">
            <path
               d="M 377.12803,135.62208 C 363.02661,205.73306 336.73998,255.37403 308.18363,291.06095 C 320.05424,287.49883 333.39868,277.37136 346.30099,268.51112 C 338.41058,286.89606 330.52017,302.95607 322.62976,319.17879 C 327.34089,317.4313 342.29073,301.0571 362.59516,277.03346 C 365.77841,310.06027 370.08215,347.25496 376.51201,369.64909 C 381.63098,347.29082 385.41835,310.2849 389.48097,276.30682 C 401.72195,291.50121 413.61062,306.87175 430.17301,319.90544 L 406.92042,267.5871 C 418.92697,275.98511 432.19471,287.10163 444.92715,291.7876 C 414.7385,254.31996 389.31682,205.74061 377.12803,135.62208 z "
               style="fill:black;fill-opacity:1;fill-rule:evenodd;stroke:black;stroke-width:3;stroke-linecap:round;stroke-linejoin:round;stroke-miterlimit:4;stroke-dasharray:none;stroke-opacity:1"
               id="path13276" />
            <path
               d="M 319.72318,139.69782 C 318.42725,135.61998 300.18538,148.67252 290.12817,121.31047 C 314.11958,148.89422 338.90845,92.268711 358.96194,130.25146 C 365.15076,145.92197 338.0398,173.11186 319.72318,139.69782 z "
               style="fill:black;fill-opacity:1;fill-rule:evenodd;stroke:black;stroke-width:3;stroke-linecap:round;stroke-linejoin:round;stroke-miterlimit:4;stroke-dasharray:none;stroke-opacity:1"
               id="path13278" />
            <path
               d="M 431.71563,139.34811 C 433.01156,135.27027 451.25343,148.32281 461.31064,120.96076 C 437.31923,148.54451 412.53036,91.919 392.47687,129.90175 C 386.28805,145.57226 413.39901,172.76215 431.71563,139.34811 z "
               style="fill:black;fill-opacity:1;fill-rule:evenodd;stroke:black;stroke-width:3;stroke-linecap:round;stroke-linejoin:round;stroke-miterlimit:4;stroke-dasharray:none;stroke-opacity:1;display:inline"
               id="path13280" />
            <path
               d="M 383.38239,79.374824 C 379.68544,77.220552 396.40299,62.265328 371.89381,46.481478 C 393.57969,75.912309 332.91037,87.751712 365.60384,115.60792 C 379.5469,125.06613 411.99605,104.53936 383.38239,79.374824 z "
               style="fill:black;fill-opacity:1;fill-rule:evenodd;stroke:black;stroke-width:3;stroke-linecap:round;stroke-linejoin:round;stroke-miterlimit:4;stroke-dasharray:none;stroke-opacity:1;display:inline"
               id="path13282" />
          </g>
        </g>
        <g
           transform="matrix(0.34755,0,0,0.383054,226.5997,106.8167)"
           style="display:inline"
           id="use12923">
          <g
             style="fill:black;fill-opacity:1"
             id="g13286">
            <path
               sodipodi:nodetypes="ccccccccccccc"
               d="M 377.12803,135.62208 C 363.02661,205.73306 336.73998,255.37403 308.18363,291.06095 C 320.05424,287.49883 333.39868,277.37136 346.30099,268.51112 C 338.41058,286.89606 330.52017,302.95607 322.62976,319.17879 C 327.34089,317.4313 342.29073,301.0571 362.59516,277.03346 C 365.77841,310.06027 370.08215,347.25496 376.51201,369.64909 C 381.63098,347.29082 385.41835,310.2849 389.48097,276.30682 C 396.42133,284.9217 403.24843,293.5932 410.87834,301.8633 L 417.86258,292.20697 L 406.92042,267.5871 C 412.02422,271.15696 417.35591,275.21805 422.7775,279.06762 L 428.30772,269.17675 C 405.56346,235.09946 387.00294,192.42955 377.12803,135.62208 z "
               style="fill:black;fill-opacity:1;fill-rule:evenodd;stroke:black;stroke-width:3;stroke-linecap:round;stroke-linejoin:round;stroke-miterlimit:4;stroke-dasharray:none;stroke-opacity:1"
               id="path13288" />
            <path
               d="M 319.72318,139.69782 C 318.42725,135.61998 300.18538,148.67252 290.12817,121.31047 C 314.11958,148.89422 338.90845,92.268711 358.96194,130.25146 C 365.15076,145.92197 338.0398,173.11186 319.72318,139.69782 z "
               style="fill:black;fill-opacity:1;fill-rule:evenodd;stroke:black;stroke-width:3;stroke-linecap:round;stroke-linejoin:round;stroke-miterlimit:4;stroke-dasharray:none;stroke-opacity:1"
               id="path13290" />
            <path
               d="M 431.71563,139.34811 C 433.01156,135.27027 451.25343,148.32281 461.31064,120.96076 C 437.31923,148.54451 412.53036,91.919 392.47687,129.90175 C 386.28805,145.57226 413.39901,172.76215 431.71563,139.34811 z "
               style="fill:black;fill-opacity:1;fill-rule:evenodd;stroke:black;stroke-width:3;stroke-linecap:round;stroke-linejoin:round;stroke-miterlimit:4;stroke-dasharray:none;stroke-opacity:1;display:inline"
               id="path13292" />
            <path
               d="M 383.38239,79.374824 C 379.68544,77.220552 396.40299,62.265328 371.89381,46.481478 C 393.57969,75.912309 332.91037,87.751712 365.60384,115.60792 C 379.5469,125.06613 411.99605,104.53936 383.38239,79.374824 z "
               style="fill:black;fill-opacity:1;fill-rule:evenodd;stroke:black;stroke-width:3;stroke-linecap:round;stroke-linejoin:round;stroke-miterlimit:4;stroke-dasharray:none;stroke-opacity:1;display:inline"
               id="path13294" />
          </g>
        </g>
        <g
           transform="matrix(0.34755,0,0,0.383054,226.5997,-117.9768)"
           style="display:inline"
           id="use12929">
          <g
             style="fill:black;fill-opacity:1"
             id="g13322">
            <path
               sodipodi:nodetypes="cccc"
               d="M 367.92782,324.37428 C 370.29146,341.74173 373.1029,357.77572 376.51201,369.64909 C 379.17976,357.9971 381.48584,342.36686 383.65771,325.2602 L 367.92782,324.37428 z "
               style="fill:black;fill-opacity:1;fill-rule:evenodd;stroke:black;stroke-width:3;stroke-linecap:round;stroke-linejoin:round;stroke-miterlimit:4;stroke-dasharray:none;stroke-opacity:1"
               id="path13324" />
          </g>
        </g>
      </g>
    </g>
  </g>
  <g
     inkscape:groupmode="layer"
     id="layer2"
     inkscape:label="Reflet final"
     transform="translate(2.384186e-7,1.252533e-6)"
     sodipodi:insensitive="true">
    <path
       sodipodi:nodetypes="cccccc"
       d="M 300.00001,658.5 C 300.00001,658.5 598.50001,546.17969 598.50001,260.72817 C 598.50001,-24.723334 598.50001,2.1764865 598.50001,2.1764865 L 1.5,2.1764865 L 1.5,260.72817 C 1.5,546.17969 300.00001,658.5 300.00001,658.5 z "
       style="opacity:1;fill:url(#radialGradient3163);fill-opacity:1;fill-rule:evenodd;stroke:none;stroke-width:1px;stroke-linecap:butt;stroke-linejoin:miter;stroke-opacity:1"
       id="path2875"
       inkscape:export-xdpi="144"
       inkscape:export-ydpi="144" />
  </g>
  <g
     inkscape:groupmode="layer"
     id="layer1"
     inkscape:label="Contour final"
     transform="translate(2.384186e-7,1.252533e-6)"
     sodipodi:insensitive="true">
    <path
       sodipodi:nodetypes="cccccc"
       d="M 299.99999,658.50028 C 299.99999,658.50028 1.5,546.17992 1.5,260.72828 C 1.5,-24.723336 1.5,2.1764957 1.5,2.1764957 L 598.49999,2.1764957 L 598.49999,260.72828 C 598.49999,546.17992 299.99999,658.50028 299.99999,658.50028 z "
       style="opacity:1;fill:none;fill-opacity:1;fill-rule:evenodd;stroke:black;stroke-width:3.00000048;stroke-linecap:butt;stroke-linejoin:miter;stroke-miterlimit:4;stroke-dasharray:none;stroke-opacity:1"
       id="path1411"
       inkscape:export-xdpi="144"
       inkscape:export-ydpi="144" />
  </g>
</svg>
