<?xml version="1.0" encoding="UTF-8" standalone="no"?>
<!-- Created with Inkscape (http://www.inkscape.org/) -->
<svg
   xmlns:svg="http://www.w3.org/2000/svg"
   xmlns="http://www.w3.org/2000/svg"
   xmlns:xlink="http://www.w3.org/1999/xlink"
   version="1.0"
   width="600"
   height="660"
   id="svg2">
  <desc
     id="desc4">Flag of Canton of Valais (Wallis)</desc>
  <defs
     id="defs6">
    <linearGradient
       x1="241.1429"
       y1="51.4207"
       x2="243.12413"
       y2="48.302807"
       id="linearGradient1397"
       xlink:href="#linearGradient1732"
       gradientUnits="userSpaceOnUse"
       gradientTransform="translate(75.92347,47.10196)" />
    <linearGradient
       x1="270.4964"
       y1="176.24918"
       x2="296.92871"
       y2="185.71556"
       id="linearGradient1559"
       xlink:href="#linearGradient1732"
       gradientUnits="userSpaceOnUse"
       gradientTransform="translate(-1.428571e-5,-5.714286e-5)" />
    <linearGradient
       x1="171"
       y1="92.5"
       x2="180"
       y2="96.5"
       id="linearGradient2433"
       xlink:href="#linearGradient1732"
       gradientUnits="userSpaceOnUse" />
    <linearGradient
       x1="177.33789"
       y1="217.77766"
       x2="211.82967"
       y2="213.55009"
       id="linearGradient1549"
       xlink:href="#linearGradient1732"
       gradientUnits="userSpaceOnUse"
       gradientTransform="translate(-1.428571e-5,-5.714286e-5)" />
    <linearGradient
       x1="292.85715"
       y1="493.73016"
       x2="321.82541"
       y2="513.17462"
       id="linearGradient1658"
       xlink:href="#linearGradient1732"
       gradientUnits="userSpaceOnUse"
       gradientTransform="translate(-1.428571e-5,-5.714286e-5)" />
    <linearGradient
       x1="266.26984"
       y1="534.20636"
       x2="312.30157"
       y2="534.60315"
       id="linearGradient1666"
       xlink:href="#linearGradient1732"
       gradientUnits="userSpaceOnUse"
       gradientTransform="translate(-1.428571e-5,-5.714286e-5)" />
    <linearGradient
       x1="300"
       y1="566.74603"
       x2="319.15079"
       y2="547.59521"
       id="linearGradient1674"
       xlink:href="#linearGradient1732"
       gradientUnits="userSpaceOnUse"
       gradientTransform="translate(-1.428571e-5,-5.714286e-5)" />
    <linearGradient
       x1="337.30157"
       y1="571.11108"
       x2="341.26984"
       y2="546.90479"
       id="linearGradient1682"
       xlink:href="#linearGradient1732"
       gradientUnits="userSpaceOnUse"
       gradientTransform="translate(-1.428571e-5,-5.714286e-5)" />
    <linearGradient
       x1="118.45238"
       y1="312.77777"
       x2="136.32533"
       y2="294.72223"
       id="linearGradient1614"
       xlink:href="#linearGradient1732"
       gradientUnits="userSpaceOnUse"
       gradientTransform="translate(-1.428571e-5,-5.714286e-5)" />
    <linearGradient
       x1="88.492065"
       y1="297.10318"
       x2="118.05556"
       y2="280.63492"
       id="linearGradient1606"
       xlink:href="#linearGradient1732"
       gradientUnits="userSpaceOnUse"
       gradientTransform="translate(-1.428571e-5,-5.714286e-5)" />
    <linearGradient
       x1="84.126984"
       y1="260.59525"
       x2="115.67461"
       y2="257.61905"
       id="linearGradient1598"
       xlink:href="#linearGradient1732"
       gradientUnits="userSpaceOnUse"
       gradientTransform="translate(-1.428571e-5,-5.714286e-5)" />
    <linearGradient
       x1="82.14286"
       y1="264.16666"
       x2="113.69048"
       y2="258.41269"
       id="linearGradient1590"
       xlink:href="#linearGradient1732"
       gradientUnits="userSpaceOnUse"
       gradientTransform="translate(-1.428571e-5,-5.714286e-5)" />
    <linearGradient
       x1="94.280907"
       y1="496.1308"
       x2="124.13653"
       y2="467.62207"
       id="linearGradient1561"
       xlink:href="#linearGradient1732"
       gradientUnits="userSpaceOnUse"
       gradientTransform="translate(-1.428571e-5,-5.714286e-5)" />
    <linearGradient
       x1="186.50793"
       y1="491.74603"
       x2="186.50793"
       y2="458.41269"
       id="linearGradient1650"
       xlink:href="#linearGradient1732"
       gradientUnits="userSpaceOnUse"
       gradientTransform="translate(-1.428571e-5,-5.714286e-5)" />
    <linearGradient
       x1="143.65079"
       y1="488.96826"
       x2="163.88889"
       y2="454.04761"
       id="linearGradient1642"
       xlink:href="#linearGradient1732"
       gradientUnits="userSpaceOnUse"
       gradientTransform="translate(-1.428571e-5,-5.714286e-5)" />
    <linearGradient
       x1="107.14286"
       y1="225.27779"
       x2="130.35715"
       y2="242.34128"
       id="linearGradient1582"
       xlink:href="#linearGradient1732"
       gradientUnits="userSpaceOnUse"
       gradientTransform="translate(-1.428571e-5,-5.714286e-5)" />
    <linearGradient
       x1="131.15079"
       y1="395.31747"
       x2="166.66667"
       y2="415.35715"
       id="linearGradient1622"
       xlink:href="#linearGradient1732"
       gradientUnits="userSpaceOnUse"
       gradientTransform="translate(-1.428571e-5,-5.714286e-5)" />
    <linearGradient
       x1="124.58548"
       y1="115.64002"
       x2="157.20032"
       y2="137.97067"
       id="linearGradient1551"
       xlink:href="#linearGradient1732"
       gradientUnits="userSpaceOnUse"
       gradientTransform="translate(-1.428571e-5,-5.714286e-5)" />
    <linearGradient
       x1="179.58267"
       y1="75.233917"
       x2="193.02094"
       y2="101.81393"
       id="linearGradient1557"
       xlink:href="#linearGradient1732"
       gradientUnits="userSpaceOnUse"
       gradientTransform="translate(-1.428571e-5,-5.714286e-5)" />
    <linearGradient
       x1="112.23917"
       y1="75.233917"
       x2="137.60522"
       y2="90.41172"
       id="linearGradient1555"
       xlink:href="#linearGradient1732"
       gradientUnits="userSpaceOnUse"
       gradientTransform="translate(-1.428571e-5,-5.714286e-5)" />
    <linearGradient
       x1="87.546555"
       y1="139.21025"
       x2="124.361"
       y2="137.97067"
       id="linearGradient1553"
       xlink:href="#linearGradient1732"
       gradientUnits="userSpaceOnUse"
       gradientTransform="translate(-1.428571e-5,-5.714286e-5)" />
    <linearGradient
       id="linearGradient1732">
      <stop
         style="stop-color:#ffffff;stop-opacity:1"
         offset="0"
         id="stop1734" />
      <stop
         style="stop-color:#ffffff;stop-opacity:1"
         offset="1"
         id="stop1736" />
    </linearGradient>
    <linearGradient
       x1="107.7496"
       y1="191.96266"
       x2="139.39598"
       y2="166.38455"
       id="linearGradient1800"
       xlink:href="#linearGradient1732"
       gradientUnits="userSpaceOnUse"
       gradientTransform="translate(-1.428571e-5,-5.714286e-5)" />
    <linearGradient
       id="linearGradient2893">
      <stop
         style="stop-color:#ffffff;stop-opacity:0.3137255"
         offset="0"
         id="stop2895" />
      <stop
         style="stop-color:#ffffff;stop-opacity:0.25098041"
         offset="0.19"
         id="stop2897" />
      <stop
         style="stop-color:#6b6b6b;stop-opacity:0.1254902"
         offset="0.60000002"
         id="stop2901" />
      <stop
         style="stop-color:#000000;stop-opacity:0.1254902"
         offset="1"
         id="stop2899" />
    </linearGradient>
    <linearGradient
       id="linearGradient2885">
      <stop
         style="stop-color:#ffffff;stop-opacity:1"
         offset="0"
         id="stop2887" />
      <stop
         style="stop-color:#ffffff;stop-opacity:1"
         offset="0.22857143"
         id="stop2891" />
      <stop
         style="stop-color:#000000;stop-opacity:1"
         offset="1"
         id="stop2889" />
    </linearGradient>
    <linearGradient
       id="linearGradient2955">
      <stop
         style="stop-color:#fd0000;stop-opacity:1"
         offset="0"
         id="stop2867" />
      <stop
         style="stop-color:#e77275;stop-opacity:0.65882355"
         offset="0.5"
         id="stop2873" />
      <stop
         style="stop-color:#000000;stop-opacity:0.32291666"
         offset="1"
         id="stop2959" />
    </linearGradient>
    <radialGradient
       cx="225.52438"
       cy="218.90099"
       r="300"
       fx="225.52438"
       fy="218.90099"
       id="radialGradient2961"
       xlink:href="#linearGradient2955"
       gradientUnits="userSpaceOnUse"
       gradientTransform="matrix(-4.167939e-4,2.182867,-1.884232,-3.599562e-4,615.5972,-289.1214)" />
    <polygon
       points="0,-1 0.58778525,0.80901699 -0.95105652,-0.30901699 0.95105652,-0.30901699 -0.58778525,0.80901699 0,-1 "
       transform="scale(53,53)"
       id="star" />
    <clipPath
       id="clip">
      <path
         d="M 0,-200 L 0,600 L 300,600 L 300,-200 L 0,-200 z "
         id="path10" />
    </clipPath>
    <radialGradient
       cx="225.52438"
       cy="218.90099"
       r="300"
       fx="225.52438"
       fy="218.90099"
       id="radialGradient1911"
       xlink:href="#linearGradient2955"
       gradientUnits="userSpaceOnUse"
       gradientTransform="matrix(-4.167939e-4,2.182867,-1.884232,-3.599562e-4,615.5972,-289.1214)" />
    <radialGradient
       cx="225.52438"
       cy="218.90099"
       r="300"
       fx="225.52438"
       fy="218.90099"
       id="radialGradient2865"
       xlink:href="#linearGradient2955"
       gradientUnits="userSpaceOnUse"
       gradientTransform="matrix(0,1.748721,-1.593162,-1.049767e-7,551.7876,-191.2898)" />
    <radialGradient
       cx="225.52438"
       cy="218.90099"
       r="300"
       fx="225.52438"
       fy="218.90099"
       id="radialGradient2871"
       xlink:href="#linearGradient2955"
       gradientUnits="userSpaceOnUse"
       gradientTransform="matrix(0,1.386237,-1.323286,-5.741131e-8,-158.0823,-109.5408)" />
    <radialGradient
       cx="221.44487"
       cy="226.33101"
       r="300"
       fx="221.44487"
       fy="226.33101"
       id="radialGradient3163"
       xlink:href="#linearGradient2893"
       gradientUnits="userSpaceOnUse"
       gradientTransform="matrix(1.353218,0,0,1.348928,-77.62935,-85.74693)" />
  </defs>
  <g
     style="display:inline"
     id="layer3">
    <path
       d="M 300,658.5 C 300,658.5 598.50001,546.17969 598.50001,260.72817 C 598.50001,-24.723354 598.50001,2.1764765 598.50001,2.1764765 L 1.5,2.1764765 L 1.5,260.72817 C 1.5,546.17969 300,658.5 300,658.5 z "
       style="fill:#2b5df2;fill-opacity:1;fill-rule:evenodd;stroke:#000000;stroke-width:3;stroke-linecap:butt;stroke-linejoin:miter;stroke-miterlimit:4;stroke-dasharray:none;stroke-opacity:1"
       id="path2855" />
    <path
       d="M 1.5,2.1875 L 1.5,20.5 L 13.5,20.5 L 13.5,2.1875 L 1.5,2.1875 z M 106.5,2.1875 L 106.5,20.5 L 133.5,20.5 L 133.5,2.1875 L 106.5,2.1875 z M 226.5,2.1875 L 226.5,20.5 L 253.5,20.5 L 253.5,2.1875 L 226.5,2.1875 z M 346.5,2.1875 L 346.5,20.5 L 373.5,20.5 L 373.5,2.1875 L 346.5,2.1875 z M 466.5,2.1875 L 466.5,20.5 L 493.5,20.5 L 493.5,2.1875 L 466.5,2.1875 z M 586.5,2.1875 L 586.5,20.5 L 598.5,20.5 C 598.5,20.649362 598.5,2.1875 598.5,2.1875 L 586.5,2.1875 z M 46.5,43.5 L 46.5,120.5 L 73.5,120.5 L 73.5,43.5 L 46.5,43.5 z M 166.5,43.5 L 166.5,120.5 L 193.5,120.5 L 193.5,43.5 L 166.5,43.5 z M 286.5,43.5 L 286.5,120.5 L 313.5,120.5 L 313.5,43.5 L 286.5,43.5 z M 406.5,43.5 L 406.5,120.5 L 433.5,120.5 L 433.5,43.5 L 406.5,43.5 z M 526.5,43.5 L 526.5,120.5 L 553.5,120.5 L 553.5,43.5 L 526.5,43.5 z M 1.5,143.5 L 1.5,220.5 L 13.5,220.5 L 13.5,143.5 L 1.5,143.5 z M 106.5,143.5 L 106.5,220.5 L 133.5,220.5 L 133.5,143.5 L 106.5,143.5 z M 226.5,143.5 L 226.5,220.5 L 253.5,220.5 L 253.5,143.5 L 226.5,143.5 z M 346.5,143.5 L 346.5,220.5 L 373.5,220.5 L 373.5,143.5 L 346.5,143.5 z M 466.5,143.5 L 466.5,220.5 L 493.5,220.5 L 493.5,143.5 L 466.5,143.5 z M 586.5,143.5 L 586.5,220.5 L 598.5,220.5 C 598.5,161.98141 598.5,164.92958 598.5,143.5 L 586.5,143.5 z M 46.5,243.5 L 46.5,320.5 L 73.5,320.5 L 73.5,243.5 L 46.5,243.5 z M 166.5,243.5 L 166.5,320.5 L 193.5,320.5 L 193.5,243.5 L 166.5,243.5 z M 286.5,243.5 L 286.5,320.5 L 313.5,320.5 L 313.5,243.5 L 286.5,243.5 z M 406.5,243.5 L 406.5,320.5 L 433.5,320.5 L 433.5,243.5 L 406.5,243.5 z M 526.5,243.5 L 526.5,320.5 L 553.5,320.5 L 553.5,243.5 L 526.5,243.5 z M 10.375,343.5 C 11.349385,347.92287 12.381052,352.3059 13.5,356.625 L 13.5,343.5 L 10.375,343.5 z M 106.5,343.5 L 106.5,420.5 L 133.5,420.5 L 133.5,343.5 L 106.5,343.5 z M 226.5,343.5 L 226.5,420.5 L 253.5,420.5 L 253.5,343.5 L 226.5,343.5 z M 346.5,343.5 L 346.5,420.5 L 373.5,420.5 L 373.5,343.5 L 346.5,343.5 z M 466.5,343.5 L 466.5,420.5 L 493.5,420.5 L 493.5,343.5 L 466.5,343.5 z M 586.5,343.5 L 586.5,356.625 C 587.61895,352.3059 588.65061,347.92287 589.625,343.5 L 586.5,343.5 z M 48.21875,443.5 C 55.99094,457.55526 64.492153,470.8508 73.5,483.40625 L 73.5,443.5 L 48.21875,443.5 z M 166.5,443.5 L 166.5,520.5 L 193.5,520.5 L 193.5,443.5 L 166.5,443.5 z M 286.5,443.5 L 286.5,520.5 L 313.5,520.5 L 313.5,443.5 L 286.5,443.5 z M 406.5,443.5 L 406.5,520.5 L 433.5,520.5 L 433.5,443.5 L 406.5,443.5 z M 526.5,443.5 L 526.5,483.40625 C 535.50785,470.8508 544.00906,457.55526 551.78125,443.5 L 526.5,443.5 z M 125.40625,543.5 C 128.09171,546.12389 130.79561,548.69164 133.5,551.21875 L 133.5,543.5 L 125.40625,543.5 z M 226.5,543.5 L 226.5,620.5 L 253.5,620.5 L 253.5,543.5 L 226.5,543.5 z M 346.5,543.5 L 346.5,620.5 L 373.5,620.5 L 373.5,543.5 L 346.5,543.5 z M 466.5,543.5 L 466.5,551.21875 C 469.20439,548.69164 471.90829,546.12389 474.59375,543.5 L 466.5,543.5 z M 286.5,643.5 L 286.5,652.8125 C 295.04978,656.6306 300,658.5 300,658.5 C 300,658.5 304.95022,656.6306 313.5,652.8125 L 313.5,643.5 L 286.5,643.5 z "
       style="color:#000000;fill:#fcef3c;fill-opacity:1;fill-rule:nonzero;stroke:#000000;stroke-width:1;stroke-linecap:butt;stroke-linejoin:miter;marker:none;marker-start:none;marker-mid:none;marker-end:none;stroke-miterlimit:4;stroke-dasharray:none;stroke-dashoffset:0;stroke-opacity:1;visibility:visible;display:inline;overflow:visible"
       id="rect8438" />
  </g>
  <g
     style="display:inline"
     id="layer4">
    <g
       transform="matrix(0.8300816,0,0,0.8300816,55.011054,111.94423)"
       id="g10495">
      <g
         transform="translate(-26.25014,49.92369)"
         style="display:inline"
         id="g8413">
        <path
           d="M 166.36546,146.24908 C 156.37223,153.78278 141.41502,155.08409 135.49967,147.65208 C 135.49967,147.65208 145.54685,150.00407 150.09077,144.56551 C 156.2573,137.18486 156.48097,133.69772 157.38633,135.30577 L 166.36546,146.24908 z "
           style="opacity:1;fill:#e20909;fill-opacity:1;fill-rule:evenodd;stroke:#000000;stroke-width:3;stroke-linecap:butt;stroke-linejoin:miter;stroke-miterlimit:4;stroke-dasharray:none;stroke-opacity:1;display:inline"
           id="path1738" />
        <path
           d="M 147.28479,114.54153 C 138.53419,107.70626 127.98131,108.48808 123.71457,119.59228 C 122.58439,119.16846 124.19198,105.68408 129.04593,100.79223 C 134.03705,95.762123 135.35938,93.987723 142.79523,93.777283 C 150.23107,93.566833 159.6311,97.986253 159.6311,97.986253 L 147.28479,114.54153 z "
           style="opacity:1;fill:#e20909;fill-opacity:1;fill-rule:evenodd;stroke:#000000;stroke-width:3;stroke-linecap:butt;stroke-linejoin:miter;stroke-miterlimit:4;stroke-dasharray:none;stroke-opacity:1;display:inline"
           id="path1748" />
        <path
           d="M 162.43709,83.675753 C 157.84816,71.121103 154.67984,57.975943 134.93849,60.105523 C 134.93849,60.105523 144.79172,53.886443 156.26393,55.615963 C 170.43986,57.753083 180.86639,74.968883 180.11475,75.257823 L 162.43709,83.675753 z "
           style="opacity:1;fill:#e20909;fill-opacity:1;fill-rule:evenodd;stroke:#000000;stroke-width:3;stroke-linecap:butt;stroke-linejoin:miter;stroke-miterlimit:4;stroke-dasharray:none;stroke-opacity:1;display:inline"
           id="path1750" />
        <path
           d="M 194.98644,76.099613 C 200.96608,70.387673 200.32895,58.058963 202.28199,48.320413 C 202.28199,48.320413 209.92829,54.984613 211.82232,64.314493 C 213.71636,73.644383 209.85813,85.639943 209.85813,85.639943 L 194.98644,76.099613 z "
           style="opacity:1;fill:#e20909;fill-opacity:1;fill-rule:evenodd;stroke:#000000;stroke-width:3;stroke-linecap:butt;stroke-linejoin:miter;stroke-miterlimit:4;stroke-dasharray:none;stroke-opacity:1;display:inline"
           id="path1752" />
        <path
           d="M 239.60151,186.93579 L 229.78058,182.09548 C 233.34208,178.302 229.27665,175.27122 225.57162,172.2044 C 223.37217,168.55996 219.34539,168.52456 214.90889,170.09992 C 214.26943,163.13883 209.21964,161.84817 203.40438,161.54168 C 202.10875,150.92442 196.80388,151.53305 191.89987,151.01926 C 189.92362,145.59735 186.34533,144.57381 183.06103,145.4073 C 181.9795,143.44754 179.02555,142.8921 171.97741,145.4073 C 171.97741,145.4073 167.48785,153.12374 162.43709,151.01926 C 157.38633,148.91477 152.47586,142.88192 150.65197,138.67295 C 148.82808,134.46398 157.52662,135.30578 157.38632,130.25501 C 157.24602,125.20425 153.87884,121.55648 150.09077,118.4699 C 146.3027,115.38332 140.83104,118.75049 141.81313,111.45495 C 142.79523,104.1594 143.25119,97.495213 148.12658,93.636993 C 153.00197,89.778773 161.31469,96.022073 161.31469,96.022073 C 161.31469,96.022073 166.75127,95.039983 165.75164,91.848173 C 164.75201,88.656373 157.31617,83.254863 160.1923,79.466793 C 165.94455,71.890643 170.29382,68.313023 177.30877,68.242873 C 184.32372,68.172723 181.72819,79.116043 186.14761,80.027983 C 190.56702,80.939933 191.37374,69.996603 198.35362,72.732433 C 205.33349,75.468263 214.43071,80.937673 212.10291,88.445923 C 210.1252,94.825013 207.78426,92.608743 208.55314,94.883863 C 209.62739,98.062593 206.63777,95.253163 217.99547,105.70269 C 222.82113,110.14249 229.47807,116.45748 237.09531,122.43718 C 244.71256,128.41687 253.45384,136.61012 260.97518,142.63201 C 268.49652,148.65391 275.63971,151.10146 280.62197,155.13013 C 285.60423,159.15879 288.70615,161.68198 288.70615,161.68198 L 239.60151,186.93579 z "
           style="opacity:1;fill:#fcef3c;fill-opacity:1;fill-rule:evenodd;stroke:#000000;stroke-width:3;stroke-linecap:butt;stroke-linejoin:miter;stroke-miterlimit:4;stroke-dasharray:none;stroke-opacity:1;display:inline"
           id="path1727" />
        <path
           d="M 184.61233,392.91667 C 185.69918,378.11667 170.54822,369.62567 155.84249,369.70237 C 155.84249,369.70237 173.40202,362.90677 183.42186,366.52777 C 193.4417,370.14877 197.11234,375.85317 197.11234,375.85317 L 184.61233,392.91667 z "
           style="opacity:1;fill:#e20909;fill-opacity:1;fill-rule:evenodd;stroke:#000000;stroke-width:3;stroke-linecap:butt;stroke-linejoin:miter;stroke-miterlimit:4;stroke-dasharray:none;stroke-opacity:1;display:inline"
           id="path1572" />
        <path
           d="M 177.07265,415.13887 C 164.02301,403.72997 155.4204,415.24417 144.13615,420.29767 C 144.13615,420.29767 151.47742,402.88697 160.40599,397.48017 C 169.33456,392.07347 179.85043,398.67067 179.85043,398.67067 L 177.07265,415.13887 z "
           style="opacity:1;fill:#e20909;fill-opacity:1;fill-rule:evenodd;stroke:#000000;stroke-width:3;stroke-linecap:butt;stroke-linejoin:miter;stroke-miterlimit:4;stroke-dasharray:none;stroke-opacity:1;display:inline"
           id="path1574" />
        <path
           d="M 186.99329,435.17857 C 181.72091,437.63407 177.20659,443.12177 175.08853,458.19447 C 175.08853,458.19447 172.90599,444.20637 174.29488,436.76587 C 175.68377,429.32537 180.64408,428.43257 180.64408,428.43257 L 186.99329,435.17857 z "
           style="opacity:1;fill:#e20909;fill-opacity:1;fill-rule:evenodd;stroke:#000000;stroke-width:3;stroke-linecap:butt;stroke-linejoin:miter;stroke-miterlimit:4;stroke-dasharray:none;stroke-opacity:1;display:inline"
           id="path1624" />
        <path
           d="M 217.15202,437.55957 C 212.66256,442.13587 212.25169,448.46017 215.16789,456.21037 C 215.16789,456.21037 207.23139,445.99207 205.24726,440.73417 C 203.26313,435.47617 207.23138,435.17857 207.23138,435.17857 L 217.15202,437.55957 z "
           style="opacity:1;fill:#e20909;fill-opacity:1;fill-rule:evenodd;stroke:#000000;stroke-width:3;stroke-linecap:butt;stroke-linejoin:miter;stroke-miterlimit:4;stroke-dasharray:none;stroke-opacity:1;display:inline"
           id="path1626" />
        <path
           d="M 295.875,311.5 C 290.03598,311.50134 284.40934,311.84076 279.4375,312.65625 C 252.92101,317.00553 244.65625,335.09375 244.65625,335.09375 C 244.65625,335.09375 262.74443,361.6065 253.625,373.8125 C 244.50557,386.01851 219.51887,392.27895 209.84375,383.90625 L 202.5625,377.59375 C 199.00315,374.51354 200.45571,369.7566 194.84375,372.5625 C 189.23178,375.3685 184.0455,383.27105 182.90625,386.15625 C 179.73799,394.18014 190.78125,394.59375 190.78125,394.59375 L 187.40625,397.375 C 187.08715,398.09289 183.52903,392.26605 180.125,394.59375 C 174.71771,398.29124 172.82845,407.7797 172.96875,413.8125 C 173.10905,419.84541 180.6875,418.71875 180.6875,418.71875 L 182.375,424.875 C 182.375,424.875 177.43881,425.8688 178,429.9375 C 178.56121,434.00621 184.91724,438.2055 187.96875,439.1875 C 191.02025,440.1696 192.59375,434.4375 192.59375,434.4375 L 204.8125,432.1875 C 204.8125,432.18749 201.71454,436.09765 206.625,437.78125 C 211.53546,439.46485 215.35801,440.4654 219.8125,439.0625 C 224.26699,437.6595 221.09375,431.1875 221.09375,431.1875 C 253.55051,421.62131 288.57143,415.80915 329.96875,419.28125 C 317.53899,403.49395 314.38225,384.35305 315.375,363.71875 C 331.60219,360.54793 341.00692,364.18671 349.59375,368.65625 C 353.73442,364.07048 360.27156,356.72725 357.625,351.65625 C 352.49788,341.83225 344.3081,329.5795 340.15625,315.75 C 329.28831,313.92961 311.76664,311.49636 295.875,311.5 z "
           style="opacity:1;fill:#fcef3c;fill-opacity:1;fill-rule:evenodd;stroke:#000000;stroke-width:3;stroke-linecap:butt;stroke-linejoin:miter;stroke-miterlimit:4;stroke-dasharray:none;stroke-opacity:1;display:inline"
           id="path1760" />
        <path
           d="M 147.11234,209.58335 C 144.66394,203.15294 137.15566,197.50098 127.8663,192.12303 C 127.8663,192.12303 140.71352,193.51193 148.30281,196.09129 C 155.8921,198.67066 158.22345,202.44049 158.22345,202.44049 L 147.11234,209.58335 z "
           style="opacity:1;fill:#e20909;fill-opacity:1;fill-rule:evenodd;stroke:#000000;stroke-width:3;stroke-linecap:butt;stroke-linejoin:miter;stroke-miterlimit:4;stroke-dasharray:none;stroke-opacity:1;display:inline"
           id="path1564" />
        <path
           d="M 136.39805,233.19446 C 126.18025,226.12044 118.49085,234.21682 110.20758,238.75002 C 110.20758,238.75002 117.36041,225.60371 124.70168,220.94101 C 132.04294,216.27831 139.57265,220.09922 139.57265,220.09922 L 136.39805,233.19446 z "
           style="opacity:1;fill:#e20909;fill-opacity:1;fill-rule:evenodd;stroke:#000000;stroke-width:3;stroke-linecap:butt;stroke-linejoin:miter;stroke-miterlimit:4;stroke-dasharray:none;stroke-opacity:1;display:inline"
           id="path1566" />
        <path
           d="M 143.3425,257.2024 C 136.13983,257.27142 128.47367,259.01415 117.94567,271.09129 C 117.94567,271.09129 117.59845,261.41867 122.90599,254.82145 C 128.21353,248.22423 139.17583,244.7024 139.17583,244.7024 L 143.3425,257.2024 z "
           style="opacity:1;fill:#e20909;fill-opacity:1;fill-rule:evenodd;stroke:#000000;stroke-width:3;stroke-linecap:butt;stroke-linejoin:miter;stroke-miterlimit:4;stroke-dasharray:none;stroke-opacity:1;display:inline"
           id="path1568" />
        <path
           d="M 154.84837,266.75028 C 154.2863,270.65239 149.9383,274.69481 143.47867,277.12379 C 143.47867,277.12379 154.94912,277.54571 159.61234,275.25795 C 164.27556,272.97019 163.18377,269.30557 163.18377,269.30557 L 154.84837,266.75028 z "
           style="opacity:1;fill:#e20909;fill-opacity:1;fill-rule:evenodd;stroke:#000000;stroke-width:3;stroke-linecap:butt;stroke-linejoin:miter;stroke-miterlimit:4;stroke-dasharray:none;stroke-opacity:1;display:inline"
           id="path1570" />
        <path
           d="M 358.81868,521.28967 C 362.31929,523.53507 363.81961,527.18057 356.83456,536.76587 C 356.83456,536.76587 366.65599,532.10317 369.9298,528.03577 C 373.20361,523.96827 369.9298,520.49607 369.9298,520.49607 L 358.81868,521.28967 z "
           style="opacity:1;fill:#e20909;fill-opacity:1;fill-rule:evenodd;stroke:#000000;stroke-width:3;stroke-linecap:butt;stroke-linejoin:miter;stroke-miterlimit:4;stroke-dasharray:none;stroke-opacity:1;display:inline"
           id="path1634" />
        <path
           d="M 335.00916,516.13097 C 334.56715,526.42587 324.85866,525.93667 313.97742,530.41667 C 313.97742,530.41667 328.75917,534.38497 335.80282,530.01987 C 342.84647,525.65477 346.12027,521.68647 346.12027,521.68647 L 335.00916,516.13097 z "
           style="opacity:1;fill:#e20909;fill-opacity:1;fill-rule:evenodd;stroke:#000000;stroke-width:3;stroke-linecap:butt;stroke-linejoin:miter;stroke-miterlimit:4;stroke-dasharray:none;stroke-opacity:1;display:inline"
           id="path1632" />
        <path
           d="M 331.04091,510.97227 C 321.30829,500.00007 308.56136,510.12807 296.91392,512.55957 C 296.91392,512.55957 308.32265,500.65477 317.54884,497.87697 C 326.77503,495.09917 333.81868,501.44847 333.81868,501.44847 L 331.04091,510.97227 z "
           style="opacity:1;fill:#e20909;fill-opacity:1;fill-rule:evenodd;stroke:#000000;stroke-width:3;stroke-linecap:butt;stroke-linejoin:miter;stroke-miterlimit:4;stroke-dasharray:none;stroke-opacity:1;display:inline"
           id="path1630" />
        <path
           d="M 337.78694,487.55957 C 333.85765,470.21067 318.10994,472.55907 305.24726,470.09917 C 305.24726,470.09917 324.29487,463.84917 334.21551,463.74997 C 344.13614,463.65077 344.9298,469.70237 344.9298,469.70237 L 337.78694,487.55957 z "
           style="opacity:1;fill:#e20909;fill-opacity:1;fill-rule:evenodd;stroke:#000000;stroke-width:3;stroke-linecap:butt;stroke-linejoin:miter;stroke-miterlimit:4;stroke-dasharray:none;stroke-opacity:1;display:inline"
           id="path1628" />
        <path
           d="M 275.08853,184.38494 C 275.08853,184.38494 233.62028,201.64684 206.04091,207.40081 C 178.46155,213.15478 163.18377,205.41668 163.18377,205.41668 C 163.18377,205.41668 164.57266,196.88494 157.62821,197.87701 C 150.68377,198.86907 145.92186,203.63098 143.3425,208.59129 C 142.05281,211.07145 146.41789,212.55954 147.53397,215.0149 C 148.65004,217.47025 145.72345,220.09922 145.72345,220.09922 C 145.72345,220.09922 139.37425,211.9643 136.19964,216.92462 C 133.02503,221.88494 129.65201,228.03573 131.83455,234.78176 C 132.92582,238.15478 136.99329,234.48414 139.99428,235.92264 C 142.99527,237.36113 142.54885,242.71827 142.54885,242.71827 C 142.54885,242.71827 135.00916,240.0397 136.19964,245.49605 C 137.39012,250.9524 136.99329,256.60716 141.35837,260.17859 C 145.72345,263.75002 147.70758,255.81351 147.70758,255.81351 L 154.45361,261.36907 C 154.45361,261.36907 149.89012,265.33732 153.65996,268.51192 C 157.4298,271.68652 161.79488,274.06748 165.56472,274.06748 C 169.33456,274.06748 168.34249,266.52779 168.34249,266.52779 C 171.52192,262.70146 175.35542,260.18327 180.64408,260.57541 C 188.9429,263.66778 188.35955,269.4248 186.19964,275.65478 C 196.78778,275.9316 204.54319,270.54294 213.18376,266.92462 C 219.70795,267.9172 221.47134,270.69509 219.53297,274.86113 C 233.99224,279.47813 245.97264,272.94018 258.42186,268.51192 C 261.08715,270.68259 262.02487,273.88979 259.41392,279.2262 C 273.69964,258.06218 287.98535,249.86113 302.27106,254.62303 C 313.63008,271.53806 324.87048,282.2613 337.78694,294.50399 C 335.57736,317.07966 350.00318,337.03666 357.62821,351.64687 C 361.30927,358.70007 347.158,370.24117 346.5171,372.48017 C 342.17759,387.64027 345.31728,411.72357 346.38092,411.36907 C 349.75457,404.53347 355.2421,401.92577 361.59646,401.05157 C 360.99435,405.95717 357.53806,408.72207 362.39011,417.71827 C 368.87661,424.38557 375.84021,429.86017 383.81868,432.79767 C 374.47191,444.70287 368.35224,458.76767 360.00916,471.68647 C 357.82587,475.06727 355.64408,473.47227 352.07265,471.68647 C 348.50122,469.90077 348.67144,464.10697 345.72345,464.54367 C 338.57908,465.60197 329.15546,483.51137 332.70455,490.26927 C 335.32869,495.26587 337.89113,489.87827 339.55855,492.17697 C 341.22597,494.47577 341.60286,497.64247 339.37424,499.46427 C 337.14562,501.28607 333.81868,493.92867 330.64408,497.50007 C 327.46948,501.07157 327.92855,506.88157 328.92061,510.94407 C 329.91268,515.00647 333.63025,512.48737 333.63025,512.48737 L 335.21803,514.94337 C 333.74096,515.89027 332.78238,515.47477 333.40192,517.97277 C 334.34193,521.76277 342.56687,528.16817 345.99165,523.41417 C 347.31029,521.58367 347.71442,520.52327 347.76739,520.53247 L 354.71297,519.20347 C 356.33937,518.89227 354.37071,524.50737 355.43157,524.77727 C 360.19212,525.98797 371.36493,525.83637 374.33889,523.27797 C 378.40611,519.77907 372.46228,514.62787 379.20533,515.38547 C 379.20533,515.38547 380.95272,516.63707 382.34214,515.73787 C 407.53419,499.43347 424.93495,473.66997 426.67583,467.71827 C 428.4447,461.67087 425.68377,462.16267 428.85837,459.58337 C 432.03297,457.00397 439.37424,457.40077 439.37424,457.40077 C 439.37424,457.40077 452.96336,451.31047 440.96154,443.11507 C 431.27557,436.50107 421.87853,404.97487 425.08852,401.05157 C 424.33821,390.31737 418.04159,380.59167 411.59646,370.89287 C 409.73009,361.27117 412.71276,354.88217 417.15202,349.46427 C 419.69063,348.55037 456.28236,393.56787 468.73932,408.98807 C 484.58142,428.59877 506.04091,397.08337 506.04091,397.08337 C 506.04091,397.08337 520.32662,377.63887 519.33456,352.83727 C 518.34249,328.03573 502.07265,297.877 502.07265,297.877 C 498.52032,281.97165 508.53614,269.94291 519.53297,258.19446 C 509.03612,263.09943 498.10271,263.20238 488.58059,278.82938 C 488.58059,278.82938 486.00122,267.71827 488.18376,255.81351 C 490.3663,243.90875 502.46948,235.97224 502.46948,235.97224 C 488.25848,243.08346 476.32721,250.57463 474.6917,259.78176 C 470.26724,232.96269 482.8416,209.38149 500.48535,186.76589 C 482.11218,198.60174 465.90305,212.16884 458.02503,232.40081 C 447.97627,184.47905 485.44563,161.78042 526.67583,124.86113 C 557.62033,97.152103 533.02503,72.480183 533.02503,72.480183 C 509.38381,65.584593 489.78436,73.529093 473.50122,82.400813 C 473.50122,82.400813 457.9045,66.131863 448.50122,81.607173 C 437.59578,99.554633 428.8739,108.65381 433.81868,129.22621 C 431.26853,125.826 455.81113,108.74788 474.6917,108.59129 C 489.89145,108.46523 479.05678,90.337333 479.05678,90.337333 C 479.05678,90.337333 517.54884,73.869073 525.08852,81.210343 C 532.62821,88.551613 535.31141,97.632653 515.96154,115.73414 L 466.75519,161.76589 C 443.02357,183.96644 436.66403,207.5592 450.08852,245.49605 C 464.39146,285.91536 506.90835,317.47468 506.23932,344.30557 C 505.5703,371.13647 508.18673,372.77537 500.48536,384.78177 C 492.78399,396.78817 486.76577,409.18707 472.31075,391.32937 C 457.85573,373.47167 438.70967,343.69557 423.30281,321.88493 C 398.33269,286.53615 387.34051,274.71232 377.46948,246.2897 C 367.59845,217.86708 379.85043,222.877 379.4536,206.21033 C 379.05678,189.54367 375.88218,179.62303 375.88218,179.62303 L 275.08853,184.38494 z "
           style="opacity:1;fill:#fcef3c;fill-opacity:1;fill-rule:evenodd;stroke:#000000;stroke-width:3;stroke-linecap:butt;stroke-linejoin:miter;stroke-miterlimit:4;stroke-dasharray:none;stroke-opacity:1;display:inline"
           id="path1756" />
        <path
           d="M 342.86155,108.36837 C 322.95332,111.20839 303.93139,117.74641 282.2524,116.22511 C 252.83601,114.16085 261.39888,100.09308 265.41652,95.460863 C 269.24517,91.046533 284.34448,105.80709 297.40469,110.61315 C 312.55789,116.18941 327.71109,109.12301 342.86155,108.36837 z "
           style="opacity:1;fill:#e20909;fill-opacity:1;fill-rule:evenodd;stroke:#000000;stroke-width:3;stroke-linecap:butt;stroke-linejoin:miter;stroke-miterlimit:4;stroke-dasharray:none;stroke-opacity:1;display:inline"
           id="path1401" />
        <path
           d="M 333.32123,95.460873 C 328.53982,90.378543 319.14693,90.120743 309.6107,91.392203 C 308.01286,89.212603 301.02213,85.131023 283.09419,85.920533 C 276.63278,77.726223 275.54791,64.792513 283.37479,59.824933 C 290.53533,55.280263 303.55106,57.382473 304.98083,56.457753 C 313.35728,51.040173 309.61069,43.830843 327.98986,40.744273 C 346.36902,37.657693 378.49749,44.111443 378.49749,44.111443 C 378.49749,44.111443 389.01991,39.060683 395.61396,38.499483 C 402.20801,37.938293 401.64681,37.938293 404.87369,41.866663 C 408.10057,45.795033 411.3976,47.548773 408.52147,54.212973 C 405.64534,60.877173 393.36918,68.523463 393.36918,68.523463 C 393.36918,68.523463 387.61692,85.569793 393.36918,97.425053 C 399.12144,109.28031 419.18419,117.6281 419.18419,117.6281 C 410.1069,118.10648 403.10635,119.77158 399.26173,123.24006 C 397.11048,124.92365 395.2503,128.16679 396.17516,130.8162 C 398.36026,137.07577 410.20505,147.65208 410.20505,147.65208 C 410.20505,147.65208 405.36473,145.4073 402.9095,151.29985 C 400.45427,157.19241 400.38413,171.2223 400.38413,171.2223 C 400.38413,171.2223 384.81039,171.42243 381.02287,181.88502 C 375.77856,196.37181 388.46544,218.23288 391.12439,214.43439 C 391.12439,214.43439 382.84675,217.59112 376.5333,215.27618 C 370.21985,212.96125 364.46759,205.17465 364.46759,205.17465 C 358.40599,206.27405 353.33599,209.23299 350.99889,213.31199 C 311.29885,200.26876 300.92227,216.54897 291.23153,233.51504 C 288.22232,236.56121 284.5132,237.8576 280.00761,237.16282 C 286.00914,229.56715 286.93351,220.7022 287.02256,211.62841 C 270.34216,212.682 254.87754,226.76467 233.14776,223.69412 C 244.39625,216.1091 250.30486,206.38812 246.61646,192.82834 C 237.37325,187.15914 224.11145,186.31225 211.26112,184.9716 C 250.64294,176.59044 275.30291,166.60123 281.13001,151.29985 L 306.94502,149.05507 C 316.24286,143.49066 316.49828,138.7483 317.88833,133.90278 C 311.57794,127.2101 301.19313,132.78756 292.35393,130.25501 C 288.62775,129.18741 288.37661,124.36409 290.14621,123.04402 C 291.03101,122.38399 292.00468,119.98298 293.52362,119.66274 C 295.04257,119.34251 297.10679,121.10306 299.05033,120.90941 C 306.29281,120.18777 329.28579,119.75306 336.6884,118.46989 C 341.21833,110.17467 339.31543,101.83233 333.32123,95.460873 z "
           style="opacity:1;fill:#fcef3c;fill-opacity:1;fill-rule:evenodd;stroke:#000000;stroke-width:3;stroke-linecap:butt;stroke-linejoin:miter;stroke-miterlimit:4;stroke-dasharray:none;stroke-opacity:1;display:inline"
           id="path1723" />
        <path
           d="M 346.91392,58.59123 C 346.91688,60.56466 343.54038,62.16519 339.37424,62.16519 C 335.2081,62.16519 331.8316,60.56466 331.83456,58.59123 C 331.8316,56.617795 335.2081,55.017267 339.37424,55.017267 C 343.54038,55.017267 346.91688,56.617795 346.91392,58.59123 z "
           style="opacity:1;fill:none;fill-opacity:1;fill-rule:evenodd;stroke:#000000;stroke-width:3;stroke-linecap:butt;stroke-linejoin:miter;stroke-miterlimit:4;stroke-dasharray:none;stroke-opacity:1;display:inline"
           id="path1387" />
        <path
           d="M 328.09375,316.84375 C 324.75827,316.78493 322.35871,318.34035 319.59375,319.25 C 329.70566,327.26952 339.77872,335.298 339.9375,345.84375 C 332.03304,362.35327 340.13312,365.85866 350.8125,367.28125 C 354.88401,362.69007 360.02192,356.24893 357.625,351.65625 C 353.93798,344.59161 348.68634,336.2565 344.46875,327 C 342.67277,325.10601 340.62823,323.11847 338.21875,320.96875 C 333.8514,317.91319 330.68801,316.8895 328.09375,316.84375 z "
           style="fill:#fcef3c;fill-opacity:1;fill-rule:evenodd;stroke:#000000;stroke-width:3;stroke-linecap:butt;stroke-linejoin:miter;stroke-miterlimit:4;stroke-dasharray:none;stroke-opacity:1"
           id="path3914" />
      </g>
      <g
         transform="matrix(0.891712,7.262849e-2,-7.262849e-2,0.891712,-329.2266,-942.7759)"
         style="display:inline"
         id="g10433">
        <path
           d="M 772.25459,1045.179 L 787.84446,1095.8271 C 820.82258,1090.4281 853.36105,1090.8581 885.01768,1102.9788 L 912.44674,1055.1528 L 887.56028,1063.6394 C 889.23684,1072.2948 889.12191,1080.0602 884.41449,1084.113 C 880.44423,1087.531 867.1639,1083.3622 864.80211,1073.6103 C 860.59145,1082.4547 852.74596,1080.3216 848.24656,1077.6257 C 844.62659,1075.4567 843.51411,1068.2567 846.65562,1064.9164 L 853.80878,1057.3107 L 841.76471,1044.2762 L 827.02684,1054.2839 L 833.61178,1064.7184 C 836.19464,1068.8112 832.73083,1075.2082 829.81538,1077.3499 C 826.77383,1079.5843 817.83954,1081.7789 813.22142,1071.5798 C 810.08773,1079.1186 796.77413,1083.0048 792.79879,1080.4711 C 787.74564,1077.2504 793.23487,1058.3491 793.23487,1058.3491 L 772.25459,1045.179 z "
           style="fill:#fcef3c;fill-opacity:1;fill-rule:evenodd;stroke:#000000;stroke-width:3.35321021;stroke-linecap:butt;stroke-linejoin:miter;stroke-miterlimit:4;stroke-dasharray:none;stroke-opacity:1;display:inline"
           id="path7534" />
      </g>
    </g>
    <g
       transform="matrix(1,0,0,1.0500274,-82.107008,-489.74559)"
       style="fill:#e20909;fill-opacity:1"
       id="g2315">
      <g
         transform="translate(83.232821,210.62283)"
         style="fill:#e20909;fill-opacity:1"
         id="g2610">
        <g
           style="fill:#e20909;fill-opacity:1;display:inline"
           id="g2612">
          <path
             d="M 1.3011218,257.56963 L 0.72794,383.22588 C 27.779652,386.31553 32.634583,402.81471 64.610061,404.38213 C 101.91543,406.2108 111.14394,383.62856 152.48508,382.72588 C 193.82621,381.82319 192.87032,404.38212 229.98508,404.38213 C 267.09983,404.38213 264.44614,382.04885 300.92258,382.72588 C 337.39904,383.4029 338.00608,404.15645 375.89133,404.38213 C 413.77658,404.6078 414.28068,382.5002 452.48508,382.72588 C 490.68948,382.95155 493.90783,403.90189 530.70383,404.38213 C 562.00464,404.79063 573.1442,387.70137 597.45027,383.04194 L 597.32883,257.56963 L 1.3011218,257.56963 z "
             style="fill:#e20909;fill-opacity:1;fill-rule:evenodd;stroke:#000000;stroke-width:3;stroke-linecap:butt;stroke-linejoin:miter;stroke-miterlimit:4;stroke-dasharray:none;stroke-opacity:1;display:inline"
             id="path4948" />
        </g>
        <g
           style="fill:#e20909;fill-opacity:1"
           id="g2615" />
      </g>
    </g>
    <g
       transform="matrix(0,-0.5622831,0.5622831,0,-112.40343,548.0207)"
       style="fill:#ffffff;fill-opacity:1"
       id="g3322">
      <g
         transform="matrix(0,0.361121,-0.363155,0,571.36077,332.79408)"
         style="fill:#ffffff;fill-opacity:1;stroke:#000000;stroke-width:8.28416729;stroke-miterlimit:4;stroke-dasharray:none;stroke-opacity:1;display:inline"
         id="layer6">
        <path
           d="M 184.58088,63.045902 C 129.60623,100.05406 93.421764,162.8637 93.421764,234.07111 C 93.421764,347.79271 185.73351,440.1044 299.45498,440.1044 C 413.17679,440.1044 505.48829,347.79278 505.48845,234.07111 C 505.48845,162.89487 469.26337,100.12316 414.32925,63.108646 C 442.23982,91.920538 459.50102,131.15532 459.50102,174.40678 C 459.50102,262.75059 387.799,334.45275 299.45498,334.45275 C 211.1113,334.45276 139.40911,262.75065 139.40911,174.40678 C 139.40911,131.12865 156.63981,91.86266 184.58088,63.045902 z "
           style="fill:#ffffff;fill-opacity:1;fill-rule:evenodd;stroke:#000000;stroke-width:8.28416729;stroke-linecap:round;stroke-linejoin:round;stroke-miterlimit:4;stroke-dasharray:none;stroke-dashoffset:0;stroke-opacity:1"
           id="path2375" />
      </g>
    </g>
    <g
       transform="matrix(1,0,0,0.666779,-14.106979,-193.22713)"
       style="fill:#ffffff;fill-opacity:1"
       id="g4358">
      <g
         transform="translate(14.48279,84.372773)"
         style="fill:#ffffff;fill-opacity:1"
         id="g4360">
        <g
           style="fill:#ffffff;fill-opacity:1;display:inline"
           id="g4362">
          <path
             d="M 1.3011218,257.56963 L 0.72794,353.22588 C 27.779652,356.31553 32.634583,372.81471 64.610061,374.38213 C 101.91543,376.2108 111.14394,353.62856 152.48508,352.72588 C 193.82621,351.82319 192.87032,374.38212 229.98508,374.38213 C 267.09983,374.38213 264.44614,352.04885 300.92258,352.72588 C 337.39904,353.4029 338.00608,374.15645 375.89133,374.38213 C 413.77658,374.6078 414.28068,352.5002 452.48508,352.72588 C 490.68948,352.95155 491.90783,373.90189 528.70383,374.38213 C 560.00464,374.79063 573.1442,357.70137 597.45027,353.04194 L 597.32883,257.56963 C 561.13915,258.05237 562.39046,279.40295 525.89133,279.22588 C 488.54888,279.04472 488.32038,258.02097 451.20383,257.56963 C 414.0873,257.11828 414.76479,279.22587 377.42258,279.22588 C 340.08037,279.22588 339.39672,257.11828 301.82883,257.56963 C 264.26095,258.02097 264.48354,279.67721 227.14133,279.22588 C 189.79912,278.77453 189.79603,258.02097 152.45383,257.56963 C 115.11163,257.11829 115.36413,278.8367 77.797561,279.22588 C 38.784693,279.63004 40.193894,258.7037 1.3011218,257.56963 z "
             style="fill:#ffffff;fill-opacity:1;fill-rule:evenodd;stroke:#000000;stroke-width:3;stroke-linecap:butt;stroke-linejoin:miter;stroke-miterlimit:4;stroke-dasharray:none;stroke-opacity:1;display:inline"
             id="path4364" />
        </g>
        <g
           style="fill:#ffffff;fill-opacity:1"
           id="g4366" />
      </g>
    </g>
  </g>
  <g
     id="layer2">
    <path
       d="M 300.00001,658.5 C 300.00001,658.5 598.50001,546.17969 598.50001,260.72817 C 598.50001,-24.723334 598.50001,2.1764865 598.50001,2.1764865 L 1.5,2.1764865 L 1.5,260.72817 C 1.5,546.17969 300.00001,658.5 300.00001,658.5 z "
       style="opacity:1;fill:url(#radialGradient3163);fill-opacity:1;fill-rule:evenodd;stroke:none;stroke-width:1px;stroke-linecap:butt;stroke-linejoin:miter;stroke-opacity:1"
       id="path2875" />
  </g>
  <g
     id="layer1">
    <path
       d="M 299.99999,658.50028 C 299.99999,658.50028 1.5,546.17992 1.5,260.72828 C 1.5,-24.723336 1.5,2.1764957 1.5,2.1764957 L 598.49999,2.1764957 L 598.49999,260.72828 C 598.49999,546.17992 299.99999,658.50028 299.99999,658.50028 z "
       style="opacity:1;fill:none;fill-opacity:1;fill-rule:evenodd;stroke:#000000;stroke-width:3.00000048;stroke-linecap:butt;stroke-linejoin:miter;stroke-miterlimit:4;stroke-dasharray:none;stroke-opacity:1"
       id="path1411" />
  </g>
</svg>
