<?xml version="1.0" encoding="UTF-8" standalone="no"?>
<svg
   xmlns:dc="http://purl.org/dc/elements/1.1/"
   xmlns:cc="http://web.resource.org/cc/"
   xmlns:rdf="http://www.w3.org/1999/02/22-rdf-syntax-ns#"
   xmlns:svg="http://www.w3.org/2000/svg"
   xmlns="http://www.w3.org/2000/svg"
   xmlns:xlink="http://www.w3.org/1999/xlink"
   xmlns:sodipodi="http://sodipodi.sourceforge.net/DTD/sodipodi-0.dtd"
   xmlns:inkscape="http://www.inkscape.org/namespaces/inkscape"
   height="660"
   width="600"
   version="1.0"
   id="svg2"
   sodipodi:version="0.32"
   inkscape:version="0.44.1"
   sodipodi:docname="Blason département fr Tarn-et-Garonne.svg"
   sodipodi:docbase="C:\Documents and Settings\Standard\Mes documents\aaaOuiqui\Blasons\Blasons Yvelines svg"
   inkscape:export-filename="/Users/olivier/Desktop/Blason Rouge/Blason_Vide_3D.png"
   inkscape:export-xdpi="144"
   inkscape:export-ydpi="144">
  <metadata
     id="metadata49">
    <rdf:RDF>
      <cc:Work
         rdf:about="">
        <dc:format>image/svg+xml</dc:format>
        <dc:type
           rdf:resource="http://purl.org/dc/dcmitype/StillImage" />
        <dc:title>Gabarit d'un blason en pointe pour le projet Blasons de Wikipédia</dc:title>
        <dc:date>03-AUG-2006</dc:date>
        <dc:creator>
          <cc:Agent>
            <dc:title>Jérôme BLUM (wagner51)</dc:title>
          </cc:Agent>
        </dc:creator>
        <cc:license
           rdf:resource="http://web.resource.org/cc/PublicDomain" />
        <dc:language>fr</dc:language>
        <dc:subject>
          <rdf:Bag>
            <rdf:li>gabarit modèle blason projet wikipédia</rdf:li>
          </rdf:Bag>
        </dc:subject>
      </cc:Work>
      <cc:License
         rdf:about="http://web.resource.org/cc/PublicDomain">
        <cc:permits
           rdf:resource="http://web.resource.org/cc/Reproduction" />
        <cc:permits
           rdf:resource="http://web.resource.org/cc/Distribution" />
        <cc:permits
           rdf:resource="http://web.resource.org/cc/DerivativeWorks" />
      </cc:License>
    </rdf:RDF>
  </metadata>
  <sodipodi:namedview
     inkscape:window-height="723"
     inkscape:window-width="1024"
     inkscape:pageshadow="2"
     inkscape:pageopacity="0.0"
     guidetolerance="10.0"
     gridtolerance="10.0"
     objecttolerance="10.0"
     borderopacity="1.0"
     bordercolor="#666666"
     pagecolor="#ffffff"
     id="base"
     showgrid="false"
     height="660px"
     inkscape:zoom="0.40075758"
     inkscape:cx="248.16508"
     inkscape:cy="35.713807"
     inkscape:window-x="-4"
     inkscape:window-y="-4"
     inkscape:current-layer="layer4"
     showguides="true"
     inkscape:guide-bbox="true" />
  <desc
     id="desc4">Flag of Canton of Valais (Wallis)</desc>
  <defs
     id="defs6">
    <linearGradient
       id="linearGradient2893">
      <stop
         style="stop-color:white;stop-opacity:0.3137255;"
         offset="0"
         id="stop2895" />
      <stop
         id="stop2897"
         offset="0.19"
         style="stop-color:white;stop-opacity:0.25098041;" />
      <stop
         style="stop-color:#6b6b6b;stop-opacity:0.1254902;"
         offset="0.60000002"
         id="stop2901" />
      <stop
         style="stop-color:black;stop-opacity:0.1254902;"
         offset="1"
         id="stop2899" />
    </linearGradient>
    <radialGradient
       inkscape:collect="always"
       xlink:href="#linearGradient2893"
       id="radialGradient3163"
       gradientUnits="userSpaceOnUse"
       gradientTransform="matrix(1.353218,0,0,1.348928,-77.62935,-85.74693)"
       cx="221.44487"
       cy="226.33101"
       fx="221.44487"
       fy="226.33101"
       r="300" />
  </defs>
  <g
     inkscape:groupmode="layer"
     id="layer3"
     inkscape:label="Fond écu"
     style="display:inline">
    <path
       id="path2855"
       style="fill:#e20909;fill-opacity:1;fill-rule:evenodd;stroke:none;stroke-width:1px;stroke-linecap:butt;stroke-linejoin:miter;stroke-opacity:1"
       d="M 300,658.5 C 300,658.5 598.50001,546.17969 598.50001,260.72817 C 598.50001,-24.723354 598.50001,2.1764765 598.50001,2.1764765 L 1.5,2.1764765 L 1.5,260.72817 C 1.5,546.17969 300,658.5 300,658.5 z "
       sodipodi:nodetypes="cccccc" />
  </g>
  <g
     inkscape:groupmode="layer"
     id="layer4"
     inkscape:label="Meubles"
     style="display:inline">
    <g
       inkscape:label="Meubles"
       id="g13310"
       transform="matrix(0.633987,0,0,0.633987,109.8039,277.6078)"
       style="stroke:black;stroke-width:4.41649437;stroke-miterlimit:4;stroke-dasharray:none;stroke-opacity:1">
      <g
         style="fill:#fcef3c;fill-opacity:1;stroke:black;stroke-width:2.77977085;stroke-miterlimit:4;stroke-dasharray:none;stroke-opacity:1;display:inline"
         transform="matrix(1.588788,0,0,1.588808,-3197.717,-727.3813)"
         id="g16252">
        <path
           style="fill:#fcef3c;fill-opacity:1;fill-rule:evenodd;stroke:black;stroke-width:2.77977085;stroke-linecap:butt;stroke-linejoin:miter;stroke-miterlimit:4;stroke-dasharray:none;stroke-opacity:1"
           d="M 2201.4845,500.70333 C 2196.74,500.70333 2192.0788,500.96723 2187.4532,501.42208 C 2187.1664,514.40194 2176.5326,524.8596 2163.4845,524.85958 C 2158.3752,524.8595 2153.6498,523.21984 2149.7657,520.48458 C 2147.5601,518.03229 2145.2871,515.63174 2142.9532,513.29708 C 2137.471,515.78024 2132.1633,518.60237 2127.0782,521.73458 C 2128.8898,523.42729 2130.6585,525.15375 2132.3907,526.92208 C 2133.3258,528.03953 2134.3425,529.06766 2135.3907,530.07833 C 2135.4589,530.14413 2135.5095,530.23175 2135.5782,530.29708 C 2157.9582,554.45268 2173.2352,585.24594 2178.0782,619.42208 C 2139.7436,613.99231 2105.6399,595.43232 2080.422,568.45333 C 2077.2913,573.53461 2074.4358,578.81917 2071.9532,584.29708 C 2073.9539,586.29588 2075.9908,588.2654 2078.0782,590.17208 C 2081.4539,594.30289 2083.4844,599.58791 2083.4845,605.32833 C 2083.4844,618.39765 2072.9935,629.01282 2059.9845,629.26583 C 2059.5595,633.73911 2059.3594,638.27565 2059.3595,642.85958 C 2059.3595,647.75313 2059.5947,652.59289 2060.0782,657.35958 C 2073.0434,657.66307 2083.4844,668.29077 2083.4845,681.32833 C 2083.4844,685.99021 2082.1412,690.33994 2079.8282,694.01583 C 2077.1342,696.41489 2074.5087,698.87826 2071.9532,701.42213 C 2074.5214,707.08893 2077.4737,712.55563 2080.7345,717.79713 C 2105.8978,691.02536 2139.8238,672.60156 2177.9532,667.17208 C 2172.3634,705.16393 2153.8764,738.95733 2127.0782,763.98463 C 2132.1712,767.12173 2137.4931,769.93613 2142.9845,772.42213 C 2145.0225,770.39383 2147.0151,768.32933 2148.9532,766.20333 C 2153.0658,762.88643 2158.2687,760.89093 2163.9532,760.89083 C 2177.0119,760.89093 2187.6211,771.36503 2187.8907,784.35963 C 2192.3742,784.78653 2196.8897,785.01583 2201.4845,785.01583 C 2206.378,785.01583 2211.2178,784.74933 2215.9845,784.26583 C 2215.9845,784.26553 2216.0157,784.26613 2216.0157,784.26583 C 2216.336,771.31563 2226.9265,760.89083 2239.9532,760.89083 C 2244.6326,760.89093 2248.9873,762.28073 2252.672,764.60963 C 2255.0572,767.28623 2257.516,769.89073 2260.047,772.42213 C 2265.7229,769.85113 2271.2039,766.90653 2276.4532,763.64083 C 2249.8867,738.67203 2231.5397,705.06303 2225.9532,667.29708 C 2263.7094,672.88679 2297.335,691.20742 2322.297,717.76583 C 2325.5585,712.51963 2328.4792,707.03163 2331.047,701.35963 C 2328.7244,699.03405 2326.3375,696.77888 2323.8907,694.57833 C 2321.1643,690.68856 2319.547,685.96007 2319.547,680.85958 C 2319.5471,667.82213 2329.988,657.22469 2342.9532,656.92208 C 2343.408,652.2965 2343.6407,647.60407 2343.6407,642.85958 C 2343.6407,638.12567 2343.406,633.44388 2342.9532,628.82833 C 2329.9879,628.52489 2319.547,617.89717 2319.547,604.85958 C 2319.5471,599.73461 2321.1713,595.00038 2323.922,591.10958 C 2326.3524,588.92247 2328.7378,586.67077 2331.047,584.35958 C 2328.561,578.86824 2325.7466,573.54637 2322.6095,568.45333 C 2320.8427,570.3487 2319.0277,572.20653 2317.172,574.01583 C 2316.0742,574.95368 2315.0077,575.93649 2314.0157,576.98458 C 2290.0868,599.13303 2259.6175,614.32061 2225.8282,619.29708 C 2231.2613,581.16823 2249.7038,547.23159 2276.4845,522.07833 C 2271.2363,518.81197 2265.7531,515.8689 2260.0782,513.29708 C 2257.7691,515.61369 2255.5183,517.99009 2253.3282,520.42208 C 2249.4171,523.19716 2244.6347,524.85949 2239.4845,524.85958 C 2226.4364,524.85941 2215.8331,514.40192 2215.547,501.42208 C 2210.9214,500.96723 2206.2289,500.70333 2201.4845,500.70333 z M 2201.4845,515.10958 C 2206.9697,529.76303 2220.7038,540.36851 2237.0157,541.35958 C 2218.4247,569.17618 2207.2209,602.32589 2206.297,638.04708 C 2242.0165,637.12914 2275.2018,625.96905 2303.0157,607.39083 C 2304.0253,623.67742 2314.6632,637.36906 2329.297,642.85958 C 2314.6487,648.3429 2304.0131,662.05518 2303.0157,678.35958 C 2275.2019,659.78138 2242.0166,648.59027 2206.297,647.67208 C 2207.2205,683.38428 2218.4332,716.54743 2237.0157,744.35963 C 2220.9086,745.52003 2207.3979,756.12923 2201.9532,770.64083 C 2196.4228,755.86703 2182.5354,745.16713 2166.047,744.32833 C 2184.6056,716.52473 2195.7486,683.37223 2196.672,647.67208 C 2160.9585,648.59609 2127.8275,659.80844 2100.0157,678.39083 C 2098.8553,662.28367 2088.2459,648.77303 2073.7345,643.32833 C 2088.515,637.79554 2099.2168,623.88927 2100.047,607.39083 C 2127.8513,625.95866 2160.9741,637.1236 2196.672,638.04708 C 2195.7478,602.32381 2184.5974,569.17538 2166.0157,541.35958 C 2182.31,540.35654 2195.992,529.74856 2201.4845,515.10958 z "
           id="path14367" />
        <g
           style="fill:#fcef3c;fill-opacity:1;stroke:black;stroke-width:2.77977085;stroke-miterlimit:4;stroke-dasharray:none;stroke-opacity:1"
           id="g16238">
          <path
             transform="matrix(0.775253,0,0,0.81501,1089.4,186.8612)"
             d="M 1455 387.86218 A 20.5 19.5 0 1 1  1414,387.86218 A 20.5 19.5 0 1 1  1455 387.86218 z"
             sodipodi:ry="19.5"
             sodipodi:rx="20.5"
             sodipodi:cy="387.86218"
             sodipodi:cx="1434.5"
             id="path14388"
             style="fill:#fcef3c;fill-opacity:1;fill-rule:evenodd;stroke:black;stroke-width:3.49708176;stroke-linecap:butt;stroke-linejoin:miter;stroke-miterlimit:4;stroke-dasharray:none;stroke-opacity:1"
             sodipodi:type="arc" />
          <path
             transform="matrix(0.671389,-0.387627,0.407505,0.705818,1010.393,804.0035)"
             d="M 1455 387.86218 A 20.5 19.5 0 1 1  1414,387.86218 A 20.5 19.5 0 1 1  1455 387.86218 z"
             sodipodi:ry="19.5"
             sodipodi:rx="20.5"
             sodipodi:cy="387.86218"
             sodipodi:cx="1434.5"
             id="path14390"
             style="fill:#fcef3c;fill-opacity:1;fill-rule:evenodd;stroke:black;stroke-width:3.49708343;stroke-linecap:butt;stroke-linejoin:miter;stroke-miterlimit:4;stroke-dasharray:none;stroke-opacity:1"
             sodipodi:type="arc" />
          <path
             transform="matrix(-0.671389,-0.387627,0.407505,-0.705818,2936.607,1593.817)"
             d="M 1455 387.86218 A 20.5 19.5 0 1 1  1414,387.86218 A 20.5 19.5 0 1 1  1455 387.86218 z"
             sodipodi:ry="19.5"
             sodipodi:rx="20.5"
             sodipodi:cy="387.86218"
             sodipodi:cx="1434.5"
             id="path14392"
             style="fill:#fcef3c;fill-opacity:1;fill-rule:evenodd;stroke:black;stroke-width:3.49708343;stroke-linecap:butt;stroke-linejoin:miter;stroke-miterlimit:4;stroke-dasharray:none;stroke-opacity:1"
             sodipodi:type="arc" />
          <path
             transform="matrix(-0.775254,-4.402797e-7,4.628583e-7,-0.815011,3313.6,1098.86)"
             d="M 1455 387.86218 A 20.5 19.5 0 1 1  1414,387.86218 A 20.5 19.5 0 1 1  1455 387.86218 z"
             sodipodi:ry="19.5"
             sodipodi:rx="20.5"
             sodipodi:cy="387.86218"
             sodipodi:cx="1434.5"
             id="path14394"
             style="fill:#fcef3c;fill-opacity:1;fill-rule:evenodd;stroke:black;stroke-width:3.49707747;stroke-linecap:butt;stroke-linejoin:miter;stroke-miterlimit:4;stroke-dasharray:none;stroke-opacity:1"
             sodipodi:type="arc" />
          <path
             transform="matrix(-0.671389,0.387627,-0.407505,-0.705819,3392.606,481.716)"
             d="M 1455 387.86218 A 20.5 19.5 0 1 1  1414,387.86218 A 20.5 19.5 0 1 1  1455 387.86218 z"
             sodipodi:ry="19.5"
             sodipodi:rx="20.5"
             sodipodi:cy="387.86218"
             sodipodi:cx="1434.5"
             id="path14396"
             style="fill:#fcef3c;fill-opacity:1;fill-rule:evenodd;stroke:black;stroke-width:3.49708152;stroke-linecap:butt;stroke-linejoin:miter;stroke-miterlimit:4;stroke-dasharray:none;stroke-opacity:1"
             sodipodi:type="arc" />
          <path
             sodipodi:type="arc"
             style="fill:#fcef3c;fill-opacity:1;fill-rule:evenodd;stroke:black;stroke-width:3.49708033;stroke-linecap:butt;stroke-linejoin:miter;stroke-miterlimit:4;stroke-dasharray:none;stroke-opacity:1"
             id="path14398"
             sodipodi:cx="1434.5"
             sodipodi:cy="387.86218"
             sodipodi:rx="20.5"
             sodipodi:ry="19.5"
             d="M 1455 387.86218 A 20.5 19.5 0 1 1  1414,387.86218 A 20.5 19.5 0 1 1  1455 387.86218 z"
             transform="matrix(-0.387628,0.671389,-0.705819,-0.407505,3152.458,-92.24858)" />
          <path
             sodipodi:type="arc"
             style="fill:#fcef3c;fill-opacity:1;fill-rule:evenodd;stroke:black;stroke-width:3.49707747;stroke-linecap:butt;stroke-linejoin:miter;stroke-miterlimit:4;stroke-dasharray:none;stroke-opacity:1"
             id="path14400"
             sodipodi:cx="1434.5"
             sodipodi:cy="387.86218"
             sodipodi:rx="20.5"
             sodipodi:ry="19.5"
             d="M 1455 387.86218 A 20.5 19.5 0 1 1  1414,387.86218 A 20.5 19.5 0 1 1  1455 387.86218 z"
             transform="matrix(-4.402797e-7,0.775254,-0.815011,-4.628583e-7,2657.502,-469.2423)" />
          <path
             sodipodi:type="arc"
             style="fill:#fcef3c;fill-opacity:1;fill-rule:evenodd;stroke:black;stroke-width:3.49708152;stroke-linecap:butt;stroke-linejoin:miter;stroke-miterlimit:4;stroke-dasharray:none;stroke-opacity:1"
             id="path14402"
             sodipodi:cx="1434.5"
             sodipodi:cy="387.86218"
             sodipodi:rx="20.5"
             sodipodi:ry="19.5"
             d="M 1455 387.86218 A 20.5 19.5 0 1 1  1414,387.86218 A 20.5 19.5 0 1 1  1455 387.86218 z"
             transform="matrix(0.387627,0.671389,-0.705819,0.407505,2040.357,-548.2492)" />
          <path
             transform="matrix(0.671389,0.387628,-0.407505,0.705819,1466.393,-308.0995)"
             d="M 1455 387.86218 A 20.5 19.5 0 1 1  1414,387.86218 A 20.5 19.5 0 1 1  1455 387.86218 z"
             sodipodi:ry="19.5"
             sodipodi:rx="20.5"
             sodipodi:cy="387.86218"
             sodipodi:cx="1434.5"
             id="path14404"
             style="fill:#fcef3c;fill-opacity:1;fill-rule:evenodd;stroke:black;stroke-width:3.49708033;stroke-linecap:butt;stroke-linejoin:miter;stroke-miterlimit:4;stroke-dasharray:none;stroke-opacity:1"
             sodipodi:type="arc" />
          <path
             sodipodi:type="arc"
             style="fill:#fcef3c;fill-opacity:1;fill-rule:evenodd;stroke:black;stroke-width:3.49708343;stroke-linecap:butt;stroke-linejoin:miter;stroke-miterlimit:4;stroke-dasharray:none;stroke-opacity:1"
             id="path14406"
             sodipodi:cx="1434.5"
             sodipodi:cy="387.86218"
             sodipodi:rx="20.5"
             sodipodi:ry="19.5"
             d="M 1455 387.86218 A 20.5 19.5 0 1 1  1414,387.86218 A 20.5 19.5 0 1 1  1455 387.86218 z"
             transform="matrix(0.387627,-0.671389,0.705818,0.407505,1250.543,1377.968)" />
          <path
             sodipodi:type="arc"
             style="fill:#fcef3c;fill-opacity:1;fill-rule:evenodd;stroke:black;stroke-width:3.49708176;stroke-linecap:butt;stroke-linejoin:miter;stroke-miterlimit:4;stroke-dasharray:none;stroke-opacity:1"
             id="path14408"
             sodipodi:cx="1434.5"
             sodipodi:cy="387.86218"
             sodipodi:rx="20.5"
             sodipodi:ry="19.5"
             d="M 1455 387.86218 A 20.5 19.5 0 1 1  1414,387.86218 A 20.5 19.5 0 1 1  1455 387.86218 z"
             transform="matrix(1.565175e-7,-0.775253,0.81501,1.645442e-7,1745.499,1754.96)" />
          <path
             sodipodi:type="arc"
             style="fill:#fcef3c;fill-opacity:1;fill-rule:evenodd;stroke:black;stroke-width:3.49708343;stroke-linecap:butt;stroke-linejoin:miter;stroke-miterlimit:4;stroke-dasharray:none;stroke-opacity:1"
             id="path14410"
             sodipodi:cx="1434.5"
             sodipodi:cy="387.86218"
             sodipodi:rx="20.5"
             sodipodi:ry="19.5"
             d="M 1455 387.86218 A 20.5 19.5 0 1 1  1414,387.86218 A 20.5 19.5 0 1 1  1455 387.86218 z"
             transform="matrix(-0.387627,-0.671389,0.705818,-0.407505,2362.644,1833.966)" />
        </g>
      </g>
    </g>
    <path
       style="fill:none;fill-rule:evenodd;stroke:black;stroke-width:3;stroke-linecap:butt;stroke-linejoin:miter;stroke-miterlimit:4;stroke-dasharray:none;stroke-opacity:1"
       d="M 0,287.9707 L 598.86579,287.9707"
       id="path7814"
       sodipodi:nodetypes="cc" />
    <g
       id="g11651"
       transform="matrix(0.898543,0,0,0.898543,33.9131,10.2362)">
      <g
         transform="matrix(0.751461,0,0,0.751461,17.86326,-99.46503)"
         style="fill:#2b5df2;fill-opacity:0.9908257;stroke:black;stroke-width:3.72607493;stroke-linecap:round;stroke-linejoin:round;stroke-miterlimit:4;stroke-dasharray:none;stroke-opacity:1"
         id="g7203">
        <path
           d="M 370.34823,418.67157 C 369.59061,418.2634 381.14253,411.22848 378.93815,408.11824 C 366.77198,397.72823 355.26008,391.91814 348.25987,417.68986 C 358.24624,408.39728 364.16766,414.00953 370.34823,418.67157 z "
           style="opacity:1;color:black;fill:#2b5df2;fill-opacity:0.9908257;fill-rule:nonzero;stroke:black;stroke-width:3.72607493;stroke-linecap:round;stroke-linejoin:round;marker:none;marker-start:none;marker-mid:none;marker-end:none;stroke-miterlimit:4;stroke-dasharray:none;stroke-dashoffset:0;stroke-opacity:1;visibility:visible;display:inline;overflow:visible"
           id="path7195" />
        <path
           d="M 363.96715,461.86659 C 365.59487,463.77168 361.50088,436.46906 353.1684,444.68675 C 337.81791,454.14291 338.34688,464.35524 350.46871,475.11961 C 352.82305,459.11816 358.42472,460.65234 363.96715,461.86659 z "
           style="opacity:1;color:black;fill:#2b5df2;fill-opacity:0.9908257;fill-rule:nonzero;stroke:black;stroke-width:3.72607493;stroke-linecap:round;stroke-linejoin:round;marker:none;marker-start:none;marker-mid:none;marker-end:none;stroke-miterlimit:4;stroke-dasharray:none;stroke-dashoffset:0;stroke-opacity:1;visibility:visible;display:inline;overflow:visible"
           id="path7197" />
        <path
           d="M 410.10729,474.87418 C 411.32197,472.07178 405.75519,469.78856 400.33657,469.50094 C 394.91796,469.21332 389.64752,470.9213 391.45489,476.10131 C 395.33051,486.87571 399.87551,491.41242 402.7443,493.86261 C 404.94246,492.26872 409.17652,485.49087 410.10729,474.87418 z "
           style="opacity:1;color:black;fill:#2b5df2;fill-opacity:0.9908257;fill-rule:nonzero;stroke:black;stroke-width:3.72607493;stroke-linecap:round;stroke-linejoin:round;marker:none;marker-start:none;marker-mid:none;marker-end:none;stroke-miterlimit:4;stroke-dasharray:none;stroke-dashoffset:0;stroke-opacity:1;visibility:visible;display:inline;overflow:visible"
           id="path7199" />
        <path
           d="M 439.31302,460.1486 C 439.9629,453.1393 419.27399,459.89988 423.60573,462.35744 C 427.93747,464.815 430.93148,468.34274 425.56914,478.55557 C 442.86792,475.24602 438.66314,467.1579 439.31302,460.1486 z "
           style="opacity:1;color:black;fill:#2b5df2;fill-opacity:0.9908257;fill-rule:nonzero;stroke:black;stroke-width:3.72607493;stroke-linecap:round;stroke-linejoin:round;marker:none;marker-start:none;marker-mid:none;marker-end:none;stroke-miterlimit:4;stroke-dasharray:none;stroke-dashoffset:0;stroke-opacity:1;visibility:visible;display:inline;overflow:visible"
           id="path7201" />
      </g>
      <path
         d="M 388.22618,157.27004 L 364.07208,125.06457 L 359.24126,132.84756 C 359.4041,138.35401 350.99286,142.1666 336.56324,150.158 C 323.88123,158.53327 311.43756,169.85952 331.59824,195.51403 C 335.17643,200.05965 339.44655,207.84428 321.93659,218.99719 C 319.97925,219.58689 316.55759,220.69259 311.73819,219.53395 C 310.23515,215.76943 310.12382,212.83992 310.39629,210.14069 C 308.10234,197.41606 288.60272,208.13656 295.36707,219.53395 C 303.94748,226.8861 301.33683,228.98531 292.4149,228.12208 C 287.90547,228.93516 283.37509,229.7734 277.11731,232.68452 C 277.03964,234.19354 277.02741,235.63712 277.65407,236.44182 C 287.40418,235.29695 288.45961,246.77504 288.38922,249.32402 C 289.69893,249.62457 290.94964,249.98414 292.95166,249.59239 C 302.89451,242.83662 303.90306,243.19795 306.52747,243.41212 C 310.46177,244.84087 304.77689,258.42908 312.54333,262.74296 C 317.44203,252.55622 325.7267,258.50201 326.91293,262.43679 C 328.90496,259.53374 328.78652,254.8217 328.37768,249.86077 C 329.81531,238.8457 334.82408,244.95043 336.96581,249.59239 C 342.00828,242.97795 344.69519,245.39269 348.06196,250.39753 C 350.46168,250.73968 350.71796,250.3729 351.72664,249.32402 L 353.06854,241.54102 C 353.5009,231.09722 360.87319,231.08313 362.47692,240.32199 C 363.7599,238.93454 365.42886,238.14734 365.44869,236.70963 C 365.64303,222.61906 366.49716,225.91699 372.79061,235.06969 C 375.83224,206.28312 378.25549,225.72968 380.97995,221.68098 C 383.96802,214.49154 373.28187,204.5364 389.83646,206.38338 C 387.17757,202.38064 380.58545,201.81948 382.85861,193.50119 C 383.71112,188.18548 378.78032,185.89911 372.39183,184.37631 C 359.0849,179.63804 366.88095,175.38575 369.97642,172.03088 L 381.52427,164.53139 L 388.22618,157.27004 z "
         style="color:black;fill:#fcef3c;fill-opacity:1;fill-rule:nonzero;stroke:black;stroke-width:2.79999995;stroke-linecap:round;stroke-linejoin:round;marker:none;marker-start:none;marker-mid:none;marker-end:none;stroke-miterlimit:4;stroke-dasharray:none;stroke-dashoffset:0;stroke-opacity:1;visibility:visible;display:inline;overflow:visible"
         id="path2770" />
      <path
         d="M 405.18238,120.92867 C 383.35226,117.92259 367.88499,105.0186 367.88499,105.0186 L 378.057,99.019717 C 381.41994,97.774816 386.28023,98.02727 391.35887,98.498075 C 418.86682,107.81052 446.46523,116.82573 478.73389,110.49584 C 507.55568,99.69005 508.67927,74.483373 480.29882,61.200676 C 467.63739,56.768604 467.02949,47.353511 395.01036,67.460384 C 368.63028,77.985301 345.32745,79.947426 326.9361,68.242842 C 311.99928,58.711394 295.84144,50.950417 260.42675,71.111875 C 265.05763,55.312821 276.21122,51.254661 285.72638,44.247317 C 281.73564,43.264166 273.26758,43.909137 265.64317,44.247317 C 272.34831,36.741838 284.24134,39.622856 295.63758,41.117467 C 292.44479,39.169883 288.51544,36.959235 280.50996,33.292835 C 295.27683,33.087738 300.9993,36.074781 310.50437,37.726793 C 309.65608,36.072316 308.51349,34.211826 304.24467,30.162984 C 314.43806,30.704855 322.98878,32.493445 330.32676,39.813359 C 329.18937,36.763284 328.51188,34.173103 328.76184,32.510376 C 332.98674,35.15769 337.14043,38.588425 341.02042,45.029776 C 341.48574,40.257555 343.51203,37.631673 346.75849,36.683509 C 346.93237,39.318748 347.10625,42.486321 347.28013,45.812242 C 349.78364,45.064681 351.27257,44.655316 352.75737,44.247317 C 351.53698,49.947825 354.83132,51.434568 358.75625,52.332767 C 369.60652,56.374049 380.85673,55.416049 392.40215,50.767842 C 403.24882,46.845088 414.53651,43.142858 428.13463,40.595826 C 472.00501,35.676687 493.05833,44.610769 507.94583,57.288367 C 515.86979,62.488207 531.51645,88.234906 506.64173,112.58241 C 497.72105,118.15303 495.49521,124.87677 472.47419,125.62346 C 448.93811,126.71166 427.0125,123.93476 405.18238,120.92867 z "
         style="color:black;fill:#fcef3c;fill-opacity:1;fill-rule:nonzero;stroke:black;stroke-width:2.79999995;stroke-linecap:round;stroke-linejoin:round;marker:none;marker-start:none;marker-mid:none;marker-end:none;stroke-miterlimit:4;stroke-dasharray:none;stroke-dashoffset:0;stroke-opacity:1;visibility:visible;display:inline;overflow:visible"
         id="path4530" />
      <path
         d="M 94.346968,53.339612 C 95.119425,55.458935 92.989945,55.844322 85.917291,57.279725 C 82.384078,52.816062 80.913396,46.790915 72.431652,45.476317 C 83.875131,37.350025 93.65736,40.361407 94.346968,53.339612 z "
         style="color:black;fill:#2b5df2;fill-opacity:0.9908257;fill-rule:nonzero;stroke:black;stroke-width:2.79999995;stroke-linecap:round;stroke-linejoin:round;marker:none;marker-start:none;marker-mid:none;marker-end:none;stroke-miterlimit:4;stroke-dasharray:none;stroke-dashoffset:0;stroke-opacity:1;visibility:visible;display:inline;overflow:visible"
         id="path6302" />
      <path
         d="M 121.51195,66.316712 C 121.53794,70.96534 112.78432,61.045477 112.38546,58.589259 C 118.12467,57.534523 122.75705,51.327275 117.87356,44.820427 C 132.47159,49.393142 128.33094,64.793817 121.51195,66.316712 z "
         style="color:black;fill:#2b5df2;fill-opacity:0.9908257;fill-rule:nonzero;stroke:black;stroke-width:2.79999995;stroke-linecap:round;stroke-linejoin:round;marker:none;marker-start:none;marker-mid:none;marker-end:none;stroke-miterlimit:4;stroke-dasharray:none;stroke-dashoffset:0;stroke-opacity:1;visibility:visible;display:inline;overflow:visible"
         id="path7189" />
      <path
         d="M 78.171303,91.583386 C 84.868119,92.894926 81.775873,75.331179 72.269598,76.829126 C 62.763324,78.327073 59.1591,85.727063 63.417042,100.98923 C 66.186701,92.482878 71.474488,90.271846 78.171303,91.583386 z "
         style="color:black;fill:#2b5df2;fill-opacity:0.9908257;fill-rule:nonzero;stroke:black;stroke-width:2.79999995;stroke-linecap:round;stroke-linejoin:round;marker:none;marker-start:none;marker-mid:none;marker-end:none;stroke-miterlimit:4;stroke-dasharray:none;stroke-dashoffset:0;stroke-opacity:1;visibility:visible;display:inline;overflow:visible"
         id="path7191" />
      <path
         d="M 98.089559,122.56733 C 97.7463,113.18394 86.754786,103.99128 86.101719,110.39507 C 83.012949,114.05869 80.535721,119.47926 71.347457,113.34592 C 71.500428,133.56094 93.222542,126.08916 98.089559,122.56733 z "
         style="color:black;fill:#2b5df2;fill-opacity:0.9908257;fill-rule:nonzero;stroke:black;stroke-width:2.79999995;stroke-linecap:round;stroke-linejoin:round;marker:none;marker-start:none;marker-mid:none;marker-end:none;stroke-miterlimit:4;stroke-dasharray:none;stroke-dashoffset:0;stroke-opacity:1;visibility:visible;display:inline;overflow:visible"
         id="path7193" />
      <path
         id="path1883"
         style="color:black;fill:#fcef3c;fill-opacity:1;fill-rule:nonzero;stroke:black;stroke-width:2.79999995;stroke-linecap:round;stroke-linejoin:round;marker:none;marker-start:none;marker-mid:none;marker-end:none;stroke-miterlimit:4;stroke-dasharray:none;stroke-dashoffset:0;stroke-opacity:1;visibility:visible;display:inline;overflow:visible"
         d="M 169.11199,173.26502 L 181.63699,129.42756 L 173.85631,120.50825 C 157.9758,114.08044 140.39494,103.40173 121.47908,89.385543 C 109.55419,82.286957 118.43123,73.344939 124.1359,72.685562 C 125.74866,70.571657 124.78565,68.281482 123.3768,65.663978 C 119.5069,61.485201 117.25438,59.282887 115.40635,58.642394 C 113.0898,57.903881 110.16038,55.270972 111.23136,63.196932 C 112.05775,68.802628 106.05209,80.865554 99.465462,68.320791 C 98.834618,64.021014 98.782189,59.350782 99.085914,55.985574 C 97.994327,53.914285 98.282505,50.46323 94.910917,50.671941 C 89.546829,52.602226 85.600129,53.675155 82.765476,54.087849 C 81.657686,59.112982 80.467935,63.575045 89.597288,64.715116 C 90.141426,68.290177 91.301623,72.393282 88.458653,73.065103 C 81.583435,72.542386 72.706803,67.114501 68.342761,78.378736 C 80.695714,80.124004 79.576395,88.679726 75.174573,91.662816 C 76.31321,95.331749 78.463963,96.217361 81.62684,94.319636 C 91.241204,89.757201 91.642186,91.916216 93.772281,93.181 C 95.343473,99.545596 94.408866,104.35897 85.422292,104.18781 C 83.28723,104.97416 82.411619,108.23031 83.714338,111.96849 C 94.031106,114.32064 94.135747,117.74889 95.100691,122.78552 C 100.05927,125.02639 100.31006,129.0902 100.6041,116.52302 C 101.88822,109.88381 109.03889,116.16659 106.10751,120.31847 C 111.70542,123.5884 115.08009,120.53779 108.76432,128.09915 C 110.58454,130.98712 127.66118,129.11452 114.4575,136.82869 C 120.33713,139.17046 134.28875,138.48523 121.47908,147.83549 C 124.38818,150.93951 145.32851,149.6359 127.93135,157.70367 C 155.01283,161.69103 145.03129,164.55527 140.07679,167.57184 L 157.91541,172.50593 L 169.11199,173.26502 z " />
      <path
         d="M 78.355732,218.83889 C 67.783985,226.19993 66.341158,239.82208 79.646729,244.28999 C 76.899123,235.7104 79.322992,230.12484 85.917291,226.95373"
         style="color:black;fill:#2b5df2;fill-opacity:0.9908257;fill-rule:nonzero;stroke:black;stroke-width:2.79999995;stroke-linecap:round;stroke-linejoin:round;marker:none;marker-start:none;marker-mid:none;marker-end:none;stroke-miterlimit:4;stroke-dasharray:none;stroke-dashoffset:0;stroke-opacity:1;visibility:visible;display:inline;overflow:visible"
         id="path1888" />
      <path
         d="M 106.01998,234.33086 C 100.70627,249.33186 106.41593,257.38334 123.72509,258.12211 C 117.00289,252.20409 116.57186,245.65695 119.66766,238.75714"
         style="color:black;fill:#2b5df2;fill-opacity:0.9908257;fill-rule:nonzero;stroke:black;stroke-width:2.79999995;stroke-linecap:round;stroke-linejoin:round;marker:none;marker-start:none;marker-mid:none;marker-end:none;stroke-miterlimit:4;stroke-dasharray:none;stroke-dashoffset:0;stroke-opacity:1;visibility:visible;display:inline;overflow:visible"
         id="path1890" />
      <path
         d="M 151.94261,225.4783 C 156.28633,238.39237 150.06516,243.08932 141.24577,245.76541 C 145.02432,238.3154 144.09325,232.74924 140.50806,228.24473"
         style="color:black;fill:#2b5df2;fill-opacity:0.9908257;fill-rule:nonzero;stroke:black;stroke-width:2.79999995;stroke-linecap:round;stroke-linejoin:round;marker:none;marker-start:none;marker-mid:none;marker-end:none;stroke-miterlimit:4;stroke-dasharray:none;stroke-dashoffset:0;stroke-opacity:1;visibility:visible;display:inline;overflow:visible"
         id="path1892" />
      <path
         d="M 106.94212,179.00238 C 96.210606,167.52485 83.3703,169.21201 79.277873,182.32209 C 89.166307,179.34244 91.950225,181.59769 92.556708,185.45737"
         style="color:black;fill:#2b5df2;fill-opacity:0.9908257;fill-rule:nonzero;stroke:black;stroke-width:2.79999995;stroke-linecap:round;stroke-linejoin:round;marker:none;marker-start:none;marker-mid:none;marker-end:none;stroke-miterlimit:4;stroke-dasharray:none;stroke-dashoffset:0;stroke-opacity:1;visibility:visible;display:inline;overflow:visible"
         id="path1894" />
      <path
         d="M 452.78221,228.51731 C 444.36449,235.20395 438.60632,242.62935 448.73949,254.46901 C 449.39868,245.66766 453.77564,239.84054 461.3893,236.60276"
         style="color:black;fill:#2b5df2;fill-opacity:0.9908257;fill-rule:nonzero;stroke:black;stroke-width:2.79999995;stroke-linecap:round;stroke-linejoin:round;marker:none;marker-start:none;marker-mid:none;marker-end:none;stroke-miterlimit:4;stroke-dasharray:none;stroke-dashoffset:0;stroke-opacity:1;visibility:visible;display:inline;overflow:visible"
         id="path2791" />
      <path
         d="M 473.77829,244.16657 C 466.14933,251.51167 464.7397,258.46806 473.77829,264.77143 C 475.72168,259.8601 474.84233,253.64596 485.25442,252.64326"
         style="color:black;fill:#2b5df2;fill-opacity:0.9908257;fill-rule:nonzero;stroke:black;stroke-width:2.79999995;stroke-linecap:round;stroke-linejoin:round;marker:none;marker-start:none;marker-mid:none;marker-end:none;stroke-miterlimit:4;stroke-dasharray:none;stroke-dashoffset:0;stroke-opacity:1;visibility:visible;display:inline;overflow:visible"
         id="path2793" />
      <path
         d="M 504.55517,249.12217 C 511.96977,252.17542 513.25092,258.60207 513.81431,265.42348 C 525.57941,259.61279 522.21551,250.53097 521.76935,242.08001"
         style="color:black;fill:#2b5df2;fill-opacity:0.9908257;fill-rule:nonzero;stroke:black;stroke-width:2.79999995;stroke-linecap:round;stroke-linejoin:round;marker:none;marker-start:none;marker-mid:none;marker-end:none;stroke-miterlimit:4;stroke-dasharray:none;stroke-dashoffset:0;stroke-opacity:1;visibility:visible;display:inline;overflow:visible"
         id="path2795" />
      <path
         d="M 515.24883,217.43243 C 521.59542,215.62259 526.67154,216.70023 529.20275,223.56172 C 533.84319,211.1706 526.5083,206.8498 515.24883,205.17384"
         style="color:black;fill:#2b5df2;fill-opacity:0.9908257;fill-rule:nonzero;stroke:black;stroke-width:2.79999995;stroke-linecap:round;stroke-linejoin:round;marker:none;marker-start:none;marker-mid:none;marker-end:none;stroke-miterlimit:4;stroke-dasharray:none;stroke-dashoffset:0;stroke-opacity:1;visibility:visible;display:inline;overflow:visible"
         id="path2797" />
      <path
         id="path13442"
         style="color:black;fill:#fcef3c;fill-opacity:1;fill-rule:nonzero;stroke:black;stroke-width:2.79999995;stroke-linecap:round;stroke-linejoin:round;marker:none;marker-start:none;marker-mid:none;marker-end:none;stroke-miterlimit:4;stroke-dasharray:none;stroke-dashoffset:0;stroke-opacity:1;visibility:visible;display:inline;overflow:visible"
         d="M 229.78412,199.08547 C 242.71355,187.0085 242.1156,196.64915 243.21256,201.78317 C 259.172,174.62616 252.47424,184.12447 257.68813,188.09007 C 269.90544,164.77649 266.37618,178.54351 268.90343,178.04847 C 278.34652,157.2779 278.65947,164.37829 282.07489,162.00797 C 297.56463,143.75007 329.25987,138.68268 359.14748,132.14397 C 370.2982,135.17318 370.63301,141.93201 372.05812,148.31487 C 377.11023,151.40864 380.26374,157.35031 381.8389,165.65947 C 407.47826,191.58567 438.06061,185.65706 466.4753,193.69772 C 469.9655,198.57248 473.81161,203.20996 478.34266,207.39082 C 477.66072,210.90919 478.48314,214.12669 479.51635,217.30202 C 473.1673,218.9589 469.02988,216.00822 458.91149,225.51788 L 452.13015,226.16993 C 447.71519,225.81689 447.80411,227.84824 449.26112,230.60389 C 451.58247,229.78568 455.63779,233.51913 460.73724,239.99344 C 477.18879,229.83996 478.00256,233.26319 480.03799,234.90743 C 472.85422,239.7419 469.184,238.25148 471.4309,246.38356 C 478.09587,245.06288 480.72449,251.00764 484.08072,255.6427 C 487.2586,255.89046 490.63555,257.46534 492.81822,251.07833 C 494.60145,242.7532 501.77775,245.39057 502.99024,252.90408 C 516.99014,241.26548 518.71191,244.76989 522.81263,245.34027 C 526.77724,241.18276 524.80176,238.21327 521.89976,235.42907 C 501.40467,226.25387 515.82863,220.69048 519.55237,219.77982 C 514.92416,216.94458 514.966,210.74692 519.03073,201.65276 C 516.03292,201.52147 513.94569,200.89987 506.64173,203.08728 C 496.0581,198.27839 504.98716,197.57744 506.2505,195.26265 C 488.53032,182.34869 505.5244,188.36978 505.46803,185.09063 C 485.70706,172.53993 502.87658,177.05407 502.99024,173.61451 C 499.91949,169.51306 487.03963,178.77165 492.94863,162.79044 C 485.06812,163.78684 475.7316,166.84983 478.21225,153.14007 C 470.32892,156.93928 450.26909,163.95587 426.04805,134.75219 C 416.00645,121.05909 389.64831,97.711513 370.88443,98.367666 C 339.70857,102.07684 324.29336,97.299502 273.07656,111.79994 L 191.96125,114.79938 L 172.53009,116.49472 C 172.95105,152.55617 164.22757,170.61673 152.27549,179.34339 C 151.68544,179.7742 143.92111,183.32194 143.30989,183.69848 C 131.39741,191.03697 120.85116,198.34492 115.93194,196.82757 C 110.33983,196.04898 108.83575,193.43078 110.19388,189.52459 C 110.84466,186.0907 111.26001,182.70389 110.19388,179.61339 C 109.26932,178.13331 109.50585,175.7824 106.02074,176.22272 C 102.68924,182.89081 97.175249,184.75742 90.371486,183.78652 C 88.676186,184.53059 87.603944,186.99815 89.067381,189.78541 C 99.210882,195.99084 97.109519,197.0628 97.935292,205.69549 C 92.199084,207.27465 86.477257,208.86044 85.155067,212.47683 C 82.001782,212.18086 78.77009,211.76728 76.287154,212.47683 C 75.046214,215.33323 74.487046,218.05327 74.98305,220.56228 C 86.1007,224.93649 82.765683,226.90192 84.372604,229.69101 C 90.632711,228.30118 95.691339,223.30692 101.32597,220.04064 C 110.14709,216.73813 109.58149,223.75011 107.58567,227.34363 C 105.58604,227.70137 103.58641,230.47731 101.58678,232.82086 C 100.37967,235.5929 100.83194,236.70556 101.32597,237.77646 C 117.13225,236.28431 115.10331,240.2418 119.58343,242.21042 C 127.19353,243.76898 123.53026,239.17843 124.27821,236.99401 C 122.41856,230.05557 125.6169,229.69251 126.88642,226.82198 C 129.25722,224.84119 133.34193,222.10347 133.14612,229.69101 C 134.41678,236.19246 138.1119,235.07417 141.75322,234.12497 C 140.61039,226.46882 144.46864,225.27239 151.66441,228.38691 C 153.07038,227.6583 154.16675,226.4137 154.53344,223.95296 C 150.19449,214.34711 160.63122,212.2853 166.27038,216.91079 L 165.48792,226.30034 C 171.0404,217.07565 175.84174,212.96004 179.31143,211.95519 C 178.17909,217.50937 178.01185,221.96058 179.31143,224.73541 C 187.24134,210.67383 191.39395,209.83281 195.22151,210.12945 C 194.62086,215.15216 194.91454,217.93903 194.96069,221.34475 C 200.05895,217.30377 202.94868,212.94729 205.65435,208.56451 C 211.46903,204.51401 212.13404,209.13662 211.39241,216.12832 C 212.95818,216.44346 215.11031,214.45411 218.6954,210.39026 C 222.80584,201.695 225.71018,201.46546 229.38906,202.82646 C 229.7607,197.49299 231.43798,189.55153 229.12823,187.1772 C 230.04419,186.0252 233.09839,187.86675 235.64876,189.00295 C 236.42906,184.09691 235.52356,177.16793 234.60547,170.22384 C 237.352,170.2594 238.84319,171.5503 240.60436,172.57122 C 239.91696,166.04989 239.18441,159.69412 237.47451,156.92197" />
      <path
         d="M 172.22972,110.57949 C 169.1716,115.47289 164.97344,119.36873 159.13531,121.82962 C 169.4311,124.91555 173.01822,123.20958 178.86914,123.12062 C 179.4027,126.93458 177.17682,130.13534 174.62729,133.26417 C 180.41834,133.11171 184.34528,131.84079 188.45941,130.68218 C 189.83408,134.43222 188.0528,138.18226 187.16841,141.9323 C 191.49662,139.34 194.08166,135.78345 196.38982,134.18631 C 196.2901,139.49903 199.81223,141.64264 202.29153,144.69872 C 203.51686,141.60817 204.78084,138.67221 206.34895,136.95274 C 209.43626,138.79252 211.86477,140.8519 213.91051,143.03887 C 215.24643,140.26774 216.65582,137.79044 218.33679,136.39945 C 224.82981,139.20227 225.71999,140.48467 228.29591,142.30116 C 228.85247,140.527 228.54692,137.86713 229.40248,134.37074 C 233.70198,138.06793 239.64497,138.06724 245.26332,138.79702 C 243.69599,136.18398 242.24201,133.45757 241.02146,130.49775 C 246.63421,130.00718 250.57145,130.52192 254.48473,131.05103 C 252.45985,128.23039 250.00988,125.36251 244.89445,122.19848 C 248.93072,122.49528 252.22649,122.42183 255.5913,122.3829 C 251.98693,119.67127 248.34758,117.06458 245.07889,113.34592 C 247.51185,111.79473 251.04294,111.70771 254.48473,111.50163 C 250.50271,108.99063 247.69611,106.24453 245.44774,103.38679 L 251.53388,103.01794 C 249.36647,100.35617 246.93638,97.799479 243.05017,95.825233 L 243.97231,92.505527 C 240.18908,90.815754 239.19543,88.196116 237.3329,85.866106 C 237.14067,82.811342 237.57922,80.702749 238.07061,78.673407 C 242.43896,77.507041 239.05315,72.667655 237.14847,68.529848 C 238.97045,65.349973 240.77021,63.745596 241.67351,54.500191 C 261.92896,50.289056 249.63468,28.019825 235.48861,37.914756 C 232.78367,36.090065 230.07872,31.358927 227.37377,34.226194 L 226.63606,30.168771 C 224.95093,30.316989 222.33115,31.399867 219.25893,32.935192 C 218.1068,31.459766 217.91114,29.98434 217.7835,28.508914 C 214.05559,30.446962 212.28145,32.258914 209.85308,33.85734 L 206.34895,29.431061 C 205.56129,30.620511 204.72239,31.831919 201.55381,34.041763 C 199.02879,33.270433 196.49645,32.515831 191.59469,37.177046 C 178.34402,18.578214 155.84664,41.733432 177.57814,55.804299 C 176.97166,61.583049 176.093,67.361807 176.47157,73.140557 C 174.0548,74.220234 173.7217,75.994471 173.33629,77.751266 C 174.99614,76.758068 176.65599,75.845531 178.31585,75.538123 C 177.45657,83.349403 174.96255,86.665134 172.783,90.845669 L 179.05357,88.079248 C 180.63427,99.918877 170.70653,103.31898 162.2706,107.81307 C 165.17872,109.76417 168.63162,110.35334 172.22972,110.57949 z "
         style="color:black;fill:#fcef3c;fill-opacity:1;fill-rule:nonzero;stroke:black;stroke-width:2.79999995;stroke-linecap:round;stroke-linejoin:round;marker:none;marker-start:none;marker-mid:none;marker-end:none;stroke-miterlimit:4;stroke-dasharray:none;stroke-dashoffset:0;stroke-opacity:1;visibility:visible;display:inline;overflow:visible"
         id="path12555" />
      <path
         d="M 191.01717,53.775738 C 187.75069,54.352732 185.48842,55.522125 183.79338,59.397921 C 183.28553,60.559131 187.81416,56.325911 188.33797,58.010859 C 188.54859,58.688391 188.33288,60.515546 189.21061,61.70671 C 190.20393,63.054748 191.14266,63.62549 193.16704,63.939631 C 197.55047,64.619838 199.99836,61.622185 200.59945,59.471271 C 201.34562,59.756405 202.16866,60.888722 202.48698,61.036902 C 202.63813,61.107262 202.03471,59.415467 202.93483,59.540976 C 205.20141,59.857018 205.92823,57.315066 206.21295,57.937817 C 206.9478,59.545162 210.62894,58.404985 211.2744,56.724711 C 211.50572,56.12255 210.5588,55.615525 209.51944,55.490692 C 208.96474,55.424067 209.30682,54.397534 209.07929,54.386089 C 208.47203,54.355557 208.99374,56.274345 207.46215,55.550426 C 206.63814,55.160943 207.04736,53.307878 207.04957,53.201569 C 207.41079,52.680866 207.20857,51.289364 205.83406,50.985969 C 204.88001,50.775387 205.37918,49.406728 204.926,49.794475 C 204.71397,49.9759 205.21444,54.325161 204.96928,54.5548 C 203.67334,55.768702 202.10273,57.557082 202.01555,57.343171 C 201.00093,54.853543 199.27042,54.380528 195.91771,53.686103 C 194.8911,53.473462 192.13821,53.675966 191.01717,53.775738 z "
         style="color:black;fill:black;fill-opacity:1;fill-rule:nonzero;stroke:black;stroke-width:0.5;stroke-linecap:round;stroke-linejoin:round;marker:none;stroke-miterlimit:4;stroke-dasharray:none;stroke-dashoffset:0;stroke-opacity:1;visibility:visible;display:inline;overflow:visible"
         id="path9033" />
      <path
         d="M 219.2347,52.761378 C 210.75876,58.772638 211.34288,49.451095 210.76601,50.683686 C 207.94356,56.714401 216.24914,57.611593 217.47763,57.918647 C 218.16598,58.090694 217.70308,59.316763 218.58081,60.507926 C 219.57413,61.855965 221.57844,62.118713 223.5977,62.464205 C 228.38688,63.283636 229.43236,59.436907 229.87744,57.165916 C 230.69379,57.207923 233.06894,58.32905 233.3326,58.593226 C 233.77246,59.033951 232.67213,56.083347 232.6851,55.460814 C 230.39352,53.607132 228.9496,53.572708 225.28791,52.48732 C 224.28274,52.189373 220.7707,52.15443 219.2347,52.761378 z "
         style="color:black;fill:black;fill-opacity:1;fill-rule:nonzero;stroke:black;stroke-width:0.5;stroke-linecap:round;stroke-linejoin:round;marker:none;stroke-miterlimit:4;stroke-dasharray:none;stroke-dashoffset:0;stroke-opacity:1;visibility:visible;display:inline;overflow:visible"
         id="path10809" />
      <path
         d="M 191.54026,56.538672 C 191.2207,56.697561 191.202,58.037791 191.3213,58.374138 C 191.77518,59.722176 191.47869,59.198122 192.27782,59.858446 C 193.07694,60.51877 195.2251,60.447314 196.13105,60.311502 C 197.94297,60.039879 198.34346,59.393758 198.3548,57.332004 C 198.3629,56.926771 197.69146,57.385463 197.62017,56.98646 C 197.56981,56.704579 197.21223,56.081889 196.67114,56.329157 C 196.30249,56.49762 196.65405,57.871456 196.42317,58.415093 C 195.96638,59.490651 195.10181,59.431707 194.58002,59.509926 C 194.31912,59.54904 193.30529,58.664254 192.92647,58.351233 C 191.79905,57.040655 192.59005,56.016692 191.54026,56.538672 z "
         style="color:black;fill:white;fill-opacity:1;fill-rule:nonzero;stroke:black;stroke-width:0.5;stroke-linecap:round;stroke-linejoin:round;marker:none;stroke-miterlimit:4;stroke-dasharray:none;stroke-dashoffset:0;stroke-opacity:1;visibility:visible;display:inline;overflow:visible"
         id="path10811" />
      <path
         d="M 220.77214,55.063246 C 220.47961,55.267673 220.5722,57.530615 220.6915,57.866962 C 221.14538,59.215 220.76351,58.316403 221.41748,59.120737 C 221.85688,59.66115 223.73236,59.808955 225.27072,59.573793 C 226.19401,59.432653 227.02135,58.513767 227.49447,56.594295 C 227.50257,56.189062 226.83113,56.647754 226.75984,56.248751 C 226.70947,55.96687 226.35189,55.34418 225.8108,55.591448 C 225.44216,55.75991 225.75394,57.118522 225.56283,57.677383 C 225.24129,58.617694 224.72045,57.800067 224.08854,57.988398 C 223.83572,58.063747 223.09217,57.655448 222.61942,57.521312 C 220.45162,56.906226 222.18633,54.074969 220.77214,55.063246 z "
         style="color:black;fill:white;fill-opacity:1;fill-rule:nonzero;stroke:black;stroke-width:0.5;stroke-linecap:round;stroke-linejoin:round;marker:none;stroke-miterlimit:4;stroke-dasharray:none;stroke-dashoffset:0;stroke-opacity:1;visibility:visible;display:inline;overflow:visible"
         id="path11709" />
      <path
         d="M 194.21248,55.886689 C 194.17842,56.018097 194.20806,56.169058 194.3157,56.251779 C 194.9314,56.430146 195.13438,56.786263 195.27851,57.261555 C 195.27851,57.261555 195.75592,57.231459 195.75592,57.231459 C 196.37033,55.635288 195.20305,55.457665 194.21248,55.886689 z "
         style="color:black;fill:white;fill-opacity:1;fill-rule:nonzero;stroke:black;stroke-width:0.5;stroke-linecap:round;stroke-linejoin:round;marker:none;stroke-miterlimit:4;stroke-dasharray:none;stroke-dashoffset:0;stroke-opacity:1;visibility:visible;display:inline;overflow:visible"
         id="path11711" />
      <path
         d="M 223.48964,54.354363 C 223.45557,54.485771 223.48521,54.636732 223.59285,54.719452 C 224.20855,54.897819 224.41154,55.253937 224.55566,55.729228 C 224.55566,55.729228 225.03307,55.699132 225.03307,55.699132 C 225.64749,54.102961 224.4802,53.925338 223.48964,54.354363 z "
         style="color:black;fill:white;fill-opacity:1;fill-rule:nonzero;stroke:black;stroke-width:0.5;stroke-linecap:round;stroke-linejoin:round;marker:none;stroke-miterlimit:4;stroke-dasharray:none;stroke-dashoffset:0;stroke-opacity:1;visibility:visible;display:inline;overflow:visible"
         id="path12602" />
      <path
         d="M 181.98704,35.093455 C 181.17192,35.060601 180.47139,35.209714 179.52303,35.36208 C 177.29126,35.720647 174.91299,36.178437 174.09326,42.052202 C 173.75606,42.577466 174.70253,44.54201 175.3098,44.397655 C 175.84338,44.270808 175.71142,43.669068 175.98172,43.116098 C 176.89172,41.254489 177.46299,40.162653 178.14615,39.33558 C 179.01,38.289757 180.29892,37.713131 181.04428,37.609587 C 181.76817,37.509027 182.41185,39.109609 181.4538,39.896907 C 180.45052,40.721372 179.59528,42.608013 179.30395,44.238428 C 179.58105,44.737751 179.20312,48.017683 179.48092,47.575613 C 182.02242,43.5314 183.8954,42.534054 185.13578,40.323045 C 186.00445,38.774607 185.59599,38.249576 185.13492,37.006187 C 184.87068,36.293576 182.80216,35.126309 181.98704,35.093455 z "
         style="color:black;fill:black;fill-opacity:1;fill-rule:nonzero;stroke:black;stroke-width:0.5;stroke-linecap:round;stroke-linejoin:round;marker:none;stroke-miterlimit:4;stroke-dasharray:none;stroke-dashoffset:0;stroke-opacity:1;visibility:visible;display:inline;overflow:visible"
         id="path8819" />
      <path
         d="M 242.23902,39.327292 C 244.09774,39.10268 246.65555,38.680352 247.89933,43.988702 C 246.28281,42.995023 246.43427,42.388969 243.80033,41.640935 C 242.32399,41.822871 240.37407,41.717516 240.26215,42.893868 C 240.1937,43.613287 240.37659,43.941518 240.52161,45.298889 C 240.24451,45.798213 240.91996,48.695463 240.62128,48.26722 C 238.1322,44.698427 237.31427,45.587263 237.08735,43.181686 C 236.70194,39.096052 239.991,39.598952 242.23902,39.327292 z "
         style="color:black;fill:black;fill-opacity:1;fill-rule:nonzero;stroke:black;stroke-width:0.5;stroke-linecap:round;stroke-linejoin:round;marker:none;stroke-miterlimit:4;stroke-dasharray:none;stroke-dashoffset:0;stroke-opacity:1;visibility:visible;display:inline;overflow:visible"
         id="path8821" />
      <path
         id="path17069"
         style="color:black;fill:black;fill-opacity:1;fill-rule:nonzero;stroke:black;stroke-width:0.5;stroke-linecap:round;stroke-linejoin:round;marker:none;stroke-miterlimit:4;stroke-dasharray:none;stroke-dashoffset:0;stroke-opacity:1;visibility:visible;display:inline;overflow:visible"
         d="M 202.86356,70.435605 C 202.48866,70.485495 202.16376,70.720064 201.99842,71.060212 C 201.83306,71.400354 201.91451,72.974447 202.10686,73.300085 C 203.96822,75.721157 205.53841,76.280882 206.40952,77.644934 C 207.2674,78.988261 209.08982,82.115639 210.41416,82.137304 C 210.66003,82.141324 211.14046,83.714222 211.14787,83.469644 C 211.22913,80.788657 213.67324,78.125283 218.87133,74.348846 C 219.37509,73.982862 219.31444,71.573693 218.80863,71.21055 C 218.30282,70.847406 217.68489,71.038127 217.23526,71.468864 C 214.23098,74.346862 212.12144,76.40561 210.82435,76.86999 C 209.92808,77.190872 209.42676,76.3917 208.31667,75.468981 C 206.78358,74.194661 206.41681,73.678851 204.47068,71.413918 C 204.24839,70.996075 203.33233,70.370341 202.86356,70.435605 L 202.86356,70.435605 z " />
      <path
         id="path17071"
         style="color:black;fill:black;fill-opacity:1;fill-rule:nonzero;stroke:black;stroke-width:0.5;stroke-linecap:round;stroke-linejoin:round;marker:none;stroke-miterlimit:4;stroke-dasharray:none;stroke-dashoffset:0;stroke-opacity:1;visibility:visible;display:inline;overflow:visible"
         d="M 229.05503,77.454559 C 228.44134,77.504599 227.5901,78.168214 227.63055,78.782616 C 227.76437,81.400797 227.44643,83.030009 226.72245,83.867971 C 225.99847,84.705933 224.93884,85.09174 223.36436,85.112578 C 220.21539,85.154254 216.30015,83.144224 211.79469,81.809434 C 208.57639,80.624199 209.09828,81.277054 208.71407,82.662349 C 203.36326,86.972948 199.57504,86.589049 197.7098,85.819583 C 196.80073,85.444559 195.54688,84.665925 194.95749,83.781786 C 194.27608,82.759596 194.25507,81.184413 194.64446,79.453137 C 194.73074,79.035378 193.84064,78.219937 193.45657,78.405556 C 191.51644,79.343169 191.47043,79.862436 190.65302,81.150981 C 190.6741,84.019127 191.52626,84.667976 192.3406,85.370427 C 193.45545,86.332102 193.91153,87.415137 195.42989,88.105196 C 195.78082,88.264679 197.04669,87.092392 198.11653,88.607841 C 199.3445,90.347286 200.0299,93.168698 200.90941,94.719383 C 201.07101,95.004307 202.99197,95.582399 203.04555,95.703489 C 203.80902,97.428814 203.13471,110.82036 211.9928,110.36501 C 217.85998,110.4402 219.61662,104.5992 220.72538,93.711794 C 220.90949,91.903952 223.30793,96.49105 223.97469,94.539536 C 224.66606,92.516002 225.41824,85.415605 228.95836,85.673431 C 232.30761,85.917355 232.63002,78.503839 229.05503,77.454559 z " />
      <path
         d="M 215.52528,86.338279 C 214.70333,86.400161 212.54227,84.546901 212.35907,85.350566 L 212.59018,94.057842 L 210.21093,94.158756 L 210.12616,86.010672 C 209.92513,84.992577 208.24523,87.373273 207.22713,87.574297 C 206.20904,87.77532 205.40835,88.994152 205.60937,90.012247 C 205.5002,92.717717 205.39329,96.505839 205.83105,99.002703 L 206.66985,101.5425 C 206.98898,102.49079 208.19096,107.85294 211.28595,107.92684 C 213.65464,107.98339 215.9617,106.12067 217.08469,101.41344 C 217.62597,99.144564 217.88564,94.26484 218.00505,92.443892 C 218.15035,91.857527 218.05094,87.917354 217.6601,87.456723 C 217.26925,86.996093 216.26581,86.613156 215.52528,86.338279 z "
         style="color:black;fill:#2b5df2;fill-opacity:0.9908257;fill-rule:nonzero;stroke:black;stroke-width:0.5;stroke-linecap:round;stroke-linejoin:round;marker:none;stroke-miterlimit:4;stroke-dasharray:none;stroke-dashoffset:0;stroke-opacity:1;visibility:visible;display:inline;overflow:visible"
         id="path17966" />
      <path
         d="M 201.00238,89.852742 C 201.63764,91.261505 201.93731,91.943028 203.18345,92.74268 C 203.61652,92.794922 203.11872,91.71659 203.35081,91.34724 C 203.58289,90.977897 202.84336,89.8623 202.60841,89.494768 L 202.51475,88.889932 C 201.58743,88.358491 201.15909,88.862301 201.00238,89.852742 z "
         style="color:black;fill:white;fill-opacity:1;fill-rule:nonzero;stroke:black;stroke-width:0.5;stroke-linecap:round;stroke-linejoin:round;marker:none;stroke-miterlimit:4;stroke-dasharray:none;stroke-dashoffset:0;stroke-opacity:1;visibility:visible;display:inline;overflow:visible"
         id="path18857" />
      <path
         d="M 220.50543,87.30081 L 220.54638,88.376737 C 220.39001,88.766309 220.46304,89.210498 220.73593,89.529486 C 221.00881,89.848466 221.52855,90.312162 221.93763,90.218004 L 222.96515,88.259321 C 223.09609,87.895028 223.03096,87.489028 222.79264,87.183973 C 222.55432,86.878925 222.08393,86.994131 221.69878,87.033042 C 221.12241,87.092588 220.8269,86.981063 220.50543,87.30081 z "
         style="color:black;fill:white;fill-opacity:1;fill-rule:nonzero;stroke:black;stroke-width:0.5;stroke-linecap:round;stroke-linejoin:round;marker:none;stroke-miterlimit:4;stroke-dasharray:none;stroke-dashoffset:0;stroke-opacity:1;visibility:visible;display:inline;overflow:visible"
         id="path18859" />
      <path
         sodipodi:nodetypes="cccc"
         id="path1917"
         d="M 365.73741,135.7534 C 363.26162,133.79524 364.56869,134.50801 359.37788,132.72955 C 351.00469,135.30592 340.39336,139.23268 331.37608,144.38541 C 347.47837,140.40365 354.14376,137.04158 365.73741,135.7534 z "
         style="fill:#fcef3c;fill-rule:evenodd;stroke:black;stroke-width:2.79999995;stroke-linecap:butt;stroke-linejoin:miter;stroke-miterlimit:4;stroke-dasharray:none;stroke-opacity:1" />
    </g>
  </g>
  <g
     inkscape:groupmode="layer"
     id="layer2"
     inkscape:label="Reflet final"
     sodipodi:insensitive="true">
    <path
       sodipodi:nodetypes="cccccc"
       d="M 300.00001,658.5 C 300.00001,658.5 598.50001,546.17969 598.50001,260.72817 C 598.50001,-24.723334 598.50001,2.1764865 598.50001,2.1764865 L 1.5,2.1764865 L 1.5,260.72817 C 1.5,546.17969 300.00001,658.5 300.00001,658.5 z "
       style="opacity:1;fill:url(#radialGradient3163);fill-opacity:1;fill-rule:evenodd;stroke:none;stroke-width:1px;stroke-linecap:butt;stroke-linejoin:miter;stroke-opacity:1"
       id="path2875"
       inkscape:export-xdpi="144"
       inkscape:export-ydpi="144" />
  </g>
  <g
     inkscape:groupmode="layer"
     id="layer1"
     inkscape:label="Contour final"
     sodipodi:insensitive="true">
    <path
       sodipodi:nodetypes="cccccc"
       d="M 299.99999,658.50028 C 299.99999,658.50028 1.5,546.17992 1.5,260.72828 C 1.5,-24.723336 1.5,2.1764957 1.5,2.1764957 L 598.49999,2.1764957 L 598.49999,260.72828 C 598.49999,546.17992 299.99999,658.50028 299.99999,658.50028 z "
       style="opacity:1;fill:none;fill-opacity:1;fill-rule:evenodd;stroke:#000000;stroke-width:3.00000048;stroke-linecap:butt;stroke-linejoin:miter;stroke-miterlimit:4;stroke-dasharray:none;stroke-opacity:1"
       id="path1411"
       inkscape:export-xdpi="144"
       inkscape:export-ydpi="144" />
  </g>
</svg>
