<?xml version="1.0" encoding="UTF-8" standalone="no"?>
<svg
   xmlns:dc="http://purl.org/dc/elements/1.1/"
   xmlns:cc="http://web.resource.org/cc/"
   xmlns:rdf="http://www.w3.org/1999/02/22-rdf-syntax-ns#"
   xmlns:svg="http://www.w3.org/2000/svg"
   xmlns="http://www.w3.org/2000/svg"
   xmlns:xlink="http://www.w3.org/1999/xlink"
   xmlns:sodipodi="http://sodipodi.sourceforge.net/DTD/sodipodi-0.dtd"
   xmlns:inkscape="http://www.inkscape.org/namespaces/inkscape"
   height="660"
   width="600"
   version="1.0"
   id="svg2"
   sodipodi:version="0.32"
   inkscape:version="0.44.1"
   sodipodi:docname="Blason département fr Vaucluse.svg"
   sodipodi:docbase="C:\Documents and Settings\Standard\Mes documents\aaaOuiqui\Blasons\Blasons Yvelines svg"
   inkscape:export-filename="/Users/olivier/Desktop/Blason Rouge/Blason_Vide_3D.png"
   inkscape:export-xdpi="144"
   inkscape:export-ydpi="144">
  <metadata
     id="metadata49">
    <rdf:RDF>
      <cc:Work
         rdf:about="">
        <dc:format>image/svg+xml</dc:format>
        <dc:type
           rdf:resource="http://purl.org/dc/dcmitype/StillImage" />
        <dc:title>Gabarit d'un blason en pointe pour le projet Blasons de Wikipédia</dc:title>
        <dc:date>03-AUG-2006</dc:date>
        <dc:creator>
          <cc:Agent>
            <dc:title>Jérôme BLUM (wagner51)</dc:title>
          </cc:Agent>
        </dc:creator>
        <cc:license
           rdf:resource="http://web.resource.org/cc/PublicDomain" />
        <dc:language>fr</dc:language>
        <dc:subject>
          <rdf:Bag>
            <rdf:li>gabarit modèle blason projet wikipédia</rdf:li>
          </rdf:Bag>
        </dc:subject>
      </cc:Work>
      <cc:License
         rdf:about="http://web.resource.org/cc/PublicDomain">
        <cc:permits
           rdf:resource="http://web.resource.org/cc/Reproduction" />
        <cc:permits
           rdf:resource="http://web.resource.org/cc/Distribution" />
        <cc:permits
           rdf:resource="http://web.resource.org/cc/DerivativeWorks" />
      </cc:License>
    </rdf:RDF>
  </metadata>
  <sodipodi:namedview
     inkscape:window-height="712"
     inkscape:window-width="1024"
     inkscape:pageshadow="2"
     inkscape:pageopacity="0.0"
     guidetolerance="10.0"
     gridtolerance="10.0"
     objecttolerance="10.0"
     borderopacity="1.0"
     bordercolor="#666666"
     pagecolor="#ffffff"
     id="base"
     showgrid="false"
     height="660px"
     inkscape:zoom="0.78333333"
     inkscape:cx="331.57146"
     inkscape:cy="349.01573"
     inkscape:window-x="-4"
     inkscape:window-y="-4"
     inkscape:current-layer="layer4"
     showguides="true"
     inkscape:guide-bbox="true" />
  <desc
     id="desc4">Flag of Canton of Valais (Wallis)</desc>
  <defs
     id="defs6">
    <linearGradient
       id="linearGradient2893">
      <stop
         style="stop-color:white;stop-opacity:0.3137255;"
         offset="0"
         id="stop2895" />
      <stop
         id="stop2897"
         offset="0.19"
         style="stop-color:white;stop-opacity:0.25098041;" />
      <stop
         style="stop-color:#6b6b6b;stop-opacity:0.1254902;"
         offset="0.60000002"
         id="stop2901" />
      <stop
         style="stop-color:black;stop-opacity:0.1254902;"
         offset="1"
         id="stop2899" />
    </linearGradient>
    <radialGradient
       inkscape:collect="always"
       xlink:href="#linearGradient2893"
       id="radialGradient3163"
       gradientUnits="userSpaceOnUse"
       gradientTransform="matrix(1.353218,0,0,1.348928,-77.62935,-85.74693)"
       cx="221.44487"
       cy="226.33101"
       fx="221.44487"
       fy="226.33101"
       r="300" />
  </defs>
  <g
     inkscape:groupmode="layer"
     id="layer3"
     inkscape:label="Fond écu"
     style="display:inline"
     sodipodi:insensitive="true">
    <path
       id="path2855"
       style="fill:#e20909;fill-opacity:1;fill-rule:evenodd;stroke:black;stroke-width:2.5;stroke-linecap:butt;stroke-linejoin:miter;stroke-miterlimit:4;stroke-dasharray:none;stroke-opacity:1"
       d="M 300,660.02661 C 300,660.02661 598.50001,547.7063 598.50001,262.25478 C 598.50001,-23.196751 598.50001,3.7030788 598.50001,3.7030788 L 1.5,3.7030788 L 1.5,262.25478 C 1.5,547.7063 300,660.02661 300,660.02661 z "
       sodipodi:nodetypes="cccccc" />
    <g
       id="g4996"
       transform="matrix(0.565156,0,0,0.565156,87.54199,301.9795)"
       style="fill:#2b5df2;fill-opacity:1;stroke:black;stroke-width:5.30826902;stroke-miterlimit:4;stroke-dasharray:none;stroke-opacity:1" />
    <g
       id="g5002"
       transform="matrix(0.565156,0,0,0.565156,195.4143,301.9795)"
       style="fill:#2b5df2;fill-opacity:1;stroke:black;stroke-width:5.30826902;stroke-miterlimit:4;stroke-dasharray:none;stroke-opacity:1" />
    <path
       sodipodi:nodetypes="cccccc"
       d="M 595.28546,302.85768 C 596.55641,290.1315 598.50001,275.74827 598.50001,262.25478 C 598.50001,-23.196751 598.50001,3.7030788 598.50001,3.7030788 L 301.27661,3.7030788 L 301.91491,303.19149 L 595.28546,302.85768 z "
       style="fill:#2b5df2;fill-opacity:1;fill-rule:evenodd;stroke:none;stroke-width:1px;stroke-linecap:butt;stroke-linejoin:miter;stroke-opacity:1"
       id="path8544" />
    <path
       sodipodi:nodetypes="cccc"
       d="M 301.2766,660.02661 L 301.27484,303.30503 L 4.565012,302.60609 C 29.254217,560.22255 301.2766,660.02661 301.2766,660.02661 z "
       style="fill:#2b5df2;fill-opacity:1;fill-rule:evenodd;stroke:none;stroke-width:1px;stroke-linecap:butt;stroke-linejoin:miter;stroke-opacity:1"
       id="path9435" />
  </g>
  <g
     inkscape:groupmode="layer"
     id="layer4"
     inkscape:label="Meubles"
     style="display:inline">
    <path
       style="fill:none;fill-opacity:0.75;fill-rule:evenodd;stroke:black;stroke-width:3;stroke-linecap:butt;stroke-linejoin:miter;stroke-miterlimit:4;stroke-dasharray:none;stroke-opacity:1;display:inline"
       d="M 301.2766,1.9393346 L 301.2766,659.09731"
       id="path12094" />
    <path
       style="fill:none;fill-opacity:0.75;fill-rule:evenodd;stroke:none;stroke-width:3;stroke-linecap:butt;stroke-linejoin:miter;stroke-miterlimit:4;stroke-dasharray:none;stroke-opacity:1;display:inline"
       d="M 3.6107581,302.55318 L 595.77509,302.55318"
       id="path11207" />
    <rect
       y="118.4335"
       x="1017.427"
       height="0"
       width="2"
       id="rect12745"
       style="fill:white;fill-opacity:1;fill-rule:evenodd;stroke:black;stroke-width:2;stroke-linecap:round;stroke-linejoin:round;stroke-miterlimit:4;stroke-dasharray:none;stroke-dashoffset:0;stroke-opacity:1" />
    <g
       transform="matrix(0.529701,0,0,0.529701,-266.9596,137.6982)"
       id="g6525">
      <g
         id="g5606"
         transform="matrix(0.716375,-0.697715,0.697715,0.716375,-62.08438,257.937)">
        <path
           sodipodi:nodetypes="ccccccccccccccccccccccccccccccccc"
           id="path16424"
           d="M 1037.5888,428.43227 L 1037.6934,455.04681 L 1018.7561,455.12124 L 1018.7822,463.49872 L 1037.7195,463.42431 L 1037.8684,501.29884 L 1010.742,501.40544 L 1010.6535,478.88544 L 1002.7878,478.90958 L 1002.8763,501.42958 L 981.89178,501.51205 L 981.74294,463.6375 L 990.98237,463.61135 L 990.95621,455.23386 L 981.71679,455.26001 L 981.68058,443.4615 L 973.81491,443.48563 L 973.85112,455.28415 L 965.28521,455.30427 L 965.31136,463.68175 L 973.87726,463.66164 L 974.02611,501.53619 L 952.79976,501.59252 L 952.72131,481.6316 L 945.36745,481.65372 L 945.44589,501.61464 L 919.34318,501.71721 L 919.19433,463.84266 L 937.10797,463.77227 L 937.0818,455.39478 L 919.16817,455.46518 L 919.06358,428.85063 L 1037.5888,428.43227 z "
           style="fill:white;fill-opacity:1;fill-rule:evenodd;stroke:black;stroke-width:3.07093239;stroke-linecap:butt;stroke-linejoin:miter;stroke-miterlimit:4;stroke-dasharray:none;stroke-opacity:1" />
        <path
           sodipodi:nodetypes="ccccc"
           id="path16457"
           d="M 1050.0658,404.81369 C 1053.2971,413.91349 1053.0981,419.02678 1050.6173,428.14903 L 590.55515,429.94131 L 590.44772,406.60422 L 1050.0658,404.81369 z "
           style="fill:white;fill-opacity:1;fill-rule:evenodd;stroke:black;stroke-width:3.21615243;stroke-linecap:butt;stroke-linejoin:miter;stroke-miterlimit:4;stroke-dasharray:none;stroke-opacity:1" />
        <path
           transform="matrix(3.18867e-3,0.907838,-1.070661,4.707868e-3,604.176,-1121.417)"
           sodipodi:open="true"
           sodipodi:end="8.1662395"
           sodipodi:start="1.884771"
           d="M 1689.0386,23.82707 A 19.091883,9.8994951 0 1 1 1689.0698,23.832305"
           sodipodi:ry="9.8994951"
           sodipodi:rx="19.091883"
           sodipodi:cy="14.411526"
           sodipodi:cx="1694.9349"
           id="path2006"
           style="fill:white;fill-opacity:1;fill-rule:evenodd;stroke:black;stroke-width:3.42475367;stroke-linecap:round;stroke-linejoin:round;stroke-miterlimit:4;stroke-dasharray:none;stroke-dashoffset:0;stroke-opacity:1"
           sodipodi:type="arc" />
        <g
           transform="matrix(1.202773,0,0,1.054263,-118.7585,-27.40652)"
           id="g5565">
          <path
             style="fill:white;fill-opacity:1;fill-rule:evenodd;stroke:black;stroke-width:3.33016348;stroke-linecap:butt;stroke-linejoin:miter;stroke-miterlimit:4;stroke-dasharray:none;stroke-opacity:1"
             d="M 583.57418,386.13515 C 578.75329,388.96604 582.92184,399.30172 587.89796,401.58599 C 596.61839,406.57325 603.48024,402.35092 607.49313,395.10925 C 611.45898,386.12615 612.57106,377.85066 610.87647,370.60398 C 608.10451,358.75003 599.32226,349.16442 587.96593,344.22215 C 580.09171,340.79528 570.74592,339.8524 562.27606,340.89308 C 539.62139,343.67663 523.64623,358.78054 524.37172,382.25541 C 524.76334,394.92712 528.16217,406.67123 543.02612,411.2897 C 554.65988,410.99864 561.61871,399.93933 557.32804,390.35789 C 555.23133,385.67574 549.56783,384.63242 545.58396,387.35414 C 541.37045,390.60451 542.03471,393.62681 544.20653,399.14777 C 538.1419,395.46405 538.20131,388.91323 538.65922,382.1907 C 539.48864,360.17848 562.06164,351.77313 578.79417,358.64125 C 582.82771,360.68895 586.07931,364.27993 589.39963,369.20784 C 589.93268,364.22155 588.91777,363.43585 588.13796,358.9554 C 596.38381,363.2911 599.86589,371.25695 600.03811,378.21415 C 600.26023,387.18703 594.67772,394.16067 583.57418,386.13515 z "
             id="path16444"
             sodipodi:nodetypes="cccsssscsccccccsc" />
          <path
             sodipodi:nodetypes="cccsssscsccccccsc"
             id="path5563"
             d="M 583.57418,457.64675 C 578.75329,454.81586 582.92184,444.48018 587.89796,442.19591 C 596.61839,437.20865 603.48024,441.43098 607.49313,448.67265 C 611.45898,457.65575 612.57106,465.93124 610.87647,473.17792 C 608.10451,485.03187 599.32226,494.61748 587.96593,499.55975 C 580.09171,502.98662 570.74592,503.9295 562.27606,502.88882 C 539.62139,500.10527 523.64623,485.00136 524.37172,461.52649 C 524.76334,448.85478 528.16217,437.11067 543.02612,432.4922 C 554.65988,432.78326 561.61871,443.84257 557.32804,453.42401 C 555.23133,458.10616 549.56783,459.14948 545.58396,456.42776 C 541.37045,453.17739 542.03471,450.15509 544.20653,444.63413 C 538.1419,448.31785 538.20131,454.86867 538.65922,461.5912 C 539.48864,483.60342 562.06164,492.00877 578.79417,485.14065 C 582.82771,483.09295 586.07931,479.50197 589.39963,474.57406 C 589.93268,479.56035 588.91777,480.34605 588.13796,484.8265 C 596.38381,480.4908 599.86589,472.52495 600.03811,465.56775 C 600.26023,456.59487 594.67772,449.62123 583.57418,457.64675 z "
             style="fill:white;fill-opacity:1;fill-rule:evenodd;stroke:black;stroke-width:3.33016348;stroke-linecap:butt;stroke-linejoin:miter;stroke-miterlimit:4;stroke-dasharray:none;stroke-opacity:1" />
        </g>
        <g
           transform="matrix(0.71784,0.696208,-0.696208,0.71784,725.3139,37.45465)"
           id="g2118">
          <path
             style="fill:white;fill-opacity:1;fill-rule:evenodd;stroke:black;stroke-width:3.21615267;stroke-linecap:butt;stroke-linejoin:miter;stroke-miterlimit:4;stroke-dasharray:none;stroke-opacity:1"
             d="M 83.751126,447.56742 C 88.490238,447.83097 93.870798,450.04189 103.2928,443.6894 L 109.17535,423.69172 L 88.862061,428.40707 C 83.187892,438.99343 83.184316,442.16321 83.751126,447.56742 z "
             id="path16463"
             sodipodi:nodetypes="ccccc" />
          <path
             style="fill:white;fill-opacity:1;fill-rule:evenodd;stroke:black;stroke-width:3.21615267;stroke-linecap:butt;stroke-linejoin:miter;stroke-miterlimit:4;stroke-dasharray:none;stroke-opacity:1"
             d="M 130.63995,386.55877 C 139.74447,392.20157 143.06332,395.68716 146.43463,402.6942 C 146.43463,402.6942 131.84623,415.44906 120.68566,427.86435 C 109.99822,439.7533 114.27188,449.23835 113.28164,460.95685 C 106.97337,451.46633 99.804186,443.47726 105.99334,425.85878 C 87.813939,431.04657 80.636845,424.6488 71.555093,418.29324 C 82.316625,416.58751 93.356655,421.82218 104.36108,411.18685 C 116.18762,399.75705 130.63995,386.55877 130.63995,386.55877 z "
             id="path16461"
             sodipodi:nodetypes="ccscccsc" />
          <path
             style="fill:white;fill-opacity:1;fill-rule:evenodd;stroke:black;stroke-width:3.21615267;stroke-linecap:butt;stroke-linejoin:miter;stroke-miterlimit:4;stroke-dasharray:none;stroke-opacity:1"
             d="M 130.81226,392.14654 C 136.29399,395.46985 137.85071,396.13038 140.42172,401.97648 C 134.67983,403.91913 128.98369,408.10449 124.36907,417.54539 C 119.3059,414.77865 117.11486,411.86195 114.75961,407.71545 C 124.83087,403.62601 128.86061,398.57772 130.81226,392.14654 z "
             id="path17354"
             sodipodi:nodetypes="ccccc" />
        </g>
      </g>
      <g
         transform="matrix(-0.716375,-0.697715,-0.697715,0.716375,1647.433,257.937)"
         id="g5618"
         style="fill:#fcef3c;fill-opacity:1">
        <path
           style="fill:#fcef3c;fill-opacity:1;fill-rule:evenodd;stroke:black;stroke-width:3.07093239;stroke-linecap:butt;stroke-linejoin:miter;stroke-miterlimit:4;stroke-dasharray:none;stroke-opacity:1"
           d="M 1037.5888,428.43227 L 1037.6934,455.04681 L 1018.7561,455.12124 L 1018.7822,463.49872 L 1037.7195,463.42431 L 1037.8684,501.29884 L 1010.742,501.40544 L 1010.6535,478.88544 L 1002.7878,478.90958 L 1002.8763,501.42958 L 981.89178,501.51205 L 981.74294,463.6375 L 990.98237,463.61135 L 990.95621,455.23386 L 981.71679,455.26001 L 981.68058,443.4615 L 973.81491,443.48563 L 973.85112,455.28415 L 965.28521,455.30427 L 965.31136,463.68175 L 973.87726,463.66164 L 974.02611,501.53619 L 952.79976,501.59252 L 952.72131,481.6316 L 945.36745,481.65372 L 945.44589,501.61464 L 919.34318,501.71721 L 919.19433,463.84266 L 937.10797,463.77227 L 937.0818,455.39478 L 919.16817,455.46518 L 919.06358,428.85063 L 1037.5888,428.43227 z "
           id="path5620"
           sodipodi:nodetypes="ccccccccccccccccccccccccccccccccc" />
        <path
           style="fill:#fcef3c;fill-opacity:1;fill-rule:evenodd;stroke:black;stroke-width:3.21615243;stroke-linecap:butt;stroke-linejoin:miter;stroke-miterlimit:4;stroke-dasharray:none;stroke-opacity:1"
           d="M 1050.0658,404.81369 C 1053.2971,413.91349 1053.0981,419.02678 1050.6173,428.14903 L 590.55515,429.94131 L 590.44772,406.60422 L 1050.0658,404.81369 z "
           id="path5622"
           sodipodi:nodetypes="ccccc" />
        <path
           sodipodi:type="arc"
           style="fill:#fcef3c;fill-opacity:1;fill-rule:evenodd;stroke:black;stroke-width:3.42475367;stroke-linecap:round;stroke-linejoin:round;stroke-miterlimit:4;stroke-dasharray:none;stroke-dashoffset:0;stroke-opacity:1"
           id="path5624"
           sodipodi:cx="1694.9349"
           sodipodi:cy="14.411526"
           sodipodi:rx="19.091883"
           sodipodi:ry="9.8994951"
           d="M 1689.0386,23.82707 A 19.091883,9.8994951 0 1 1 1689.0698,23.832305"
           sodipodi:start="1.884771"
           sodipodi:end="8.1662395"
           sodipodi:open="true"
           transform="matrix(3.18867e-3,0.907838,-1.070661,4.707868e-3,604.176,-1121.417)" />
        <g
           id="g5626"
           transform="matrix(1.202773,0,0,1.054263,-118.7585,-27.40652)"
           style="fill:#fcef3c;fill-opacity:1">
          <path
             sodipodi:nodetypes="cccsssscsccccccsc"
             id="path5628"
             d="M 583.57418,386.13515 C 578.75329,388.96604 582.92184,399.30172 587.89796,401.58599 C 596.61839,406.57325 603.48024,402.35092 607.49313,395.10925 C 611.45898,386.12615 612.57106,377.85066 610.87647,370.60398 C 608.10451,358.75003 599.32226,349.16442 587.96593,344.22215 C 580.09171,340.79528 570.74592,339.8524 562.27606,340.89308 C 539.62139,343.67663 523.64623,358.78054 524.37172,382.25541 C 524.76334,394.92712 528.16217,406.67123 543.02612,411.2897 C 554.65988,410.99864 561.61871,399.93933 557.32804,390.35789 C 555.23133,385.67574 549.56783,384.63242 545.58396,387.35414 C 541.37045,390.60451 542.03471,393.62681 544.20653,399.14777 C 538.1419,395.46405 538.20131,388.91323 538.65922,382.1907 C 539.48864,360.17848 562.06164,351.77313 578.79417,358.64125 C 582.82771,360.68895 586.07931,364.27993 589.39963,369.20784 C 589.93268,364.22155 588.91777,363.43585 588.13796,358.9554 C 596.38381,363.2911 599.86589,371.25695 600.03811,378.21415 C 600.26023,387.18703 594.67772,394.16067 583.57418,386.13515 z "
             style="fill:#fcef3c;fill-opacity:1;fill-rule:evenodd;stroke:black;stroke-width:3.33016348;stroke-linecap:butt;stroke-linejoin:miter;stroke-miterlimit:4;stroke-dasharray:none;stroke-opacity:1" />
          <path
             style="fill:#fcef3c;fill-opacity:1;fill-rule:evenodd;stroke:black;stroke-width:3.33016348;stroke-linecap:butt;stroke-linejoin:miter;stroke-miterlimit:4;stroke-dasharray:none;stroke-opacity:1"
             d="M 583.57418,457.64675 C 578.75329,454.81586 582.92184,444.48018 587.89796,442.19591 C 596.61839,437.20865 603.48024,441.43098 607.49313,448.67265 C 611.45898,457.65575 612.57106,465.93124 610.87647,473.17792 C 608.10451,485.03187 599.32226,494.61748 587.96593,499.55975 C 580.09171,502.98662 570.74592,503.9295 562.27606,502.88882 C 539.62139,500.10527 523.64623,485.00136 524.37172,461.52649 C 524.76334,448.85478 528.16217,437.11067 543.02612,432.4922 C 554.65988,432.78326 561.61871,443.84257 557.32804,453.42401 C 555.23133,458.10616 549.56783,459.14948 545.58396,456.42776 C 541.37045,453.17739 542.03471,450.15509 544.20653,444.63413 C 538.1419,448.31785 538.20131,454.86867 538.65922,461.5912 C 539.48864,483.60342 562.06164,492.00877 578.79417,485.14065 C 582.82771,483.09295 586.07931,479.50197 589.39963,474.57406 C 589.93268,479.56035 588.91777,480.34605 588.13796,484.8265 C 596.38381,480.4908 599.86589,472.52495 600.03811,465.56775 C 600.26023,456.59487 594.67772,449.62123 583.57418,457.64675 z "
             id="path5630"
             sodipodi:nodetypes="cccsssscsccccccsc" />
        </g>
        <g
           id="g5632"
           transform="matrix(0.71784,0.696208,-0.696208,0.71784,725.3139,37.45465)"
           style="fill:#fcef3c;fill-opacity:1">
          <path
             sodipodi:nodetypes="ccccc"
             id="path5634"
             d="M 83.751126,447.56742 C 88.490238,447.83097 93.870798,450.04189 103.2928,443.6894 L 109.17535,423.69172 L 88.862061,428.40707 C 83.187892,438.99343 83.184316,442.16321 83.751126,447.56742 z "
             style="fill:#fcef3c;fill-opacity:1;fill-rule:evenodd;stroke:black;stroke-width:3.21615267;stroke-linecap:butt;stroke-linejoin:miter;stroke-miterlimit:4;stroke-dasharray:none;stroke-opacity:1" />
          <path
             sodipodi:nodetypes="ccscccsc"
             id="path5636"
             d="M 130.63995,386.55877 C 139.74447,392.20157 143.06332,395.68716 146.43463,402.6942 C 146.43463,402.6942 131.84623,415.44906 120.68566,427.86435 C 109.99822,439.7533 114.27188,449.23835 113.28164,460.95685 C 106.97337,451.46633 99.804186,443.47726 105.99334,425.85878 C 87.813939,431.04657 80.636845,424.6488 71.555093,418.29324 C 82.316625,416.58751 93.356655,421.82218 104.36108,411.18685 C 116.18762,399.75705 130.63995,386.55877 130.63995,386.55877 z "
             style="fill:#fcef3c;fill-opacity:1;fill-rule:evenodd;stroke:black;stroke-width:3.21615267;stroke-linecap:butt;stroke-linejoin:miter;stroke-miterlimit:4;stroke-dasharray:none;stroke-opacity:1" />
          <path
             sodipodi:nodetypes="ccccc"
             id="path5638"
             d="M 130.81226,392.14654 C 136.29399,395.46985 137.85071,396.13038 140.42172,401.97648 C 134.67983,403.91913 128.98369,408.10449 124.36907,417.54539 C 119.3059,414.77865 117.11486,411.86195 114.75961,407.71545 C 124.83087,403.62601 128.86061,398.57772 130.81226,392.14654 z "
             style="fill:#fcef3c;fill-opacity:1;fill-rule:evenodd;stroke:black;stroke-width:3.21615267;stroke-linecap:butt;stroke-linejoin:miter;stroke-miterlimit:4;stroke-dasharray:none;stroke-opacity:1" />
        </g>
      </g>
    </g>
    <g
       id="g9748"
       transform="translate(0,-10.02005)">
      <g
         transform="matrix(0.523642,0,0,0.523642,474.5829,470.8746)"
         id="g2315"
         style="stroke:black;stroke-width:5.729105;stroke-miterlimit:4;stroke-dasharray:none;stroke-opacity:1;display:inline">
        <path
           style="fill:#fcef3c;fill-opacity:1;fill-rule:evenodd;stroke:black;stroke-width:5.729105;stroke-linecap:butt;stroke-linejoin:miter;stroke-miterlimit:4;stroke-dasharray:none;stroke-opacity:1"
           d="M -48.09683,-730.04688 C -18.63463,-698.20088 -1.311324,-680.63851 1.71567,-631.22551 C 4.516922,-585.49753 -25.91305,-547.26746 -32.47183,-503.03801 C -33.71586,-494.64886 -34.78343,-477.52504 -33.65933,-470.58029 C -32.82682,-465.43703 -30.2673,-449.72452 -27.47183,-469.16609 C -26.89689,-473.16463 -26.48464,-493.22641 -24.72183,-503.41301 C -21.50976,-521.97423 -11.22367,-554.61188 6.62192,-572.69426 C 24.45989,-590.7689 52.7264,-602.49289 77.93442,-593.03801 C 100.77409,-582.49963 102.93306,-552.73834 96.43442,-530.97551 C 88.29557,-503.71988 57.19325,-484.85525 29.30942,-483.00676 C 34.83452,-493.933 48.05897,-525.11969 33.71567,-523.88176 C 17.11291,-522.44882 -2.746744,-494.20056 -7.917294,-474.82293 C -9.864494,-467.52547 -9.07753,-456.19513 -19.50308,-456.66301 C -12.62837,-433.43496 6.77717,-418.06468 23.77817,-401.85051 C 6.05563,-400.37739 -11.47738,-408.7178 -26.94058,-416.66301 C -26.286749,-400.73784 -29.378446,-367.09562 -48.09683,-348.72551 C -65.471545,-367.64157 -67.052581,-390.71209 -67.37808,-416.66301 C -82.84128,-408.7178 -100.37429,-400.37739 -118.09683,-401.85051 C -101.09583,-418.06468 -81.690291,-433.43496 -74.81558,-456.66301 C -85.24113,-456.19513 -85.868385,-466.81836 -87.81558,-474.11582 C -92.98613,-493.49343 -111.43157,-522.44884 -128.03433,-523.88176 C -142.37763,-525.11969 -129.15318,-493.933 -123.62808,-483.00676 C -151.51191,-484.85525 -182.61422,-503.71988 -190.75308,-530.97551 C -197.25172,-552.73834 -195.09274,-582.49964 -172.25308,-593.03801 C -147.04505,-602.49289 -118.77855,-590.76891 -100.94058,-572.69426 C -83.094993,-554.61188 -72.808901,-521.97423 -69.59683,-503.41301 C -67.83402,-493.22641 -68.128878,-474.57884 -67.553937,-470.58029 C -64.758467,-451.13871 -61.491841,-465.43705 -60.65933,-470.58029 C -59.53523,-477.52504 -60.602801,-494.64887 -61.84683,-503.03801 C -68.40561,-547.26744 -95.955806,-587.0527 -96.03433,-631.22551 C -96.103977,-671.11179 -76.05061,-701.46041 -48.09683,-730.04688 z "
           id="path2317"
           sodipodi:nodetypes="csssssscscsscccccccsscscssssssc" />
        <rect
           rx="7.0119839"
           style="fill:#fcef3c;fill-opacity:1;fill-rule:evenodd;stroke:black;stroke-width:5.729105;stroke-linejoin:round;stroke-miterlimit:4;stroke-dasharray:none;stroke-opacity:1"
           id="rect2319"
           width="136"
           height="22"
           x="-20.840672"
           y="-474.15433"
           ry="7.0119839"
           transform="scale(-1,1)" />
      </g>
      <path
         sodipodi:nodetypes="ccccccccccccccccccccc"
         id="path22246"
         d="M 371.83882,37.4909 L 373.28932,49.26763 L 371.83882,71.645202 L 369.37785,75.623196 L 401.61013,75.623196 L 399.14916,71.645202 L 397.69867,49.19818 L 438.22949,49.19818 L 436.77899,71.645202 L 434.31803,75.623196 L 466.66843,75.623196 L 464.20747,71.645202 L 462.75697,49.19818 L 502.7009,49.19818 L 501.2504,71.645202 L 498.78945,75.623196 L 530.39877,75.623196 L 527.93781,71.645202 L 525.76206,48.50053 L 527.93781,37.4909 L 371.83882,37.4909 z "
         style="fill:#e20909;fill-opacity:1;fill-rule:evenodd;stroke:black;stroke-width:2;stroke-linecap:butt;stroke-linejoin:miter;stroke-miterlimit:4;stroke-dasharray:none;stroke-opacity:1;display:inline" />
    </g>
    <g
       id="g9868"
       transform="matrix(0.606392,0,0,0.606392,-201.8554,4.649844)"
       style="stroke:black;stroke-width:2.60186291;stroke-miterlimit:4;stroke-dasharray:none;stroke-opacity:1">
      <g
         style="fill:#fcef3c;fill-opacity:1;stroke:black;stroke-width:4.91195154;stroke-miterlimit:4;stroke-dasharray:none;stroke-opacity:1"
         id="g9778"
         transform="matrix(-0.5297,6.784196e-4,6.784196e-4,0.5297,1434.106,352.4581)">
        <path
           sodipodi:nodetypes="ccccccccccccccccccccccccccccccccc"
           id="path9780"
           d="M 1037.5888,428.43227 L 1037.6934,455.04681 L 1018.7561,455.12124 L 1018.7822,463.49872 L 1037.7195,463.42431 L 1037.8684,501.29884 L 1010.742,501.40544 L 1010.6535,478.88544 L 1002.7878,478.90958 L 1002.8763,501.42958 L 981.89178,501.51205 L 981.74294,463.6375 L 990.98237,463.61135 L 990.95621,455.23386 L 981.71679,455.26001 L 981.68058,443.4615 L 973.81491,443.48563 L 973.85112,455.28415 L 965.28521,455.30427 L 965.31136,463.68175 L 973.87726,463.66164 L 974.02611,501.53619 L 952.79976,501.59252 L 952.72131,481.6316 L 945.36745,481.65372 L 945.44589,501.61464 L 919.34318,501.71721 L 919.19433,463.84266 L 937.10797,463.77227 L 937.0818,455.39478 L 919.16817,455.46518 L 919.06358,428.85063 L 1037.5888,428.43227 z "
           style="fill:#fcef3c;fill-opacity:1;fill-rule:evenodd;stroke:black;stroke-width:4.91195154;stroke-linecap:butt;stroke-linejoin:miter;stroke-miterlimit:4;stroke-dasharray:none;stroke-opacity:1" />
        <path
           sodipodi:nodetypes="ccccc"
           id="path9782"
           d="M 1050.0658,404.81369 C 1053.2971,413.91349 1053.0981,419.02678 1050.6173,428.14903 L 590.55515,429.94131 L 590.44772,406.60422 L 1050.0658,404.81369 z "
           style="fill:#fcef3c;fill-opacity:1;fill-rule:evenodd;stroke:black;stroke-width:4.91195154;stroke-linecap:butt;stroke-linejoin:miter;stroke-miterlimit:4;stroke-dasharray:none;stroke-opacity:1" />
        <path
           transform="matrix(3.18867e-3,0.907838,-1.070661,4.707868e-3,604.176,-1121.417)"
           sodipodi:open="true"
           sodipodi:end="8.1662395"
           sodipodi:start="1.884771"
           d="M 1689.0386,23.82707 A 19.091883,9.8994951 0 1 1 1689.0698,23.832305"
           sodipodi:ry="9.8994951"
           sodipodi:rx="19.091883"
           sodipodi:cy="14.411526"
           sodipodi:cx="1694.9349"
           id="path9784"
           style="fill:#fcef3c;fill-opacity:1;fill-rule:evenodd;stroke:black;stroke-width:4.98219299;stroke-linecap:round;stroke-linejoin:round;stroke-miterlimit:4;stroke-dasharray:none;stroke-dashoffset:0;stroke-opacity:1"
           sodipodi:type="arc" />
        <g
           style="fill:#fcef3c;fill-opacity:1;stroke:black;stroke-width:4.36202097;stroke-miterlimit:4;stroke-dasharray:none;stroke-opacity:1"
           transform="matrix(1.202773,0,0,1.054263,-118.7585,-27.40652)"
           id="g9786">
          <path
             style="fill:#fcef3c;fill-opacity:1;fill-rule:evenodd;stroke:black;stroke-width:4.36202097;stroke-linecap:butt;stroke-linejoin:miter;stroke-miterlimit:4;stroke-dasharray:none;stroke-opacity:1"
             d="M 583.57418,386.13515 C 578.75329,388.96604 582.92184,399.30172 587.89796,401.58599 C 596.61839,406.57325 603.48024,402.35092 607.49313,395.10925 C 611.45898,386.12615 612.57106,377.85066 610.87647,370.60398 C 608.10451,358.75003 599.32226,349.16442 587.96593,344.22215 C 580.09171,340.79528 570.74592,339.8524 562.27606,340.89308 C 539.62139,343.67663 523.64623,358.78054 524.37172,382.25541 C 524.76334,394.92712 528.16217,406.67123 543.02612,411.2897 C 554.65988,410.99864 561.61871,399.93933 557.32804,390.35789 C 555.23133,385.67574 549.56783,384.63242 545.58396,387.35414 C 541.37045,390.60451 542.03471,393.62681 544.20653,399.14777 C 538.1419,395.46405 538.20131,388.91323 538.65922,382.1907 C 539.48864,360.17848 562.06164,351.77313 578.79417,358.64125 C 582.82771,360.68895 586.07931,364.27993 589.39963,369.20784 C 589.93268,364.22155 588.91777,363.43585 588.13796,358.9554 C 596.38381,363.2911 599.86589,371.25695 600.03811,378.21415 C 600.26023,387.18703 594.67772,394.16067 583.57418,386.13515 z "
             id="path9788"
             sodipodi:nodetypes="cccsssscsccccccsc" />
          <path
             sodipodi:nodetypes="cccsssscsccccccsc"
             id="path9790"
             d="M 583.57418,457.64675 C 578.75329,454.81586 582.92184,444.48018 587.89796,442.19591 C 596.61839,437.20865 603.48024,441.43098 607.49313,448.67265 C 611.45898,457.65575 612.57106,465.93124 610.87647,473.17792 C 608.10451,485.03187 599.32226,494.61748 587.96593,499.55975 C 580.09171,502.98662 570.74592,503.9295 562.27606,502.88882 C 539.62139,500.10527 523.64623,485.00136 524.37172,461.52649 C 524.76334,448.85478 528.16217,437.11067 543.02612,432.4922 C 554.65988,432.78326 561.61871,443.84257 557.32804,453.42401 C 555.23133,458.10616 549.56783,459.14948 545.58396,456.42776 C 541.37045,453.17739 542.03471,450.15509 544.20653,444.63413 C 538.1419,448.31785 538.20131,454.86867 538.65922,461.5912 C 539.48864,483.60342 562.06164,492.00877 578.79417,485.14065 C 582.82771,483.09295 586.07931,479.50197 589.39963,474.57406 C 589.93268,479.56035 588.91777,480.34605 588.13796,484.8265 C 596.38381,480.4908 599.86589,472.52495 600.03811,465.56775 C 600.26023,456.59487 594.67772,449.62123 583.57418,457.64675 z "
             style="fill:#fcef3c;fill-opacity:1;fill-rule:evenodd;stroke:black;stroke-width:4.36202097;stroke-linecap:butt;stroke-linejoin:miter;stroke-miterlimit:4;stroke-dasharray:none;stroke-opacity:1" />
        </g>
        <g
           style="fill:#fcef3c;fill-opacity:1;stroke:black;stroke-width:4.91195202;stroke-miterlimit:4;stroke-dasharray:none;stroke-opacity:1"
           transform="matrix(0.71784,0.696208,-0.696208,0.71784,725.3139,37.45465)"
           id="g9792">
          <path
             style="fill:#fcef3c;fill-opacity:1;fill-rule:evenodd;stroke:black;stroke-width:4.91195202;stroke-linecap:butt;stroke-linejoin:miter;stroke-miterlimit:4;stroke-dasharray:none;stroke-opacity:1"
             d="M 83.751126,447.56742 C 88.490238,447.83097 93.870798,450.04189 103.2928,443.6894 L 109.17535,423.69172 L 88.862061,428.40707 C 83.187892,438.99343 83.184316,442.16321 83.751126,447.56742 z "
             id="path9794"
             sodipodi:nodetypes="ccccc" />
          <path
             style="fill:#fcef3c;fill-opacity:1;fill-rule:evenodd;stroke:black;stroke-width:4.91195202;stroke-linecap:butt;stroke-linejoin:miter;stroke-miterlimit:4;stroke-dasharray:none;stroke-opacity:1"
             d="M 130.63995,386.55877 C 139.74447,392.20157 143.06332,395.68716 146.43463,402.6942 C 146.43463,402.6942 131.84623,415.44906 120.68566,427.86435 C 109.99822,439.7533 114.27188,449.23835 113.28164,460.95685 C 106.97337,451.46633 99.804186,443.47726 105.99334,425.85878 C 87.813939,431.04657 80.636845,424.6488 71.555093,418.29324 C 82.316625,416.58751 93.356655,421.82218 104.36108,411.18685 C 116.18762,399.75705 130.63995,386.55877 130.63995,386.55877 z "
             id="path9796"
             sodipodi:nodetypes="ccscccsc" />
          <path
             style="fill:#fcef3c;fill-opacity:1;fill-rule:evenodd;stroke:black;stroke-width:4.91195202;stroke-linecap:butt;stroke-linejoin:miter;stroke-miterlimit:4;stroke-dasharray:none;stroke-opacity:1"
             d="M 130.81226,392.14654 C 136.29399,395.46985 137.85071,396.13038 140.42172,401.97648 C 134.67983,403.91913 128.98369,408.10449 124.36907,417.54539 C 119.3059,414.77865 117.11486,411.86195 114.75961,407.71545 C 124.83087,403.62601 128.86061,398.57772 130.81226,392.14654 z "
             id="path9798"
             sodipodi:nodetypes="ccccc" />
        </g>
      </g>
      <g
         style="fill:#fcef3c;fill-opacity:1;stroke:black;stroke-width:4.91195154;stroke-miterlimit:4;stroke-dasharray:none;stroke-opacity:1"
         id="g9846"
         transform="matrix(-0.5297,6.784196e-4,6.784196e-4,0.5297,1434.106,455.2241)">
        <path
           sodipodi:nodetypes="ccccccccccccccccccccccccccccccccc"
           id="path9848"
           d="M 1037.5888,428.43227 L 1037.6934,455.04681 L 1018.7561,455.12124 L 1018.7822,463.49872 L 1037.7195,463.42431 L 1037.8684,501.29884 L 1010.742,501.40544 L 1010.6535,478.88544 L 1002.7878,478.90958 L 1002.8763,501.42958 L 981.89178,501.51205 L 981.74294,463.6375 L 990.98237,463.61135 L 990.95621,455.23386 L 981.71679,455.26001 L 981.68058,443.4615 L 973.81491,443.48563 L 973.85112,455.28415 L 965.28521,455.30427 L 965.31136,463.68175 L 973.87726,463.66164 L 974.02611,501.53619 L 952.79976,501.59252 L 952.72131,481.6316 L 945.36745,481.65372 L 945.44589,501.61464 L 919.34318,501.71721 L 919.19433,463.84266 L 937.10797,463.77227 L 937.0818,455.39478 L 919.16817,455.46518 L 919.06358,428.85063 L 1037.5888,428.43227 z "
           style="fill:#fcef3c;fill-opacity:1;fill-rule:evenodd;stroke:black;stroke-width:4.91195154;stroke-linecap:butt;stroke-linejoin:miter;stroke-miterlimit:4;stroke-dasharray:none;stroke-opacity:1" />
        <path
           sodipodi:nodetypes="ccccc"
           id="path9850"
           d="M 1050.0658,404.81369 C 1053.2971,413.91349 1053.0981,419.02678 1050.6173,428.14903 L 590.55515,429.94131 L 590.44772,406.60422 L 1050.0658,404.81369 z "
           style="fill:#fcef3c;fill-opacity:1;fill-rule:evenodd;stroke:black;stroke-width:4.91195154;stroke-linecap:butt;stroke-linejoin:miter;stroke-miterlimit:4;stroke-dasharray:none;stroke-opacity:1" />
        <path
           transform="matrix(3.18867e-3,0.907838,-1.070661,4.707868e-3,604.176,-1121.417)"
           sodipodi:open="true"
           sodipodi:end="8.1662395"
           sodipodi:start="1.884771"
           d="M 1689.0386,23.82707 A 19.091883,9.8994951 0 1 1 1689.0698,23.832305"
           sodipodi:ry="9.8994951"
           sodipodi:rx="19.091883"
           sodipodi:cy="14.411526"
           sodipodi:cx="1694.9349"
           id="path9852"
           style="fill:#fcef3c;fill-opacity:1;fill-rule:evenodd;stroke:black;stroke-width:4.98219299;stroke-linecap:round;stroke-linejoin:round;stroke-miterlimit:4;stroke-dasharray:none;stroke-dashoffset:0;stroke-opacity:1"
           sodipodi:type="arc" />
        <g
           style="fill:#fcef3c;fill-opacity:1;stroke:black;stroke-width:4.36202097;stroke-miterlimit:4;stroke-dasharray:none;stroke-opacity:1"
           transform="matrix(1.202773,0,0,1.054263,-118.7585,-27.40652)"
           id="g9854">
          <path
             style="fill:#fcef3c;fill-opacity:1;fill-rule:evenodd;stroke:black;stroke-width:4.36202097;stroke-linecap:butt;stroke-linejoin:miter;stroke-miterlimit:4;stroke-dasharray:none;stroke-opacity:1"
             d="M 583.57418,386.13515 C 578.75329,388.96604 582.92184,399.30172 587.89796,401.58599 C 596.61839,406.57325 603.48024,402.35092 607.49313,395.10925 C 611.45898,386.12615 612.57106,377.85066 610.87647,370.60398 C 608.10451,358.75003 599.32226,349.16442 587.96593,344.22215 C 580.09171,340.79528 570.74592,339.8524 562.27606,340.89308 C 539.62139,343.67663 523.64623,358.78054 524.37172,382.25541 C 524.76334,394.92712 528.16217,406.67123 543.02612,411.2897 C 554.65988,410.99864 561.61871,399.93933 557.32804,390.35789 C 555.23133,385.67574 549.56783,384.63242 545.58396,387.35414 C 541.37045,390.60451 542.03471,393.62681 544.20653,399.14777 C 538.1419,395.46405 538.20131,388.91323 538.65922,382.1907 C 539.48864,360.17848 562.06164,351.77313 578.79417,358.64125 C 582.82771,360.68895 586.07931,364.27993 589.39963,369.20784 C 589.93268,364.22155 588.91777,363.43585 588.13796,358.9554 C 596.38381,363.2911 599.86589,371.25695 600.03811,378.21415 C 600.26023,387.18703 594.67772,394.16067 583.57418,386.13515 z "
             id="path9856"
             sodipodi:nodetypes="cccsssscsccccccsc" />
          <path
             sodipodi:nodetypes="cccsssscsccccccsc"
             id="path9858"
             d="M 583.57418,457.64675 C 578.75329,454.81586 582.92184,444.48018 587.89796,442.19591 C 596.61839,437.20865 603.48024,441.43098 607.49313,448.67265 C 611.45898,457.65575 612.57106,465.93124 610.87647,473.17792 C 608.10451,485.03187 599.32226,494.61748 587.96593,499.55975 C 580.09171,502.98662 570.74592,503.9295 562.27606,502.88882 C 539.62139,500.10527 523.64623,485.00136 524.37172,461.52649 C 524.76334,448.85478 528.16217,437.11067 543.02612,432.4922 C 554.65988,432.78326 561.61871,443.84257 557.32804,453.42401 C 555.23133,458.10616 549.56783,459.14948 545.58396,456.42776 C 541.37045,453.17739 542.03471,450.15509 544.20653,444.63413 C 538.1419,448.31785 538.20131,454.86867 538.65922,461.5912 C 539.48864,483.60342 562.06164,492.00877 578.79417,485.14065 C 582.82771,483.09295 586.07931,479.50197 589.39963,474.57406 C 589.93268,479.56035 588.91777,480.34605 588.13796,484.8265 C 596.38381,480.4908 599.86589,472.52495 600.03811,465.56775 C 600.26023,456.59487 594.67772,449.62123 583.57418,457.64675 z "
             style="fill:#fcef3c;fill-opacity:1;fill-rule:evenodd;stroke:black;stroke-width:4.36202097;stroke-linecap:butt;stroke-linejoin:miter;stroke-miterlimit:4;stroke-dasharray:none;stroke-opacity:1" />
        </g>
        <g
           style="fill:#fcef3c;fill-opacity:1;stroke:black;stroke-width:4.91195202;stroke-miterlimit:4;stroke-dasharray:none;stroke-opacity:1"
           transform="matrix(0.71784,0.696208,-0.696208,0.71784,725.3139,37.45465)"
           id="g9860">
          <path
             style="fill:#fcef3c;fill-opacity:1;fill-rule:evenodd;stroke:black;stroke-width:4.91195202;stroke-linecap:butt;stroke-linejoin:miter;stroke-miterlimit:4;stroke-dasharray:none;stroke-opacity:1"
             d="M 83.751126,447.56742 C 88.490238,447.83097 93.870798,450.04189 103.2928,443.6894 L 109.17535,423.69172 L 88.862061,428.40707 C 83.187892,438.99343 83.184316,442.16321 83.751126,447.56742 z "
             id="path9862"
             sodipodi:nodetypes="ccccc" />
          <path
             style="fill:#fcef3c;fill-opacity:1;fill-rule:evenodd;stroke:black;stroke-width:4.91195202;stroke-linecap:butt;stroke-linejoin:miter;stroke-miterlimit:4;stroke-dasharray:none;stroke-opacity:1"
             d="M 130.63995,386.55877 C 139.74447,392.20157 143.06332,395.68716 146.43463,402.6942 C 146.43463,402.6942 131.84623,415.44906 120.68566,427.86435 C 109.99822,439.7533 114.27188,449.23835 113.28164,460.95685 C 106.97337,451.46633 99.804186,443.47726 105.99334,425.85878 C 87.813939,431.04657 80.636845,424.6488 71.555093,418.29324 C 82.316625,416.58751 93.356655,421.82218 104.36108,411.18685 C 116.18762,399.75705 130.63995,386.55877 130.63995,386.55877 z "
             id="path9864"
             sodipodi:nodetypes="ccscccsc" />
          <path
             style="fill:#fcef3c;fill-opacity:1;fill-rule:evenodd;stroke:black;stroke-width:4.91195202;stroke-linecap:butt;stroke-linejoin:miter;stroke-miterlimit:4;stroke-dasharray:none;stroke-opacity:1"
             d="M 130.81226,392.14654 C 136.29399,395.46985 137.85071,396.13038 140.42172,401.97648 C 134.67983,403.91913 128.98369,408.10449 124.36907,417.54539 C 119.3059,414.77865 117.11486,411.86195 114.75961,407.71545 C 124.83087,403.62601 128.86061,398.57772 130.81226,392.14654 z "
             id="path9866"
             sodipodi:nodetypes="ccccc" />
        </g>
      </g>
      <g
         transform="matrix(-0.5297,6.784196e-4,6.784196e-4,0.5297,1434.106,557.9901)"
         id="g9824"
         style="fill:#fcef3c;fill-opacity:1;stroke:black;stroke-width:4.91195154;stroke-miterlimit:4;stroke-dasharray:none;stroke-opacity:1">
        <path
           style="fill:#fcef3c;fill-opacity:1;fill-rule:evenodd;stroke:black;stroke-width:4.91195154;stroke-linecap:butt;stroke-linejoin:miter;stroke-miterlimit:4;stroke-dasharray:none;stroke-opacity:1"
           d="M 1037.5888,428.43227 L 1037.6934,455.04681 L 1018.7561,455.12124 L 1018.7822,463.49872 L 1037.7195,463.42431 L 1037.8684,501.29884 L 1010.742,501.40544 L 1010.6535,478.88544 L 1002.7878,478.90958 L 1002.8763,501.42958 L 981.89178,501.51205 L 981.74294,463.6375 L 990.98237,463.61135 L 990.95621,455.23386 L 981.71679,455.26001 L 981.68058,443.4615 L 973.81491,443.48563 L 973.85112,455.28415 L 965.28521,455.30427 L 965.31136,463.68175 L 973.87726,463.66164 L 974.02611,501.53619 L 952.79976,501.59252 L 952.72131,481.6316 L 945.36745,481.65372 L 945.44589,501.61464 L 919.34318,501.71721 L 919.19433,463.84266 L 937.10797,463.77227 L 937.0818,455.39478 L 919.16817,455.46518 L 919.06358,428.85063 L 1037.5888,428.43227 z "
           id="path9826"
           sodipodi:nodetypes="ccccccccccccccccccccccccccccccccc" />
        <path
           style="fill:#fcef3c;fill-opacity:1;fill-rule:evenodd;stroke:black;stroke-width:4.91195154;stroke-linecap:butt;stroke-linejoin:miter;stroke-miterlimit:4;stroke-dasharray:none;stroke-opacity:1"
           d="M 1050.0658,404.81369 C 1053.2971,413.91349 1053.0981,419.02678 1050.6173,428.14903 L 590.55515,429.94131 L 590.44772,406.60422 L 1050.0658,404.81369 z "
           id="path9828"
           sodipodi:nodetypes="ccccc" />
        <path
           sodipodi:type="arc"
           style="fill:#fcef3c;fill-opacity:1;fill-rule:evenodd;stroke:black;stroke-width:4.98219299;stroke-linecap:round;stroke-linejoin:round;stroke-miterlimit:4;stroke-dasharray:none;stroke-dashoffset:0;stroke-opacity:1"
           id="path9830"
           sodipodi:cx="1694.9349"
           sodipodi:cy="14.411526"
           sodipodi:rx="19.091883"
           sodipodi:ry="9.8994951"
           d="M 1689.0386,23.82707 A 19.091883,9.8994951 0 1 1 1689.0698,23.832305"
           sodipodi:start="1.884771"
           sodipodi:end="8.1662395"
           sodipodi:open="true"
           transform="matrix(3.18867e-3,0.907838,-1.070661,4.707868e-3,604.176,-1121.417)" />
        <g
           id="g9832"
           transform="matrix(1.202773,0,0,1.054263,-118.7585,-27.40652)"
           style="fill:#fcef3c;fill-opacity:1;stroke:black;stroke-width:4.36202097;stroke-miterlimit:4;stroke-dasharray:none;stroke-opacity:1">
          <path
             sodipodi:nodetypes="cccsssscsccccccsc"
             id="path9834"
             d="M 583.57418,386.13515 C 578.75329,388.96604 582.92184,399.30172 587.89796,401.58599 C 596.61839,406.57325 603.48024,402.35092 607.49313,395.10925 C 611.45898,386.12615 612.57106,377.85066 610.87647,370.60398 C 608.10451,358.75003 599.32226,349.16442 587.96593,344.22215 C 580.09171,340.79528 570.74592,339.8524 562.27606,340.89308 C 539.62139,343.67663 523.64623,358.78054 524.37172,382.25541 C 524.76334,394.92712 528.16217,406.67123 543.02612,411.2897 C 554.65988,410.99864 561.61871,399.93933 557.32804,390.35789 C 555.23133,385.67574 549.56783,384.63242 545.58396,387.35414 C 541.37045,390.60451 542.03471,393.62681 544.20653,399.14777 C 538.1419,395.46405 538.20131,388.91323 538.65922,382.1907 C 539.48864,360.17848 562.06164,351.77313 578.79417,358.64125 C 582.82771,360.68895 586.07931,364.27993 589.39963,369.20784 C 589.93268,364.22155 588.91777,363.43585 588.13796,358.9554 C 596.38381,363.2911 599.86589,371.25695 600.03811,378.21415 C 600.26023,387.18703 594.67772,394.16067 583.57418,386.13515 z "
             style="fill:#fcef3c;fill-opacity:1;fill-rule:evenodd;stroke:black;stroke-width:4.36202097;stroke-linecap:butt;stroke-linejoin:miter;stroke-miterlimit:4;stroke-dasharray:none;stroke-opacity:1" />
          <path
             style="fill:#fcef3c;fill-opacity:1;fill-rule:evenodd;stroke:black;stroke-width:4.36202097;stroke-linecap:butt;stroke-linejoin:miter;stroke-miterlimit:4;stroke-dasharray:none;stroke-opacity:1"
             d="M 583.57418,457.64675 C 578.75329,454.81586 582.92184,444.48018 587.89796,442.19591 C 596.61839,437.20865 603.48024,441.43098 607.49313,448.67265 C 611.45898,457.65575 612.57106,465.93124 610.87647,473.17792 C 608.10451,485.03187 599.32226,494.61748 587.96593,499.55975 C 580.09171,502.98662 570.74592,503.9295 562.27606,502.88882 C 539.62139,500.10527 523.64623,485.00136 524.37172,461.52649 C 524.76334,448.85478 528.16217,437.11067 543.02612,432.4922 C 554.65988,432.78326 561.61871,443.84257 557.32804,453.42401 C 555.23133,458.10616 549.56783,459.14948 545.58396,456.42776 C 541.37045,453.17739 542.03471,450.15509 544.20653,444.63413 C 538.1419,448.31785 538.20131,454.86867 538.65922,461.5912 C 539.48864,483.60342 562.06164,492.00877 578.79417,485.14065 C 582.82771,483.09295 586.07931,479.50197 589.39963,474.57406 C 589.93268,479.56035 588.91777,480.34605 588.13796,484.8265 C 596.38381,480.4908 599.86589,472.52495 600.03811,465.56775 C 600.26023,456.59487 594.67772,449.62123 583.57418,457.64675 z "
             id="path9836"
             sodipodi:nodetypes="cccsssscsccccccsc" />
        </g>
        <g
           id="g9838"
           transform="matrix(0.71784,0.696208,-0.696208,0.71784,725.3139,37.45465)"
           style="fill:#fcef3c;fill-opacity:1;stroke:black;stroke-width:4.91195202;stroke-miterlimit:4;stroke-dasharray:none;stroke-opacity:1">
          <path
             sodipodi:nodetypes="ccccc"
             id="path9840"
             d="M 83.751126,447.56742 C 88.490238,447.83097 93.870798,450.04189 103.2928,443.6894 L 109.17535,423.69172 L 88.862061,428.40707 C 83.187892,438.99343 83.184316,442.16321 83.751126,447.56742 z "
             style="fill:#fcef3c;fill-opacity:1;fill-rule:evenodd;stroke:black;stroke-width:4.91195202;stroke-linecap:butt;stroke-linejoin:miter;stroke-miterlimit:4;stroke-dasharray:none;stroke-opacity:1" />
          <path
             sodipodi:nodetypes="ccscccsc"
             id="path9842"
             d="M 130.63995,386.55877 C 139.74447,392.20157 143.06332,395.68716 146.43463,402.6942 C 146.43463,402.6942 131.84623,415.44906 120.68566,427.86435 C 109.99822,439.7533 114.27188,449.23835 113.28164,460.95685 C 106.97337,451.46633 99.804186,443.47726 105.99334,425.85878 C 87.813939,431.04657 80.636845,424.6488 71.555093,418.29324 C 82.316625,416.58751 93.356655,421.82218 104.36108,411.18685 C 116.18762,399.75705 130.63995,386.55877 130.63995,386.55877 z "
             style="fill:#fcef3c;fill-opacity:1;fill-rule:evenodd;stroke:black;stroke-width:4.91195202;stroke-linecap:butt;stroke-linejoin:miter;stroke-miterlimit:4;stroke-dasharray:none;stroke-opacity:1" />
          <path
             sodipodi:nodetypes="ccccc"
             id="path9844"
             d="M 130.81226,392.14654 C 136.29399,395.46985 137.85071,396.13038 140.42172,401.97648 C 134.67983,403.91913 128.98369,408.10449 124.36907,417.54539 C 119.3059,414.77865 117.11486,411.86195 114.75961,407.71545 C 124.83087,403.62601 128.86061,398.57772 130.81226,392.14654 z "
             style="fill:#fcef3c;fill-opacity:1;fill-rule:evenodd;stroke:black;stroke-width:4.91195202;stroke-linecap:butt;stroke-linejoin:miter;stroke-miterlimit:4;stroke-dasharray:none;stroke-opacity:1" />
        </g>
      </g>
    </g>
    <path
       style="fill:#fcef3c;fill-opacity:1;fill-rule:evenodd;stroke:black;stroke-width:3;stroke-linecap:butt;stroke-linejoin:miter;stroke-miterlimit:4;stroke-dasharray:none;stroke-opacity:1;display:inline"
       d="M 4.5625,302.59375 C 7.6876444,335.20268 14.783697,365.29922 24.78125,392.96875 L 301.28125,392.96875 L 301.28125,303.3125 L 4.5625,302.59375 z "
       id="path11682" />
    <path
       id="path12569"
       d="M 596.67777,302.59375 L 4.5134468,302.59375"
       style="fill:none;fill-opacity:0.75;fill-rule:evenodd;stroke:black;stroke-width:3;stroke-linecap:butt;stroke-linejoin:miter;stroke-miterlimit:4;stroke-dasharray:none;stroke-opacity:1;display:inline"
       sodipodi:nodetypes="cc" />
    <g
       id="g17104"
       transform="matrix(0.233742,0,0,0.233742,-53.50937,213.4774)"
       style="stroke:black;stroke-opacity:1;stroke-width:6.41733193;stroke-miterlimit:4;stroke-dasharray:none">
      <path
         d="M 765.8069,572.08866 C 881.74982,727.21755 986.70703,681.26636 1060.4498,543.27913 L 1077.4736,551.13627 C 999.43533,781.75619 809.31744,783.84699 667.59261,642.80294 L 765.8069,572.08866 z "
         style="fill:#2b5df2;fill-opacity:1;fill-rule:evenodd;stroke:black;stroke-width:6.41733193;stroke-linecap:butt;stroke-linejoin:miter;stroke-miterlimit:4;stroke-dasharray:none;stroke-opacity:1"
         id="path6357" />
      <path
         d="M 762.64752,567.64714 C 774.22256,584.68904 760.74204,613.71609 732.53991,632.47667 C 704.33777,651.23726 672.09641,652.62524 660.53149,635.57662 C 648.95646,618.53472 662.43697,589.50767 690.63911,570.74708 C 718.84125,551.9865 751.0826,550.59851 762.64752,567.64714 z "
         style="fill:#2b5df2;fill-opacity:1;fill-rule:evenodd;stroke:black;stroke-width:6.41733193;stroke-linejoin:miter;stroke-miterlimit:4;stroke-dasharray:none;stroke-opacity:1"
         id="path1900" />
      <path
         d="M 756.28556,571.81959 C 766.39787,586.75255 754.62086,612.1875 729.98258,628.62646 C 705.34431,645.06542 677.17726,646.28164 667.07379,631.34279 C 656.96149,616.40984 668.7385,590.97489 693.37677,574.53593 C 718.01504,558.09697 746.1821,556.88074 756.28556,571.81959 z "
         style="fill:#2b5df2;fill-opacity:1;fill-rule:evenodd;stroke:black;stroke-width:6.41733193;stroke-linejoin:miter;stroke-miterlimit:4;stroke-dasharray:none;stroke-opacity:1"
         id="path4561" />
      <path
         d="M 794.59858,608.12824 C 801.87048,622.24366 794.67495,646.49949 776.6313,665.5003 C 759.64387,683.38889 736.78789,692.04302 722.12083,687.62383 C 722.87711,688.67039 730.93336,694.82101 734.22957,695.78262 C 748.59647,699.97393 770.02106,691.11503 786.60005,673.65655 C 803.52312,655.83574 811.14741,633.38492 805.48742,619.39874 C 804.33033,616.5395 796.60118,609.05718 794.59858,608.12824 z "
         style="fill:red;fill-opacity:1;fill-rule:evenodd;stroke:black;stroke-width:6.41733193;stroke-linecap:butt;stroke-linejoin:miter;stroke-miterlimit:4;stroke-dasharray:none;stroke-opacity:1"
         id="path2789" />
      <path
         d="M 999.8813,627.53155 C 996.1669,631.13537 992.40615,634.51655 988.60005,637.6878 C 1003.264,641.71843 1012.5577,651.09808 1012.2563,670.09405 C 1015.8546,666.01323 1019.3968,661.74723 1022.8501,657.28155 C 1020.8457,643.52858 1014.0087,633.05825 999.8813,627.53155 z "
         style="fill:red;fill-opacity:1;fill-rule:evenodd;stroke:black;stroke-width:6.41733193;stroke-linecap:butt;stroke-linejoin:miter;stroke-miterlimit:4;stroke-dasharray:none;stroke-opacity:1"
         id="path8141" />
      <path
         d="M 964.94481,621.17639 L 993.84548,633.37647 C 995.34691,632.25252 996.83318,631.10175 998.31997,629.92065 L 983.14781,611.74016 C 945.20074,586.11602 910.01287,556.15938 878.02779,523.43416 C 864.21272,509.25798 855.89503,488.34182 855.57428,469.07283 C 855.15824,444.07991 868.19583,426.08443 900.14129,424.93535 C 929.58633,425.71706 943.7411,442.70484 947.01854,468.7122 C 951.25244,504.3185 923.63001,528.99773 901.2177,546.45692 L 913.92048,557.3068 C 945.39091,534.83962 966.93686,506.60448 964.36888,467.92166 C 959.06772,437.97548 932.96093,412.11561 899.53112,413.31387 C 862.2549,413.19595 839.33828,438.85368 837.38257,469.15267 C 836.00298,490.5259 846.26695,514.20864 863.9661,532.78239 C 893.81252,566.80877 929.50203,593.74946 964.94481,621.17639 z M 886.72802,556.68939 L 828.11094,593.45292 L 801.53638,617.32786 C 803.51649,618.99909 805.47819,620.64851 807.45021,622.2236 L 840.09861,610.72717 C 852.96297,601.78775 887.23733,577.62865 900.10169,568.55658 L 886.72802,556.68939 z "
         style="fill:#2b5df2;fill-opacity:1;fill-rule:evenodd;stroke:black;stroke-width:6.41733193;stroke-linecap:butt;stroke-linejoin:miter;stroke-miterlimit:4;stroke-dasharray:none;stroke-opacity:1"
         id="path9034"
         sodipodi:nodetypes="cccccsccccccsccccccccc" />
      <path
         d="M 1071.0376,521.3128 L 1062.4438,544.1878 L 1074.8813,549.9378 L 1083.8188,526.09405 L 1071.0376,521.3128 z "
         style="fill:#e20909;fill-opacity:1;fill-rule:evenodd;stroke:black;stroke-width:6.41733193;stroke-linejoin:miter;stroke-miterlimit:4;stroke-dasharray:none;stroke-opacity:1"
         id="rect11697" />
    </g>
    <g
       id="g21649"
       style="stroke:black;stroke-opacity:1;stroke-width:4.60192105;stroke-miterlimit:4;stroke-dasharray:none"
       transform="matrix(0.391141,0,0,0.391141,-179.2283,340.5107)">
      <path
         transform="matrix(1.320558,0,0,1.320558,-283.8388,-98.58695)"
         sodipodi:open="true"
         sodipodi:end="8.1662395"
         sodipodi:start="1.884771"
         d="M 906.25104,361.11781 A 29.361702,29.361702 0 1 1 906.299,361.13334"
         sodipodi:ry="29.361702"
         sodipodi:rx="29.361702"
         sodipodi:cy="333.1915"
         sodipodi:cx="915.31915"
         id="path17998"
         style="fill:#fcef3c;fill-opacity:1;stroke:black;stroke-width:3.48483069;stroke-miterlimit:4;stroke-dasharray:none;stroke-opacity:1"
         sodipodi:type="arc" />
      <path
         sodipodi:nodetypes="cccccscscccc"
         d="M 932.77109,464.10359 L 931.55556,407.38081 C 931.81803,397.04197 929.63286,384.94781 936.74261,381.15153 C 938.97276,379.67215 936.34715,377.87362 935.43068,377.98999 C 930.29449,380.9478 924.62311,379.62408 919.08904,379.39879 C 919.6199,379.88748 918.90418,379.15783 918.16479,379.28023 C 917.27445,379.42762 914.75404,381.24933 916.88767,381.90391 C 919.57918,383.6545 920.96959,386.32874 921.60613,392.54345 C 923.38826,409.9428 920.51206,443.83637 921.48424,464.10359 L 920.26868,550.36962 L 934.62495,550.36962 L 932.77109,464.10359 z "
         style="fill:#5ab532;fill-opacity:1;stroke:black;stroke-width:4.60192105;stroke-miterlimit:4;stroke-opacity:1;stroke-dasharray:none"
         id="rect18887" />
      <path
         inkscape:transform-center-y="-10.212766"
         sodipodi:nodetypes="czczs"
         id="path19785"
         d="M 927.29455,476.71739 C 928.44985,467.0041 944.09732,466.61901 964.27835,485.42617 C 984.4594,504.23332 1034.6437,522.12751 1073.946,486.72565 C 1034.2489,495.37484 993.26605,479.14027 972.12097,473.17162 C 962.38949,470.42471 952.06381,468.31037 943.77828,468.04631"
         style="fill:#5ab532;fill-opacity:1;fill-rule:evenodd;stroke:black;stroke-width:4.60192105;stroke-linecap:butt;stroke-linejoin:miter;stroke-miterlimit:4;stroke-dasharray:none;stroke-opacity:1" />
      <path
         inkscape:transform-center-x="-1.8693372e-005"
         style="fill:#5ab532;fill-opacity:1;fill-rule:evenodd;stroke:black;stroke-width:4.60192105;stroke-linecap:butt;stroke-linejoin:miter;stroke-miterlimit:4;stroke-dasharray:none;stroke-opacity:1"
         d="M 931.07542,429.2914 C 934.46615,419.34457 934.361,413.33322 951.27144,414.62537 C 968.2091,415.9196 972.96075,403.99319 995.94911,365.00093 C 972.72982,388.52897 968.33836,388.13476 954.26291,393.11731 C 939.80465,398.23537 934.71256,408.20115 930.67403,416.3491"
         id="path21558"
         sodipodi:nodetypes="czczs"
         inkscape:transform-center-y="-9.3620072" />
      <g
         transform="matrix(-0.618694,3.726808e-2,3.726808e-2,0.618694,1766.788,-30.10035)"
         id="g21611"
         style="stroke:black;stroke-opacity:1;stroke-width:7.4246635;stroke-miterlimit:4;stroke-dasharray:none">
        <path
           inkscape:transform-center-y="-12.257253"
           sodipodi:nodetypes="czczssc"
           id="path21613"
           d="M 1059.6672,455.7354 C 1073.2549,455.7354 1073.6364,436.2325 1101.1855,437.65676 C 1128.7346,439.08095 1158.8139,407.8737 1166.1448,355.4884 C 1136.9903,368.64819 1095.7985,354.86687 1079.4515,397.05078 C 1072.6472,414.60927 1066.8729,426.70504 1063.0443,435.52123 C 1060.1356,442.21914 1059.4859,446.55658 1056.1273,448.49565 C 1053.2859,450.13616 1057.4621,453.22147 1059.6672,455.7354 z "
           style="fill:#5ab532;fill-opacity:1;fill-rule:evenodd;stroke:black;stroke-width:7.4246635;stroke-linecap:butt;stroke-linejoin:miter;stroke-miterlimit:4;stroke-dasharray:none;stroke-opacity:1"
           inkscape:transform-center-x="11.234657" />
        <path
           style="fill:none;fill-rule:evenodd;stroke:black;stroke-width:7.4246635;stroke-linecap:butt;stroke-linejoin:miter;stroke-opacity:1;stroke-miterlimit:4;stroke-dasharray:none"
           d="M 1065.1736,446.96527 C 1089.7414,396.75589 1129.2271,413.39552 1161.7614,363.01515"
           id="path21615"
           sodipodi:nodetypes="cc" />
      </g>
      <path
         sodipodi:nodetypes="cszsccszsc"
         id="path19777"
         d="M 928.40755,466.39462 C 929.79506,466.04637 935.49019,464.27155 937.34289,463.77437 C 963.12001,456.85703 1031.4227,435.15304 1072.6976,388.29843 C 1095.1152,362.85039 1110.0235,329.98323 1119.7266,300.85852 C 1132.4812,262.5744 1129.0204,230.7568 1129.0204,230.7568 L 1134.7159,235.77403 C 1134.7159,235.77403 1138.3899,265.75029 1126.5163,302.52057 C 1116.8488,332.45902 1101.6618,366.9014 1078.3761,393.33498 C 1034.0336,443.67174 960.39379,465.25847 939.82879,470.0942 C 932.28057,471.86912 932.59099,477.68969 932.59099,477.68969"
         style="fill:#5ab532;fill-opacity:1;stroke:black;stroke-width:4.60192105;stroke-miterlimit:4;stroke-opacity:1;stroke-dasharray:none" />
      <path
         sodipodi:type="arc"
         style="fill:#fcef3c;fill-opacity:1;stroke:black;stroke-width:3.48483069;stroke-miterlimit:4;stroke-dasharray:none;stroke-opacity:1"
         id="path21560"
         sodipodi:cx="915.31915"
         sodipodi:cy="333.1915"
         sodipodi:rx="29.361702"
         sodipodi:ry="29.361702"
         d="M 906.25104,361.11781 A 29.361702,29.361702 0 1 1 906.299,361.13334"
         sodipodi:start="1.884771"
         sodipodi:end="8.1662395"
         sodipodi:open="true"
         transform="matrix(1.320558,0,0,1.320558,-78.92828,-231.2823)" />
      <g
         id="g21570"
         transform="matrix(-0.428436,-0.903573,-0.903573,0.428436,1873.296,1203.72)"
         style="stroke:black;stroke-opacity:1;stroke-width:4.60191743;stroke-miterlimit:4;stroke-dasharray:none">
        <path
           inkscape:transform-center-x="11.234657"
           style="fill:#5ab532;fill-opacity:1;fill-rule:evenodd;stroke:black;stroke-width:4.60191743;stroke-linecap:butt;stroke-linejoin:miter;stroke-miterlimit:4;stroke-dasharray:none;stroke-opacity:1"
           d="M 1059.8486,453.88333 C 1070.7367,460.10832 1073.6364,436.2325 1101.1855,437.65676 C 1128.7346,439.08095 1158.8139,407.8737 1166.1448,355.4884 C 1136.9903,368.64819 1095.7985,354.86687 1079.4515,397.05078 C 1072.6472,414.60927 1066.8729,426.70504 1063.0443,435.52123 C 1060.1356,442.21914 1059.4859,446.55658 1056.1273,448.49565 C 1053.2859,450.13616 1057.6435,451.3694 1059.8486,453.88333 z "
           id="path21572"
           sodipodi:nodetypes="czczssc"
           inkscape:transform-center-y="-12.257253" />
        <path
           sodipodi:nodetypes="cc"
           id="path21574"
           d="M 1065.1736,446.96527 C 1089.7414,396.75589 1129.2271,413.39552 1161.7614,363.01515"
           style="fill:none;fill-rule:evenodd;stroke:black;stroke-width:4.60191743;stroke-linecap:butt;stroke-linejoin:miter;stroke-opacity:1;stroke-miterlimit:4;stroke-dasharray:none" />
      </g>
      <g
         transform="matrix(0.983557,0.1806,-0.1806,0.983557,49.72214,-195.6252)"
         id="g21566"
         style="stroke:black;stroke-opacity:1;stroke-width:4.60191936;stroke-miterlimit:4;stroke-dasharray:none">
        <path
           inkscape:transform-center-y="-12.257253"
           sodipodi:nodetypes="czczssc"
           id="path21562"
           d="M 1059.6672,455.7354 C 1073.2549,455.7354 1073.6364,436.2325 1101.1855,437.65676 C 1128.7346,439.08095 1158.8139,407.8737 1166.1448,355.4884 C 1136.9903,368.64819 1095.7985,354.86687 1079.4515,397.05078 C 1072.6472,414.60927 1066.8729,426.70504 1063.0443,435.52123 C 1060.1356,442.21914 1059.4859,446.55658 1056.1273,448.49565 C 1053.2859,450.13616 1057.4621,453.22147 1059.6672,455.7354 z "
           style="fill:#5ab532;fill-opacity:1;fill-rule:evenodd;stroke:black;stroke-width:4.60191936;stroke-linecap:butt;stroke-linejoin:miter;stroke-miterlimit:4;stroke-dasharray:none;stroke-opacity:1"
           inkscape:transform-center-x="11.234657" />
        <path
           style="fill:none;fill-rule:evenodd;stroke:black;stroke-width:4.60191936;stroke-linecap:butt;stroke-linejoin:miter;stroke-opacity:1;stroke-miterlimit:4;stroke-dasharray:none"
           d="M 1065.1736,446.96527 C 1089.7414,396.75589 1129.2271,413.39552 1161.7614,363.01515"
           id="path21564"
           sodipodi:nodetypes="cc" />
      </g>
      <g
         id="g21605"
         transform="matrix(0.609623,0.111939,-0.111939,0.609623,531.9189,-102.8168)"
         style="stroke:black;stroke-opacity:1;stroke-width:7.42466962;stroke-miterlimit:4;stroke-dasharray:none">
        <path
           inkscape:transform-center-x="11.234657"
           style="fill:#5ab532;fill-opacity:1;fill-rule:evenodd;stroke:black;stroke-width:7.42466962;stroke-linecap:butt;stroke-linejoin:miter;stroke-miterlimit:4;stroke-dasharray:none;stroke-opacity:1"
           d="M 1059.6672,455.7354 C 1073.2549,455.7354 1073.6364,436.2325 1101.1855,437.65676 C 1128.7346,439.08095 1158.8139,407.8737 1166.1448,355.4884 C 1136.9903,368.64819 1095.7985,354.86687 1079.4515,397.05078 C 1072.6472,414.60927 1066.8729,426.70504 1063.0443,435.52123 C 1060.1356,442.21914 1059.4859,446.55658 1056.1273,448.49565"
           id="path21607"
           sodipodi:nodetypes="czczss"
           inkscape:transform-center-y="-12.257253" />
        <path
           sodipodi:nodetypes="cc"
           id="path21609"
           d="M 1065.1736,446.96527 C 1089.7414,396.75589 1129.2271,413.39552 1161.7614,363.01515"
           style="fill:none;fill-rule:evenodd;stroke:black;stroke-width:7.42466962;stroke-linecap:butt;stroke-linejoin:miter;stroke-opacity:1;stroke-miterlimit:4;stroke-dasharray:none" />
      </g>
      <path
         inkscape:transform-center-x="1.2403792e-005"
         style="fill:#5ab532;fill-opacity:1;fill-rule:evenodd;stroke:black;stroke-width:4.60192105;stroke-linecap:butt;stroke-linejoin:miter;stroke-miterlimit:4;stroke-dasharray:none;stroke-opacity:1"
         d="M 926.1931,476.71739 C 925.0378,467.0041 909.3903,466.61901 889.2093,485.42617 C 869.0282,504.23332 818.8439,522.12751 779.5416,486.72565 C 819.2387,495.37484 860.2216,479.14027 881.3667,473.17162 C 891.0981,470.42471 901.4238,468.31037 909.7094,468.04631"
         id="path21617"
         sodipodi:nodetypes="czczs"
         inkscape:transform-center-y="-10.212766" />
      <path
         inkscape:transform-center-y="-9.3620072"
         sodipodi:nodetypes="czczs"
         id="path21619"
         d="M 922.4122,429.2914 C 919.0215,419.34457 919.1266,413.33322 902.2162,414.62537 C 885.2785,415.9196 880.5269,403.99319 857.5385,365.00093 C 880.7578,388.52897 885.1493,388.13476 899.2247,393.11731 C 913.683,398.23537 918.7751,408.20115 922.8136,416.3491"
         style="fill:#5ab532;fill-opacity:1;fill-rule:evenodd;stroke:black;stroke-width:4.60192105;stroke-linecap:butt;stroke-linejoin:miter;stroke-miterlimit:4;stroke-dasharray:none;stroke-opacity:1"
         inkscape:transform-center-x="3.6097164e-005" />
      <g
         id="g21621"
         transform="matrix(0.618694,3.726808e-2,-3.726808e-2,0.618694,86.6996,-30.10035)"
         style="stroke:black;stroke-opacity:1;stroke-width:7.4246635;stroke-miterlimit:4;stroke-dasharray:none">
        <path
           inkscape:transform-center-x="11.234657"
           style="fill:#5ab532;fill-opacity:1;fill-rule:evenodd;stroke:black;stroke-width:7.4246635;stroke-linecap:butt;stroke-linejoin:miter;stroke-miterlimit:4;stroke-dasharray:none;stroke-opacity:1"
           d="M 1059.6672,455.7354 C 1073.2549,455.7354 1073.6364,436.2325 1101.1855,437.65676 C 1128.7346,439.08095 1158.8139,407.8737 1166.1448,355.4884 C 1136.9903,368.64819 1095.7985,354.86687 1079.4515,397.05078 C 1072.6472,414.60927 1066.8729,426.70504 1063.0443,435.52123 C 1060.1356,442.21914 1059.4859,446.55658 1056.1273,448.49565 C 1053.2859,450.13616 1057.4621,453.22147 1059.6672,455.7354 z "
           id="path21623"
           sodipodi:nodetypes="czczssc"
           inkscape:transform-center-y="-12.257253" />
        <path
           sodipodi:nodetypes="cc"
           id="path21625"
           d="M 1065.1736,446.96527 C 1089.7414,396.75589 1129.2271,413.39552 1161.7614,363.01515"
           style="fill:none;fill-rule:evenodd;stroke:black;stroke-width:7.4246635;stroke-linecap:butt;stroke-linejoin:miter;stroke-opacity:1;stroke-miterlimit:4;stroke-dasharray:none" />
      </g>
      <path
         style="fill:#5ab532;fill-opacity:1;stroke:black;stroke-width:4.60192105;stroke-miterlimit:4;stroke-opacity:1;stroke-dasharray:none"
         d="M 925.0801,466.39462 C 923.6926,466.04637 917.9974,464.27155 916.1447,463.77437 C 890.3676,456.85703 822.0649,435.15304 780.79,388.29843 C 758.3724,362.85039 743.46414,329.98323 733.76104,300.85852 C 721.00644,262.5744 724.46724,230.7568 724.46724,230.7568 L 718.77174,235.77403 C 718.77174,235.77403 715.09774,265.75029 726.97134,302.52057 C 736.63884,332.45902 751.82584,366.9014 775.1115,393.33498 C 819.454,443.67174 893.0938,465.25847 913.6588,470.0942 C 921.2071,471.86912 920.8966,477.68969 920.8966,477.68969"
         id="path21627"
         sodipodi:nodetypes="cszsccszsc" />
      <path
         transform="matrix(-1.320558,0,0,1.320558,1932.415,-231.2823)"
         sodipodi:open="true"
         sodipodi:end="8.1662395"
         sodipodi:start="1.884771"
         d="M 906.25104,361.11781 A 29.361702,29.361702 0 1 1 906.299,361.13334"
         sodipodi:ry="29.361702"
         sodipodi:rx="29.361702"
         sodipodi:cy="333.1915"
         sodipodi:cx="915.31915"
         id="path21629"
         style="fill:#fcef3c;fill-opacity:1;stroke:black;stroke-width:3.48483069;stroke-miterlimit:4;stroke-dasharray:none;stroke-opacity:1"
         sodipodi:type="arc" />
      <g
         transform="matrix(0.428436,-0.903573,0.903573,0.428436,-19.8084,1203.72)"
         id="g21631"
         style="stroke:black;stroke-opacity:1;stroke-width:4.60191743;stroke-miterlimit:4;stroke-dasharray:none">
        <path
           inkscape:transform-center-y="-12.257253"
           sodipodi:nodetypes="czczssc"
           id="path21633"
           d="M 1059.8486,453.88333 C 1070.7367,460.10832 1073.6364,436.2325 1101.1855,437.65676 C 1128.7346,439.08095 1158.8139,407.8737 1166.1448,355.4884 C 1136.9903,368.64819 1095.7985,354.86687 1079.4515,397.05078 C 1072.6472,414.60927 1066.8729,426.70504 1063.0443,435.52123 C 1060.1356,442.21914 1059.4859,446.55658 1056.1273,448.49565 C 1053.2859,450.13616 1057.6435,451.3694 1059.8486,453.88333 z "
           style="fill:#5ab532;fill-opacity:1;fill-rule:evenodd;stroke:black;stroke-width:4.60191743;stroke-linecap:butt;stroke-linejoin:miter;stroke-miterlimit:4;stroke-dasharray:none;stroke-opacity:1"
           inkscape:transform-center-x="11.234657" />
        <path
           style="fill:none;fill-rule:evenodd;stroke:black;stroke-width:4.60191743;stroke-linecap:butt;stroke-linejoin:miter;stroke-opacity:1;stroke-miterlimit:4;stroke-dasharray:none"
           d="M 1065.1736,446.96527 C 1089.7414,396.75589 1129.2271,413.39552 1161.7614,363.01515"
           id="path21635"
           sodipodi:nodetypes="cc" />
      </g>
      <g
         id="g21637"
         transform="matrix(-0.983557,0.1806,0.1806,0.983557,1803.765,-195.6252)"
         style="stroke:black;stroke-opacity:1;stroke-width:4.60191936;stroke-miterlimit:4;stroke-dasharray:none">
        <path
           inkscape:transform-center-x="11.234657"
           style="fill:#5ab532;fill-opacity:1;fill-rule:evenodd;stroke:black;stroke-width:4.60191936;stroke-linecap:butt;stroke-linejoin:miter;stroke-miterlimit:4;stroke-dasharray:none;stroke-opacity:1"
           d="M 1059.6672,455.7354 C 1073.2549,455.7354 1073.6364,436.2325 1101.1855,437.65676 C 1128.7346,439.08095 1158.8139,407.8737 1166.1448,355.4884 C 1136.9903,368.64819 1095.7985,354.86687 1079.4515,397.05078 C 1072.6472,414.60927 1066.8729,426.70504 1063.0443,435.52123 C 1060.1356,442.21914 1059.4859,446.55658 1056.1273,448.49565 C 1053.2859,450.13616 1057.4621,453.22147 1059.6672,455.7354 z "
           id="path21639"
           sodipodi:nodetypes="czczssc"
           inkscape:transform-center-y="-12.257253" />
        <path
           sodipodi:nodetypes="cc"
           id="path21641"
           d="M 1065.1736,446.96527 C 1089.7414,396.75589 1129.2271,413.39552 1161.7614,363.01515"
           style="fill:none;fill-rule:evenodd;stroke:black;stroke-width:4.60191936;stroke-linecap:butt;stroke-linejoin:miter;stroke-opacity:1;stroke-miterlimit:4;stroke-dasharray:none" />
      </g>
      <g
         transform="matrix(-0.609623,0.111939,0.111939,0.609623,1322.67,-102.8168)"
         id="g21643"
         style="stroke:black;stroke-opacity:1;stroke-width:7.42466962;stroke-miterlimit:4;stroke-dasharray:none">
        <path
           inkscape:transform-center-y="-12.257253"
           sodipodi:nodetypes="czczss"
           id="path21645"
           d="M 1059.6672,455.7354 C 1073.2549,455.7354 1073.6364,436.2325 1101.1855,437.65676 C 1128.7346,439.08095 1158.8139,407.8737 1166.1448,355.4884 C 1136.9903,368.64819 1095.7985,354.86687 1079.4515,397.05078 C 1072.6472,414.60927 1066.8729,426.70504 1063.0443,435.52123 C 1060.1356,442.21914 1059.4859,446.55658 1056.1273,448.49565"
           style="fill:#5ab532;fill-opacity:1;fill-rule:evenodd;stroke:black;stroke-width:7.42466962;stroke-linecap:butt;stroke-linejoin:miter;stroke-miterlimit:4;stroke-dasharray:none;stroke-opacity:1"
           inkscape:transform-center-x="11.234657" />
        <path
           style="fill:none;fill-rule:evenodd;stroke:black;stroke-width:7.42466962;stroke-linecap:butt;stroke-linejoin:miter;stroke-opacity:1;stroke-miterlimit:4;stroke-dasharray:none"
           d="M 1065.1736,446.96527 C 1089.7414,396.75589 1129.2271,413.39552 1161.7614,363.01515"
           id="path21647"
           sodipodi:nodetypes="cc" />
      </g>
    </g>
  </g>
  <g
     inkscape:groupmode="layer"
     id="layer2"
     inkscape:label="Reflet final"
     style="display:inline"
     sodipodi:insensitive="true">
    <path
       sodipodi:nodetypes="cccccc"
       d="M 300.00001,658.5 C 300.00001,658.5 598.50001,546.17969 598.50001,260.72817 C 598.50001,-24.723334 598.50001,2.1764865 598.50001,2.1764865 L 1.5,2.1764865 L 1.5,260.72817 C 1.5,546.17969 300.00001,658.5 300.00001,658.5 z "
       style="opacity:1;fill:url(#radialGradient3163);fill-opacity:1;fill-rule:evenodd;stroke:none;stroke-width:1px;stroke-linecap:butt;stroke-linejoin:miter;stroke-opacity:1"
       id="path2875"
       inkscape:export-xdpi="144"
       inkscape:export-ydpi="144" />
  </g>
  <g
     inkscape:groupmode="layer"
     id="layer1"
     inkscape:label="Contour final"
     style="display:inline"
     sodipodi:insensitive="true">
    <path
       sodipodi:nodetypes="cccccc"
       d="M 301.27659,659.13844 C 301.27659,659.13844 1.5,546.81808 1.5,261.36644 C 1.5,-24.085178 1.5,2.8146541 1.5,2.8146541 L 598.49999,2.8146541 L 598.49999,261.36644 C 598.49999,546.81808 301.27659,659.13844 301.27659,659.13844 z "
       style="opacity:1;fill:none;fill-opacity:1;fill-rule:evenodd;stroke:black;stroke-width:3.00000048;stroke-linecap:butt;stroke-linejoin:miter;stroke-miterlimit:4;stroke-dasharray:none;stroke-opacity:1"
       id="path1411"
       inkscape:export-xdpi="144"
       inkscape:export-ydpi="144" />
  </g>
</svg>
