<?xml version="1.0" encoding="UTF-8" standalone="no"?>
<svg
   xmlns:dc="http://purl.org/dc/elements/1.1/"
   xmlns:cc="http://web.resource.org/cc/"
   xmlns:rdf="http://www.w3.org/1999/02/22-rdf-syntax-ns#"
   xmlns:svg="http://www.w3.org/2000/svg"
   xmlns="http://www.w3.org/2000/svg"
   xmlns:xlink="http://www.w3.org/1999/xlink"
   xmlns:sodipodi="http://sodipodi.sourceforge.net/DTD/sodipodi-0.dtd"
   xmlns:inkscape="http://www.inkscape.org/namespaces/inkscape"
   height="660"
   width="600"
   version="1.0"
   id="svg2"
   sodipodi:version="0.32"
   inkscape:version="0.45.1"
   sodipodi:docname="Blason_departement_Haute-Vienne.svg"
   sodipodi:docbase="C:\Documents and Settings\Cyrille Delon\Bureau\blasons\departements\svg"
   inkscape:export-filename="/Users/olivier/Desktop/Blason Rouge/Blason_Vide_3D.png"
   inkscape:export-xdpi="144"
   inkscape:export-ydpi="144"
   inkscape:output_extension="org.inkscape.output.svg.inkscape">
  <metadata
     id="metadata49">
    <rdf:RDF>
      <cc:Work
         rdf:about="">
        <dc:format>image/svg+xml</dc:format>
        <dc:type
           rdf:resource="http://purl.org/dc/dcmitype/StillImage" />
        <dc:title>Gabarit d'un blason en pointe pour le projet Blasons de Wikipédia</dc:title>
        <dc:date>03-AUG-2006</dc:date>
        <dc:creator>
          <cc:Agent>
            <dc:title>Jérôme BLUM (wagner51)</dc:title>
          </cc:Agent>
        </dc:creator>
        <cc:license
           rdf:resource="http://web.resource.org/cc/PublicDomain" />
        <dc:language>fr</dc:language>
        <dc:subject>
          <rdf:Bag>
            <rdf:li>gabarit modèle blason projet wikipédia</rdf:li>
          </rdf:Bag>
        </dc:subject>
      </cc:Work>
      <cc:License
         rdf:about="http://web.resource.org/cc/PublicDomain">
        <cc:permits
           rdf:resource="http://web.resource.org/cc/Reproduction" />
        <cc:permits
           rdf:resource="http://web.resource.org/cc/Distribution" />
        <cc:permits
           rdf:resource="http://web.resource.org/cc/DerivativeWorks" />
      </cc:License>
    </rdf:RDF>
  </metadata>
  <sodipodi:namedview
     inkscape:window-height="744"
     inkscape:window-width="1280"
     inkscape:pageshadow="2"
     inkscape:pageopacity="0.0"
     guidetolerance="10.0"
     gridtolerance="10.0"
     objecttolerance="10.0"
     borderopacity="1.0"
     bordercolor="#666666"
     pagecolor="#ffffff"
     id="base"
     showgrid="false"
     height="660px"
     inkscape:zoom="0.83030303"
     inkscape:cx="300"
     inkscape:cy="381.47543"
     inkscape:window-x="-4"
     inkscape:window-y="-4"
     inkscape:current-layer="layer3" />
  <desc
     id="desc4">Flag of Canton of Valais (Wallis)</desc>
  <defs
     id="defs6">
    <linearGradient
       id="linearGradient2893">
      <stop
         style="stop-color:white;stop-opacity:0.3137255;"
         offset="0"
         id="stop2895" />
      <stop
         id="stop2897"
         offset="0.19"
         style="stop-color:white;stop-opacity:0.25098041;" />
      <stop
         style="stop-color:#6b6b6b;stop-opacity:0.1254902;"
         offset="0.60000002"
         id="stop2901" />
      <stop
         style="stop-color:black;stop-opacity:0.1254902;"
         offset="1"
         id="stop2899" />
    </linearGradient>
    <linearGradient
       id="linearGradient2885">
      <stop
         id="stop2887"
         offset="0"
         style="stop-color:white;stop-opacity:1;" />
      <stop
         style="stop-color:white;stop-opacity:1;"
         offset="0.22857143"
         id="stop2891" />
      <stop
         id="stop2889"
         offset="1"
         style="stop-color:black;stop-opacity:1;" />
    </linearGradient>
    <linearGradient
       id="linearGradient2955">
      <stop
         id="stop2867"
         offset="0"
         style="stop-color:#fd0000;stop-opacity:1;" />
      <stop
         style="stop-color:#e77275;stop-opacity:0.65882355;"
         offset="0.5"
         id="stop2873" />
      <stop
         style="stop-color:black;stop-opacity:0.32291666;"
         offset="1"
         id="stop2959" />
    </linearGradient>
    <radialGradient
       inkscape:collect="always"
       xlink:href="#linearGradient2955"
       id="radialGradient2961"
       cx="225.52438"
       cy="218.90099"
       fx="225.52438"
       fy="218.90099"
       r="300"
       gradientTransform="matrix(-4.167939e-4,2.182867,-1.884232,-3.599562e-4,615.5972,-289.1214)"
       gradientUnits="userSpaceOnUse" />
    <polygon
       id="star"
       transform="scale(53,53)"
       points="0,-1 0.58778525,0.80901699 -0.95105652,-0.30901699 0.95105652,-0.30901699 -0.58778525,0.80901699 0,-1 " />
    <clipPath
       id="clip">
      <path
         d="M 0,-200 L 0,600 L 300,600 L 300,-200 L 0,-200 z "
         id="path10" />
    </clipPath>
    <radialGradient
       inkscape:collect="always"
       xlink:href="#linearGradient2955"
       id="radialGradient1911"
       gradientUnits="userSpaceOnUse"
       gradientTransform="matrix(-4.167939e-4,2.182867,-1.884232,-3.599562e-4,615.5972,-289.1214)"
       cx="225.52438"
       cy="218.90099"
       fx="225.52438"
       fy="218.90099"
       r="300" />
    <radialGradient
       inkscape:collect="always"
       xlink:href="#linearGradient2955"
       id="radialGradient2865"
       gradientUnits="userSpaceOnUse"
       gradientTransform="matrix(0,1.748721,-1.593162,-1.049767e-7,551.7876,-191.2898)"
       cx="225.52438"
       cy="218.90099"
       fx="225.52438"
       fy="218.90099"
       r="300" />
    <radialGradient
       inkscape:collect="always"
       xlink:href="#linearGradient2955"
       id="radialGradient2871"
       gradientUnits="userSpaceOnUse"
       gradientTransform="matrix(0,1.386237,-1.323286,-5.741131e-8,-158.0823,-109.5408)"
       cx="225.52438"
       cy="218.90099"
       fx="225.52438"
       fy="218.90099"
       r="300" />
    <radialGradient
       inkscape:collect="always"
       xlink:href="#linearGradient2893"
       id="radialGradient3163"
       gradientUnits="userSpaceOnUse"
       gradientTransform="matrix(1.353218,0,0,1.348928,-77.62935,-85.74693)"
       cx="221.44487"
       cy="226.33101"
       fx="221.44487"
       fy="226.33101"
       r="300" />
  </defs>
  <g
     inkscape:groupmode="layer"
     id="layer3"
     inkscape:label="Fond écu"
     style="display:inline">
    <g
       id="g15938">
      <path
         id="path15902"
         style="fill:#e20909;fill-opacity:1;fill-rule:evenodd;stroke:none;stroke-width:1px;stroke-linecap:butt;stroke-linejoin:miter;stroke-opacity:1;display:inline"
         d="M 299.98461,659.13989 C 299.98461,659.13989 598.48461,546.81958 598.48461,261.36806 C 598.48461,-24.08353 598.48461,2.8163134 598.48461,2.8163134 L 1.4845932,2.8163134 L 1.4845932,261.36806 C 1.4845932,546.81958 299.98461,659.13989 299.98461,659.13989 z "
         sodipodi:nodetypes="cccccc" />
      <path
         sodipodi:nodetypes="cccccc"
         d="M 299.98461,563.14455 C 299.98461,563.14455 511.25598,483.64684 511.25598,281.61089 C 511.25598,79.57488 511.25598,98.613965 511.25598,98.613965 L 88.713228,98.613965 L 88.713228,281.61089 C 88.713228,483.64684 299.98461,563.14455 299.98461,563.14455 z "
         style="fill:#000000;fill-opacity:1;fill-rule:evenodd;stroke:none;stroke-width:1px;stroke-linecap:butt;stroke-linejoin:miter;stroke-opacity:1;display:inline"
         id="path15705" />
      <path
         id="path2855"
         d="M 104.2997,98.155243 C 107.2099,103.12569 110.36048,107.61861 113.67774,111.73572 C 109.09978,110.05087 104.34791,106.06285 100.03092,103.04333 L 108.39154,121.84366 C 102.43651,117.15737 98.150636,111.64725 93.749405,106.18409 C 92.288682,118.40095 90.923026,131.69819 89.082502,139.73714 C 88.952321,139.28374 88.831893,138.80751 88.706496,138.32158 L 88.706496,182.82305 C 93.117538,187.56722 88.822585,191.64469 89.967223,192.31168 C 97.383385,198.83389 93.391129,204.4945 88.706496,205.87003 L 88.706496,217.65894 C 93.385467,240.14024 102.00537,256.14744 112.10736,268.68522 C 107.5294,267.00037 102.75539,263.01235 98.438425,259.99284 L 106.79904,278.79316 C 100.84401,274.10687 96.55816,268.59676 92.156908,263.1336 C 91.074491,272.18648 90.048016,281.81362 88.839204,289.47616 C 89.596263,315.53905 93.908549,339.50858 100.78294,361.47033 C 106.24333,362.62071 112.18323,369.65148 117.99076,362.97436 C 114.37468,372.81241 107.81792,368.12146 107.35199,369.58765 C 106.51793,371.10918 105.62469,372.27344 104.71994,373.14865 C 111.29736,391.12119 119.62267,407.65726 129.07189,422.84785 C 131.29017,419.92864 132.75364,416.7776 129.71331,412.65144 C 138.52561,418.32654 132.52014,423.68789 133.84938,424.46246 C 138.51117,428.56231 138.66033,432.33498 136.96802,434.90217 C 137.93061,436.28986 138.88516,437.67529 139.86548,439.03824 C 146.53003,433.54471 154.30742,448.11257 161.87292,439.41425 C 158.25684,449.2523 151.70008,444.56135 151.23415,446.02754 C 150.26541,447.79477 149.21716,449.07987 148.15974,449.98666 C 162.53103,468.17041 178.32295,483.95324 194.121,497.47406 C 203.45131,484.9085 211.85138,467.94492 216.52656,444.70046 C 220.90905,469.91164 230.06839,487.36447 240.92274,500.836 C 236.34477,499.15115 231.57076,495.16314 227.2538,492.14362 L 235.61441,510.94394 C 229.65938,506.25766 225.37353,500.74754 220.97228,495.28438 C 220.11394,502.46312 219.29168,509.98717 218.38447,516.62827 C 230.85173,525.69985 242.83972,533.33838 253.61848,539.63102 C 255.13156,534.74664 256.45524,529.55174 257.57761,523.97146 C 258.90432,531.60366 260.68311,538.51202 262.79746,544.82875 C 284.89061,556.99105 299.97786,562.678 299.97786,562.678 C 299.97786,562.678 314.87479,557.05365 336.73802,545.04993 C 339.00057,538.66027 340.96323,531.66592 342.51086,523.97146 C 343.48915,529.59943 344.71955,534.82166 346.13821,539.71949 C 357.51516,533.08496 370.24629,524.93202 383.47344,515.1906 C 382.54944,508.92375 381.79771,502.03322 381.17316,495.54979 C 373.87266,504.18752 368.4903,510.07233 366.79645,510.70064 C 369.63343,504.86775 372.47487,499.08571 375.31185,492.47539 C 370.6728,495.6611 365.88873,499.31194 361.62083,500.5927 C 371.88827,487.76143 381.32265,469.90893 386.39302,444.70046 C 390.29301,467.13583 397.95972,483.42382 407.25028,496.23545 C 422.86469,482.73894 438.43839,467.02932 452.59223,448.96924 C 451.9386,448.20884 451.30132,447.27535 450.69008,446.16025 C 450.22401,444.69404 443.66724,449.38501 440.05135,439.54696 C 447.07624,447.6238 454.29026,435.62243 460.62111,438.26411 C 461.75992,436.67045 462.89081,435.0476 464.00513,433.42026 C 461.22307,426.09526 476.09863,421.6799 469.44616,412.65144 C 472.1842,414.41472 473.48368,416.13982 474.02463,417.71647 C 482.07021,404.14522 489.17261,389.52187 494.97036,373.81219 C 493.86064,372.90082 492.75601,371.57178 491.74113,369.72035 C 491.27506,368.25415 484.71829,372.94512 481.1024,363.10707 C 487.21511,370.13515 493.47993,361.97167 499.17279,361.47033 C 505.81881,340.24104 510.06816,317.14771 511.02805,292.08609 C 509.32323,284.07088 508.10444,273.22969 507.15743,263.39901 C 499.85686,272.03674 494.47464,277.92154 492.78072,278.54986 C 495.6177,272.71696 498.45914,266.93494 501.29612,260.32461 C 496.65707,263.51032 491.87299,267.16116 487.6051,268.44192 C 497.15449,256.50794 505.9799,240.22421 511.24923,217.72529 C 511.24923,213.91242 511.24923,210.80388 511.24923,206.17968 C 510.14758,206.18233 509.09724,205.9199 508.24118,205.3392 C 499.99353,198.31184 508.2685,194.12701 511.24923,188.59585 C 511.24923,185.51119 511.24923,184.70875 511.24923,181.65079 C 511.03789,181.27401 510.78726,180.89433 510.49722,180.50066 C 510.75846,180.66891 511.01347,180.84176 511.24923,181.00937 C 511.24923,157.48323 511.24923,127.47975 511.24923,127.46163 C 510.22876,120.84502 509.42062,113.38772 508.74993,106.42739 C 501.44935,115.06512 496.06714,120.94993 494.37321,121.57824 C 497.21019,115.74535 500.05164,109.98543 502.88862,103.3751 C 498.24957,106.56082 493.44348,110.18954 489.17544,111.4703 C 492.33057,107.52729 495.41251,103.1138 498.31022,98.155243 L 444.03259,98.155243 C 446.94276,103.12569 450.093,107.61861 453.41063,111.73572 C 448.83266,110.05087 444.08079,106.06285 439.76378,103.04333 L 448.12439,121.84366 C 442.16937,117.15737 437.8835,111.64725 433.48226,106.18409 C 432.02155,118.40095 430.65596,131.69819 428.81539,139.73714 C 426.50358,131.68531 424.96119,118.30222 423.81672,106.42739 C 416.51614,115.06512 411.13392,120.94993 409.44,121.57824 C 412.27698,115.74535 415.11842,109.98543 417.9554,103.3751 C 413.31635,106.56082 408.51026,110.18954 404.24223,111.4703 C 407.39736,107.52729 410.4793,103.1138 413.37701,98.155243 L 359.09938,98.155243 C 362.00954,103.12569 365.15979,107.61861 368.47742,111.73572 C 363.89952,110.05087 359.14751,106.06285 354.83056,103.04333 L 363.19118,121.84366 C 357.23615,117.15737 352.95035,111.64725 348.54904,106.18409 C 347.08833,118.40095 345.72225,131.69819 343.88218,139.73714 C 341.57029,131.68531 340.02798,118.30222 338.8835,106.42739 C 331.583,115.06512 326.20064,120.94993 324.50679,121.57824 C 327.34377,115.74535 330.18521,109.98543 333.02219,103.3751 C 328.38314,106.56082 323.57712,110.18954 319.30902,111.4703 C 322.46421,107.52729 325.54609,103.1138 328.4438,98.155243 L 274.16616,98.155243 C 277.06876,103.12569 280.22693,107.61861 283.54421,111.73572 C 278.95866,110.05087 274.21429,106.06285 269.89735,103.04333 L 278.25796,121.84366 C 272.30294,117.15737 268.01706,111.64725 263.61583,106.18409 C 262.15511,118.40095 260.78945,131.69819 258.94893,139.73714 C 256.63706,131.68531 255.09478,118.30222 253.95025,106.42739 C 246.64978,115.06512 241.26745,120.94993 239.57354,121.57824 C 242.41054,115.74535 245.25197,109.98543 248.08898,103.3751 C 243.44994,106.56082 238.64389,110.18954 234.3758,111.4703 C 237.53097,107.52729 240.61296,103.1138 243.51055,98.155243 L 189.23291,98.155243 C 192.14312,103.12569 195.29369,107.61861 198.61096,111.73572 C 194.03299,110.05087 189.28112,106.06285 184.96414,103.04333 L 193.32475,121.84366 C 187.36972,117.15737 183.08385,111.64725 178.68262,106.18409 C 177.22189,118.40095 175.85624,131.69819 174.01571,139.73714 C 171.70385,131.68531 170.16157,118.30222 169.01704,106.42739 C 161.71656,115.06512 156.33423,120.94993 154.64032,121.57824 C 157.47733,115.74535 160.31876,109.98543 163.15576,103.3751 C 158.51673,106.56082 153.71068,110.18954 149.44259,111.4703 C 152.59775,107.52729 155.67975,103.1138 158.57733,98.155243 L 104.2997,98.155243 z M 129.71331,101.22965 C 138.52561,106.90476 132.52014,112.26611 133.84938,113.04068 C 144.13746,122.08862 132.4705,129.46891 127.45727,126.0682 C 115.7023,116.05247 137.51048,111.81154 129.71331,101.22965 z M 214.64652,101.22965 C 223.45883,106.90476 217.45336,112.26611 218.7826,113.04068 C 229.07067,122.08862 217.40371,129.46891 212.39049,126.0682 C 200.63552,116.05247 222.44369,111.81154 214.64652,101.22965 z M 299.57974,101.22965 C 308.39198,106.90476 302.38629,112.26611 303.71584,113.04068 C 314.0038,122.08862 302.33688,129.46891 297.3237,126.0682 C 285.56866,116.05247 307.37689,111.81154 299.57974,101.22965 z M 384.51295,101.22965 C 393.3252,106.90476 387.3195,112.26611 388.64906,113.04068 C 398.93702,122.08862 387.2701,129.46891 382.25691,126.0682 C 370.50187,116.05247 392.3101,111.81154 384.51295,101.22965 z M 469.44616,101.22965 C 478.25848,106.90476 472.25271,112.26611 473.58227,113.04068 C 483.87023,122.08862 472.20338,129.46891 467.19013,126.0682 C 455.43516,116.05247 477.24332,111.81154 469.44616,101.22965 z M 143.55919,126.33362 C 149.31682,126.61521 155.67289,135.12086 161.87292,127.99247 C 158.25684,137.83052 151.70008,133.13956 151.23415,134.60576 C 144.64839,146.61981 134.89766,136.85605 137.12285,131.2217 C 139.15073,127.38074 141.30621,126.22343 143.55919,126.33362 z M 228.49241,126.33362 C 234.25004,126.61521 240.6061,135.12086 246.80613,127.99247 C 243.19005,137.83052 236.63329,133.13956 236.16736,134.60576 C 229.58161,146.61981 219.83087,136.85605 222.05606,131.2217 C 224.08394,127.38074 226.23942,126.22343 228.49241,126.33362 z M 313.42562,126.33362 C 319.18324,126.61521 325.53929,135.12086 331.73935,127.99247 C 328.12324,137.83052 321.56619,133.13956 321.10061,134.60576 C 314.51475,146.61981 304.7635,136.85605 306.98931,131.2217 C 309.01716,127.38074 311.17263,126.22343 313.42562,126.33362 z M 398.35883,126.33362 C 404.11646,126.61521 410.4725,135.12086 416.67256,127.99247 C 413.05646,137.83052 406.4994,133.13956 406.03382,134.60576 C 399.44796,146.61981 389.69671,136.85605 391.92252,131.2217 C 393.95038,127.38074 396.10584,126.22343 398.35883,126.33362 z M 483.29205,126.33362 C 489.04967,126.61521 495.40572,135.12086 501.60577,127.99247 C 497.98967,137.83052 491.43261,133.13956 490.96704,134.60576 C 484.38117,146.61981 474.63049,136.85605 476.85574,131.2217 C 478.88359,127.38074 481.03905,126.22343 483.29205,126.33362 z M 118.63218,126.46632 C 120.88516,126.35613 123.04065,127.49133 125.06853,131.33229 C 127.29371,136.96664 117.54298,146.75252 110.95723,134.73846 C 110.49128,133.27227 103.93454,137.96323 100.31846,128.12518 C 106.51851,135.25357 112.87456,126.74792 118.63218,126.46632 z M 203.56539,126.46632 C 205.81838,126.35613 207.97386,127.49133 210.00174,131.33229 C 212.22692,136.96664 202.4762,146.75252 195.89044,134.73846 C 195.42449,133.27227 188.86775,137.96323 185.25167,128.12518 C 191.45172,135.25357 197.80777,126.74792 203.56539,126.46632 z M 288.49864,126.46632 C 290.74718,126.35613 292.90703,127.49133 294.93495,131.33229 C 297.16013,136.96664 287.40945,146.75252 280.82365,134.73846 C 280.35772,133.27227 273.80095,137.96323 270.18488,128.12518 C 276.3849,135.25357 282.74095,126.74792 288.49864,126.46632 z M 373.43186,126.46632 C 375.68478,126.35613 377.84024,127.49133 379.86817,131.33229 C 382.09335,136.96663 372.34266,146.75252 365.75687,134.73846 C 365.29094,133.27227 358.73402,137.96323 355.11813,128.12518 C 361.31804,135.25357 367.67416,126.74792 373.43186,126.46632 z M 458.36507,126.46632 C 460.61799,126.35613 462.77346,127.49133 464.80138,131.33229 C 467.02656,136.96663 457.2758,146.75252 450.69008,134.73846 C 450.22401,133.27227 443.66724,137.96323 440.05135,128.12518 C 446.25126,135.25357 452.60738,126.74792 458.36507,126.46632 z M 131.59334,133.27867 C 135.97583,158.48986 145.13517,175.94269 155.98952,189.41422 C 151.41156,187.72937 146.63755,183.74135 142.32059,180.72184 L 150.6812,199.52216 C 144.72617,194.83588 140.44032,189.32576 136.03907,183.8626 C 134.57834,196.07945 133.21271,209.3767 131.37216,217.41564 C 129.0603,209.36381 127.51804,196.00284 126.37349,184.12801 C 119.07301,192.76574 113.69066,198.65054 111.99677,199.27886 C 114.83378,193.44596 117.67523,187.66393 120.51221,181.05361 C 115.87318,184.23932 111.08923,187.89016 106.82116,189.17092 C 117.08862,176.33965 126.52314,158.48715 131.59334,133.27867 z M 216.52656,133.27867 C 220.90905,158.48986 230.06839,175.94269 240.92274,189.41422 C 236.34477,187.72937 231.57076,183.74135 227.2538,180.72184 L 235.61441,199.52216 C 229.65938,194.83588 225.37353,189.32576 220.97228,183.8626 C 219.51156,196.07945 218.14592,209.3767 216.30538,217.41564 C 213.99351,209.36381 212.45125,196.00284 211.3067,184.12801 C 204.00623,192.76574 198.62387,198.65054 196.92999,199.27886 C 199.76699,193.44596 202.60845,187.66393 205.44543,181.05361 C 200.80639,184.23932 196.02244,187.89016 191.75437,189.17092 C 202.02183,176.33965 211.45636,158.48715 216.52656,133.27867 z M 301.45981,133.27867 C 305.84236,158.48986 315.00163,175.94269 325.85595,189.41422 C 321.27805,187.72937 316.50395,183.74135 312.18701,180.72184 L 320.54763,199.52216 C 314.5926,194.83588 310.3068,189.32576 305.90549,183.8626 C 304.44478,196.07945 303.0787,209.3767 301.23863,217.41564 C 298.92667,209.36381 297.38443,196.00284 296.23995,184.12801 C 288.93945,192.76574 283.55709,198.65054 281.86324,199.27886 C 284.69569,193.44596 287.54166,187.66393 290.37864,181.05361 C 285.73959,184.23932 280.95565,187.89016 276.68762,189.17092 C 286.95059,176.33965 296.38943,158.48715 301.45981,133.27867 z M 386.39302,133.27867 C 390.77557,158.48986 399.93484,175.94269 410.78916,189.41422 C 406.21126,187.72937 401.43717,183.74135 397.12023,180.72184 L 405.48084,199.52216 C 399.52582,194.83588 395.24002,189.32576 390.83871,183.8626 C 389.378,196.07945 388.01192,209.3767 386.17184,217.41564 C 383.85989,209.36381 382.31764,196.00284 381.17316,184.12801 C 373.87266,192.76574 368.4903,198.65054 366.79645,199.27886 C 369.63343,193.44596 372.47487,187.66393 375.31185,181.05361 C 370.6728,184.23932 365.88873,187.89016 361.62083,189.17092 C 371.88827,176.33965 381.32265,158.48715 386.39302,133.27867 z M 471.32623,133.27867 C 475.70871,158.48986 484.86798,175.94269 495.72238,189.41422 C 491.14441,187.72937 486.37045,183.74135 482.05344,180.72184 L 490.41405,199.52216 C 484.45903,194.83588 480.17323,189.32576 475.77192,183.8626 C 474.31121,196.07945 472.94563,209.3767 471.10505,217.41564 C 468.79324,209.36381 467.25085,196.00284 466.10638,184.12801 C 458.8058,192.76574 453.42358,198.65054 451.72966,199.27886 C 454.56664,193.44596 457.40808,187.66393 460.24507,181.05361 C 455.60601,184.23932 450.82194,187.89016 446.55404,189.17092 C 456.82141,176.33965 466.25586,158.48715 471.32623,133.27867 z M 170.76436,180.50066 C 179.57667,186.17575 173.57119,191.53711 174.90044,192.31168 C 185.18851,201.35962 173.52155,208.73991 168.50833,205.3392 C 156.75336,195.32347 178.56153,191.08254 170.76436,180.50066 z M 255.69758,180.50066 C 264.50988,186.17575 258.50441,191.53711 259.83365,192.31168 C 270.12172,201.35962 258.45476,208.73991 253.44154,205.3392 C 241.68657,195.32347 263.49474,191.08254 255.69758,180.50066 z M 340.63079,180.50066 C 349.44304,186.17575 343.43734,191.53711 344.7669,192.31168 C 355.05486,201.35962 343.38794,208.73991 338.37475,205.3392 C 326.61971,195.32347 348.42794,191.08254 340.63079,180.50066 z M 425.564,180.50066 C 434.37632,186.17575 428.37055,191.53711 429.70011,192.31168 C 439.98807,201.35962 428.32122,208.73991 423.30797,205.3392 C 411.553,195.32347 433.36116,191.08254 425.564,180.50066 z M 99.677035,205.60461 C 105.43466,205.88621 111.79073,214.39185 117.99076,207.26347 C 114.37468,217.10152 107.81792,212.41057 107.35199,213.87676 C 100.76623,225.89081 91.015497,216.12705 93.240691,210.4927 C 95.268574,206.65174 97.424047,205.49443 99.677035,205.60461 z M 184.61025,205.60461 C 190.36788,205.88621 196.72394,214.39185 202.92397,207.26347 C 199.30789,217.10152 192.75113,212.41057 192.2852,213.87676 C 185.69945,225.89081 175.94871,216.12705 178.1739,210.4927 C 180.20178,206.65174 182.35726,205.49443 184.61025,205.60461 z M 269.54346,205.60461 C 275.30108,205.88621 281.65713,214.39185 287.85719,207.26347 C 284.24108,217.10152 277.68431,212.41057 277.21845,213.87676 C 270.63069,225.89081 260.88192,216.12705 263.10712,210.4927 C 265.135,206.65174 267.29048,205.49443 269.54346,205.60461 z M 354.47667,205.60461 C 360.2343,205.88621 366.59034,214.39185 372.7904,207.26347 C 369.1743,217.10152 362.61724,212.41057 362.15166,213.87676 C 355.5658,225.89081 345.81455,216.12705 348.04036,210.4927 C 350.06822,206.65174 352.22368,205.49443 354.47667,205.60461 z M 439.40989,205.60461 C 445.16751,205.88621 451.52356,214.39185 457.72361,207.26347 C 454.10751,217.10152 447.55045,212.41057 447.08488,213.87676 C 440.49901,225.89081 430.74833,216.12705 432.97358,210.4927 C 435.00143,206.65174 437.15689,205.49443 439.40989,205.60461 z M 159.68323,205.73732 C 161.93622,205.62714 164.0917,206.76233 166.11958,210.60329 C 168.34476,216.23763 158.59404,226.02351 152.00828,214.00946 C 151.54233,212.54327 144.98559,217.23423 141.36951,207.39617 C 147.56956,214.52457 153.92561,206.01892 159.68323,205.73732 z M 244.61645,205.73732 C 246.86943,205.62714 249.02491,206.76233 251.05279,210.60329 C 253.27797,216.23763 243.52725,226.02351 236.94149,214.00946 C 236.47554,212.54327 229.9188,217.23423 226.30272,207.39617 C 232.50278,214.52457 238.85883,206.01892 244.61645,205.73732 z M 329.5497,205.73732 C 331.80262,205.62714 333.95808,206.76233 335.98601,210.60329 C 338.21119,216.23763 328.4605,226.02351 321.87471,214.00946 C 321.40878,212.54327 314.85186,217.23423 311.23597,207.39617 C 317.43588,214.52457 323.792,206.01892 329.5497,205.73732 z M 414.48291,205.73732 C 416.73583,205.62714 418.8913,206.76233 420.91922,210.60329 C 423.1444,216.23763 413.39364,226.02351 406.80792,214.00946 C 406.34185,212.54327 399.78508,217.23423 396.16919,207.39617 C 402.3691,214.52457 408.72522,206.01892 414.48291,205.73732 z M 499.41612,205.73732 C 501.66905,205.62714 503.82451,206.76233 505.85243,210.60329 C 508.07761,216.23763 498.32685,226.02351 491.74113,214.00946 C 491.27506,212.54327 484.71829,217.23423 481.1024,207.39617 C 487.30231,214.52457 493.65843,206.01892 499.41612,205.73732 z M 172.6444,212.54967 C 177.02689,237.76086 186.18623,255.21369 197.04058,268.68522 C 192.46261,267.00037 187.6886,263.01235 183.37164,259.99284 L 191.73225,278.79316 C 185.77722,274.10687 181.49137,268.59676 177.09012,263.1336 C 175.6294,275.35045 174.26376,288.6477 172.42322,296.68664 C 170.11135,288.63481 168.56909,275.27384 167.42454,263.39901 C 160.12407,272.03674 154.74171,277.92154 153.04783,278.54986 C 155.88483,272.71696 158.72628,266.93494 161.56327,260.32461 C 156.92423,263.51032 152.14028,267.16116 147.87221,268.44192 C 158.13967,255.61065 167.5742,237.75815 172.6444,212.54967 z M 257.57761,212.54967 C 261.9601,237.76086 271.11948,255.21369 281.97379,268.68522 C 277.39589,267.00037 272.62182,263.01235 268.30485,259.99284 L 276.66546,278.79316 C 270.71046,274.10687 266.42459,268.59676 262.02333,263.1336 C 260.56261,275.35045 259.19697,288.6477 257.35643,296.68664 C 255.04456,288.63481 253.5023,275.27384 252.35776,263.39901 C 245.05728,272.03674 239.67493,277.92154 237.98104,278.54986 C 240.81804,272.71696 243.6595,266.93494 246.49648,260.32461 C 241.85744,263.51032 237.07349,267.16116 232.80542,268.44192 C 243.07289,255.61065 252.50741,237.75815 257.57761,212.54967 z M 342.51086,212.54967 C 346.89341,237.76086 356.05268,255.21369 366.907,268.68522 C 362.3291,267.00037 357.55501,263.01235 353.23806,259.99284 L 361.59868,278.79316 C 355.64366,274.10687 351.35786,268.59676 346.95655,263.1336 C 345.49584,275.35045 344.12976,288.6477 342.28968,296.68664 C 339.97773,288.63481 338.43548,275.27384 337.291,263.39901 C 329.9905,272.03674 324.60814,277.92154 322.91429,278.54986 C 325.75127,272.71696 328.59271,266.93494 331.42969,260.32461 C 326.79064,263.51032 322.00657,267.16116 317.73867,268.44192 C 328.00611,255.61065 337.44049,237.75815 342.51086,212.54967 z M 427.44407,212.54967 C 431.82655,237.76086 440.98582,255.21369 451.84022,268.68522 C 447.26225,267.00037 442.48829,263.01235 438.17128,259.99284 L 446.53189,278.79316 C 440.57687,274.10687 436.29107,268.59676 431.88976,263.1336 C 430.42905,275.35045 429.06347,288.6477 427.22289,296.68664 C 424.91108,288.63481 423.36869,275.27384 422.22422,263.39901 C 414.92364,272.03674 409.54142,277.92154 407.8475,278.54986 C 410.68448,272.71696 413.52592,266.93494 416.36291,260.32461 C 411.72385,263.51032 406.93978,267.16116 402.67188,268.44192 C 412.93925,255.61065 422.3737,237.75815 427.44407,212.54967 z M 129.71331,256.94055 C 138.52561,262.61564 132.52014,267.977 133.84938,268.75157 C 144.13746,277.79951 132.4705,285.1798 127.45727,281.77909 C 115.7023,271.76336 137.51048,267.52243 129.71331,256.94055 z M 214.64652,256.94055 C 223.45883,262.61564 217.45336,267.977 218.7826,268.75157 C 229.07067,277.79951 217.40371,285.1798 212.39049,281.77909 C 200.63552,271.76336 222.44369,267.52243 214.64652,256.94055 z M 299.57974,256.94055 C 308.39198,262.61564 302.38629,267.977 303.71584,268.75157 C 314.0038,277.79951 302.33688,285.1798 297.3237,281.77909 C 285.56866,271.76336 307.37689,267.52243 299.57974,256.94055 z M 384.51295,256.94055 C 393.3252,262.61564 387.3195,267.977 388.64906,268.75157 C 398.93702,277.79951 387.2701,285.1798 382.25691,281.77909 C 370.50187,271.76336 392.3101,267.52243 384.51295,256.94055 z M 469.44616,256.94055 C 478.25848,262.61564 472.25271,267.977 473.58227,268.75157 C 483.87023,277.79951 472.20338,285.1798 467.19013,281.77909 C 455.43516,271.76336 477.24332,267.52243 469.44616,256.94055 z M 143.55919,282.04451 C 149.31682,282.3261 155.67289,290.83175 161.87292,283.70336 C 158.25684,293.54141 151.70008,288.85046 151.23415,290.31665 C 144.64839,302.3307 134.89766,292.56693 137.12285,286.93259 C 139.15073,283.09163 141.30621,281.93432 143.55919,282.04451 z M 228.49241,282.04451 C 234.25004,282.3261 240.6061,290.83175 246.80613,283.70336 C 243.19005,293.54141 236.63329,288.85046 236.16736,290.31665 C 229.58161,302.3307 219.83087,292.56693 222.05606,286.93259 C 224.08394,283.09163 226.23942,281.93432 228.49241,282.04451 z M 313.42562,282.04451 C 319.18324,282.3261 325.53929,290.83175 331.73935,283.70336 C 328.12324,293.54141 321.56619,288.85046 321.10061,290.31665 C 314.51475,302.3307 304.7635,292.56693 306.98931,286.93259 C 309.01716,283.09163 311.17263,281.93432 313.42562,282.04451 z M 398.35883,282.04451 C 404.11646,282.3261 410.4725,290.83175 416.67256,283.70336 C 413.05646,293.54141 406.4994,288.85046 406.03382,290.31665 C 399.44796,302.3307 389.69685,292.56693 391.92252,286.93259 C 393.95038,283.09163 396.10584,281.93432 398.35883,282.04451 z M 483.29205,282.04451 C 489.04967,282.3261 495.40572,290.83175 501.60577,283.70336 C 497.98967,293.54141 491.43261,288.85046 490.96704,290.31665 C 484.38117,302.3307 474.63049,292.56693 476.85574,286.93259 C 478.88359,283.09163 481.03905,281.93432 483.29205,282.04451 z M 118.63218,282.17721 C 120.88516,282.06703 123.04065,283.20222 125.06853,287.04318 C 127.29371,292.67752 117.54298,302.46341 110.95723,290.44936 C 110.49128,288.98315 103.93454,293.67412 100.31846,283.83607 C 106.51851,290.96445 112.87456,282.45881 118.63218,282.17721 z M 203.56539,282.17721 C 205.81838,282.06703 207.97386,283.20222 210.00174,287.04318 C 212.22692,292.67752 202.4762,302.46341 195.89044,290.44936 C 195.42449,288.98315 188.86775,293.67412 185.25167,283.83607 C 191.45172,290.96445 197.80777,282.45881 203.56539,282.17721 z M 288.49864,282.17721 C 290.74959,282.06703 292.90703,283.20222 294.93495,287.04318 C 297.16013,292.67752 287.40945,302.46341 280.82365,290.44936 C 280.35772,288.98315 273.80095,293.67412 270.18488,283.83607 C 276.3849,290.96445 282.74095,282.45881 288.49864,282.17721 z M 373.43186,282.17721 C 375.68478,282.06703 377.84024,283.20222 379.86817,287.04318 C 382.09335,292.67752 372.34266,302.46341 365.75687,290.44936 C 365.29094,288.98315 358.73402,293.67412 355.11813,283.83607 C 361.31804,290.96445 367.67416,282.45881 373.43186,282.17721 z M 458.36507,282.17721 C 460.61799,282.06703 462.77346,283.20222 464.80138,287.04318 C 467.02656,292.67752 457.2758,302.46341 450.69008,290.44936 C 450.22401,288.98315 443.66724,293.67412 440.05135,283.83607 C 446.25126,290.96445 452.60738,282.45881 458.36507,282.17721 z M 131.59334,288.98957 C 135.97583,314.20075 145.13517,331.65358 155.98952,345.12511 C 151.41156,343.44026 146.63755,339.45225 142.32059,336.43273 L 150.6812,355.23305 C 144.72617,350.54677 140.44032,345.03665 136.03907,339.57349 C 134.57834,351.79034 133.21271,365.08759 131.37216,373.12653 C 129.0603,365.0747 127.51804,351.71373 126.37349,339.8389 C 119.07301,348.47663 113.69066,354.36144 111.99677,354.98975 C 114.83378,349.15686 117.67523,343.37481 120.51221,336.7645 C 115.87318,339.95021 111.08923,343.60105 106.82116,344.88181 C 117.08862,332.05054 126.52314,314.19804 131.59334,288.98957 z M 216.52656,288.98957 C 220.90905,314.20075 230.06839,331.65358 240.92274,345.12511 C 236.34477,343.44026 231.57076,339.45225 227.2538,336.43273 L 235.61441,355.23305 C 229.65938,350.54677 225.37353,345.03665 220.97228,339.57349 C 219.51156,351.79034 218.14592,365.08759 216.30538,373.12653 C 213.99351,365.0747 212.45125,351.71373 211.3067,339.8389 C 204.00623,348.47663 198.62387,354.36144 196.92999,354.98975 C 199.76699,349.15686 202.60845,343.37481 205.44543,336.7645 C 200.80639,339.95021 196.02244,343.60105 191.75437,344.88181 C 202.02183,332.05054 211.45636,314.19804 216.52656,288.98957 z M 301.45981,288.98957 C 305.84236,314.20075 315.00163,331.65358 325.85595,345.12511 C 321.27805,343.44026 316.50395,339.45225 312.18701,336.43273 L 320.54763,355.23305 C 314.5926,350.54677 310.3068,345.03665 305.90549,339.57349 C 304.44478,351.79034 303.0787,365.08759 301.23863,373.12653 C 298.92667,365.0747 297.38443,351.71373 296.23995,339.8389 C 288.93945,348.47663 283.55709,354.36144 281.86324,354.98975 C 284.69802,349.15686 287.54166,343.37481 290.37864,336.7645 C 285.73959,339.95021 280.95565,343.60105 276.68762,344.88181 C 286.95293,332.05054 296.38943,314.19804 301.45981,288.98957 z M 386.39302,288.98957 C 390.77557,314.20075 399.93484,331.65358 410.78916,345.12511 C 406.21126,343.44026 401.43717,339.45225 397.12023,336.43273 L 405.48084,355.23305 C 399.52582,350.54677 395.24002,345.03665 390.83871,339.57349 C 389.378,351.79034 388.01192,365.08759 386.17184,373.12653 C 383.85989,365.0747 382.31764,351.71373 381.17316,339.8389 C 373.87266,348.47663 368.4903,354.36144 366.79645,354.98975 C 369.63343,349.15686 372.47487,343.37481 375.31185,336.7645 C 370.6728,339.95021 365.88873,343.60105 361.62083,344.88181 C 371.88827,332.05054 381.32265,314.19804 386.39302,288.98957 z M 471.32623,288.98957 C 475.70871,314.20075 484.86798,331.65358 495.72238,345.12511 C 491.14441,343.44026 486.37045,339.45225 482.05344,336.43273 L 490.41405,355.23305 C 484.45903,350.54677 480.17323,345.03665 475.77192,339.57349 C 474.31121,351.79034 472.94563,365.08759 471.10505,373.12653 C 468.79324,365.0747 467.25085,351.71373 466.10638,339.8389 C 458.8058,348.47663 453.42358,354.36144 451.72966,354.98975 C 454.56664,349.15686 457.40808,343.37481 460.24507,336.7645 C 455.60601,339.95021 450.82194,343.60105 446.55404,344.88181 C 456.82141,332.05054 466.25586,314.19804 471.32623,288.98957 z M 170.76436,336.21155 C 179.57667,341.88664 173.57119,347.248 174.90044,348.02257 C 185.18851,357.07051 173.52155,364.4508 168.50833,361.05009 C 156.75336,351.03436 178.56153,346.79343 170.76436,336.21155 z M 255.69758,336.21155 C 264.50988,341.88664 258.50441,347.248 259.83365,348.02257 C 270.12172,357.07051 258.45476,364.4508 253.44154,361.05009 C 241.68657,351.03436 263.49474,346.79343 255.69758,336.21155 z M 340.63079,336.21155 C 349.44304,341.88664 343.43734,347.248 344.7669,348.02257 C 355.05486,357.07051 343.38794,364.4508 338.37475,361.05009 C 326.61971,351.03436 348.42794,346.79343 340.63079,336.21155 z M 425.564,336.21155 C 434.37632,341.88664 428.37055,347.248 429.70011,348.02257 C 439.98807,357.07051 428.32122,364.4508 423.30797,361.05009 C 411.553,351.03436 433.36116,346.79343 425.564,336.21155 z M 184.61025,361.31551 C 190.36788,361.5971 196.72394,370.10275 202.92397,362.97436 C 199.30789,372.81241 192.75113,368.12146 192.2852,369.58765 C 185.69945,381.6017 175.94871,371.83793 178.1739,366.20359 C 180.20178,362.36263 182.35726,361.20532 184.61025,361.31551 z M 269.54346,361.31551 C 275.30108,361.5971 281.65713,370.10275 287.85719,362.97436 C 284.24108,372.81241 277.68431,368.12146 277.21845,369.58765 C 270.63158,381.6017 260.88192,371.83793 263.10712,366.20359 C 265.135,362.36263 267.29048,361.20532 269.54346,361.31551 z M 354.47667,361.31551 C 360.2343,361.5971 366.59034,370.10275 372.7904,362.97436 C 369.1743,372.81241 362.61724,368.12146 362.15166,369.58765 C 355.5658,381.6017 345.81462,371.83793 348.04036,366.20359 C 350.06822,362.36263 352.22368,361.20532 354.47667,361.31551 z M 439.40989,361.31551 C 445.16751,361.5971 451.52356,370.10275 457.72361,362.97436 C 454.10751,372.81241 447.55045,368.12146 447.08488,369.58765 C 440.49901,381.6017 430.74833,371.83793 432.97358,366.20359 C 435.00143,362.36263 437.15689,361.20532 439.40989,361.31551 z M 159.68323,361.44821 C 161.93622,361.33803 164.0917,362.47322 166.11958,366.31418 C 168.34476,371.94852 158.59404,381.73441 152.00828,369.72035 C 151.54233,368.25415 144.98559,372.94512 141.36951,363.10707 C 147.56956,370.23545 153.92561,361.72981 159.68323,361.44821 z M 244.61645,361.44821 C 246.86943,361.33803 249.02491,362.47322 251.05279,366.31418 C 253.27797,371.94852 243.52725,381.73441 236.94149,369.72035 C 236.47554,368.25415 229.9188,372.94512 226.30272,363.10707 C 232.50278,370.23545 238.85883,361.72981 244.61645,361.44821 z M 329.5497,361.44821 C 331.80262,361.33803 333.95808,362.47322 335.98601,366.31418 C 338.21119,371.94852 328.4605,381.73441 321.87471,369.72035 C 321.40878,368.25415 314.85186,372.94512 311.23597,363.10707 C 317.43588,370.23545 323.792,361.72981 329.5497,361.44821 z M 414.48291,361.44821 C 416.73583,361.33803 418.8913,362.47322 420.91922,366.31418 C 423.1444,371.94852 413.39364,381.73441 406.80792,369.72035 C 406.34185,368.25415 399.78508,372.94512 396.16919,363.10707 C 402.3691,370.23545 408.72522,361.72981 414.48291,361.44821 z M 172.6444,368.26056 C 177.02689,393.47175 186.18623,410.92458 197.04058,424.39611 C 192.46261,422.71126 187.6886,418.72324 183.37164,415.70373 L 191.73225,434.50405 C 185.77722,429.81777 181.49137,424.30765 177.09012,418.84449 C 175.6294,431.06134 174.26376,444.35859 172.42322,452.39753 C 170.11135,444.3457 168.56909,430.98473 167.42454,419.1099 C 160.12407,427.74763 154.74171,433.63243 153.04783,434.26075 C 155.88483,428.42785 158.72628,422.64581 161.56327,416.0355 C 156.92423,419.22121 152.14028,422.87205 147.87221,424.15281 C 158.13967,411.32154 167.5742,393.46904 172.6444,368.26056 z M 257.57761,368.26056 C 261.9601,393.47175 271.11948,410.92458 281.97379,424.39611 C 277.39589,422.71126 272.62182,418.72324 268.30485,415.70373 L 276.66546,434.50405 C 270.71046,429.81777 266.42459,424.30765 262.02333,418.84449 C 260.56261,431.06134 259.19697,444.35859 257.35643,452.39753 C 255.04456,444.3457 253.5023,430.98473 252.35776,419.1099 C 245.05728,427.74763 239.67493,433.63243 237.98104,434.26075 C 240.81804,428.42785 243.6595,422.64581 246.49648,416.0355 C 241.85744,419.22121 237.07349,422.87205 232.80542,424.15281 C 243.07289,411.32154 252.50741,393.46904 257.57761,368.26056 z M 342.51086,368.26056 C 346.89341,393.47175 356.05268,410.92458 366.907,424.39611 C 362.3291,422.71126 357.55501,418.72324 353.23806,415.70373 L 361.59868,434.50405 C 355.64366,429.81777 351.35786,424.30765 346.95655,418.84449 C 345.49584,431.06134 344.12976,444.35859 342.28968,452.39753 C 339.97773,444.3457 338.43548,430.98473 337.291,419.1099 C 329.9905,427.74763 324.60814,433.63243 322.91429,434.26075 C 325.75127,428.42785 328.59271,422.64581 331.42969,416.0355 C 326.79064,419.22121 322.00657,422.87205 317.73867,424.15281 C 328.00611,411.32154 337.44049,393.46904 342.51086,368.26056 z M 427.44407,368.26056 C 431.82655,393.47175 440.98582,410.92458 451.84022,424.39611 C 447.26225,422.71126 442.48829,418.72324 438.17128,415.70373 L 446.53189,434.50405 C 440.57687,429.81777 436.29107,424.30765 431.88976,418.84449 C 430.42905,431.06134 429.06347,444.35859 427.22289,452.39753 C 424.91108,444.3457 423.36869,430.98473 422.22422,419.1099 C 414.92364,427.74763 409.54142,433.63243 407.8475,434.26075 C 410.68448,428.42785 413.52592,422.64581 416.36291,416.0355 C 411.72385,419.22121 406.93978,422.87205 402.67188,424.15281 C 412.93925,411.32154 422.3737,393.46904 427.44407,368.26056 z M 214.64652,412.65144 C 223.45883,418.32654 217.45336,423.68789 218.7826,424.46246 C 229.07067,433.5104 217.40371,440.89069 212.39049,437.48998 C 200.63552,427.47425 222.44369,423.23333 214.64652,412.65144 z M 299.57974,412.65144 C 308.39198,418.32654 302.38643,423.68789 303.71584,424.46246 C 314.0038,433.5104 302.33688,440.89069 297.3237,437.48998 C 285.56866,427.47425 307.37689,423.23333 299.57974,412.65144 z M 384.51295,412.65144 C 393.3252,418.32654 387.3195,423.68789 388.64906,424.46246 C 398.93702,433.5104 387.2701,440.89069 382.25691,437.48998 C 370.50187,427.47425 392.3101,423.23333 384.51295,412.65144 z M 228.49241,437.7554 C 234.25004,438.03699 240.6061,446.54264 246.80613,439.41425 C 243.19005,449.2523 236.63329,444.56135 236.16736,446.02754 C 229.58161,458.0416 219.83087,448.27782 222.05606,442.64348 C 224.08394,438.80252 226.23942,437.64521 228.49241,437.7554 z M 313.42562,437.7554 C 319.18324,438.03699 325.53929,446.54264 331.73935,439.41425 C 328.12324,449.2523 321.56654,444.56135 321.10061,446.02754 C 314.51475,458.0416 304.76399,448.27782 306.98931,442.64348 C 309.01716,438.80252 311.17263,437.64521 313.42562,437.7554 z M 398.35883,437.7554 C 404.11646,438.03699 410.4725,446.54264 416.67256,439.41425 C 413.05646,449.2523 406.4994,444.56135 406.03382,446.02754 C 399.44796,458.0416 389.69671,448.27782 391.92252,442.64348 C 393.95038,438.80252 396.10584,437.64521 398.35883,437.7554 z M 203.56539,437.88811 C 205.81838,437.77792 207.97386,438.91311 210.00174,442.75407 C 212.22692,448.38841 202.4762,458.1743 195.89044,446.16025 C 195.42449,444.69404 188.86775,449.38501 185.25167,439.54696 C 191.45172,446.67534 197.80777,438.1697 203.56539,437.88811 z M 288.49864,437.88811 C 290.75143,437.77792 292.90703,438.91311 294.93495,442.75407 C 297.16013,448.38841 287.40945,458.1743 280.82365,446.16025 C 280.35772,444.69404 273.80095,449.38501 270.18488,439.54696 C 276.3849,446.67534 282.74095,438.1697 288.49864,437.88811 z M 373.43186,437.88811 C 375.68478,437.77792 377.84024,438.91311 379.86817,442.75407 C 382.09335,448.38841 372.34266,458.1743 365.75687,446.16025 C 365.29094,444.69404 358.73402,449.38501 355.11813,439.54696 C 361.31804,446.67534 367.67416,438.1697 373.43186,437.88811 z M 301.45981,444.70046 C 305.84236,469.91164 315.00163,487.36447 325.85595,500.836 C 321.27805,499.15115 316.50395,495.16314 312.18701,492.14362 L 320.54763,510.94394 C 314.5926,506.25766 310.3068,500.74754 305.90549,495.28438 C 304.44478,507.50124 303.0787,520.7985 301.23863,528.83742 C 298.92667,520.78559 297.38443,507.42462 296.23995,495.54979 C 288.93945,504.18752 283.55709,510.07233 281.86324,510.70064 C 284.69951,504.86775 287.54166,499.08571 290.37864,492.47539 C 285.73959,495.6611 280.95565,499.31194 276.68762,500.5927 C 286.95442,487.76143 296.38943,469.90893 301.45981,444.70046 z M 255.69758,491.92244 C 264.50988,497.59753 258.50441,502.95889 259.83365,503.73346 C 270.12172,512.7814 258.45476,520.16169 253.44154,516.76098 C 241.68657,506.74525 263.49474,502.50432 255.69758,491.92244 z M 340.63079,491.92244 C 349.44304,497.59753 343.43734,502.95889 344.7669,503.73346 C 355.05486,512.7814 343.38794,520.16169 338.37475,516.76098 C 326.61971,506.74525 348.42794,502.50432 340.63079,491.92244 z M 397.12023,492.14362 L 401.21209,501.34472 C 402.56614,500.22288 403.92663,499.09352 405.28181,497.93854 C 402.49048,496.1282 399.72336,493.9644 397.12023,492.14362 z M 205.44543,492.47539 C 202.2057,494.70017 198.89577,497.13536 195.73561,498.84538 C 197.38677,500.24256 199.04142,501.61126 200.69005,502.95933 C 202.28091,499.62058 203.85459,496.18213 205.44543,492.47539 z M 390.83871,495.28438 C 390.20992,500.5435 389.5967,505.94314 388.95871,511.09877 C 391.97844,508.79441 395.02429,506.40293 398.07134,503.93253 C 395.52022,501.11845 393.18732,498.19968 390.83871,495.28438 z M 211.3067,495.54979 C 208.16119,499.27148 205.41326,502.42799 203.12303,504.92784 C 206.52111,507.66084 209.89361,510.29736 213.25309,512.82397 C 212.48331,507.21205 211.85332,501.22103 211.3067,495.54979 z M 269.54346,517.0264 C 275.30108,517.30799 281.65713,525.81364 287.85719,518.68525 C 284.24108,528.5233 277.68431,523.83237 277.21845,525.29854 C 270.62929,537.31259 260.88192,527.54882 263.10712,521.91448 C 265.135,518.07352 267.29048,516.91621 269.54346,517.0264 z M 354.47667,517.0264 C 360.2343,517.30799 366.59034,525.81364 372.7904,518.68525 C 369.1743,528.5233 362.61724,523.83237 362.15166,525.29854 C 355.5658,537.31259 345.81455,527.54882 348.04036,521.91448 C 350.06822,518.07352 352.22368,516.91621 354.47667,517.0264 z M 244.61645,517.1591 C 246.86943,517.04892 249.02491,518.18411 251.05279,522.02507 C 253.27797,527.65943 243.52725,537.4453 236.94149,525.43125 C 236.47554,523.96506 229.9188,528.65601 226.30272,518.81796 C 232.50278,525.94634 238.85883,517.4407 244.61645,517.1591 z M 329.5497,517.1591 C 331.80262,517.04892 333.95808,518.18411 335.98601,522.02507 C 338.21119,527.65943 328.4605,537.4453 321.87471,525.43125 C 321.40878,523.96506 314.85186,528.65601 311.23597,518.81796 C 317.43588,525.94634 323.792,517.4407 329.5497,517.1591 z "
         style="fill:#ffffff;fill-opacity:1;fill-rule:evenodd;stroke:none;stroke-width:1px;stroke-linecap:butt;stroke-linejoin:miter;stroke-opacity:1" />
      <path
         id="path15925"
         style="fill:none;fill-opacity:1;fill-rule:evenodd;stroke:#000000;stroke-width:3;stroke-linecap:butt;stroke-linejoin:miter;stroke-miterlimit:4;stroke-dasharray:none;stroke-opacity:1;display:inline"
         d="M 299.98461,563.14455 C 299.98461,563.14455 511.25598,483.64684 511.25598,281.61089 C 511.25598,79.57488 511.25598,98.613965 511.25598,98.613965 L 88.713228,98.613965 L 88.713228,281.61089 C 88.713228,483.64684 299.98461,563.14455 299.98461,563.14455 z "
         sodipodi:nodetypes="cccccc" />
      <path
         id="rect15927"
         d="M 35.125 219.75 C 23.92654 219.75 12.69846 223.18946 1.5 227.46875 L 1.5 261.375 C 1.5 315.92011 12.3983 364.11117 30.03125 406.4375 C 31.723156 406.28924 33.433094 406.1875 35.125 406.1875 C 64.684105 406.1875 94.222145 430.18751 123.78125 430.1875 C 153.34036 430.1875 182.90964 406.18751 212.46875 406.1875 C 242.02785 406.1875 271.59716 430.18751 301.15625 430.1875 C 330.71536 430.1875 360.25339 406.18751 389.8125 406.1875 C 419.3716 406.1875 448.9409 430.18751 478.5 430.1875 C 508.05911 430.1875 537.62837 406.18751 567.1875 406.1875 C 568.14217 406.1875 569.07658 406.20155 570.03125 406.25 C 587.61689 363.97016 598.5 315.8371 598.5 261.375 C 598.5 223.01119 598.5 254.52865 598.5 226.625 C 588.06003 222.75212 577.62746 219.75 567.1875 219.75 C 537.62839 219.75 508.05911 243.75 478.5 243.75 C 448.9409 243.75 419.3716 219.75 389.8125 219.75 C 360.25339 219.75 330.71537 243.75 301.15625 243.75 C 271.59715 243.75 242.02785 219.75 212.46875 219.75 C 182.90964 219.75 153.34036 243.75 123.78125 243.75 C 94.222147 243.75 64.684106 219.75 35.125 219.75 z "
         style="fill:#2b5df2;fill-opacity:1;stroke:#000000;stroke-width:3;stroke-miterlimit:4;stroke-dashoffset:0;stroke-opacity:1" />
    </g>
  </g>
  <g
     inkscape:groupmode="layer"
     id="layer4"
     inkscape:label="Meubles"
     sodipodi:insensitive="true" />
  <g
     inkscape:groupmode="layer"
     id="layer2"
     inkscape:label="Reflet final"
     sodipodi:insensitive="true">
    <path
       sodipodi:nodetypes="cccccc"
       d="M 300.00001,658.5 C 300.00001,658.5 598.50001,546.17969 598.50001,260.72817 C 598.50001,-24.723334 598.50001,2.1764865 598.50001,2.1764865 L 1.5,2.1764865 L 1.5,260.72817 C 1.5,546.17969 300.00001,658.5 300.00001,658.5 z "
       style="opacity:1;fill:url(#radialGradient3163);fill-opacity:1;fill-rule:evenodd;stroke:none;stroke-width:1px;stroke-linecap:butt;stroke-linejoin:miter;stroke-opacity:1"
       id="path2875"
       inkscape:export-xdpi="144"
       inkscape:export-ydpi="144" />
  </g>
  <g
     inkscape:groupmode="layer"
     id="layer1"
     inkscape:label="Contour final"
     sodipodi:insensitive="true">
    <path
       sodipodi:nodetypes="cccccc"
       d="M 299.99999,658.50028 C 299.99999,658.50028 1.5,546.17992 1.5,260.72828 C 1.5,-24.723336 1.5,2.1764957 1.5,2.1764957 L 598.49999,2.1764957 L 598.49999,260.72828 C 598.49999,546.17992 299.99999,658.50028 299.99999,658.50028 z "
       style="opacity:1;fill:none;fill-opacity:1;fill-rule:evenodd;stroke:#000000;stroke-width:3.00000048;stroke-linecap:butt;stroke-linejoin:miter;stroke-miterlimit:4;stroke-dasharray:none;stroke-opacity:1"
       id="path1411"
       inkscape:export-xdpi="144"
       inkscape:export-ydpi="144" />
  </g>
</svg>
