<?xml version="1.0" encoding="UTF-8" standalone="no"?>
<svg
   xmlns:dc="http://purl.org/dc/elements/1.1/"
   xmlns:cc="http://web.resource.org/cc/"
   xmlns:rdf="http://www.w3.org/1999/02/22-rdf-syntax-ns#"
   xmlns:svg="http://www.w3.org/2000/svg"
   xmlns="http://www.w3.org/2000/svg"
   xmlns:xlink="http://www.w3.org/1999/xlink"
   xmlns:sodipodi="http://sodipodi.sourceforge.net/DTD/sodipodi-0.dtd"
   xmlns:inkscape="http://www.inkscape.org/namespaces/inkscape"
   height="660"
   width="600"
   version="1.0"
   id="svg2"
   sodipodi:version="0.32"
   inkscape:version="0.44.1"
   sodipodi:docname="Blason département fr Essonne.svg"
   sodipodi:docbase="C:\Documents and Settings\Standard\Mes documents\aaaOuiqui\Blasons\Blasons Yvelines svg"
   inkscape:export-filename="/Users/olivier/Desktop/Blason Rouge/Blason_Vide_3D.png"
   inkscape:export-xdpi="144"
   inkscape:export-ydpi="144">
  <metadata
     id="metadata49">
    <rdf:RDF>
      <cc:Work
         rdf:about="">
        <dc:format>image/svg+xml</dc:format>
        <dc:type
           rdf:resource="http://purl.org/dc/dcmitype/StillImage" />
        <dc:title>Gabarit d'un blason en pointe pour le projet Blasons de Wikipédia</dc:title>
        <dc:date>03-AUG-2006</dc:date>
        <dc:creator>
          <cc:Agent>
            <dc:title>Jérôme BLUM (wagner51)</dc:title>
          </cc:Agent>
        </dc:creator>
        <cc:license
           rdf:resource="http://web.resource.org/cc/PublicDomain" />
        <dc:language>fr</dc:language>
        <dc:subject>
          <rdf:Bag>
            <rdf:li>gabarit modèle blason projet wikipédia</rdf:li>
          </rdf:Bag>
        </dc:subject>
      </cc:Work>
      <cc:License
         rdf:about="http://web.resource.org/cc/PublicDomain">
        <cc:permits
           rdf:resource="http://web.resource.org/cc/Reproduction" />
        <cc:permits
           rdf:resource="http://web.resource.org/cc/Distribution" />
        <cc:permits
           rdf:resource="http://web.resource.org/cc/DerivativeWorks" />
      </cc:License>
    </rdf:RDF>
  </metadata>
  <sodipodi:namedview
     inkscape:window-height="712"
     inkscape:window-width="1024"
     inkscape:pageshadow="2"
     inkscape:pageopacity="0.0"
     guidetolerance="10.0"
     gridtolerance="10.0"
     objecttolerance="10.0"
     borderopacity="1.0"
     bordercolor="#666666"
     pagecolor="#ffffff"
     id="base"
     showgrid="false"
     height="660px"
     inkscape:zoom="0.89095454"
     inkscape:cx="618.01414"
     inkscape:cy="457.79263"
     inkscape:window-x="-4"
     inkscape:window-y="-4"
     inkscape:current-layer="layer4"
     showguides="true"
     inkscape:guide-bbox="true" />
  <desc
     id="desc4">Flag of Canton of Valais (Wallis)</desc>
  <defs
     id="defs6">
    <linearGradient
       id="linearGradient2893">
      <stop
         style="stop-color:white;stop-opacity:0.3137255;"
         offset="0"
         id="stop2895" />
      <stop
         id="stop2897"
         offset="0.19"
         style="stop-color:white;stop-opacity:0.25098041;" />
      <stop
         style="stop-color:#6b6b6b;stop-opacity:0.1254902;"
         offset="0.60000002"
         id="stop2901" />
      <stop
         style="stop-color:black;stop-opacity:0.1254902;"
         offset="1"
         id="stop2899" />
    </linearGradient>
    <radialGradient
       inkscape:collect="always"
       xlink:href="#linearGradient2893"
       id="radialGradient3163"
       gradientUnits="userSpaceOnUse"
       gradientTransform="matrix(1.353218,0,0,1.348928,-77.62935,-85.74693)"
       cx="221.44487"
       cy="226.33101"
       fx="221.44487"
       fy="226.33101"
       r="300" />
  </defs>
  <g
     inkscape:groupmode="layer"
     id="layer3"
     inkscape:label="Fond écu"
     style="display:inline"
     sodipodi:insensitive="true">
    <rect
       y="-38.278225"
       x="855.11908"
       height="0"
       width="2"
       id="rect12745"
       style="fill:white;fill-opacity:1;fill-rule:evenodd;stroke:black;stroke-width:2;stroke-linecap:round;stroke-linejoin:round;stroke-miterlimit:4;stroke-dasharray:none;stroke-dashoffset:0;stroke-opacity:1" />
    <path
       sodipodi:nodetypes="cccccc"
       d="M 298.86909,658.47179 C 298.86909,658.47179 597.36909,546.15148 597.36909,260.69996 C 597.36909,-24.751565 597.36909,2.1482651 597.36909,2.1482651 L 0.369093,2.1482651 L 0.369093,260.69996 C 0.369093,546.15148 298.86909,658.47179 298.86909,658.47179 z "
       style="fill:#2b5df2;fill-opacity:1;fill-rule:evenodd;stroke:none;stroke-width:1px;stroke-linecap:butt;stroke-linejoin:miter;stroke-opacity:1;display:inline"
       id="path11575" />
    <g
       transform="matrix(0.447218,0,0,0.447218,24.1501,245.3104)"
       id="g3873"
       style="stroke:black;stroke-width:6.01026535;stroke-miterlimit:4;stroke-dasharray:none;stroke-opacity:1;display:inline">
      <path
         style="fill:#fcef3c;fill-opacity:1;fill-rule:evenodd;stroke:black;stroke-width:6.01026535;stroke-linecap:butt;stroke-linejoin:miter;stroke-miterlimit:4;stroke-dasharray:none;stroke-opacity:1"
         d="M -20.338278,-544.61443 C -25.606934,-530.93 -30.321877,-517.53632 -32.47183,-503.03801 C -33.71586,-494.64886 -34.78343,-477.52504 -33.65933,-470.58029 C -32.82682,-465.43703 -30.2673,-449.72452 -27.47183,-469.16609 C -26.89689,-473.16463 -26.48464,-493.22641 -24.72183,-503.41301 C -22.846729,-514.24844 -18.560914,-529.8809 -11.767805,-544.61443 L 99.136087,-544.61443 C 98.611937,-540.03585 97.682961,-535.15666 96.43442,-530.97551 C 88.29557,-503.71988 57.19325,-484.85525 29.30942,-483.00676 C 34.83452,-493.933 48.05897,-525.11969 33.71567,-523.88176 C 17.11291,-522.44882 -2.746744,-494.20056 -7.917294,-474.82293 C -9.864494,-467.52547 -9.07753,-456.19513 -19.50308,-456.66301 C -12.62837,-433.43496 6.77717,-418.06468 23.77817,-401.85051 C 6.05563,-400.37739 -11.47738,-408.7178 -26.94058,-416.66301 C -26.286749,-400.73784 -31.614492,-367.09562 -50.332876,-348.72551 L -49.187061,-544.61443 L -20.338278,-544.61443 z "
         id="path3875"
         sodipodi:nodetypes="cssssccscsscccccc" />
      <path
         sodipodi:nodetypes="ccccccc"
         id="rect3877"
         d="M -13.828688,-474.15433 L 49.821363,-474.15433 L 49.821363,-452.15433 L -13.828688,-452.15433 C -17.713327,-452.15433 -20.840672,-455.28167 -20.840672,-459.16631 L -20.840672,-467.14234 C -20.840672,-471.02698 -17.713327,-474.15433 -13.828688,-474.15433 z "
         style="fill:#fcef3c;fill-opacity:1;fill-rule:evenodd;stroke-linejoin:round"
         transform="scale(-1,1)" />
    </g>
    <g
       transform="matrix(0.447218,0,0,0.447218,223.2405,245.3104)"
       id="g6747"
       style="stroke:black;stroke-width:6.01026535;stroke-miterlimit:4;stroke-dasharray:none;stroke-opacity:1;display:inline">
      <path
         style="fill:#fcef3c;fill-opacity:1;fill-rule:evenodd;stroke:black;stroke-width:6.01026535;stroke-linecap:butt;stroke-linejoin:miter;stroke-miterlimit:4;stroke-dasharray:none;stroke-opacity:1"
         d="M -21.156903,-542.83754 C -26.091226,-529.84806 -30.43388,-516.78102 -32.47183,-503.03801 C -33.71586,-494.64886 -34.78343,-477.52504 -33.65933,-470.58029 C -32.82682,-465.43703 -30.2673,-449.72452 -27.47183,-469.16609 C -26.89689,-473.16463 -26.48464,-493.22641 -24.72183,-503.41301 C -22.964441,-513.56823 -19.089512,-528.94419 -13.017531,-542.83754 L 99.119326,-542.83754 C 98.592258,-538.30953 97.669761,-535.11245 96.43442,-530.97551 C 88.29557,-503.71988 57.19325,-484.85525 29.30942,-483.00676 C 34.83452,-493.933 48.05897,-525.11969 33.71567,-523.88176 C 17.11291,-522.44882 -2.746744,-494.20056 -7.917294,-474.82293 C -9.864494,-467.52547 -9.07753,-456.19513 -19.50308,-456.66301 C -12.62837,-433.43496 6.77717,-418.06468 23.77817,-401.85051 C 6.05563,-400.37739 -11.47738,-408.7178 -26.94058,-416.66301 C -26.286749,-400.73784 -29.378446,-367.09562 -48.09683,-348.72551 C -65.471545,-367.64157 -67.052581,-390.71209 -67.37808,-416.66301 C -82.84128,-408.7178 -100.37429,-400.37739 -118.09683,-401.85051 C -101.09583,-418.06468 -81.690291,-433.43496 -74.81558,-456.66301 C -85.24113,-456.19513 -85.868385,-466.81836 -87.81558,-474.11582 C -92.98613,-493.49343 -111.43157,-522.44884 -128.03433,-523.88176 C -142.37763,-525.11969 -129.15318,-493.933 -123.62808,-483.00676 C -151.51191,-484.85525 -182.61422,-503.71988 -190.75308,-530.97551 C -191.87642,-534.73739 -192.74108,-538.73827 -193.28494,-542.83754 L -82.112308,-542.83754 C -75.572938,-528.38809 -71.431255,-514.01339 -69.59683,-503.41301 C -67.83402,-493.22641 -68.128878,-474.57884 -67.553937,-470.58029 C -64.758467,-451.13871 -61.491841,-465.43705 -60.65933,-470.58029 C -59.53523,-477.52504 -60.602801,-494.64887 -61.84683,-503.03801 C -63.954368,-517.25029 -68.229342,-529.24999 -73.063819,-542.83754 L -21.156903,-542.83754 z "
         id="path6749"
         sodipodi:nodetypes="cssssccscsscccccccsscsccsssscc" />
      <rect
         rx="7.0119839"
         style="fill:#fcef3c;fill-opacity:1;fill-rule:evenodd;stroke:black;stroke-width:6.01026535;stroke-linejoin:round;stroke-miterlimit:4;stroke-dasharray:none;stroke-opacity:1"
         id="rect6751"
         width="136"
         height="22"
         x="-20.840672"
         y="-474.15433"
         ry="7.0119839"
         transform="scale(-1,1)" />
    </g>
    <g
       style="stroke:black;stroke-width:6.01026535;stroke-miterlimit:4;stroke-dasharray:none;stroke-opacity:1;display:inline"
       id="g6882"
       transform="matrix(0.447218,0,0,0.447218,422.3308,445.068)">
      <path
         sodipodi:nodetypes="csssssscscsscccccccsscscssssssc"
         id="path6884"
         d="M -48.09683,-730.04688 C -18.63463,-698.20088 -1.311324,-680.63851 1.71567,-631.22551 C 4.516922,-585.49753 -25.91305,-547.26746 -32.47183,-503.03801 C -33.71586,-494.64886 -34.78343,-477.52504 -33.65933,-470.58029 C -32.82682,-465.43703 -30.2673,-449.72452 -27.47183,-469.16609 C -26.89689,-473.16463 -26.48464,-493.22641 -24.72183,-503.41301 C -21.50976,-521.97423 -11.22367,-554.61188 6.62192,-572.69426 C 24.45989,-590.7689 52.7264,-602.49289 77.93442,-593.03801 C 100.77409,-582.49963 102.93306,-552.73834 96.43442,-530.97551 C 88.29557,-503.71988 57.19325,-484.85525 29.30942,-483.00676 C 34.83452,-493.933 48.05897,-525.11969 33.71567,-523.88176 C 17.11291,-522.44882 -2.746744,-494.20056 -7.917294,-474.82293 C -9.864494,-467.52547 -9.07753,-456.19513 -19.50308,-456.66301 C -12.62837,-433.43496 6.77717,-418.06468 23.77817,-401.85051 C 6.05563,-400.37739 -11.47738,-408.7178 -26.94058,-416.66301 C -26.286749,-400.73784 -29.378446,-367.09562 -48.09683,-348.72551 C -65.471545,-367.64157 -67.052581,-390.71209 -67.37808,-416.66301 C -82.84128,-408.7178 -100.37429,-400.37739 -118.09683,-401.85051 C -101.09583,-418.06468 -81.690291,-433.43496 -74.81558,-456.66301 C -85.24113,-456.19513 -85.868385,-466.81836 -87.81558,-474.11582 C -92.98613,-493.49343 -111.43157,-522.44884 -128.03433,-523.88176 C -142.37763,-525.11969 -129.15318,-493.933 -123.62808,-483.00676 C -151.51191,-484.85525 -182.61422,-503.71988 -190.75308,-530.97551 C -197.25172,-552.73834 -195.09274,-582.49964 -172.25308,-593.03801 C -147.04505,-602.49289 -118.77855,-590.76891 -100.94058,-572.69426 C -83.094993,-554.61188 -72.808901,-521.97423 -69.59683,-503.41301 C -67.83402,-493.22641 -68.128878,-474.57884 -67.553937,-470.58029 C -64.758467,-451.13871 -61.491841,-465.43705 -60.65933,-470.58029 C -59.53523,-477.52504 -60.602801,-494.64887 -61.84683,-503.03801 C -68.40561,-547.26744 -95.955806,-587.0527 -96.03433,-631.22551 C -96.103977,-671.11179 -76.05061,-701.46041 -48.09683,-730.04688 z "
         style="fill:#fcef3c;fill-opacity:1;fill-rule:evenodd;stroke:black;stroke-width:6.01026535;stroke-linecap:butt;stroke-linejoin:miter;stroke-miterlimit:4;stroke-dasharray:none;stroke-opacity:1" />
      <rect
         transform="scale(-1,1)"
         ry="7.0119839"
         y="-474.15433"
         x="-20.840672"
         height="22"
         width="136"
         id="rect6886"
         style="fill:#fcef3c;fill-opacity:1;fill-rule:evenodd;stroke:black;stroke-width:6.01026535;stroke-linejoin:round;stroke-miterlimit:4;stroke-dasharray:none;stroke-opacity:1"
         rx="7.0119839" />
    </g>
    <g
       style="stroke:black;stroke-width:6.01026535;stroke-miterlimit:4;stroke-dasharray:none;stroke-opacity:1;display:inline"
       id="g6896"
       transform="matrix(0.447218,0,0,0.447218,321.5889,345.2498)">
      <path
         sodipodi:nodetypes="csssssscscsscccccccsscscssssssc"
         id="path6898"
         d="M -48.09683,-730.04688 C -18.63463,-698.20088 -1.311324,-680.63851 1.71567,-631.22551 C 4.516922,-585.49753 -25.91305,-547.26746 -32.47183,-503.03801 C -33.71586,-494.64886 -34.78343,-477.52504 -33.65933,-470.58029 C -32.82682,-465.43703 -30.2673,-449.72452 -27.47183,-469.16609 C -26.89689,-473.16463 -26.48464,-493.22641 -24.72183,-503.41301 C -21.50976,-521.97423 -11.22367,-554.61188 6.62192,-572.69426 C 24.45989,-590.7689 52.7264,-602.49289 77.93442,-593.03801 C 100.77409,-582.49963 102.93306,-552.73834 96.43442,-530.97551 C 88.29557,-503.71988 57.19325,-484.85525 29.30942,-483.00676 C 34.83452,-493.933 48.05897,-525.11969 33.71567,-523.88176 C 17.11291,-522.44882 -2.746744,-494.20056 -7.917294,-474.82293 C -9.864494,-467.52547 -9.07753,-456.19513 -19.50308,-456.66301 C -12.62837,-433.43496 6.77717,-418.06468 23.77817,-401.85051 C 6.05563,-400.37739 -11.47738,-408.7178 -26.94058,-416.66301 C -26.286749,-400.73784 -29.378446,-367.09562 -48.09683,-348.72551 C -65.471545,-367.64157 -67.052581,-390.71209 -67.37808,-416.66301 C -82.84128,-408.7178 -100.37429,-400.37739 -118.09683,-401.85051 C -101.09583,-418.06468 -81.690291,-433.43496 -74.81558,-456.66301 C -85.24113,-456.19513 -85.868385,-466.81836 -87.81558,-474.11582 C -92.98613,-493.49343 -111.43157,-522.44884 -128.03433,-523.88176 C -142.37763,-525.11969 -129.15318,-493.933 -123.62808,-483.00676 C -151.51191,-484.85525 -182.61422,-503.71988 -190.75308,-530.97551 C -197.25172,-552.73834 -195.09274,-582.49964 -172.25308,-593.03801 C -147.04505,-602.49289 -118.77855,-590.76891 -100.94058,-572.69426 C -83.094993,-554.61188 -72.808901,-521.97423 -69.59683,-503.41301 C -67.83402,-493.22641 -68.128878,-474.57884 -67.553937,-470.58029 C -64.758467,-451.13871 -61.491841,-465.43705 -60.65933,-470.58029 C -59.53523,-477.52504 -60.602801,-494.64887 -61.84683,-503.03801 C -68.40561,-547.26744 -95.955806,-587.0527 -96.03433,-631.22551 C -96.103977,-671.11179 -76.05061,-701.46041 -48.09683,-730.04688 z "
         style="fill:#fcef3c;fill-opacity:1;fill-rule:evenodd;stroke:black;stroke-width:6.01026535;stroke-linecap:butt;stroke-linejoin:miter;stroke-miterlimit:4;stroke-dasharray:none;stroke-opacity:1" />
      <rect
         transform="scale(-1,1)"
         ry="7.0119839"
         y="-474.15433"
         x="-20.840672"
         height="22"
         width="136"
         id="rect6900"
         style="fill:#fcef3c;fill-opacity:1;fill-rule:evenodd;stroke:black;stroke-width:6.01026535;stroke-linejoin:round;stroke-miterlimit:4;stroke-dasharray:none;stroke-opacity:1"
         rx="7.0119839" />
    </g>
    <g
       transform="matrix(0.447218,0,0,0.447218,621.0487,646.947)"
       id="g6914"
       style="stroke:black;stroke-width:6.01026535;stroke-miterlimit:4;stroke-dasharray:none;stroke-opacity:1;display:inline">
      <path
         style="fill:#fcef3c;fill-opacity:1;fill-rule:evenodd;stroke:black;stroke-width:6.01026535;stroke-linecap:butt;stroke-linejoin:miter;stroke-miterlimit:4;stroke-dasharray:none;stroke-opacity:1"
         d="M -121.23575,-521.88261 C -123.51072,-522.99105 -125.78937,-523.68801 -128.03433,-523.88176 C -136.97316,-524.65325 -135.20507,-512.83148 -131.26626,-501.16857 L -139.19423,-485.7046 C -162.18677,-492.08658 -184.11278,-508.73829 -190.75308,-530.97551 C -197.25172,-552.73834 -195.09274,-582.49964 -172.25308,-593.03801 C -147.04505,-602.49289 -118.77855,-590.76891 -100.94058,-572.69426 M -63.093076,-713.50596 L -92.167553,-601.15713 C -94.707767,-591.3413 -96.01616,-621.00427 -96.03433,-631.22551 C -96.090742,-663.53229 -82.945349,-689.58184 -63.093076,-713.50596 z "
         id="path6916"
         sodipodi:nodetypes="csccscscssc" />
    </g>
    <g
       transform="matrix(0.447218,0,0,0.447218,521.7002,746.9269)"
       id="g6922"
       style="stroke:black;stroke-width:6.01026535;stroke-miterlimit:4;stroke-dasharray:none;stroke-opacity:1;display:inline">
      <path
         style="fill:#fcef3c;fill-opacity:1;fill-rule:evenodd;stroke:black;stroke-width:6.01026535;stroke-linecap:butt;stroke-linejoin:miter;stroke-miterlimit:4;stroke-dasharray:none;stroke-opacity:1"
         d="M -17.160855,-553.18255 L -61.84683,-503.03801 C -68.40561,-547.26744 -95.955806,-587.0527 -96.03433,-631.22551 C -96.103977,-671.11179 -76.05061,-701.46041 -48.09683,-730.04688 C -18.63463,-698.20088 -1.311324,-680.63851 1.71567,-631.22551 C 3.4169604,-603.45344 0.9217751,-573.47404 -17.160855,-553.18255 z M -68.444356,-491.8563 L -87.81558,-474.11582 C -92.98613,-493.49343 -111.43157,-522.44884 -128.03433,-523.88176 C -142.37763,-525.11969 -129.15318,-493.933 -123.62808,-483.00676 C -151.51191,-484.85525 -182.61422,-503.71988 -190.75308,-530.97551 C -197.25172,-552.73834 -195.09274,-582.49964 -172.25308,-593.03801 C -147.04505,-602.49289 -118.77855,-590.76891 -100.94058,-572.69426 C -83.094993,-554.61188 -72.808901,-521.97423 -69.59683,-503.41301 C -69.035589,-500.16981 -65.332675,-494.70603 -68.444356,-491.8563 z "
         id="path6924"
         sodipodi:nodetypes="ccscssccscscsss" />
      <path
         sodipodi:nodetypes="cccccc"
         id="rect6926"
         d="M 86.828164,-474.15433 L 108.14734,-474.15433 C 112.03198,-474.15433 115.15933,-471.02698 115.15933,-467.14234 L 115.15933,-459.16631 C 115.15933,-455.28167 112.03198,-452.15433 108.14734,-452.15433 L 86.828164,-474.15433 z "
         style="fill:#fcef3c;fill-opacity:1;fill-rule:evenodd;stroke-linejoin:round"
         transform="scale(-1,1)" />
    </g>
    <g
       transform="matrix(0.447218,0,0,0.447218,521.7002,547.0682)"
       id="g6928"
       style="stroke:black;stroke-width:6.01026535;stroke-miterlimit:4;stroke-dasharray:none;stroke-opacity:1;display:inline">
      <path
         style="fill:#fcef3c;fill-opacity:1;fill-rule:evenodd;stroke:black;stroke-width:6.01026535;stroke-linecap:butt;stroke-linejoin:miter;stroke-miterlimit:4;stroke-dasharray:none;stroke-opacity:1"
         d="M -48.09683,-730.04688 C -18.63463,-698.20088 -1.311324,-680.63851 1.71567,-631.22551 C 4.516922,-585.49753 -25.91305,-547.26746 -32.47183,-503.03801 C -33.71586,-494.64886 -34.78343,-477.52504 -33.65933,-470.58029 C -32.82682,-465.43703 -30.2673,-449.72452 -27.47183,-469.16609 C -26.89689,-473.16463 -26.48464,-493.22641 -24.72183,-503.41301 C -21.50976,-521.97423 -11.22367,-554.61188 6.62192,-572.69426 C 24.45989,-590.7689 52.7264,-602.49289 77.93442,-593.03801 C 100.77409,-582.49963 102.93306,-552.73834 96.43442,-530.97551 C 88.29557,-503.71988 57.19325,-484.85525 29.30942,-483.00676 C 34.83452,-493.933 48.05897,-525.11969 33.71567,-523.88176 C 17.11291,-522.44882 -2.746744,-494.20056 -7.917294,-474.82293 C -9.864494,-467.52547 -9.07753,-456.19513 -19.50308,-456.66301 C -12.62837,-433.43496 6.77717,-418.06468 23.77817,-401.85051 C 6.05563,-400.37739 -11.47738,-408.7178 -26.94058,-416.66301 C -26.286749,-400.73784 -29.378446,-367.09562 -48.09683,-348.72551 C -65.471545,-367.64157 -67.052581,-390.71209 -67.37808,-416.66301 C -82.84128,-408.7178 -100.37429,-400.37739 -118.09683,-401.85051 C -101.09583,-418.06468 -81.690291,-433.43496 -74.81558,-456.66301 C -85.24113,-456.19513 -85.868385,-466.81836 -87.81558,-474.11582 C -92.98613,-493.49343 -111.43157,-522.44884 -128.03433,-523.88176 C -142.37763,-525.11969 -129.15318,-493.933 -123.62808,-483.00676 C -151.51191,-484.85525 -182.61422,-503.71988 -190.75308,-530.97551 C -197.25172,-552.73834 -195.09274,-582.49964 -172.25308,-593.03801 C -147.04505,-602.49289 -118.77855,-590.76891 -100.94058,-572.69426 C -83.094993,-554.61188 -72.808901,-521.97423 -69.59683,-503.41301 C -67.83402,-493.22641 -68.128878,-474.57884 -67.553937,-470.58029 C -64.758467,-451.13871 -61.491841,-465.43705 -60.65933,-470.58029 C -59.53523,-477.52504 -60.602801,-494.64887 -61.84683,-503.03801 C -68.40561,-547.26744 -95.955806,-587.0527 -96.03433,-631.22551 C -96.103977,-671.11179 -76.05061,-701.46041 -48.09683,-730.04688 z "
         id="path6930"
         sodipodi:nodetypes="csssssscscsscccccccsscscssssssc" />
      <rect
         rx="7.0119839"
         style="fill:#fcef3c;fill-opacity:1;fill-rule:evenodd;stroke:black;stroke-width:6.01026535;stroke-linejoin:round;stroke-miterlimit:4;stroke-dasharray:none;stroke-opacity:1"
         id="rect6932"
         width="136"
         height="22"
         x="-20.840672"
         y="-474.15433"
         ry="7.0119839"
         transform="scale(-1,1)" />
    </g>
    <g
       style="stroke:black;stroke-width:6.01026535;stroke-miterlimit:4;stroke-dasharray:none;stroke-opacity:1;display:inline"
       id="g7289"
       transform="matrix(0.447218,0,0,0.447218,24.1501,445.068)">
      <path
         sodipodi:nodetypes="csssssscscssccccc"
         id="path7291"
         d="M -50.332876,-730.04688 C -20.870676,-698.20088 -1.311324,-680.63851 1.71567,-631.22551 C 4.516922,-585.49753 -25.91305,-547.26746 -32.47183,-503.03801 C -33.71586,-494.64886 -34.78343,-477.52504 -33.65933,-470.58029 C -32.82682,-465.43703 -30.2673,-449.72452 -27.47183,-469.16609 C -26.89689,-473.16463 -26.48464,-493.22641 -24.72183,-503.41301 C -21.50976,-521.97423 -11.22367,-554.61188 6.62192,-572.69426 C 24.45989,-590.7689 52.7264,-602.49289 77.93442,-593.03801 C 100.77409,-582.49963 102.93306,-552.73834 96.43442,-530.97551 C 88.29557,-503.71988 57.19325,-484.85525 29.30942,-483.00676 C 34.83452,-493.933 48.05897,-525.11969 33.71567,-523.88176 C 17.11291,-522.44882 -2.746744,-494.20056 -7.917294,-474.82293 C -9.864494,-467.52547 -9.07753,-456.19513 -19.50308,-456.66301 C -12.62837,-433.43496 6.77717,-418.06468 23.77817,-401.85051 C 6.05563,-400.37739 -11.47738,-408.7178 -26.94058,-416.66301 C -26.286749,-400.73784 -29.378446,-367.09562 -48.09683,-348.72551 L -50.332876,-730.04688 z "
         style="fill:#fcef3c;fill-opacity:1;fill-rule:evenodd;stroke:black;stroke-width:6.01026535;stroke-linecap:butt;stroke-linejoin:miter;stroke-miterlimit:4;stroke-dasharray:none;stroke-opacity:1" />
      <path
         sodipodi:nodetypes="ccccccc"
         id="rect7293"
         d="M -13.828688,-474.15433 L 49.821363,-474.15433 L 50.939385,-452.15433 L -13.828688,-452.15433 C -17.713327,-452.15433 -20.840672,-455.28167 -20.840672,-459.16631 L -20.840672,-467.14234 C -20.840672,-471.02698 -17.713327,-474.15433 -13.828688,-474.15433 z "
         style="fill:#fcef3c;fill-opacity:1;fill-rule:evenodd;stroke-linejoin:round"
         transform="scale(-1,1)" />
    </g>
    <g
       transform="matrix(0.447218,0,0,0.447218,24.1501,646.947)"
       id="g6971"
       style="stroke:black;stroke-width:6.01026535;stroke-miterlimit:4;stroke-dasharray:none;stroke-opacity:1;display:inline">
      <path
         style="fill:#fcef3c;fill-opacity:1;fill-rule:evenodd;stroke:black;stroke-width:6.01026535;stroke-linecap:butt;stroke-linejoin:miter;stroke-miterlimit:4;stroke-dasharray:none;stroke-opacity:1"
         d="M 22.381941,-519.35917 C 14.629103,-535.24348 6.3818419,-550.83122 1.7416141,-567.75307 C 3.057804,-569.34986 5.2115338,-571.26516 6.62192,-572.69426 C 24.45989,-590.7689 52.7264,-602.49289 77.93442,-593.03801 C 100.77409,-582.49963 102.93306,-552.73834 96.43442,-530.97551 C 89.229967,-506.84902 63.241544,-488.90215 38.210282,-483.90794 L 33.831561,-494.47124 C 39.091672,-507.6934 44.288498,-524.79427 33.71567,-523.88176 C 30.032727,-523.56389 26.18952,-521.92652 22.381941,-519.35917 z M -4.8508288,-586.19562 C -19.59245,-630.79133 -32.437964,-675.38704 -38.806807,-719.98275 C -14.992169,-693.94599 -0.97793958,-675.1963 1.71567,-631.22551 C 2.6782154,-615.5128 -0.28283626,-600.68537 -4.8508288,-586.19562 z "
         id="path6973"
         sodipodi:nodetypes="ccscsccscccsc" />
    </g>
    <g
       transform="matrix(0.447218,0,0,0.447218,223.2405,646.947)"
       id="g6977"
       style="stroke:black;stroke-width:6.01026535;stroke-miterlimit:4;stroke-dasharray:none;stroke-opacity:1;display:inline">
      <path
         style="fill:#fcef3c;fill-opacity:1;fill-rule:evenodd;stroke:black;stroke-width:6.01026535;stroke-linecap:butt;stroke-linejoin:miter;stroke-miterlimit:4;stroke-dasharray:none;stroke-opacity:1"
         d="M -48.09683,-730.04688 C -18.63463,-698.20088 -1.311324,-680.63851 1.71567,-631.22551 C 4.516922,-585.49753 -25.91305,-547.26746 -32.47183,-503.03801 C -33.71586,-494.64886 -34.78343,-477.52504 -33.65933,-470.58029 C -32.82682,-465.43703 -30.2673,-449.72452 -27.47183,-469.16609 C -26.89689,-473.16463 -26.48464,-493.22641 -24.72183,-503.41301 C -21.50976,-521.97423 -11.22367,-554.61188 6.62192,-572.69426 C 24.45989,-590.7689 52.7264,-602.49289 77.93442,-593.03801 C 100.77409,-582.49963 102.93306,-552.73834 96.43442,-530.97551 C 88.29557,-503.71988 57.19325,-484.85525 29.30942,-483.00676 C 34.83452,-493.933 48.05897,-525.11969 33.71567,-523.88176 C 17.11291,-522.44882 -2.746744,-494.20056 -7.917294,-474.82293 C -9.864494,-467.52547 -9.07753,-456.19513 -19.50308,-456.66301 C -12.62837,-433.43496 6.77717,-418.06468 23.77817,-401.85051 C 6.05563,-400.37739 -11.47738,-408.7178 -26.94058,-416.66301 C -26.286749,-400.73784 -29.378446,-367.09562 -48.09683,-348.72551 C -65.471545,-367.64157 -67.052581,-390.71209 -67.37808,-416.66301 C -82.84128,-408.7178 -100.37429,-400.37739 -118.09683,-401.85051 C -101.09583,-418.06468 -81.690291,-433.43496 -74.81558,-456.66301 C -85.24113,-456.19513 -85.868385,-466.81836 -87.81558,-474.11582 C -92.98613,-493.49343 -111.43157,-522.44884 -128.03433,-523.88176 C -142.37763,-525.11969 -129.15318,-493.933 -123.62808,-483.00676 C -151.51191,-484.85525 -182.61422,-503.71988 -190.75308,-530.97551 C -197.25172,-552.73834 -195.09274,-582.49964 -172.25308,-593.03801 C -147.04505,-602.49289 -118.77855,-590.76891 -100.94058,-572.69426 C -83.094993,-554.61188 -72.808901,-521.97423 -69.59683,-503.41301 C -67.83402,-493.22641 -68.128878,-474.57884 -67.553937,-470.58029 C -64.758467,-451.13871 -61.491841,-465.43705 -60.65933,-470.58029 C -59.53523,-477.52504 -60.602801,-494.64887 -61.84683,-503.03801 C -68.40561,-547.26744 -95.955806,-587.0527 -96.03433,-631.22551 C -96.103977,-671.11179 -76.05061,-701.46041 -48.09683,-730.04688 z "
         id="path6979"
         sodipodi:nodetypes="csssssscscsscccccccsscscssssssc" />
      <rect
         rx="7.0119839"
         style="fill:#fcef3c;fill-opacity:1;fill-rule:evenodd;stroke:black;stroke-width:6.01026535;stroke-linejoin:round;stroke-miterlimit:4;stroke-dasharray:none;stroke-opacity:1"
         id="rect6981"
         width="136"
         height="22"
         x="-20.840672"
         y="-474.15433"
         ry="7.0119839"
         transform="scale(-1,1)" />
    </g>
    <g
       transform="matrix(0.447218,0,0,0.447218,123.892,749.0482)"
       id="g6985"
       style="stroke:black;stroke-width:6.01026535;stroke-miterlimit:4;stroke-dasharray:none;stroke-opacity:1;display:inline">
      <path
         style="fill:#fcef3c;fill-opacity:1;fill-rule:evenodd;stroke:black;stroke-width:6.01026535;stroke-linecap:butt;stroke-linejoin:miter;stroke-miterlimit:4;stroke-dasharray:none;stroke-opacity:1"
         d="M -33.167955,-497.23948 L -71.75084,-540.8536 C -82.148742,-570.86806 -95.978727,-599.94682 -96.03433,-631.22551 C -96.103977,-671.11179 -76.05061,-701.46041 -48.09683,-730.04688 C -18.63463,-698.20088 -1.311324,-680.63851 1.71567,-631.22551 C 4.516922,-585.49753 -25.91305,-547.26746 -32.47183,-503.03801 C -32.715715,-501.39337 -31.720762,-495.60357 -33.167955,-497.23948 z M -9.1031364,-473.24181 L -25.519794,-488.92191 C -25.147141,-494.61643 -25.442686,-499.24746 -24.72183,-503.41301 C -21.50976,-521.97423 -11.22367,-554.61188 6.62192,-572.69426 C 24.45989,-590.7689 52.7264,-602.49289 77.93442,-593.03801 C 100.77409,-582.49963 102.93306,-552.73834 96.43442,-530.97551 C 88.29557,-503.71988 57.19325,-484.85525 29.30942,-483.00676 C 34.83452,-493.933 48.05897,-525.11969 33.71567,-523.88176 C 17.11291,-522.44882 -3.9325864,-492.61944 -9.1031364,-473.24181 z "
         id="path6987"
         sodipodi:nodetypes="ccscsssccsscscsc" />
      <path
         sodipodi:nodetypes="cccccc"
         id="rect6989"
         d="M -13.828688,-474.15433 L 10.113414,-474.15433 L -13.828688,-452.15433 C -17.713327,-452.15433 -20.840672,-455.28167 -20.840672,-459.16631 L -20.840672,-467.14234 C -20.840672,-471.02698 -17.713327,-474.15433 -13.828688,-474.15433 z "
         style="fill:#fcef3c;fill-opacity:1;fill-rule:evenodd;stroke-linejoin:round"
         transform="scale(-1,1)" />
    </g>
    <g
       transform="matrix(0.447218,0,0,0.447218,123.892,547.0682)"
       id="g6991"
       style="stroke:black;stroke-width:6.01026535;stroke-miterlimit:4;stroke-dasharray:none;stroke-opacity:1;display:inline">
      <path
         style="fill:#fcef3c;fill-opacity:1;fill-rule:evenodd;stroke:black;stroke-width:6.01026535;stroke-linecap:butt;stroke-linejoin:miter;stroke-miterlimit:4;stroke-dasharray:none;stroke-opacity:1"
         d="M -48.09683,-730.04688 C -18.63463,-698.20088 -1.311324,-680.63851 1.71567,-631.22551 C 4.516922,-585.49753 -25.91305,-547.26746 -32.47183,-503.03801 C -33.71586,-494.64886 -34.78343,-477.52504 -33.65933,-470.58029 C -32.82682,-465.43703 -30.2673,-449.72452 -27.47183,-469.16609 C -26.89689,-473.16463 -26.48464,-493.22641 -24.72183,-503.41301 C -21.50976,-521.97423 -11.22367,-554.61188 6.62192,-572.69426 C 24.45989,-590.7689 52.7264,-602.49289 77.93442,-593.03801 C 100.77409,-582.49963 102.93306,-552.73834 96.43442,-530.97551 C 88.29557,-503.71988 57.19325,-484.85525 29.30942,-483.00676 C 34.83452,-493.933 48.05897,-525.11969 33.71567,-523.88176 C 17.11291,-522.44882 -2.746744,-494.20056 -7.917294,-474.82293 C -9.864494,-467.52547 -9.07753,-456.19513 -19.50308,-456.66301 C -12.62837,-433.43496 6.77717,-418.06468 23.77817,-401.85051 C 6.05563,-400.37739 -11.47738,-408.7178 -26.94058,-416.66301 C -26.286749,-400.73784 -29.378446,-367.09562 -48.09683,-348.72551 C -65.471545,-367.64157 -67.052581,-390.71209 -67.37808,-416.66301 C -82.84128,-408.7178 -100.37429,-400.37739 -118.09683,-401.85051 C -101.09583,-418.06468 -81.690291,-433.43496 -74.81558,-456.66301 C -85.24113,-456.19513 -85.868385,-466.81836 -87.81558,-474.11582 C -92.98613,-493.49343 -111.43157,-522.44884 -128.03433,-523.88176 C -142.37763,-525.11969 -129.15318,-493.933 -123.62808,-483.00676 C -151.51191,-484.85525 -182.61422,-503.71988 -190.75308,-530.97551 C -197.25172,-552.73834 -195.09274,-582.49964 -172.25308,-593.03801 C -147.04505,-602.49289 -118.77855,-590.76891 -100.94058,-572.69426 C -83.094993,-554.61188 -72.808901,-521.97423 -69.59683,-503.41301 C -67.83402,-493.22641 -68.128878,-474.57884 -67.553937,-470.58029 C -64.758467,-451.13871 -61.491841,-465.43705 -60.65933,-470.58029 C -59.53523,-477.52504 -60.602801,-494.64887 -61.84683,-503.03801 C -68.40561,-547.26744 -95.955806,-587.0527 -96.03433,-631.22551 C -96.103977,-671.11179 -76.05061,-701.46041 -48.09683,-730.04688 z "
         id="path6993"
         sodipodi:nodetypes="csssssscscsscccccccsscscssssssc" />
      <rect
         rx="7.0119839"
         style="fill:#fcef3c;fill-opacity:1;fill-rule:evenodd;stroke:black;stroke-width:6.01026535;stroke-linejoin:round;stroke-miterlimit:4;stroke-dasharray:none;stroke-opacity:1"
         id="rect6995"
         width="136"
         height="22"
         x="-20.840672"
         y="-474.15433"
         ry="7.0119839"
         transform="scale(-1,1)" />
    </g>
    <g
       style="stroke:black;stroke-width:6.01026535;stroke-miterlimit:4;stroke-dasharray:none;stroke-opacity:1;display:inline"
       id="g6999"
       transform="matrix(0.447218,0,0,0.447218,223.2405,850.7047)">
      <path
         sodipodi:nodetypes="cccscccccccscc"
         id="path7001"
         d="M 12.091602,-510.18822 L -18.208073,-528.40121 C -12.844244,-544.17286 -4.607905,-561.31543 6.62192,-572.69426 C 24.45989,-590.7689 52.7264,-602.49289 77.93442,-593.03801 C 100.77409,-582.49963 102.93306,-552.73834 96.43442,-530.97551 C 90.41325,-510.81163 71.823878,-495.24026 51.267518,-487.75375 L 35.517507,-497.17568 C 40.339046,-509.94988 43.681133,-524.74185 33.71567,-523.88176 C 26.636035,-523.27074 18.964204,-517.78393 12.091602,-510.18822 z M -84.17618,-574.91914 C -90.686355,-593.34078 -95.999908,-611.86157 -96.03433,-631.22551 C -96.103977,-671.11179 -76.05061,-701.46041 -48.09683,-730.04688 C -18.63463,-698.20088 -1.311324,-680.63851 1.71567,-631.22551 C 3.8501709,-596.38166 -13.309879,-565.8912 -24.501359,-533.78271"
         style="fill:#fcef3c;fill-opacity:1;fill-rule:evenodd;stroke:black;stroke-width:6.01026535;stroke-linecap:butt;stroke-linejoin:miter;stroke-miterlimit:4;stroke-dasharray:none;stroke-opacity:1" />
    </g>
    <g
       style="stroke:black;stroke-width:6.01026535;stroke-miterlimit:4;stroke-dasharray:none;stroke-opacity:1;display:inline"
       id="g7005"
       transform="matrix(0.447218,0,0,0.447218,422.3308,850.7047)">
      <path
         sodipodi:nodetypes="ccsccscscccscsc"
         id="path7007"
         d="M -77.810472,-533.44061 L -109.96413,-513.23214 C -116.78873,-521.62351 -122.01291,-523.36207 -128.03433,-523.88176 C -137.13105,-524.66687 -135.13927,-512.40993 -131.05556,-500.55077 L -150.03461,-489.51356 C -168.77921,-497.52879 -185.16968,-512.27766 -190.75308,-530.97551 C -197.25172,-552.73834 -195.09274,-582.49964 -172.25308,-593.03801 C -147.04505,-602.49289 -118.77855,-590.76891 -100.94058,-572.69426 C -91.082967,-562.70585 -77.213044,-533.83564 -77.810472,-533.44061 z M -6.6339237,-581.96462 C -27.800038,-567.87758 -41.15166,-557.12176 -70.763753,-538.34251 C -81.220239,-568.96772 -95.977665,-599.34952 -96.03433,-631.22551 C -96.103977,-671.11179 -76.05061,-701.46041 -48.09683,-730.04688 C -18.63463,-698.20088 -1.311324,-680.63851 1.71567,-631.22551 C 2.7984878,-613.54946 -2.1162686,-599.95462 -6.6339237,-581.96462 z "
         style="fill:#fcef3c;fill-opacity:1;fill-rule:evenodd;stroke:black;stroke-width:6.01026535;stroke-linecap:butt;stroke-linejoin:miter;stroke-miterlimit:4;stroke-dasharray:none;stroke-opacity:1" />
    </g>
    <g
       style="stroke:black;stroke-width:6.01026535;stroke-miterlimit:4;stroke-dasharray:none;stroke-opacity:1;display:inline"
       id="g7013"
       transform="matrix(0.447218,0,0,0.447218,321.5889,949.7452)">
      <path
         sodipodi:nodetypes="ccccc"
         id="path7015"
         d="M -48.09683,-730.04688 C -27.801394,-708.10933 -13.266264,-693.34512 -5.1966744,-669.88292 L -48.539807,-650.14131 L -90.054513,-669.48764 C -82.014552,-692.18728 -66.586208,-711.13902 -48.09683,-730.04688 z "
         style="fill:#fcef3c;fill-opacity:1;fill-rule:evenodd;stroke:black;stroke-width:6.01026535;stroke-linecap:butt;stroke-linejoin:miter;stroke-miterlimit:4;stroke-dasharray:none;stroke-opacity:1" />
    </g>
    <g
       style="stroke:black;stroke-width:6.01026535;stroke-miterlimit:4;stroke-dasharray:none;stroke-opacity:1;display:inline"
       id="g7019"
       transform="matrix(0.447218,0,0,0.447218,321.5889,749.6641)">
      <path
         sodipodi:nodetypes="csssssscscsscccccccsscscssssssc"
         id="path7021"
         d="M -48.09683,-730.04688 C -18.63463,-698.20088 -1.311324,-680.63851 1.71567,-631.22551 C 4.516922,-585.49753 -25.91305,-547.26746 -32.47183,-503.03801 C -33.71586,-494.64886 -34.78343,-477.52504 -33.65933,-470.58029 C -32.82682,-465.43703 -30.2673,-449.72452 -27.47183,-469.16609 C -26.89689,-473.16463 -26.48464,-493.22641 -24.72183,-503.41301 C -21.50976,-521.97423 -11.22367,-554.61188 6.62192,-572.69426 C 24.45989,-590.7689 52.7264,-602.49289 77.93442,-593.03801 C 100.77409,-582.49963 102.93306,-552.73834 96.43442,-530.97551 C 88.29557,-503.71988 57.19325,-484.85525 29.30942,-483.00676 C 34.83452,-493.933 48.05897,-525.11969 33.71567,-523.88176 C 17.11291,-522.44882 -2.746744,-494.20056 -7.917294,-474.82293 C -9.864494,-467.52547 -9.07753,-456.19513 -19.50308,-456.66301 C -12.62837,-433.43496 6.77717,-418.06468 23.77817,-401.85051 C 6.05563,-400.37739 -11.47738,-408.7178 -26.94058,-416.66301 C -26.286749,-400.73784 -29.378446,-367.09562 -48.09683,-348.72551 C -65.471545,-367.64157 -67.052581,-390.71209 -67.37808,-416.66301 C -82.84128,-408.7178 -100.37429,-400.37739 -118.09683,-401.85051 C -101.09583,-418.06468 -81.690291,-433.43496 -74.81558,-456.66301 C -85.24113,-456.19513 -85.868385,-466.81836 -87.81558,-474.11582 C -92.98613,-493.49343 -111.43157,-522.44884 -128.03433,-523.88176 C -142.37763,-525.11969 -129.15318,-493.933 -123.62808,-483.00676 C -151.51191,-484.85525 -182.61422,-503.71988 -190.75308,-530.97551 C -197.25172,-552.73834 -195.09274,-582.49964 -172.25308,-593.03801 C -147.04505,-602.49289 -118.77855,-590.76891 -100.94058,-572.69426 C -83.094993,-554.61188 -72.808901,-521.97423 -69.59683,-503.41301 C -67.83402,-493.22641 -68.128878,-474.57884 -67.553937,-470.58029 C -64.758467,-451.13871 -61.491841,-465.43705 -60.65933,-470.58029 C -59.53523,-477.52504 -60.602801,-494.64887 -61.84683,-503.03801 C -68.40561,-547.26744 -95.955806,-587.0527 -96.03433,-631.22551 C -96.103977,-671.11179 -76.05061,-701.46041 -48.09683,-730.04688 z "
         style="fill:#fcef3c;fill-opacity:1;fill-rule:evenodd;stroke:black;stroke-width:6.01026535;stroke-linecap:butt;stroke-linejoin:miter;stroke-miterlimit:4;stroke-dasharray:none;stroke-opacity:1" />
      <rect
         transform="scale(-1,1)"
         ry="7.0119839"
         y="-474.15433"
         x="-20.840672"
         height="22"
         width="136"
         id="rect7023"
         style="fill:#fcef3c;fill-opacity:1;fill-rule:evenodd;stroke:black;stroke-width:6.01026535;stroke-linejoin:round;stroke-miterlimit:4;stroke-dasharray:none;stroke-opacity:1"
         rx="7.0119839" />
    </g>
    <g
       style="stroke:black;stroke-width:6.01026535;stroke-miterlimit:4;stroke-dasharray:none;stroke-opacity:1;display:inline"
       id="g7031"
       transform="matrix(0.447218,0,0,0.447218,422.3308,245.3104)">
      <path
         sodipodi:nodetypes="cssssccscsscccccccsscsccsssscc"
         id="path7033"
         d="M -20.907384,-544.2268 C -25.944464,-531.02465 -30.399596,-517.01222 -32.47183,-503.03801 C -33.71586,-494.64886 -34.78343,-477.52504 -33.65933,-470.58029 C -32.82682,-465.43703 -30.2673,-449.72452 -27.47183,-469.16609 C -26.89689,-473.16463 -26.48464,-493.22641 -24.72183,-503.41301 C -22.853263,-514.21068 -18.590756,-529.53844 -11.838732,-544.2268 L 99.130986,-544.2268 C 98.605922,-539.6637 97.678921,-535.14313 96.43442,-530.97551 C 88.29557,-503.71988 57.19325,-484.85525 29.30942,-483.00676 C 34.83452,-493.933 48.05897,-525.11969 33.71567,-523.88176 C 17.11291,-522.44882 -2.746744,-494.20056 -7.917294,-474.82293 C -9.864494,-467.52547 -9.07753,-456.19513 -19.50308,-456.66301 C -12.62837,-433.43496 6.77717,-418.06468 23.77817,-401.85051 C 6.05563,-400.37739 -11.47738,-408.7178 -26.94058,-416.66301 C -26.286749,-400.73784 -29.378446,-367.09562 -48.09683,-348.72551 C -65.471545,-367.64157 -67.052581,-390.71209 -67.37808,-416.66301 C -82.84128,-408.7178 -100.37429,-400.37739 -118.09683,-401.85051 C -101.09583,-418.06468 -81.690291,-433.43496 -74.81558,-456.66301 C -85.24113,-456.19513 -85.868385,-466.81836 -87.81558,-474.11582 C -92.98613,-493.49343 -111.43157,-522.44884 -128.03433,-523.88176 C -142.37763,-525.11969 -129.15318,-493.933 -123.62808,-483.00676 C -151.51191,-484.85525 -182.61422,-503.71988 -190.75308,-530.97551 C -192.003,-535.16128 -192.93265,-539.64294 -193.45648,-544.2268 L -82.575124,-544.2268 C -75.767953,-529.47788 -71.474164,-514.26134 -69.59683,-503.41301 C -67.83402,-493.22641 -68.128878,-474.57884 -67.553937,-470.58029 C -64.758467,-451.13871 -61.491841,-465.43705 -60.65933,-470.58029 C -59.53523,-477.52504 -60.602801,-494.64887 -61.84683,-503.03801 C -63.943073,-517.17412 -68.183583,-530.71029 -72.98614,-544.2268 L -20.907384,-544.2268 z "
         style="fill:#fcef3c;fill-opacity:1;fill-rule:evenodd;stroke:black;stroke-width:6.01026535;stroke-linecap:butt;stroke-linejoin:miter;stroke-miterlimit:4;stroke-dasharray:none;stroke-opacity:1" />
      <rect
         transform="scale(-1,1)"
         ry="7.0119839"
         y="-474.15433"
         x="-20.840672"
         height="22"
         width="136"
         id="rect7035"
         style="fill:#fcef3c;fill-opacity:1;fill-rule:evenodd;stroke:black;stroke-width:6.01026535;stroke-linejoin:round;stroke-miterlimit:4;stroke-dasharray:none;stroke-opacity:1"
         rx="7.0119839" />
    </g>
    <g
       style="stroke:black;stroke-width:6.01026535;stroke-miterlimit:4;stroke-dasharray:none;stroke-opacity:1;display:inline"
       id="g7037"
       transform="matrix(0.447218,0,0,0.447218,621.0487,245.3104)">
      <path
         sodipodi:nodetypes="cccccsscsccsssscc"
         id="path7039"
         d="M -48.09683,-545.23429 L -48.09683,-348.72551 C -65.471545,-367.64157 -67.052581,-390.71209 -67.37808,-416.66301 C -82.84128,-408.7178 -100.37429,-400.37739 -118.09683,-401.85051 C -101.09583,-418.06468 -81.690291,-433.43496 -74.81558,-456.66301 C -85.24113,-456.19513 -85.868385,-466.81836 -87.81558,-474.11582 C -92.98613,-493.49343 -111.43157,-522.44884 -128.03433,-523.88176 C -142.37763,-525.11969 -129.15318,-493.933 -123.62808,-483.00676 C -151.51191,-484.85525 -182.61422,-503.71988 -190.75308,-530.97551 C -191.99669,-535.14016 -192.92326,-539.59771 -193.44852,-544.15742 L -83.095522,-544.6643 C -75.986308,-529.59375 -71.521561,-514.53523 -69.59683,-503.41301 C -67.83402,-493.22641 -68.128878,-474.57884 -67.553937,-470.58029 C -64.758467,-451.13871 -61.491841,-465.43705 -60.65933,-470.58029 C -59.53523,-477.52504 -60.602801,-494.64887 -61.84683,-503.03801 C -63.947335,-517.20286 -68.200835,-530.91189 -73.01544,-544.45521 L -48.09683,-545.23429 z "
         style="fill:#fcef3c;fill-opacity:1;fill-rule:evenodd;stroke:black;stroke-width:6.01026535;stroke-linecap:butt;stroke-linejoin:miter;stroke-miterlimit:4;stroke-dasharray:none;stroke-opacity:1" />
      <path
         sodipodi:nodetypes="ccccccc"
         id="rect7041"
         d="M 51.830633,-474.15433 L 108.14734,-474.15433 C 112.03198,-474.15433 115.15933,-471.02698 115.15933,-467.14234 L 115.15933,-459.16631 C 115.15933,-455.28167 112.03198,-452.15433 108.14734,-452.15433 L 51.830651,-452.15433 L 51.830633,-474.15433 z "
         style="fill:#fcef3c;fill-opacity:1;fill-rule:evenodd;stroke-linejoin:round"
         transform="scale(-1,1)" />
    </g>
    <g
       style="stroke:black;stroke-width:6.01026535;stroke-miterlimit:4;stroke-dasharray:none;stroke-opacity:1;display:inline"
       id="g7045"
       transform="matrix(0.447218,0,0,0.447218,521.7002,345.2498)">
      <path
         sodipodi:nodetypes="csssssscscsscccccccsscscssssssc"
         id="path7047"
         d="M -48.09683,-730.04688 C -18.63463,-698.20088 -1.311324,-680.63851 1.71567,-631.22551 C 4.516922,-585.49753 -25.91305,-547.26746 -32.47183,-503.03801 C -33.71586,-494.64886 -34.78343,-477.52504 -33.65933,-470.58029 C -32.82682,-465.43703 -30.2673,-449.72452 -27.47183,-469.16609 C -26.89689,-473.16463 -26.48464,-493.22641 -24.72183,-503.41301 C -21.50976,-521.97423 -11.22367,-554.61188 6.62192,-572.69426 C 24.45989,-590.7689 52.7264,-602.49289 77.93442,-593.03801 C 100.77409,-582.49963 102.93306,-552.73834 96.43442,-530.97551 C 88.29557,-503.71988 57.19325,-484.85525 29.30942,-483.00676 C 34.83452,-493.933 48.05897,-525.11969 33.71567,-523.88176 C 17.11291,-522.44882 -2.746744,-494.20056 -7.917294,-474.82293 C -9.864494,-467.52547 -9.07753,-456.19513 -19.50308,-456.66301 C -12.62837,-433.43496 6.77717,-418.06468 23.77817,-401.85051 C 6.05563,-400.37739 -11.47738,-408.7178 -26.94058,-416.66301 C -26.286749,-400.73784 -29.378446,-367.09562 -48.09683,-348.72551 C -65.471545,-367.64157 -67.052581,-390.71209 -67.37808,-416.66301 C -82.84128,-408.7178 -100.37429,-400.37739 -118.09683,-401.85051 C -101.09583,-418.06468 -81.690291,-433.43496 -74.81558,-456.66301 C -85.24113,-456.19513 -85.868385,-466.81836 -87.81558,-474.11582 C -92.98613,-493.49343 -111.43157,-522.44884 -128.03433,-523.88176 C -142.37763,-525.11969 -129.15318,-493.933 -123.62808,-483.00676 C -151.51191,-484.85525 -182.61422,-503.71988 -190.75308,-530.97551 C -197.25172,-552.73834 -195.09274,-582.49964 -172.25308,-593.03801 C -147.04505,-602.49289 -118.77855,-590.76891 -100.94058,-572.69426 C -83.094993,-554.61188 -72.808901,-521.97423 -69.59683,-503.41301 C -67.83402,-493.22641 -68.128878,-474.57884 -67.553937,-470.58029 C -64.758467,-451.13871 -61.491841,-465.43705 -60.65933,-470.58029 C -59.53523,-477.52504 -60.602801,-494.64887 -61.84683,-503.03801 C -68.40561,-547.26744 -95.955806,-587.0527 -96.03433,-631.22551 C -96.103977,-671.11179 -76.05061,-701.46041 -48.09683,-730.04688 z "
         style="fill:#fcef3c;fill-opacity:1;fill-rule:evenodd;stroke:black;stroke-width:6.01026535;stroke-linecap:butt;stroke-linejoin:miter;stroke-miterlimit:4;stroke-dasharray:none;stroke-opacity:1" />
      <rect
         transform="scale(-1,1)"
         ry="7.0119839"
         y="-474.15433"
         x="-20.840672"
         height="22"
         width="136"
         id="rect7049"
         style="fill:#fcef3c;fill-opacity:1;fill-rule:evenodd;stroke:black;stroke-width:6.01026535;stroke-linejoin:round;stroke-miterlimit:4;stroke-dasharray:none;stroke-opacity:1"
         rx="7.0119839" />
    </g>
    <g
       transform="matrix(0.447218,0,0,0.447218,621.0487,445.068)"
       id="g7059"
       style="stroke:black;stroke-width:6.01026535;stroke-miterlimit:4;stroke-dasharray:none;stroke-opacity:1;display:inline">
      <path
         style="fill:#fcef3c;fill-opacity:1;fill-rule:evenodd;stroke:black;stroke-width:6.01026535;stroke-linecap:butt;stroke-linejoin:miter;stroke-miterlimit:4;stroke-dasharray:none;stroke-opacity:1"
         d="M -50.332876,-730.04688 L -48.773962,-464.19942 C -48.354714,-713.08154 -49.839321,-350.55363 -53.079842,-354.8416 C -65.790775,-372.53515 -67.086877,-393.44638 -67.37808,-416.66301 C -82.84128,-408.7178 -100.37429,-400.37739 -118.09683,-401.85051 C -101.09583,-418.06468 -81.690291,-433.43496 -74.81558,-456.66301 C -85.24113,-456.19513 -85.868385,-466.81836 -87.81558,-474.11582 C -92.98613,-493.49343 -111.43157,-522.44884 -128.03433,-523.88176 C -142.37763,-525.11969 -129.15318,-493.933 -123.62808,-483.00676 C -151.51191,-484.85525 -182.61422,-503.71988 -190.75308,-530.97551 C -197.25172,-552.73834 -195.09274,-582.49964 -172.25308,-593.03801 C -147.04505,-602.49289 -118.77855,-590.76891 -100.94058,-572.69426 C -83.094993,-554.61188 -72.808901,-521.97423 -69.59683,-503.41301 C -67.83402,-493.22641 -68.128878,-474.57884 -67.553937,-470.58029 C -64.758467,-451.13871 -61.491841,-465.43705 -60.65933,-470.58029 C -59.53523,-477.52504 -60.602801,-494.64887 -61.84683,-503.03801 C -68.40561,-547.26744 -95.955806,-587.0527 -96.03433,-631.22551 C -96.103977,-671.11179 -78.286656,-701.46041 -50.332876,-730.04688 z "
         id="path7061"
         sodipodi:nodetypes="ccccccsscscssssssc" />
      <path
         sodipodi:nodetypes="ccccccc"
         id="rect7063"
         d="M 51.830633,-474.15433 L 108.14734,-474.15433 C 112.03198,-474.15433 115.15933,-471.02698 115.15933,-467.14234 L 115.15933,-459.16631 C 115.15933,-455.28167 112.03198,-452.15433 108.14734,-452.15433 L 50.712627,-452.15433 L 51.830633,-474.15433 z "
         style="fill:#fcef3c;fill-opacity:1;fill-rule:evenodd;stroke-linejoin:round"
         transform="scale(-1,1)" />
    </g>
    <rect
       style="fill:#2b5df2;fill-opacity:1;stroke:black;stroke-width:3;stroke-miterlimit:4;stroke-dasharray:none;stroke-opacity:1"
       id="rect17605"
       width="30.15873"
       height="0"
       x="531.74603"
       y="177.46031" />
    <path
       style="fill:#2b5df2;fill-opacity:1;fill-rule:evenodd;stroke:none;stroke-width:1px;stroke-linecap:butt;stroke-linejoin:miter;stroke-opacity:1;display:inline"
       d="M 3.15625,2.15625 L 507.53125,506.53125 C 557.83848,445.57259 597.375,364.59121 597.375,260.6875 C 597.37501,-24.764016 597.375,2.15625 597.375,2.15625 L 3.15625,2.15625 z "
       id="path22092" />
  </g>
  <g
     inkscape:groupmode="layer"
     id="layer4"
     inkscape:label="Meubles"
     style="display:inline">
    <path
       style="fill:white;fill-opacity:1;fill-rule:evenodd;stroke:black;stroke-width:3;stroke-linecap:butt;stroke-linejoin:miter;stroke-miterlimit:4;stroke-dasharray:none;stroke-opacity:1;display:inline"
       d="M 0.375,2.15625 L 0.375,107.84375 C 20.3234,123.34878 37.744005,109.48344 58.15625,130.375 C 80.281886,153.02016 61.655609,171.26105 83.78125,193.90625 C 105.90691,216.55142 124.53068,198.32361 146.65625,220.96875 C 168.78197,243.61395 150.18692,261.82357 172.3125,284.46875 C 194.4382,307.11391 213.03065,288.88604 235.15625,311.53125 C 257.28207,334.17642 238.6868,352.41731 260.8125,375.0625 C 282.93821,397.70772 301.53054,379.4798 323.65625,402.125 C 345.78184,424.7701 327.18692,442.97981 349.3125,465.625 C 371.43823,488.27011 390.03065,470.07355 412.15625,492.71875 C 434.28194,515.36393 415.6868,533.57358 437.8125,556.21875 C 441.92664,560.42951 445.92769,563.21451 449.84375,565.125 C 481.27587,538.0354 512.59911,504.62174 538.25,464.28125 C 537.13955,463.32848 536.03405,462.31053 534.90625,461.15625 C 512.78067,438.51106 531.37573,420.30144 509.25,397.65625 C 487.12431,375.01106 468.53185,393.20759 446.40625,370.5625 C 424.28066,347.91732 442.87568,329.70762 420.75,307.0625 C 398.62439,284.41731 380.03182,302.64517 357.90625,280 C 335.78053,257.35481 354.37557,239.11393 332.25,216.46875 C 310.12429,193.82358 291.53197,212.05142 269.40625,189.40625 C 247.28056,166.76106 265.8757,148.5514 243.75,125.90625 C 221.62441,103.26109 203.03184,121.48893 180.90625,98.84375 C 158.78055,76.198583 177.37556,57.957685 155.25,35.3125 C 133.12434,12.667332 114.50067,30.895181 92.375,8.25 C 90.354915,6.1824801 88.71551,4.1566905 87.3125,2.15625 L 0.375,2.15625 z "
       id="path22989" />
    <path
       style="fill:#fcef3c;fill-opacity:1;stroke:black;stroke-width:1;stroke-miterlimit:4;stroke-dasharray:none;stroke-opacity:1"
       d="M 445.46875,16.375 L 441.53125,16.96875 L 458.34375,125.90625 L 398.65625,17.25 L 395.15625,19.1875 L 454.8125,127.90625 L 331.34375,19.8125 L 328.71875,22.8125 L 452.21875,131.09375 L 163.28125,18.875 L 161.84375,22.59375 L 450.90625,134.9375 L 273.90625,131.15625 L 273.8125,135.15625 L 450.875,139 L 301.5625,189.78125 L 302.84375,193.5625 L 452.4375,142.78125 L 350.65625,224.5625 L 353.15625,227.6875 L 455,145.90625 L 374.75,278.3125 L 378.15625,280.375 L 458.5625,147.84375 L 428.90625,297.28125 L 432.84375,298.0625 L 462.5625,148.59375 L 497.03125,371.75 L 501,371.125 L 466.59375,147.875 L 574.1875,343.75 L 577.6875,341.8125 L 470.0625,145.71875 L 578.1875,240.375 L 580.8125,237.375 L 472.65625,142.5625 L 583.34375,185.5 L 584.78125,181.78125 L 473.96875,138.71875 L 579.03125,140.9375 L 579.125,136.9375 L 474,134.65625 L 577.84375,99.3125 L 576.5625,95.5 L 472.5,130.875 L 572.84375,50.21875 L 570.34375,47.09375 L 469.90625,127.75 L 532.90625,23.6875 L 529.46875,21.625 L 466.34375,125.75 L 486.875,21.96875 L 482.9375,21.1875 L 462.3125,125.15625 L 445.46875,16.375 z "
       id="path24765" />
    <path
       sodipodi:type="arc"
       style="fill:#fcef3c;fill-opacity:1;stroke:black;stroke-width:3;stroke-miterlimit:4;stroke-dasharray:none;stroke-opacity:1;display:inline"
       id="path23876"
       sodipodi:cx="458.73016"
       sodipodi:cy="137.77777"
       sodipodi:rx="33.333332"
       sodipodi:ry="33.333332"
       d="M 492.0635 137.77777 A 33.333332 33.333332 0 1 1  425.39683,137.77777 A 33.333332 33.333332 0 1 1  492.0635 137.77777 z"
       transform="translate(2.244784,0)" />
    <path
       sodipodi:type="arc"
       style="fill:#fcef3c;fill-opacity:1;stroke:black;stroke-width:5.69452095;stroke-miterlimit:4;stroke-dasharray:none;stroke-opacity:1;display:inline"
       id="path30095"
       sodipodi:cx="458.73016"
       sodipodi:cy="137.77777"
       sodipodi:rx="33.333332"
       sodipodi:ry="33.333332"
       d="M 492.0635 137.77777 A 33.333332 33.333332 0 1 1  425.39683,137.77777 A 33.333332 33.333332 0 1 1  492.0635 137.77777 z"
       transform="matrix(0.403897,0,0,0.403897,51.778,-5.978081)" />
    <path
       sodipodi:type="arc"
       style="fill:#fcef3c;fill-opacity:1;stroke:black;stroke-width:5.69452095;stroke-miterlimit:4;stroke-dasharray:none;stroke-opacity:1;display:inline"
       id="path30097"
       sodipodi:cx="458.73016"
       sodipodi:cy="137.77777"
       sodipodi:rx="33.333332"
       sodipodi:ry="33.333332"
       d="M 492.0635 137.77777 A 33.333332 33.333332 0 1 1  425.39683,137.77777 A 33.333332 33.333332 0 1 1  492.0635 137.77777 z"
       transform="matrix(0.403897,0,0,0.403897,170.7515,-13.83482)" />
    <path
       sodipodi:type="arc"
       style="fill:#fcef3c;fill-opacity:1;stroke:black;stroke-width:5.69452095;stroke-miterlimit:4;stroke-dasharray:none;stroke-opacity:1;display:inline"
       id="path30099"
       sodipodi:cx="458.73016"
       sodipodi:cy="137.77777"
       sodipodi:rx="33.333332"
       sodipodi:ry="33.333332"
       d="M 492.0635 137.77777 A 33.333332 33.333332 0 1 1  425.39683,137.77777 A 33.333332 33.333332 0 1 1  492.0635 137.77777 z"
       transform="matrix(0.403897,0,0,0.403897,224.6263,-17.202)" />
    <path
       sodipodi:type="arc"
       style="fill:#fcef3c;fill-opacity:1;stroke:black;stroke-width:5.69452095;stroke-miterlimit:4;stroke-dasharray:none;stroke-opacity:1;display:inline"
       id="path30101"
       sodipodi:cx="458.73016"
       sodipodi:cy="137.77777"
       sodipodi:rx="33.333332"
       sodipodi:ry="33.333332"
       d="M 492.0635 137.77777 A 33.333332 33.333332 0 1 1  425.39683,137.77777 A 33.333332 33.333332 0 1 1  492.0635 137.77777 z"
       transform="matrix(0.403897,0,0,0.403897,265.0324,-12.71243)" />
    <path
       sodipodi:type="arc"
       style="fill:#fcef3c;fill-opacity:1;stroke:black;stroke-width:5.69452095;stroke-miterlimit:4;stroke-dasharray:none;stroke-opacity:1;display:inline"
       id="path30103"
       sodipodi:cx="458.73016"
       sodipodi:cy="137.77777"
       sodipodi:rx="33.333332"
       sodipodi:ry="33.333332"
       d="M 492.0635 137.77777 A 33.333332 33.333332 0 1 1  425.39683,137.77777 A 33.333332 33.333332 0 1 1  492.0635 137.77777 z"
       transform="matrix(0.403897,0,0,0.403897,150.5485,124.2194)" />
    <path
       sodipodi:type="arc"
       style="fill:#fcef3c;fill-opacity:1;stroke:black;stroke-width:5.69452095;stroke-miterlimit:4;stroke-dasharray:none;stroke-opacity:1;display:inline"
       id="path30105"
       sodipodi:cx="458.73016"
       sodipodi:cy="137.77777"
       sodipodi:rx="33.333332"
       sodipodi:ry="33.333332"
       d="M 492.0635 137.77777 A 33.333332 33.333332 0 1 1  425.39683,137.77777 A 33.333332 33.333332 0 1 1  492.0635 137.77777 z"
       transform="matrix(0.403897,0,0,0.403897,331.2535,-10.46765)" />
    <path
       sodipodi:type="arc"
       style="fill:#fcef3c;fill-opacity:1;stroke:black;stroke-width:5.69452095;stroke-miterlimit:4;stroke-dasharray:none;stroke-opacity:1;display:inline"
       id="path30107"
       sodipodi:cx="458.73016"
       sodipodi:cy="137.77777"
       sodipodi:rx="33.333332"
       sodipodi:ry="33.333332"
       d="M 492.0635 137.77777 A 33.333332 33.333332 0 1 1  425.39683,137.77777 A 33.333332 33.333332 0 1 1  492.0635 137.77777 z"
       transform="matrix(0.403897,0,0,0.403897,359.3133,13.10258)" />
    <path
       sodipodi:type="arc"
       style="fill:#fcef3c;fill-opacity:1;stroke:black;stroke-width:5.69452095;stroke-miterlimit:4;stroke-dasharray:none;stroke-opacity:1;display:inline"
       id="path30109"
       sodipodi:cx="458.73016"
       sodipodi:cy="137.77777"
       sodipodi:rx="33.333332"
       sodipodi:ry="33.333332"
       d="M 492.0635 137.77777 A 33.333332 33.333332 0 1 1  425.39683,137.77777 A 33.333332 33.333332 0 1 1  492.0635 137.77777 z"
       transform="matrix(0.403897,0,0,0.403897,361.5581,236.4585)" />
    <path
       transform="matrix(0.403897,0,0,0.403897,250.4413,209.5211)"
       d="M 492.0635 137.77777 A 33.333332 33.333332 0 1 1  425.39683,137.77777 A 33.333332 33.333332 0 1 1  492.0635 137.77777 z"
       sodipodi:ry="33.333332"
       sodipodi:rx="33.333332"
       sodipodi:cy="137.77777"
       sodipodi:cx="458.73016"
       id="path29208"
       style="fill:#fcef3c;fill-opacity:1;stroke:black;stroke-width:5.69452095;stroke-miterlimit:4;stroke-dasharray:none;stroke-opacity:1;display:inline"
       sodipodi:type="arc" />
    <path
       transform="matrix(0.233276,0,0,0.233276,444.8777,180.8377)"
       d="M 492.0635 137.77777 A 33.333332 33.333332 0 1 1  425.39683,137.77777 A 33.333332 33.333332 0 1 1  492.0635 137.77777 z"
       sodipodi:ry="33.333332"
       sodipodi:rx="33.333332"
       sodipodi:cy="137.77777"
       sodipodi:cx="458.73016"
       id="path31000"
       style="fill:#fcef3c;fill-opacity:1;stroke:black;stroke-width:6.85882807;stroke-miterlimit:4;stroke-dasharray:none;stroke-opacity:1;display:inline"
       sodipodi:type="arc" />
    <path
       transform="matrix(0.233276,0,0,0.233276,448.2449,138.1868)"
       d="M 492.0635 137.77777 A 33.333332 33.333332 0 1 1  425.39683,137.77777 A 33.333332 33.333332 0 1 1  492.0635 137.77777 z"
       sodipodi:ry="33.333332"
       sodipodi:rx="33.333332"
       sodipodi:cy="137.77777"
       sodipodi:cx="458.73016"
       id="path31002"
       style="fill:#fcef3c;fill-opacity:1;stroke:black;stroke-width:6.85882807;stroke-miterlimit:4;stroke-dasharray:none;stroke-opacity:1;display:inline"
       sodipodi:type="arc" />
    <path
       transform="matrix(0.233276,0,0,0.233276,440.3882,106.7598)"
       d="M 492.0635 137.77777 A 33.333332 33.333332 0 1 1  425.39683,137.77777 A 33.333332 33.333332 0 1 1  492.0635 137.77777 z"
       sodipodi:ry="33.333332"
       sodipodi:rx="33.333332"
       sodipodi:cy="137.77777"
       sodipodi:cx="458.73016"
       id="path31004"
       style="fill:#fcef3c;fill-opacity:1;stroke:black;stroke-width:6.85882807;stroke-miterlimit:4;stroke-dasharray:none;stroke-opacity:1;display:inline"
       sodipodi:type="arc" />
    <path
       transform="matrix(0.233276,0,0,0.233276,451.6121,73.08805)"
       d="M 492.0635 137.77777 A 33.333332 33.333332 0 1 1  425.39683,137.77777 A 33.333332 33.333332 0 1 1  492.0635 137.77777 z"
       sodipodi:ry="33.333332"
       sodipodi:rx="33.333332"
       sodipodi:cy="137.77777"
       sodipodi:cx="458.73016"
       id="path31006"
       style="fill:#fcef3c;fill-opacity:1;stroke:black;stroke-width:6.85882807;stroke-miterlimit:4;stroke-dasharray:none;stroke-opacity:1;display:inline"
       sodipodi:type="arc" />
    <path
       transform="matrix(0.233276,0,0,0.233276,402.2269,68.59848)"
       d="M 492.0635 137.77777 A 33.333332 33.333332 0 1 1  425.39683,137.77777 A 33.333332 33.333332 0 1 1  492.0635 137.77777 z"
       sodipodi:ry="33.333332"
       sodipodi:rx="33.333332"
       sodipodi:cy="137.77777"
       sodipodi:cx="458.73016"
       id="path31008"
       style="fill:#fcef3c;fill-opacity:1;stroke:black;stroke-width:6.85882807;stroke-miterlimit:4;stroke-dasharray:none;stroke-opacity:1;display:inline"
       sodipodi:type="arc" />
    <path
       transform="matrix(0.233276,0,0,0.233276,368.5551,29.31477)"
       d="M 492.0635 137.77777 A 33.333332 33.333332 0 1 1  425.39683,137.77777 A 33.333332 33.333332 0 1 1  492.0635 137.77777 z"
       sodipodi:ry="33.333332"
       sodipodi:rx="33.333332"
       sodipodi:cy="137.77777"
       sodipodi:cx="458.73016"
       id="path31010"
       style="fill:#fcef3c;fill-opacity:1;stroke:black;stroke-width:6.85882807;stroke-miterlimit:4;stroke-dasharray:none;stroke-opacity:1;display:inline"
       sodipodi:type="arc" />
    <path
       transform="matrix(0.233276,0,0,0.233276,347.2297,46.15065)"
       d="M 492.0635 137.77777 A 33.333332 33.333332 0 1 1  425.39683,137.77777 A 33.333332 33.333332 0 1 1  492.0635 137.77777 z"
       sodipodi:ry="33.333332"
       sodipodi:rx="33.333332"
       sodipodi:cy="137.77777"
       sodipodi:cx="458.73016"
       id="path31012"
       style="fill:#fcef3c;fill-opacity:1;stroke:black;stroke-width:6.85882807;stroke-miterlimit:4;stroke-dasharray:none;stroke-opacity:1;display:inline"
       sodipodi:type="arc" />
    <path
       transform="matrix(0.233276,0,0,0.233276,323.6594,42.78347)"
       d="M 492.0635 137.77777 A 33.333332 33.333332 0 1 1  425.39683,137.77777 A 33.333332 33.333332 0 1 1  492.0635 137.77777 z"
       sodipodi:ry="33.333332"
       sodipodi:rx="33.333332"
       sodipodi:cy="137.77777"
       sodipodi:cx="458.73016"
       id="path31014"
       style="fill:#fcef3c;fill-opacity:1;stroke:black;stroke-width:6.85882807;stroke-miterlimit:4;stroke-dasharray:none;stroke-opacity:1;display:inline"
       sodipodi:type="arc" />
    <path
       transform="matrix(0.233276,0,0,0.233276,285.4981,45.02826)"
       d="M 492.0635 137.77777 A 33.333332 33.333332 0 1 1  425.39683,137.77777 A 33.333332 33.333332 0 1 1  492.0635 137.77777 z"
       sodipodi:ry="33.333332"
       sodipodi:rx="33.333332"
       sodipodi:cy="137.77777"
       sodipodi:cx="458.73016"
       id="path31016"
       style="fill:#fcef3c;fill-opacity:1;stroke:black;stroke-width:6.85882807;stroke-miterlimit:4;stroke-dasharray:none;stroke-opacity:1;display:inline"
       sodipodi:type="arc" />
    <path
       transform="matrix(0.233276,0,0,0.233276,238.3577,57.37457)"
       d="M 492.0635 137.77777 A 33.333332 33.333332 0 1 1  425.39683,137.77777 A 33.333332 33.333332 0 1 1  492.0635 137.77777 z"
       sodipodi:ry="33.333332"
       sodipodi:rx="33.333332"
       sodipodi:cy="137.77777"
       sodipodi:cx="458.73016"
       id="path31018"
       style="fill:#fcef3c;fill-opacity:1;stroke:black;stroke-width:6.85882807;stroke-miterlimit:4;stroke-dasharray:none;stroke-opacity:1;display:inline"
       sodipodi:type="arc" />
    <path
       transform="matrix(0.233276,0,0,0.233276,217.0322,103.3926)"
       d="M 492.0635 137.77777 A 33.333332 33.333332 0 1 1  425.39683,137.77777 A 33.333332 33.333332 0 1 1  492.0635 137.77777 z"
       sodipodi:ry="33.333332"
       sodipodi:rx="33.333332"
       sodipodi:cy="137.77777"
       sodipodi:cx="458.73016"
       id="path31020"
       style="fill:#fcef3c;fill-opacity:1;stroke:black;stroke-width:6.85882807;stroke-miterlimit:4;stroke-dasharray:none;stroke-opacity:1;display:inline"
       sodipodi:type="arc" />
    <path
       transform="matrix(0.233276,0,0,0.233276,263.0503,177.4705)"
       d="M 492.0635 137.77777 A 33.333332 33.333332 0 1 1  425.39683,137.77777 A 33.333332 33.333332 0 1 1  492.0635 137.77777 z"
       sodipodi:ry="33.333332"
       sodipodi:rx="33.333332"
       sodipodi:cy="137.77777"
       sodipodi:cx="458.73016"
       id="path31022"
       style="fill:#fcef3c;fill-opacity:1;stroke:black;stroke-width:6.85882807;stroke-miterlimit:4;stroke-dasharray:none;stroke-opacity:1;display:inline"
       sodipodi:type="arc" />
    <path
       transform="matrix(0.233276,0,0,0.233276,300.0892,195.4287)"
       d="M 492.0635 137.77777 A 33.333332 33.333332 0 1 1  425.39683,137.77777 A 33.333332 33.333332 0 1 1  492.0635 137.77777 z"
       sodipodi:ry="33.333332"
       sodipodi:rx="33.333332"
       sodipodi:cy="137.77777"
       sodipodi:cx="458.73016"
       id="path31024"
       style="fill:#fcef3c;fill-opacity:1;stroke:black;stroke-width:6.85882807;stroke-miterlimit:4;stroke-dasharray:none;stroke-opacity:1;display:inline"
       sodipodi:type="arc" />
    <path
       sodipodi:type="arc"
       style="fill:#fcef3c;fill-opacity:1;stroke:black;stroke-width:6.85882807;stroke-miterlimit:4;stroke-dasharray:none;stroke-opacity:1;display:inline"
       id="path30998"
       sodipodi:cx="458.73016"
       sodipodi:cy="137.77777"
       sodipodi:rx="33.333332"
       sodipodi:ry="33.333332"
       d="M 492.0635 137.77777 A 33.333332 33.333332 0 1 1  425.39683,137.77777 A 33.333332 33.333332 0 1 1  492.0635 137.77777 z"
       transform="matrix(0.233276,0,0,0.233276,379.779,265.017)" />
  </g>
  <g
     inkscape:groupmode="layer"
     id="layer2"
     inkscape:label="Reflet final"
     sodipodi:insensitive="true"
     style="display:inline">
    <path
       sodipodi:nodetypes="cccccc"
       d="M 300.00001,658.5 C 300.00001,658.5 598.50001,546.17969 598.50001,260.72817 C 598.50001,-24.723334 598.50001,2.1764865 598.50001,2.1764865 L 1.5,2.1764865 L 1.5,260.72817 C 1.5,546.17969 300.00001,658.5 300.00001,658.5 z "
       style="opacity:1;fill:url(#radialGradient3163);fill-opacity:1;fill-rule:evenodd;stroke:none;stroke-width:1px;stroke-linecap:butt;stroke-linejoin:miter;stroke-opacity:1"
       id="path2875"
       inkscape:export-xdpi="144"
       inkscape:export-ydpi="144" />
  </g>
  <g
     inkscape:groupmode="layer"
     id="layer1"
     inkscape:label="Contour final"
     sodipodi:insensitive="true"
     style="display:inline">
    <path
       sodipodi:nodetypes="cccccc"
       d="M 299.99999,658.50028 C 299.99999,658.50028 1.5,546.17992 1.5,260.72828 C 1.5,-24.723336 1.5,2.1764957 1.5,2.1764957 L 598.49999,2.1764957 L 598.49999,260.72828 C 598.49999,546.17992 299.99999,658.50028 299.99999,658.50028 z "
       style="opacity:1;fill:none;fill-opacity:1;fill-rule:evenodd;stroke:black;stroke-width:3.00000048;stroke-linecap:butt;stroke-linejoin:miter;stroke-miterlimit:4;stroke-dasharray:none;stroke-opacity:1"
       id="path1411"
       inkscape:export-xdpi="144"
       inkscape:export-ydpi="144" />
  </g>
</svg>
