<?xml version="1.0" encoding="UTF-8" standalone="no"?>
<svg
   xmlns:dc="http://purl.org/dc/elements/1.1/"
   xmlns:cc="http://creativecommons.org/ns#"
   xmlns:rdf="http://www.w3.org/1999/02/22-rdf-syntax-ns#"
   xmlns:svg="http://www.w3.org/2000/svg"
   xmlns="http://www.w3.org/2000/svg"
   xmlns:xlink="http://www.w3.org/1999/xlink"
   xmlns:sodipodi="http://sodipodi.sourceforge.net/DTD/sodipodi-0.dtd"
   xmlns:inkscape="http://www.inkscape.org/namespaces/inkscape"
   height="660"
   width="600"
   version="1.0"
   id="svg2"
   sodipodi:version="0.32"
   inkscape:version="0.46"
   sodipodi:docname="0prov1.svg"
   sodipodi:docbase="C:\Documents and Settings\Standard\Mes documents\aaaOuiqui\Blasons\Blasons Yvelines svg"
   inkscape:export-filename="/Users/olivier/Desktop/Blason Rouge/Blason_Vide_3D.png"
   inkscape:export-xdpi="144"
   inkscape:export-ydpi="144"
   inkscape:output_extension="org.inkscape.output.svg.inkscape">
  <metadata
     id="metadata49">
    <rdf:RDF>
      <cc:Work
         rdf:about="">
        <dc:format>image/svg+xml</dc:format>
        <dc:type
           rdf:resource="http://purl.org/dc/dcmitype/StillImage" />
        <dc:title>Gabarit d'un blason en pointe pour le projet Blasons de Wikipédia</dc:title>
        <dc:date>03-AUG-2006</dc:date>
        <dc:creator>
          <cc:Agent>
            <dc:title>Jérôme BLUM (wagner51)</dc:title>
          </cc:Agent>
        </dc:creator>
        <cc:license
           rdf:resource="http://web.resource.org/cc/PublicDomain" />
        <dc:language>fr</dc:language>
        <dc:subject>
          <rdf:Bag>
            <rdf:li>gabarit modèle blason projet wikipédia</rdf:li>
          </rdf:Bag>
        </dc:subject>
      </cc:Work>
      <cc:License
         rdf:about="http://web.resource.org/cc/PublicDomain">
        <cc:permits
           rdf:resource="http://web.resource.org/cc/Reproduction" />
        <cc:permits
           rdf:resource="http://web.resource.org/cc/Distribution" />
        <cc:permits
           rdf:resource="http://web.resource.org/cc/DerivativeWorks" />
      </cc:License>
    </rdf:RDF>
  </metadata>
  <sodipodi:namedview
     inkscape:window-height="708"
     inkscape:window-width="1024"
     inkscape:pageshadow="2"
     inkscape:pageopacity="0.0"
     guidetolerance="10.0"
     gridtolerance="10.0"
     objecttolerance="10.0"
     borderopacity="1.0"
     bordercolor="#666666"
     pagecolor="#ffffff"
     id="base"
     showgrid="false"
     height="660px"
     inkscape:zoom="0.54854345"
     inkscape:cx="461.59991"
     inkscape:cy="272.75938"
     inkscape:window-x="-4"
     inkscape:window-y="-4"
     inkscape:current-layer="layer3"
     showguides="true"
     inkscape:guide-bbox="true" />
  <desc
     id="desc4">Flag of Canton of Valais (Wallis)</desc>
  <defs
     id="defs6">
    <linearGradient
       id="linearGradient2893">
      <stop
         style="stop-color:white;stop-opacity:0.3137255;"
         offset="0"
         id="stop2895" />
      <stop
         id="stop2897"
         offset="0.19"
         style="stop-color:white;stop-opacity:0.25098041;" />
      <stop
         style="stop-color:#6b6b6b;stop-opacity:0.1254902;"
         offset="0.60000002"
         id="stop2901" />
      <stop
         style="stop-color:black;stop-opacity:0.1254902;"
         offset="1"
         id="stop2899" />
    </linearGradient>
    <radialGradient
       inkscape:collect="always"
       xlink:href="#linearGradient2893"
       id="radialGradient3163"
       gradientUnits="userSpaceOnUse"
       gradientTransform="matrix(1.353218,0,0,1.348928,-77.62935,-85.74693)"
       cx="221.44487"
       cy="226.33101"
       fx="221.44487"
       fy="226.33101"
       r="300" />
  </defs>
  <g
     inkscape:groupmode="layer"
     id="layer3"
     inkscape:label="Fond écu"
     style="opacity:1;display:inline">
    <path
       id="path2855"
       style="fill:#2b5df2;fill-opacity:1;fill-rule:evenodd;stroke:none;stroke-width:1px;stroke-linecap:butt;stroke-linejoin:miter;stroke-opacity:1"
       d="M 300,658.5 C 300,658.5 598.50001,546.17969 598.50001,260.72817 C 598.50001,-24.723354 598.50001,2.1764765 598.50001,2.1764765 L 1.5,2.1764765 L 1.5,260.72817 C 1.5,546.17969 300,658.5 300,658.5 z "
       sodipodi:nodetypes="cccccc" />
    <path
       style="fill:white;fill-opacity:1;fill-rule:evenodd;stroke:black;stroke-width:3;stroke-linecap:butt;stroke-linejoin:miter;stroke-opacity:1;opacity:1;display:inline;stroke-miterlimit:4;stroke-dasharray:none"
       d="M 1.5 118.15625 L 1.5 260.71875 C 1.5 262.9279 1.5270197 265.12406 1.5625 267.3125 L 469.78125 548.15625 C 499.05528 520.30947 527.24469 486.76845 549.75 447.0625 L 1.5 118.15625 z "
       id="path6881" />
    <path
       style="fill:#fcef3c;fill-opacity:1;fill-rule:evenodd;stroke:black;stroke-width:3;stroke-linecap:butt;stroke-linejoin:miter;stroke-opacity:1;opacity:1;display:inline;stroke-miterlimit:4;stroke-dasharray:none"
       d="M 1.5 23.65625 L 1.5 36.65625 L 9.84375 41.65625 L 13.28125 43.6875 L 11.3125 46.96875 L 1.5 63.34375 L 1.5 82.90625 L 5.28125 85.1875 L 17.6875 92.65625 L 23.9375 82.1875 L 11.53125 74.75 L 8.09375 72.6875 L 10.0625 69.40625 L 20.28125 52.375 L 22.25 49.09375 L 25.6875 51.125 L 41.53125 60.625 L 57.40625 70.15625 L 73.25 79.65625 L 76.65625 81.71875 L 74.6875 85 L 64.46875 102.03125 L 62.5 105.3125 L 59.0625 103.28125 L 46.65625 95.8125 L 40.40625 106.28125 L 52.8125 113.71875 L 68.65625 123.21875 L 81.0625 130.65625 L 87.3125 120.21875 L 74.90625 112.78125 L 71.46875 110.71875 L 73.4375 107.4375 L 83.6875 90.375 L 85.65625 87.09375 L 89.0625 89.15625 L 104.90625 98.65625 L 120.75 108.15625 L 136.625 117.65625 L 140.0625 119.71875 L 138.0625 123 L 127.84375 140.0625 L 125.875 143.34375 L 122.46875 141.28125 L 110.03125 133.8125 L 103.75 144.28125 L 116.1875 151.71875 L 132.03125 161.21875 L 144.4375 168.65625 L 150.6875 158.21875 L 138.28125 150.78125 L 134.875 148.71875 L 136.84375 145.4375 L 147.0625 128.40625 L 149.03125 125.09375 L 152.46875 127.15625 L 168.28125 136.65625 L 184.125 146.15625 L 199.96875 155.65625 L 203.40625 157.71875 L 201.4375 161 L 191.21875 178.0625 L 189.25 181.34375 L 185.8125 179.28125 L 173.40625 171.84375 L 167.125 182.28125 L 179.53125 189.71875 L 195.40625 199.25 L 207.8125 206.6875 L 214.09375 196.25 L 201.6875 188.78125 L 198.25 186.75 L 200.21875 183.4375 L 210.4375 166.40625 L 212.40625 163.125 L 215.84375 165.1875 L 231.6875 174.6875 L 247.5 184.1875 L 263.34375 193.6875 L 266.78125 195.75 L 264.8125 199.03125 L 254.59375 216.0625 L 252.625 219.34375 L 249.1875 217.28125 L 236.78125 209.84375 L 230.53125 220.28125 L 242.9375 227.75 L 258.78125 237.25 L 271.1875 244.6875 L 277.46875 234.25 L 265.0625 226.8125 L 261.625 224.75 L 263.59375 221.46875 L 273.8125 204.40625 L 275.78125 201.125 L 279.21875 203.1875 L 295.0625 212.6875 L 310.90625 222.1875 L 326.71875 231.6875 L 330.15625 233.75 L 328.1875 237.03125 L 317.96875 254.0625 L 316 257.375 L 312.5625 255.3125 L 300.15625 247.875 L 293.90625 258.3125 L 306.3125 265.75 L 322.375 275.40625 L 334.78125 282.84375 L 341.0625 272.375 L 328.65625 264.9375 L 325.21875 262.875 L 327.1875 259.59375 L 337.40625 242.5625 L 339.375 239.28125 L 342.8125 241.34375 L 358.65625 250.84375 L 374.53125 260.34375 L 390.34375 269.84375 L 393.78125 271.90625 L 391.8125 275.1875 L 381.59375 292.21875 L 379.625 295.53125 L 376.1875 293.46875 L 363.78125 286.03125 L 357.53125 296.46875 L 369.9375 303.90625 L 385.78125 313.40625 L 398.1875 320.84375 L 404.4375 310.40625 L 392.03125 302.96875 L 388.59375 300.90625 L 390.5625 297.625 L 400.78125 280.5625 L 402.75 277.28125 L 406.1875 279.34375 L 422.03125 288.84375 L 437.875 298.34375 L 453.75 307.875 L 457.15625 309.90625 L 455.1875 313.21875 L 444.96875 330.25 L 443 333.53125 L 439.5625 331.46875 L 427.125 324.03125 L 420.875 334.46875 L 433.3125 341.90625 L 449.15625 351.40625 L 461.5625 358.875 L 467.8125 348.40625 L 455.40625 340.96875 L 451.96875 338.90625 L 453.9375 335.625 L 464.1875 318.59375 L 466.15625 315.3125 L 469.5625 317.375 L 485.40625 326.875 L 501.25 336.375 L 517.125 345.875 L 520.53125 347.9375 L 518.5625 351.21875 L 508.34375 368.25 L 506.375 371.53125 L 502.96875 369.5 L 490.53125 362.03125 L 484.25 372.46875 L 496.6875 379.9375 L 512.53125 389.4375 L 524.9375 396.875 L 531.1875 386.4375 L 518.78125 379 L 515.375 376.9375 L 517.34375 373.65625 L 527.5625 356.59375 L 529.53125 353.3125 L 532.96875 355.375 L 548.78125 364.875 L 564.625 374.375 L 578.65625 382.78125 C 579.87754 379.1921 581.06593 375.57358 582.1875 371.90625 L 1.5 23.65625 z M 1.5 45.5625 L 1.5 47.78125 L 2.46875 46.15625 L 1.5 45.5625 z M 25.1875 59.78125 L 18.90625 70.25 L 31.3125 77.6875 L 34.75 79.75 L 32.78125 83.03125 L 22.5625 100.03125 L 20.59375 103.3125 L 17.15625 101.28125 L 1.5 91.90625 L 1.5 104.84375 L 555.28125 436.96875 C 557.00708 433.7015 558.66728 430.37855 560.3125 427.03125 L 556.09375 424.5 L 540.25 415 L 536.84375 412.9375 L 538.8125 409.65625 L 549 392.65625 L 550.96875 389.34375 L 554.40625 391.40625 L 566.8125 398.84375 L 573.09375 388.375 L 560.6875 380.9375 L 544.84375 371.4375 L 532.4375 364 L 526.15625 374.46875 L 538.5625 381.90625 L 542 383.96875 L 540.03125 387.25 L 529.8125 404.28125 L 527.84375 407.5625 L 524.4375 405.5 L 508.59375 396 L 492.75 386.5 L 476.875 377 L 473.4375 374.9375 L 475.4375 371.65625 L 485.625 354.625 L 487.59375 351.34375 L 491.03125 353.40625 L 503.46875 360.875 L 509.75 350.375 L 497.3125 342.9375 L 481.46875 333.4375 L 469.0625 326 L 462.78125 336.46875 L 475.1875 343.90625 L 478.625 345.96875 L 476.65625 349.25 L 466.4375 366.25 L 464.46875 369.5625 L 461.03125 367.5 L 445.21875 358 L 429.375 348.5 L 413.5 338.96875 L 410.0625 336.90625 L 412.03125 333.625 L 422.25 316.625 L 424.21875 313.34375 L 427.65625 315.375 L 440.09375 322.84375 L 446.375 312.375 L 433.9375 304.90625 L 418.09375 295.40625 L 405.6875 287.96875 L 399.40625 298.4375 L 411.8125 305.875 L 415.25 307.9375 L 413.28125 311.21875 L 403.0625 328.25 L 401.09375 331.53125 L 397.65625 329.46875 L 381.8125 319.96875 L 366 310.46875 L 350.15625 300.96875 L 346.71875 298.90625 L 348.6875 295.625 L 358.90625 278.625 L 360.875 275.34375 L 364.28125 277.40625 L 376.6875 284.84375 L 382.96875 274.375 L 370.5625 266.90625 L 354.71875 257.40625 L 342.3125 249.96875 L 336.03125 260.4375 L 348.4375 267.875 L 351.875 269.9375 L 349.875 273.21875 L 339.6875 290.25 L 337.71875 293.53125 L 334.28125 291.46875 L 318.4375 281.96875 L 302.375 272.3125 L 286.53125 262.8125 L 283.09375 260.75 L 285.0625 257.46875 L 295.28125 240.46875 L 297.25 237.1875 L 300.6875 239.21875 L 313.09375 246.6875 L 319.375 236.21875 L 306.96875 228.75 L 291.125 219.25 L 278.71875 211.8125 L 272.4375 222.28125 L 284.84375 229.75 L 288.25 231.78125 L 286.28125 235.0625 L 276.09375 252.09375 L 274.125 255.375 L 270.6875 253.3125 L 254.84375 243.8125 L 238.96875 234.3125 L 223.15625 224.8125 L 219.71875 222.75 L 221.6875 219.46875 L 231.90625 202.4375 L 233.875 199.15625 L 237.28125 201.21875 L 249.6875 208.65625 L 255.96875 198.1875 L 243.5625 190.75 L 227.71875 181.25 L 215.3125 173.8125 L 209.03125 184.28125 L 221.46875 191.71875 L 224.875 193.78125 L 222.90625 197.0625 L 212.71875 214.09375 L 210.75 217.375 L 207.3125 215.3125 L 191.46875 205.8125 L 175.59375 196.28125 L 159.75 186.78125 L 156.34375 184.75 L 158.3125 181.4375 L 168.5 164.4375 L 170.46875 161.15625 L 173.90625 163.21875 L 186.3125 170.65625 L 192.59375 160.1875 L 180.1875 152.75 L 164.34375 143.25 L 151.9375 135.78125 L 145.65625 146.28125 L 158.0625 153.71875 L 161.5 155.75 L 159.53125 159.0625 L 149.3125 176.0625 L 147.34375 179.34375 L 143.9375 177.28125 L 128.09375 167.78125 L 112.25 158.3125 L 96.375 148.78125 L 92.96875 146.71875 L 94.9375 143.4375 L 105.125 126.4375 L 107.09375 123.125 L 110.53125 125.1875 L 122.96875 132.65625 L 129.25 122.1875 L 116.8125 114.71875 L 100.96875 105.21875 L 88.5625 97.78125 L 82.28125 108.25 L 94.6875 115.6875 L 98.125 117.75 L 96.15625 121.03125 L 85.9375 138.0625 L 83.96875 141.34375 L 80.53125 139.28125 L 64.71875 129.78125 L 48.875 120.28125 L 33.03125 110.78125 L 29.59375 108.71875 L 31.5625 105.4375 L 41.78125 88.4375 L 43.75 85.125 L 47.1875 87.1875 L 59.59375 94.625 L 65.875 84.15625 L 53.46875 76.71875 L 37.59375 67.21875 L 25.1875 59.78125 z M 2 281 C 2.2645951 286.23538 2.6616594 291.41797 3.125 296.53125 L 3.96875 295.125 L 7.375 297.1875 L 23.25 306.6875 L 39.09375 316.1875 L 54.9375 325.6875 L 58.34375 327.75 L 56.375 331.03125 L 46.1875 348.0625 L 44.21875 351.34375 L 40.78125 349.28125 L 28.375 341.84375 L 22.09375 352.3125 L 34.5 359.75 L 50.34375 369.25 L 62.75 376.6875 L 69.03125 366.21875 L 56.625 358.78125 L 53.1875 356.71875 L 55.15625 353.4375 L 65.375 336.40625 L 67.34375 333.125 L 70.75 335.1875 L 86.59375 344.6875 L 102.46875 354.1875 L 118.3125 363.6875 L 121.75 365.75 L 119.78125 369.03125 L 109.5625 386.0625 L 107.59375 389.34375 L 104.15625 387.28125 L 91.75 379.84375 L 85.46875 390.3125 L 97.875 397.75 L 113.71875 407.25 L 126.125 414.6875 L 132.40625 404.21875 L 120 396.78125 L 116.5625 394.71875 L 118.53125 391.4375 L 128.75 374.4375 L 130.71875 371.15625 L 134.15625 373.1875 L 149.96875 382.6875 L 165.84375 392.21875 L 181.6875 401.71875 L 185.125 403.78125 L 183.15625 407.0625 L 172.9375 424.0625 L 170.96875 427.34375 L 167.53125 425.3125 L 155.125 417.875 L 148.84375 428.34375 L 161.25 435.78125 L 177.09375 445.28125 L 189.5 452.71875 L 195.78125 442.25 L 183.375 434.8125 L 179.9375 432.75 L 181.90625 429.46875 L 192.125 412.4375 L 194.09375 409.15625 L 197.53125 411.21875 L 213.375 420.71875 L 229.4375 430.34375 L 245.28125 439.84375 L 248.71875 441.90625 L 246.75 445.1875 L 236.53125 462.21875 L 234.5625 465.5 L 231.125 463.4375 L 218.71875 456 L 212.4375 466.46875 L 224.84375 473.90625 L 240.71875 483.4375 L 253.125 490.875 L 259.40625 480.40625 L 247 472.96875 L 243.5625 470.90625 L 245.53125 467.625 L 255.75 450.59375 L 257.71875 447.3125 L 261.15625 449.375 L 277 458.875 L 292.8125 468.375 L 308.65625 477.875 L 312.09375 479.9375 L 310.125 483.21875 L 299.90625 500.21875 L 297.9375 503.5 L 294.53125 501.46875 L 282.09375 494 L 275.84375 504.5 L 288.25 511.9375 L 304.0625 521.4375 L 316.5 528.875 L 322.78125 518.40625 L 310.34375 510.96875 L 306.9375 508.90625 L 308.90625 505.625 L 319.09375 488.59375 L 321.0625 485.3125 L 324.5 487.375 L 340.375 496.875 L 356.21875 506.375 L 372.03125 515.875 L 375.46875 517.9375 L 373.5 521.21875 L 363.3125 538.25 L 361.34375 541.53125 L 357.90625 539.46875 L 345.5 532.03125 L 339.21875 542.5 L 351.625 549.9375 L 367.46875 559.4375 L 379.90625 566.90625 L 386.15625 556.4375 L 373.75 548.96875 L 370.3125 546.90625 L 372.28125 543.625 L 382.46875 526.625 L 384.4375 523.3125 L 387.875 525.375 L 403.75 534.90625 L 419.59375 544.40625 L 435.4375 553.90625 L 438.84375 555.96875 L 436.875 559.25 L 426.6875 576.25 L 424.71875 579.53125 L 421.28125 577.46875 L 408.875 570.03125 L 402.59375 580.5 L 415 587.96875 L 419.25 590.5 C 426.12043 585.41039 433.07664 580.01784 440.0625 574.3125 L 445.875 564.625 L 447.84375 561.34375 L 451.25 563.40625 L 452.28125 564.03125 C 455.1947 561.50379 458.09407 558.91829 461 556.28125 L 2 281 z M 6.875 305.8125 L 4.53125 309.6875 C 4.9425048 312.96271 5.3845736 316.21391 5.875 319.4375 L 13.03125 323.71875 L 16.46875 325.75 L 14.5 329.0625 L 9.1875 337.9375 C 10.203952 342.91489 11.301071 347.83928 12.5 352.6875 L 13.25 351.46875 L 23.46875 334.4375 L 25.4375 331.15625 L 28.875 333.21875 L 41.28125 340.65625 L 47.5625 330.1875 L 35.15625 322.75 L 19.3125 313.25 L 6.875 305.8125 z M 70.25 343.8125 L 64 354.25 L 76.40625 361.71875 L 79.8125 363.75 L 77.84375 367.03125 L 67.625 384.09375 L 65.65625 387.375 L 62.25 385.3125 L 46.40625 375.8125 L 30.5625 366.3125 L 14.71875 356.8125 L 13.34375 355.96875 C 14.702009 361.25167 16.155142 366.46464 17.71875 371.59375 L 402.5625 602.40625 C 405.85195 600.14525 409.18185 597.81312 412.53125 595.40625 L 411.0625 594.53125 L 395.21875 585.03125 L 391.78125 582.96875 L 393.75 579.6875 L 403.96875 562.65625 L 405.9375 559.34375 L 409.375 561.40625 L 421.78125 568.84375 L 428.0625 558.40625 L 415.65625 550.96875 L 399.8125 541.46875 L 387.375 534 L 381.09375 544.46875 L 393.53125 551.90625 L 396.96875 553.96875 L 395 557.25 L 384.78125 574.3125 L 382.8125 577.59375 L 379.375 575.53125 L 363.5 566 L 347.6875 556.5 L 331.84375 547 L 328.40625 544.96875 L 330.375 541.65625 L 340.59375 524.625 L 342.5625 521.34375 L 346 523.40625 L 358.40625 530.84375 L 364.6875 520.40625 L 352.25 512.96875 L 336.4375 503.46875 L 324 496 L 317.71875 506.4375 L 330.15625 513.90625 L 333.59375 515.96875 L 331.625 519.25 L 321.40625 536.28125 L 319.4375 539.5625 L 316 537.5 L 300.125 528 L 284.28125 518.5 L 268.46875 509 L 265.03125 506.9375 L 267 503.65625 L 277.21875 486.625 L 279.1875 483.34375 L 282.625 485.375 L 295.03125 492.84375 L 301.28125 482.375 L 288.875 474.9375 L 273.03125 465.4375 L 260.625 458 L 254.375 468.4375 L 266.78125 475.875 L 270.21875 477.9375 L 268.25 481.21875 L 258.03125 498.28125 L 256.0625 501.5625 L 252.625 499.5 L 236.78125 490 L 220.90625 480.5 L 205.0625 471 L 201.65625 468.9375 L 203.625 465.65625 L 213.84375 448.59375 L 215.8125 445.3125 L 219.25 447.375 L 231.65625 454.8125 L 237.90625 444.375 L 225.5 436.9375 L 209.4375 427.28125 L 197.03125 419.84375 L 190.75 430.28125 L 203.15625 437.71875 L 206.59375 439.78125 L 204.625 443.0625 L 194.40625 460.125 L 192.4375 463.40625 L 189 461.34375 L 173.15625 451.84375 L 157.3125 442.34375 L 141.46875 432.84375 L 138.0625 430.78125 L 140.03125 427.5 L 150.25 410.46875 L 152.21875 407.1875 L 155.65625 409.21875 L 168.0625 416.6875 L 174.3125 406.21875 L 161.90625 398.78125 L 146.03125 389.28125 L 133.625 381.84375 L 127.375 392.28125 L 139.78125 399.71875 L 143.21875 401.78125 L 141.25 405.0625 L 131.03125 422.09375 L 129.03125 425.375 L 125.625 423.34375 L 109.78125 413.84375 L 93.9375 404.34375 L 78.09375 394.84375 L 74.65625 392.78125 L 76.625 389.5 L 86.875 372.4375 L 88.84375 369.15625 L 92.25 371.21875 L 104.65625 378.65625 L 110.9375 368.21875 L 98.53125 360.78125 L 82.65625 351.25 L 70.25 343.8125 z M 553.90625 400.03125 L 547.625 410.5 L 560.03125 417.9375 L 563.65625 420.09375 C 565.37532 416.40852 567.0414 412.68637 568.65625 408.90625 L 566.3125 407.5 L 553.90625 400.03125 z "
       id="path7776" />
    <path
       style="fill:#ffffff;fill-opacity:1;fill-rule:evenodd;stroke:black;stroke-width:3;stroke-linecap:butt;stroke-linejoin:miter;stroke-miterlimit:4;stroke-dasharray:none;stroke-opacity:1;display:inline"
       d="M 1.5689595,2.1637689 L 1.4286067,181.56995 C 37.412958,182.12615 43.644517,213.0005 76.043709,213.56995 C 108.42364,214.13906 113.40035,181.46276 150.65883,181.56995 C 189.74032,181.67714 183.56186,214.14798 225.27393,213.56995 C 259.69524,213.09295 262.58148,181.56995 299.88904,181.56995 C 337.19659,181.56994 333.68363,213.56995 374.50415,213.56995 C 415.36535,213.56995 417.28074,183.39296 449.11926,181.56995 C 479.14091,179.85097 490.31162,212.51301 523.73438,213.56995 C 553.51456,214.5117 562.56491,184.94802 598.34949,181.56995 L 598.34947,2.1637689 L 1.5689595,2.1637689 z "
       id="path2944"
       sodipodi:nodetypes="cczzzzzzzccc" />
  </g>
  <g
     inkscape:groupmode="layer"
     id="layer4"
     inkscape:label="Meubles"
     style="display:inline">
    <g
       style="display:inline"
       id="g22331"
       transform="translate(-546.6213,62.45929)" />
  </g>
  <g
     inkscape:groupmode="layer"
     id="layer2"
     inkscape:label="Reflet final"
     sodipodi:insensitive="true"
     style="display:inline">
    <path
       sodipodi:nodetypes="cccccc"
       d="M 300.00001,658.5 C 300.00001,658.5 598.50001,546.17969 598.50001,260.72817 C 598.50001,-24.723334 598.50001,2.1764865 598.50001,2.1764865 L 1.5,2.1764865 L 1.5,260.72817 C 1.5,546.17969 300.00001,658.5 300.00001,658.5 z "
       style="opacity:1;fill:url(#radialGradient3163);fill-opacity:1;fill-rule:evenodd;stroke:none;stroke-width:1px;stroke-linecap:butt;stroke-linejoin:miter;stroke-opacity:1"
       id="path2875"
       inkscape:export-xdpi="144"
       inkscape:export-ydpi="144" />
  </g>
  <g
     inkscape:groupmode="layer"
     id="layer1"
     inkscape:label="Contour final"
     style="display:inline"
     sodipodi:insensitive="true">
    <path
       sodipodi:nodetypes="cccccc"
       d="M 299.99999,658.50028 C 299.99999,658.50028 1.5,546.17992 1.5,260.72828 C 1.5,-24.723336 1.5,2.1764957 1.5,2.1764957 L 598.49999,2.1764957 L 598.49999,260.72828 C 598.49999,546.17992 299.99999,658.50028 299.99999,658.50028 z "
       style="opacity:1;fill:none;fill-opacity:1;fill-rule:evenodd;stroke:black;stroke-width:3.00000048;stroke-linecap:butt;stroke-linejoin:miter;stroke-miterlimit:4;stroke-dasharray:none;stroke-opacity:1"
       id="path1411"
       inkscape:export-xdpi="144"
       inkscape:export-ydpi="144" />
  </g>
</svg>
