<?xml version="1.0" encoding="UTF-8" standalone="no"?>
<svg
   xmlns:dc="http://purl.org/dc/elements/1.1/"
   xmlns:cc="http://web.resource.org/cc/"
   xmlns:rdf="http://www.w3.org/1999/02/22-rdf-syntax-ns#"
   xmlns:svg="http://www.w3.org/2000/svg"
   xmlns="http://www.w3.org/2000/svg"
   xmlns:xlink="http://www.w3.org/1999/xlink"
   xmlns:sodipodi="http://sodipodi.sourceforge.net/DTD/sodipodi-0.dtd"
   xmlns:inkscape="http://www.inkscape.org/namespaces/inkscape"
   height="660"
   width="600"
   version="1.0"
   id="svg2"
   sodipodi:version="0.32"
   inkscape:version="0.44.1"
   sodipodi:docname="Blason département fr Charente.svg"
   sodipodi:docbase="C:\Documents and Settings\Standard\Mes documents\aaaOuiqui\Blasons\Blasons Yvelines svg"
   inkscape:export-filename="/Users/olivier/Desktop/Blason Rouge/Blason_Vide_3D.png"
   inkscape:export-xdpi="144"
   inkscape:export-ydpi="144">
  <metadata
     id="metadata49">
    <rdf:RDF>
      <cc:Work
         rdf:about="">
        <dc:format>image/svg+xml</dc:format>
        <dc:type
           rdf:resource="http://purl.org/dc/dcmitype/StillImage" />
        <dc:title>Gabarit d'un blason en pointe pour le projet Blasons de Wikipédia</dc:title>
        <dc:date>03-AUG-2006</dc:date>
        <dc:creator>
          <cc:Agent>
            <dc:title>Jérôme BLUM (wagner51)</dc:title>
          </cc:Agent>
        </dc:creator>
        <cc:license
           rdf:resource="http://web.resource.org/cc/PublicDomain" />
        <dc:language>fr</dc:language>
        <dc:subject>
          <rdf:Bag>
            <rdf:li>gabarit modèle blason projet wikipédia</rdf:li>
          </rdf:Bag>
        </dc:subject>
      </cc:Work>
      <cc:License
         rdf:about="http://web.resource.org/cc/PublicDomain">
        <cc:permits
           rdf:resource="http://web.resource.org/cc/Reproduction" />
        <cc:permits
           rdf:resource="http://web.resource.org/cc/Distribution" />
        <cc:permits
           rdf:resource="http://web.resource.org/cc/DerivativeWorks" />
      </cc:License>
    </rdf:RDF>
  </metadata>
  <sodipodi:namedview
     inkscape:window-height="712"
     inkscape:window-width="1024"
     inkscape:pageshadow="2"
     inkscape:pageopacity="0.0"
     guidetolerance="10.0"
     gridtolerance="10.0"
     objecttolerance="10.0"
     borderopacity="1.0"
     bordercolor="#666666"
     pagecolor="#ffffff"
     id="base"
     showgrid="false"
     height="660px"
     inkscape:zoom="0.44547727"
     inkscape:cx="740.86782"
     inkscape:cy="67.397419"
     inkscape:window-x="-4"
     inkscape:window-y="-4"
     inkscape:current-layer="layer4"
     showguides="true"
     inkscape:guide-bbox="true" />
  <desc
     id="desc4">Flag of Canton of Valais (Wallis)</desc>
  <defs
     id="defs6">
    <linearGradient
       id="linearGradient2893">
      <stop
         style="stop-color:white;stop-opacity:0.3137255;"
         offset="0"
         id="stop2895" />
      <stop
         id="stop2897"
         offset="0.19"
         style="stop-color:white;stop-opacity:0.25098041;" />
      <stop
         style="stop-color:#6b6b6b;stop-opacity:0.1254902;"
         offset="0.60000002"
         id="stop2901" />
      <stop
         style="stop-color:black;stop-opacity:0.1254902;"
         offset="1"
         id="stop2899" />
    </linearGradient>
    <radialGradient
       inkscape:collect="always"
       xlink:href="#linearGradient2893"
       id="radialGradient3163"
       gradientUnits="userSpaceOnUse"
       gradientTransform="matrix(1.353218,0,0,1.348928,-77.62935,-85.74693)"
       cx="221.44487"
       cy="226.33101"
       fx="221.44487"
       fy="226.33101"
       r="300" />
  </defs>
  <g
     inkscape:groupmode="layer"
     id="layer3"
     inkscape:label="Fond écu"
     style="display:inline">
    <path
       id="path2855"
       style="fill:#fcef3c;fill-opacity:1;fill-rule:evenodd;stroke:none;stroke-width:1px;stroke-linecap:butt;stroke-linejoin:miter;stroke-opacity:1"
       d="M 300,658.5 C 300,658.5 598.50001,546.17969 598.50001,260.72817 C 598.50001,-24.723354 598.50001,2.1764765 598.50001,2.1764765 L 1.5,2.1764765 L 1.5,260.72817 C 1.5,546.17969 300,658.5 300,658.5 z "
       sodipodi:nodetypes="cccccc" />
    <g
       id="g28498">
      <path
         id="path24044"
         d="M 83.4375,263.09375 L 28.8125,312.25 L 29.15625,312.5625 L 28.8125,312.875 L 82.46875,362.28125 L 82.8125,361.96875 L 83.125,362.28125 L 137.40625,313.4375 L 137.0625,313.125 L 137.40625,312.8125 L 83.4375,263.09375 z M 137.40625,312.8125 L 137.75,313.125 L 137.40625,313.4375 L 191.0625,362.84375 L 191.375,362.5625 L 191.6875,362.875 L 246,314 L 245.65625,313.6875 L 246,313.375 L 192.03125,263.65625 L 137.40625,312.8125 z M 246,313.375 L 246.34375,313.6875 L 246,314 L 299.65625,363.40625 L 299.96875,363.125 L 300.28125,363.4375 L 354.59375,314.59375 L 354.25,314.28125 L 354.59375,313.96875 L 300.59375,264.21875 L 246,313.375 z M 354.59375,313.96875 L 354.9375,314.28125 L 354.59375,314.59375 L 408.21875,364 L 408.5625,363.6875 L 408.90625,364 L 463.1875,315.15625 L 462.84375,314.84375 L 463.1875,314.53125 L 409.1875,264.8125 L 354.59375,313.96875 z M 463.1875,314.53125 L 463.53125,314.84375 L 463.1875,315.15625 L 516.8125,364.5625 L 517.15625,364.25 L 517.5,364.5625 L 572.09375,315.40625 L 517.78125,265.375 L 463.1875,314.53125 z M 517.5,364.5625 L 517.15625,364.875 L 516.8125,364.5625 L 462.5625,413.40625 L 462.875,413.71875 L 462.53125,414.03125 L 516.21875,463.4375 L 516.53125,463.15625 L 516.84375,463.46875 L 562.65625,422.25 C 564.42037,418.52948 566.12326,414.75559 567.78125,410.9375 L 517.5,364.5625 z M 516.84375,463.46875 L 516.53125,463.75 L 516.21875,463.4375 L 461.9375,512.3125 L 462.25,512.625 L 461.90625,512.9375 L 484.40625,533.65625 C 500.89963,516.59619 516.7783,497.62746 531.1875,476.6875 L 516.84375,463.46875 z M 461.90625,512.9375 L 461.59375,512.625 L 461.9375,512.3125 L 408.28125,462.875 L 407.9375,463.1875 L 407.59375,462.875 L 353.34375,511.71875 L 353.65625,512.03125 L 353.3125,512.34375 L 407,561.75 L 407.3125,561.46875 L 407.625,561.78125 L 461.90625,512.9375 z M 407.625,561.78125 L 407.3125,562.0625 L 407,561.75 L 352.71875,610.625 L 353.03125,610.9375 L 352.6875,611.25 L 367.40625,624.8125 C 386.37379,613.64431 407.8746,599.54312 429.96875,582.34375 L 407.625,561.78125 z M 352.6875,611.25 L 352.375,610.9375 L 352.71875,610.625 L 299.03125,561.21875 L 298.71875,561.5 L 298.40625,561.1875 L 244.125,610.03125 L 244.4375,610.34375 L 244.09375,610.65625 L 292.9375,655.625 C 297.46302,657.54538 300,658.5 300,658.5 C 300,658.5 300.29228,658.38267 300.3125,658.375 L 352.6875,611.25 z M 244.09375,610.65625 L 243.78125,610.34375 L 244.125,610.03125 L 190.46875,560.625 L 190.125,560.9375 L 189.78125,560.625 L 167.6875,580.53125 C 189.60104,597.77744 211.02771,611.9949 230.03125,623.3125 L 244.09375,610.65625 z M 189.78125,560.625 L 190.125,560.3125 L 190.46875,560.625 L 244.75,511.78125 L 244.40625,511.46875 L 244.75,511.15625 L 191.09375,461.75 L 190.75,462.0625 L 190.40625,461.75 L 136.15625,510.59375 L 136.5,510.90625 L 136.15625,511.21875 L 189.78125,560.625 z M 136.15625,511.21875 L 135.8125,510.90625 L 136.15625,510.59375 L 82.46875,461.1875 L 82.15625,461.46875 L 81.84375,461.15625 L 67.1875,474.34375 C 81.429995,495.35159 97.183844,514.38052 113.5625,531.53125 L 136.15625,511.21875 z M 81.84375,461.15625 L 82.15625,460.875 L 82.46875,461.1875 L 136.78125,412.3125 L 136.4375,412 L 136.78125,411.6875 L 83.125,362.28125 L 82.78125,362.59375 L 82.46875,362.28125 L 31.15625,408.46875 C 32.620797,411.90922 34.136366,415.29427 35.6875,418.65625 L 81.84375,461.15625 z M 136.78125,411.6875 L 137.125,412 L 136.78125,412.3125 L 190.40625,461.75 L 190.75,461.4375 L 191.09375,461.75 L 245.375,412.90625 L 245.03125,412.59375 L 245.375,412.28125 L 191.6875,362.875 L 191.375,363.15625 L 191.0625,362.84375 L 136.78125,411.6875 z M 245.375,412.28125 L 245.71875,412.59375 L 245.375,412.90625 L 299,462.3125 L 299.34375,462 L 299.6875,462.3125 L 353.96875,413.46875 L 353.625,413.15625 L 353.96875,412.84375 L 300.28125,363.4375 L 299.96875,363.71875 L 299.65625,363.40625 L 245.375,412.28125 z M 353.96875,412.84375 L 354.3125,413.15625 L 353.96875,413.46875 L 407.59375,462.875 L 407.9375,462.5625 L 408.28125,462.875 L 462.53125,414.03125 L 462.21875,413.71875 L 462.5625,413.40625 L 408.90625,364 L 408.5625,364.3125 L 408.21875,364 L 353.96875,412.84375 z M 299.6875,462.3125 L 299.34375,462.625 L 299,462.3125 L 244.75,511.15625 L 245.09375,511.46875 L 244.75,511.78125 L 298.40625,561.1875 L 298.71875,560.90625 L 299.03125,561.21875 L 353.3125,512.34375 L 353,512.03125 L 353.34375,511.71875 L 299.6875,462.3125 z M 28.8125,312.875 L 28.46875,312.5625 L 28.8125,312.25 L 2.40625,287.9375 C 3.4362138,303.01815 5.3503585,317.60031 7.96875,331.65625 L 28.8125,312.875 z "
         style="fill:#e20909;fill-opacity:1;fill-rule:evenodd;stroke:black;stroke-width:3;stroke-linecap:butt;stroke-linejoin:miter;stroke-miterlimit:4;stroke-dasharray:none;stroke-opacity:1;display:inline" />
      <path
         id="path27611"
         d="M 597.3125 291.21875 L 571.8125 315.15625 L 591.71875 333.28125 C 594.30337 319.74269 596.19947 305.71225 597.3125 291.21875 z "
         style="fill:#e20909;fill-opacity:1;fill-rule:evenodd;stroke:black;stroke-width:3;stroke-linecap:butt;stroke-linejoin:miter;stroke-opacity:1;display:inline;stroke-miterlimit:4;stroke-dasharray:none" />
    </g>
    <path
       style="fill:#2b5df2;fill-opacity:1;fill-rule:evenodd;stroke:black;stroke-width:3;stroke-linecap:butt;stroke-linejoin:miter;stroke-miterlimit:4;stroke-dasharray:none;stroke-opacity:1;display:inline"
       d="M 1.84375,2.53125 L 1.84375,277.25 C 2.1702035,285.201 2.7205272,293.04621 3.5,300.71875 C 41.672217,304.13059 47.714839,330.91693 76.375,328.5625 C 114.91839,325.39615 113.63533,300.5625 150.90625,300.5625 C 188.17717,300.56249 198.36195,328.5625 225.46875,328.5625 C 254.16285,328.56249 262.72908,300.5625 300,300.5625 C 337.27092,300.56249 337.07334,328.5625 374.53125,328.5625 C 411.95551,328.56249 411.82284,300.5625 449.09375,300.5625 C 486.36466,300.56249 492.22216,327.36344 523.625,328.5625 C 552.98574,329.68358 560.09403,305.15043 596.46875,300.75 C 597.25004,293.06642 597.82931,285.21288 598.15625,277.25 C 598.15625,103.7826 598.15625,2.53125 598.15625,2.53125 L 1.84375,2.53125 z "
       id="path25834" />
  </g>
  <g
     inkscape:groupmode="layer"
     id="layer4"
     inkscape:label="Meubles"
     style="display:inline">
    <path
       style="fill:#2b5df2;fill-opacity:0.99541285;fill-rule:evenodd;stroke:black;stroke-width:3;stroke-linecap:butt;stroke-linejoin:miter;stroke-miterlimit:4;stroke-dasharray:none;stroke-opacity:1;display:inline"
       d="M 1.84375,2.53125 L 1.84375,277.25 C 2.1702035,285.201 2.7205272,293.04621 3.5,300.71875 C 41.672217,304.13059 47.714839,330.91693 76.375,328.5625 C 114.91839,325.39615 113.63533,300.5625 150.90625,300.5625 C 188.17717,300.56249 198.36195,328.5625 225.46875,328.5625 C 254.16285,328.56249 262.72908,300.5625 300,300.5625 C 337.27092,300.56249 337.07334,328.5625 374.53125,328.5625 C 411.95551,328.56249 411.82284,300.5625 449.09375,300.5625 C 486.36466,300.56249 492.22216,327.36344 523.625,328.5625 C 552.98574,329.68358 560.09403,305.15043 596.46875,300.75 C 597.25004,293.06642 597.82931,285.21288 598.15625,277.25 C 598.15625,103.7826 598.15625,2.53125 598.15625,2.53125 L 1.84375,2.53125 z "
       id="path14180" />
    <path
       id="rect15444"
       style="fill:white;fill-opacity:1;stroke:black;stroke-width:2.60686851;stroke-miterlimit:4;stroke-opacity:1;display:inline"
       d="M 325.04559,34.272436 L 488.2301,34.272438 L 538.3212,34.272438 L 542.45179,111.37932 C 542.88655,117.61479 545.19823,122.61122 550.713,127.04812 L 475.83831,127.04812 C 480.64828,121.82519 484.17199,117.7629 484.0995,111.37932 L 488.2301,52.816142 L 325.04559,52.816142 L 329.17619,111.37933 C 329.6109,117.6148 331.92261,122.61123 337.43739,127.04812 L 262.56264,127.04812 C 267.37259,121.8252 270.89634,117.76291 270.82384,111.37933 L 274.95443,52.816142 L 111.76995,52.816142 L 115.90055,111.37932 C 116.33526,117.61479 118.64696,122.61122 124.16174,127.04812 L 49.287006,127.04812 C 54.096953,121.82519 57.620703,117.7629 57.548201,111.37932 L 61.6788,34.272438 L 111.76995,34.272438 L 274.95443,34.272436 L 325.04559,34.272436 z "
       sodipodi:nodetypes="ccccccccccccccccccccccc" />
    <g
       style="display:inline"
       id="g16352"
       transform="translate(-7.995681,0)">
      <g
         transform="matrix(0.40196,0,0,0.40196,183.2857,403.7702)"
         id="g3419"
         style="stroke:black;stroke-width:6.01026535;stroke-miterlimit:4;stroke-dasharray:none;stroke-opacity:1;display:inline">
        <path
           style="fill:#fcef3c;fill-opacity:1;fill-rule:evenodd;stroke:black;stroke-width:6.01026535;stroke-linecap:butt;stroke-linejoin:miter;stroke-miterlimit:4;stroke-dasharray:none;stroke-opacity:1"
           d="M -48.09683,-730.04688 C -18.63463,-698.20088 -1.311324,-680.63851 1.71567,-631.22551 C 4.516922,-585.49753 -25.91305,-547.26746 -32.47183,-503.03801 C -33.71586,-494.64886 -34.78343,-477.52504 -33.65933,-470.58029 C -32.82682,-465.43703 -30.2673,-449.72452 -27.47183,-469.16609 C -26.89689,-473.16463 -26.48464,-493.22641 -24.72183,-503.41301 C -21.50976,-521.97423 -11.22367,-554.61188 6.62192,-572.69426 C 24.45989,-590.7689 52.7264,-602.49289 77.93442,-593.03801 C 100.77409,-582.49963 102.93306,-552.73834 96.43442,-530.97551 C 88.29557,-503.71988 57.19325,-484.85525 29.30942,-483.00676 C 34.83452,-493.933 48.05897,-525.11969 33.71567,-523.88176 C 17.11291,-522.44882 -2.746744,-494.20056 -7.917294,-474.82293 C -9.864494,-467.52547 -9.07753,-456.19513 -19.50308,-456.66301 C -12.62837,-433.43496 6.77717,-418.06468 23.77817,-401.85051 C 6.05563,-400.37739 -11.47738,-408.7178 -26.94058,-416.66301 C -26.286749,-400.73784 -29.378446,-367.09562 -48.09683,-348.72551 C -65.471545,-367.64157 -67.052581,-390.71209 -67.37808,-416.66301 C -82.84128,-408.7178 -100.37429,-400.37739 -118.09683,-401.85051 C -101.09583,-418.06468 -81.690291,-433.43496 -74.81558,-456.66301 C -85.24113,-456.19513 -85.868385,-466.81836 -87.81558,-474.11582 C -92.98613,-493.49343 -111.43157,-522.44884 -128.03433,-523.88176 C -142.37763,-525.11969 -129.15318,-493.933 -123.62808,-483.00676 C -151.51191,-484.85525 -182.61422,-503.71988 -190.75308,-530.97551 C -197.25172,-552.73834 -195.09274,-582.49964 -172.25308,-593.03801 C -147.04505,-602.49289 -118.77855,-590.76891 -100.94058,-572.69426 C -83.094993,-554.61188 -72.808901,-521.97423 -69.59683,-503.41301 C -67.83402,-493.22641 -68.128878,-474.57884 -67.553937,-470.58029 C -64.758467,-451.13871 -61.491841,-465.43705 -60.65933,-470.58029 C -59.53523,-477.52504 -60.602801,-494.64887 -61.84683,-503.03801 C -68.40561,-547.26744 -95.955806,-587.0527 -96.03433,-631.22551 C -96.103977,-671.11179 -76.05061,-701.46041 -48.09683,-730.04688 z "
           id="path3421"
           sodipodi:nodetypes="csssssscscsscccccccsscscssssssc" />
        <rect
           rx="7.0119839"
           style="fill:#fcef3c;fill-opacity:1;fill-rule:evenodd;stroke:black;stroke-width:6.01026535;stroke-linejoin:round;stroke-miterlimit:4;stroke-dasharray:none;stroke-opacity:1"
           id="rect3423"
           width="136"
           height="22"
           x="-20.840672"
           y="-474.15433"
           ry="7.0119839"
           transform="scale(-1,1)" />
      </g>
      <g
         transform="matrix(0.40196,0,0,0.40196,470.618,403.7702)"
         id="g16346"
         style="stroke:black;stroke-width:6.01026535;stroke-miterlimit:4;stroke-dasharray:none;stroke-opacity:1;display:inline">
        <path
           style="fill:#fcef3c;fill-opacity:1;fill-rule:evenodd;stroke:black;stroke-width:6.01026535;stroke-linecap:butt;stroke-linejoin:miter;stroke-miterlimit:4;stroke-dasharray:none;stroke-opacity:1"
           d="M -48.09683,-730.04688 C -18.63463,-698.20088 -1.311324,-680.63851 1.71567,-631.22551 C 4.516922,-585.49753 -25.91305,-547.26746 -32.47183,-503.03801 C -33.71586,-494.64886 -34.78343,-477.52504 -33.65933,-470.58029 C -32.82682,-465.43703 -30.2673,-449.72452 -27.47183,-469.16609 C -26.89689,-473.16463 -26.48464,-493.22641 -24.72183,-503.41301 C -21.50976,-521.97423 -11.22367,-554.61188 6.62192,-572.69426 C 24.45989,-590.7689 52.7264,-602.49289 77.93442,-593.03801 C 100.77409,-582.49963 102.93306,-552.73834 96.43442,-530.97551 C 88.29557,-503.71988 57.19325,-484.85525 29.30942,-483.00676 C 34.83452,-493.933 48.05897,-525.11969 33.71567,-523.88176 C 17.11291,-522.44882 -2.746744,-494.20056 -7.917294,-474.82293 C -9.864494,-467.52547 -9.07753,-456.19513 -19.50308,-456.66301 C -12.62837,-433.43496 6.77717,-418.06468 23.77817,-401.85051 C 6.05563,-400.37739 -11.47738,-408.7178 -26.94058,-416.66301 C -26.286749,-400.73784 -29.378446,-367.09562 -48.09683,-348.72551 C -65.471545,-367.64157 -67.052581,-390.71209 -67.37808,-416.66301 C -82.84128,-408.7178 -100.37429,-400.37739 -118.09683,-401.85051 C -101.09583,-418.06468 -81.690291,-433.43496 -74.81558,-456.66301 C -85.24113,-456.19513 -85.868385,-466.81836 -87.81558,-474.11582 C -92.98613,-493.49343 -111.43157,-522.44884 -128.03433,-523.88176 C -142.37763,-525.11969 -129.15318,-493.933 -123.62808,-483.00676 C -151.51191,-484.85525 -182.61422,-503.71988 -190.75308,-530.97551 C -197.25172,-552.73834 -195.09274,-582.49964 -172.25308,-593.03801 C -147.04505,-602.49289 -118.77855,-590.76891 -100.94058,-572.69426 C -83.094993,-554.61188 -72.808901,-521.97423 -69.59683,-503.41301 C -67.83402,-493.22641 -68.128878,-474.57884 -67.553937,-470.58029 C -64.758467,-451.13871 -61.491841,-465.43705 -60.65933,-470.58029 C -59.53523,-477.52504 -60.602801,-494.64887 -61.84683,-503.03801 C -68.40561,-547.26744 -95.955806,-587.0527 -96.03433,-631.22551 C -96.103977,-671.11179 -76.05061,-701.46041 -48.09683,-730.04688 z "
           id="path16348"
           sodipodi:nodetypes="csssssscscsscccccccsscscssssssc" />
        <rect
           rx="7.0119839"
           style="fill:#fcef3c;fill-opacity:1;fill-rule:evenodd;stroke:black;stroke-width:6.01026535;stroke-linejoin:round;stroke-miterlimit:4;stroke-dasharray:none;stroke-opacity:1"
           id="rect16350"
           width="136"
           height="22"
           x="-20.840672"
           y="-474.15433"
           ry="7.0119839"
           transform="scale(-1,1)" />
      </g>
    </g>
    <path
       style="fill:white;fill-opacity:1;fill-rule:evenodd;stroke:black;stroke-width:3;stroke-linecap:butt;stroke-linejoin:miter;stroke-miterlimit:4;stroke-dasharray:none;stroke-opacity:1;display:inline"
       d="M 150.90625,292.5625 C 113.63533,292.5625 114.91839,317.39615 76.375,320.5625 C 47.714839,322.91693 41.672217,296.13059 3.5,292.71875 C 3.2531304,292.69668 3.0250584,292.70664 2.78125,292.6875 C 3.6729411,303.75104 5.0194487,314.5588 6.78125,325.0625 C 40.652006,330.20112 47.388416,354.56282 74.78125,352.3125 C 113.32464,349.14615 112.04158,324.3125 149.3125,324.3125 C 186.58342,324.31249 196.7682,352.3125 223.875,352.3125 C 252.5691,352.31249 261.13534,324.3125 298.40625,324.3125 C 335.67717,324.31249 335.4796,352.3125 372.9375,352.3125 C 410.36176,352.31249 410.2291,324.3125 447.5,324.3125 C 484.77091,324.31249 490.62839,351.11344 522.03125,352.3125 C 550.9508,353.41673 558.30797,329.63883 593.28125,324.71875 C 595.01471,314.32424 596.33684,303.62967 597.21875,292.6875 C 596.96544,292.71501 596.72585,292.7189 596.46875,292.75 C 560.09403,297.15043 552.98574,321.68358 523.625,320.5625 C 492.22216,319.36344 486.36466,292.56249 449.09375,292.5625 C 411.82284,292.5625 411.95551,320.56249 374.53125,320.5625 C 337.07334,320.5625 337.27092,292.56249 300,292.5625 C 262.72908,292.5625 254.16285,320.56249 225.46875,320.5625 C 198.36195,320.5625 188.17717,292.56249 150.90625,292.5625 z "
       id="path24934" />
    <g
       transform="matrix(0.40196,0,0,0.40196,318.9562,430.7076)"
       id="g16340"
       style="stroke:black;stroke-width:6.01026535;stroke-miterlimit:4;stroke-dasharray:none;stroke-opacity:1;display:inline">
      <path
         style="fill:#fcef3c;fill-opacity:1;fill-rule:evenodd;stroke:black;stroke-width:6.01026535;stroke-linecap:butt;stroke-linejoin:miter;stroke-miterlimit:4;stroke-dasharray:none;stroke-opacity:1"
         d="M -48.09683,-730.04688 C -18.63463,-698.20088 -1.311324,-680.63851 1.71567,-631.22551 C 4.516922,-585.49753 -25.91305,-547.26746 -32.47183,-503.03801 C -33.71586,-494.64886 -34.78343,-477.52504 -33.65933,-470.58029 C -32.82682,-465.43703 -30.2673,-449.72452 -27.47183,-469.16609 C -26.89689,-473.16463 -26.48464,-493.22641 -24.72183,-503.41301 C -21.50976,-521.97423 -11.22367,-554.61188 6.62192,-572.69426 C 24.45989,-590.7689 52.7264,-602.49289 77.93442,-593.03801 C 100.77409,-582.49963 102.93306,-552.73834 96.43442,-530.97551 C 88.29557,-503.71988 57.19325,-484.85525 29.30942,-483.00676 C 34.83452,-493.933 48.05897,-525.11969 33.71567,-523.88176 C 17.11291,-522.44882 -2.746744,-494.20056 -7.917294,-474.82293 C -9.864494,-467.52547 -9.07753,-456.19513 -19.50308,-456.66301 C -12.62837,-433.43496 6.77717,-418.06468 23.77817,-401.85051 C 6.05563,-400.37739 -11.47738,-408.7178 -26.94058,-416.66301 C -26.286749,-400.73784 -29.378446,-367.09562 -48.09683,-348.72551 C -65.471545,-367.64157 -67.052581,-390.71209 -67.37808,-416.66301 C -82.84128,-408.7178 -100.37429,-400.37739 -118.09683,-401.85051 C -101.09583,-418.06468 -81.690291,-433.43496 -74.81558,-456.66301 C -85.24113,-456.19513 -85.868385,-466.81836 -87.81558,-474.11582 C -92.98613,-493.49343 -111.43157,-522.44884 -128.03433,-523.88176 C -142.37763,-525.11969 -129.15318,-493.933 -123.62808,-483.00676 C -151.51191,-484.85525 -182.61422,-503.71988 -190.75308,-530.97551 C -197.25172,-552.73834 -195.09274,-582.49964 -172.25308,-593.03801 C -147.04505,-602.49289 -118.77855,-590.76891 -100.94058,-572.69426 C -83.094993,-554.61188 -72.808901,-521.97423 -69.59683,-503.41301 C -67.83402,-493.22641 -68.128878,-474.57884 -67.553937,-470.58029 C -64.758467,-451.13871 -61.491841,-465.43705 -60.65933,-470.58029 C -59.53523,-477.52504 -60.602801,-494.64887 -61.84683,-503.03801 C -68.40561,-547.26744 -95.955806,-587.0527 -96.03433,-631.22551 C -96.103977,-671.11179 -76.05061,-701.46041 -48.09683,-730.04688 z "
         id="path16342"
         sodipodi:nodetypes="csssssscscsscccccccsscscssssssc" />
      <rect
         rx="7.0119839"
         style="fill:#fcef3c;fill-opacity:1;fill-rule:evenodd;stroke:black;stroke-width:6.01026535;stroke-linejoin:round;stroke-miterlimit:4;stroke-dasharray:none;stroke-opacity:1"
         id="rect16344"
         width="136"
         height="22"
         x="-20.840672"
         y="-474.15433"
         ry="7.0119839"
         transform="scale(-1,1)" />
    </g>
  </g>
  <g
     inkscape:groupmode="layer"
     id="layer2"
     inkscape:label="Reflet final"
     sodipodi:insensitive="true">
    <path
       sodipodi:nodetypes="cccccc"
       d="M 300.00001,658.5 C 300.00001,658.5 598.50001,546.17969 598.50001,260.72817 C 598.50001,-24.723334 598.50001,2.1764865 598.50001,2.1764865 L 1.5,2.1764865 L 1.5,260.72817 C 1.5,546.17969 300.00001,658.5 300.00001,658.5 z "
       style="opacity:1;fill:url(#radialGradient3163);fill-opacity:1;fill-rule:evenodd;stroke:none;stroke-width:1px;stroke-linecap:butt;stroke-linejoin:miter;stroke-opacity:1"
       id="path2875"
       inkscape:export-xdpi="144"
       inkscape:export-ydpi="144" />
  </g>
  <g
     inkscape:groupmode="layer"
     id="layer1"
     inkscape:label="Contour final"
     sodipodi:insensitive="true">
    <path
       sodipodi:nodetypes="cccccc"
       d="M 299.99999,658.50028 C 299.99999,658.50028 1.5,546.17992 1.5,260.72828 C 1.5,-24.723336 1.5,2.1764957 1.5,2.1764957 L 598.49999,2.1764957 L 598.49999,260.72828 C 598.49999,546.17992 299.99999,658.50028 299.99999,658.50028 z "
       style="opacity:1;fill:none;fill-opacity:1;fill-rule:evenodd;stroke:#000000;stroke-width:3.00000048;stroke-linecap:butt;stroke-linejoin:miter;stroke-miterlimit:4;stroke-dasharray:none;stroke-opacity:1"
       id="path1411"
       inkscape:export-xdpi="144"
       inkscape:export-ydpi="144" />
  </g>
</svg>
