<?xml version="1.0" encoding="UTF-8" standalone="no"?>
<!-- Created with Inkscape (http://www.inkscape.org/) -->
<svg
   xmlns:svg="http://www.w3.org/2000/svg"
   xmlns="http://www.w3.org/2000/svg"
   xmlns:xlink="http://www.w3.org/1999/xlink"
   version="1.0"
   width="600"
   height="660"
   id="svg2">
  <desc
     id="desc4">Flag of Canton of Valais (Wallis)</desc>
  <defs
     id="defs6">
    <linearGradient
       id="linearGradient2893">
      <stop
         id="stop2895"
         style="stop-color:#ffffff;stop-opacity:0.3137255"
         offset="0" />
      <stop
         id="stop2897"
         style="stop-color:#ffffff;stop-opacity:0.25098041"
         offset="0.19" />
      <stop
         id="stop2901"
         style="stop-color:#6b6b6b;stop-opacity:0.1254902"
         offset="0.60000002" />
      <stop
         id="stop2899"
         style="stop-color:#000000;stop-opacity:0.1254902"
         offset="1" />
    </linearGradient>
    <linearGradient
       id="linearGradient2885">
      <stop
         id="stop2887"
         style="stop-color:#ffffff;stop-opacity:1"
         offset="0" />
      <stop
         id="stop2891"
         style="stop-color:#ffffff;stop-opacity:1"
         offset="0.22857143" />
      <stop
         id="stop2889"
         style="stop-color:#000000;stop-opacity:1"
         offset="1" />
    </linearGradient>
    <linearGradient
       id="linearGradient2955">
      <stop
         id="stop2867"
         style="stop-color:#fd0000;stop-opacity:1"
         offset="0" />
      <stop
         id="stop2873"
         style="stop-color:#e77275;stop-opacity:0.65882355"
         offset="0.5" />
      <stop
         id="stop2959"
         style="stop-color:#000000;stop-opacity:0.32291666"
         offset="1" />
    </linearGradient>
    <radialGradient
       cx="225.52438"
       cy="218.90099"
       r="300"
       fx="225.52438"
       fy="218.90099"
       id="radialGradient2961"
       xlink:href="#linearGradient2955"
       gradientUnits="userSpaceOnUse"
       gradientTransform="matrix(-4.167939e-4,2.182867,-1.884232,-3.599562e-4,615.5972,-289.1214)" />
    <polygon
       points="0,-1 0.58778525,0.80901699 -0.95105652,-0.30901699 0.95105652,-0.30901699 -0.58778525,0.80901699 0,-1 "
       transform="scale(53,53)"
       id="star" />
    <clipPath
       id="clip">
      <path
         d="M 0,-200 L 0,600 L 300,600 L 300,-200 L 0,-200 z"
         id="path10" />
    </clipPath>
    <radialGradient
       cx="225.52438"
       cy="218.90099"
       r="300"
       fx="225.52438"
       fy="218.90099"
       id="radialGradient1911"
       xlink:href="#linearGradient2955"
       gradientUnits="userSpaceOnUse"
       gradientTransform="matrix(-4.167939e-4,2.182867,-1.884232,-3.599562e-4,615.5972,-289.1214)" />
    <radialGradient
       cx="225.52438"
       cy="218.90099"
       r="300"
       fx="225.52438"
       fy="218.90099"
       id="radialGradient2865"
       xlink:href="#linearGradient2955"
       gradientUnits="userSpaceOnUse"
       gradientTransform="matrix(0,1.748721,-1.593162,-1.049767e-7,551.7876,-191.2898)" />
    <radialGradient
       cx="225.52438"
       cy="218.90099"
       r="300"
       fx="225.52438"
       fy="218.90099"
       id="radialGradient2871"
       xlink:href="#linearGradient2955"
       gradientUnits="userSpaceOnUse"
       gradientTransform="matrix(0,1.386237,-1.323286,-5.741131e-8,-158.0823,-109.5408)" />
    <radialGradient
       cx="221.44487"
       cy="226.33101"
       r="300"
       fx="221.44487"
       fy="226.33101"
       id="radialGradient3163"
       xlink:href="#linearGradient2893"
       gradientUnits="userSpaceOnUse"
       gradientTransform="matrix(1.353218,0,0,1.348928,-77.62935,-85.74693)" />
  </defs>
  <g
     id="layer3"
     style="display:inline">
    <path
       d="M 300,658.5 C 300,658.5 598.50001,546.17969 598.50001,260.72817 C 598.50001,-24.723354 598.50001,2.1764765 598.50001,2.1764765 L 1.5,2.1764765 L 1.5,260.72817 C 1.5,546.17969 300,658.5 300,658.5 z"
       id="path2855"
       style="fill:#ff0000;fill-opacity:1;fill-rule:evenodd;stroke:none;stroke-width:1px;stroke-linecap:butt;stroke-linejoin:miter;stroke-opacity:1" />
    <g
       transform="translate(481.12171,-11.102808)"
       id="g9419">
      <path
         d="M -391.17314,127.44262 C -396.17723,131.21511 -403.66704,131.86674 -406.62914,128.14516 C -406.62914,128.14516 -401.59803,129.32292 -399.32267,126.59957 C -396.23478,122.90372 -396.12278,121.15754 -395.66942,121.96277 L -391.17314,127.44262 z"
         id="path1994"
         style="fill:#2b5df2;fill-opacity:1;fill-rule:evenodd;stroke:#000000;stroke-width:3;stroke-linecap:butt;stroke-linejoin:miter;stroke-miterlimit:4;stroke-dasharray:none;stroke-opacity:1;display:inline" />
      <path
         d="M -400.72776,111.5651 C -405.10961,108.14235 -410.39395,108.53385 -412.53051,114.09426 C -413.09645,113.88203 -412.29145,107.12975 -409.86084,104.68016 C -407.36155,102.16134 -406.69939,101.27281 -402.9759,101.16743 C -399.25241,101.06205 -394.54536,103.27507 -394.54536,103.27507 L -400.72776,111.5651 z"
         id="path1996"
         style="fill:#2b5df2;fill-opacity:1;fill-rule:evenodd;stroke:#000000;stroke-width:3;stroke-linecap:butt;stroke-linejoin:miter;stroke-miterlimit:4;stroke-dasharray:none;stroke-opacity:1;display:inline" />
      <path
         d="M -393.14026,96.109105 C -395.43816,89.822382 -397.02469,83.239959 -406.91015,84.306344 C -406.91015,84.306344 -401.97616,81.192145 -396.23147,82.058202 C -389.13289,83.128365 -383.91181,91.74915 -384.2882,91.893836 L -393.14026,96.109105 z"
         id="path1998"
         style="fill:#2b5df2;fill-opacity:1;fill-rule:evenodd;stroke:#000000;stroke-width:3;stroke-linecap:butt;stroke-linejoin:miter;stroke-miterlimit:4;stroke-dasharray:none;stroke-opacity:1;display:inline" />
      <path
         d="M -376.84122,92.315362 C -373.84692,89.455118 -374.16596,83.28153 -373.18798,78.404966 C -373.18798,78.404966 -369.3591,81.742057 -368.41067,86.413979 C -367.46224,91.085911 -369.39424,97.092669 -369.39424,97.092669 L -376.84122,92.315362 z"
         id="path2000"
         style="fill:#2b5df2;fill-opacity:1;fill-rule:evenodd;stroke:#000000;stroke-width:3;stroke-linecap:butt;stroke-linejoin:miter;stroke-miterlimit:4;stroke-dasharray:none;stroke-opacity:1;display:inline" />
      <path
         d="M -354.50028,147.81643 L -359.4181,145.39265 C -357.63468,143.49307 -359.67044,141.97542 -361.52573,140.43971 C -362.6271,138.61476 -364.64351,138.59703 -366.86508,139.38589 C -367.18529,135.90014 -369.71396,135.25384 -372.62595,135.10037 C -373.27473,129.78379 -375.93114,130.08856 -378.38681,129.83128 C -379.37642,127.11626 -381.16824,126.60373 -382.81285,127.02109 C -383.35442,126.03975 -384.83361,125.76161 -388.36296,127.02109 C -388.36296,127.02109 -390.6111,130.88509 -393.14026,129.83128 C -395.66942,128.77746 -398.12834,125.75652 -399.04165,123.64888 C -399.95496,121.54124 -395.59918,121.96277 -395.66943,119.43361 C -395.73968,116.90445 -397.4258,115.07783 -399.32267,113.53223 C -401.21953,111.98663 -403.95947,113.67274 -403.46768,110.0195 C -402.9759,106.36627 -402.74758,103.02918 -400.30623,101.09718 C -397.86489,99.165183 -393.7023,102.29151 -393.7023,102.29151 C -393.7023,102.29151 -390.97994,101.79973 -391.48051,100.20143 C -391.98107,98.603144 -395.70456,95.898345 -394.26434,94.001475 C -391.38391,90.207728 -389.20602,88.416238 -385.69329,88.381112 C -382.18056,88.345985 -383.48027,93.825837 -381.26725,94.28249 C -379.05424,94.739148 -378.65027,89.25929 -375.15511,90.629254 C -371.65995,91.999217 -367.10453,94.738012 -368.27017,98.49776 C -369.26051,101.69208 -370.43273,100.58229 -370.04771,101.72155 C -369.50978,103.3133 -371.00683,101.90648 -365.31948,107.13906 C -362.90303,109.36229 -359.56958,112.52451 -355.75526,115.51884 C -351.94093,118.51316 -347.56375,122.61592 -343.79745,125.63137 C -340.03115,128.64683 -336.4542,129.87244 -333.95934,131.88979 C -331.46448,133.90714 -329.9112,135.17062 -329.9112,135.17062 L -354.50028,147.81643 z"
         id="path2002"
         style="fill:#f7d55d;fill-opacity:1;fill-rule:evenodd;stroke:#000000;stroke-width:3.00000024;stroke-linecap:butt;stroke-linejoin:miter;stroke-miterlimit:4;stroke-dasharray:none;stroke-opacity:1;display:inline" />
      <path
         d="M -382.03604,250.96109 C -381.4918,243.55 -389.07862,239.29815 -396.4425,239.33655 C -396.4425,239.33655 -387.64959,235.93367 -382.63217,237.74688 C -377.61474,239.56009 -375.77668,242.41656 -375.77668,242.41656 L -382.03604,250.96109 z"
         id="path2004"
         style="fill:#2b5df2;fill-opacity:1;fill-rule:evenodd;stroke:#000000;stroke-width:3;stroke-linecap:butt;stroke-linejoin:miter;stroke-miterlimit:4;stroke-dasharray:none;stroke-opacity:1;display:inline" />
      <path
         d="M -385.81153,262.08882 C -392.34612,256.37583 -396.65386,262.14155 -402.30443,264.67208 C -402.30443,264.67208 -398.6283,255.9537 -394.15734,253.24625 C -389.68636,250.53885 -384.42056,253.84239 -384.42056,253.84239 L -385.81153,262.08882 z"
         id="path2006"
         style="fill:#2b5df2;fill-opacity:1;fill-rule:evenodd;stroke:#000000;stroke-width:3;stroke-linecap:butt;stroke-linejoin:miter;stroke-miterlimit:4;stroke-dasharray:none;stroke-opacity:1;display:inline" />
      <path
         d="M -380.84378,272.12367 C -383.48392,273.35326 -385.74445,276.10122 -386.80507,283.64885 C -386.80507,283.64885 -387.89798,276.64433 -387.20249,272.91851 C -386.50701,269.19269 -384.02314,268.74562 -384.02314,268.74562 L -380.84378,272.12367 z"
         id="path2008"
         style="fill:#2b5df2;fill-opacity:1;fill-rule:evenodd;stroke:#000000;stroke-width:3;stroke-linecap:butt;stroke-linejoin:miter;stroke-miterlimit:4;stroke-dasharray:none;stroke-opacity:1;display:inline" />
      <path
         d="M -365.74183,273.31596 C -367.98992,275.60753 -368.19567,278.77441 -366.73539,282.65532 C -366.73539,282.65532 -370.70958,277.53852 -371.70313,274.90563 C -372.69668,272.2727 -370.70958,272.12367 -370.70958,272.12367 L -365.74183,273.31596 z"
         id="path2010"
         style="fill:#2b5df2;fill-opacity:1;fill-rule:evenodd;stroke:#000000;stroke-width:3;stroke-linecap:butt;stroke-linejoin:miter;stroke-miterlimit:4;stroke-dasharray:none;stroke-opacity:1;display:inline" />
      <path
         d="M -326.32141,210.1918 C -329.24529,210.19247 -332.06282,210.36243 -334.55246,210.77079 C -347.83056,212.94868 -351.96913,222.00634 -351.96913,222.00634 C -351.96913,222.00634 -342.91149,235.28256 -347.47804,241.3947 C -352.04458,247.50684 -364.55664,250.64175 -369.40144,246.44913 L -373.04752,243.28815 C -374.82986,241.74574 -374.10249,239.36371 -376.91267,240.76876 C -379.72286,242.17386 -382.31988,246.13105 -382.89036,247.57581 C -384.47686,251.59376 -378.94696,251.80088 -378.94696,251.80088 L -380.63699,253.19359 C -380.79678,253.55307 -382.5785,250.63529 -384.28307,251.80088 C -386.99076,253.65239 -387.9368,258.40372 -387.86655,261.42464 C -387.79629,264.44561 -384.0014,263.88144 -384.0014,263.88144 L -383.15638,266.96417 C -383.15638,266.96417 -385.62817,267.46182 -385.34716,269.49921 C -385.06613,271.53661 -381.88336,273.6394 -380.35532,274.13114 C -378.82729,274.62293 -378.03935,271.75258 -378.03935,271.75258 L -371.92083,270.6259 C -371.92083,270.62589 -373.47213,272.5839 -371.01322,273.42696 C -368.55432,274.27002 -366.64018,274.77104 -364.4096,274.06855 C -362.17902,273.36599 -363.76801,270.12515 -363.76801,270.12515 C -347.51534,265.33489 -329.97866,262.42446 -309.24901,264.16311 C -315.47319,256.25764 -317.05393,246.67286 -316.55681,236.34026 C -308.43106,234.75248 -303.72166,236.57459 -299.42182,238.81271 C -297.34838,236.51639 -294.07492,232.83928 -295.40017,230.29998 C -297.96758,225.38063 -302.0686,219.24508 -304.14763,212.31997 C -309.58974,211.40842 -318.36369,210.18997 -326.32141,210.1918 z"
         id="path2012"
         style="fill:#f7d55d;fill-opacity:1;fill-rule:evenodd;stroke:#000000;stroke-width:3.00000024;stroke-linecap:butt;stroke-linejoin:miter;stroke-miterlimit:4;stroke-dasharray:none;stroke-opacity:1;display:inline" />
      <path
         d="M -400.81411,159.15717 C -402.04014,155.93715 -405.7999,153.10694 -410.45154,150.41394 C -410.45154,150.41394 -404.01831,151.10942 -400.21798,152.40104 C -396.41766,153.69265 -395.25024,155.58039 -395.25024,155.58039 L -400.81411,159.15717 z"
         id="path2014"
         style="fill:#2b5df2;fill-opacity:1;fill-rule:evenodd;stroke:#000000;stroke-width:3;stroke-linecap:butt;stroke-linejoin:miter;stroke-miterlimit:4;stroke-dasharray:none;stroke-opacity:1;display:inline" />
      <path
         d="M -406.17928,170.9804 C -411.29583,167.4381 -415.14628,171.49234 -419.29412,173.76234 C -419.29412,173.76234 -415.71235,167.17934 -412.03622,164.8445 C -408.36009,162.50966 -404.5896,164.42298 -404.5896,164.42298 L -406.17928,170.9804 z"
         id="path2016"
         style="fill:#2b5df2;fill-opacity:1;fill-rule:evenodd;stroke:#000000;stroke-width:3;stroke-linecap:butt;stroke-linejoin:miter;stroke-miterlimit:4;stroke-dasharray:none;stroke-opacity:1;display:inline" />
      <path
         d="M -402.70185,183.00234 C -406.30858,183.0369 -410.1474,183.90958 -415.41928,189.95719 C -415.41928,189.95719 -415.59315,185.11363 -412.93541,181.81009 C -410.27766,178.50654 -404.78831,176.74298 -404.78831,176.74298 L -402.70185,183.00234 z"
         id="path2018"
         style="fill:#2b5df2;fill-opacity:1;fill-rule:evenodd;stroke:#000000;stroke-width:3;stroke-linecap:butt;stroke-linejoin:miter;stroke-miterlimit:4;stroke-dasharray:none;stroke-opacity:1;display:inline" />
      <path
         d="M -396.9403,187.78343 C -397.22176,189.73741 -399.39901,191.76164 -402.63367,192.97795 C -402.63367,192.97795 -396.88986,193.18923 -394.55475,192.04364 C -392.21965,190.89804 -392.76636,189.06299 -392.76636,189.06299 L -396.9403,187.78343 z"
         id="path2020"
         style="fill:#2b5df2;fill-opacity:1;fill-rule:evenodd;stroke:#000000;stroke-width:3;stroke-linecap:butt;stroke-linejoin:miter;stroke-miterlimit:4;stroke-dasharray:none;stroke-opacity:1;display:inline" />
      <path
         d="M -294.80244,315.24369 C -293.04952,316.36807 -292.29824,318.19355 -295.79599,322.99338 C -295.79599,322.99338 -290.87792,320.65854 -289.23856,318.62179 C -287.59921,316.585 -289.23856,314.8463 -289.23856,314.8463 L -294.80244,315.24369 z"
         id="path2022"
         style="fill:#2b5df2;fill-opacity:1;fill-rule:evenodd;stroke:#000000;stroke-width:3;stroke-linecap:butt;stroke-linejoin:miter;stroke-miterlimit:4;stroke-dasharray:none;stroke-opacity:1;display:inline" />
      <path
         d="M -306.72503,312.66048 C -306.94637,317.81564 -311.80788,317.57067 -317.25664,319.81403 C -317.25664,319.81403 -309.8547,321.80115 -306.3276,319.61533 C -302.80051,317.42951 -301.16115,315.44239 -301.16115,315.44239 L -306.72503,312.66048 z"
         id="path2024"
         style="fill:#2b5df2;fill-opacity:1;fill-rule:evenodd;stroke:#000000;stroke-width:3;stroke-linecap:butt;stroke-linejoin:miter;stroke-miterlimit:4;stroke-dasharray:none;stroke-opacity:1;display:inline" />
      <path
         d="M -308.71213,310.07727 C -313.58572,304.58295 -319.96873,309.65453 -325.80117,310.87211 C -325.80117,310.87211 -320.08826,304.91079 -315.46826,303.51981 C -310.84825,302.12883 -307.32116,305.30824 -307.32116,305.30824 L -308.71213,310.07727 z"
         id="path2026"
         style="fill:#2b5df2;fill-opacity:1;fill-rule:evenodd;stroke:#000000;stroke-width:3;stroke-linecap:butt;stroke-linejoin:miter;stroke-miterlimit:4;stroke-dasharray:none;stroke-opacity:1;display:inline" />
      <path
         d="M -305.33406,298.35339 C -307.30165,289.66595 -315.18729,290.84191 -321.62826,289.61011 C -321.62826,289.61011 -312.09019,286.48044 -307.12245,286.43076 C -302.15471,286.38109 -301.75728,289.41142 -301.75728,289.41142 L -305.33406,298.35339 z"
         id="path2028"
         style="fill:#2b5df2;fill-opacity:1;fill-rule:evenodd;stroke:#000000;stroke-width:3;stroke-linecap:butt;stroke-linejoin:miter;stroke-miterlimit:4;stroke-dasharray:none;stroke-opacity:1;display:inline" />
      <path
         d="M -336.7302,146.5391 C -336.7302,146.5391 -357.49537,155.18297 -371.30571,158.06426 C -385.11604,160.94556 -392.76636,157.07072 -392.76636,157.07072 C -392.76636,157.07072 -392.07088,152.79845 -395.5483,153.29523 C -399.02572,153.792 -401.41024,156.17653 -402.70185,158.6604 C -403.34767,159.90233 -401.16185,160.64749 -400.60298,161.87701 C -400.04411,163.10652 -401.5096,164.42298 -401.5096,164.42298 C -401.5096,164.42298 -404.68895,160.34943 -406.27863,162.8333 C -407.86831,165.31717 -409.55735,168.39717 -408.46444,171.77524 C -407.91799,173.46427 -405.88121,171.62621 -404.37847,172.34653 C -402.87573,173.06685 -403.09927,175.74943 -403.09927,175.74943 C -403.09927,175.74943 -406.87476,174.40814 -406.27863,177.1404 C -405.6825,179.87267 -405.88121,182.70428 -403.6954,184.49267 C -401.5096,186.28106 -400.51605,182.30686 -400.51605,182.30686 L -397.13798,185.0888 C -397.13798,185.0888 -399.42314,187.07589 -397.5354,188.66557 C -395.64765,190.25525 -393.46185,191.44751 -391.57411,191.44751 C -389.68636,191.44751 -390.18314,187.67202 -390.18314,187.67202 C -388.59105,185.75599 -386.67143,184.49501 -384.02314,184.69138 C -379.86752,186.23987 -380.15963,189.12269 -381.2412,192.24235 C -375.9392,192.38096 -372.05569,189.6826 -367.72894,187.87073 C -364.46195,188.36777 -363.57894,189.75879 -364.54958,191.84493 C -357.30912,194.15688 -351.30995,190.88301 -345.07602,188.66557 C -343.74138,189.75253 -343.27182,191.35853 -344.57925,194.03073 C -337.42569,183.43288 -330.27214,179.32621 -323.11859,181.71073 C -317.43057,190.1809 -311.80196,195.55056 -305.33406,201.68106 C -306.44051,212.9858 -299.21679,222.97924 -295.39857,230.29529 C -293.55528,233.82717 -300.64152,239.60636 -300.96244,240.72753 C -303.13545,248.31893 -301.56325,260.37861 -301.03063,260.2011 C -299.34128,256.77818 -296.59341,255.47238 -293.41147,255.03462 C -293.71298,257.4911 -295.44371,258.87561 -293.01406,263.38045 C -289.76594,266.71909 -286.27893,269.46049 -282.28373,270.93144 C -286.96411,276.89295 -290.02853,283.93589 -294.20631,290.40496 C -295.29959,292.09789 -296.39211,291.29919 -298.18051,290.40496 C -299.9689,289.51077 -299.88366,286.60953 -301.35986,286.82821 C -304.93739,287.35815 -309.65625,296.32626 -307.87906,299.71027 C -306.56502,302.21231 -305.28188,299.51448 -304.44693,300.66555 C -303.61197,301.81667 -303.42324,303.40239 -304.53922,304.31465 C -305.6552,305.22691 -307.32116,301.54271 -308.91084,303.33108 C -310.50051,305.1195 -310.27064,308.02886 -309.77386,310.06315 C -309.27708,312.09739 -307.41551,310.83595 -307.41551,310.83595 L -306.62044,312.06579 C -307.36008,312.53995 -307.84009,312.33189 -307.52985,313.58276 C -307.05914,315.48059 -302.94052,318.68809 -301.22556,316.30753 C -300.56525,315.39091 -300.36289,314.85992 -300.33636,314.86452 L -296.85837,314.19903 C -296.04395,314.0432 -297.02976,316.85495 -296.49853,316.9901 C -294.1147,317.59636 -288.51993,317.52045 -287.03071,316.23933 C -284.99407,314.48726 -287.97043,311.9078 -284.59385,312.28717 C -284.59385,312.28717 -283.71885,312.91391 -283.0231,312.46364 C -270.40822,304.29923 -261.69481,291.39819 -260.82307,288.41788 C -259.93731,285.38966 -261.31984,285.63593 -259.73016,284.34435 C -258.14049,283.05271 -254.46436,283.25141 -254.46436,283.25141 C -254.46436,283.25141 -247.65962,280.2017 -253.66952,276.09787 C -258.51975,272.78592 -263.22531,256.99921 -261.61791,255.03462 C -261.99363,249.65948 -265.14665,244.78935 -268.37404,239.93269 C -269.30863,235.11464 -267.81506,231.91536 -265.5921,229.20235 C -264.3209,228.74472 -245.99764,251.28717 -239.75983,259.00882 C -231.82692,268.82885 -221.08111,253.04755 -221.08111,253.04755 C -221.08111,253.04755 -213.92756,243.31075 -214.42433,230.89138 C -214.92111,218.47204 -223.06821,203.37009 -223.06821,203.37009 C -224.84703,195.40551 -219.83163,189.38214 -214.32498,183.49911 C -219.58126,185.95527 -225.05615,186.00683 -229.82434,193.83202 C -229.82434,193.83202 -231.11596,188.26815 -230.02305,182.30686 C -228.93015,176.34557 -222.8695,172.37137 -222.8695,172.37137 C -229.98564,175.9323 -235.9602,179.6835 -236.77918,184.29396 C -238.99473,170.86434 -232.69813,159.05609 -223.86305,147.73136 C -233.06339,153.65814 -241.18009,160.45185 -245.125,170.58298 C -250.1569,146.58622 -231.39417,135.21991 -210.7482,116.73263 C -195.25278,102.85737 -207.56885,90.502937 -207.56885,90.502937 C -219.40716,87.049981 -229.22155,91.028177 -237.37531,95.470681 C -237.37531,95.470681 -245.18535,87.324024 -249.89403,95.073266 C -255.35492,104.06043 -259.72239,108.61684 -257.24629,118.91843 C -258.52328,117.21578 -246.2336,108.66394 -236.77918,108.58553 C -229.16793,108.5224 -234.59338,99.44488 -234.59338,99.44488 C -234.59338,99.44488 -215.31853,91.198425 -211.54304,94.874555 C -207.76755,98.550686 -206.42395,103.098 -216.11337,112.1623 L -240.75338,135.21264 C -252.63696,146.32953 -255.82149,158.14358 -249.09919,177.1404 C -241.93702,197.38032 -220.64674,213.18361 -220.98176,226.61914 C -221.31677,240.05468 -220.00659,240.87536 -223.86304,246.88754 C -227.71949,252.89973 -230.73311,259.10847 -237.97144,250.16624 C -245.20977,241.22402 -254.79714,226.31369 -262.5121,215.39203 C -275.01585,197.69118 -280.52017,191.77041 -285.46308,177.53782 C -290.40598,163.30524 -284.27082,165.81394 -284.46953,157.46813 C -284.66824,149.12232 -286.25792,144.15458 -286.25792,144.15458 L -336.7302,146.5391 z"
         id="path2030"
         style="fill:#f7d55d;fill-opacity:1;fill-rule:evenodd;stroke:#000000;stroke-width:3.00000024;stroke-linecap:butt;stroke-linejoin:miter;stroke-miterlimit:4;stroke-dasharray:none;stroke-opacity:1;display:inline" />
      <path
         d="M -302.79296,108.4739 C -312.76197,109.89603 -322.28718,113.16994 -333.14291,112.40815 C -347.87312,111.37447 -343.58528,104.33006 -341.57345,102.01048 C -339.65625,99.800011 -332.0953,107.19134 -325.55542,109.59797 C -317.96747,112.39028 -310.37953,108.85179 -302.79296,108.4739 z"
         id="path2032"
         style="fill:#2b5df2;fill-opacity:1;fill-rule:evenodd;stroke:#000000;stroke-width:3.00000024;stroke-linecap:butt;stroke-linejoin:miter;stroke-miterlimit:4;stroke-dasharray:none;stroke-opacity:1;display:inline" />
      <path
         d="M -307.57026,102.01049 C -309.96454,99.465519 -314.66802,99.336426 -319.44328,99.973107 C -320.24339,98.881674 -323.74399,96.837829 -332.72138,97.233176 C -335.95693,93.129885 -336.50017,86.653346 -332.58087,84.165837 C -328.99524,81.8901 -322.47763,82.942782 -321.76168,82.479728 C -317.56718,79.766881 -319.44328,76.156819 -310.23993,74.611223 C -301.03659,73.065623 -284.94831,76.29733 -284.94831,76.29733 C -277.69486,77.003356 -277.10901,73.256455 -273.97586,79.158118 C -272.36001,81.125244 -270.51465,78.504525 -271.85767,82.133191 C -273.11926,85.541826 -277.50133,88.521614 -277.50133,88.521614 C -277.50133,88.521614 -280.38176,97.057543 -277.50133,102.99405 C -274.62089,108.93055 -264.5745,113.1107 -264.5745,113.1107 C -269.11994,113.35025 -272.62545,114.18404 -274.55064,115.92088 C -275.62788,116.76393 -276.55936,118.38793 -276.09623,119.71462 C -275.00205,122.84909 -269.07079,128.14516 -269.07079,128.14516 C -269.07079,128.14516 -271.49457,127.02109 -272.72402,129.97178 C -273.95348,132.92247 -273.9886,139.94792 -273.9886,139.94792 C -273.9886,139.94792 -281.78713,140.04814 -283.68372,145.28727 C -286.3098,152.54151 -279.95686,163.48841 -278.6254,161.58632 C -278.6254,161.58632 -282.77042,163.16705 -285.93187,162.00784 C -289.09332,160.84865 -291.97375,156.94952 -291.97375,156.94952 C -295.0091,157.50004 -297.54789,158.98173 -298.71819,161.02428 C -318.59793,154.4929 -323.79399,162.64519 -328.64661,171.14093 C -330.15348,172.6663 -332.01082,173.31546 -334.26698,172.96755 C -331.26173,169.16403 -330.79885,164.72492 -330.75426,160.18123 C -339.10694,160.70881 -346.85082,167.76069 -357.73199,166.22312 C -352.09932,162.42493 -349.14059,157.55716 -350.98756,150.76712 C -355.61608,147.92828 -362.25691,147.50419 -368.69169,146.83287 C -348.9713,142.63601 -336.62285,137.63393 -333.70494,129.97178 L -320.77811,128.84771 C -316.12223,126.06134 -315.99433,123.68661 -315.29826,121.26022 C -318.45818,117.90887 -323.65836,120.70178 -328.08458,119.43361 C -329.95046,118.89901 -330.07622,116.48374 -329.19009,115.82271 C -328.74703,115.4922 -328.25947,114.2899 -327.49886,114.12954 C -326.73825,113.96919 -325.70459,114.85078 -324.73136,114.75381 C -321.1047,114.39245 -309.591,114.17477 -305.88415,113.53222 C -303.6158,109.3784 -304.56867,105.20099 -307.57026,102.01049 z"
         id="path2034"
         style="fill:#f7d55d;fill-opacity:1;fill-rule:evenodd;stroke:#000000;stroke-width:3.00000024;stroke-linecap:butt;stroke-linejoin:miter;stroke-miterlimit:4;stroke-dasharray:none;stroke-opacity:1;display:inline" />
      <path
         d="M -300.76373,83.548062 C -300.76225,84.536255 -302.45303,85.337717 -304.53922,85.337717 C -306.62541,85.337717 -308.31619,84.536255 -308.31471,83.548062 C -308.31619,82.559868 -306.62541,81.758406 -304.53922,81.758406 C -302.45303,81.758406 -300.76225,82.559868 -300.76373,83.548062 z"
         id="path2036"
         style="fill:#ffffff;fill-opacity:1;fill-rule:evenodd;stroke:#000000;stroke-width:3.00000024;stroke-linecap:butt;stroke-linejoin:miter;stroke-miterlimit:4;stroke-dasharray:none;stroke-opacity:1;display:inline" />
      <path
         d="M -310.18791,212.86767 C -311.85815,212.83822 -313.05973,213.61709 -314.44428,214.0726 C -309.38075,218.08836 -304.33668,222.10861 -304.25716,227.38938 C -308.21532,235.6565 -304.15921,237.41182 -298.81153,238.12418 C -296.77273,235.82515 -294.19992,232.59976 -295.40017,230.29998 C -297.24644,226.76238 -299.8762,222.58858 -301.98815,217.9534 C -302.88749,217.00499 -303.91129,216.00973 -305.11783,214.93326 C -307.30478,213.40319 -308.88884,212.89058 -310.18791,212.86767 z"
         id="path3914"
         style="fill:#f7d55d;fill-opacity:1;fill-rule:evenodd;stroke:#000000;stroke-width:3.00000024;stroke-linecap:butt;stroke-linejoin:miter;stroke-miterlimit:4;stroke-dasharray:none;stroke-opacity:1" />
      <path
         d="M -271.52532,82.051624 C -270.57927,81.206199 -270.76902,80.801679 -272.70793,79.530469 C -277.64747,76.291942 -284.58198,73.833747 -292.02344,72.683366 C -295.15467,72.199307 -303.39477,72.268557 -307.04363,72.809596 C -308.76202,73.064393 -310.23293,73.336996 -310.31231,73.41538 C -310.39169,73.493765 -310.29948,74.003061 -310.1074,74.547148 C -309.75837,75.535826 -309.75705,75.536248 -307.844,75.277601 C -303.14306,74.642027 -296.27338,74.579466 -293.02873,75.142682 C -291.27786,75.446602 -288.63608,75.887308 -287.1581,76.122026 C -283.11915,76.763453 -275.90538,79.719084 -273.66538,81.650269 C -272.37847,82.759774 -272.32829,82.769184 -271.52532,82.051624 z"
         id="path8796"
         style="fill:#0000ff;fill-opacity:1;stroke:#000000;stroke-width:1.5;stroke-miterlimit:4;stroke-dasharray:none;stroke-opacity:1" />
      <path
         d="M -262.20008,71.863047 C -259.712,69.156057 -257.17988,66.375758 -256.57313,65.684605 L -255.46996,64.427964 L -256.8111,63.752347 C -258.47131,62.916002 -258.51514,62.916457 -260.57493,63.791438 C -261.63004,64.23964 -262.36859,64.794869 -262.55555,65.280443 C -262.84522,66.032786 -264.21064,66.409546 -264.21064,65.737133 C -264.21064,65.562449 -264.806,65.243389 -265.53366,65.028112 C -267.0589,64.57687 -268.68962,65.044691 -269.26003,66.097134 C -269.6984,66.905951 -268.91781,68.410036 -267.56664,69.360085 C -266.01614,70.450283 -266.2395,71.274588 -268.72367,73.63008 C -271.11145,75.894173 -270.80312,75.859521 -273.59328,74.177375 C -275.66563,72.927972 -282.79808,70.364412 -284.23954,70.350865 C -284.5582,70.347871 -285.90092,70.086162 -287.22335,69.76929 C -289.16283,69.304568 -289.57464,69.097667 -289.35293,68.699342 C -289.20176,68.427743 -288.66933,66.344269 -288.16975,64.069401 C -287.67018,61.794532 -287.2027,59.871973 -287.1309,59.797049 C -287.0591,59.722124 -286.39328,59.858663 -285.65129,60.10047 C -284.34658,60.525661 -284.26884,60.508549 -283.28737,59.580029 C -282.49463,58.830069 -282.31853,58.437769 -282.48277,57.787602 C -282.75696,56.702146 -283.4618,55.952815 -284.6756,55.456352 C -285.73879,55.021487 -285.88834,54.500055 -285.24267,53.479135 C -284.88771,52.917893 -284.94744,52.711845 -285.66153,52.034208 C -286.1196,51.599521 -286.89862,51.151355 -287.39268,51.038284 C -288.11929,50.871992 -288.41706,51.00755 -288.95067,51.747531 C -289.3135,52.250689 -289.66323,53.032664 -289.72785,53.485254 C -289.83246,54.21799 -290.04248,54.327689 -291.64486,54.486525 C -293.06715,54.627513 -293.61155,54.856812 -294.24183,55.58037 C -294.68043,56.083875 -295.03929,56.631468 -295.03929,56.797243 C -295.03929,57.445016 -292.64358,59.436941 -291.8645,59.436941 C -291.42077,59.436941 -290.96089,59.591636 -290.84256,59.78071 C -290.61309,60.147334 -291.51666,66.182306 -292.06165,67.92308 L -292.3876,68.964195 L -298.99117,69.153068 C -302.62314,69.256948 -306.22412,69.435831 -306.99335,69.550585 C -308.28641,69.743485 -308.42895,69.688122 -308.88223,68.816933 C -309.15188,68.298669 -309.79752,66.472122 -310.31699,64.75794 C -311.22544,61.760161 -311.23769,61.627598 -310.63828,61.283594 C -309.26568,60.495862 -307.77286,59.002755 -307.77286,58.417621 C -307.77286,57.622681 -308.99679,56.832594 -310.47194,56.675279 C -311.32017,56.584819 -311.6534,56.375142 -311.72806,55.884884 C -311.8904,54.818971 -313.28534,53.773224 -314.81511,53.570613 C -316.08679,53.402185 -316.2077,53.445851 -316.03544,54.011349 C -315.93028,54.356577 -314.69232,58.659349 -313.28442,63.573065 C -311.87652,68.486782 -310.70133,72.52363 -310.67288,72.543839 C -310.64443,72.564048 -309.33943,72.383485 -307.77286,72.142588 C -304.27472,71.604663 -294.64527,71.52208 -291.49564,72.002992 C -283.81903,73.175125 -276.44345,75.821765 -271.75025,79.088399 L -270.07478,80.254584 L -268.39932,78.519714 C -267.47781,77.565539 -264.68815,74.570037 -262.20008,71.863047 z"
         id="path8798"
         style="fill:#0000ff;fill-opacity:1;stroke:#000000;stroke-width:1.5;stroke-miterlimit:4;stroke-dasharray:none;stroke-opacity:1" />
    </g>
    <g
       transform="translate(756.45709,-11.102808)"
       id="g9446"
       style="display:inline">
      <path
         d="M -391.17314,127.44262 C -396.17723,131.21511 -403.66704,131.86674 -406.62914,128.14516 C -406.62914,128.14516 -401.59803,129.32292 -399.32267,126.59957 C -396.23478,122.90372 -396.12278,121.15754 -395.66942,121.96277 L -391.17314,127.44262 z"
         id="path9448"
         style="fill:#2b5df2;fill-opacity:1;fill-rule:evenodd;stroke:#000000;stroke-width:3;stroke-linecap:butt;stroke-linejoin:miter;stroke-miterlimit:4;stroke-dasharray:none;stroke-opacity:1;display:inline" />
      <path
         d="M -400.72776,111.5651 C -405.10961,108.14235 -410.39395,108.53385 -412.53051,114.09426 C -413.09645,113.88203 -412.29145,107.12975 -409.86084,104.68016 C -407.36155,102.16134 -406.69939,101.27281 -402.9759,101.16743 C -399.25241,101.06205 -394.54536,103.27507 -394.54536,103.27507 L -400.72776,111.5651 z"
         id="path9450"
         style="fill:#2b5df2;fill-opacity:1;fill-rule:evenodd;stroke:#000000;stroke-width:3;stroke-linecap:butt;stroke-linejoin:miter;stroke-miterlimit:4;stroke-dasharray:none;stroke-opacity:1;display:inline" />
      <path
         d="M -393.14026,96.109105 C -395.43816,89.822382 -397.02469,83.239959 -406.91015,84.306344 C -406.91015,84.306344 -401.97616,81.192145 -396.23147,82.058202 C -389.13289,83.128365 -383.91181,91.74915 -384.2882,91.893836 L -393.14026,96.109105 z"
         id="path9452"
         style="fill:#2b5df2;fill-opacity:1;fill-rule:evenodd;stroke:#000000;stroke-width:3;stroke-linecap:butt;stroke-linejoin:miter;stroke-miterlimit:4;stroke-dasharray:none;stroke-opacity:1;display:inline" />
      <path
         d="M -376.84122,92.315362 C -373.84692,89.455118 -374.16596,83.28153 -373.18798,78.404966 C -373.18798,78.404966 -369.3591,81.742057 -368.41067,86.413979 C -367.46224,91.085911 -369.39424,97.092669 -369.39424,97.092669 L -376.84122,92.315362 z"
         id="path9454"
         style="fill:#2b5df2;fill-opacity:1;fill-rule:evenodd;stroke:#000000;stroke-width:3;stroke-linecap:butt;stroke-linejoin:miter;stroke-miterlimit:4;stroke-dasharray:none;stroke-opacity:1;display:inline" />
      <path
         d="M -354.50028,147.81643 L -359.4181,145.39265 C -357.63468,143.49307 -359.67044,141.97542 -361.52573,140.43971 C -362.6271,138.61476 -364.64351,138.59703 -366.86508,139.38589 C -367.18529,135.90014 -369.71396,135.25384 -372.62595,135.10037 C -373.27473,129.78379 -375.93114,130.08856 -378.38681,129.83128 C -379.37642,127.11626 -381.16824,126.60373 -382.81285,127.02109 C -383.35442,126.03975 -384.83361,125.76161 -388.36296,127.02109 C -388.36296,127.02109 -390.6111,130.88509 -393.14026,129.83128 C -395.66942,128.77746 -398.12834,125.75652 -399.04165,123.64888 C -399.95496,121.54124 -395.59918,121.96277 -395.66943,119.43361 C -395.73968,116.90445 -397.4258,115.07783 -399.32267,113.53223 C -401.21953,111.98663 -403.95947,113.67274 -403.46768,110.0195 C -402.9759,106.36627 -402.74758,103.02918 -400.30623,101.09718 C -397.86489,99.165183 -393.7023,102.29151 -393.7023,102.29151 C -393.7023,102.29151 -390.97994,101.79973 -391.48051,100.20143 C -391.98107,98.603144 -395.70456,95.898345 -394.26434,94.001475 C -391.38391,90.207728 -389.20602,88.416238 -385.69329,88.381112 C -382.18056,88.345985 -383.48027,93.825837 -381.26725,94.28249 C -379.05424,94.739148 -378.65027,89.25929 -375.15511,90.629254 C -371.65995,91.999217 -367.10453,94.738012 -368.27017,98.49776 C -369.26051,101.69208 -370.43273,100.58229 -370.04771,101.72155 C -369.50978,103.3133 -371.00683,101.90648 -365.31948,107.13906 C -362.90303,109.36229 -359.56958,112.52451 -355.75526,115.51884 C -351.94093,118.51316 -347.56375,122.61592 -343.79745,125.63137 C -340.03115,128.64683 -336.4542,129.87244 -333.95934,131.88979 C -331.46448,133.90714 -329.9112,135.17062 -329.9112,135.17062 L -354.50028,147.81643 z"
         id="path9456"
         style="fill:#f7d55d;fill-opacity:1;fill-rule:evenodd;stroke:#000000;stroke-width:3.00000024;stroke-linecap:butt;stroke-linejoin:miter;stroke-miterlimit:4;stroke-dasharray:none;stroke-opacity:1;display:inline" />
      <path
         d="M -382.03604,250.96109 C -381.4918,243.55 -389.07862,239.29815 -396.4425,239.33655 C -396.4425,239.33655 -387.64959,235.93367 -382.63217,237.74688 C -377.61474,239.56009 -375.77668,242.41656 -375.77668,242.41656 L -382.03604,250.96109 z"
         id="path9458"
         style="fill:#2b5df2;fill-opacity:1;fill-rule:evenodd;stroke:#000000;stroke-width:3;stroke-linecap:butt;stroke-linejoin:miter;stroke-miterlimit:4;stroke-dasharray:none;stroke-opacity:1;display:inline" />
      <path
         d="M -385.81153,262.08882 C -392.34612,256.37583 -396.65386,262.14155 -402.30443,264.67208 C -402.30443,264.67208 -398.6283,255.9537 -394.15734,253.24625 C -389.68636,250.53885 -384.42056,253.84239 -384.42056,253.84239 L -385.81153,262.08882 z"
         id="path9460"
         style="fill:#2b5df2;fill-opacity:1;fill-rule:evenodd;stroke:#000000;stroke-width:3;stroke-linecap:butt;stroke-linejoin:miter;stroke-miterlimit:4;stroke-dasharray:none;stroke-opacity:1;display:inline" />
      <path
         d="M -380.84378,272.12367 C -383.48392,273.35326 -385.74445,276.10122 -386.80507,283.64885 C -386.80507,283.64885 -387.89798,276.64433 -387.20249,272.91851 C -386.50701,269.19269 -384.02314,268.74562 -384.02314,268.74562 L -380.84378,272.12367 z"
         id="path9462"
         style="fill:#2b5df2;fill-opacity:1;fill-rule:evenodd;stroke:#000000;stroke-width:3;stroke-linecap:butt;stroke-linejoin:miter;stroke-miterlimit:4;stroke-dasharray:none;stroke-opacity:1;display:inline" />
      <path
         d="M -365.74183,273.31596 C -367.98992,275.60753 -368.19567,278.77441 -366.73539,282.65532 C -366.73539,282.65532 -370.70958,277.53852 -371.70313,274.90563 C -372.69668,272.2727 -370.70958,272.12367 -370.70958,272.12367 L -365.74183,273.31596 z"
         id="path9464"
         style="fill:#2b5df2;fill-opacity:1;fill-rule:evenodd;stroke:#000000;stroke-width:3;stroke-linecap:butt;stroke-linejoin:miter;stroke-miterlimit:4;stroke-dasharray:none;stroke-opacity:1;display:inline" />
      <path
         d="M -326.32141,210.1918 C -329.24529,210.19247 -332.06282,210.36243 -334.55246,210.77079 C -347.83056,212.94868 -351.96913,222.00634 -351.96913,222.00634 C -351.96913,222.00634 -342.91149,235.28256 -347.47804,241.3947 C -352.04458,247.50684 -364.55664,250.64175 -369.40144,246.44913 L -373.04752,243.28815 C -374.82986,241.74574 -374.10249,239.36371 -376.91267,240.76876 C -379.72286,242.17386 -382.31988,246.13105 -382.89036,247.57581 C -384.47686,251.59376 -378.94696,251.80088 -378.94696,251.80088 L -380.63699,253.19359 C -380.79678,253.55307 -382.5785,250.63529 -384.28307,251.80088 C -386.99076,253.65239 -387.9368,258.40372 -387.86655,261.42464 C -387.79629,264.44561 -384.0014,263.88144 -384.0014,263.88144 L -383.15638,266.96417 C -383.15638,266.96417 -385.62817,267.46182 -385.34716,269.49921 C -385.06613,271.53661 -381.88336,273.6394 -380.35532,274.13114 C -378.82729,274.62293 -378.03935,271.75258 -378.03935,271.75258 L -371.92083,270.6259 C -371.92083,270.62589 -373.47213,272.5839 -371.01322,273.42696 C -368.55432,274.27002 -366.64018,274.77104 -364.4096,274.06855 C -362.17902,273.36599 -363.76801,270.12515 -363.76801,270.12515 C -347.51534,265.33489 -329.97866,262.42446 -309.24901,264.16311 C -315.47319,256.25764 -317.05393,246.67286 -316.55681,236.34026 C -308.43106,234.75248 -303.72166,236.57459 -299.42182,238.81271 C -297.34838,236.51639 -294.07492,232.83928 -295.40017,230.29998 C -297.96758,225.38063 -302.0686,219.24508 -304.14763,212.31997 C -309.58974,211.40842 -318.36369,210.18997 -326.32141,210.1918 z"
         id="path9466"
         style="fill:#f7d55d;fill-opacity:1;fill-rule:evenodd;stroke:#000000;stroke-width:3.00000024;stroke-linecap:butt;stroke-linejoin:miter;stroke-miterlimit:4;stroke-dasharray:none;stroke-opacity:1;display:inline" />
      <path
         d="M -400.81411,159.15717 C -402.04014,155.93715 -405.7999,153.10694 -410.45154,150.41394 C -410.45154,150.41394 -404.01831,151.10942 -400.21798,152.40104 C -396.41766,153.69265 -395.25024,155.58039 -395.25024,155.58039 L -400.81411,159.15717 z"
         id="path9468"
         style="fill:#2b5df2;fill-opacity:1;fill-rule:evenodd;stroke:#000000;stroke-width:3;stroke-linecap:butt;stroke-linejoin:miter;stroke-miterlimit:4;stroke-dasharray:none;stroke-opacity:1;display:inline" />
      <path
         d="M -406.17928,170.9804 C -411.29583,167.4381 -415.14628,171.49234 -419.29412,173.76234 C -419.29412,173.76234 -415.71235,167.17934 -412.03622,164.8445 C -408.36009,162.50966 -404.5896,164.42298 -404.5896,164.42298 L -406.17928,170.9804 z"
         id="path9470"
         style="fill:#2b5df2;fill-opacity:1;fill-rule:evenodd;stroke:#000000;stroke-width:3;stroke-linecap:butt;stroke-linejoin:miter;stroke-miterlimit:4;stroke-dasharray:none;stroke-opacity:1;display:inline" />
      <path
         d="M -402.70185,183.00234 C -406.30858,183.0369 -410.1474,183.90958 -415.41928,189.95719 C -415.41928,189.95719 -415.59315,185.11363 -412.93541,181.81009 C -410.27766,178.50654 -404.78831,176.74298 -404.78831,176.74298 L -402.70185,183.00234 z"
         id="path9472"
         style="fill:#2b5df2;fill-opacity:1;fill-rule:evenodd;stroke:#000000;stroke-width:3;stroke-linecap:butt;stroke-linejoin:miter;stroke-miterlimit:4;stroke-dasharray:none;stroke-opacity:1;display:inline" />
      <path
         d="M -396.9403,187.78343 C -397.22176,189.73741 -399.39901,191.76164 -402.63367,192.97795 C -402.63367,192.97795 -396.88986,193.18923 -394.55475,192.04364 C -392.21965,190.89804 -392.76636,189.06299 -392.76636,189.06299 L -396.9403,187.78343 z"
         id="path9474"
         style="fill:#2b5df2;fill-opacity:1;fill-rule:evenodd;stroke:#000000;stroke-width:3;stroke-linecap:butt;stroke-linejoin:miter;stroke-miterlimit:4;stroke-dasharray:none;stroke-opacity:1;display:inline" />
      <path
         d="M -294.80244,315.24369 C -293.04952,316.36807 -292.29824,318.19355 -295.79599,322.99338 C -295.79599,322.99338 -290.87792,320.65854 -289.23856,318.62179 C -287.59921,316.585 -289.23856,314.8463 -289.23856,314.8463 L -294.80244,315.24369 z"
         id="path9476"
         style="fill:#2b5df2;fill-opacity:1;fill-rule:evenodd;stroke:#000000;stroke-width:3;stroke-linecap:butt;stroke-linejoin:miter;stroke-miterlimit:4;stroke-dasharray:none;stroke-opacity:1;display:inline" />
      <path
         d="M -306.72503,312.66048 C -306.94637,317.81564 -311.80788,317.57067 -317.25664,319.81403 C -317.25664,319.81403 -309.8547,321.80115 -306.3276,319.61533 C -302.80051,317.42951 -301.16115,315.44239 -301.16115,315.44239 L -306.72503,312.66048 z"
         id="path9478"
         style="fill:#2b5df2;fill-opacity:1;fill-rule:evenodd;stroke:#000000;stroke-width:3;stroke-linecap:butt;stroke-linejoin:miter;stroke-miterlimit:4;stroke-dasharray:none;stroke-opacity:1;display:inline" />
      <path
         d="M -308.71213,310.07727 C -313.58572,304.58295 -319.96873,309.65453 -325.80117,310.87211 C -325.80117,310.87211 -320.08826,304.91079 -315.46826,303.51981 C -310.84825,302.12883 -307.32116,305.30824 -307.32116,305.30824 L -308.71213,310.07727 z"
         id="path9480"
         style="fill:#2b5df2;fill-opacity:1;fill-rule:evenodd;stroke:#000000;stroke-width:3;stroke-linecap:butt;stroke-linejoin:miter;stroke-miterlimit:4;stroke-dasharray:none;stroke-opacity:1;display:inline" />
      <path
         d="M -305.33406,298.35339 C -307.30165,289.66595 -315.18729,290.84191 -321.62826,289.61011 C -321.62826,289.61011 -312.09019,286.48044 -307.12245,286.43076 C -302.15471,286.38109 -301.75728,289.41142 -301.75728,289.41142 L -305.33406,298.35339 z"
         id="path9482"
         style="fill:#2b5df2;fill-opacity:1;fill-rule:evenodd;stroke:#000000;stroke-width:3;stroke-linecap:butt;stroke-linejoin:miter;stroke-miterlimit:4;stroke-dasharray:none;stroke-opacity:1;display:inline" />
      <path
         d="M -336.7302,146.5391 C -336.7302,146.5391 -357.49537,155.18297 -371.30571,158.06426 C -385.11604,160.94556 -392.76636,157.07072 -392.76636,157.07072 C -392.76636,157.07072 -392.07088,152.79845 -395.5483,153.29523 C -399.02572,153.792 -401.41024,156.17653 -402.70185,158.6604 C -403.34767,159.90233 -401.16185,160.64749 -400.60298,161.87701 C -400.04411,163.10652 -401.5096,164.42298 -401.5096,164.42298 C -401.5096,164.42298 -404.68895,160.34943 -406.27863,162.8333 C -407.86831,165.31717 -409.55735,168.39717 -408.46444,171.77524 C -407.91799,173.46427 -405.88121,171.62621 -404.37847,172.34653 C -402.87573,173.06685 -403.09927,175.74943 -403.09927,175.74943 C -403.09927,175.74943 -406.87476,174.40814 -406.27863,177.1404 C -405.6825,179.87267 -405.88121,182.70428 -403.6954,184.49267 C -401.5096,186.28106 -400.51605,182.30686 -400.51605,182.30686 L -397.13798,185.0888 C -397.13798,185.0888 -399.42314,187.07589 -397.5354,188.66557 C -395.64765,190.25525 -393.46185,191.44751 -391.57411,191.44751 C -389.68636,191.44751 -390.18314,187.67202 -390.18314,187.67202 C -388.59105,185.75599 -386.67143,184.49501 -384.02314,184.69138 C -379.86752,186.23987 -380.15963,189.12269 -381.2412,192.24235 C -375.9392,192.38096 -372.05569,189.6826 -367.72894,187.87073 C -364.46195,188.36777 -363.57894,189.75879 -364.54958,191.84493 C -357.30912,194.15688 -351.30995,190.88301 -345.07602,188.66557 C -343.74138,189.75253 -343.27182,191.35853 -344.57925,194.03073 C -337.42569,183.43288 -330.27214,179.32621 -323.11859,181.71073 C -317.43057,190.1809 -311.80196,195.55056 -305.33406,201.68106 C -306.44051,212.9858 -299.21679,222.97924 -295.39857,230.29529 C -293.55528,233.82717 -300.64152,239.60636 -300.96244,240.72753 C -303.13545,248.31893 -301.56325,260.37861 -301.03063,260.2011 C -299.34128,256.77818 -296.59341,255.47238 -293.41147,255.03462 C -293.71298,257.4911 -295.44371,258.87561 -293.01406,263.38045 C -289.76594,266.71909 -286.27893,269.46049 -282.28373,270.93144 C -286.96411,276.89295 -290.02853,283.93589 -294.20631,290.40496 C -295.29959,292.09789 -296.39211,291.29919 -298.18051,290.40496 C -299.9689,289.51077 -299.88366,286.60953 -301.35986,286.82821 C -304.93739,287.35815 -309.65625,296.32626 -307.87906,299.71027 C -306.56502,302.21231 -305.28188,299.51448 -304.44693,300.66555 C -303.61197,301.81667 -303.42324,303.40239 -304.53922,304.31465 C -305.6552,305.22691 -307.32116,301.54271 -308.91084,303.33108 C -310.50051,305.1195 -310.27064,308.02886 -309.77386,310.06315 C -309.27708,312.09739 -307.41551,310.83595 -307.41551,310.83595 L -306.62044,312.06579 C -307.36008,312.53995 -307.84009,312.33189 -307.52985,313.58276 C -307.05914,315.48059 -302.94052,318.68809 -301.22556,316.30753 C -300.56525,315.39091 -300.36289,314.85992 -300.33636,314.86452 L -296.85837,314.19903 C -296.04395,314.0432 -297.02976,316.85495 -296.49853,316.9901 C -294.1147,317.59636 -288.51993,317.52045 -287.03071,316.23933 C -284.99407,314.48726 -287.97043,311.9078 -284.59385,312.28717 C -284.59385,312.28717 -283.71885,312.91391 -283.0231,312.46364 C -270.40822,304.29923 -261.69481,291.39819 -260.82307,288.41788 C -259.93731,285.38966 -261.31984,285.63593 -259.73016,284.34435 C -258.14049,283.05271 -254.46436,283.25141 -254.46436,283.25141 C -254.46436,283.25141 -247.65962,280.2017 -253.66952,276.09787 C -258.51975,272.78592 -263.22531,256.99921 -261.61791,255.03462 C -261.99363,249.65948 -265.14665,244.78935 -268.37404,239.93269 C -269.30863,235.11464 -267.81506,231.91536 -265.5921,229.20235 C -264.3209,228.74472 -245.99764,251.28717 -239.75983,259.00882 C -231.82692,268.82885 -221.08111,253.04755 -221.08111,253.04755 C -221.08111,253.04755 -213.92756,243.31075 -214.42433,230.89138 C -214.92111,218.47204 -223.06821,203.37009 -223.06821,203.37009 C -224.84703,195.40551 -219.83163,189.38214 -214.32498,183.49911 C -219.58126,185.95527 -225.05615,186.00683 -229.82434,193.83202 C -229.82434,193.83202 -231.11596,188.26815 -230.02305,182.30686 C -228.93015,176.34557 -222.8695,172.37137 -222.8695,172.37137 C -229.98564,175.9323 -235.9602,179.6835 -236.77918,184.29396 C -238.99473,170.86434 -232.69813,159.05609 -223.86305,147.73136 C -233.06339,153.65814 -241.18009,160.45185 -245.125,170.58298 C -250.1569,146.58622 -231.39417,135.21991 -210.7482,116.73263 C -195.25278,102.85737 -207.56885,90.502937 -207.56885,90.502937 C -219.40716,87.049981 -229.22155,91.028177 -237.37531,95.470681 C -237.37531,95.470681 -245.18535,87.324024 -249.89403,95.073266 C -255.35492,104.06043 -259.72239,108.61684 -257.24629,118.91843 C -258.52328,117.21578 -246.2336,108.66394 -236.77918,108.58553 C -229.16793,108.5224 -234.59338,99.44488 -234.59338,99.44488 C -234.59338,99.44488 -215.31853,91.198425 -211.54304,94.874555 C -207.76755,98.550686 -206.42395,103.098 -216.11337,112.1623 L -240.75338,135.21264 C -252.63696,146.32953 -255.82149,158.14358 -249.09919,177.1404 C -241.93702,197.38032 -220.64674,213.18361 -220.98176,226.61914 C -221.31677,240.05468 -220.00659,240.87536 -223.86304,246.88754 C -227.71949,252.89973 -230.73311,259.10847 -237.97144,250.16624 C -245.20977,241.22402 -254.79714,226.31369 -262.5121,215.39203 C -275.01585,197.69118 -280.52017,191.77041 -285.46308,177.53782 C -290.40598,163.30524 -284.27082,165.81394 -284.46953,157.46813 C -284.66824,149.12232 -286.25792,144.15458 -286.25792,144.15458 L -336.7302,146.5391 z"
         id="path9484"
         style="fill:#f7d55d;fill-opacity:1;fill-rule:evenodd;stroke:#000000;stroke-width:3.00000024;stroke-linecap:butt;stroke-linejoin:miter;stroke-miterlimit:4;stroke-dasharray:none;stroke-opacity:1;display:inline" />
      <path
         d="M -302.79296,108.4739 C -312.76197,109.89603 -322.28718,113.16994 -333.14291,112.40815 C -347.87312,111.37447 -343.58528,104.33006 -341.57345,102.01048 C -339.65625,99.800011 -332.0953,107.19134 -325.55542,109.59797 C -317.96747,112.39028 -310.37953,108.85179 -302.79296,108.4739 z"
         id="path9486"
         style="fill:#2b5df2;fill-opacity:1;fill-rule:evenodd;stroke:#000000;stroke-width:3.00000024;stroke-linecap:butt;stroke-linejoin:miter;stroke-miterlimit:4;stroke-dasharray:none;stroke-opacity:1;display:inline" />
      <path
         d="M -307.57026,102.01049 C -309.96454,99.465519 -314.66802,99.336426 -319.44328,99.973107 C -320.24339,98.881674 -323.74399,96.837829 -332.72138,97.233176 C -335.95693,93.129885 -336.50017,86.653346 -332.58087,84.165837 C -328.99524,81.8901 -322.47763,82.942782 -321.76168,82.479728 C -317.56718,79.766881 -319.44328,76.156819 -310.23993,74.611223 C -301.03659,73.065623 -284.94831,76.29733 -284.94831,76.29733 C -277.69486,77.003356 -277.10901,73.256455 -273.97586,79.158118 C -272.36001,81.125244 -270.51465,78.504525 -271.85767,82.133191 C -273.11926,85.541826 -277.50133,88.521614 -277.50133,88.521614 C -277.50133,88.521614 -280.38176,97.057543 -277.50133,102.99405 C -274.62089,108.93055 -264.5745,113.1107 -264.5745,113.1107 C -269.11994,113.35025 -272.62545,114.18404 -274.55064,115.92088 C -275.62788,116.76393 -276.55936,118.38793 -276.09623,119.71462 C -275.00205,122.84909 -269.07079,128.14516 -269.07079,128.14516 C -269.07079,128.14516 -271.49457,127.02109 -272.72402,129.97178 C -273.95348,132.92247 -273.9886,139.94792 -273.9886,139.94792 C -273.9886,139.94792 -281.78713,140.04814 -283.68372,145.28727 C -286.3098,152.54151 -279.95686,163.48841 -278.6254,161.58632 C -278.6254,161.58632 -282.77042,163.16705 -285.93187,162.00784 C -289.09332,160.84865 -291.97375,156.94952 -291.97375,156.94952 C -295.0091,157.50004 -297.54789,158.98173 -298.71819,161.02428 C -318.59793,154.4929 -323.79399,162.64519 -328.64661,171.14093 C -330.15348,172.6663 -332.01082,173.31546 -334.26698,172.96755 C -331.26173,169.16403 -330.79885,164.72492 -330.75426,160.18123 C -339.10694,160.70881 -346.85082,167.76069 -357.73199,166.22312 C -352.09932,162.42493 -349.14059,157.55716 -350.98756,150.76712 C -355.61608,147.92828 -362.25691,147.50419 -368.69169,146.83287 C -348.9713,142.63601 -336.62285,137.63393 -333.70494,129.97178 L -320.77811,128.84771 C -316.12223,126.06134 -315.99433,123.68661 -315.29826,121.26022 C -318.45818,117.90887 -323.65836,120.70178 -328.08458,119.43361 C -329.95046,118.89901 -330.07622,116.48374 -329.19009,115.82271 C -328.74703,115.4922 -328.25947,114.2899 -327.49886,114.12954 C -326.73825,113.96919 -325.70459,114.85078 -324.73136,114.75381 C -321.1047,114.39245 -309.591,114.17477 -305.88415,113.53222 C -303.6158,109.3784 -304.56867,105.20099 -307.57026,102.01049 z"
         id="path9488"
         style="fill:#f7d55d;fill-opacity:1;fill-rule:evenodd;stroke:#000000;stroke-width:3.00000024;stroke-linecap:butt;stroke-linejoin:miter;stroke-miterlimit:4;stroke-dasharray:none;stroke-opacity:1;display:inline" />
      <path
         d="M -300.76373,83.548062 C -300.76225,84.536255 -302.45303,85.337717 -304.53922,85.337717 C -306.62541,85.337717 -308.31619,84.536255 -308.31471,83.548062 C -308.31619,82.559868 -306.62541,81.758406 -304.53922,81.758406 C -302.45303,81.758406 -300.76225,82.559868 -300.76373,83.548062 z"
         id="path9490"
         style="fill:#ffffff;fill-opacity:1;fill-rule:evenodd;stroke:#000000;stroke-width:3.00000024;stroke-linecap:butt;stroke-linejoin:miter;stroke-miterlimit:4;stroke-dasharray:none;stroke-opacity:1;display:inline" />
      <path
         d="M -310.18791,212.86767 C -311.85815,212.83822 -313.05973,213.61709 -314.44428,214.0726 C -309.38075,218.08836 -304.33668,222.10861 -304.25716,227.38938 C -308.21532,235.6565 -304.15921,237.41182 -298.81153,238.12418 C -296.77273,235.82515 -294.19992,232.59976 -295.40017,230.29998 C -297.24644,226.76238 -299.8762,222.58858 -301.98815,217.9534 C -302.88749,217.00499 -303.91129,216.00973 -305.11783,214.93326 C -307.30478,213.40319 -308.88884,212.89058 -310.18791,212.86767 z"
         id="path9492"
         style="fill:#f7d55d;fill-opacity:1;fill-rule:evenodd;stroke:#000000;stroke-width:3.00000024;stroke-linecap:butt;stroke-linejoin:miter;stroke-miterlimit:4;stroke-dasharray:none;stroke-opacity:1" />
      <path
         d="M -271.52532,82.051624 C -270.57927,81.206199 -270.76902,80.801679 -272.70793,79.530469 C -277.64747,76.291942 -284.58198,73.833747 -292.02344,72.683366 C -295.15467,72.199307 -303.39477,72.268557 -307.04363,72.809596 C -308.76202,73.064393 -310.23293,73.336996 -310.31231,73.41538 C -310.39169,73.493765 -310.29948,74.003061 -310.1074,74.547148 C -309.75837,75.535826 -309.75705,75.536248 -307.844,75.277601 C -303.14306,74.642027 -296.27338,74.579466 -293.02873,75.142682 C -291.27786,75.446602 -288.63608,75.887308 -287.1581,76.122026 C -283.11915,76.763453 -275.90538,79.719084 -273.66538,81.650269 C -272.37847,82.759774 -272.32829,82.769184 -271.52532,82.051624 z"
         id="path9494"
         style="fill:#0000ff;fill-opacity:1;stroke:#000000;stroke-width:1.5;stroke-miterlimit:4;stroke-dasharray:none;stroke-opacity:1" />
      <path
         d="M -262.20008,71.863047 C -259.712,69.156057 -257.17988,66.375758 -256.57313,65.684605 L -255.46996,64.427964 L -256.8111,63.752347 C -258.47131,62.916002 -258.51514,62.916457 -260.57493,63.791438 C -261.63004,64.23964 -262.36859,64.794869 -262.55555,65.280443 C -262.84522,66.032786 -264.21064,66.409546 -264.21064,65.737133 C -264.21064,65.562449 -264.806,65.243389 -265.53366,65.028112 C -267.0589,64.57687 -268.68962,65.044691 -269.26003,66.097134 C -269.6984,66.905951 -268.91781,68.410036 -267.56664,69.360085 C -266.01614,70.450283 -266.2395,71.274588 -268.72367,73.63008 C -271.11145,75.894173 -270.80312,75.859521 -273.59328,74.177375 C -275.66563,72.927972 -282.79808,70.364412 -284.23954,70.350865 C -284.5582,70.347871 -285.90092,70.086162 -287.22335,69.76929 C -289.16283,69.304568 -289.57464,69.097667 -289.35293,68.699342 C -289.20176,68.427743 -288.66933,66.344269 -288.16975,64.069401 C -287.67018,61.794532 -287.2027,59.871973 -287.1309,59.797049 C -287.0591,59.722124 -286.39328,59.858663 -285.65129,60.10047 C -284.34658,60.525661 -284.26884,60.508549 -283.28737,59.580029 C -282.49463,58.830069 -282.31853,58.437769 -282.48277,57.787602 C -282.75696,56.702146 -283.4618,55.952815 -284.6756,55.456352 C -285.73879,55.021487 -285.88834,54.500055 -285.24267,53.479135 C -284.88771,52.917893 -284.94744,52.711845 -285.66153,52.034208 C -286.1196,51.599521 -286.89862,51.151355 -287.39268,51.038284 C -288.11929,50.871992 -288.41706,51.00755 -288.95067,51.747531 C -289.3135,52.250689 -289.66323,53.032664 -289.72785,53.485254 C -289.83246,54.21799 -290.04248,54.327689 -291.64486,54.486525 C -293.06715,54.627513 -293.61155,54.856812 -294.24183,55.58037 C -294.68043,56.083875 -295.03929,56.631468 -295.03929,56.797243 C -295.03929,57.445016 -292.64358,59.436941 -291.8645,59.436941 C -291.42077,59.436941 -290.96089,59.591636 -290.84256,59.78071 C -290.61309,60.147334 -291.51666,66.182306 -292.06165,67.92308 L -292.3876,68.964195 L -298.99117,69.153068 C -302.62314,69.256948 -306.22412,69.435831 -306.99335,69.550585 C -308.28641,69.743485 -308.42895,69.688122 -308.88223,68.816933 C -309.15188,68.298669 -309.79752,66.472122 -310.31699,64.75794 C -311.22544,61.760161 -311.23769,61.627598 -310.63828,61.283594 C -309.26568,60.495862 -307.77286,59.002755 -307.77286,58.417621 C -307.77286,57.622681 -308.99679,56.832594 -310.47194,56.675279 C -311.32017,56.584819 -311.6534,56.375142 -311.72806,55.884884 C -311.8904,54.818971 -313.28534,53.773224 -314.81511,53.570613 C -316.08679,53.402185 -316.2077,53.445851 -316.03544,54.011349 C -315.93028,54.356577 -314.69232,58.659349 -313.28442,63.573065 C -311.87652,68.486782 -310.70133,72.52363 -310.67288,72.543839 C -310.64443,72.564048 -309.33943,72.383485 -307.77286,72.142588 C -304.27472,71.604663 -294.64527,71.52208 -291.49564,72.002992 C -283.81903,73.175125 -276.44345,75.821765 -271.75025,79.088399 L -270.07478,80.254584 L -268.39932,78.519714 C -267.47781,77.565539 -264.68815,74.570037 -262.20008,71.863047 z"
         id="path9496"
         style="fill:#0000ff;fill-opacity:1;stroke:#000000;stroke-width:1.5;stroke-miterlimit:4;stroke-dasharray:none;stroke-opacity:1" />
    </g>
    <g
       transform="translate(618.78942,274.02398)"
       id="g9498"
       style="display:inline">
      <path
         d="M -391.17314,127.44262 C -396.17723,131.21511 -403.66704,131.86674 -406.62914,128.14516 C -406.62914,128.14516 -401.59803,129.32292 -399.32267,126.59957 C -396.23478,122.90372 -396.12278,121.15754 -395.66942,121.96277 L -391.17314,127.44262 z"
         id="path9500"
         style="fill:#2b5df2;fill-opacity:1;fill-rule:evenodd;stroke:#000000;stroke-width:3;stroke-linecap:butt;stroke-linejoin:miter;stroke-miterlimit:4;stroke-dasharray:none;stroke-opacity:1;display:inline" />
      <path
         d="M -400.72776,111.5651 C -405.10961,108.14235 -410.39395,108.53385 -412.53051,114.09426 C -413.09645,113.88203 -412.29145,107.12975 -409.86084,104.68016 C -407.36155,102.16134 -406.69939,101.27281 -402.9759,101.16743 C -399.25241,101.06205 -394.54536,103.27507 -394.54536,103.27507 L -400.72776,111.5651 z"
         id="path9502"
         style="fill:#2b5df2;fill-opacity:1;fill-rule:evenodd;stroke:#000000;stroke-width:3;stroke-linecap:butt;stroke-linejoin:miter;stroke-miterlimit:4;stroke-dasharray:none;stroke-opacity:1;display:inline" />
      <path
         d="M -393.14026,96.109105 C -395.43816,89.822382 -397.02469,83.239959 -406.91015,84.306344 C -406.91015,84.306344 -401.97616,81.192145 -396.23147,82.058202 C -389.13289,83.128365 -383.91181,91.74915 -384.2882,91.893836 L -393.14026,96.109105 z"
         id="path9504"
         style="fill:#2b5df2;fill-opacity:1;fill-rule:evenodd;stroke:#000000;stroke-width:3;stroke-linecap:butt;stroke-linejoin:miter;stroke-miterlimit:4;stroke-dasharray:none;stroke-opacity:1;display:inline" />
      <path
         d="M -376.84122,92.315362 C -373.84692,89.455118 -374.16596,83.28153 -373.18798,78.404966 C -373.18798,78.404966 -369.3591,81.742057 -368.41067,86.413979 C -367.46224,91.085911 -369.39424,97.092669 -369.39424,97.092669 L -376.84122,92.315362 z"
         id="path9506"
         style="fill:#2b5df2;fill-opacity:1;fill-rule:evenodd;stroke:#000000;stroke-width:3;stroke-linecap:butt;stroke-linejoin:miter;stroke-miterlimit:4;stroke-dasharray:none;stroke-opacity:1;display:inline" />
      <path
         d="M -354.50028,147.81643 L -359.4181,145.39265 C -357.63468,143.49307 -359.67044,141.97542 -361.52573,140.43971 C -362.6271,138.61476 -364.64351,138.59703 -366.86508,139.38589 C -367.18529,135.90014 -369.71396,135.25384 -372.62595,135.10037 C -373.27473,129.78379 -375.93114,130.08856 -378.38681,129.83128 C -379.37642,127.11626 -381.16824,126.60373 -382.81285,127.02109 C -383.35442,126.03975 -384.83361,125.76161 -388.36296,127.02109 C -388.36296,127.02109 -390.6111,130.88509 -393.14026,129.83128 C -395.66942,128.77746 -398.12834,125.75652 -399.04165,123.64888 C -399.95496,121.54124 -395.59918,121.96277 -395.66943,119.43361 C -395.73968,116.90445 -397.4258,115.07783 -399.32267,113.53223 C -401.21953,111.98663 -403.95947,113.67274 -403.46768,110.0195 C -402.9759,106.36627 -402.74758,103.02918 -400.30623,101.09718 C -397.86489,99.165183 -393.7023,102.29151 -393.7023,102.29151 C -393.7023,102.29151 -390.97994,101.79973 -391.48051,100.20143 C -391.98107,98.603144 -395.70456,95.898345 -394.26434,94.001475 C -391.38391,90.207728 -389.20602,88.416238 -385.69329,88.381112 C -382.18056,88.345985 -383.48027,93.825837 -381.26725,94.28249 C -379.05424,94.739148 -378.65027,89.25929 -375.15511,90.629254 C -371.65995,91.999217 -367.10453,94.738012 -368.27017,98.49776 C -369.26051,101.69208 -370.43273,100.58229 -370.04771,101.72155 C -369.50978,103.3133 -371.00683,101.90648 -365.31948,107.13906 C -362.90303,109.36229 -359.56958,112.52451 -355.75526,115.51884 C -351.94093,118.51316 -347.56375,122.61592 -343.79745,125.63137 C -340.03115,128.64683 -336.4542,129.87244 -333.95934,131.88979 C -331.46448,133.90714 -329.9112,135.17062 -329.9112,135.17062 L -354.50028,147.81643 z"
         id="path9508"
         style="fill:#f7d55d;fill-opacity:1;fill-rule:evenodd;stroke:#000000;stroke-width:3.00000024;stroke-linecap:butt;stroke-linejoin:miter;stroke-miterlimit:4;stroke-dasharray:none;stroke-opacity:1;display:inline" />
      <path
         d="M -382.03604,250.96109 C -381.4918,243.55 -389.07862,239.29815 -396.4425,239.33655 C -396.4425,239.33655 -387.64959,235.93367 -382.63217,237.74688 C -377.61474,239.56009 -375.77668,242.41656 -375.77668,242.41656 L -382.03604,250.96109 z"
         id="path9510"
         style="fill:#2b5df2;fill-opacity:1;fill-rule:evenodd;stroke:#000000;stroke-width:3;stroke-linecap:butt;stroke-linejoin:miter;stroke-miterlimit:4;stroke-dasharray:none;stroke-opacity:1;display:inline" />
      <path
         d="M -385.81153,262.08882 C -392.34612,256.37583 -396.65386,262.14155 -402.30443,264.67208 C -402.30443,264.67208 -398.6283,255.9537 -394.15734,253.24625 C -389.68636,250.53885 -384.42056,253.84239 -384.42056,253.84239 L -385.81153,262.08882 z"
         id="path9512"
         style="fill:#2b5df2;fill-opacity:1;fill-rule:evenodd;stroke:#000000;stroke-width:3;stroke-linecap:butt;stroke-linejoin:miter;stroke-miterlimit:4;stroke-dasharray:none;stroke-opacity:1;display:inline" />
      <path
         d="M -380.84378,272.12367 C -383.48392,273.35326 -385.74445,276.10122 -386.80507,283.64885 C -386.80507,283.64885 -387.89798,276.64433 -387.20249,272.91851 C -386.50701,269.19269 -384.02314,268.74562 -384.02314,268.74562 L -380.84378,272.12367 z"
         id="path9514"
         style="fill:#2b5df2;fill-opacity:1;fill-rule:evenodd;stroke:#000000;stroke-width:3;stroke-linecap:butt;stroke-linejoin:miter;stroke-miterlimit:4;stroke-dasharray:none;stroke-opacity:1;display:inline" />
      <path
         d="M -365.74183,273.31596 C -367.98992,275.60753 -368.19567,278.77441 -366.73539,282.65532 C -366.73539,282.65532 -370.70958,277.53852 -371.70313,274.90563 C -372.69668,272.2727 -370.70958,272.12367 -370.70958,272.12367 L -365.74183,273.31596 z"
         id="path9516"
         style="fill:#2b5df2;fill-opacity:1;fill-rule:evenodd;stroke:#000000;stroke-width:3;stroke-linecap:butt;stroke-linejoin:miter;stroke-miterlimit:4;stroke-dasharray:none;stroke-opacity:1;display:inline" />
      <path
         d="M -326.32141,210.1918 C -329.24529,210.19247 -332.06282,210.36243 -334.55246,210.77079 C -347.83056,212.94868 -351.96913,222.00634 -351.96913,222.00634 C -351.96913,222.00634 -342.91149,235.28256 -347.47804,241.3947 C -352.04458,247.50684 -364.55664,250.64175 -369.40144,246.44913 L -373.04752,243.28815 C -374.82986,241.74574 -374.10249,239.36371 -376.91267,240.76876 C -379.72286,242.17386 -382.31988,246.13105 -382.89036,247.57581 C -384.47686,251.59376 -378.94696,251.80088 -378.94696,251.80088 L -380.63699,253.19359 C -380.79678,253.55307 -382.5785,250.63529 -384.28307,251.80088 C -386.99076,253.65239 -387.9368,258.40372 -387.86655,261.42464 C -387.79629,264.44561 -384.0014,263.88144 -384.0014,263.88144 L -383.15638,266.96417 C -383.15638,266.96417 -385.62817,267.46182 -385.34716,269.49921 C -385.06613,271.53661 -381.88336,273.6394 -380.35532,274.13114 C -378.82729,274.62293 -378.03935,271.75258 -378.03935,271.75258 L -371.92083,270.6259 C -371.92083,270.62589 -373.47213,272.5839 -371.01322,273.42696 C -368.55432,274.27002 -366.64018,274.77104 -364.4096,274.06855 C -362.17902,273.36599 -363.76801,270.12515 -363.76801,270.12515 C -347.51534,265.33489 -329.97866,262.42446 -309.24901,264.16311 C -315.47319,256.25764 -317.05393,246.67286 -316.55681,236.34026 C -308.43106,234.75248 -303.72166,236.57459 -299.42182,238.81271 C -297.34838,236.51639 -294.07492,232.83928 -295.40017,230.29998 C -297.96758,225.38063 -302.0686,219.24508 -304.14763,212.31997 C -309.58974,211.40842 -318.36369,210.18997 -326.32141,210.1918 z"
         id="path9518"
         style="fill:#f7d55d;fill-opacity:1;fill-rule:evenodd;stroke:#000000;stroke-width:3.00000024;stroke-linecap:butt;stroke-linejoin:miter;stroke-miterlimit:4;stroke-dasharray:none;stroke-opacity:1;display:inline" />
      <path
         d="M -400.81411,159.15717 C -402.04014,155.93715 -405.7999,153.10694 -410.45154,150.41394 C -410.45154,150.41394 -404.01831,151.10942 -400.21798,152.40104 C -396.41766,153.69265 -395.25024,155.58039 -395.25024,155.58039 L -400.81411,159.15717 z"
         id="path9520"
         style="fill:#2b5df2;fill-opacity:1;fill-rule:evenodd;stroke:#000000;stroke-width:3;stroke-linecap:butt;stroke-linejoin:miter;stroke-miterlimit:4;stroke-dasharray:none;stroke-opacity:1;display:inline" />
      <path
         d="M -406.17928,170.9804 C -411.29583,167.4381 -415.14628,171.49234 -419.29412,173.76234 C -419.29412,173.76234 -415.71235,167.17934 -412.03622,164.8445 C -408.36009,162.50966 -404.5896,164.42298 -404.5896,164.42298 L -406.17928,170.9804 z"
         id="path9522"
         style="fill:#2b5df2;fill-opacity:1;fill-rule:evenodd;stroke:#000000;stroke-width:3;stroke-linecap:butt;stroke-linejoin:miter;stroke-miterlimit:4;stroke-dasharray:none;stroke-opacity:1;display:inline" />
      <path
         d="M -402.70185,183.00234 C -406.30858,183.0369 -410.1474,183.90958 -415.41928,189.95719 C -415.41928,189.95719 -415.59315,185.11363 -412.93541,181.81009 C -410.27766,178.50654 -404.78831,176.74298 -404.78831,176.74298 L -402.70185,183.00234 z"
         id="path9524"
         style="fill:#2b5df2;fill-opacity:1;fill-rule:evenodd;stroke:#000000;stroke-width:3;stroke-linecap:butt;stroke-linejoin:miter;stroke-miterlimit:4;stroke-dasharray:none;stroke-opacity:1;display:inline" />
      <path
         d="M -396.9403,187.78343 C -397.22176,189.73741 -399.39901,191.76164 -402.63367,192.97795 C -402.63367,192.97795 -396.88986,193.18923 -394.55475,192.04364 C -392.21965,190.89804 -392.76636,189.06299 -392.76636,189.06299 L -396.9403,187.78343 z"
         id="path9526"
         style="fill:#2b5df2;fill-opacity:1;fill-rule:evenodd;stroke:#000000;stroke-width:3;stroke-linecap:butt;stroke-linejoin:miter;stroke-miterlimit:4;stroke-dasharray:none;stroke-opacity:1;display:inline" />
      <path
         d="M -294.80244,315.24369 C -293.04952,316.36807 -292.29824,318.19355 -295.79599,322.99338 C -295.79599,322.99338 -290.87792,320.65854 -289.23856,318.62179 C -287.59921,316.585 -289.23856,314.8463 -289.23856,314.8463 L -294.80244,315.24369 z"
         id="path9528"
         style="fill:#2b5df2;fill-opacity:1;fill-rule:evenodd;stroke:#000000;stroke-width:3;stroke-linecap:butt;stroke-linejoin:miter;stroke-miterlimit:4;stroke-dasharray:none;stroke-opacity:1;display:inline" />
      <path
         d="M -306.72503,312.66048 C -306.94637,317.81564 -311.80788,317.57067 -317.25664,319.81403 C -317.25664,319.81403 -309.8547,321.80115 -306.3276,319.61533 C -302.80051,317.42951 -301.16115,315.44239 -301.16115,315.44239 L -306.72503,312.66048 z"
         id="path9530"
         style="fill:#2b5df2;fill-opacity:1;fill-rule:evenodd;stroke:#000000;stroke-width:3;stroke-linecap:butt;stroke-linejoin:miter;stroke-miterlimit:4;stroke-dasharray:none;stroke-opacity:1;display:inline" />
      <path
         d="M -308.71213,310.07727 C -313.58572,304.58295 -319.96873,309.65453 -325.80117,310.87211 C -325.80117,310.87211 -320.08826,304.91079 -315.46826,303.51981 C -310.84825,302.12883 -307.32116,305.30824 -307.32116,305.30824 L -308.71213,310.07727 z"
         id="path9532"
         style="fill:#2b5df2;fill-opacity:1;fill-rule:evenodd;stroke:#000000;stroke-width:3;stroke-linecap:butt;stroke-linejoin:miter;stroke-miterlimit:4;stroke-dasharray:none;stroke-opacity:1;display:inline" />
      <path
         d="M -305.33406,298.35339 C -307.30165,289.66595 -315.18729,290.84191 -321.62826,289.61011 C -321.62826,289.61011 -312.09019,286.48044 -307.12245,286.43076 C -302.15471,286.38109 -301.75728,289.41142 -301.75728,289.41142 L -305.33406,298.35339 z"
         id="path9534"
         style="fill:#2b5df2;fill-opacity:1;fill-rule:evenodd;stroke:#000000;stroke-width:3;stroke-linecap:butt;stroke-linejoin:miter;stroke-miterlimit:4;stroke-dasharray:none;stroke-opacity:1;display:inline" />
      <path
         d="M -336.7302,146.5391 C -336.7302,146.5391 -357.49537,155.18297 -371.30571,158.06426 C -385.11604,160.94556 -392.76636,157.07072 -392.76636,157.07072 C -392.76636,157.07072 -392.07088,152.79845 -395.5483,153.29523 C -399.02572,153.792 -401.41024,156.17653 -402.70185,158.6604 C -403.34767,159.90233 -401.16185,160.64749 -400.60298,161.87701 C -400.04411,163.10652 -401.5096,164.42298 -401.5096,164.42298 C -401.5096,164.42298 -404.68895,160.34943 -406.27863,162.8333 C -407.86831,165.31717 -409.55735,168.39717 -408.46444,171.77524 C -407.91799,173.46427 -405.88121,171.62621 -404.37847,172.34653 C -402.87573,173.06685 -403.09927,175.74943 -403.09927,175.74943 C -403.09927,175.74943 -406.87476,174.40814 -406.27863,177.1404 C -405.6825,179.87267 -405.88121,182.70428 -403.6954,184.49267 C -401.5096,186.28106 -400.51605,182.30686 -400.51605,182.30686 L -397.13798,185.0888 C -397.13798,185.0888 -399.42314,187.07589 -397.5354,188.66557 C -395.64765,190.25525 -393.46185,191.44751 -391.57411,191.44751 C -389.68636,191.44751 -390.18314,187.67202 -390.18314,187.67202 C -388.59105,185.75599 -386.67143,184.49501 -384.02314,184.69138 C -379.86752,186.23987 -380.15963,189.12269 -381.2412,192.24235 C -375.9392,192.38096 -372.05569,189.6826 -367.72894,187.87073 C -364.46195,188.36777 -363.57894,189.75879 -364.54958,191.84493 C -357.30912,194.15688 -351.30995,190.88301 -345.07602,188.66557 C -343.74138,189.75253 -343.27182,191.35853 -344.57925,194.03073 C -337.42569,183.43288 -330.27214,179.32621 -323.11859,181.71073 C -317.43057,190.1809 -311.80196,195.55056 -305.33406,201.68106 C -306.44051,212.9858 -299.21679,222.97924 -295.39857,230.29529 C -293.55528,233.82717 -300.64152,239.60636 -300.96244,240.72753 C -303.13545,248.31893 -301.56325,260.37861 -301.03063,260.2011 C -299.34128,256.77818 -296.59341,255.47238 -293.41147,255.03462 C -293.71298,257.4911 -295.44371,258.87561 -293.01406,263.38045 C -289.76594,266.71909 -286.27893,269.46049 -282.28373,270.93144 C -286.96411,276.89295 -290.02853,283.93589 -294.20631,290.40496 C -295.29959,292.09789 -296.39211,291.29919 -298.18051,290.40496 C -299.9689,289.51077 -299.88366,286.60953 -301.35986,286.82821 C -304.93739,287.35815 -309.65625,296.32626 -307.87906,299.71027 C -306.56502,302.21231 -305.28188,299.51448 -304.44693,300.66555 C -303.61197,301.81667 -303.42324,303.40239 -304.53922,304.31465 C -305.6552,305.22691 -307.32116,301.54271 -308.91084,303.33108 C -310.50051,305.1195 -310.27064,308.02886 -309.77386,310.06315 C -309.27708,312.09739 -307.41551,310.83595 -307.41551,310.83595 L -306.62044,312.06579 C -307.36008,312.53995 -307.84009,312.33189 -307.52985,313.58276 C -307.05914,315.48059 -302.94052,318.68809 -301.22556,316.30753 C -300.56525,315.39091 -300.36289,314.85992 -300.33636,314.86452 L -296.85837,314.19903 C -296.04395,314.0432 -297.02976,316.85495 -296.49853,316.9901 C -294.1147,317.59636 -288.51993,317.52045 -287.03071,316.23933 C -284.99407,314.48726 -287.97043,311.9078 -284.59385,312.28717 C -284.59385,312.28717 -283.71885,312.91391 -283.0231,312.46364 C -270.40822,304.29923 -261.69481,291.39819 -260.82307,288.41788 C -259.93731,285.38966 -261.31984,285.63593 -259.73016,284.34435 C -258.14049,283.05271 -254.46436,283.25141 -254.46436,283.25141 C -254.46436,283.25141 -247.65962,280.2017 -253.66952,276.09787 C -258.51975,272.78592 -263.22531,256.99921 -261.61791,255.03462 C -261.99363,249.65948 -265.14665,244.78935 -268.37404,239.93269 C -269.30863,235.11464 -267.81506,231.91536 -265.5921,229.20235 C -264.3209,228.74472 -245.99764,251.28717 -239.75983,259.00882 C -231.82692,268.82885 -221.08111,253.04755 -221.08111,253.04755 C -221.08111,253.04755 -213.92756,243.31075 -214.42433,230.89138 C -214.92111,218.47204 -223.06821,203.37009 -223.06821,203.37009 C -224.84703,195.40551 -219.83163,189.38214 -214.32498,183.49911 C -219.58126,185.95527 -225.05615,186.00683 -229.82434,193.83202 C -229.82434,193.83202 -231.11596,188.26815 -230.02305,182.30686 C -228.93015,176.34557 -222.8695,172.37137 -222.8695,172.37137 C -229.98564,175.9323 -235.9602,179.6835 -236.77918,184.29396 C -238.99473,170.86434 -232.69813,159.05609 -223.86305,147.73136 C -233.06339,153.65814 -241.18009,160.45185 -245.125,170.58298 C -250.1569,146.58622 -231.39417,135.21991 -210.7482,116.73263 C -195.25278,102.85737 -207.56885,90.502937 -207.56885,90.502937 C -219.40716,87.049981 -229.22155,91.028177 -237.37531,95.470681 C -237.37531,95.470681 -245.18535,87.324024 -249.89403,95.073266 C -255.35492,104.06043 -259.72239,108.61684 -257.24629,118.91843 C -258.52328,117.21578 -246.2336,108.66394 -236.77918,108.58553 C -229.16793,108.5224 -234.59338,99.44488 -234.59338,99.44488 C -234.59338,99.44488 -215.31853,91.198425 -211.54304,94.874555 C -207.76755,98.550686 -206.42395,103.098 -216.11337,112.1623 L -240.75338,135.21264 C -252.63696,146.32953 -255.82149,158.14358 -249.09919,177.1404 C -241.93702,197.38032 -220.64674,213.18361 -220.98176,226.61914 C -221.31677,240.05468 -220.00659,240.87536 -223.86304,246.88754 C -227.71949,252.89973 -230.73311,259.10847 -237.97144,250.16624 C -245.20977,241.22402 -254.79714,226.31369 -262.5121,215.39203 C -275.01585,197.69118 -280.52017,191.77041 -285.46308,177.53782 C -290.40598,163.30524 -284.27082,165.81394 -284.46953,157.46813 C -284.66824,149.12232 -286.25792,144.15458 -286.25792,144.15458 L -336.7302,146.5391 z"
         id="path9536"
         style="fill:#f7d55d;fill-opacity:1;fill-rule:evenodd;stroke:#000000;stroke-width:3.00000024;stroke-linecap:butt;stroke-linejoin:miter;stroke-miterlimit:4;stroke-dasharray:none;stroke-opacity:1;display:inline" />
      <path
         d="M -302.79296,108.4739 C -312.76197,109.89603 -322.28718,113.16994 -333.14291,112.40815 C -347.87312,111.37447 -343.58528,104.33006 -341.57345,102.01048 C -339.65625,99.800011 -332.0953,107.19134 -325.55542,109.59797 C -317.96747,112.39028 -310.37953,108.85179 -302.79296,108.4739 z"
         id="path9538"
         style="fill:#2b5df2;fill-opacity:1;fill-rule:evenodd;stroke:#000000;stroke-width:3.00000024;stroke-linecap:butt;stroke-linejoin:miter;stroke-miterlimit:4;stroke-dasharray:none;stroke-opacity:1;display:inline" />
      <path
         d="M -307.57026,102.01049 C -309.96454,99.465519 -314.66802,99.336426 -319.44328,99.973107 C -320.24339,98.881674 -323.74399,96.837829 -332.72138,97.233176 C -335.95693,93.129885 -336.50017,86.653346 -332.58087,84.165837 C -328.99524,81.8901 -322.47763,82.942782 -321.76168,82.479728 C -317.56718,79.766881 -319.44328,76.156819 -310.23993,74.611223 C -301.03659,73.065623 -284.94831,76.29733 -284.94831,76.29733 C -277.69486,77.003356 -277.10901,73.256455 -273.97586,79.158118 C -272.36001,81.125244 -270.51465,78.504525 -271.85767,82.133191 C -273.11926,85.541826 -277.50133,88.521614 -277.50133,88.521614 C -277.50133,88.521614 -280.38176,97.057543 -277.50133,102.99405 C -274.62089,108.93055 -264.5745,113.1107 -264.5745,113.1107 C -269.11994,113.35025 -272.62545,114.18404 -274.55064,115.92088 C -275.62788,116.76393 -276.55936,118.38793 -276.09623,119.71462 C -275.00205,122.84909 -269.07079,128.14516 -269.07079,128.14516 C -269.07079,128.14516 -271.49457,127.02109 -272.72402,129.97178 C -273.95348,132.92247 -273.9886,139.94792 -273.9886,139.94792 C -273.9886,139.94792 -281.78713,140.04814 -283.68372,145.28727 C -286.3098,152.54151 -279.95686,163.48841 -278.6254,161.58632 C -278.6254,161.58632 -282.77042,163.16705 -285.93187,162.00784 C -289.09332,160.84865 -291.97375,156.94952 -291.97375,156.94952 C -295.0091,157.50004 -297.54789,158.98173 -298.71819,161.02428 C -318.59793,154.4929 -323.79399,162.64519 -328.64661,171.14093 C -330.15348,172.6663 -332.01082,173.31546 -334.26698,172.96755 C -331.26173,169.16403 -330.79885,164.72492 -330.75426,160.18123 C -339.10694,160.70881 -346.85082,167.76069 -357.73199,166.22312 C -352.09932,162.42493 -349.14059,157.55716 -350.98756,150.76712 C -355.61608,147.92828 -362.25691,147.50419 -368.69169,146.83287 C -348.9713,142.63601 -336.62285,137.63393 -333.70494,129.97178 L -320.77811,128.84771 C -316.12223,126.06134 -315.99433,123.68661 -315.29826,121.26022 C -318.45818,117.90887 -323.65836,120.70178 -328.08458,119.43361 C -329.95046,118.89901 -330.07622,116.48374 -329.19009,115.82271 C -328.74703,115.4922 -328.25947,114.2899 -327.49886,114.12954 C -326.73825,113.96919 -325.70459,114.85078 -324.73136,114.75381 C -321.1047,114.39245 -309.591,114.17477 -305.88415,113.53222 C -303.6158,109.3784 -304.56867,105.20099 -307.57026,102.01049 z"
         id="path9540"
         style="fill:#f7d55d;fill-opacity:1;fill-rule:evenodd;stroke:#000000;stroke-width:3.00000024;stroke-linecap:butt;stroke-linejoin:miter;stroke-miterlimit:4;stroke-dasharray:none;stroke-opacity:1;display:inline" />
      <path
         d="M -300.76373,83.548062 C -300.76225,84.536255 -302.45303,85.337717 -304.53922,85.337717 C -306.62541,85.337717 -308.31619,84.536255 -308.31471,83.548062 C -308.31619,82.559868 -306.62541,81.758406 -304.53922,81.758406 C -302.45303,81.758406 -300.76225,82.559868 -300.76373,83.548062 z"
         id="path9542"
         style="fill:#ffffff;fill-opacity:1;fill-rule:evenodd;stroke:#000000;stroke-width:3.00000024;stroke-linecap:butt;stroke-linejoin:miter;stroke-miterlimit:4;stroke-dasharray:none;stroke-opacity:1;display:inline" />
      <path
         d="M -310.18791,212.86767 C -311.85815,212.83822 -313.05973,213.61709 -314.44428,214.0726 C -309.38075,218.08836 -304.33668,222.10861 -304.25716,227.38938 C -308.21532,235.6565 -304.15921,237.41182 -298.81153,238.12418 C -296.77273,235.82515 -294.19992,232.59976 -295.40017,230.29998 C -297.24644,226.76238 -299.8762,222.58858 -301.98815,217.9534 C -302.88749,217.00499 -303.91129,216.00973 -305.11783,214.93326 C -307.30478,213.40319 -308.88884,212.89058 -310.18791,212.86767 z"
         id="path9544"
         style="fill:#f7d55d;fill-opacity:1;fill-rule:evenodd;stroke:#000000;stroke-width:3.00000024;stroke-linecap:butt;stroke-linejoin:miter;stroke-miterlimit:4;stroke-dasharray:none;stroke-opacity:1" />
      <path
         d="M -271.52532,82.051624 C -270.57927,81.206199 -270.76902,80.801679 -272.70793,79.530469 C -277.64747,76.291942 -284.58198,73.833747 -292.02344,72.683366 C -295.15467,72.199307 -303.39477,72.268557 -307.04363,72.809596 C -308.76202,73.064393 -310.23293,73.336996 -310.31231,73.41538 C -310.39169,73.493765 -310.29948,74.003061 -310.1074,74.547148 C -309.75837,75.535826 -309.75705,75.536248 -307.844,75.277601 C -303.14306,74.642027 -296.27338,74.579466 -293.02873,75.142682 C -291.27786,75.446602 -288.63608,75.887308 -287.1581,76.122026 C -283.11915,76.763453 -275.90538,79.719084 -273.66538,81.650269 C -272.37847,82.759774 -272.32829,82.769184 -271.52532,82.051624 z"
         id="path9546"
         style="fill:#0000ff;fill-opacity:1;stroke:#000000;stroke-width:1.5;stroke-miterlimit:4;stroke-dasharray:none;stroke-opacity:1" />
      <path
         d="M -262.20008,71.863047 C -259.712,69.156057 -257.17988,66.375758 -256.57313,65.684605 L -255.46996,64.427964 L -256.8111,63.752347 C -258.47131,62.916002 -258.51514,62.916457 -260.57493,63.791438 C -261.63004,64.23964 -262.36859,64.794869 -262.55555,65.280443 C -262.84522,66.032786 -264.21064,66.409546 -264.21064,65.737133 C -264.21064,65.562449 -264.806,65.243389 -265.53366,65.028112 C -267.0589,64.57687 -268.68962,65.044691 -269.26003,66.097134 C -269.6984,66.905951 -268.91781,68.410036 -267.56664,69.360085 C -266.01614,70.450283 -266.2395,71.274588 -268.72367,73.63008 C -271.11145,75.894173 -270.80312,75.859521 -273.59328,74.177375 C -275.66563,72.927972 -282.79808,70.364412 -284.23954,70.350865 C -284.5582,70.347871 -285.90092,70.086162 -287.22335,69.76929 C -289.16283,69.304568 -289.57464,69.097667 -289.35293,68.699342 C -289.20176,68.427743 -288.66933,66.344269 -288.16975,64.069401 C -287.67018,61.794532 -287.2027,59.871973 -287.1309,59.797049 C -287.0591,59.722124 -286.39328,59.858663 -285.65129,60.10047 C -284.34658,60.525661 -284.26884,60.508549 -283.28737,59.580029 C -282.49463,58.830069 -282.31853,58.437769 -282.48277,57.787602 C -282.75696,56.702146 -283.4618,55.952815 -284.6756,55.456352 C -285.73879,55.021487 -285.88834,54.500055 -285.24267,53.479135 C -284.88771,52.917893 -284.94744,52.711845 -285.66153,52.034208 C -286.1196,51.599521 -286.89862,51.151355 -287.39268,51.038284 C -288.11929,50.871992 -288.41706,51.00755 -288.95067,51.747531 C -289.3135,52.250689 -289.66323,53.032664 -289.72785,53.485254 C -289.83246,54.21799 -290.04248,54.327689 -291.64486,54.486525 C -293.06715,54.627513 -293.61155,54.856812 -294.24183,55.58037 C -294.68043,56.083875 -295.03929,56.631468 -295.03929,56.797243 C -295.03929,57.445016 -292.64358,59.436941 -291.8645,59.436941 C -291.42077,59.436941 -290.96089,59.591636 -290.84256,59.78071 C -290.61309,60.147334 -291.51666,66.182306 -292.06165,67.92308 L -292.3876,68.964195 L -298.99117,69.153068 C -302.62314,69.256948 -306.22412,69.435831 -306.99335,69.550585 C -308.28641,69.743485 -308.42895,69.688122 -308.88223,68.816933 C -309.15188,68.298669 -309.79752,66.472122 -310.31699,64.75794 C -311.22544,61.760161 -311.23769,61.627598 -310.63828,61.283594 C -309.26568,60.495862 -307.77286,59.002755 -307.77286,58.417621 C -307.77286,57.622681 -308.99679,56.832594 -310.47194,56.675279 C -311.32017,56.584819 -311.6534,56.375142 -311.72806,55.884884 C -311.8904,54.818971 -313.28534,53.773224 -314.81511,53.570613 C -316.08679,53.402185 -316.2077,53.445851 -316.03544,54.011349 C -315.93028,54.356577 -314.69232,58.659349 -313.28442,63.573065 C -311.87652,68.486782 -310.70133,72.52363 -310.67288,72.543839 C -310.64443,72.564048 -309.33943,72.383485 -307.77286,72.142588 C -304.27472,71.604663 -294.64527,71.52208 -291.49564,72.002992 C -283.81903,73.175125 -276.44345,75.821765 -271.75025,79.088399 L -270.07478,80.254584 L -268.39932,78.519714 C -267.47781,77.565539 -264.68815,74.570037 -262.20008,71.863047 z"
         id="path9548"
         style="fill:#0000ff;fill-opacity:1;stroke:#000000;stroke-width:1.5;stroke-miterlimit:4;stroke-dasharray:none;stroke-opacity:1" />
    </g>
  </g>
  <g
     id="layer4" />
  <g
     id="layer2">
    <path
       d="M 300.00001,658.5 C 300.00001,658.5 598.50001,546.17969 598.50001,260.72817 C 598.50001,-24.723334 598.50001,2.1764865 598.50001,2.1764865 L 1.5,2.1764865 L 1.5,260.72817 C 1.5,546.17969 300.00001,658.5 300.00001,658.5 z"
       id="path2875"
       style="opacity:1;fill:url(#radialGradient3163);fill-opacity:1;fill-rule:evenodd;stroke:none;stroke-width:1px;stroke-linecap:butt;stroke-linejoin:miter;stroke-opacity:1" />
  </g>
  <g
     id="layer1">
    <path
       d="M 299.99999,658.50028 C 299.99999,658.50028 1.5,546.17992 1.5,260.72828 C 1.5,-24.723336 1.5,2.1764957 1.5,2.1764957 L 598.49999,2.1764957 L 598.49999,260.72828 C 598.49999,546.17992 299.99999,658.50028 299.99999,658.50028 z"
       id="path1411"
       style="opacity:1;fill:none;fill-opacity:1;fill-rule:evenodd;stroke:#000000;stroke-width:3.00000048;stroke-linecap:butt;stroke-linejoin:miter;stroke-miterlimit:4;stroke-dasharray:none;stroke-opacity:1" />
  </g>
</svg>
