<?xml version="1.0" encoding="UTF-8" standalone="no"?>
<!-- Created with Inkscape (http://www.inkscape.org/) -->
<svg
   xmlns:svg="http://www.w3.org/2000/svg"
   xmlns="http://www.w3.org/2000/svg"
   xmlns:xlink="http://www.w3.org/1999/xlink"
   version="1.0"
   width="390"
   height="430"
   id="svg2">
  <defs
     id="defs3">
    <linearGradient
       id="linearGradient2248">
      <stop
         style="stop-color:#ffffff;stop-opacity:0.56774193"
         offset="0"
         id="stop2250" />
      <stop
         style="stop-color:#ffffff;stop-opacity:0"
         offset="1"
         id="stop2252" />
    </linearGradient>
    <radialGradient
       cx="171.18079"
       cy="122.81735"
       r="187.18355"
       fx="171.18079"
       fy="122.81735"
       id="radialGradient1585"
       xlink:href="#linearGradient2248"
       gradientUnits="userSpaceOnUse"
       gradientTransform="matrix(0.937501,0.928726,-0.603304,0.611819,28.9504,-114.4866)" />
  </defs>
  <path
     d="M 6.5,6.4846867 L 380.83325,6.4846867 C 381.22292,214.7478 381.2698,373.82726 197.99251,423.5 C 7.3366604,368.98337 7.1713104,214.41511 6.5,6.4846867 z "
     style="fill:#ffffff;fill-opacity:1;fill-rule:evenodd;stroke:none;stroke-width:0.80000001;stroke-linecap:butt;stroke-linejoin:miter;stroke-miterlimit:4;stroke-dasharray:none;stroke-opacity:1"
     id="bgwhite" />
  <path
     d="M 380.78141,102.77771 L 198.30445,102.77771 L 197.88205,422.53479 C 384.41791,377.88669 375.90797,183.86546 380.78141,102.77771 z "
     style="fill:#0080ff;fill-opacity:1;fill-rule:evenodd;stroke:none;stroke-width:0.80000001;stroke-linecap:butt;stroke-linejoin:miter;stroke-miterlimit:4;stroke-dasharray:none;stroke-opacity:1"
     id="bg_blue" />
  <path
     d="M 6.9570754,102.88971 L 197.45965,103.73451 L 197.88205,423.49159 C 2.475774,377.15389 11.830519,183.97746 6.9570754,102.88971 z "
     style="fill:#ffe000;fill-opacity:1;fill-rule:evenodd;stroke:none;stroke-width:0.80000001;stroke-linecap:butt;stroke-linejoin:miter;stroke-miterlimit:4;stroke-dasharray:none;stroke-opacity:1"
     id="bg_gold" />
  <path
     d="M 6.5,6.4846867 L 380.83325,6.4846867 C 381.22292,214.7478 381.2698,373.82726 197.99251,423.5 C 7.3366604,368.98337 7.1713104,214.41511 6.5,6.4846867 z "
     style="fill:none;fill-opacity:1;fill-rule:evenodd;stroke:#000000;stroke-width:0.80000001;stroke-linecap:butt;stroke-linejoin:miter;stroke-miterlimit:4;stroke-dasharray:none;stroke-opacity:1"
     id="frame" />
  <path
     d="M 198.06431,422.75762 L 198.06431,103.44911"
     style="fill:none;fill-opacity:0.75;fill-rule:evenodd;stroke:#000000;stroke-width:0.80000001;stroke-linecap:butt;stroke-linejoin:miter;stroke-miterlimit:4;stroke-dasharray:none;stroke-opacity:1"
     id="line_v" />
  <path
     d="M 7.4980004,103.16078 L 380.10201,103.16078"
     style="fill:none;fill-opacity:0.75;fill-rule:evenodd;stroke:#000000;stroke-width:0.80000001;stroke-linecap:butt;stroke-linejoin:miter;stroke-miterlimit:4;stroke-dasharray:none;stroke-opacity:1"
     id="line_h" />
  <path
     d="M 219.15409,144.79815 C 217.85181,147.39824 216.54961,149.99838 215.24619,152.5979 C 213.50442,151.56989 211.47279,151.22342 209.51118,150.85941 C 207.22771,150.47593 204.92403,150.23015 202.62109,149.99836 C 203.5407,148.75945 205.16048,148.45463 206.58666,148.18747 C 208.45538,147.88207 210.35048,147.78467 212.24069,147.72362 C 210.02593,147.71937 207.78346,148.00003 205.59227,147.56562 C 204.90322,147.4059 204.15203,147.09669 203.82399,146.42329 C 206.2423,144.47572 209.2671,143.16341 212.40924,143.20664 C 214.74341,143.21025 217.03379,143.85509 219.15409,144.79815 z "
     style="fill:#ffe000;fill-rule:evenodd;stroke:#000000;stroke-width:0.80000001;stroke-miterlimit:4;stroke-dasharray:none"
     id="path1371" />
  <path
     d="M 314.14449,324.17768 C 316.24847,325.69406 319.40556,325.52554 321.50972,327.04166 C 320.20618,328.88268 317.85123,332.40902 316.54909,334.25103 C 314.85895,334.94621 313.06861,335.67672 311.2056,335.51853 C 310.42144,335.44618 307.75442,336.46879 307.43927,335.72486 C 309.84367,333.01617 309.72266,333.04561 312.12761,330.33742 C 308.92073,333.26172 310.13691,331.97683 306.92959,334.90064 C 306.2641,335.30988 305.23207,335.23497 304.92165,334.41804 C 304.567,333.65823 304.53611,332.7994 304.52489,331.97517 C 307.08997,329.04821 309.98034,326.31934 313.46595,324.52154 C 313.69037,324.40349 316.02207,322.6045 314.14449,324.17768 z "
     style="fill:#ffe000;fill-rule:evenodd;stroke:#000000;stroke-width:0.80000001;stroke-miterlimit:4;stroke-dasharray:none"
     id="path1373" />
  <path
     d="M 256.87478,283.51432 C 257.10122,286.23719 257.5402,288.11771 257.76554,290.84067 C 255.62206,290.89815 253.26807,291.79904 251.12459,291.85654 C 249.41818,290.7759 247.59982,289.6142 246.65371,287.75937 C 246.41924,287.20089 246.19085,286.07274 246.76123,285.79758 C 250.16619,286.1184 250.41295,285.80747 253.81779,286.12958 C 249.69994,285.26342 248.74003,285.03012 244.62219,284.16394 C 243.82295,283.83503 243.28501,282.79642 243.78531,282.00998 C 244.21806,281.37042 244.74413,280.30346 245.59097,280.33763 C 249.49907,280.69877 253.42873,281.5716 256.87478,283.51432 z "
     style="fill:#ffe000;fill-rule:evenodd;stroke:#000000;stroke-width:0.80000001;stroke-miterlimit:4;stroke-dasharray:none"
     id="path1375" />
  <path
     d="M 208.04371,213.93101 C 209.68733,216.25189 211.93404,218.0653 213.57591,220.38757 C 211.94488,221.75638 210.807,223.59479 209.65411,225.35959 C 208.22583,227.63438 206.92978,229.98938 205.68811,232.37027 C 204.99584,230.86015 205.44665,229.15811 205.80261,227.62056 C 206.30472,225.69 206.98419,223.81113 207.69311,221.94843 C 206.76544,224.16675 206.10352,226.52706 204.77309,228.55168 C 204.3842,229.09306 203.86715,229.66718 203.15931,229.72562 C 202.43228,226.21693 202.68614,222.44638 204.27698,219.20098 C 205.21007,217.2397 206.53363,215.48378 208.04371,213.93101 z "
     style="fill:#ffe000;fill-rule:evenodd;stroke:#000000;stroke-width:0.80000001;stroke-miterlimit:4;stroke-dasharray:none"
     id="path1377" />
  <path
     d="M 255.8887,283.03981 C 256.0933,285.32704 256.3224,289.24756 257.03613,291.04223 C 263.44721,291.25437 267.15448,291.46865 273.56554,291.68174 C 273.48263,293.96557 278.79435,294.76257 280.61901,294.11681 C 283.2354,293.53101 287.67279,291.61222 290.0208,290.35619 C 294.17158,281.13685 299.48794,277.84287 302.72019,275.10897 C 301.41797,271.31783 293.95288,258.0861 290.84606,258.30144 C 281.60884,265.13751 276.5444,272.84945 278.07199,284.20679 C 271.05382,281.56706 262.81895,281.69958 255.8887,283.03981 z "
     style="fill:#ffffff;fill-rule:evenodd;stroke:#000000;stroke-width:0.80000001;stroke-miterlimit:4;stroke-dasharray:none"
     id="path1379" />
  <path
     d="M 218.85468,144.79815 C 217.35149,147.18099 215.84908,149.56433 214.34589,151.94717 C 224.00156,156.95269 229.79452,163.83066 235.0177,173.13354 C 237.04965,176.59351 239.40785,182.66246 242.41871,185.4593 C 244.05449,186.70634 245.94838,189.80913 247.38268,189.8866 C 250.19709,185.68852 253.01319,181.49158 255.82849,177.29409 C 245.46514,164.51482 233.54958,152.52308 218.85468,144.79815 z "
     style="fill:#ffffff;fill-rule:evenodd;stroke:#000000;stroke-width:0.80000001;stroke-miterlimit:4;stroke-dasharray:none"
     id="path1381" />
  <path
     d="M 206.85303,214.88179 C 208.75658,216.94069 210.66007,218.99965 212.56473,221.05753 C 230.16096,216.02675 248.63373,231.48636 256.12789,212.3907 C 256.73079,206.97486 257.33186,201.55881 257.93259,196.14273 C 254.92582,192.89336 251.92018,189.64294 248.91399,186.39304 C 244.90632,190.61737 240.89804,194.84112 236.89089,199.06594 C 228.63387,203.49543 218.02036,201.3318 206.85303,214.88179 z "
     style="fill:#ffffff;fill-rule:evenodd;stroke:#000000;stroke-width:0.80000001;stroke-miterlimit:4;stroke-dasharray:none"
     id="path1383" />
  <path
     d="M 308.01559,141.34826 C 307.20261,139.12451 305.16939,137.66329 303.46786,136.13225 C 300.84801,133.96564 298.06717,132.00568 295.30079,130.03322 C 298.61044,125.33738 302.75203,121.33943 308.29443,119.30321 C 312.71993,117.67732 317.68211,118.81192 321.55103,121.30625 C 326.47519,124.48088 330.22376,128.37767 333.65369,133.06019 C 324.92893,135.26248 316.77182,139.25274 308.01559,141.34826 z "
     style="fill:#ffe000;fill-opacity:1;fill-rule:evenodd;stroke:#000000;stroke-width:0.80000001;stroke-miterlimit:4;stroke-dasharray:none"
     id="path1385" />
  <path
     d="M 256.81948,173.15852 C 248.05179,176.7855 244.09807,186.38991 239.6504,194.10199 C 238.24692,196.97054 234.90237,202.56109 239.22648,197.42562 C 241.35437,194.72112 248.73134,190.54132 249.80293,192.54618 C 245.26522,194.92749 234.4272,211.95933 249.03331,200.41023 C 256.39376,197.10705 244.54566,204.64853 246.43771,208.48871 C 247.25575,212.52537 239.93366,218.74891 241.07527,219.18453 C 244.43611,220.35476 250.93974,210.67095 248.88211,217.50686 C 248.30625,220.69309 241.4666,226.68836 247.85549,222.10284 C 250.22685,220.74059 254.44105,214.31454 250.99858,219.67492 C 248.64341,222.43982 248.29039,230.26296 250.8835,223.30061 C 253.40804,220.11768 256.5851,220.22264 252.9219,223.93141 C 250.95046,226.53114 250.55407,237.65386 253.10295,229.81975 C 254.33591,224.22195 262.1373,222.44672 256.64894,228.73424 C 254.59278,231.14248 255.49856,239.08839 257.05739,232.63235 C 257.40205,228.49798 264.56668,226.63027 260.60896,231.85497 C 259.36031,235.19154 261.12763,239.75331 261.88464,233.91125 C 267.47907,229.9106 261.17853,237.49849 263.46689,240.24355 C 266.53929,231.90947 270.88458,239.31975 269.40423,241.84897 C 272.78963,239.15422 273.72819,238.95025 272.03001,243.45131 C 271.46054,247.4648 262.05961,252.14488 270.2751,249.82622 C 274.12295,250.07862 280.6154,242.55992 277.83381,249.74082 C 274.92156,252.83306 275.87451,254.45608 279.45576,252.0724 C 284.82544,245.6261 276.80858,257.94547 278.96196,256.3512 C 282.56079,250.33452 282.08222,261.09493 283.09727,260.86526 C 289.24453,257.94551 282.48723,269.53708 289.90438,267.79554 C 299.85686,273.00278 296.46578,289.55018 304.09653,296.78135 C 310.24314,301.73965 313.57861,304.39101 312.37086,312.29834 C 311.83356,318.71114 311.98773,327.72223 320.83056,328.00482 C 325.45796,328.08596 326.34611,316.42662 322.98989,321.01763 C 319.73722,313.30766 320.44662,308.14915 321.72449,300.09585 C 321.59797,296.0322 313.41439,285.6582 314.68804,286.28627 C 319.72273,289.0744 326.70481,296.3162 327.77873,299.32574 C 329.10529,292.47263 321.09859,282.30564 319.52928,280.50146 C 321.94386,283.83724 330.29812,290.03143 326.01693,282.42675 C 323.93025,278.77248 326.09251,265.03817 330.45377,273.20988 C 335.57292,281.44288 338.70868,290.85629 339.77009,300.48183 C 342.95876,293.44514 342.66135,281.72737 341.23811,274.50755 C 341.71639,266.23465 338.80932,258.25217 335.29375,250.9055 C 339.30313,241.16724 336.90459,233.56986 328.90548,226.81003 C 322.79462,222.17973 319.14943,215.11005 313.1494,210.27977 C 308.85588,205.98124 301.97731,203.86774 300.57433,197.26315 C 300.09628,190.77225 302.91257,184.74907 297.91597,179.0268 C 293.63449,170.04528 283.81507,163.67434 273.70271,165.54106 C 267.1345,165.84701 262.13175,169.75422 256.81948,173.15852 z "
     style="fill:#ffffff;fill-rule:evenodd;stroke:#000000;stroke-width:0.80000001;stroke-miterlimit:4;stroke-dasharray:none"
     id="path1387" />
  <path
     d="M 263.15289,168.7094 C 266.75401,167.00587 270.62568,165.9237 274.55109,165.28659 C 271.46418,167.35042 267.75649,169.40212 266.65458,173.22282 C 268.30207,174.39713 277.81128,166.35563 278.01776,167.17484 C 276.30074,169.6741 273.48337,172.19775 274.23399,175.55505 C 276.4725,171.53041 281.29778,170.39763 284.48927,167.37642 C 281.37685,170.12104 277.56916,173.64143 278.263,178.21981 C 279.6243,177.53556 283.09275,171.45418 286.17525,173.79498 C 287.27203,176.95954 282.70254,180.28813 282.70202,182.07105 C 285.91592,180.65263 287.99203,177.71923 289.60522,174.72994 C 291.46861,178.96311 287.64385,183.16188 286.96478,186.67268 C 290.88606,184.74972 292.95885,180.65727 294.81359,176.92305 C 293.70615,181.68584 290.76373,186.2389 291.64739,191.29777 C 293.0364,189.35518 293.66539,182.74132 297.10003,186.03788 C 298.97561,187.84742 296.00738,192.36925 297.1768,192.73266 C 299.39296,190.93015 299.227,188.17297 300.82879,185.13669 C 300.79437,188.14934 300.45475,193.97125 300.61167,195.22278 C 301.6344,189.80712 302.65609,184.39127 303.67889,178.97562 C 304.25592,180.15783 305.71406,185.87448 305.69567,181.95224 C 305.68782,180.44818 305.63082,175.22736 306.9003,179.14699 C 308.48448,181.19891 306.90344,174.77779 308.06881,173.9167 C 308.99299,174.58305 310.34419,177.43062 309.99343,174.50685 C 309.68413,173.51855 310.38047,172.17411 311.19908,173.58611 C 312.37613,170.83521 311.60838,167.65204 312.18049,164.73795 C 312.77325,157.35723 313.45984,149.20494 309.13919,142.72353 C 307.09868,139.47341 304.40274,136.69864 301.57679,134.12707 C 298.43498,133.0373 295.741,127.54325 291.93363,129.55266 C 288.72908,128.69218 285.79664,127.99809 282.46253,128.11259 C 278.73253,127.92159 275.36992,128.69662 271.74096,129.22228 C 268.14146,129.86896 266.99517,133.01239 263.37132,133.52843 C 261.31561,133.61192 255.24238,139.15509 259.13227,140.07442 C 258.57112,140.93901 256.4738,141.85807 259.02249,142.28964 C 261.18976,141.90031 264.29873,142.5432 265.88749,142.71334 C 265.17857,145.99938 261.01458,144.34316 258.88539,145.08569 C 260.47543,148.14648 263.73739,149.42537 265.7768,151.87509 C 268.3081,153.25947 271.39652,153.4705 274.02582,152.59736 C 276.25648,154.66004 279.81001,158.21598 275.58925,160.33467 C 266.83143,162.1332 263.25774,167.78687 263.15289,168.7094 z "
     style="fill:#ffffff;fill-rule:evenodd;stroke:#000000;stroke-width:0.80000001;stroke-miterlimit:4;stroke-dasharray:none"
     id="path1389" />
  <path
     d="M 277.32819,156.25755 L 293.71199,157.0556 C 294.29099,155.15641 294.87099,153.67831 295.44999,151.77913 C 300.81729,153.51817 305.80079,155.35515 309.94659,152.69358 C 309.94659,153.25296 310.15714,153.60292 310.15714,154.1623 C 304.69894,156.88589 300.42719,155.01699 297.00439,152.89902 L 294.44119,159.28565 L 277.90199,158.01013 L 277.32819,156.25755 z "
     style="fill-rule:evenodd;stroke:none;stroke-width:0.80000001;stroke-miterlimit:4;stroke-dasharray:none"
     id="path1391" />
  <path
     d="M 296.2366,140.37386 C 298.19278,139.80888 299.45121,141.89104 300.2341,143.34012 C 301.85232,146.23896 302.679,149.4779 303.63784,152.63207 C 302.03261,152.58619 300.70696,151.08753 299.55027,150.04375 C 297.40349,147.73582 296.40967,144.64871 295.81467,141.62258 C 294.777,142.08646 294.34116,144.01806 294.88183,145.20233 C 296.04353,149.33924 299.43832,152.44773 303.21092,154.26865 C 304.90146,155.4002 304.39598,152.40985 304.58888,151.43629 C 304.61776,147.46657 302.8802,143.71483 300.52943,140.59851 C 299.74843,138.64023 297.87831,139.98045 296.49878,140.2964 L 296.2366,140.37386 L 296.2366,140.37386 z "
     style="fill:#000000;fill-opacity:1;fill-rule:evenodd;stroke:none;stroke-width:0.80000001;stroke-miterlimit:4;stroke-dasharray:none"
     id="path1393" />
  <path
     d="M 283.46154,144.20931 C 274.38184,143.90481 274.64104,135.702 281.79511,136.61434 C 290.46116,137.71951 289.87131,144.42181 283.46154,144.20931 z "
     style="fill:#ffffff;fill-rule:evenodd;stroke:#000000;stroke-width:0.80000001;stroke-miterlimit:4;stroke-dasharray:none"
     id="path1395" />
  <path
     d="M 282.0978,138.31904 C 285.78236,140.52935 285.40619,145.21402 280.77225,143.98527 C 276.91991,142.96377 274.75309,139.03957 277.97544,137.57147 C 279.13634,137.04256 281.04035,137.68469 282.0978,138.31904 z "
     style="fill-rule:evenodd;stroke-width:0.80000001;stroke-miterlimit:4;stroke-dasharray:none"
     id="path1397" />
  <path
     d="M 286.67261,228.69828 C 285.37653,226.13451 285.97511,221.9077 283.32795,220.45775 C 285.2092,222.88441 284.35388,226.51592 286.67261,228.69828 z "
     style="fill:#000000;fill-opacity:1;fill-rule:evenodd;stroke:none;stroke-width:0.80000001;stroke-miterlimit:4;stroke-dasharray:none"
     id="path1399" />
  <path
     d="M 284.57459,231.84141 C 283.27876,229.27756 283.87718,225.05083 281.23004,223.60088 C 283.11124,226.02754 282.25631,229.6588 284.57459,231.84141 z "
     style="fill:#000000;fill-opacity:1;fill-rule:evenodd;stroke:none;stroke-width:0.80000001;stroke-miterlimit:4;stroke-dasharray:none"
     id="path3303" />
  <path
     d="M 282.3964,234.35637 C 281.10057,231.79253 281.69896,227.56568 279.05172,226.11586 C 280.93281,228.54258 280.07744,232.17418 282.3964,234.35637 z "
     style="fill:#000000;fill-opacity:1;fill-rule:evenodd;stroke:none;stroke-width:0.80000001;stroke-miterlimit:4;stroke-dasharray:none"
     id="path3301" />
  <path
     d="M 280.49359,236.65817 C 279.19766,234.09438 279.79619,229.86744 277.14891,228.41768 C 279.02988,230.84446 278.17415,234.47626 280.49359,236.65817 z "
     style="fill:#000000;fill-opacity:1;fill-rule:evenodd;stroke:none;stroke-width:0.80000001;stroke-miterlimit:4;stroke-dasharray:none"
     id="path3299" />
  <path
     d="M 278.44571,239.50244 C 277.14987,236.93859 277.74827,232.71188 275.10116,231.26191 C 276.9824,233.68856 276.12706,237.32005 278.44571,239.50244 z "
     style="fill:#000000;fill-opacity:1;fill-rule:evenodd;stroke:none;stroke-width:0.80000001;stroke-miterlimit:4;stroke-dasharray:none"
     id="path3297" />
  <path
     d="M 331.5842,244.22108 C 330.28821,241.65695 330.88703,237.4297 328.23963,235.97952 C 330.12079,238.4066 329.26544,242.03833 331.5842,244.22108 z "
     style="fill:#000000;fill-opacity:1;fill-rule:evenodd;stroke:none;stroke-width:0.80000001;stroke-miterlimit:4;stroke-dasharray:none"
     id="path3295" />
  <path
     d="M 275.15119,241.23584 C 273.85521,238.67204 274.45374,234.4453 271.80665,232.99532 C 273.68783,235.42201 272.83173,239.05393 275.15119,241.23584 z "
     style="fill:#000000;fill-opacity:1;fill-rule:evenodd;stroke:none;stroke-width:0.80000001;stroke-miterlimit:4;stroke-dasharray:none"
     id="path3293" />
  <path
     d="M 303.73551,211.34057 C 302.44183,208.77627 303.04013,204.54951 300.39268,203.10013 C 302.27276,205.52715 301.41865,209.15729 303.73551,211.34057 z "
     style="fill:#000000;fill-opacity:1;fill-rule:evenodd;stroke:none;stroke-width:0.80000001;stroke-miterlimit:4;stroke-dasharray:none"
     id="path3291" />
  <path
     d="M 301.63651,214.4837 C 300.34327,211.91917 300.94074,207.69325 298.29402,206.24309 C 300.1756,208.66946 299.31972,212.30022 301.63651,214.4837 z "
     style="fill:#000000;fill-opacity:1;fill-rule:evenodd;stroke:none;stroke-width:0.80000001;stroke-miterlimit:4;stroke-dasharray:none"
     id="path3289" />
  <path
     d="M 299.45829,216.99978 C 298.16492,214.4353 298.76252,210.20936 296.11581,208.75919 C 297.99729,211.1856 297.14154,214.8163 299.45829,216.99978 z "
     style="fill:#000000;fill-opacity:1;fill-rule:evenodd;stroke:none;stroke-width:0.80000001;stroke-miterlimit:4;stroke-dasharray:none"
     id="path3287" />
  <path
     d="M 297.55539,219.30159 C 296.26219,216.73707 296.85964,212.51112 294.21292,211.061 C 296.09436,213.48746 295.23705,217.11902 297.55539,219.30159 z "
     style="fill:#000000;fill-opacity:1;fill-rule:evenodd;stroke:none;stroke-width:0.80000001;stroke-miterlimit:4;stroke-dasharray:none"
     id="path3285" />
  <path
     d="M 295.5076,222.14473 C 294.21433,219.58025 294.81189,215.35417 292.16508,213.90418 C 294.0463,216.33074 293.18889,219.96241 295.5076,222.14473 z "
     style="fill:#000000;fill-opacity:1;fill-rule:evenodd;stroke:none;stroke-width:0.80000001;stroke-miterlimit:4;stroke-dasharray:none"
     id="path3283" />
  <path
     d="M 289.84391,226.12129 C 288.54804,223.55748 289.14652,219.33064 286.49932,217.88081 C 288.38028,220.3076 287.52414,223.93958 289.84391,226.12129 z "
     style="fill:#000000;fill-opacity:1;fill-rule:evenodd;stroke:none;stroke-width:0.80000001;stroke-miterlimit:4;stroke-dasharray:none"
     id="path3281" />
  <path
     d="M 292.21521,223.87813 C 290.91937,221.31429 291.51777,217.08744 288.87052,215.63763 C 290.75162,218.06434 289.89653,221.69578 292.21521,223.87813 z "
     style="fill:#000000;fill-opacity:1;fill-rule:evenodd;stroke:none;stroke-width:0.80000001;stroke-miterlimit:4;stroke-dasharray:none"
     id="path3279" />
  <path
     d="M 262.33841,226.40776 C 261.04258,223.84392 261.64096,219.61707 258.99373,218.16725 C 260.87486,220.59395 260.01949,224.22554 262.33841,226.40776 z "
     style="fill:#000000;fill-opacity:1;fill-rule:evenodd;stroke:none;stroke-width:0.80000001;stroke-miterlimit:4;stroke-dasharray:none"
     id="path3277" />
  <path
     d="M 252.08148,215.3081 C 250.78564,212.74424 251.38396,208.51759 248.7369,207.06754 C 250.61839,209.49408 249.76306,213.12554 252.08148,215.3081 z "
     style="fill:#000000;fill-opacity:1;fill-rule:evenodd;stroke:none;stroke-width:0.80000001;stroke-miterlimit:4;stroke-dasharray:none"
     id="path3275" />
  <path
     d="M 267.17581,230.60536 C 265.88001,228.04149 266.4783,223.81478 263.83117,222.36482 C 265.71251,224.79143 264.85715,228.42296 267.17581,230.60536 z "
     style="fill:#000000;fill-opacity:1;fill-rule:evenodd;stroke:none;stroke-width:0.80000001;stroke-miterlimit:4;stroke-dasharray:none"
     id="path3273" />
  <path
     d="M 269.2237,227.76109 C 267.92775,225.19729 268.52629,220.97036 265.879,219.52059 C 267.76001,221.94734 266.90505,225.57872 269.2237,227.76109 z "
     style="fill:#000000;fill-opacity:1;fill-rule:evenodd;stroke:none;stroke-width:0.80000001;stroke-miterlimit:4;stroke-dasharray:none"
     id="path3271" />
  <path
     d="M 271.1265,225.45929 C 269.83066,222.89546 270.42907,218.66859 267.78182,217.21879 C 269.66288,219.64552 268.80785,223.27692 271.1265,225.45929 z "
     style="fill:#000000;fill-opacity:1;fill-rule:evenodd;stroke:none;stroke-width:0.80000001;stroke-miterlimit:4;stroke-dasharray:none"
     id="path3269" />
  <path
     d="M 273.30469,222.94433 C 272.00887,220.38048 272.60727,216.15377 269.96015,214.7038 C 271.8414,217.13044 270.98641,220.76172 273.30469,222.94433 z "
     style="fill:#000000;fill-opacity:1;fill-rule:evenodd;stroke:none;stroke-width:0.80000001;stroke-miterlimit:4;stroke-dasharray:none"
     id="path3267" />
  <path
     d="M 275.40369,219.80121 C 274.10791,217.23733 274.7062,213.01062 272.05907,211.56066 C 273.94038,213.98728 273.08501,217.61883 275.40369,219.80121 z "
     style="fill:#000000;fill-opacity:1;fill-rule:evenodd;stroke:none;stroke-width:0.80000001;stroke-miterlimit:4;stroke-dasharray:none"
     id="path3265" />
  <path
     d="M 280.19211,214.41603 C 278.89631,211.85217 279.49461,207.62543 276.84747,206.17551 C 278.7287,208.60218 277.8726,212.23413 280.19211,214.41603 z "
     style="fill:#000000;fill-opacity:1;fill-rule:evenodd;stroke:none;stroke-width:0.80000001;stroke-miterlimit:4;stroke-dasharray:none"
     id="path3263" />
  <path
     d="M 277.8198,216.66032 C 276.52405,214.09642 277.12224,209.86983 274.47521,208.41975 C 276.35673,210.84628 275.5014,214.47775 277.8198,216.66032 z "
     style="fill:#000000;fill-opacity:1;fill-rule:evenodd;stroke:none;stroke-width:0.80000001;stroke-miterlimit:4;stroke-dasharray:none"
     id="path3261" />
  <path
     d="M 283.4845,212.68263 C 282.19112,210.11817 282.78882,205.89205 280.14196,204.44206 C 282.02321,206.86858 281.16743,210.49934 283.4845,212.68263 z "
     style="fill:#000000;fill-opacity:1;fill-rule:evenodd;stroke:none;stroke-width:0.80000001;stroke-miterlimit:4;stroke-dasharray:none"
     id="path3259" />
  <path
     d="M 285.53229,209.83949 C 284.23908,207.27496 284.83654,203.04903 282.18982,201.59889 C 284.07132,204.02531 283.21474,207.65646 285.53229,209.83949 z "
     style="fill:#000000;fill-opacity:1;fill-rule:evenodd;stroke:none;stroke-width:0.80000001;stroke-miterlimit:4;stroke-dasharray:none"
     id="path3257" />
  <path
     d="M 288.9791,208.46359 C 287.68327,205.89975 288.28165,201.67292 285.63442,200.22309 C 287.5155,202.64981 286.6602,206.28136 288.9791,208.46359 z "
     style="fill:#000000;fill-opacity:1;fill-rule:evenodd;stroke:none;stroke-width:0.80000001;stroke-miterlimit:4;stroke-dasharray:none"
     id="path3255" />
  <path
     d="M 290.642,202.4277 C 289.34853,199.86332 289.9466,195.63671 287.29924,194.18722 C 289.17959,196.61413 288.32509,200.24441 290.642,202.4277 z "
     style="fill:#000000;fill-opacity:1;fill-rule:evenodd;stroke:none;stroke-width:0.80000001;stroke-miterlimit:4;stroke-dasharray:none"
     id="path3253" />
  <path
     d="M 295.14139,202.43448 C 293.8479,199.87013 294.44604,195.64337 291.7986,194.19405 C 293.67858,196.62117 292.82179,200.25278 295.14139,202.43448 z "
     style="fill:#000000;fill-opacity:1;fill-rule:evenodd;stroke:none;stroke-width:0.80000001;stroke-miterlimit:4;stroke-dasharray:none"
     id="path3251" />
  <path
     d="M 275.40161,200.49919 C 274.10585,197.93529 274.70404,193.70872 272.05702,192.25862 C 273.93859,194.68512 273.08324,198.3166 275.40161,200.49919 z "
     style="fill:#000000;fill-opacity:1;fill-rule:evenodd;stroke:none;stroke-width:0.80000001;stroke-miterlimit:4;stroke-dasharray:none"
     id="path3249" />
  <path
     d="M 271.4874,199.59132 C 270.19157,197.02748 270.78998,192.80076 268.14285,191.3508 C 270.02409,193.77744 269.1691,197.40872 271.4874,199.59132 z "
     style="fill:#000000;fill-opacity:1;fill-rule:evenodd;stroke:none;stroke-width:0.80000001;stroke-miterlimit:4;stroke-dasharray:none"
     id="path3247" />
  <path
     d="M 278.69611,198.76579 C 277.40034,196.20189 277.99855,191.9753 275.35151,190.52522 C 277.23304,192.95175 276.37767,196.58324 278.69611,198.76579 z "
     style="fill:#000000;fill-opacity:1;fill-rule:evenodd;stroke:none;stroke-width:0.80000001;stroke-miterlimit:4;stroke-dasharray:none"
     id="path3245" />
  <path
     d="M 280.7439,195.92152 C 279.44812,193.35763 280.0464,189.13108 277.39941,187.68095 C 279.28091,190.10749 278.42522,193.7391 280.7439,195.92152 z "
     style="fill:#000000;fill-opacity:1;fill-rule:evenodd;stroke:none;stroke-width:0.80000001;stroke-miterlimit:4;stroke-dasharray:none"
     id="path3243" />
  <path
     d="M 282.64679,193.61972 C 281.35093,191.05585 281.94927,186.8292 279.3022,185.37915 C 281.1837,187.80569 280.32837,191.43716 282.64679,193.61972 z "
     style="fill:#000000;fill-opacity:1;fill-rule:evenodd;stroke:none;stroke-width:0.80000001;stroke-miterlimit:4;stroke-dasharray:none"
     id="path3241" />
  <path
     d="M 284.82502,191.10476 C 283.52916,188.54093 284.12772,184.31393 281.48042,182.86419 C 283.36198,185.2907 282.50667,188.92216 284.82502,191.10476 z "
     style="fill:#000000;fill-opacity:1;fill-rule:evenodd;stroke:none;stroke-width:0.80000001;stroke-miterlimit:4;stroke-dasharray:none"
     id="path3239" />
  <path
     d="M 300.29599,181.10357 C 298.99993,178.53946 299.80935,173.25939 297.16188,171.80928 C 299.04304,174.23636 297.97717,178.92086 300.29599,181.10357 z "
     style="fill:#000000;fill-opacity:1;fill-rule:evenodd;stroke:none;stroke-width:0.80000001;stroke-miterlimit:4;stroke-dasharray:none"
     id="path3237" />
  <path
     d="M 315.4289,257.23683 C 314.13523,254.6722 314.73382,250.4449 312.08608,248.99537 C 313.96596,251.4229 313.11003,255.0543 315.4289,257.23683 z "
     style="fill:#000000;fill-opacity:1;fill-rule:evenodd;stroke:none;stroke-width:0.80000001;stroke-miterlimit:4;stroke-dasharray:none"
     id="path3235" />
  <path
     d="M 313.05869,259.47999 C 311.76287,256.91614 312.36127,252.68943 309.71415,251.23946 C 311.59539,253.66611 310.74009,257.29757 313.05869,259.47999 z "
     style="fill:#000000;fill-opacity:1;fill-rule:evenodd;stroke:none;stroke-width:0.80000001;stroke-miterlimit:4;stroke-dasharray:none"
     id="path3233" />
  <path
     d="M 318.72339,255.5023 C 317.42757,252.93846 318.02596,248.71161 315.37872,247.26179 C 317.25982,249.68851 316.40451,253.32005 318.72339,255.5023 z "
     style="fill:#000000;fill-opacity:1;fill-rule:evenodd;stroke:none;stroke-width:0.80000001;stroke-miterlimit:4;stroke-dasharray:none"
     id="path3231" />
  <path
     d="M 320.77121,252.65916 C 319.47537,250.09532 320.07378,245.8686 317.42666,244.41863 C 319.3079,246.84528 318.45256,250.47676 320.77121,252.65916 z "
     style="fill:#000000;fill-opacity:1;fill-rule:evenodd;stroke:none;stroke-width:0.80000001;stroke-miterlimit:4;stroke-dasharray:none"
     id="path3229" />
  <path
     d="M 322.67411,250.35734 C 321.3783,247.79348 321.9766,243.56677 319.32947,242.11681 C 321.21076,244.54344 320.3554,248.17498 322.67411,250.35734 z "
     style="fill:#000000;fill-opacity:1;fill-rule:evenodd;stroke:none;stroke-width:0.80000001;stroke-miterlimit:4;stroke-dasharray:none"
     id="path3227" />
  <path
     d="M 324.8523,247.84126 C 323.55666,245.27765 324.15713,241.04997 321.50945,239.60087 C 323.38921,242.02806 322.53359,245.65907 324.8523,247.84126 z "
     style="fill:#000000;fill-opacity:1;fill-rule:evenodd;stroke:none;stroke-width:0.80000001;stroke-miterlimit:4;stroke-dasharray:none"
     id="path3225" />
  <path
     d="M 326.9513,244.69813 C 325.65551,242.13426 326.25381,237.90755 323.60667,236.4576 C 325.48798,238.88422 324.63262,242.51575 326.9513,244.69813 z "
     style="fill:#000000;fill-opacity:1;fill-rule:evenodd;stroke:none;stroke-width:0.80000001;stroke-miterlimit:4;stroke-dasharray:none"
     id="path3223" />
  <path
     d="M 304.33429,248.11305 C 302.69561,245.44786 303.68124,241.15056 300.3158,239.68288 C 302.64801,241.98776 301.91053,245.86711 304.33429,248.11305 z "
     style="fill:#000000;fill-opacity:1;fill-rule:evenodd;stroke:none;stroke-width:0.80000001;stroke-miterlimit:4;stroke-dasharray:none"
     id="path3221" />
  <path
     d="M 301.97449,251.537 C 300.68124,248.9725 301.27879,244.74646 298.63197,243.29643 C 300.51332,245.7229 299.65744,249.3537 301.97449,251.537 z "
     style="fill:#000000;fill-opacity:1;fill-rule:evenodd;stroke:none;stroke-width:0.80000001;stroke-miterlimit:4;stroke-dasharray:none"
     id="path3219" />
  <path
     d="M 299.79731,254.05198 C 298.50396,251.4879 299.10158,247.26192 296.4548,245.81246 C 298.33604,248.23864 297.47795,251.87044 299.79731,254.05198 z "
     style="fill:#000000;fill-opacity:1;fill-rule:evenodd;stroke:none;stroke-width:0.80000001;stroke-miterlimit:4;stroke-dasharray:none"
     id="path3217" />
  <path
     d="M 297.8934,256.35377 C 296.59973,253.78947 297.19802,249.56273 294.5506,248.11332 C 296.43072,250.54033 295.57628,254.17063 297.8934,256.35377 z "
     style="fill:#000000;fill-opacity:1;fill-rule:evenodd;stroke:none;stroke-width:0.80000001;stroke-miterlimit:4;stroke-dasharray:none"
     id="path3215" />
  <path
     d="M 295.84561,259.19804 C 295.62482,256.67187 291.97538,248.09973 293.95761,255.0006 C 294.26642,256.50435 294.62156,258.1453 295.84561,259.19804 z "
     style="fill:#000000;fill-opacity:1;fill-rule:evenodd;stroke:none;stroke-width:0.80000001;stroke-miterlimit:4;stroke-dasharray:none"
     id="path3213" />
  <path
     d="M 290.18189,263.1746 C 289.95779,260.64978 286.3097,252.07768 288.29362,258.97738 C 288.60279,260.48101 288.95799,262.12181 290.18189,263.1746 z "
     style="fill:#000000;fill-opacity:1;fill-rule:evenodd;stroke:none;stroke-width:0.80000001;stroke-miterlimit:4;stroke-dasharray:none"
     id="path3211" />
  <path
     d="M 292.5532,260.93257 C 292.32938,258.4074 288.68084,249.83416 290.66497,256.73469 C 290.97417,258.2385 291.32934,259.87948 292.5532,260.93257 z "
     style="fill:#000000;fill-opacity:1;fill-rule:evenodd;stroke:none;stroke-width:0.80000001;stroke-miterlimit:4;stroke-dasharray:none"
     id="path3209" />
  <path
     d="M 324.70941,231.77374 C 323.41382,229.21009 324.01415,224.98257 321.36661,223.53331 C 323.24667,225.96039 322.39021,229.5918 324.70941,231.77374 z "
     style="fill:#000000;fill-opacity:1;fill-rule:evenodd;stroke:none;stroke-width:0.80000001;stroke-miterlimit:4;stroke-dasharray:none"
     id="path3207" />
  <path
     d="M 319.8689,231.58088 C 318.573,229.01706 319.17143,224.79027 316.52425,223.34036 C 318.40549,225.76701 317.5502,229.39852 319.8689,231.58088 z "
     style="fill:#000000;fill-opacity:1;fill-rule:evenodd;stroke:none;stroke-width:0.80000001;stroke-miterlimit:4;stroke-dasharray:none"
     id="path3205" />
  <path
     d="M 315.6323,231.6869 C 314.33876,229.12257 314.937,224.89584 312.28959,223.44647 C 314.16955,225.87358 313.31355,229.50471 315.6323,231.6869 z "
     style="fill:#000000;fill-opacity:1;fill-rule:evenodd;stroke:none;stroke-width:0.80000001;stroke-miterlimit:4;stroke-dasharray:none"
     id="path3203" />
  <path
     d="M 314.9292,238.25174 C 313.6357,235.68739 314.23384,231.46064 311.5864,230.0113 C 313.46641,232.43839 312.61045,236.06955 314.9292,238.25174 z "
     style="fill:#000000;fill-opacity:1;fill-rule:evenodd;stroke:none;stroke-width:0.80000001;stroke-miterlimit:4;stroke-dasharray:none"
     id="path3201" />
  <path
     d="M 311.6817,241.09599 C 310.38603,238.53236 310.98644,234.30487 308.33893,232.85554 C 310.2191,235.28256 309.36313,238.91368 311.6817,241.09599 z "
     style="fill:#000000;fill-opacity:1;fill-rule:evenodd;stroke:none;stroke-width:0.80000001;stroke-miterlimit:4;stroke-dasharray:none"
     id="path3199" />
  <path
     d="M 306.017,245.07255 C 304.7212,242.50869 305.3195,238.28198 302.67237,236.83202 C 304.55368,239.25865 303.69829,242.89018 306.017,245.07255 z "
     style="fill:#000000;fill-opacity:1;fill-rule:evenodd;stroke:none;stroke-width:0.80000001;stroke-miterlimit:4;stroke-dasharray:none"
     id="path3197" />
  <path
     d="M 308.81038,243.25049 C 307.51449,240.68666 308.11292,236.45987 305.46574,235.00996 C 307.34698,237.43661 306.49204,241.06792 308.81038,243.25049 z "
     style="fill:#000000;fill-opacity:1;fill-rule:evenodd;stroke:none;stroke-width:0.80000001;stroke-miterlimit:4;stroke-dasharray:none"
     id="path3195" />
  <path
     d="M 302.9979,229.8441 C 302.30707,227.48998 297.3787,220.22195 300.41857,226.36277 C 300.936,227.7152 301.56101,229.23582 302.9979,229.8441 z "
     style="fill:#000000;fill-opacity:1;fill-rule:evenodd;stroke:none;stroke-width:0.80000001;stroke-miterlimit:4;stroke-dasharray:none"
     id="path3193" />
  <path
     d="M 301.06589,232.93197 C 300.39945,230.56456 295.45442,223.26649 298.50478,229.42088 C 299.02039,230.77807 299.63445,232.3047 301.06589,232.93197 z "
     style="fill:#000000;fill-opacity:1;fill-rule:evenodd;stroke:none;stroke-width:0.80000001;stroke-miterlimit:4;stroke-dasharray:none"
     id="path3191" />
  <path
     d="M 305.88141,226.91977 C 305.18959,224.5696 300.26782,217.3001 303.31019,223.43581 C 303.82517,224.78807 304.44522,226.31061 305.88141,226.91977 z "
     style="fill:#000000;fill-opacity:1;fill-rule:evenodd;stroke:none;stroke-width:0.80000001;stroke-miterlimit:4;stroke-dasharray:none"
     id="path3189" />
  <path
     d="M 307.37421,223.42927 C 306.72313,221.05494 301.7577,213.76546 304.81809,219.91397 C 305.33548,221.27033 305.9473,222.79537 307.37421,223.42927 z "
     style="fill:#000000;fill-opacity:1;fill-rule:evenodd;stroke:none;stroke-width:0.80000001;stroke-miterlimit:4;stroke-dasharray:none"
     id="path3187" />
  <path
     d="M 308.8295,220.47787 C 308.17791,218.1037 303.21307,210.81532 306.27264,216.96372 C 306.79,218.31994 307.40224,219.84483 308.8295,220.47787 z "
     style="fill:#000000;fill-opacity:1;fill-rule:evenodd;stroke:none;stroke-width:0.80000001;stroke-miterlimit:4;stroke-dasharray:none"
     id="path3185" />
  <path
     d="M 310.52259,217.22197 C 309.85457,214.85539 304.91192,207.5562 307.9609,213.71132 C 308.4761,215.06871 309.09034,216.5958 310.52259,217.22197 z "
     style="fill:#000000;fill-opacity:1;fill-rule:evenodd;stroke:none;stroke-width:0.80000001;stroke-miterlimit:4;stroke-dasharray:none"
     id="path3183" />
  <path
     d="M 317.5091,219.67601 C 316.85145,217.31065 311.88626,210.05177 314.95002,216.17856 C 315.46664,217.53088 316.07994,219.05347 317.5091,219.67601 z "
     style="fill:#000000;fill-opacity:1;fill-rule:evenodd;stroke:none;stroke-width:0.80000001;stroke-miterlimit:4;stroke-dasharray:none"
     id="path3181" />
  <path
     d="M 256.6236,213.87695 C 255.32781,211.31307 255.9261,207.0865 253.2791,205.63639 C 255.1606,208.06292 254.30526,211.69435 256.6236,213.87695 z "
     style="fill:#000000;fill-opacity:1;fill-rule:evenodd;stroke:none;stroke-width:0.80000001;stroke-miterlimit:4;stroke-dasharray:none"
     id="path3179" />
  <path
     d="M 262.36969,215.68593 C 261.07387,213.12209 261.67226,208.89523 259.02502,207.44542 C 260.90604,209.87218 260.05027,213.504 262.36969,215.68593 z "
     style="fill:#000000;fill-opacity:1;fill-rule:evenodd;stroke:none;stroke-width:0.80000001;stroke-miterlimit:4;stroke-dasharray:none"
     id="path3177" />
  <path
     d="M 261.15851,206.54072 C 259.86524,203.97624 260.46278,199.75019 257.81599,198.30018 C 259.69726,200.72672 258.83954,204.35854 261.15851,206.54072 z "
     style="fill:#000000;fill-opacity:1;fill-rule:evenodd;stroke:none;stroke-width:0.80000001;stroke-miterlimit:4;stroke-dasharray:none"
     id="path3175" />
  <path
     d="M 266.32041,210.54097 C 265.02464,207.97707 265.62284,203.75048 262.97581,202.3004 C 264.85734,204.72692 264.00198,208.35842 266.32041,210.54097 z "
     style="fill:#000000;fill-opacity:1;fill-rule:evenodd;stroke:none;stroke-width:0.80000001;stroke-miterlimit:4;stroke-dasharray:none"
     id="path3173" />
  <path
     d="M 266.6135,204.6889 C 265.31768,202.12505 265.91606,197.89836 263.26896,196.44837 C 265.15023,198.875 264.29488,202.50649 266.6135,204.6889 z "
     style="fill:#000000;fill-opacity:1;fill-rule:evenodd;stroke:none;stroke-width:0.80000001;stroke-miterlimit:4;stroke-dasharray:none"
     id="path3171" />
  <path
     d="M 270.5965,204.88176 C 269.30068,202.31791 269.89906,198.09121 267.25196,196.64123 C 269.13322,199.06786 268.27787,202.69936 270.5965,204.88176 z "
     style="fill:#000000;fill-opacity:1;fill-rule:evenodd;stroke:none;stroke-width:0.80000001;stroke-miterlimit:4;stroke-dasharray:none"
     id="path3169" />
  <path
     d="M 286.1781,249.52278 C 284.88215,246.95899 285.48068,242.73207 282.83341,241.28229 C 284.71445,243.70903 283.85909,247.34062 286.1781,249.52278 z "
     style="fill:#000000;fill-opacity:1;fill-rule:evenodd;stroke:none;stroke-width:0.80000001;stroke-miterlimit:4;stroke-dasharray:none"
     id="path3167" />
  <path
     d="M 283.80579,251.76707 C 282.51001,249.2032 283.1083,244.97649 280.46117,243.52654 C 282.34247,245.95316 281.4871,249.58469 283.80579,251.76707 z "
     style="fill:#000000;fill-opacity:1;fill-rule:evenodd;stroke:none;stroke-width:0.80000001;stroke-miterlimit:4;stroke-dasharray:none"
     id="path3165" />
  <path
     d="M 289.4726,247.78938 C 288.17666,245.22558 288.77518,240.99868 286.12791,239.54889 C 288.00895,241.97563 287.15361,245.60721 289.4726,247.78938 z "
     style="fill:#000000;fill-opacity:1;fill-rule:evenodd;stroke:none;stroke-width:0.80000001;stroke-miterlimit:4;stroke-dasharray:none"
     id="path3163" />
  <path
     d="M 291.52039,244.94626 C 290.2246,242.38238 290.8229,238.15566 288.17576,236.70571 C 290.05707,239.13233 289.20205,242.76369 291.52039,244.94626 z "
     style="fill:#000000;fill-opacity:1;fill-rule:evenodd;stroke:none;stroke-width:0.80000001;stroke-miterlimit:4;stroke-dasharray:none"
     id="path3161" />
  <path
     d="M 293.42111,242.64444 C 292.1278,240.07996 292.72545,235.85394 290.07867,234.40387 C 291.95997,236.83036 291.10408,240.46114 293.42111,242.64444 z "
     style="fill:#000000;fill-opacity:1;fill-rule:evenodd;stroke:none;stroke-width:0.80000001;stroke-miterlimit:4;stroke-dasharray:none"
     id="path3159" />
  <path
     d="M 295.6015,240.12835 C 294.3057,237.56449 294.904,233.33778 292.25687,231.88782 C 294.13817,234.31445 293.28278,237.94599 295.6015,240.12835 z "
     style="fill:#000000;fill-opacity:1;fill-rule:evenodd;stroke:none;stroke-width:0.80000001;stroke-miterlimit:4;stroke-dasharray:none"
     id="path3157" />
  <path
     d="M 297.69831,236.98523 C 296.40496,234.42078 297.00272,230.19461 294.35581,228.7447 C 296.23687,231.17129 295.38104,234.80211 297.69831,236.98523 z "
     style="fill:#000000;fill-opacity:1;fill-rule:evenodd;stroke:none;stroke-width:0.80000001;stroke-miterlimit:4;stroke-dasharray:none"
     id="path3155" />
  <path
     d="M 317.23789,275.36369 C 314.96579,273.87507 314.86912,269.20348 311.3353,269.89957 C 314.28944,270.55922 314.24498,274.76816 317.23789,275.36369 z "
     style="fill:#000000;fill-opacity:1;fill-rule:evenodd;stroke:none;stroke-width:0.80000001;stroke-miterlimit:4;stroke-dasharray:none"
     id="path3153" />
  <path
     d="M 313.82129,281.33079 C 311.5681,279.82199 311.48985,275.14748 307.9511,275.83848 C 310.91157,276.49725 310.83194,280.71985 313.82129,281.33079 z "
     style="fill:#000000;fill-opacity:1;fill-rule:evenodd;stroke:none;stroke-width:0.80000001;stroke-miterlimit:4;stroke-dasharray:none"
     id="path3151" />
  <path
     d="M 321.77591,272.43144 C 319.52803,270.93019 319.42298,266.27989 315.8994,266.97636 C 318.84905,267.62953 318.79545,271.82949 321.77591,272.43144 z "
     style="fill:#000000;fill-opacity:1;fill-rule:evenodd;stroke:none;stroke-width:0.80000001;stroke-miterlimit:4;stroke-dasharray:none"
     id="path3149" />
  <path
     d="M 323.3407,264.86628 C 321.06496,263.36857 320.99512,258.67418 317.4465,259.36382 C 320.39459,260.05294 320.33994,264.2628 323.3407,264.86628 z "
     style="fill:#000000;fill-opacity:1;fill-rule:evenodd;stroke:none;stroke-width:0.80000001;stroke-miterlimit:4;stroke-dasharray:none"
     id="path3147" />
  <path
     d="M 328.00281,261.75361 C 325.74033,260.25368 325.67374,255.57363 322.1347,256.26016 C 325.0717,256.95244 325.01255,261.14762 328.00281,261.75361 z "
     style="fill:#000000;fill-opacity:1;fill-rule:evenodd;stroke:none;stroke-width:0.80000001;stroke-miterlimit:4;stroke-dasharray:none"
     id="path3145" />
  <path
     d="M 337.1467,270.32475 C 334.8676,268.83995 334.81999,264.14179 331.2765,264.83132 C 334.23107,265.49929 334.15587,269.71626 337.1467,270.32475 z "
     style="fill:#000000;fill-opacity:1;fill-rule:evenodd;stroke:none;stroke-width:0.80000001;stroke-miterlimit:4;stroke-dasharray:none"
     id="path3143" />
  <path
     d="M 333.17621,256.30528 C 330.92307,254.79599 330.84494,250.12167 327.306,250.81184 C 330.251,251.49312 330.1875,255.69526 333.17621,256.30528 z "
     style="fill:#000000;fill-opacity:1;fill-rule:evenodd;stroke:none;stroke-width:0.80000001;stroke-miterlimit:4;stroke-dasharray:none"
     id="path3141" />
  <path
     d="M 271.99649,184.36061 C 270.70068,181.79675 271.29906,177.57006 268.65196,176.12008 C 270.53325,178.5467 269.67787,182.1782 271.99649,184.36061 z "
     style="fill:#000000;fill-opacity:1;fill-rule:evenodd;stroke:none;stroke-width:0.80000001;stroke-miterlimit:4;stroke-dasharray:none"
     id="path3139" />
  <path
     d="M 267.2248,183.45276 C 265.92894,180.88893 266.52742,176.6621 263.88021,175.21225 C 265.76125,177.63899 264.90591,181.27054 267.2248,183.45276 z "
     style="fill:#000000;fill-opacity:1;fill-rule:evenodd;stroke:none;stroke-width:0.80000001;stroke-miterlimit:4;stroke-dasharray:none"
     id="path3137" />
  <path
     d="M 275.28891,182.62721 C 273.99563,180.06271 274.59321,175.83678 271.9465,174.38662 C 273.828,176.81301 272.97217,180.44372 275.28891,182.62721 z "
     style="fill:#000000;fill-opacity:1;fill-rule:evenodd;stroke:none;stroke-width:0.80000001;stroke-miterlimit:4;stroke-dasharray:none"
     id="path3135" />
  <path
     d="M 286.91447,168.37278 C 285.62102,165.8084 286.21904,161.58181 283.57173,160.13232 C 285.45197,162.55932 284.59561,166.19063 286.91447,168.37278 z "
     style="fill:#000000;fill-opacity:1;fill-rule:evenodd;stroke:none;stroke-width:0.80000001;stroke-miterlimit:4;stroke-dasharray:none"
     id="path3133" />
  <path
     d="M 293.62194,169.14119 C 292.3261,166.57734 292.13007,162.98226 289.48294,161.5323 C 291.36415,163.95895 291.30364,166.95861 293.62194,169.14119 z "
     style="fill:#000000;fill-opacity:1;fill-rule:evenodd;stroke:none;stroke-width:0.80000001;stroke-miterlimit:4;stroke-dasharray:none"
     id="path3131" />
  <path
     d="M 300.44931,170.33212 C 299.15579,167.76779 299.33285,164.27794 296.68542,162.82862 C 298.5654,165.25574 298.12967,168.15044 300.44931,170.33212 z "
     style="fill:#000000;fill-opacity:1;fill-rule:evenodd;stroke:none;stroke-width:0.80000001;stroke-miterlimit:4;stroke-dasharray:none"
     id="path3129" />
  <path
     d="M 305.11881,167.00403 C 303.82519,164.43972 304.42344,161.47623 301.77601,160.02689 C 303.65604,162.45397 302.79996,164.82191 305.11881,167.00403 z "
     style="fill:#000000;fill-opacity:1;fill-rule:evenodd;stroke:none;stroke-width:0.80000001;stroke-miterlimit:4;stroke-dasharray:none"
     id="path3127" />
  <path
     d="M 303.87632,270.12062 C 302.58056,267.55672 303.17873,263.33016 300.53173,261.88005 C 302.41329,264.30657 301.55755,267.93827 303.87632,270.12062 z "
     style="fill:#000000;fill-opacity:1;fill-rule:evenodd;stroke:none;stroke-width:0.80000001;stroke-miterlimit:4;stroke-dasharray:none"
     id="path3125" />
  <path
     d="M 305.77909,267.8188 C 304.48323,265.25498 305.08189,261.02799 302.4346,259.57825 C 304.31605,262.00479 303.46076,265.63621 305.77909,267.8188 z "
     style="fill:#000000;fill-opacity:1;fill-rule:evenodd;stroke:none;stroke-width:0.80000001;stroke-miterlimit:4;stroke-dasharray:none"
     id="path3123" />
  <path
     d="M 307.9574,265.30385 C 306.66156,262.74002 307.26013,258.513 304.61281,257.06329 C 306.49435,259.4898 305.63897,263.12131 307.9574,265.30385 z "
     style="fill:#000000;fill-opacity:1;fill-rule:evenodd;stroke:none;stroke-width:0.80000001;stroke-miterlimit:4;stroke-dasharray:none"
     id="path3121" />
  <path
     d="M 310.05631,262.15959 C 308.76048,259.59575 309.35886,255.36903 306.71176,253.91908 C 308.59295,256.34576 307.7368,259.9777 310.05631,262.15959 z "
     style="fill:#000000;fill-opacity:1;fill-rule:evenodd;stroke:none;stroke-width:0.80000001;stroke-miterlimit:4;stroke-dasharray:none"
     id="path3119" />
  <path
     d="M 255.91494,192.13086 C 254.10024,186.73785 255.21963,185.33974 252.57213,183.89042 C 254.58089,186.47831 253.85644,190.27111 255.91494,192.13086 z "
     style="fill:#000000;fill-opacity:1;fill-rule:evenodd;stroke:none;stroke-width:0.80000001;stroke-miterlimit:4;stroke-dasharray:none"
     id="path3117" />
  <path
     d="M 262.81931,192.01375 C 261.52338,189.44997 262.12216,185.22283 259.47476,183.77322 C 261.5421,186.12542 260.50067,189.83136 262.81931,192.01375 z "
     style="fill:#000000;fill-opacity:1;fill-rule:evenodd;stroke:none;stroke-width:0.80000001;stroke-miterlimit:4;stroke-dasharray:none"
     id="path3115" />
  <path
     d="M 263.3743,184.23768 C 262.08075,181.67339 262.31561,177.44632 259.66798,175.99724 C 261.54813,178.42428 261.05496,182.05581 263.3743,184.23768 z "
     style="fill:#000000;fill-opacity:1;fill-rule:evenodd;stroke:none;stroke-width:0.80000001;stroke-miterlimit:4;stroke-dasharray:none"
     id="path3113" />
  <path
     d="M 320.4869,150.04871 C 322.1812,152.88721 322.48578,156.83894 326.65693,156.28097 C 330.08009,155.82305 332.33105,152.50957 331.95994,149.33743 C 331.66232,146.79347 330.57779,143.69332 328.01392,142.77281 C 325.25311,141.7816 322.64459,144.19054 320.82159,146.04345 C 317.29726,149.6256 315.00308,154.30199 312.52821,158.6485 C 313.15975,152.63942 311.59257,146.23892 307.9798,141.50888 C 305.97488,138.88394 303.67817,136.49849 301.24399,134.27481 C 307.21707,129.70164 314.62478,125.9861 322.35901,126.92005 C 329.40559,127.77097 335.57212,131.78675 339.46592,137.3999 C 343.23494,142.83318 344.45551,150.39814 342.42481,157.01837 C 341.2679,160.78996 338.12375,163.51804 334.67665,165.18119 C 330.47967,167.20614 325.21214,167.01134 321.77539,163.37461 C 318.50153,159.97378 318.84081,154.49952 320.4869,150.04871 z "
     style="fill:#ffe000;fill-rule:evenodd;stroke:#000000;stroke-width:0.80000001;stroke-miterlimit:4;stroke-dasharray:none"
     id="path1401" />
  <path
     d="M 314.38229,128.7859 C 309.92386,131.99389 314.25111,145.63405 318.73049,147.25785 M 323.329,127.57127 C 318.2721,131.5261 321.33531,142.59733 324.23139,142.76701 M 333.0017,131.11138 C 327.47775,130.23269 324.29735,139.70616 326.86449,142.46815 M 339.406,137.96491 C 334.39468,135.83412 329.7093,140.35967 330.86078,145.13855 L 330.89959,145.39137 M 343.18768,150.97501 C 343.15681,145.38008 333.53334,144.50582 332.25789,150.83969 M 337.41659,163.57687 C 342.03545,158.872 334.35615,152.84212 329.28259,155.61129"
     style="fill:none;stroke:#000000;stroke-width:0.80000001;stroke-miterlimit:4;stroke-dasharray:none"
     id="path1403" />
  <path
     d="M 107.01542,261.69934 C 117.70336,266.81213 129.665,271.12846 137.20882,280.51632 C 140.56417,284.11004 138.59701,289.62336 134.17159,291.34876 C 130.99677,295.50272 127.58041,288.56668 126.37111,289.39064 C 127.6676,295.36436 128.59294,302.06741 133.17717,306.61995 C 139.45697,311.43747 145.21082,317.82305 146.3452,325.75948 C 147.22611,323.36725 148.64855,317.10985 149.24542,317.27458 C 149.49976,320.77166 149.9886,327.97701 151.54125,328.89994 C 152.76039,324.10927 162.15638,323.99469 159.77246,329.89613 C 158.5105,335.90512 167.64818,335.92163 166.41338,329.96354 C 165.55249,326.71643 164.45473,324.55154 168.89168,324.90017 C 171.70665,324.46969 175.10197,323.15943 173.82882,327.14697 C 173.21551,331.77883 179.95657,334.18888 182.37073,330.11739 C 184.99792,327.32753 179.05448,323.06811 179.6825,322.95129 C 182.95702,324.70863 185.32479,323.07805 188.24278,323.4418 C 190.91267,320.70363 190.07124,313.46854 185.21393,313.85772 C 182.46541,313.57042 181.58085,313.08202 183.78782,310.91835 C 186.15935,307.86016 184.69855,301.10678 180.32982,301.20978 C 175.69564,302.62605 179.10847,309.73242 174.80012,310.63505 C 169.60852,312.60809 162.25671,314.15485 158.35301,309.10237 C 155.92566,305.70767 154.29096,300.85658 154.87631,297.04628 C 161.02471,292.93721 161.38217,285.02732 160.45982,278.54298 C 161.33386,280.69086 162.92672,287.46877 164.90453,291.21121 C 165.69411,293.32822 170.5696,299.4555 169.08578,294.26179 C 168.60431,287.97162 170.673,280.782 166.63179,275.26379 C 165.14404,273.16678 160.24474,273.89867 163.97109,271.35611 C 166.32014,267.45909 174.36835,269.18527 175.29649,267.76781 C 172.17779,264.90812 167.28671,260.27205 162.8877,263.64056 C 161.15577,264.66442 160.01519,269.40528 159.79061,265.25102 C 157.5178,256.82029 155.26377,247.4825 147.75614,244.22068 C 139.77312,240.83933 127.53261,237.04268 120.26926,232.3131 C 116.75256,240.08069 110.53211,253.93174 107.01542,261.69934 z "
     style="fill-rule:evenodd;stroke:#ffe000;stroke-width:0.80000001;stroke-miterlimit:4;stroke-dasharray:none"
     id="path1343" />
  <path
     d="M 83.149081,259.94415 C 85.986311,262.25207 90.638801,275.11639 82.059071,273.38552 C 82.394601,282.83759 72.524221,267.44215 73.311571,277.84433 C 73.329081,281.65576 72.180041,289.63187 70.022861,281.71739 C 70.089591,276.81579 66.355411,267.44685 59.996751,271.9645 C 71.176131,276.04749 60.022071,290.34715 68.434611,296.56114 C 65.458811,300.33081 62.167201,303.0808 69.574071,306.18979 C 60.087841,308.95711 60.841111,317.52619 67.628291,311.26316 C 75.734131,314.86666 72.298111,324.14622 71.516221,329.53205 C 76.503201,334.88229 80.202641,328.23485 80.305801,325.25977 C 86.605891,323.73183 90.217391,341.51628 94.463021,329.78828 C 95.202191,325.91839 102.78256,331.66947 102.29061,325.0825 C 104.70501,320.43041 93.366111,315.98121 100.63838,318.24718 C 108.42049,315.47195 96.726851,303.3357 95.185881,313.53949 C 87.484281,323.01732 74.855201,306.14555 83.798911,299.29915 C 88.677721,294.09579 102.4421,295.73288 104.23339,291.44509 C 99.863771,295.50073 106.77768,311.25539 107.87401,299.71274 C 109.63772,296.77227 111.0945,282.45006 110.97922,291.43612 C 110.46686,294.97141 117.6425,305.37488 116.6242,296.48601 C 115.117,285.634 133.19574,279.87293 128.55629,261.08122 C 126.32932,253.11924 129.03209,247.35954 137.29957,242.37568 C 142.33162,234.5086 146.71606,233.46867 148.88125,224.72158 C 151.8587,214.41616 147.60306,203.7419 148.31542,193.36544 C 142.19894,185.93892 130.09309,188.3809 121.65253,184.48447 C 115.61688,182.20155 105.68912,179.52832 107.3006,189.15344 C 104.8788,200.67821 98.519831,205.65036 99.852021,223.73134 C 88.065531,230.16152 85.704451,237.77425 82.460421,249.63356 C 80.118071,258.19656 61.094521,257.6577 60.132581,246.5412 C 60.990251,242.91217 71.123511,229.83361 58.292071,240.70672 C 54.707091,244.40787 53.724211,258.64809 45.735041,249.79984 C 36.699781,239.79302 53.850811,230.69794 61.463061,224.39722 C 68.471691,218.59613 75.279281,212.24772 76.677451,202.48346 C 77.515281,196.63241 76.024351,189.75108 74.636621,199.09388 C 73.123251,209.28249 71.476751,198.311 68.086111,195.29093 C 64.297731,190.53619 73.795901,180.87742 66.253601,188.52299 C 60.681141,194.17176 59.315241,179.56849 59.578501,175.45319 C 59.638391,165.87385 54.196031,182.40562 54.383011,173.23239 C 54.708351,169.97645 57.854581,158.98714 52.002211,166.40586 C 50.174501,170.32279 46.553191,177.13822 48.262001,168.65674 C 46.879291,164.13006 43.870471,175.07821 41.537791,168.37402 C 35.582381,161.33531 34.164441,149.09987 40.781841,142.22755 C 46.341571,136.45366 68.777321,129.83527 65.771271,143.85904 C 64.515731,149.71637 43.476291,155.44496 57.080031,154.97782 C 62.799741,154.78141 67.714431,154.63984 63.815481,160.75093 C 69.083001,159.53989 70.747911,163.1949 68.379721,167.91932 C 73.030181,166.70797 68.831801,178.00454 72.217571,178.13474 C 71.272291,173.83048 75.682481,168.29756 77.850091,174.78897 C 78.778161,170.42162 75.145521,154.21538 82.886711,164.87618 C 81.986091,156.61028 83.661991,158.14118 88.655841,162.30504 C 88.719211,153.61114 88.718061,142.18759 82.063441,135.46528 C 65.970681,119.20882 38.315291,121.98372 29.014551,137.97576 C 21.231911,151.35753 31.273451,172.65137 40.478171,183.97828 C 46.790411,191.74583 58.101621,194.2185 61.907411,203.67562 C 64.519681,210.16689 57.641721,210.40824 57.246851,203.07111 C 54.537471,214.13957 47.062921,197.49028 49.118891,205.41912 C 52.248611,208.72571 49.202981,225.08904 47.195351,213.73068 C 46.025341,209.60962 42.011611,207.63762 44.926091,213.04753 C 49.707611,224.2506 34.082541,229.99758 34.859251,240.4704 C 35.485491,248.91423 27.195351,234.45803 29.079221,243.8558 C 30.113421,250.25209 35.803691,257.50055 41.345201,260.51126 C 49.687241,265.04351 59.693561,259.21703 68.948331,264.38187 C 74.024711,264.82533 79.632501,263.79269 83.149081,259.94415 z "
     style="fill-rule:evenodd;stroke:#ffe000;stroke-width:0.80000001;stroke-miterlimit:4;stroke-dasharray:none"
     id="path1345" />
  <path
     d="M 152.18961,215.13212 C 158.39076,205.75938 168.11349,200.62364 173.04905,190.5403 C 178.92093,186.04338 181.74429,171.80736 182.18468,165.05307 C 182.49138,163.15194 181.95961,158.83604 182.51566,158.49087 C 185.30435,160.71795 185.1211,163.99509 187.8714,165.9938 C 191.14977,165.93197 191.5247,160.45699 192.21558,158.16389 C 192.53063,154.79217 187.04255,155.9031 185.08807,154.47998 C 183.92506,152.32445 183.62722,148.64681 187.34852,150.075 C 189.02212,151.48627 193.44042,152.36232 193.02875,148.52304 C 191.67134,145.34308 193.7474,142.18419 192.51411,139.41258 C 190.0265,136.76591 184.30715,145.88396 183.83407,140.46362 C 182.51122,137.1262 185.65141,136.61673 187.44303,134.76436 C 187.94298,131.67425 184.39738,128.64462 181.75932,128.62286 C 178.50514,129.91509 178.13913,132.96105 179.21764,135.73184 C 179.94947,137.73298 179.40415,141.83315 176.36691,139.42094 C 175.0477,137.55071 175.16912,133.19657 171.26578,134.04948 C 168.95829,135.94111 166.68085,139.79034 168.72513,142.88956 C 170.50448,145.23887 174.01421,145.7779 173.03061,149.50441 C 172.68267,155.72305 169.25472,161.26823 166.29418,166.6397 C 161.53043,174.57099 150.4121,184.09439 143.3885,190.24399 C 146.30465,198.5458 149.24654,206.83918 152.18961,215.13212 z "
     style="fill-rule:evenodd;stroke:#ffe000;stroke-width:0.80000001;stroke-miterlimit:4;stroke-dasharray:none"
     id="path1347" />
  <path
     d="M 126.2322,211.67138 C 132.79377,218.0893 140.29661,224.36363 149.58453,226.55085 C 151.89263,227.60788 155.00248,225.67487 156.61929,226.3826 C 158.8876,229.55225 160.71024,232.32011 164.62986,231.1558 C 167.08746,231.06623 171.16684,228.34699 172.2607,228.98244 C 171.63692,232.21171 166.83474,233.43141 167.31856,236.87093 C 168.63595,240.59297 175.51258,239.71118 175.41598,235.59306 C 174.94284,233.34982 175.91882,228.02247 179.03249,229.51011 C 180.80697,232.48456 177.93201,236.07752 180.00086,238.88111 C 182.9561,238.39363 188.00852,237.31629 187.64128,233.63538 C 187.2948,230.70168 181.59476,227.06879 186.15366,225.0208 C 189.50306,223.16829 189.02038,231.84261 191.96938,228.28087 C 193.48167,225.68915 194.34353,220.24018 192.80897,217.51929 C 191.50091,214.60887 188.81587,216.50028 187.25727,218.46755 C 183.64867,221.42265 182.6145,214.29128 185.85669,213.31588 C 188.5213,210.32687 186.55425,205.5445 182.69458,204.78261 C 179.10986,204.95743 178.31845,209.21521 178.502,211.95298 C 176.68469,215.57776 171.64399,214.60543 168.5278,213.29885 C 157.65212,209.50493 151.49564,200.66402 144.04795,192.3829 C 138.3151,198.9887 131.88084,204.99502 126.2322,211.67138 z "
     style="fill-rule:evenodd;stroke:#ffe000;stroke-width:0.80000001;stroke-miterlimit:4;stroke-dasharray:none"
     id="path1349" />
  <path
     d="M 142.10963,198.92928 L 127.5013,212.04222 L 124.31701,211.12311 L 138.36399,193.91829 L 142.10963,198.92928 z "
     style="fill-rule:evenodd;stroke-width:0.80000001;stroke-miterlimit:4;stroke-dasharray:none"
     id="path1351" />
  <path
     d="M 134.35247,175.56137 C 139.5866,178.86003 145.7502,182.0493 152.21658,180.94241 C 153.512,181.03978 156.61252,178.91858 155.16778,181.32117 C 154.1303,184.42191 151.22526,186.72238 147.88086,187.13115 C 147.09371,187.3532 144.10567,187.42767 146.33586,187.44635 C 149.55364,187.42897 152.60494,189.11973 154.24035,191.78972 C 154.90922,192.81229 156.34402,195.02062 156.21549,195.43111 C 152.86448,192.85455 148.84918,190.70337 144.43018,190.9126 C 142.51928,190.86566 146.57546,191.89344 147.12933,192.8177 C 150.75665,195.60723 151.07482,200.56555 150.32507,204.65453 C 150.0681,205.7327 149.668,208.76191 149.22287,208.49106 C 147.8943,203.6235 145.91359,198.61551 141.71996,195.36175 C 140.71255,194.28011 140.39332,194.40099 140.76107,195.84631 C 141.22558,199.40471 139.5049,202.69806 138.90932,206.12883 C 139.49877,203.91604 138.73818,201.71417 137.70081,199.75551 C 136.59974,197.26981 136.03429,194.59979 135.66339,191.93102 C 135.45875,195.10442 136.52938,198.33164 135.53791,201.45254 C 134.10237,198.37509 132.2505,195.48693 129.81887,193.04704 C 129.0478,192.35719 127.36852,189.74962 127.36189,190.38969 C 128.60648,192.76259 125.72324,194.56017 126.5831,196.90628 C 127.14196,198.80662 125.40945,195.42462 124.55195,195.02614 C 122.4434,193.71426 120.93537,191.75908 119.78994,189.63569 C 119.05435,188.3682 119.95084,192.00067 119.72002,192.8561 C 119.5196,195.27376 119.41175,197.70742 119.80688,200.11585 C 115.7556,197.87779 113.01724,193.9084 111.87862,189.59234 C 112.99037,195.61287 111.35801,201.97292 107.52484,206.8312 C 106.76705,207.73446 105.02463,210.44745 105.79035,207.8113 C 106.84302,200.09676 107.5501,192.12133 105.63491,184.47945 C 105.58321,183.19471 103.50488,181.10222 105.9703,181.30416 C 115.44798,179.46958 124.92474,177.62442 134.35247,175.56137 z "
     style="fill-rule:evenodd;stroke:#ffe000;stroke-width:0.80000001;stroke-miterlimit:4;stroke-dasharray:none"
     id="path1353" />
  <path
     d="M 137.41094,175.50593 C 137.6608,179.09735 140.53249,181.35208 144.15265,182.93847 C 140.15716,183.43999 136.47425,182.68877 133.04011,178.429 C 132.91573,181.85361 135.1006,185.27714 137.53532,188.53493 C 132.66587,186.19625 127.98355,183.52394 125.92306,177.84354 C 126.60989,181.68572 127.60931,185.44397 129.41884,189.11933 C 124.48776,185.94549 121.11636,182.43801 119.24298,178.59582 C 117.49509,181.68572 119.36736,184.69274 121.74045,187.61582 C 116.99538,186.11231 113.81219,183.52287 111.25309,180.34903 C 112.50127,185.10926 114.24916,188.20022 116.05979,190.5389 C 111.81444,188.95251 109.06712,186.52989 109.25534,181.68572 C 109.1926,191.458 106.38365,194.63184 102.69964,195.80065 C 105.57134,183.60575 102.19993,179.68069 100.70189,173.33301 C 105.94557,172.66466 109.44136,164.81347 115.56008,164.81347 C 119.49394,164.81347 125.61156,170.15917 129.17009,169.65764 C 130.73086,172.66573 133.91405,174.25318 137.41094,175.50593 z "
     style="fill-rule:evenodd;stroke:#ffe000;stroke-width:0.80000001;stroke-miterlimit:4;stroke-dasharray:none"
     id="path1355" />
  <path
     d="M 143.41997,138.82581 C 146.26938,141.11181 144.91542,144.42545 143.46934,147.05634 C 141.41768,150.78898 130.2125,144.9366 124.79249,157.01695 C 123.93258,160.20764 126.08062,165.92706 129.64017,164.80281 C 135.12968,163.06899 135.5731,156.30355 141.63869,155.7201 C 147.4914,155.15713 141.67867,163.36953 141.35318,168.38658 C 141.80023,169.67632 142.58966,172.84761 139.82455,171.17775 C 138.24028,170.41189 138.15136,166.13358 136.93144,166.27847 C 136.52777,168.12387 139.71566,173.74145 135.54754,172.99369 C 133.83101,172.06733 131.17461,168.90124 129.58,171.62785 C 126.70355,172.84073 122.49709,166.8859 121.12557,167.16438 C 123.01107,168.37379 125.20344,173.83759 127.46015,175.3644 C 121.79516,174.6716 118.01599,171.72905 115.82099,169.63463 C 114.38372,171.60867 116.22055,174.40831 114.91346,176.78611 C 112.22473,175.56221 110.98678,172.92453 109.898,170.61548 C 110.23534,173.44248 109.4467,176.36696 108.10736,178.87053 C 107.92858,174.85903 107.18373,174.4737 105.6999,171.38145 C 104.64359,174.67676 99.857281,178.43067 96.760921,179.83082 C 97.266091,177.21985 100.4992,174.74265 101.297,172.09589 C 102.66204,168.67016 103.82313,165.14703 104.40447,161.51154 C 102.77504,165.83911 99.896691,169.61662 96.571691,173.09031 C 96.841811,169.71486 99.726761,167.41818 100.28658,164.08002 C 100.97806,160.94195 101.66098,157.80214 102.34398,154.66234 C 100.95927,158.85665 97.479051,163.01482 93.284601,165.30117 C 95.456791,160.05932 98.877221,155.00391 98.973671,149.31665 C 99.404121,151.55398 94.564091,155.46748 92.705431,152.26849 C 95.104291,149.6418 96.207021,146.7458 96.588451,143.50491 C 96.979251,140.18449 96.732891,134.72976 99.605061,132.57348 C 101.0915,131.61821 102.25664,132.9658 104.48429,135.03167 C 102.63492,131.59757 100.3241,128.9515 99.940931,125.17973 C 103.58367,123.98806 108.46068,126.18914 110.24629,129.25776 C 110.92759,130.21771 113.53315,133.45119 111.5102,131.03042 C 108.99074,128.14531 106.40818,124.42506 104.82011,120.93292 C 106.20506,119.09085 110.61658,120.88046 112.86443,120.86908 C 115.6195,122.51607 115.98751,126.8391 120.07666,124.73642 C 123.51129,124.17266 127.21652,124.91911 130.0994,126.79177 C 132.84715,128.60158 133.1282,132.12794 135.57748,134.18446 C 137.55744,136.12529 141.36078,137.17379 143.41997,138.82581 z "
     style="fill-rule:evenodd;stroke:#ffe000;stroke-width:0.80000001;stroke-linecap:round;stroke-miterlimit:4;stroke-dasharray:none"
     id="path1357" />
  <path
     d="M 125.76112,134.11579 C 127.35491,134.11579 128.65813,135.31754 128.65813,136.82848 C 128.65813,138.33943 127.84692,139.27023 126.34008,138.76658 C 124.86295,138.26293 120.09924,135.40265 121.4156,135.20172 C 122.91074,134.97349 124.1387,134.11579 125.76112,134.11579 z "
     style="fill-rule:evenodd;stroke:#ffe000;stroke-width:0.80000001;stroke-miterlimit:4;stroke-dasharray:none"
     id="path1359" />
  <path
     d="M 134.55561,133.44851 C 131.99908,132.24369 128.72954,131.92328 126.26107,133.42655 M 141.98709,143.18497 C 141.98709,143.18497 133.96836,141.88123 133.53139,142.46564"
     style="fill:none;stroke:#ffe000;stroke-width:0.80000001;stroke-miterlimit:4;stroke-dasharray:none"
     id="path1361" />
  <path
     d="M 141.67266,138.12586 C 144.0228,138.99887 146.78714,139.89703 146.56992,142.02918 C 146.20369,145.62386 143.7106,148.82561 139.60281,148.82083 C 140.77589,145.39623 141.52201,143.05397 141.67266,138.12586 z "
     style="fill-rule:evenodd;stroke:#ffe000;stroke-width:0.80000001;stroke-miterlimit:4;stroke-dasharray:none"
     id="path1363" />
  <path
     d="M 124.49487,149.69587 C 119.31437,152.48148 113.33451,161.59769 121.41411,167.18314 M 115.9336,148.64865 C 115.39844,152.89674 111.46114,157.98531 108.14791,161.09077 C 109.43055,156.2153 111.00337,150.45377 110.03953,145.47086 C 109.35769,147.59387 107.85259,150.57887 106.10298,152.14969 C 105.48732,152.72761 104.7993,152.27118 105.34089,151.55138 C 106.08983,147.91172 106.11864,144.06976 104.9328,140.51129"
     style="fill:none;stroke:#ffe000;stroke-width:0.80000001;stroke-miterlimit:4;stroke-dasharray:none"
     id="path1365" />
  <path
     d="M 127.47588,136.70223 C 128.61726,138.37088 126.18646,138.61322 125.64781,137.52015 C 124.97316,136.15118 126.83369,135.76337 127.47588,136.70223 z "
     style="fill:#ffe000;fill-opacity:1;fill-rule:evenodd;stroke:none;stroke-width:0.80000001;stroke-miterlimit:4;stroke-dasharray:none"
     id="path1367" />
  <path
     d="M 123.80749,133.06867 C 122.22764,134.00188 118.38972,134.28423 116.67938,133.37883 M 165.76671,172.29112 C 163.03019,175.94099 161.39356,180.45077 157.5688,183.25878 M 130.22255,239.19905 C 125.91729,241.34254 120.7507,250.59676 121.83068,259.62981 M 127.3252,290.88668 C 128.70004,292.18405 129.93852,294.38437 132.24967,293.83102 M 127.3252,291.00251 C 128.16541,293.32929 128.98664,297.33767 132.1341,297.43626 M 128.68674,140.97562 C 129.55284,142.84415 129.22228,145.09882 127.87554,146.67302 M 110.43624,129.03891 C 111.57564,127.02611 113.85721,125.92042 116.1433,125.62812 M 105.57011,130.12378 C 106.8447,131.49307 108.1193,132.86234 109.39388,134.23161"
     style="fill:none;stroke:#ffe000;stroke-width:0.80000001;stroke-miterlimit:4;stroke-dasharray:none"
     id="path1369" />
  <path
     d="M 48.464328,29.343046 C 47.553609,44.322167 24.214458,88.400699 11.226841,92.478022 C 17.788475,91.467452 24.99659,88.872112 31.558224,82.957915 C 32.347816,86.825648 30.386757,91.661682 26.975045,95.530822 C 34.072927,93.502662 37.966684,88.128244 40.844964,82.831927 C 41.372766,88.532188 43.512841,93.902382 48.068828,98.279622 C 52.629037,94.513222 54.769113,88.819795 55.295507,83.119534 C 58.176602,88.415851 62.07036,94.113502 69.168241,96.141672 C 65.753714,92.272522 63.958497,87.435084 64.743867,83.567351 C 71.305501,89.482955 78.351996,92.075482 84.916445,93.087452 C 72.284173,87.480085 49.233131,44.417974 48.464328,29.343046 z "
     style="fill-rule:evenodd;stroke-width:0.80000001;stroke-miterlimit:4;stroke-dasharray:none"
     id="path1413" />
  <path
     d="M 33.196071,27.732898 C 26.768147,27.732898 21.523906,31.799789 21.523906,36.785758 C 21.523906,41.771728 26.768147,45.838618 33.196071,45.838618 C 39.623996,45.838618 44.868237,41.771728 44.868237,36.785758 C 44.868237,31.799789 39.623996,27.732898 33.196071,27.732898 z "
     style="fill-rule:evenodd;stroke-width:0.80000001;stroke-miterlimit:4;stroke-dasharray:none"
     id="path1415" />
  <path
     d="M 48.555096,11.254976 C 42.126467,11.254976 36.88293,15.321866 36.88293,20.307836 C 36.88293,25.293806 42.127171,29.360696 48.555096,29.360696 C 54.98302,29.360696 60.227261,25.294509 60.227261,20.307836 C 60.227261,15.321163 54.983724,11.254976 48.555096,11.254976 z "
     style="fill-rule:evenodd;stroke-width:0.80000001;stroke-miterlimit:4;stroke-dasharray:none"
     id="path1417" />
  <path
     d="M 63.494721,27.732898 C 57.066093,27.732898 51.822556,31.799789 51.822556,36.785758 C 51.822556,41.771728 57.066797,45.838618 63.494721,45.838618 C 69.922646,45.838618 75.490127,41.610109 75.490127,36.62414 C 75.490127,31.63817 69.92335,27.732898 63.494721,27.732898 z "
     style="fill-rule:evenodd;stroke-width:0.80000001;stroke-miterlimit:4;stroke-dasharray:none"
     id="path1419" />
  <path
     d="M 124.44223,29.343046 C 123.53151,44.322167 100.19236,88.400699 87.204741,92.478022 C 93.766371,91.467452 100.97449,88.872112 107.53612,82.957915 C 108.32572,86.825648 106.36466,91.661682 102.95294,95.530822 C 110.05083,93.502662 113.94458,88.128244 116.82286,82.831927 C 117.35066,88.532188 119.49074,93.902382 124.04673,98.279622 C 128.60694,94.513222 130.74701,88.819795 131.27341,83.119534 C 134.1545,88.415851 138.04826,94.113502 145.14614,96.141672 C 141.73161,92.272522 139.9364,87.435084 140.72177,83.567351 C 147.2834,89.482955 154.32989,92.075482 160.89434,93.087452 C 148.26207,87.480085 125.21103,44.417974 124.44223,29.343046 z "
     style="fill-rule:evenodd;stroke-width:0.80000001;stroke-miterlimit:4;stroke-dasharray:none"
     id="path3102" />
  <path
     d="M 109.17397,27.732898 C 102.74605,27.732898 97.501811,31.799789 97.501811,36.785758 C 97.501811,41.771728 102.74605,45.838618 109.17397,45.838618 C 115.6019,45.838618 120.84614,41.771728 120.84614,36.785758 C 120.84614,31.799789 115.6019,27.732898 109.17397,27.732898 z "
     style="fill-rule:evenodd;stroke-width:0.80000001;stroke-miterlimit:4;stroke-dasharray:none"
     id="path3104" />
  <path
     d="M 124.53299,11.254976 C 118.10437,11.254976 112.86083,15.321866 112.86083,20.307836 C 112.86083,25.293806 118.10507,29.360696 124.53299,29.360696 C 130.96092,29.360696 136.20516,25.294509 136.20516,20.307836 C 136.20516,15.321163 130.96162,11.254976 124.53299,11.254976 z "
     style="fill-rule:evenodd;stroke-width:0.80000001;stroke-miterlimit:4;stroke-dasharray:none"
     id="path3106" />
  <path
     d="M 139.47262,27.732898 C 133.04399,27.732898 127.80045,31.799789 127.80045,36.785758 C 127.80045,41.771728 133.0447,45.838618 139.47262,45.838618 C 145.90054,45.838618 151.46803,41.610109 151.46803,36.62414 C 151.46803,31.63817 145.90125,27.732898 139.47262,27.732898 z "
     style="fill-rule:evenodd;stroke-width:0.80000001;stroke-miterlimit:4;stroke-dasharray:none"
     id="path3108" />
  <path
     d="M 200.21403,29.285546 C 199.30331,44.264667 175.96416,88.343199 162.97654,92.420522 C 169.53817,91.409952 176.74629,88.814612 183.30792,82.900415 C 184.09752,86.768148 182.13646,91.604182 178.72474,95.473322 C 185.82263,93.445162 189.71638,88.070744 192.59466,82.774427 C 193.12246,88.474688 195.26254,93.844882 199.81853,98.222122 C 204.37874,94.455722 206.51881,88.762295 207.04521,83.062034 C 209.9263,88.358351 213.82006,94.056002 220.91794,96.084172 C 217.50341,92.215022 215.7082,87.377584 216.49357,83.509851 C 223.0552,89.425455 230.10169,92.017982 236.66614,93.029952 C 224.03387,87.422585 200.98283,44.360474 200.21403,29.285546 z "
     style="fill-rule:evenodd;stroke-width:0.80000001;stroke-miterlimit:4;stroke-dasharray:none"
     id="path3112" />
  <path
     d="M 184.94577,27.675398 C 178.51785,27.675398 173.27361,31.742289 173.27361,36.728258 C 173.27361,41.714228 178.51785,45.781118 184.94577,45.781118 C 191.3737,45.781118 196.61794,41.714228 196.61794,36.728258 C 196.61794,31.742289 191.3737,27.675398 184.94577,27.675398 z "
     style="fill-rule:evenodd;stroke-width:0.80000001;stroke-miterlimit:4;stroke-dasharray:none"
     id="path3114" />
  <path
     d="M 200.30479,11.197476 C 193.87617,11.197476 188.63263,15.264366 188.63263,20.250336 C 188.63263,25.236306 193.87687,29.303196 200.30479,29.303196 C 206.73272,29.303196 211.97696,25.237009 211.97696,20.250336 C 211.97696,15.263663 206.73342,11.197476 200.30479,11.197476 z "
     style="fill-rule:evenodd;stroke-width:0.80000001;stroke-miterlimit:4;stroke-dasharray:none"
     id="path3116" />
  <path
     d="M 215.24442,27.675398 C 208.81579,27.675398 203.57225,31.742289 203.57225,36.728258 C 203.57225,41.714228 208.8165,45.781118 215.24442,45.781118 C 221.67234,45.781118 227.23983,41.552609 227.23983,36.56664 C 227.23983,31.58067 221.67305,27.675398 215.24442,27.675398 z "
     style="fill-rule:evenodd;stroke-width:0.80000001;stroke-miterlimit:4;stroke-dasharray:none"
     id="path3118" />
  <path
     d="M 272.24453,29.343046 C 271.33381,44.322167 247.99466,88.400699 235.00704,92.478022 C 241.56867,91.467452 248.77679,88.872112 255.33842,82.957915 C 256.12802,86.825648 254.16696,91.661682 250.75524,95.530822 C 257.85313,93.502662 261.74688,88.128244 264.62516,82.831927 C 265.15296,88.532188 267.29304,93.902382 271.84903,98.279622 C 276.40924,94.513222 278.54931,88.819795 279.07571,83.119534 C 281.9568,88.415851 285.85056,94.113502 292.94844,96.141672 C 289.53391,92.272522 287.7387,87.435084 288.52407,83.567351 C 295.0857,89.482955 302.13219,92.075482 308.69664,93.087452 C 296.06437,87.480085 273.01333,44.417974 272.24453,29.343046 z "
     style="fill-rule:evenodd;stroke-width:0.80000001;stroke-miterlimit:4;stroke-dasharray:none"
     id="path3122" />
  <path
     d="M 256.97627,27.732898 C 250.54835,27.732898 245.30411,31.799789 245.30411,36.785758 C 245.30411,41.771728 250.54835,45.838618 256.97627,45.838618 C 263.4042,45.838618 268.64844,41.771728 268.64844,36.785758 C 268.64844,31.799789 263.4042,27.732898 256.97627,27.732898 z "
     style="fill-rule:evenodd;stroke-width:0.80000001;stroke-miterlimit:4;stroke-dasharray:none"
     id="path3124" />
  <path
     d="M 272.33529,11.254976 C 265.90667,11.254976 260.66313,15.321866 260.66313,20.307836 C 260.66313,25.293806 265.90737,29.360696 272.33529,29.360696 C 278.76322,29.360696 284.00746,25.294509 284.00746,20.307836 C 284.00746,15.321163 278.76392,11.254976 272.33529,11.254976 z "
     style="fill-rule:evenodd;stroke-width:0.80000001;stroke-miterlimit:4;stroke-dasharray:none"
     id="path3126" />
  <path
     d="M 287.27492,27.732898 C 280.84629,27.732898 275.60275,31.799789 275.60275,36.785758 C 275.60275,41.771728 280.847,45.838618 287.27492,45.838618 C 293.70284,45.838618 299.27033,41.610109 299.27033,36.62414 C 299.27033,31.63817 293.70355,27.732898 287.27492,27.732898 z "
     style="fill-rule:evenodd;stroke-width:0.80000001;stroke-miterlimit:4;stroke-dasharray:none"
     id="path3128" />
  <path
     d="M 344.66638,28.794346 C 343.75566,43.773467 320.41651,87.851999 307.42889,91.929322 C 313.99052,90.918753 321.19864,88.323412 327.76027,82.409215 C 328.54987,86.276948 326.58881,91.112984 323.17709,94.982122 C 330.27498,92.953962 334.16873,87.579544 337.04701,82.283227 C 337.57481,87.983488 339.71489,93.353682 344.27088,97.730922 C 348.83109,93.964522 350.97116,88.271095 351.49756,82.570834 C 354.37865,87.867151 358.27241,93.564802 365.37029,95.592972 C 361.95576,91.723822 360.16055,86.886384 360.94592,83.018651 C 367.50755,88.934255 374.55404,91.526782 381.11849,92.538752 C 368.48622,86.931385 345.43518,43.869274 344.66638,28.794346 z "
     style="fill-rule:evenodd;stroke-width:0.80000001;stroke-miterlimit:4;stroke-dasharray:none"
     id="path3132" />
  <path
     d="M 329.39812,27.184198 C 322.9702,27.184198 317.72596,31.251089 317.72596,36.237058 C 317.72596,41.223028 322.9702,45.289918 329.39812,45.289918 C 335.82605,45.289918 341.07029,41.223028 341.07029,36.237058 C 341.07029,31.251089 335.82605,27.184198 329.39812,27.184198 z "
     style="fill-rule:evenodd;stroke-width:0.80000001;stroke-miterlimit:4;stroke-dasharray:none"
     id="path3134" />
  <path
     d="M 344.75714,10.706276 C 338.32852,10.706276 333.08498,14.773166 333.08498,19.759136 C 333.08498,24.745106 338.32922,28.811996 344.75714,28.811996 C 351.18507,28.811996 356.42931,24.745809 356.42931,19.759136 C 356.42931,14.772463 351.18577,10.706276 344.75714,10.706276 z "
     style="fill-rule:evenodd;stroke-width:0.80000001;stroke-miterlimit:4;stroke-dasharray:none"
     id="path3136" />
  <path
     d="M 359.69677,27.184198 C 353.26814,27.184198 348.0246,31.251089 348.0246,36.237058 C 348.0246,41.223028 353.26885,45.289918 359.69677,45.289918 C 366.12469,45.289918 371.69218,41.061409 371.69218,36.07544 C 371.69218,31.08947 366.1254,27.184198 359.69677,27.184198 z "
     style="fill-rule:evenodd;stroke-width:0.80000001;stroke-miterlimit:4;stroke-dasharray:none"
     id="path3138" />
  <path
     d="M 3.4107269,3.0988545 L 378.34328,3.0988545 C 378.73356,211.36197 378.78052,370.44144 195.20981,420.1142 C 4.2487269,365.59755 4.0831069,211.02929 3.4107269,3.0988545 z "
     style="fill:url(#radialGradient1585);fill-opacity:1;fill-rule:evenodd;stroke:none;stroke-width:0.80000001;stroke-linecap:butt;stroke-linejoin:miter;stroke-miterlimit:4;stroke-dasharray:none;stroke-opacity:1"
     id="path3D" />
</svg>
