<?xml version="1.0" encoding="UTF-8" standalone="no"?>
<svg
   xmlns:dc="http://purl.org/dc/elements/1.1/"
   xmlns:cc="http://web.resource.org/cc/"
   xmlns:rdf="http://www.w3.org/1999/02/22-rdf-syntax-ns#"
   xmlns:svg="http://www.w3.org/2000/svg"
   xmlns="http://www.w3.org/2000/svg"
   xmlns:xlink="http://www.w3.org/1999/xlink"
   xmlns:sodipodi="http://sodipodi.sourceforge.net/DTD/sodipodi-0.dtd"
   xmlns:inkscape="http://www.inkscape.org/namespaces/inkscape"
   height="660"
   width="600"
   version="1.0"
   id="svg2"
   sodipodi:version="0.32"
   inkscape:version="0.45.1"
   sodipodi:docname="Blason_departement_Ille-et-Vilaine.svg"
   sodipodi:docbase="C:\Documents and Settings\Cyrille Delon\Bureau\blasons\departements\svg"
   inkscape:export-filename="/Users/olivier/Desktop/Blason Rouge/Blason_Vide_3D.png"
   inkscape:export-xdpi="144"
   inkscape:export-ydpi="144"
   inkscape:output_extension="org.inkscape.output.svg.inkscape">
  <metadata
     id="metadata49">
    <rdf:RDF>
      <cc:Work
         rdf:about="">
        <dc:format>image/svg+xml</dc:format>
        <dc:type
           rdf:resource="http://purl.org/dc/dcmitype/StillImage" />
        <dc:title>Gabarit d'un blason en pointe pour le projet Blasons de Wikipédia</dc:title>
        <dc:date>03-AUG-2006</dc:date>
        <dc:creator>
          <cc:Agent>
            <dc:title>Jérôme BLUM (wagner51)</dc:title>
          </cc:Agent>
        </dc:creator>
        <cc:license
           rdf:resource="http://web.resource.org/cc/PublicDomain" />
        <dc:language>fr</dc:language>
        <dc:subject>
          <rdf:Bag>
            <rdf:li>gabarit modèle blason projet wikipédia</rdf:li>
          </rdf:Bag>
        </dc:subject>
      </cc:Work>
      <cc:License
         rdf:about="http://web.resource.org/cc/PublicDomain">
        <cc:permits
           rdf:resource="http://web.resource.org/cc/Reproduction" />
        <cc:permits
           rdf:resource="http://web.resource.org/cc/Distribution" />
        <cc:permits
           rdf:resource="http://web.resource.org/cc/DerivativeWorks" />
      </cc:License>
    </rdf:RDF>
  </metadata>
  <sodipodi:namedview
     inkscape:window-height="744"
     inkscape:window-width="1280"
     inkscape:pageshadow="2"
     inkscape:pageopacity="0.0"
     guidetolerance="10.0"
     gridtolerance="10.0"
     objecttolerance="10.0"
     borderopacity="1.0"
     bordercolor="#666666"
     pagecolor="#ffffff"
     id="base"
     showgrid="false"
     height="660px"
     inkscape:zoom="0.86691716"
     inkscape:cx="417.5"
     inkscape:cy="235.62669"
     inkscape:window-x="-4"
     inkscape:window-y="-4"
     inkscape:current-layer="layer3" />
  <desc
     id="desc4">Flag of Canton of Valais (Wallis)</desc>
  <defs
     id="defs6">
    <linearGradient
       id="linearGradient2893">
      <stop
         style="stop-color:white;stop-opacity:0.3137255;"
         offset="0"
         id="stop2895" />
      <stop
         id="stop2897"
         offset="0.19"
         style="stop-color:white;stop-opacity:0.25098041;" />
      <stop
         style="stop-color:#6b6b6b;stop-opacity:0.1254902;"
         offset="0.60000002"
         id="stop2901" />
      <stop
         style="stop-color:black;stop-opacity:0.1254902;"
         offset="1"
         id="stop2899" />
    </linearGradient>
    <linearGradient
       id="linearGradient2885">
      <stop
         id="stop2887"
         offset="0"
         style="stop-color:white;stop-opacity:1;" />
      <stop
         style="stop-color:white;stop-opacity:1;"
         offset="0.22857143"
         id="stop2891" />
      <stop
         id="stop2889"
         offset="1"
         style="stop-color:black;stop-opacity:1;" />
    </linearGradient>
    <linearGradient
       id="linearGradient2955">
      <stop
         id="stop2867"
         offset="0"
         style="stop-color:#fd0000;stop-opacity:1;" />
      <stop
         style="stop-color:#e77275;stop-opacity:0.65882355;"
         offset="0.5"
         id="stop2873" />
      <stop
         style="stop-color:black;stop-opacity:0.32291666;"
         offset="1"
         id="stop2959" />
    </linearGradient>
    <radialGradient
       inkscape:collect="always"
       xlink:href="#linearGradient2955"
       id="radialGradient2961"
       cx="225.52438"
       cy="218.90099"
       fx="225.52438"
       fy="218.90099"
       r="300"
       gradientTransform="matrix(-4.167939e-4,2.182867,-1.884232,-3.599562e-4,615.5972,-289.1214)"
       gradientUnits="userSpaceOnUse" />
    <polygon
       id="star"
       transform="scale(53,53)"
       points="0,-1 0.58778525,0.80901699 -0.95105652,-0.30901699 0.95105652,-0.30901699 -0.58778525,0.80901699 0,-1 " />
    <clipPath
       id="clip">
      <path
         d="M 0,-200 L 0,600 L 300,600 L 300,-200 L 0,-200 z "
         id="path10" />
    </clipPath>
    <radialGradient
       inkscape:collect="always"
       xlink:href="#linearGradient2955"
       id="radialGradient1911"
       gradientUnits="userSpaceOnUse"
       gradientTransform="matrix(-4.167939e-4,2.182867,-1.884232,-3.599562e-4,615.5972,-289.1214)"
       cx="225.52438"
       cy="218.90099"
       fx="225.52438"
       fy="218.90099"
       r="300" />
    <radialGradient
       inkscape:collect="always"
       xlink:href="#linearGradient2955"
       id="radialGradient2865"
       gradientUnits="userSpaceOnUse"
       gradientTransform="matrix(0,1.748721,-1.593162,-1.049767e-7,551.7876,-191.2898)"
       cx="225.52438"
       cy="218.90099"
       fx="225.52438"
       fy="218.90099"
       r="300" />
    <radialGradient
       inkscape:collect="always"
       xlink:href="#linearGradient2955"
       id="radialGradient2871"
       gradientUnits="userSpaceOnUse"
       gradientTransform="matrix(0,1.386237,-1.323286,-5.741131e-8,-158.0823,-109.5408)"
       cx="225.52438"
       cy="218.90099"
       fx="225.52438"
       fy="218.90099"
       r="300" />
    <radialGradient
       inkscape:collect="always"
       xlink:href="#linearGradient2893"
       id="radialGradient3163"
       gradientUnits="userSpaceOnUse"
       gradientTransform="matrix(1.353218,0,0,1.348928,-77.62935,-85.74693)"
       cx="221.44487"
       cy="226.33101"
       fx="221.44487"
       fy="226.33101"
       r="300" />
  </defs>
  <g
     inkscape:groupmode="layer"
     id="layer3"
     inkscape:label="Fond écu"
     style="display:inline">
    <g
       id="g15887">
      <path
         sodipodi:nodetypes="cccccc"
         d="M 299.98461,659.13989 C 299.98461,659.13989 598.48461,546.81958 598.48461,261.36806 C 598.48461,-24.08353 598.48461,2.8163134 598.48461,2.8163134 L 1.4845932,2.8163134 L 1.4845932,261.36806 C 1.4845932,546.81958 299.98461,659.13989 299.98461,659.13989 z "
         style="fill:#000000;fill-opacity:1;fill-rule:evenodd;stroke:none;stroke-width:1px;stroke-linecap:butt;stroke-linejoin:miter;stroke-opacity:1;display:inline"
         id="path15705" />
      <path
         id="path2855"
         d="M 23.50633,2.1681966 C 27.61808,9.1908137 32.06945,15.538748 36.75633,21.35571 C 30.28824,18.97523 23.57444,13.34065 17.47508,9.0744465 L 29.28758,35.63696 C 20.87387,29.01583 14.81847,21.23072 8.600082,13.51196 C 6.536262,30.77285 4.606762,49.560189 2.006332,60.91821 C 1.822402,60.277613 1.652252,59.604768 1.475082,58.91821 L 1.475082,121.79321 C 7.707333,128.49613 1.639102,134.25708 3.256332,135.19946 C 13.73444,144.41453 8.093882,152.41226 1.475082,154.35571 L 1.475082,171.01196 C 8.085883,202.77523 20.26472,225.3914 34.53758,243.10571 C 28.06949,240.72523 21.32441,235.09065 15.22508,230.82446 L 27.03758,257.38696 C 18.62387,250.76583 12.5685,242.98073 6.350082,235.26196 C 4.820762,248.05256 3.370482,261.65449 1.662582,272.48071 C 2.732212,309.30431 8.824932,343.17025 18.53758,374.19946 C 26.25244,375.8248 34.64477,385.7584 42.85008,376.32446 C 37.74101,390.2244 28.47713,383.59667 27.81883,385.66821 C 26.64041,387.81794 25.37837,389.4629 24.10008,390.69946 C 33.39315,416.09241 45.15576,439.45581 58.50633,460.91821 C 61.64049,456.79373 63.70818,452.34171 59.41258,446.51196 C 71.86326,454.53016 63.37828,462.10509 65.25633,463.19946 C 71.84285,468.99203 72.0536,474.32234 69.66258,477.94946 C 71.02259,479.91009 72.37125,481.86753 73.75633,483.79321 C 83.1725,476.03153 94.16098,496.6141 104.85008,484.32446 C 99.74101,498.2244 90.47713,491.59667 89.81883,493.66821 C 88.45012,496.16509 86.96907,497.98077 85.47508,499.26196 C 105.77991,524.95331 128.09192,547.25248 150.41258,566.35571 C 163.59514,548.60214 175.46339,524.63473 182.06883,491.79321 C 188.26074,527.41346 201.20174,552.07212 216.53758,571.10571 C 210.06949,568.72523 203.32441,563.09066 197.22508,558.82446 L 209.03758,585.38696 C 200.62387,578.76583 194.5685,570.98073 188.35008,563.26196 C 187.13736,573.40463 185.9756,584.03516 184.69383,593.41821 C 202.30851,606.23522 219.24603,617.0275 234.47508,625.91821 C 236.61287,619.01719 238.48306,611.67746 240.06883,603.79321 C 241.94331,614.57656 244.45652,624.33721 247.44383,633.26196 C 278.65868,650.44577 299.97508,658.48071 299.97508,658.48071 C 299.97508,658.48071 321.02258,650.53421 351.91258,633.57446 C 355.10928,624.54667 357.88228,614.66452 360.06888,603.79321 C 361.45108,611.74484 363.18948,619.12319 365.19388,626.04321 C 381.26808,616.66945 399.25558,605.15037 417.94388,591.38696 C 416.63838,582.53268 415.57628,572.79723 414.69388,563.63696 C 404.37918,575.84099 396.77458,584.15548 394.38138,585.04321 C 398.38968,576.80206 402.40428,568.63276 406.41258,559.29321 C 399.85818,563.79422 393.09888,568.9524 387.06888,570.76196 C 401.57548,552.63298 414.90508,527.40963 422.06888,491.79321 C 427.57908,523.49159 438.41118,546.50447 451.53758,564.60571 C 473.59878,545.53683 495.60248,523.3411 515.60008,497.82446 C 514.67658,496.75011 513.77618,495.43121 512.91258,493.85571 C 512.25408,491.78415 502.99018,498.4119 497.88138,484.51196 C 507.80668,495.92353 517.99918,478.96709 526.94388,482.69946 C 528.55288,480.44782 530.15068,478.15493 531.72508,475.85571 C 527.79438,465.5064 548.81168,459.26804 539.41258,446.51196 C 543.28108,449.00326 545.11708,451.44061 545.88138,453.66821 C 557.24878,434.49374 567.28358,413.83278 575.47508,391.63696 C 573.90718,390.34931 572.34648,388.47154 570.91258,385.85571 C 570.25408,383.78415 560.99018,390.4119 555.88138,376.51196 C 564.51788,386.44177 573.36928,374.90779 581.41258,374.19946 C 590.80258,344.20513 596.80638,311.57714 598.16258,276.16821 C 595.75388,264.84372 594.03188,249.52648 592.69388,235.63696 C 582.37908,247.84099 574.77468,256.15548 572.38138,257.04321 C 576.38968,248.80206 580.40428,240.63278 584.41258,231.29321 C 577.85818,235.79422 571.09888,240.9524 565.06888,242.76196 C 578.56098,225.90074 591.03018,202.89386 598.47508,171.10571 C 598.47508,165.7186 598.47508,161.32662 598.47508,154.79321 C 596.91858,154.79695 595.43458,154.42617 594.22508,153.60571 C 582.57218,143.67693 594.26368,137.76429 598.47508,129.94946 C 598.47508,125.59121 598.47508,124.45747 598.47508,120.13696 C 598.17648,119.60461 597.82238,119.06817 597.41258,118.51196 C 597.78168,118.74968 598.14198,118.99389 598.47508,119.23071 C 598.47508,85.99122 598.47508,43.600055 598.47508,43.57446 C 597.03328,34.226006 595.89148,23.689779 594.94388,13.85571 C 584.62908,26.05974 577.02468,34.37423 574.63138,35.26196 C 578.63968,27.02081 582.65428,18.88277 586.66258,9.5431965 C 580.10818,14.04422 573.31778,19.17115 567.28758,20.98071 C 571.74538,15.409729 576.09978,9.1740166 580.19388,2.1681966 L 503.50638,2.1681966 C 507.61808,9.1908137 512.06898,15.538748 516.75638,21.35571 C 510.28828,18.97523 503.57448,13.34065 497.47508,9.0744465 L 509.28758,35.63696 C 500.87388,29.01583 494.81848,21.23072 488.60008,13.51196 C 486.53628,30.77285 484.60688,49.560189 482.00638,60.91821 C 478.74008,49.54198 476.56088,30.63335 474.94388,13.85571 C 464.62908,26.05974 457.02468,34.37423 454.63138,35.26196 C 458.63968,27.02081 462.65428,18.88277 466.66258,9.5431965 C 460.10818,14.04422 453.31778,19.17115 447.28758,20.98071 C 451.74538,15.409729 456.09978,9.1740166 460.19388,2.1681966 L 383.50638,2.1681966 C 387.61808,9.1908137 392.06898,15.538748 396.75638,21.35571 C 390.28838,18.97523 383.57438,13.34065 377.47508,9.0744465 L 389.28758,35.63696 C 380.87388,29.01583 374.81858,21.23072 368.60008,13.51196 C 366.53628,30.77285 364.60618,49.560189 362.00638,60.91821 C 358.73998,49.54198 356.56088,30.63335 354.94388,13.85571 C 344.62918,26.05974 337.02458,34.37423 334.63138,35.26196 C 338.63968,27.02081 342.65428,18.88277 346.66258,9.5431965 C 340.10818,14.04422 333.31788,19.17115 327.28758,20.98071 C 331.74548,15.409729 336.09978,9.1740166 340.19388,2.1681966 L 263.50638,2.1681966 C 267.60738,9.1908137 272.06948,15.538748 276.75638,21.35571 C 270.27758,18.97523 263.57438,13.34065 257.47508,9.0744465 L 269.28758,35.63696 C 260.87388,29.01583 254.81847,21.23072 248.60008,13.51196 C 246.53626,30.77285 244.60676,49.560189 242.00633,60.91821 C 238.73995,49.54198 236.5609,30.63335 234.94383,13.85571 C 224.62917,26.05974 217.02461,34.37423 214.63133,35.26196 C 218.63966,27.02081 222.65425,18.88277 226.66258,9.5431965 C 220.1082,14.04422 213.31786,19.17115 207.28758,20.98071 C 211.74543,15.409729 216.09991,9.1740166 220.19383,2.1681966 L 143.50633,2.1681966 C 147.61808,9.1908137 152.06945,15.538748 156.75633,21.35571 C 150.28824,18.97523 143.57444,13.34065 137.47508,9.0744465 L 149.28758,35.63696 C 140.87387,29.01583 134.81847,21.23072 128.60008,13.51196 C 126.53626,30.77285 124.60676,49.560189 122.00633,60.91821 C 118.73995,49.54198 116.5609,30.63335 114.94383,13.85571 C 104.62917,26.05974 97.02461,34.37423 94.63133,35.26196 C 98.63966,27.02081 102.65425,18.88277 106.66258,9.5431965 C 100.1082,14.04422 93.31786,19.17115 87.28758,20.98071 C 91.74543,15.409729 96.09991,9.1740166 100.19383,2.1681966 L 23.50633,2.1681966 z M 59.41258,6.5119465 C 71.86326,14.530165 63.37828,22.10509 65.25633,23.19946 C 79.79209,35.98306 63.30814,46.410487 56.22508,41.60571 C 39.61678,27.454739 70.429,21.46284 59.41258,6.5119465 z M 179.41258,6.5119465 C 191.86326,14.530165 183.37828,22.10509 185.25633,23.19946 C 199.79209,35.98306 183.30814,46.410487 176.22508,41.60571 C 159.61678,27.454739 190.429,21.46284 179.41258,6.5119465 z M 299.41258,6.5119465 C 311.86318,14.530165 303.37788,22.10509 305.25638,23.19946 C 319.79198,35.98306 303.30808,46.410487 296.22508,41.60571 C 279.61668,27.454739 310.42898,21.46284 299.41258,6.5119465 z M 419.41258,6.5119465 C 431.86318,14.530165 423.37788,22.105089 425.25638,23.19946 C 439.79198,35.98306 423.30808,46.410488 416.22508,41.60571 C 399.61668,27.454739 430.42898,21.46284 419.41258,6.5119465 z M 539.41258,6.5119465 C 551.86328,14.530165 543.37788,22.105089 545.25638,23.19946 C 559.79198,35.98306 543.30818,46.410488 536.22508,41.60571 C 519.61678,27.454739 550.42898,21.46284 539.41258,6.5119465 z M 78.97508,41.98071 C 87.10989,42.378569 96.09021,54.395989 104.85008,44.32446 C 99.74101,58.224397 90.47713,51.596664 89.81883,53.66821 C 80.51398,70.642563 66.73741,56.847587 69.88133,48.88696 C 72.74647,43.460168 75.79189,41.825026 78.97508,41.98071 z M 198.97508,41.98071 C 207.10989,42.378569 216.09021,54.395989 224.85008,44.32446 C 219.74101,58.224397 210.47713,51.596664 209.81883,53.66821 C 200.51398,70.642563 186.73741,56.847587 189.88133,48.88696 C 192.74647,43.460168 195.79189,41.825026 198.97508,41.98071 z M 318.97508,41.98071 C 327.10988,42.378569 336.09018,54.395989 344.85008,44.32446 C 339.74098,58.224397 330.47668,51.596664 329.81888,53.66821 C 320.51388,70.642563 306.73658,56.847587 309.88138,48.88696 C 312.74648,43.460168 315.79188,41.825026 318.97508,41.98071 z M 438.97508,41.98071 C 447.10988,42.37857 456.09018,54.39599 464.85008,44.32446 C 459.74098,58.224397 450.47668,51.596665 449.81888,53.66821 C 440.51388,70.642563 426.73658,56.847588 429.88138,48.88696 C 432.74648,43.460168 435.79188,41.825026 438.97508,41.98071 z M 558.97508,41.98071 C 567.10988,42.37857 576.09018,54.39599 584.85008,44.32446 C 579.74098,58.224397 570.47668,51.596665 569.81888,53.66821 C 560.51388,70.642563 546.73738,56.847588 549.88138,48.88696 C 552.74648,43.460168 555.79188,41.825026 558.97508,41.98071 z M 43.75633,42.16821 C 46.93951,42.012526 49.98494,43.616418 52.85008,49.04321 C 55.99398,57.003839 42.21743,70.830063 32.91258,53.85571 C 32.25425,51.784166 22.9904,58.411897 17.88133,44.51196 C 26.64123,54.583488 35.62153,42.566069 43.75633,42.16821 z M 163.75633,42.16821 C 166.93951,42.012526 169.98494,43.616418 172.85008,49.04321 C 175.99398,57.003839 162.21743,70.830063 152.91258,53.85571 C 152.25425,51.784166 142.9904,58.411897 137.88133,44.51196 C 146.64123,54.583488 155.62153,42.566069 163.75633,42.16821 z M 283.75638,42.16821 C 286.93328,42.012526 289.98488,43.616418 292.85008,49.04321 C 295.99398,57.003839 282.21748,70.830063 272.91258,53.85571 C 272.25428,51.784166 262.99038,58.411897 257.88133,44.51196 C 266.64118,54.583488 275.62148,42.566069 283.75638,42.16821 z M 403.75638,42.16821 C 406.93948,42.012526 409.98488,43.616418 412.85008,49.04321 C 415.99398,57.003836 402.21748,70.830063 392.91258,53.85571 C 392.25428,51.784164 382.99018,58.411897 377.88138,44.51196 C 386.64108,54.583489 395.62148,42.566069 403.75638,42.16821 z M 523.75638,42.16821 C 526.93948,42.012526 529.98488,43.616418 532.85008,49.04321 C 535.99398,57.003836 522.21738,70.830063 512.91258,53.85571 C 512.25408,51.784164 502.99018,58.411897 497.88138,44.51196 C 506.64108,54.583489 515.62148,42.566069 523.75638,42.16821 z M 62.06883,51.79321 C 68.26074,87.413465 81.20174,112.07212 96.53758,131.10571 C 90.06949,128.72523 83.32441,123.09065 77.22508,118.82446 L 89.03758,145.38696 C 80.62387,138.76583 74.5685,130.98072 68.35008,123.26196 C 66.28626,140.52285 64.35679,159.31019 61.75633,170.66821 C 58.48995,159.29198 56.31093,140.4146 54.69383,123.63696 C 44.37917,135.84099 36.77458,144.15548 34.38133,145.04321 C 38.38966,136.80206 42.40428,128.63277 46.41258,119.29321 C 39.8582,123.79422 33.09908,128.9524 27.06883,130.76196 C 41.57547,112.63298 54.90527,87.40963 62.06883,51.79321 z M 182.06883,51.79321 C 188.26074,87.413465 201.20174,112.07212 216.53758,131.10571 C 210.06949,128.72523 203.32441,123.09065 197.22508,118.82446 L 209.03758,145.38696 C 200.62387,138.76583 194.5685,130.98072 188.35008,123.26196 C 186.28626,140.52285 184.35679,159.31019 181.75633,170.66821 C 178.48995,159.29198 176.31093,140.4146 174.69383,123.63696 C 164.37917,135.84099 156.77458,144.15548 154.38133,145.04321 C 158.38966,136.80206 162.40428,128.63277 166.41258,119.29321 C 159.8582,123.79422 153.09908,128.9524 147.06883,130.76196 C 161.57547,112.63298 174.90527,87.40963 182.06883,51.79321 z M 302.06888,51.79321 C 308.26088,87.413465 321.20178,112.07212 336.53758,131.10571 C 330.06958,128.72523 323.32438,123.09065 317.22508,118.82446 L 329.03758,145.38696 C 320.62388,138.76583 314.56858,130.98072 308.35008,123.26196 C 306.28628,140.52285 304.35618,159.31019 301.75638,170.66821 C 298.48988,159.29198 296.31088,140.4146 294.69388,123.63696 C 284.37918,135.84099 276.77458,144.15548 274.38138,145.04321 C 278.38328,136.80206 282.40428,128.63277 286.41258,119.29321 C 279.85818,123.79422 273.09908,128.9524 267.06888,130.76196 C 281.56918,112.63298 294.90508,87.40963 302.06888,51.79321 z M 422.06888,51.79321 C 428.26088,87.413465 441.20178,112.07212 456.53758,131.10571 C 450.06958,128.72523 443.32438,123.09065 437.22508,118.82446 L 449.03758,145.38696 C 440.62388,138.76583 434.56858,130.98072 428.35008,123.26196 C 426.28628,140.52285 424.35618,159.3102 421.75638,170.66821 C 418.48988,159.29198 416.31088,140.4146 414.69388,123.63696 C 404.37918,135.84099 396.77458,144.15548 394.38138,145.04321 C 398.38968,136.80206 402.40428,128.63277 406.41258,119.29321 C 399.85818,123.79422 393.09888,128.9524 387.06888,130.76196 C 401.57548,112.63298 414.90508,87.409631 422.06888,51.79321 z M 542.06888,51.79321 C 548.26078,87.413465 561.20168,112.07212 576.53758,131.10571 C 570.06948,128.72523 563.32448,123.09065 557.22508,118.82446 L 569.03758,145.38696 C 560.62388,138.76583 554.56858,130.98072 548.35008,123.26196 C 546.28628,140.52285 544.35688,159.3102 541.75638,170.66821 C 538.49008,159.29198 536.31088,140.4146 534.69388,123.63696 C 524.37908,135.84099 516.77468,144.15548 514.38138,145.04321 C 518.38968,136.80206 522.40428,128.63277 526.41258,119.29321 C 519.85818,123.79422 513.09888,128.9524 507.06888,130.76196 C 521.57538,112.63298 534.90508,87.409631 542.06888,51.79321 z M 117.41258,118.51196 C 129.86326,126.53016 121.37828,134.10509 123.25633,135.19946 C 137.79209,147.98306 121.30814,158.41049 114.22508,153.60571 C 97.61678,139.45474 128.429,133.46284 117.41258,118.51196 z M 237.41258,118.51196 C 249.86326,126.53016 241.37828,134.10509 243.25633,135.19946 C 257.79209,147.98306 241.30814,158.41049 234.22508,153.60571 C 217.61678,139.45474 248.429,133.46284 237.41258,118.51196 z M 357.41258,118.51196 C 369.86318,126.53016 361.37788,134.10509 363.25638,135.19946 C 377.79198,147.98306 361.30808,158.41049 354.22508,153.60571 C 337.61668,139.45474 368.42898,133.46284 357.41258,118.51196 z M 477.41258,118.51196 C 489.86328,126.53016 481.37788,134.10509 483.25638,135.19946 C 497.79198,147.98306 481.30818,158.41049 474.22508,153.60571 C 457.61678,139.45474 488.42898,133.46284 477.41258,118.51196 z M 16.97508,153.98071 C 25.10989,154.37857 34.09021,166.39598 42.85008,156.32446 C 37.74101,170.2244 28.47713,163.59667 27.81883,165.66821 C 18.51398,182.64257 4.737412,168.84759 7.881332,160.88696 C 10.746477,155.46017 13.79189,153.82503 16.97508,153.98071 z M 136.97508,153.98071 C 145.10989,154.37857 154.09021,166.39598 162.85008,156.32446 C 157.74101,170.2244 148.47713,163.59667 147.81883,165.66821 C 138.51398,182.64257 124.73741,168.84759 127.88133,160.88696 C 130.74647,155.46017 133.79189,153.82503 136.97508,153.98071 z M 256.97508,153.98071 C 265.10988,154.37857 274.09018,166.39598 282.85008,156.32446 C 277.74098,170.2244 268.47708,163.59667 267.81888,165.66821 C 258.5112,182.64257 244.73741,168.84759 247.88133,160.88696 C 250.74647,155.46017 253.7919,153.82503 256.97508,153.98071 z M 376.97508,153.98071 C 385.10988,154.37857 394.09018,166.39598 402.85008,156.32446 C 397.74098,170.2244 388.47668,163.59667 387.81888,165.66821 C 378.51388,182.64257 364.73658,168.84759 367.88138,160.88696 C 370.74648,155.46017 373.79188,153.82503 376.97508,153.98071 z M 496.97508,153.98071 C 505.10988,154.37857 514.09018,166.39598 522.85008,156.32446 C 517.74098,170.2244 508.47668,163.59667 507.81888,165.66821 C 498.51388,182.64257 484.73738,168.84759 487.88138,160.88696 C 490.74648,155.46017 493.79188,153.82503 496.97508,153.98071 z M 101.75633,154.16821 C 104.93951,154.01253 107.98494,155.61642 110.85008,161.04321 C 113.99398,169.00383 100.21743,182.83006 90.91258,165.85571 C 90.25425,163.78416 80.9904,170.4119 75.88133,156.51196 C 84.64123,166.58349 93.62153,154.56607 101.75633,154.16821 z M 221.75633,154.16821 C 224.93951,154.01253 227.98494,155.61642 230.85008,161.04321 C 233.99398,169.00383 220.21743,182.83006 210.91258,165.85571 C 210.25425,163.78416 200.9904,170.4119 195.88133,156.51196 C 204.64123,166.58349 213.62153,154.56607 221.75633,154.16821 z M 341.75638,154.16821 C 344.93948,154.01253 347.98488,155.61642 350.85008,161.04321 C 353.99398,169.00383 340.21748,182.83006 330.91258,165.85571 C 330.25428,163.78416 320.99018,170.4119 315.88138,156.51196 C 324.64108,166.58349 333.62148,154.56607 341.75638,154.16821 z M 461.75638,154.16821 C 464.93948,154.01253 467.98488,155.61642 470.85008,161.04321 C 473.99398,169.00383 460.21738,182.83006 450.91258,165.85571 C 450.25408,163.78416 440.99018,170.4119 435.88138,156.51196 C 444.64108,166.58349 453.62148,154.56607 461.75638,154.16821 z M 581.75638,154.16821 C 584.93948,154.01253 587.98488,155.61642 590.85008,161.04321 C 593.99398,169.00383 580.21738,182.83006 570.91258,165.85571 C 570.25408,163.78416 560.99018,170.4119 555.88138,156.51196 C 564.64108,166.58349 573.62148,154.56607 581.75638,154.16821 z M 120.06883,163.79321 C 126.26074,199.41346 139.20174,224.07212 154.53758,243.10571 C 148.06949,240.72523 141.32441,235.09065 135.22508,230.82446 L 147.03758,257.38696 C 138.62387,250.76583 132.5685,242.98073 126.35008,235.26196 C 124.28626,252.52285 122.35679,271.31019 119.75633,282.66821 C 116.48995,271.29198 114.31093,252.4146 112.69383,235.63696 C 102.37917,247.84099 94.77458,256.15548 92.38133,257.04321 C 96.38966,248.80206 100.40428,240.63278 104.41258,231.29321 C 97.8582,235.79422 91.09908,240.9524 85.06883,242.76196 C 99.57547,224.63298 112.90527,199.40963 120.06883,163.79321 z M 240.06883,163.79321 C 246.26074,199.41346 259.2018,224.07212 274.53758,243.10571 C 268.06958,240.72523 261.32441,235.09065 255.22508,230.82446 L 267.03758,257.38696 C 258.6239,250.76583 252.5685,242.98073 246.35008,235.26196 C 244.28626,252.52285 242.35679,271.31019 239.75633,282.66821 C 236.48995,271.29198 234.31093,252.4146 232.69383,235.63696 C 222.37917,247.84099 214.77458,256.15548 212.38133,257.04321 C 216.38966,248.80206 220.40428,240.63278 224.41258,231.29321 C 217.8582,235.79422 211.09908,240.9524 205.06883,242.76196 C 219.57547,224.63298 232.90527,199.40963 240.06883,163.79321 z M 360.06888,163.79321 C 366.26088,199.41346 379.20178,224.07212 394.53758,243.10571 C 388.06958,240.72523 381.32438,235.09065 375.22508,230.82446 L 387.03758,257.38696 C 378.62388,250.76583 372.56858,242.98073 366.35008,235.26196 C 364.28628,252.52285 362.35618,271.31019 359.75638,282.66821 C 356.48988,271.29198 354.31088,252.4146 352.69388,235.63696 C 342.37918,247.84099 334.77458,256.15548 332.38138,257.04321 C 336.38968,248.80206 340.40428,240.63278 344.41258,231.29321 C 337.85818,235.79422 331.09888,240.9524 325.06888,242.76196 C 339.57548,224.63298 352.90508,199.40963 360.06888,163.79321 z M 480.06888,163.79321 C 486.26078,199.41346 499.20168,224.07212 514.53758,243.10571 C 508.06948,240.72523 501.32448,235.09065 495.22508,230.82446 L 507.03758,257.38696 C 498.62388,250.76583 492.56858,242.98073 486.35008,235.26196 C 484.28628,252.52285 482.35688,271.31019 479.75638,282.66821 C 476.49008,271.29198 474.31088,252.4146 472.69388,235.63696 C 462.37908,247.84099 454.77468,256.15548 452.38138,257.04321 C 456.38968,248.80206 460.40428,240.63278 464.41258,231.29321 C 457.85818,235.79422 451.09888,240.9524 445.06888,242.76196 C 459.57538,224.63298 472.90508,199.40963 480.06888,163.79321 z M 59.41258,226.51196 C 71.86326,234.53016 63.37828,242.10509 65.25633,243.19946 C 79.79209,255.98306 63.30814,266.41049 56.22508,261.60571 C 39.61678,247.45474 70.429,241.46284 59.41258,226.51196 z M 179.41258,226.51196 C 191.86326,234.53016 183.37828,242.10509 185.25633,243.19946 C 199.79209,255.98306 183.30814,266.41049 176.22508,261.60571 C 159.61678,247.45474 190.429,241.46284 179.41258,226.51196 z M 299.41258,226.51196 C 311.86318,234.53016 303.37788,242.10509 305.25638,243.19946 C 319.79198,255.98306 303.30808,266.41049 296.22508,261.60571 C 279.61668,247.45474 310.42898,241.46284 299.41258,226.51196 z M 419.41258,226.51196 C 431.86318,234.53016 423.37788,242.10509 425.25638,243.19946 C 439.79198,255.98306 423.30808,266.41049 416.22508,261.60571 C 399.61668,247.45474 430.42898,241.46284 419.41258,226.51196 z M 539.41258,226.51196 C 551.86328,234.53016 543.37788,242.10509 545.25638,243.19946 C 559.79198,255.98306 543.30818,266.41049 536.22508,261.60571 C 519.61678,247.45474 550.42898,241.46284 539.41258,226.51196 z M 78.97508,261.98071 C 87.10989,262.37857 96.09021,274.39599 104.85008,264.32446 C 99.74101,278.2244 90.47713,271.59667 89.81883,273.66821 C 80.51398,290.64257 66.73741,276.84758 69.88133,268.88696 C 72.74647,263.46017 75.79189,261.82503 78.97508,261.98071 z M 198.97508,261.98071 C 207.10989,262.37857 216.09021,274.39599 224.85008,264.32446 C 219.74101,278.2244 210.47713,271.59667 209.81883,273.66821 C 200.51398,290.64257 186.73741,276.84758 189.88133,268.88696 C 192.74647,263.46017 195.79189,261.82503 198.97508,261.98071 z M 318.97508,261.98071 C 327.10988,262.37857 336.09018,274.39599 344.85008,264.32446 C 339.74098,278.2244 330.47668,271.59667 329.81888,273.66821 C 320.51388,290.64257 306.73658,276.84758 309.88138,268.88696 C 312.74648,263.46017 315.79188,261.82503 318.97508,261.98071 z M 438.97508,261.98071 C 447.10988,262.37857 456.09018,274.39599 464.85008,264.32446 C 459.74098,278.2244 450.47668,271.59667 449.81888,273.66821 C 440.51388,290.64257 426.73678,276.84758 429.88138,268.88696 C 432.74648,263.46017 435.79188,261.82503 438.97508,261.98071 z M 558.97508,261.98071 C 567.10988,262.37857 576.09018,274.39599 584.85008,264.32446 C 579.74098,278.2244 570.47668,271.59667 569.81888,273.66821 C 560.51388,290.64257 546.73738,276.84758 549.88138,268.88696 C 552.74648,263.46017 555.79188,261.82503 558.97508,261.98071 z M 43.75633,262.16821 C 46.93951,262.01253 49.98494,263.61642 52.85008,269.04321 C 55.99398,277.00383 42.21743,290.83006 32.91258,273.85571 C 32.25425,271.78415 22.9904,278.4119 17.88133,264.51196 C 26.64123,274.58348 35.62153,262.56607 43.75633,262.16821 z M 163.75633,262.16821 C 166.93951,262.01253 169.98494,263.61642 172.85008,269.04321 C 175.99398,277.00383 162.21743,290.83006 152.91258,273.85571 C 152.25425,271.78415 142.9904,278.4119 137.88133,264.51196 C 146.64123,274.58348 155.62153,262.56607 163.75633,262.16821 z M 283.75638,262.16821 C 286.93668,262.01253 289.98488,263.61642 292.85008,269.04321 C 295.99398,277.00383 282.21748,290.83006 272.91258,273.85571 C 272.25428,271.78415 262.99038,278.4119 257.88133,264.51196 C 266.64118,274.58348 275.62148,262.56607 283.75638,262.16821 z M 403.75638,262.16821 C 406.93948,262.01253 409.98488,263.61642 412.85008,269.04321 C 415.99398,277.00383 402.21748,290.83006 392.91258,273.85571 C 392.25428,271.78415 382.99018,278.4119 377.88138,264.51196 C 386.64108,274.58348 395.62148,262.56607 403.75638,262.16821 z M 523.75638,262.16821 C 526.93948,262.01253 529.98488,263.61642 532.85008,269.04321 C 535.99398,277.00383 522.21738,290.83006 512.91258,273.85571 C 512.25408,271.78415 502.99018,278.4119 497.88138,264.51196 C 506.64108,274.58348 515.62148,262.56607 523.75638,262.16821 z M 62.06883,271.79321 C 68.26074,307.41346 81.20174,332.07212 96.53758,351.10571 C 90.06949,348.72523 83.32441,343.09066 77.22508,338.82446 L 89.03758,365.38696 C 80.62387,358.76583 74.5685,350.98073 68.35008,343.26196 C 66.28626,360.52285 64.35679,379.31019 61.75633,390.66821 C 58.48995,379.29198 56.31093,360.4146 54.69383,343.63696 C 44.37917,355.84099 36.77458,364.15548 34.38133,365.04321 C 38.38966,356.80206 42.40428,348.63276 46.41258,339.29321 C 39.8582,343.79422 33.09908,348.9524 27.06883,350.76196 C 41.57547,332.63298 54.90527,307.40963 62.06883,271.79321 z M 182.06883,271.79321 C 188.26074,307.41346 201.20174,332.07212 216.53758,351.10571 C 210.06949,348.72523 203.32441,343.09066 197.22508,338.82446 L 209.03758,365.38696 C 200.62387,358.76583 194.5685,350.98073 188.35008,343.26196 C 186.28626,360.52285 184.35679,379.31019 181.75633,390.66821 C 178.48995,379.29198 176.31093,360.4146 174.69383,343.63696 C 164.37917,355.84099 156.77458,364.15548 154.38133,365.04321 C 158.38966,356.80206 162.40428,348.63276 166.41258,339.29321 C 159.8582,343.79422 153.09908,348.9524 147.06883,350.76196 C 161.57547,332.63298 174.90527,307.40963 182.06883,271.79321 z M 302.06888,271.79321 C 308.26088,307.41346 321.20178,332.07212 336.53758,351.10571 C 330.06958,348.72523 323.32438,343.09066 317.22508,338.82446 L 329.03758,365.38696 C 320.62388,358.76583 314.56858,350.98073 308.35008,343.26196 C 306.28628,360.52285 304.35618,379.31019 301.75638,390.66821 C 298.48988,379.29198 296.31088,360.4146 294.69388,343.63696 C 284.37918,355.84099 276.77458,364.15548 274.38138,365.04321 C 278.38658,356.80206 282.40428,348.63276 286.41258,339.29321 C 279.85818,343.79422 273.09908,348.9524 267.06888,350.76196 C 281.57248,332.63298 294.90508,307.40963 302.06888,271.79321 z M 422.06888,271.79321 C 428.26088,307.41346 441.20178,332.07212 456.53758,351.10571 C 450.06958,348.72523 443.32438,343.09066 437.22508,338.82446 L 449.03758,365.38696 C 440.62388,358.76583 434.56858,350.98073 428.35008,343.26196 C 426.28628,360.52285 424.35618,379.31019 421.75638,390.66821 C 418.48988,379.29198 416.31088,360.4146 414.69388,343.63696 C 404.37918,355.84099 396.77458,364.15548 394.38138,365.04321 C 398.38968,356.80206 402.40428,348.63276 406.41258,339.29321 C 399.85818,343.79422 393.09888,348.9524 387.06888,350.76196 C 401.57548,332.63298 414.90508,307.40963 422.06888,271.79321 z M 542.06888,271.79321 C 548.26078,307.41346 561.20168,332.07212 576.53758,351.10571 C 570.06948,348.72523 563.32448,343.09066 557.22508,338.82446 L 569.03758,365.38696 C 560.62388,358.76583 554.56858,350.98073 548.35008,343.26196 C 546.28628,360.52285 544.35688,379.31019 541.75638,390.66821 C 538.49008,379.29198 536.31088,360.4146 534.69388,343.63696 C 524.37908,355.84099 516.77468,364.15548 514.38138,365.04321 C 518.38968,356.80206 522.40428,348.63276 526.41258,339.29321 C 519.85818,343.79422 513.09888,348.9524 507.06888,350.76196 C 521.57538,332.63298 534.90508,307.40963 542.06888,271.79321 z M 117.41258,338.51196 C 129.86326,346.53016 121.37828,354.10509 123.25633,355.19946 C 137.79209,367.98306 121.30814,378.41049 114.22508,373.60571 C 97.61678,359.45474 128.429,353.46284 117.41258,338.51196 z M 237.41258,338.51196 C 249.86326,346.53016 241.37828,354.10509 243.25633,355.19946 C 257.79209,367.98306 241.30814,378.41049 234.22508,373.60571 C 217.61678,359.45474 248.429,353.46284 237.41258,338.51196 z M 357.41258,338.51196 C 369.86318,346.53016 361.37788,354.10509 363.25638,355.19946 C 377.79198,367.98306 361.30808,378.41049 354.22508,373.60571 C 337.61668,359.45474 368.42898,353.46284 357.41258,338.51196 z M 477.41258,338.51196 C 489.86328,346.53016 481.37788,354.10509 483.25638,355.19946 C 497.79198,367.98306 481.30818,378.41049 474.22508,373.60571 C 457.61678,359.45474 488.42898,353.46284 477.41258,338.51196 z M 136.97508,373.98071 C 145.10989,374.37857 154.09021,386.39599 162.85008,376.32446 C 157.74101,390.2244 148.47713,383.59667 147.81883,385.66821 C 138.51398,402.64257 124.73741,388.84758 127.88133,380.88696 C 130.74647,375.46017 133.79189,373.82503 136.97508,373.98071 z M 256.97508,373.98071 C 265.10988,374.37857 274.09018,386.39599 282.85008,376.32446 C 277.74098,390.2244 268.47708,383.59667 267.81888,385.66821 C 258.51246,402.64257 244.73741,388.84758 247.88133,380.88696 C 250.74647,375.46017 253.7919,373.82503 256.97508,373.98071 z M 376.97508,373.98071 C 385.10988,374.37857 394.09018,386.39599 402.85008,376.32446 C 397.74098,390.2244 388.47668,383.59667 387.81888,385.66821 C 378.51388,402.64257 364.73668,388.84758 367.88138,380.88696 C 370.74648,375.46017 373.79188,373.82503 376.97508,373.98071 z M 496.97508,373.98071 C 505.10988,374.37857 514.09018,386.39599 522.85008,376.32446 C 517.74098,390.2244 508.47668,383.59667 507.81888,385.66821 C 498.51388,402.64257 484.73738,388.84758 487.88138,380.88696 C 490.74648,375.46017 493.79188,373.82503 496.97508,373.98071 z M 101.75633,374.16821 C 104.93951,374.01253 107.98494,375.61642 110.85008,381.04321 C 113.99398,389.00383 100.21743,402.83006 90.91258,385.85571 C 90.25425,383.78415 80.9904,390.4119 75.88133,376.51196 C 84.64123,386.58348 93.62153,374.56607 101.75633,374.16821 z M 221.75633,374.16821 C 224.93951,374.01253 227.98494,375.61642 230.85008,381.04321 C 233.99398,389.00383 220.21743,402.83006 210.91258,385.85571 C 210.25425,383.78415 200.9904,390.4119 195.88133,376.51196 C 204.64123,386.58348 213.62153,374.56607 221.75633,374.16821 z M 341.75638,374.16821 C 344.93948,374.01253 347.98488,375.61642 350.85008,381.04321 C 353.99398,389.00383 340.21748,402.83006 330.91258,385.85571 C 330.25428,383.78415 320.99018,390.4119 315.88138,376.51196 C 324.64108,386.58348 333.62148,374.56607 341.75638,374.16821 z M 461.75638,374.16821 C 464.93948,374.01253 467.98488,375.61642 470.85008,381.04321 C 473.99398,389.00383 460.21738,402.83006 450.91258,385.85571 C 450.25408,383.78415 440.99018,390.4119 435.88138,376.51196 C 444.64108,386.58348 453.62148,374.56607 461.75638,374.16821 z M 120.06883,383.79321 C 126.26074,419.41346 139.20174,444.07212 154.53758,463.10571 C 148.06949,460.72523 141.32441,455.09066 135.22508,450.82446 L 147.03758,477.38696 C 138.62387,470.76583 132.5685,462.98073 126.35008,455.26196 C 124.28626,472.52285 122.35679,491.31019 119.75633,502.66821 C 116.48995,491.29198 114.31093,472.4146 112.69383,455.63696 C 102.37917,467.84099 94.77458,476.15548 92.38133,477.04321 C 96.38966,468.80206 100.40428,460.63276 104.41258,451.29321 C 97.8582,455.79422 91.09908,460.9524 85.06883,462.76196 C 99.57547,444.63298 112.90527,419.40963 120.06883,383.79321 z M 240.06883,383.79321 C 246.26074,419.41346 259.2018,444.07212 274.53758,463.10571 C 268.06958,460.72523 261.32441,455.09066 255.22508,450.82446 L 267.03758,477.38696 C 258.6239,470.76583 252.5685,462.98073 246.35008,455.26196 C 244.28626,472.52285 242.35679,491.31019 239.75633,502.66821 C 236.48995,491.29198 234.31093,472.4146 232.69383,455.63696 C 222.37917,467.84099 214.77458,476.15548 212.38133,477.04321 C 216.38966,468.80206 220.40428,460.63276 224.41258,451.29321 C 217.8582,455.79422 211.09908,460.9524 205.06883,462.76196 C 219.57547,444.63298 232.90527,419.40963 240.06883,383.79321 z M 360.06888,383.79321 C 366.26088,419.41346 379.20178,444.07212 394.53758,463.10571 C 388.06958,460.72523 381.32438,455.09066 375.22508,450.82446 L 387.03758,477.38696 C 378.62388,470.76583 372.56858,462.98073 366.35008,455.26196 C 364.28628,472.52285 362.35618,491.31019 359.75638,502.66821 C 356.48988,491.29198 354.31088,472.4146 352.69388,455.63696 C 342.37918,467.84099 334.77458,476.15548 332.38138,477.04321 C 336.38968,468.80206 340.40428,460.63276 344.41258,451.29321 C 337.85818,455.79422 331.09888,460.9524 325.06888,462.76196 C 339.57548,444.63298 352.90508,419.40963 360.06888,383.79321 z M 480.06888,383.79321 C 486.26078,419.41346 499.20168,444.07212 514.53758,463.10571 C 508.06948,460.72523 501.32448,455.09066 495.22508,450.82446 L 507.03758,477.38696 C 498.62388,470.76583 492.56858,462.98073 486.35008,455.26196 C 484.28628,472.52285 482.35688,491.31019 479.75638,502.66821 C 476.49008,491.29198 474.31088,472.4146 472.69388,455.63696 C 462.37908,467.84099 454.77468,476.15548 452.38138,477.04321 C 456.38968,468.80206 460.40428,460.63276 464.41258,451.29321 C 457.85818,455.79422 451.09888,460.9524 445.06888,462.76196 C 459.57538,444.63298 472.90508,419.40963 480.06888,383.79321 z M 179.41258,446.51196 C 191.86326,454.53016 183.37828,462.10509 185.25633,463.19946 C 199.79209,475.98306 183.30814,486.41049 176.22508,481.60571 C 159.61678,467.45474 190.429,461.46284 179.41258,446.51196 z M 299.41258,446.51196 C 311.86318,454.53016 303.37808,462.10509 305.25638,463.19946 C 319.79198,475.98306 303.30808,486.41049 296.22508,481.60571 C 279.61668,467.45474 310.42898,461.46284 299.41258,446.51196 z M 419.41258,446.51196 C 431.86318,454.53016 423.37788,462.10509 425.25638,463.19946 C 439.79198,475.98306 423.30808,486.41049 416.22508,481.60571 C 399.61668,467.45474 430.42898,461.46284 419.41258,446.51196 z M 198.97508,481.98071 C 207.10989,482.37857 216.09021,494.39599 224.85008,484.32446 C 219.74101,498.2244 210.47713,491.59667 209.81883,493.66821 C 200.51398,510.64257 186.73741,496.84758 189.88133,488.88696 C 192.74647,483.46017 195.79189,481.82503 198.97508,481.98071 z M 318.97508,481.98071 C 327.10988,482.37857 336.09018,494.39599 344.85008,484.32446 C 339.74098,498.2244 330.47718,491.59667 329.81888,493.66821 C 320.51388,510.64257 306.73728,496.84758 309.88138,488.88696 C 312.74648,483.46017 315.79188,481.82503 318.97508,481.98071 z M 438.97508,481.98071 C 447.10988,482.37857 456.09018,494.39599 464.85008,484.32446 C 459.74098,498.2244 450.47668,491.59667 449.81888,493.66821 C 440.51388,510.64257 426.73658,496.84758 429.88138,488.88696 C 432.74648,483.46017 435.79188,481.82503 438.97508,481.98071 z M 163.75633,482.16821 C 166.93951,482.01253 169.98494,483.61642 172.85008,489.04321 C 175.99398,497.00383 162.21743,510.83006 152.91258,493.85571 C 152.25425,491.78415 142.9904,498.4119 137.88133,484.51196 C 146.64123,494.58348 155.62153,482.56607 163.75633,482.16821 z M 283.75638,482.16821 C 286.93928,482.01253 289.98488,483.61642 292.85008,489.04321 C 295.99398,497.00383 282.21748,510.83006 272.91258,493.85571 C 272.25428,491.78415 262.99038,498.4119 257.88133,484.51196 C 266.64118,494.58348 275.62148,482.56607 283.75638,482.16821 z M 403.75638,482.16821 C 406.93948,482.01253 409.98488,483.61642 412.85008,489.04321 C 415.99398,497.00383 402.21748,510.83006 392.91258,493.85571 C 392.25428,491.78415 382.99018,498.4119 377.88138,484.51196 C 386.64108,494.58348 395.62148,482.56607 403.75638,482.16821 z M 302.06888,491.79321 C 308.26088,527.41346 321.20178,552.07212 336.53758,571.10571 C 330.06958,568.72523 323.32438,563.09066 317.22508,558.82446 L 329.03758,585.38696 C 320.62388,578.76583 314.56858,570.98073 308.35008,563.26196 C 306.28628,580.52285 304.35618,599.31022 301.75638,610.66821 C 298.48988,599.29198 296.31088,580.4146 294.69388,563.63696 C 284.37918,575.84099 276.77458,584.15548 274.38138,585.04321 C 278.38868,576.80206 282.40428,568.63276 286.41258,559.29321 C 279.85818,563.79422 273.09908,568.9524 267.06888,570.76196 C 281.57458,552.63298 294.90508,527.40963 302.06888,491.79321 z M 237.41258,558.51196 C 249.86326,566.53016 241.37828,574.10509 243.25633,575.19946 C 257.79209,587.98306 241.30814,598.41049 234.22508,593.60571 C 217.61678,579.45474 248.429,573.46284 237.41258,558.51196 z M 357.41258,558.51196 C 369.86318,566.53016 361.37788,574.10509 363.25638,575.19946 C 377.79198,587.98306 361.30808,598.41049 354.22508,593.60571 C 337.61668,579.45474 368.42898,573.46284 357.41258,558.51196 z M 437.22508,558.82446 L 443.00638,571.82446 C 444.91948,570.23944 446.84168,568.6438 448.75638,567.01196 C 444.81258,564.45418 440.90298,561.397 437.22508,558.82446 z M 166.41258,559.29321 C 161.83525,562.43655 157.15873,565.87717 152.69383,568.29321 C 155.0267,570.26725 157.36452,572.20105 159.69383,574.10571 C 161.94151,569.38847 164.16492,564.53037 166.41258,559.29321 z M 428.35008,563.26196 C 427.46168,570.69244 426.59528,578.32145 425.69388,585.60571 C 429.96038,582.34995 434.26378,578.97108 438.56888,575.48071 C 434.96448,571.50478 431.66838,567.38092 428.35008,563.26196 z M 174.69383,563.63696 C 170.24962,568.89523 166.36713,573.35499 163.13133,576.88696 C 167.93238,580.74835 172.6973,584.47343 177.44383,588.04321 C 176.35623,580.11427 175.46613,571.6497 174.69383,563.63696 z M 256.97508,593.98071 C 265.10988,594.37857 274.09018,606.39599 282.85008,596.32446 C 277.74098,610.2244 268.47708,603.5967 267.81888,605.66821 C 258.50922,622.64257 244.73741,608.84758 247.88133,600.88696 C 250.74647,595.46017 253.7919,593.82503 256.97508,593.98071 z M 376.97508,593.98071 C 385.10988,594.37857 394.09018,606.39599 402.85008,596.32446 C 397.74098,610.2244 388.47668,603.5967 387.81888,605.66821 C 378.51388,622.64257 364.73658,608.84758 367.88138,600.88696 C 370.74648,595.46017 373.79188,593.82503 376.97508,593.98071 z M 221.75633,594.16821 C 224.93951,594.01253 227.98494,595.61642 230.85008,601.04321 C 233.99398,609.00386 220.21743,622.83006 210.91258,605.85571 C 210.25425,603.78418 200.9904,610.4119 195.88133,596.51196 C 204.64123,606.58348 213.62153,594.56607 221.75633,594.16821 z M 341.75638,594.16821 C 344.93948,594.01253 347.98488,595.61642 350.85008,601.04321 C 353.99398,609.00386 340.21748,622.83006 330.91258,605.85571 C 330.25428,603.78418 320.99018,610.4119 315.88138,596.51196 C 324.64108,606.58348 333.62148,594.56607 341.75638,594.16821 z "
         style="fill:#ffffff;fill-opacity:1;fill-rule:evenodd;stroke:none;stroke-width:1px;stroke-linecap:butt;stroke-linejoin:miter;stroke-opacity:1" />
      <path
         id="rect15875"
         d="M 120.6875,2.2103104 C 116.68652,26.615725 101.65625,51.023647 101.65625,75.429062 C 101.65625,103.58142 121.65625,131.71418 121.65625,159.86655 C 121.65625,188.01892 101.65625,216.18293 101.65625,244.3353 C 101.65625,272.48767 121.65625,300.65168 121.65625,328.80405 C 121.65625,356.95642 101.65625,385.08917 101.65625,413.24155 C 101.65625,441.39392 121.65625,469.55792 121.65625,497.7103 C 121.65625,509.2671 118.28609,520.80975 114.3125,532.36655 C 157.5316,577.41178 205.08551,609.35199 241.25,629.8353 C 235.69976,613.94662 229.34375,598.06771 229.34375,582.17905 C 229.34375,554.02667 249.34375,525.86266 249.34375,497.7103 C 249.34375,469.55793 229.34375,441.39392 229.34375,413.24155 C 229.34375,385.08917 249.34375,356.95642 249.34375,328.80405 C 249.34375,300.65168 229.34375,272.48767 229.34375,244.3353 C 229.34375,216.18293 249.34375,188.01892 249.34375,159.86655 C 249.34375,131.71418 229.34375,103.58142 229.34375,75.429062 C 229.34375,51.024065 244.34246,26.615309 248.34375,2.2103104 L 120.6875,2.2103104 z "
         style="fill:#2b5df2;fill-opacity:1;stroke:#000000;stroke-width:3;stroke-miterlimit:4;stroke-dashoffset:0;stroke-opacity:1" />
      <path
         id="rect15877"
         d="M 362.6875,2.2103104 C 358.68652,26.615725 343.65625,51.023647 343.65625,75.429062 C 343.65625,103.58142 363.65625,131.71418 363.65625,159.86655 C 363.65625,188.01892 343.65625,216.18293 343.65625,244.3353 C 343.65625,272.48767 363.65625,300.65168 363.65625,328.80405 C 363.65625,356.95642 343.65625,385.08917 343.65625,413.24155 C 343.65625,441.39392 363.65625,469.55792 363.65625,497.7103 C 363.65625,525.86267 343.65625,554.02665 343.65625,582.17905 C 343.65625,598.56596 350.42982,614.94839 356.09375,631.3353 C 391.84323,611.32806 439.45689,579.79355 483.03125,535.0853 C 487.4,522.62251 491.34375,510.17308 491.34375,497.7103 C 491.34375,469.55793 471.34374,441.39392 471.34375,413.24155 C 471.34375,385.08917 491.34374,356.95642 491.34375,328.80405 C 491.34375,300.65168 471.34374,272.48767 471.34375,244.3353 C 471.34375,216.18293 491.34374,188.01892 491.34375,159.86655 C 491.34375,131.71418 471.34374,103.58142 471.34375,75.429062 C 471.34375,51.024065 486.34246,26.615309 490.34375,2.2103104 L 362.6875,2.2103104 z "
         style="fill:#2b5df2;fill-opacity:1;stroke:#000000;stroke-width:3;stroke-miterlimit:4;stroke-dashoffset:0;stroke-opacity:1" />
    </g>
  </g>
  <g
     inkscape:groupmode="layer"
     id="layer4"
     inkscape:label="Meubles"
     sodipodi:insensitive="true" />
  <g
     inkscape:groupmode="layer"
     id="layer2"
     inkscape:label="Reflet final"
     sodipodi:insensitive="true">
    <path
       sodipodi:nodetypes="cccccc"
       d="M 300.00001,658.5 C 300.00001,658.5 598.50001,546.17969 598.50001,260.72817 C 598.50001,-24.723334 598.50001,2.1764865 598.50001,2.1764865 L 1.5,2.1764865 L 1.5,260.72817 C 1.5,546.17969 300.00001,658.5 300.00001,658.5 z "
       style="opacity:1;fill:url(#radialGradient3163);fill-opacity:1;fill-rule:evenodd;stroke:none;stroke-width:1px;stroke-linecap:butt;stroke-linejoin:miter;stroke-opacity:1"
       id="path2875"
       inkscape:export-xdpi="144"
       inkscape:export-ydpi="144" />
  </g>
  <g
     inkscape:groupmode="layer"
     id="layer1"
     inkscape:label="Contour final"
     sodipodi:insensitive="true">
    <path
       sodipodi:nodetypes="cccccc"
       d="M 299.99999,658.50028 C 299.99999,658.50028 1.5,546.17992 1.5,260.72828 C 1.5,-24.723336 1.5,2.1764957 1.5,2.1764957 L 598.49999,2.1764957 L 598.49999,260.72828 C 598.49999,546.17992 299.99999,658.50028 299.99999,658.50028 z "
       style="opacity:1;fill:none;fill-opacity:1;fill-rule:evenodd;stroke:#000000;stroke-width:3.00000048;stroke-linecap:butt;stroke-linejoin:miter;stroke-miterlimit:4;stroke-dasharray:none;stroke-opacity:1"
       id="path1411"
       inkscape:export-xdpi="144"
       inkscape:export-ydpi="144" />
  </g>
</svg>
