<?xml version="1.0" encoding="UTF-8" standalone="no"?>
<!-- Created with Inkscape (http://www.inkscape.org/) -->
<svg
   xmlns:dc="http://purl.org/dc/elements/1.1/"
   xmlns:cc="http://web.resource.org/cc/"
   xmlns:rdf="http://www.w3.org/1999/02/22-rdf-syntax-ns#"
   xmlns:svg="http://www.w3.org/2000/svg"
   xmlns="http://www.w3.org/2000/svg"
   xmlns:xlink="http://www.w3.org/1999/xlink"
   xmlns:sodipodi="http://sodipodi.sourceforge.net/DTD/sodipodi-0.dtd"
   xmlns:inkscape="http://www.inkscape.org/namespaces/inkscape"
   width="301.25"
   height="335.97928"
   id="svg6037"
   sodipodi:version="0.32"
   inkscape:version="0.44"
   sodipodi:docbase="E:\E MES IMAGES\BLASONS\SVG\FRANCE"
   sodipodi:docname="Blason52.svg"
   version="1.0"
   inkscape:export-filename="E:\E MES IMAGES\BLASONS\SVG\FRANCE\Blason52.png"
   inkscape:export-xdpi="90"
   inkscape:export-ydpi="90">
  <defs
     id="defs6039">
    <linearGradient
       inkscape:collect="always"
       id="linearGradient3933">
      <stop
         style="stop-color:white;stop-opacity:1;"
         offset="0"
         id="stop3935" />
      <stop
         style="stop-color:white;stop-opacity:0;"
         offset="1"
         id="stop3937" />
    </linearGradient>
    <linearGradient
       inkscape:collect="always"
       id="linearGradient3038">
      <stop
         style="stop-color:black;stop-opacity:1;"
         offset="0"
         id="stop3040" />
      <stop
         style="stop-color:black;stop-opacity:0;"
         offset="1"
         id="stop3042" />
    </linearGradient>
    <linearGradient
       id="tips-f06.svglinearGradient1056">
      <stop
         style="stop-color:#0082ab;stop-opacity:0;"
         offset="0.00000000"
         id="tips-f06.svgstop1057" />
      <stop
         style="stop-color:#000000;stop-opacity:1;"
         offset="1.00000000"
         id="tips-f06.svgstop1058" />
    </linearGradient>
    <radialGradient
       inkscape:collect="always"
       xlink:href="#linearGradient3038"
       id="radialGradient3044"
       cx="224.0963"
       cy="209.47501"
       fx="224.0963"
       fy="209.47501"
       r="149.94353"
       gradientTransform="matrix(1.173776,0.51363,-0.779316,1.780935,121.2115,-254.0835)"
       gradientUnits="userSpaceOnUse" />
    <radialGradient
       inkscape:collect="always"
       xlink:href="#linearGradient3933"
       id="radialGradient3939"
       cx="105.02905"
       cy="115.11227"
       fx="105.02905"
       fy="115.11227"
       r="149.94353"
       gradientTransform="matrix(1.662264,-1.102819e-3,1.114944e-3,1.680487,-65.70478,-84.38568)"
       gradientUnits="userSpaceOnUse" />
  </defs>
  <sodipodi:namedview
     id="base"
     pagecolor="#ffffff"
     bordercolor="#666666"
     borderopacity="1.0"
     inkscape:pageopacity="0.0"
     inkscape:pageshadow="2"
     inkscape:zoom="1.5306335"
     inkscape:cx="149.94351"
     inkscape:cy="167.25101"
     inkscape:document-units="px"
     inkscape:current-layer="layer1"
     inkscape:window-width="1024"
     inkscape:window-height="708"
     inkscape:window-x="-4"
     inkscape:window-y="-4"
     showgrid="true" />
  <metadata
     id="metadata6042">
    <rdf:RDF>
      <cc:Work
         rdf:about="">
        <dc:format>image/svg+xml</dc:format>
        <dc:type
           rdf:resource="http://purl.org/dc/dcmitype/StillImage" />
      </cc:Work>
    </rdf:RDF>
  </metadata>
  <g
     inkscape:label="Calque 1"
     inkscape:groupmode="layer"
     id="layer1"
     transform="translate(-400.2864,-389.4653)">
    <path
       style="fill:navy;fill-rule:evenodd;stroke:black;stroke-width:1px;stroke-linecap:butt;stroke-linejoin:miter;stroke-opacity:1"
       d="M 1.3304209,-0.037833355 L 298.67948,0.62737708 L 300,152.56738 C 285.36833,243.21439 227.63942,296.74988 149.33479,332.56739 C 67.279025,300.48306 16.425285,241.4132 0,152.56738 L 1.3304209,-0.037833355 z "
       id="path1955"
       transform="translate(401.0364,391.712)"
       sodipodi:nodetypes="cccccc" />
    <path
       style="fill:#e6e6e6;fill-rule:evenodd;stroke:black;stroke-width:1px;stroke-linecap:butt;stroke-linejoin:miter;stroke-opacity:1"
       d="M 115.0814,-0.037833355 L 182.93287,-0.037833355 L 183.59808,314.6067 L 149.00714,333.23259 L 115.0814,315.27191 L 115.0814,-0.037833355 z "
       id="path1953"
       transform="translate(401.0364,391.712)"
       sodipodi:nodetypes="cccccc" />
    <path
       style="fill:yellow;fill-rule:evenodd;stroke:black;stroke-width:1px;stroke-linecap:butt;stroke-linejoin:miter;stroke-opacity:1"
       d="M 207.54565,0.62737708 L 207.54565,6.614271 L 213.53255,6.614271 L 213.53255,0.62737708 L 207.54565,0.62737708 z "
       id="path1965"
       transform="translate(401.0364,391.712)" />
    <path
       style="fill:yellow;fill-rule:evenodd;stroke:black;stroke-width:1px;stroke-linecap:butt;stroke-linejoin:miter;stroke-opacity:1"
       d="M 84.481725,-0.037833355 L 84.481725,5.9490605 L 90.468619,5.2838501 L 90.468619,-0.037833355 L 84.481725,-0.037833355 z "
       id="path1963"
       transform="translate(401.0364,391.712)" />
    <path
       style="fill:yellow;fill-rule:evenodd;stroke:black;stroke-width:1px;stroke-linecap:butt;stroke-linejoin:miter;stroke-opacity:1"
       d="M 95.125092,250.7465 L 101.11199,250.7465 L 101.11199,305.29376 L 94.459881,300.63728 L 94.459881,295.98081 L 88.472988,295.98081 L 82.486093,291.32434 L 94.459881,291.32434 L 95.125092,250.7465 z "
       id="path1961"
       transform="translate(401.0364,391.712)"
       sodipodi:nodetypes="ccccccccc" />
    <g
       id="g1971">
      <path
         sodipodi:nodetypes="ccccccccccccccccccccccccccccc"
         transform="translate(401.0364,391.712)"
         id="path1957"
         d="M 74.503568,0.62737708 L 74.503568,286.00265 L 81.820883,291.32434 L 81.820883,197.52967 L 93.794671,197.52967 L 94.459881,236.11187 L 100.44678,236.11187 L 100.44678,146.97367 L 93.794671,146.97367 L 94.459881,192.56738 L 81.155673,192.56738 L 81.155673,99.743731 L 93.794671,99.743731 L 93.794671,132.56738 L 100.44678,132.56738 L 100,61.826737 L 93.794671,61.826737 L 93.794671,93.091628 L 81.155673,93.091627 L 80.490462,17.922848 L 93.794671,17.922848 L 93.794671,48.522528 L 100.44678,48.522528 L 100,1.2925875 L 94.459881,1.2925875 L 94.459881,11.935954 L 80.490462,11.935954 L 80.490462,0.62737708 L 74.503568,0.62737708 z "
         style="fill:yellow;fill-rule:evenodd;stroke:black;stroke-width:1px;stroke-linecap:butt;stroke-linejoin:miter;stroke-opacity:1" />
      <path
         transform="translate(401.0364,391.712)"
         id="path1959"
         d="M 103.77283,1.9577979 L 110,1.9577979 L 110.42493,310.61544 L 104.43804,306.62418 L 104.43804,246.75524 L 91.133829,246.75524 L 91.133829,289.3287 L 85.146935,289.3287 L 85.146935,200.85572 L 90.468619,200.85572 L 91.133829,240.76834 L 103.77283,240.76834 L 103.77283,143.64762 L 90,143.64762 L 90.468619,187.55151 L 84.481725,187.55151 L 84.481725,103.06978 L 90,103.06978 L 90.468619,137.66073 L 103.77283,138.32594 L 103.10762,55.839843 L 90.468619,55.839843 L 90.468619,88.435154 L 84.481725,88.435154 L 84.481725,21.2489 L 90.468619,21.2489 L 91.133829,51.84858 L 103.10762,51.84858 L 103.77283,1.9577979 z "
         style="fill:yellow;fill-rule:evenodd;stroke:black;stroke-width:1px;stroke-linecap:butt;stroke-linejoin:miter;stroke-opacity:1" />
    </g>
    <g
       id="g1975">
      <path
         sodipodi:nodetypes="cccccccccccccccccccccccccccccccccccc"
         transform="translate(401.0364,391.712)"
         id="path1967"
         d="M 198.23271,1.2925875 L 198.89792,48.522528 L 204.2196,48.522528 L 204.2196,17.922848 L 217.52381,17.922848 L 217.52381,93.756838 L 204.2196,93.756838 L 204.2196,61.161526 L 198.23271,61.161526 L 198.23271,132.56738 L 204.2196,132.56738 L 204.2196,99.078521 L 217.52381,99.078521 L 217.52381,191.54277 L 204.88481,191.54277 L 204.88481,146.97367 L 198.23271,146.97367 L 198.23271,236.77708 L 204.88481,236.77708 L 205.55002,196.19924 L 218.18902,196.19924 L 218.18902,289.3287 L 204.88481,289.3287 L 204.88481,249.41608 L 198.23271,249.41608 L 198.23271,304.62854 L 205.55002,298.64165 L 205.55002,294.65039 L 215.86079,294.31778 L 224.84113,286.66786 L 221.51507,-0.037833355 L 216.8586,-0.037833355 L 216.8586,11.935954 L 204.2196,11.935954 L 204.2196,0.62737708 L 198.23271,1.2925875 z "
         style="fill:yellow;fill-rule:evenodd;stroke:black;stroke-width:1px;stroke-linecap:butt;stroke-linejoin:miter;stroke-opacity:1" />
      <path
         sodipodi:nodetypes="ccccccccccccccccccccccccccccc"
         transform="translate(401.0364,391.712)"
         id="path1969"
         d="M 188.91976,0.62737708 L 189.58497,311.94586 L 196.23708,306.62418 L 194.90666,246.09003 L 208.21087,246.09003 L 208.21087,284.67223 L 214.86297,284.67223 L 214.86297,200.19051 L 208.21087,200.19051 L 208.21087,240.10313 L 195.57187,240.10313 L 194.90666,143.64762 L 207.54565,143.64762 L 208.21087,187.55151 L 214.19776,187.55151 L 214.19776,103.06978 L 207.54565,103.06978 L 207.54565,137.66073 L 194.90666,137.66073 L 194.90666,55.174633 L 207.54565,55.174633 L 206.88044,89.100365 L 214.19776,89.100365 L 213.53255,21.914111 L 207.54565,21.914111 L 207.54565,51.18337 L 195.57187,51.18337 L 194.90666,0.62737708 L 188.91976,0.62737708 z "
         style="fill:yellow;fill-rule:evenodd;stroke:black;stroke-width:1px;stroke-linecap:butt;stroke-linejoin:miter;stroke-opacity:1" />
    </g>
    <g
       transform="translate(401.0364,-328.0828)"
       id="g2047"
       inkscape:label="Calque 1"
       style="opacity:1;fill:none;stroke:black;stroke-width:2.5;stroke-miterlimit:4;stroke-dasharray:none;stroke-opacity:1">
      <path
         id="path10862"
         d="M 2.4835704,718.7981 L 0.5,866.6327 C 12.838054,937.99449 41.658761,1005.083 148.81542,1051.8622 C 223.84284,1015.9542 287.72174,968.59633 297.79002,865.97352 L 299.11441,718.7981 L 2.4835704,718.7981 z "
         style="opacity:1;fill:none;fill-rule:evenodd;stroke:black;stroke-width:2.5;stroke-linecap:butt;stroke-linejoin:miter;stroke-miterlimit:4;stroke-dasharray:none;stroke-opacity:1;display:inline"
         sodipodi:nodetypes="cccccc" />
    </g>
    <path
       style="opacity:0.47000002;fill:url(#radialGradient3044);fill-opacity:1;fill-rule:evenodd;stroke:black;stroke-width:1px;stroke-linecap:butt;stroke-linejoin:miter;stroke-opacity:1"
       d="M 7.3223995,1.0946691 L 302.88107,1.0946691 L 302.88107,152.20237 C 289.84163,224.29211 252.72152,289.01021 153.10472,334.59668 C 65.499745,300.77335 20.663581,237.01184 3.9940361,153.53371 L 7.3223995,1.0946691 z "
       id="path3036"
       transform="translate(397.4405,389.5919)"
       sodipodi:nodetypes="cccccc" />
    <path
       style="opacity:0.5;fill:url(#radialGradient3939);fill-opacity:1;fill-rule:evenodd;stroke:black;stroke-width:1px;stroke-linecap:butt;stroke-linejoin:miter;stroke-opacity:1"
       d="M 6.0099804,2.4165514 L 302.2154,1.0946691 L 302.88107,153.53371 C 292.64851,226.84898 250.18414,289.63957 153.10472,334.59668 C 70.441755,302.19933 19.209294,242.50706 3.9940361,151.5367 L 6.0099804,2.4165514 z "
       id="path3931"
       transform="translate(397.4405,389.5919)"
       sodipodi:nodetypes="cccccc" />
  </g>
</svg>
