<?xml version="1.0" encoding="UTF-8" standalone="no"?>
<!DOCTYPE svg PUBLIC "-//W3C//DTD SVG 1.1//EN" "http://www.w3.org/Graphics/SVG/1.1/DTD/svg11.dtd">
<svg
   xmlns:svg="http://www.w3.org/2000/svg"
   xmlns="http://www.w3.org/2000/svg"
   xmlns:xlink="http://www.w3.org/1999/xlink"
   version="1.1"
   width="600"
   height="660"
   id="svg2">
  <desc
     id="desc4">Flag of Canton of Valais (Wallis)</desc>
  <defs
     id="defs6">
    <linearGradient
       id="linearGradient2893">
      <stop
         style="stop-color:#ffffff;stop-opacity:0.31373"
         offset="0"
         id="stop2895" />
      <stop
         style="stop-color:#ffffff;stop-opacity:0.25098"
         offset="0.19"
         id="stop2897" />
      <stop
         style="stop-color:#6b6b6b;stop-opacity:0.12549"
         offset="0.6"
         id="stop2901" />
      <stop
         style="stop-color:#000000;stop-opacity:0.12549"
         offset="1"
         id="stop2899" />
    </linearGradient>
    <linearGradient
       id="linearGradient2885">
      <stop
         style="stop-color:#ffffff;stop-opacity:1"
         offset="0"
         id="stop2887" />
      <stop
         style="stop-color:#ffffff;stop-opacity:1"
         offset="0.22857"
         id="stop2891" />
      <stop
         style="stop-color:#000000;stop-opacity:1"
         offset="1"
         id="stop2889" />
    </linearGradient>
    <linearGradient
       id="linearGradient2955">
      <stop
         style="stop-color:#fd0000;stop-opacity:1"
         offset="0"
         id="stop2867" />
      <stop
         style="stop-color:#e77275;stop-opacity:0.65882"
         offset="0.5"
         id="stop2873" />
      <stop
         style="stop-color:#000000;stop-opacity:0.32292"
         offset="1"
         id="stop2959" />
    </linearGradient>
    <radialGradient
       cx="225.52"
       cy="218.9"
       r="300"
       fx="225.52"
       fy="218.9"
       id="radialGradient2961"
       xlink:href="#linearGradient2955"
       gradientUnits="userSpaceOnUse"
       gradientTransform="matrix(-4.1679e-4,2.1829,-1.8842,-3.5996e-4,615.6,-289.12)" />
    <polygon
       points="0,-1 0.58779,0.80902 -0.95106,-0.30902 0.95106,-0.30902 -0.58779,0.80902 0,-1 "
       transform="scale(53,53)"
       id="star" />
    <clipPath
       id="clip">
      <path
         d="M 0,-200 L 0,600 L 300,600 L 300,-200 L 0,-200 z "
         id="path10" />
    </clipPath>
    <radialGradient
       cx="225.52"
       cy="218.9"
       r="300"
       fx="225.52"
       fy="218.9"
       id="radialGradient1911"
       xlink:href="#linearGradient2955"
       gradientUnits="userSpaceOnUse"
       gradientTransform="matrix(-4.1679e-4,2.1829,-1.8842,-3.5996e-4,615.6,-289.12)" />
    <radialGradient
       cx="225.52"
       cy="218.9"
       r="300"
       fx="225.52"
       fy="218.9"
       id="radialGradient2865"
       xlink:href="#linearGradient2955"
       gradientUnits="userSpaceOnUse"
       gradientTransform="matrix(0,1.7487,-1.5932,0,551.79,-191.29)" />
    <radialGradient
       cx="225.52"
       cy="218.9"
       r="300"
       fx="225.52"
       fy="218.9"
       id="radialGradient2871"
       xlink:href="#linearGradient2955"
       gradientUnits="userSpaceOnUse"
       gradientTransform="matrix(0,1.3862,-1.3233,0,-158.08,-109.54)" />
    <radialGradient
       cx="221.44"
       cy="226.33"
       r="300"
       fx="221.44"
       fy="226.33"
       id="radialGradient3163"
       xlink:href="#linearGradient2893"
       gradientUnits="userSpaceOnUse"
       gradientTransform="matrix(1.3532,0,0,1.3489,-77.629,-85.747)" />
    <radialGradient
       cx="221.44"
       cy="226.33"
       r="300"
       fx="221.44"
       fy="226.33"
       id="radialGradient2375"
       xlink:href="#linearGradient2893"
       gradientUnits="userSpaceOnUse"
       gradientTransform="matrix(1.3532,0,0,1.3489,-77.629,-85.747)" />
    <radialGradient
       cx="225.52"
       cy="218.9"
       r="300"
       fx="225.52"
       fy="218.9"
       id="radialGradient2373"
       xlink:href="#linearGradient2955"
       gradientUnits="userSpaceOnUse"
       gradientTransform="matrix(0,1.3862,-1.3233,0,-158.08,-109.54)" />
    <radialGradient
       cx="225.52"
       cy="218.9"
       r="300"
       fx="225.52"
       fy="218.9"
       id="radialGradient2371"
       xlink:href="#linearGradient2955"
       gradientUnits="userSpaceOnUse"
       gradientTransform="matrix(0,1.7487,-1.5932,0,551.79,-191.29)" />
    <radialGradient
       cx="225.52"
       cy="218.9"
       r="300"
       fx="225.52"
       fy="218.9"
       id="radialGradient2369"
       xlink:href="#linearGradient2955"
       gradientUnits="userSpaceOnUse"
       gradientTransform="matrix(-4.1679e-4,2.1829,-1.8842,-3.5996e-4,615.6,-289.12)" />
    <clipPath
       id="clipPath2365">
      <path
         d="M 0,-200 L 0,600 L 300,600 L 300,-200 L 0,-200 z "
         id="path2367" />
    </clipPath>
    <polygon
       points="0,-1 0.58779,0.80902 -0.95106,-0.30902 0.95106,-0.30902 -0.58779,0.80902 0,-1 "
       transform="scale(53,53)"
       id="polygon2363" />
    <radialGradient
       cx="225.52"
       cy="218.9"
       r="300"
       fx="225.52"
       fy="218.9"
       id="radialGradient2361"
       xlink:href="#linearGradient2955"
       gradientUnits="userSpaceOnUse"
       gradientTransform="matrix(-4.1679e-4,2.1829,-1.8842,-3.5996e-4,615.6,-289.12)" />
    <linearGradient
       id="linearGradient2353">
      <stop
         style="stop-color:#fd0000;stop-opacity:1"
         offset="0"
         id="stop2355" />
      <stop
         style="stop-color:#e77275;stop-opacity:0.65882"
         offset="0.5"
         id="stop2357" />
      <stop
         style="stop-color:#000000;stop-opacity:0.32292"
         offset="1"
         id="stop2359" />
    </linearGradient>
    <linearGradient
       id="linearGradient2345">
      <stop
         style="stop-color:#ffffff;stop-opacity:1"
         offset="0"
         id="stop2347" />
      <stop
         style="stop-color:#ffffff;stop-opacity:1"
         offset="0.22857"
         id="stop2349" />
      <stop
         style="stop-color:#000000;stop-opacity:1"
         offset="1"
         id="stop2351" />
    </linearGradient>
    <linearGradient
       id="linearGradient2335">
      <stop
         style="stop-color:#ffffff;stop-opacity:0.31373"
         offset="0"
         id="stop2337" />
      <stop
         style="stop-color:#ffffff;stop-opacity:0.25098"
         offset="0.19"
         id="stop2339" />
      <stop
         style="stop-color:#6b6b6b;stop-opacity:0.12549"
         offset="0.6"
         id="stop2341" />
      <stop
         style="stop-color:#000000;stop-opacity:0.12549"
         offset="1"
         id="stop2343" />
    </linearGradient>
    <radialGradient
       cx="225.52"
       cy="218.9"
       r="300"
       fx="225.52"
       fy="218.9"
       id="radialGradient2569"
       xlink:href="#linearGradient2955"
       gradientUnits="userSpaceOnUse"
       gradientTransform="matrix(0,1.3862,-1.3233,0,-158.08,-109.54)" />
    <radialGradient
       cx="225.52"
       cy="218.9"
       r="300"
       fx="225.52"
       fy="218.9"
       id="radialGradient2567"
       xlink:href="#linearGradient2955"
       gradientUnits="userSpaceOnUse"
       gradientTransform="matrix(0,1.7487,-1.5932,0,551.79,-191.29)" />
    <radialGradient
       cx="225.52"
       cy="218.9"
       r="300"
       fx="225.52"
       fy="218.9"
       id="radialGradient2565"
       xlink:href="#linearGradient2955"
       gradientUnits="userSpaceOnUse"
       gradientTransform="matrix(-4.1679e-4,2.1829,-1.8842,-3.5996e-4,615.6,-289.12)" />
    <clipPath
       id="clipPath2561">
      <path
         d="M 0,-200 L 0,600 L 300,600 L 300,-200 L 0,-200 z "
         id="path2563" />
    </clipPath>
    <polygon
       points="0,-1 0.58779,0.80902 -0.95106,-0.30902 0.95106,-0.30902 -0.58779,0.80902 0,-1 "
       transform="scale(53,53)"
       id="polygon2559" />
    <radialGradient
       cx="225.52"
       cy="218.9"
       r="300"
       fx="225.52"
       fy="218.9"
       id="radialGradient2557"
       xlink:href="#linearGradient2955"
       gradientUnits="userSpaceOnUse"
       gradientTransform="matrix(-4.1679e-4,2.1829,-1.8842,-3.5996e-4,615.6,-289.12)" />
    <linearGradient
       id="linearGradient2549">
      <stop
         style="stop-color:#fd0000;stop-opacity:1"
         offset="0"
         id="stop2551" />
      <stop
         style="stop-color:#e77275;stop-opacity:0.65882"
         offset="0.5"
         id="stop2553" />
      <stop
         style="stop-color:#000000;stop-opacity:0.32292"
         offset="1"
         id="stop2555" />
    </linearGradient>
    <linearGradient
       id="linearGradient2541">
      <stop
         style="stop-color:#ffffff;stop-opacity:1"
         offset="0"
         id="stop2543" />
      <stop
         style="stop-color:#ffffff;stop-opacity:1"
         offset="0.22857"
         id="stop2545" />
      <stop
         style="stop-color:#000000;stop-opacity:1"
         offset="1"
         id="stop2547" />
    </linearGradient>
    <linearGradient
       id="linearGradient2531">
      <stop
         style="stop-color:#ffffff;stop-opacity:0.31373"
         offset="0"
         id="stop2533" />
      <stop
         style="stop-color:#ffffff;stop-opacity:0.25098"
         offset="0.19"
         id="stop2535" />
      <stop
         style="stop-color:#6b6b6b;stop-opacity:0.12549"
         offset="0.6"
         id="stop2537" />
      <stop
         style="stop-color:#000000;stop-opacity:0.12549"
         offset="1"
         id="stop2539" />
    </linearGradient>
  </defs>
  <g
     style="display:inline"
     id="layer3">
    <path
       d="M 300,658.5 C 300,658.5 598.5,546.18 598.5,260.73 C 598.5,-24.723 598.5,2.1765 598.5,2.1765 L 1.5,2.1765 L 1.5,260.73 C 1.5,546.18 300,658.5 300,658.5 z "
       style="fill:#fcef3c;fill-opacity:1;fill-rule:evenodd;stroke:none;stroke-width:1px;stroke-linecap:butt;stroke-linejoin:miter;stroke-opacity:1"
       id="path2855" />
  </g>
  <g
     id="layer4">
    <g
       transform="translate(-0.1483,-0.3283)"
       style="opacity:1;display:inline"
       id="g2571">
      <g
         id="g5810">
        <path
           d="M 1.5,100.78 L 458.88,558.16 C 490.22,530.02 520.91,495.49 545.56,454.03 L 93.719,2.1875 L 1.5,2.1875 L 1.5,100.78 z "
           style="fill:#e20909;fill-opacity:1;fill-rule:evenodd;stroke:#000000;stroke-width:2;stroke-linecap:butt;stroke-linejoin:miter;stroke-miterlimit:3.2;stroke-dasharray:none;stroke-opacity:1"
           id="path2574" />
        <rect
           width="600"
           height="660"
           x="0"
           y="3.3751e-014"
           style="fill:none;fill-opacity:1;fill-rule:nonzero;stroke:none;stroke-width:7.56019;stroke-linecap:round;stroke-linejoin:round;stroke-miterlimit:4;stroke-dasharray:none;stroke-opacity:1"
           id="rect4923" />
      </g>
    </g>
    <g
       transform="matrix(0.2696,-0.2521,0.2521,0.2696,346.84,430.37)"
       id="g4397">
      <rect
         width="320.78"
         height="338.55"
         x="0"
         y="0"
         transform="scale(0.5,0.5)"
         style="fill:#ffffff;fill-opacity:0;fill-rule:nonzero;stroke:none;stroke-opacity:1"
         id="rect3027" />
      <path
         d="M 157.19,326.07 C 155.92,322.81 153.59,318.5 152,316.5 C 147.52,310.86 145.77,305.21 146.16,297.62 C 146.35,293.98 146.37,291 146.22,291 C 146.07,291 141.85,292.35 136.84,294 C 125.52,297.73 113,298.32 113,295.12 C 113,293.99 114.16,292.76 115.91,292.04 C 117.5,291.38 121.75,287.56 125.35,283.56 L 131.89,276.28 L 124.4,275.65 C 118.52,275.15 115.06,274.13 108.21,270.87 C 103.42,268.58 98.108,265.65 96.406,264.36 C 94.704,263.06 92.844,262 92.272,262 C 91.701,262 90.997,261.1 90.709,260 C 89.906,256.93 93.18,256.65 106.06,258.69 C 112.35,259.68 120.2,260.5 123.5,260.49 C 131.79,260.48 142,258.14 142,256.25 C 142,255.04 141,254.89 136.51,255.46 C 126.95,256.65 124.52,254.53 130.13,249.91 L 133.29,247.32 L 124.89,246.72 C 110.77,245.73 109.6,244.03 119.25,238.55 C 125.18,235.18 134,227.95 134,226.46 C 134,226.08 132.99,226.42 131.75,227.2 C 130.51,227.99 125.79,230.12 121.25,231.93 C 116.71,233.74 112.99,235.51 112.97,235.86 C 112.96,236.21 111.18,237.59 109.02,238.92 C 106.86,240.25 104.96,242.27 104.8,243.41 C 104.27,247.1 101.31,246.43 98.815,242.06 C 97.25,239.32 96.014,238.18 95,238.57 C 94.175,238.88 92.263,239.39 90.75,239.7 C 88.436,240.16 88,239.91 88,238.12 C 88,236.94 89.382,234.07 91.072,231.74 L 94.143,227.5 L 91.822,226.49 C 84.459,223.28 82.803,219.63 88.092,218.26 L 91.185,217.45 L 87.342,214.98 C 84.747,213.3 83.401,211.64 83.194,209.85 L 82.887,207.21 L 95.194,206.68 C 113.6,205.9 122.14,203.87 127,199.14 C 130.4,195.83 133.85,187.55 134.26,181.71 C 134.7,175.53 133.64,173.07 132.65,177.98 C 131.83,182.1 125.48,188.11 118,191.84 C 111.95,194.87 106,195.99 106,194.11 C 106,193.62 107.57,191.03 109.49,188.36 C 113.65,182.57 120.34,170 119.63,169.3 C 119.36,169.02 117.7,171.63 115.96,175.09 C 111.59,183.74 105.63,191.37 101.75,193.29 C 90.937,198.63 86.587,200 80.629,199.92 C 73.705,199.84 67.627,198.02 67.241,195.91 C 67.092,195.1 68.782,193.65 71.222,192.5 C 79.346,188.67 86.697,183.03 90.328,177.84 C 92.331,174.98 93.7,172.38 93.368,172.07 C 93.037,171.76 92.256,172.35 91.633,173.4 C 91.01,174.44 89.375,176.32 88,177.58 C 84.473,180.8 68.967,191 67.591,191 C 66.962,191 62.749,191.46 58.229,192.03 C 50.897,192.95 49.259,192.83 43.032,190.94 C 35.589,188.68 28,183.93 28,181.53 C 28,180.7 29.599,179.64 31.75,179.06 C 36.262,177.84 48.657,171.49 50.897,169.24 C 52.368,167.77 52.294,167.7 50,168.41 C 48.625,168.84 44.35,169.63 40.5,170.18 C 26.336,172.17 15.195,169.29 11.024,162.54 C 8.2546,158.06 8.4498,156.15 11.75,155.46 C 18.264,154.1 23.862,152.64 29,150.97 C 32.025,149.98 37.2,148.36 40.5,147.35 L 46.5,145.53 L 37.898,144.92 C 32.039,144.51 27.828,143.61 24.694,142.09 C 19.773,139.71 8.644,128.54 9.2995,126.64 C 9.5372,125.95 12.233,125.48 16.097,125.45 C 19.619,125.43 26.1,125.3 30.5,125.17 L 38.5,124.93 L 33.5,123.12 C 26.098,120.44 20.51,117.39 16.371,113.75 C 12.474,110.33 9.0586,104.03 9.022,100.2 C 9.0026,98.176 9.3775,97.968 12.25,98.411 C 14.038,98.686 17.75,99.187 20.5,99.524 C 23.25,99.861 27.714,100.78 30.42,101.56 C 33.126,102.35 35.553,102.78 35.813,102.52 C 36.073,102.26 35.434,101.78 34.393,101.45 C 30.166,100.1 26.23,97.473 21.171,92.616 C 15.077,86.767 12,81.491 12,76.895 L 12,73.711 L 18.262,74.296 C 21.707,74.617 25.335,75.191 26.325,75.571 C 27.624,76.07 27.013,74.54 24.132,70.083 C 21.935,66.684 19.846,62.575 19.489,60.951 C 19.133,59.328 18.491,58 18.063,58 C 16.95,58 15.949,39.261 16.809,34.511 C 17.796,29.051 20.274,28.729 22.301,33.795 C 23.158,35.937 26.252,39.843 29.179,42.48 C 34.137,46.945 51.175,59 52.528,59 C 52.861,59 51.109,56.413 48.635,53.25 C 46.161,50.087 42.696,44.372 40.934,40.548 C 37.914,33.993 37.765,33.127 38.312,25.363 C 39.001,15.6 41.587,9.5715 45.506,8.5879 C 49.023,7.7053 49.57,8.2242 50.936,13.733 C 51.585,16.355 53.893,21.508 56.064,25.184 C 60.26,32.29 74.218,46.99 81.575,52.052 C 84.009,53.726 86,55.454 86,55.89 C 86,57.059 100.43,63.532 108.41,65.945 C 121.21,69.814 125.99,74.518 126,83.25 C 126,85.862 125.59,88 125.08,88 C 124.57,88 123.87,89.303 123.52,90.896 C 122.59,95.139 119.88,97.053 113.59,97.907 C 110.52,98.324 107.74,98.93 107.41,99.254 C 107.09,99.577 106.58,102.49 106.29,105.72 C 105.78,111.35 105.9,111.75 109.04,114.89 C 113.13,118.98 114.96,119.68 123.83,120.55 L 130.92,121.25 L 133.71,117.98 C 138.41,112.46 138.44,112.19 134.4,109.81 C 130.71,107.63 130.7,107.61 133.09,106.7 C 134.42,106.2 137.67,104.84 140.31,103.69 L 145.13,101.6 L 139.88,98.938 L 134.63,96.278 L 138.07,95.141 C 141.43,94.033 147,89.678 147,88.16 C 147,87.742 146.61,86.972 146.13,86.45 C 145.66,85.927 144.02,82.125 142.5,78 C 140.98,73.875 139.34,70.073 138.87,69.55 C 137.25,67.779 137.95,57.199 140.06,51.579 C 142.66,44.622 145.86,41.954 155.09,39.04 C 161.55,37.003 163.02,36.857 166.83,37.877 C 172.18,39.307 177.59,43.305 179.7,47.381 C 181.86,51.568 182.68,66.893 180.97,71.213 C 180.26,73.021 179.13,75.175 178.48,76 C 177.82,76.825 176.8,78.949 176.2,80.72 C 175.17,83.805 175.32,84.109 179.7,87.97 L 184.28,92 L 180.14,92 C 177.86,92 176,92.41 176,92.911 C 176,94.298 181.95,99 183.7,99 C 184.96,99 185.02,99.277 184,100.5 C 183.22,101.44 181.01,102 178.13,102.01 L 173.5,102.01 L 176.5,104 C 178.29,105.18 181.19,105.99 183.69,105.99 C 189.19,106 189.92,107.48 185.54,109.73 L 182.02,111.53 L 185.76,116.3 L 189.5,121.07 L 196.81,120.49 C 205.83,119.77 207.81,119.04 211.96,114.89 C 215.1,111.75 215.22,111.35 214.71,105.72 C 214.42,102.49 213.91,99.577 213.59,99.254 C 213.26,98.93 210.48,98.324 207.41,97.907 C 201.12,97.053 198.41,95.139 197.48,90.896 C 197.13,89.303 196.43,88 195.92,88 C 195.41,88 195,85.862 195,83.25 C 195.01,74.518 199.79,69.814 212.59,65.945 C 220.57,63.532 235,57.059 235,55.89 C 235,55.454 236.99,53.726 239.43,52.052 C 246.78,46.99 260.74,32.29 264.94,25.184 C 267.11,21.508 269.41,16.355 270.06,13.733 C 271.43,8.2242 271.98,7.7053 275.49,8.5879 C 279.41,9.5715 282,15.6 282.69,25.363 C 283.24,33.127 283.09,33.993 280.07,40.548 C 278.3,44.372 274.84,50.087 272.37,53.25 C 269.89,56.413 268.14,59 268.47,59 C 269.82,59 286.86,46.945 291.82,42.48 C 294.75,39.843 297.84,35.937 298.7,33.795 C 300.73,28.729 303.2,29.051 304.19,34.511 C 305.05,39.261 304.05,58 302.94,58 C 302.51,58 301.87,59.328 301.51,60.951 C 301.15,62.575 299.07,66.684 296.87,70.083 C 293.99,74.54 293.38,76.07 294.67,75.571 C 295.67,75.191 299.29,74.617 302.74,74.296 L 309,73.711 L 309,76.895 C 309,81.491 305.92,86.767 299.83,92.616 C 294.77,97.473 290.83,100.1 286.61,101.45 C 285.57,101.78 284.93,102.26 285.19,102.52 C 285.45,102.78 287.87,102.35 290.58,101.56 C 293.29,100.78 297.75,99.861 300.5,99.524 C 303.25,99.187 306.96,98.686 308.75,98.411 C 311.62,97.968 312,98.176 311.98,100.2 C 311.94,104.03 308.53,110.33 304.63,113.75 C 300.49,117.39 294.9,120.44 287.5,123.12 L 282.5,124.93 L 290.5,125.17 C 294.9,125.3 301.38,125.43 304.9,125.45 C 308.77,125.48 311.46,125.95 311.7,126.64 C 312.36,128.54 301.23,139.71 296.31,142.09 C 293.17,143.61 288.96,144.51 283.1,144.92 L 274.5,145.53 L 280.5,147.35 C 283.8,148.36 288.98,149.98 292,150.97 C 297.14,152.64 302.74,154.1 309.25,155.46 C 312.55,156.15 312.75,158.06 309.98,162.54 C 305.8,169.29 294.66,172.17 280.5,170.18 C 276.65,169.63 272.38,168.84 271,168.41 C 268.71,167.7 268.63,167.77 270.1,169.24 C 272.34,171.49 284.74,177.84 289.25,179.06 C 291.4,179.64 293,180.7 293,181.53 C 293,183.93 285.41,188.68 277.97,190.94 C 271.74,192.83 270.1,192.95 262.77,192.03 C 258.25,191.46 254.04,191 253.41,191 C 252.03,191 236.53,180.8 233,177.58 C 231.63,176.32 229.99,174.44 229.37,173.4 C 228.74,172.35 227.96,171.76 227.63,172.07 C 227.3,172.38 228.67,174.98 230.67,177.84 C 234.3,183.03 241.65,188.67 249.78,192.5 C 252.22,193.65 253.91,195.1 253.76,195.91 C 253.37,198.02 247.29,199.84 240.37,199.92 C 234.41,200 230.06,198.63 219.25,193.29 C 215.37,191.37 209.41,183.74 205.04,175.09 C 203.3,171.63 201.64,169.02 201.37,169.3 C 200.66,170 207.35,182.57 211.51,188.36 C 213.43,191.03 215,193.62 215,194.11 C 215,195.99 209.05,194.87 203,191.84 C 195.52,188.11 189.17,182.1 188.35,177.98 C 187.36,173.07 186.3,175.53 186.74,181.71 C 187.15,187.55 190.6,195.83 194,199.14 C 198.86,203.87 207.4,205.9 225.81,206.68 L 238.11,207.21 L 237.81,209.85 C 237.6,211.64 236.25,213.3 233.66,214.98 L 229.82,217.45 L 232.91,218.26 C 238.2,219.63 236.54,223.28 229.18,226.49 L 226.86,227.5 L 229.93,231.74 C 231.62,234.07 233,236.94 233,238.12 C 233,239.91 232.56,240.16 230.25,239.7 C 228.74,239.39 226.82,238.88 226,238.57 C 224.99,238.18 223.75,239.32 222.19,242.06 C 219.69,246.43 216.73,247.1 216.2,243.41 C 216.04,242.27 214.14,240.25 211.98,238.92 C 209.82,237.59 208.04,236.21 208.03,235.86 C 208.01,235.51 204.29,233.74 199.75,231.93 C 195.21,230.12 190.49,227.99 189.25,227.2 C 188.01,226.42 187,226.08 187,226.46 C 187,227.95 195.82,235.18 201.75,238.55 C 211.4,244.03 210.23,245.73 196.11,246.72 L 187.71,247.32 L 190.87,249.91 C 196.48,254.53 194.05,256.65 184.49,255.46 C 180,254.89 179,255.04 179,256.25 C 179,258.14 189.21,260.48 197.5,260.49 C 200.8,260.5 208.65,259.68 214.94,258.69 C 227.82,256.65 231.09,256.93 230.29,260 C 230,261.1 229.3,262 228.73,262 C 228.16,262 226.3,263.06 224.59,264.36 C 222.89,265.65 217.58,268.58 212.79,270.87 C 205.94,274.13 202.48,275.15 196.6,275.65 L 189.11,276.28 L 195.65,283.56 C 199.25,287.56 203.5,291.38 205.1,292.04 C 206.84,292.76 208,293.99 208,295.12 C 208,298.32 195.48,297.73 184.16,294 C 179.15,292.35 174.93,291 174.78,291 C 174.63,291 174.65,293.98 174.84,297.62 C 175.23,305.23 173.48,310.86 168.95,316.56 C 167.33,318.6 165.05,322.9 163.87,326.13 C 162.7,329.36 161.23,332 160.61,332 C 159.99,332 158.45,329.33 157.19,326.07 z "
         style="fill:#000000;fill-opacity:1"
         id="path3958" />
      <path
         d="M 166.92,312.17 C 172.39,304.03 173.16,298.95 170.09,291.21 C 168.94,288.31 168,285.49 168,284.96 C 168,283.44 169.95,283.83 172.91,285.93 C 174.4,287 176.94,288.17 178.56,288.53 C 180.18,288.9 184.73,290.28 188.67,291.6 C 192.61,292.92 196.78,294 197.93,294 C 199.79,294 199.6,293.53 196.26,289.88 C 188.09,280.94 186.41,279.29 184.24,278.13 C 183.01,277.47 182,276.11 182,275.11 C 182,273.52 183.2,273.22 191.73,272.71 C 200.9,272.17 202.05,271.84 211.81,266.98 C 217.51,264.15 221.95,261.62 221.69,261.35 C 221.42,261.09 216.77,261.63 211.35,262.56 C 199.64,264.56 184.12,264.1 178.82,261.59 C 176.95,260.7 173.69,258.55 171.58,256.81 C 168.21,254.03 167.97,253.56 169.62,252.99 C 170.65,252.64 174.63,252.25 178.46,252.13 C 182.29,252.01 185.61,251.72 185.84,251.49 C 186.08,251.25 184.81,250.26 183.03,249.28 C 176.41,245.65 173.5,243.38 173.16,241.57 C 172.86,240.03 173.2,239.84 175.15,240.46 C 180.9,242.29 193.67,244.1 196.76,243.52 C 199.57,242.99 199.94,242.64 198.95,241.44 C 198.29,240.65 197.12,240 196.35,240 C 195.58,240 191.07,236.08 186.32,231.29 C 181.57,226.5 176.11,221.74 174.19,220.7 C 170.17,218.55 168,216.59 168,215.12 C 168,214.56 169.57,211.49 171.5,208.3 C 175.18,202.19 176.01,202.89 173.5,210 C 172.68,212.34 172.01,214.53 172.02,214.88 C 172.03,215.55 175.56,217.24 192,224.5 C 204.31,229.93 209.75,232.51 212.49,234.24 C 215,235.84 218,239.05 218,240.15 C 218,240.62 218.43,241 218.95,241 C 219.48,241 220.21,239.4 220.58,237.45 C 221.19,234.15 221.45,233.94 224.12,234.53 C 227.32,235.23 227.74,234.48 225.51,232.01 C 224.69,231.11 223.74,228.94 223.39,227.18 C 222.87,224.61 223.07,224 224.44,224 C 225.37,224 227.07,223.5 228.23,222.88 C 230.25,221.8 230.21,221.71 227.16,220.43 C 222.43,218.44 223.14,215.95 229.29,213 L 234.5,210.5 L 223,209.89 C 211.04,209.25 202.63,207.98 197.5,206.02 C 195.85,205.39 191.46,201.79 187.75,198.01 C 181.11,191.27 181,191.06 181.01,185.83 C 181.02,182.9 181.74,178.47 182.62,176 C 184.8,169.82 187,161.29 187,159.03 C 187,158.01 187.48,157.01 188.07,156.81 C 189.54,156.32 190.95,143.94 190.28,137.39 C 189.59,130.77 191.39,130.04 193.07,136.25 C 193.89,139.28 193.95,143.09 193.27,149.5 C 192.46,157.04 192.55,158.78 193.81,160.25 C 195.42,162.12 198.52,162.59 199.44,161.09 C 200.32,159.67 200.36,155.85 199.53,151.75 C 198.52,146.75 199.98,146.88 205.29,152.3 C 211.16,158.29 213.93,160 217.75,160 C 220.4,160 221.25,159.48 222.06,157.34 C 223.42,153.78 221.54,144.8 218.95,142.46 C 217.88,141.49 217,140.08 217,139.35 C 217,137.37 220.06,137.71 222.44,139.94 C 223.57,141 226.53,142.41 229,143.07 C 235.45,144.78 240.47,142.62 241.38,137.76 C 242.41,132.29 238.6,124.96 233.25,122.12 C 228.85,119.79 230.58,118.38 237.79,118.44 C 242.67,118.48 245.34,118 247.28,116.74 C 253.78,112.48 250.79,105.34 241.24,102.31 C 234.04,100.03 233.04,97.526 239.01,96.725 C 243.15,96.171 249.56,92.552 250.44,90.279 C 251.4,87.819 247.97,86.167 240.44,85.462 C 230.91,84.569 230.23,83.307 236.38,77.893 C 241.9,73.038 242.55,69.565 238.25,67.856 C 234.24,66.26 221.85,66.526 216.83,68.316 C 214.45,69.166 211.35,70.104 209.95,70.4 C 208.54,70.697 205.73,72.36 203.7,74.097 C 200.2,77.082 200,77.58 200,83.204 C 200,88.447 200.35,89.501 202.92,92.077 C 205.25,94.399 206.74,95.003 210.17,95.015 C 216.6,95.038 217.22,95.796 217.77,104.32 C 218.32,112.93 217.6,117 215.52,117 C 214.72,117 213.61,117.86 213.04,118.92 C 211.82,121.21 207.64,122.65 199.5,123.57 C 196.2,123.94 192.92,124.71 192.22,125.27 C 190.08,126.98 186.16,124.09 181.23,117.18 C 177.66,112.18 176.98,110.63 178.07,109.96 C 179.16,109.29 179.03,108.97 177.47,108.46 C 171.61,106.53 170.14,105.64 169.61,103.67 C 168.36,98.998 168.68,98.684 174.12,99.328 L 179.24,99.934 L 175.62,96.419 C 171.5,92.421 170.96,90 174.19,90 C 176.29,90 176.26,89.879 173.51,87.012 C 170.34,83.697 170.16,84.731 175.85,73 C 179.81,64.828 180.01,58.71 176.55,51.284 C 172.43,42.434 163.57,39.94 152.57,44.535 C 148.29,46.324 143,51.589 143,54.063 C 143,55.112 142.5,57.89 141.88,60.236 C 140.83,64.258 141,65.011 144.95,73.5 C 147.26,78.45 149.75,83.829 150.5,85.453 C 152.08,88.897 151.4,90.647 147.06,94.298 C 143.86,96.989 144.53,98 149.52,98 C 150.82,98 152.13,98.409 152.44,98.91 C 153.68,100.91 151.54,102.98 145.48,105.62 C 139.35,108.29 138.01,110 142.06,110 C 143.13,110 144,110.28 144,110.63 C 144,111.91 136.69,121.39 133.89,123.75 C 132.3,125.08 131,127.01 131,128.03 C 131,131.34 129.14,131.13 128.81,127.78 L 128.5,124.53 L 120.5,123.36 C 110.98,121.98 109.27,121.37 107.94,118.88 C 107.38,117.85 106.28,117 105.48,117 C 103.4,117 102.68,112.93 103.23,104.32 C 103.78,95.796 104.4,95.038 110.83,95.015 C 114.26,95.003 115.75,94.399 118.08,92.077 C 120.65,89.501 121,88.447 121,83.204 C 121,77.58 120.8,77.082 117.3,74.097 C 115.27,72.36 112.46,70.697 111.05,70.4 C 109.65,70.104 106.55,69.166 104.17,68.316 C 99.147,66.526 86.761,66.26 82.75,67.856 C 78.455,69.565 79.1,73.038 84.616,77.893 C 90.766,83.307 90.09,84.569 80.564,85.462 C 73.035,86.167 69.605,87.819 70.558,90.279 C 71.439,92.552 77.855,96.171 81.986,96.725 C 87.955,97.526 86.959,100.03 79.764,102.31 C 70.208,105.34 67.219,112.48 73.723,116.74 C 75.655,118 78.329,118.48 83.207,118.44 C 90.416,118.38 92.152,119.79 87.75,122.12 C 82.4,124.96 78.588,132.29 79.616,137.76 C 80.527,142.62 85.551,144.78 92,143.07 C 94.475,142.41 97.429,141 98.564,139.94 C 100.94,137.71 104,137.37 104,139.35 C 104,140.08 103.12,141.49 102.05,142.46 C 99.462,144.8 97.585,153.78 98.938,157.34 C 99.752,159.48 100.6,160 103.25,160 C 107.07,160 109.84,158.29 115.71,152.3 C 121.02,146.88 122.48,146.75 121.47,151.75 C 120.07,158.66 120.87,162 123.9,162 C 127.72,162 128.83,159.05 127.84,151.5 C 126.62,142.2 127.6,132 129.72,132 C 131.01,132 131.18,132.94 130.72,137.39 C 130.05,143.94 131.46,156.32 132.93,156.81 C 133.52,157.01 134,158.01 134,159.03 C 134,161.29 136.2,169.82 138.38,176 C 139.26,178.47 139.98,182.9 139.99,185.83 C 140,191.06 139.89,191.27 133.25,198.01 C 129.54,201.79 125.15,205.39 123.5,206.02 C 118.37,207.98 109.96,209.25 98,209.89 L 86.5,210.5 L 91.709,213 C 97.861,215.95 98.573,218.44 93.838,220.43 C 90.792,221.71 90.752,221.8 92.772,222.88 C 93.925,223.5 95.629,224 96.559,224 C 97.926,224 98.128,224.61 97.613,227.18 C 97.263,228.94 96.307,231.11 95.488,232.01 C 93.259,234.48 93.676,235.23 96.879,234.53 C 99.552,233.94 99.805,234.15 100.42,237.45 C 100.79,239.4 101.52,241 102.05,241 C 102.57,241 103,240.62 103,240.15 C 103,239.05 106,235.84 108.51,234.24 C 112.58,231.68 136.75,220.68 141,219.47 C 145.28,218.25 145.75,217.38 144.9,212.26 C 143.31,202.6 144.57,202.68 147.57,212.43 C 149.12,217.5 149.18,218.44 147.95,218.85 C 147.15,219.11 141.9,223.98 136.28,229.66 C 130.66,235.35 125.42,240 124.65,240 C 123.88,240 122.71,240.65 122.05,241.44 C 121.06,242.64 121.43,242.99 124.24,243.52 C 127.33,244.1 140.1,242.29 145.85,240.46 C 147.8,239.84 148.14,240.03 147.84,241.57 C 147.5,243.38 144.59,245.65 137.97,249.28 C 136.19,250.26 134.93,251.27 135.18,251.52 C 135.43,251.77 138.87,252.06 142.82,252.16 C 149.48,252.34 150,252.51 150,254.54 C 150,257.51 143.36,261.79 136.84,263.03 C 129.41,264.44 119.28,264.22 108.9,262.43 C 103.9,261.57 99.587,261.08 99.318,261.35 C 99.05,261.62 103.49,264.15 109.19,266.98 C 118.95,271.84 120.1,272.17 129.27,272.71 C 137.8,273.22 139,273.52 139,275.11 C 139,276.11 137.99,277.47 136.76,278.13 C 134.59,279.29 132.91,280.94 124.74,289.88 C 121.4,293.53 121.21,294 123.07,294 C 124.22,294 128.39,292.92 132.33,291.6 C 136.27,290.28 140.82,288.9 142.44,288.53 C 144.06,288.17 146.6,287 148.09,285.93 C 151.05,283.83 153,283.44 153,284.96 C 153,285.49 152.06,288.31 150.91,291.21 C 147.96,298.64 148.65,304.39 153.26,310.8 C 155.22,313.53 157.61,317.27 158.56,319.12 C 160.16,322.2 160.39,322.32 161.4,320.6 C 162,319.57 164.49,315.78 166.92,312.17 z "
         style="fill:#ffffff;fill-opacity:1"
         id="path3956" />
      <path
         d="M 156.03,66.025 C 154.94,64.939 153.78,62.956 153.44,61.619 C 152.8,59.062 154.39,55 156.04,55 C 157.49,55 157.19,52.872 155.48,50.976 C 154.34,49.722 154.2,48.683 154.91,46.897 C 155.44,45.579 155.9,45.182 155.94,46.016 C 156,47.493 163.22,52.775 168.4,55.139 C 170.8,56.232 175,61.905 175,64.057 C 175,64.576 174.15,65 173.12,65 C 172.09,65 169.63,65.675 167.65,66.5 C 162.72,68.56 158.38,68.383 156.03,66.025 z "
         style="fill:#000000;fill-opacity:1"
         id="path3954" />
      <path
         d="M 167,61.902 C 167,60.701 166.35,60.765 164.07,62.19 C 161.61,63.727 158.63,61.535 159.36,58.728 C 159.84,56.888 159.79,56.883 157.89,58.596 C 155.36,60.891 155.84,63.245 159.01,64.033 C 161.76,64.718 167,63.321 167,61.902 z "
         style="fill:#ffffff;fill-opacity:1"
         id="path3952" />
      <path
         d="M 164,60 C 164,59.45 163.55,59 163,59 C 162.45,59 162,59.45 162,60 C 162,60.55 162.45,61 163,61 C 163.55,61 164,60.55 164,60 z "
         style="fill:#ffffff;fill-opacity:1"
         id="path3950" />
      <path
         d="M 96.417,192.58 C 103.39,188.68 105.72,186.03 111.88,175 C 114.19,170.88 116.67,166.6 117.41,165.5 C 118.39,164.04 118.5,162.59 117.81,160.13 L 116.88,156.76 L 114.69,158.76 C 111.58,161.59 108.54,163 105.54,163 C 103.66,163 102.65,163.75 101.84,165.75 C 96.005,180.04 92.454,184.45 81.372,191.17 C 73.662,195.84 74.152,197.45 83.059,196.7 C 88.581,196.24 91.489,195.34 96.417,192.58 z "
         style="fill:#ffffff;fill-opacity:1"
         id="path3948" />
      <path
         d="M 245,195.71 C 245,195 242.58,192.96 239.63,191.17 C 228.55,184.45 225,180.04 219.16,165.75 C 218.35,163.75 217.34,163 215.46,163 C 212.46,163 209.42,161.59 206.31,158.76 L 204.12,156.76 L 203.19,160.13 C 202.5,162.59 202.61,164.04 203.59,165.5 C 204.33,166.6 206.81,170.88 209.12,175 C 215.14,185.78 217.53,188.59 223.76,192.15 C 230.07,195.76 233.52,196.75 240.25,196.9 C 243.51,196.97 245,196.6 245,195.71 z "
         style="fill:#ffffff;fill-opacity:1"
         id="path3946" />
      <path
         d="M 119.36,186.55 C 122.22,184.65 125.51,182.06 126.67,180.8 C 129.21,178.02 132.15,168.29 131.36,165.25 L 130.78,163.06 L 126.9,165.28 C 124.67,166.56 123.01,168.26 123.01,169.29 C 123,171.82 119.41,178.54 114.87,184.56 C 108.94,192.4 109.9,192.83 119.36,186.55 z "
         style="fill:#ffffff;fill-opacity:1"
         id="path3944" />
      <path
         d="M 210,190.34 C 210,189.98 208.26,187.38 206.13,184.56 C 201.59,178.54 198,171.82 197.99,169.29 C 197.99,168.26 196.33,166.56 194.1,165.28 L 190.22,163.06 L 189.64,165.25 C 188.85,168.3 191.79,178.02 194.36,180.83 C 196.58,183.26 207.91,191 209.24,191 C 209.66,191 210,190.7 210,190.34 z "
         style="fill:#ffffff;fill-opacity:1"
         id="path3942" />
      <path
         d="M 67.843,186.58 C 76.087,182.32 83.955,176.34 90.015,169.72 C 96.555,162.58 96.621,162.45 95.757,158.5 C 95.276,156.3 95.025,152.58 95.199,150.24 C 95.441,146.99 95.195,146.09 94.177,146.49 C 93.439,146.77 92.198,147 91.418,147 C 90.638,147 90,147.72 90,148.59 C 90,150.6 86.768,153.4 81,156.4 C 68.282,163 62.908,166.07 56.818,170.24 C 53.143,172.76 46.584,176.57 42.242,178.7 L 34.347,182.58 L 36.734,184.38 C 42.751,188.92 60.845,190.2 67.843,186.58 z "
         style="fill:#ffffff;fill-opacity:1"
         id="path3940" />
      <path
         d="M 276.43,187.56 C 279.48,186.77 283.02,185.32 284.31,184.35 L 286.65,182.58 L 278.76,178.7 C 274.42,176.57 267.86,172.76 264.18,170.24 C 258.09,166.07 252.72,163 240,156.4 C 234.23,153.4 231,150.6 231,148.59 C 231,147.72 230.36,147 229.58,147 C 228.8,147 227.56,146.77 226.82,146.49 C 225.8,146.09 225.56,146.99 225.8,150.24 C 225.98,152.58 225.72,156.3 225.24,158.5 C 224.38,162.45 224.45,162.58 230.99,169.72 C 236.78,176.05 244.33,181.88 252.13,186.07 C 257.88,189.17 267.92,189.78 276.43,187.56 z "
         style="fill:#ffffff;fill-opacity:1"
         id="path3938" />
      <path
         d="M 40,167.09 C 45.877,166.33 73.907,156.16 76.45,153.86 C 76.972,153.39 78.129,153 79.02,153 C 79.911,153 82.152,151.65 84,150 C 86.342,147.91 86.861,147 85.714,147 C 84.809,147 82.515,146.26 80.618,145.35 C 78,144.11 77.016,142.9 76.539,140.35 C 76.193,138.51 75.714,137 75.474,137 C 74.473,137 60.913,142.6 53.473,146.08 C 45.688,149.73 34.861,153.29 20.555,156.91 C 16.735,157.88 13.476,159.08 13.312,159.59 C 12.916,160.8 18.993,164.88 23.718,166.56 C 28.142,168.14 31.144,168.24 40,167.09 z "
         style="fill:#ffffff;fill-opacity:1"
         id="path3936" />
      <path
         d="M 297.28,166.56 C 302.01,164.88 308.08,160.8 307.69,159.59 C 307.52,159.08 304.27,157.88 300.45,156.91 C 286.14,153.29 275.31,149.73 267.53,146.08 C 260.09,142.6 246.53,137 245.53,137 C 245.29,137 244.81,138.51 244.46,140.35 C 243.98,142.9 243,144.11 240.38,145.35 C 238.48,146.26 236.19,147 235.29,147 C 234.14,147 234.66,147.91 237,150 C 238.85,151.65 241.09,153 241.98,153 C 242.87,153 244.03,153.39 244.55,153.86 C 245.07,154.33 252.03,157.32 260,160.5 C 277.95,167.66 289.11,169.48 297.28,166.56 z "
         style="fill:#ffffff;fill-opacity:1"
         id="path3934" />
      <path
         d="M 54.5,140.14 C 58.35,139.13 65.019,136.57 69.319,134.44 C 75.718,131.26 77.238,130.06 77.689,127.8 C 77.993,126.29 78.895,124.5 79.695,123.84 C 80.895,122.84 80.356,122.43 76.601,121.48 C 71.922,120.29 64.904,121.17 52.5,124.5 C 40.788,127.64 36.941,128.28 26.839,128.75 L 16.179,129.25 L 19.254,132.63 C 20.945,134.49 25.027,137.36 28.324,139 C 35.566,142.62 43.64,142.97 54.5,140.14 z "
         style="fill:#ffffff;fill-opacity:1"
         id="path3932" />
      <path
         d="M 292.68,139 C 295.97,137.36 300.05,134.49 301.75,132.63 L 304.82,129.25 L 294.16,128.75 C 284.06,128.28 280.21,127.64 268.5,124.5 C 256.1,121.17 249.08,120.29 244.4,121.48 C 240.64,122.43 240.1,122.84 241.31,123.84 C 242.1,124.5 243.01,126.29 243.31,127.8 C 243.76,130.06 245.28,131.27 251.68,134.44 C 261.66,139.39 270.64,141.8 279.59,141.91 C 285.57,141.99 287.62,141.53 292.68,139 z "
         style="fill:#ffffff;fill-opacity:1"
         id="path3930" />
      <path
         d="M 55.5,119.53 C 57.7,118.74 61.257,118.07 63.405,118.04 C 67.223,118 67.27,117.96 65.532,116.04 C 64.419,114.81 63.935,113.12 64.238,111.54 C 64.684,109.2 64.431,109 61.111,108.96 C 59.125,108.94 54.8,108.28 51.5,107.48 C 48.2,106.68 43.03,106.02 40.01,106.02 C 36.991,106.01 30.141,105.01 24.788,103.81 C 19.436,102.6 14.767,101.9 14.414,102.25 C 13.291,103.38 24.289,115.09 27.967,116.69 C 37.872,121 48.411,122.08 55.5,119.53 z "
         style="fill:#ffffff;fill-opacity:1"
         id="path3928" />
      <path
         d="M 284.5,119.6 C 287.25,118.84 291.09,117.53 293.03,116.68 C 296.71,115.09 307.71,103.38 306.59,102.25 C 306.23,101.9 301.56,102.6 296.21,103.81 C 290.86,105.01 284.01,106.01 280.99,106.02 C 277.97,106.02 272.8,106.68 269.5,107.48 C 266.2,108.28 261.87,108.94 259.89,108.96 C 256.57,109 256.32,109.2 256.76,111.54 C 257.07,113.12 256.58,114.81 255.47,116.04 C 253.73,117.96 253.78,118 257.6,118.06 C 259.74,118.09 263.07,118.71 265,119.44 C 269.7,121.21 278.38,121.28 284.5,119.6 z "
         style="fill:#ffffff;fill-opacity:1"
         id="path3926" />
      <path
         d="M 70.595,102.5 C 72.078,101.13 74.239,99.98 75.396,99.956 C 77.03,99.921 76.682,99.479 73.84,97.978 C 69.681,95.781 66,91.564 66,88.997 C 66,87.556 64.773,87.18 58.75,86.772 C 54.103,86.457 49.166,85.315 45,83.591 C 40.014,81.528 20.309,77.081 15.844,77.01 C 13.959,76.981 16.984,81.979 22.272,87.632 C 28.905,94.723 34.53,97.972 43.5,99.896 C 46.8,100.6 52.65,102.01 56.5,103.01 C 65.906,105.47 67.445,105.42 70.595,102.5 z "
         style="fill:#ffffff;fill-opacity:1"
         id="path3924" />
      <path
         d="M 263.93,103.09 C 268.09,102.04 274.2,100.6 277.5,99.894 C 286.47,97.973 292.09,94.723 298.73,87.632 C 304.02,81.979 307.04,76.981 305.16,77.01 C 300.69,77.081 280.99,81.528 276,83.591 C 271.83,85.315 266.9,86.457 262.25,86.772 C 256.23,87.18 255,87.556 255,88.997 C 255,91.564 251.32,95.781 247.16,97.978 C 244.34,99.469 243.98,99.922 245.59,99.956 C 246.74,99.98 248.77,101.08 250.09,102.39 C 253.1,105.39 254.54,105.46 263.93,103.09 z "
         style="fill:#ffffff;fill-opacity:1"
         id="path3922" />
      <path
         d="M 79,82.237 L 82.5,81.4 L 79.75,78.835 C 78.237,77.425 77,75.535 77,74.635 C 77,73.505 76.122,73 74.155,73 C 72.58,73 70.502,72.107 69.5,71 C 68.505,69.9 66.875,69 65.88,69 C 58.969,69 39.848,57.41 27.724,45.872 C 23.78,42.118 20.212,39.388 19.796,39.804 C 18.857,40.743 20.551,51.643 22.78,59 C 24.101,63.358 25.722,65.746 30.592,70.5 C 36.515,76.283 38.009,77.112 51.184,81.916 C 56.176,83.736 71.971,83.919 79,82.237 z "
         style="fill:#ffffff;fill-opacity:1"
         id="path3920" />
      <path
         d="M 275.8,79.76 C 286.96,75.435 295.69,67.345 298.22,59 C 300.45,51.643 302.14,40.743 301.2,39.804 C 300.79,39.388 297.22,42.118 293.28,45.872 C 281.15,57.41 262.03,69 255.12,69 C 254.12,69 252.5,69.9 251.5,71 C 250.5,72.107 248.42,73 246.85,73 C 244.65,73 244,73.466 244,75.031 C 244,76.149 243.31,77.327 242.47,77.649 C 241.63,77.971 240.51,79.044 239.98,80.032 C 239.13,81.633 239.7,81.935 245.26,82.81 C 255.9,84.484 266.29,83.447 275.8,79.76 z "
         style="fill:#ffffff;fill-opacity:1"
         id="path3918" />
      <path
         d="M 76.281,68.033 C 76.65,66.621 78.518,65.586 82.894,64.37 L 88.993,62.674 L 86.084,60.905 C 84.485,59.932 82.799,58.532 82.338,57.794 C 81.877,57.056 80.15,55.603 78.5,54.565 C 72.858,51.017 58.746,36.507 54.399,29.783 C 52.01,26.089 49.224,20.505 48.208,17.374 L 46.359,11.682 L 44.107,15.326 C 42.379,18.123 41.814,20.66 41.678,26.235 C 41.523,32.546 41.913,34.354 44.646,40 C 47.855,46.632 58.753,60.3 63.094,63.139 C 64.418,64.004 66.59,65.057 67.923,65.478 C 69.256,65.9 71.253,67.09 72.362,68.122 C 74.913,70.5 75.64,70.483 76.281,68.033 z "
         style="fill:#ffffff;fill-opacity:1"
         id="path3916" />
      <path
         d="M 248.64,68.122 C 249.75,67.09 251.74,65.9 253.08,65.478 C 254.41,65.057 256.58,64.004 257.91,63.139 C 262.25,60.3 273.14,46.632 276.35,40 C 279.09,34.354 279.48,32.546 279.32,26.235 C 279.19,20.66 278.62,18.123 276.89,15.326 L 274.64,11.682 L 272.79,17.374 C 271.78,20.505 268.99,26.089 266.6,29.783 C 262.25,36.507 248.14,51.017 242.5,54.565 C 240.85,55.603 239.12,57.056 238.66,57.794 C 238.2,58.532 236.52,59.932 234.92,60.905 L 232.01,62.674 L 238.11,64.37 C 242.48,65.586 244.35,66.621 244.72,68.033 C 245.36,70.483 246.09,70.5 248.64,68.122 z "
         style="fill:#ffffff;fill-opacity:1"
         id="path1932" />
    </g>
    <g
       transform="matrix(0.2696,-0.2521,0.2521,0.2696,199.83,284.38)"
       id="g5398">
      <rect
         width="320.78"
         height="338.55"
         x="0"
         y="0"
         transform="scale(0.5,0.5)"
         style="fill:#ffffff;fill-opacity:0;fill-rule:nonzero;stroke:none;stroke-opacity:1"
         id="rect5400" />
      <path
         d="M 157.19,326.07 C 155.92,322.81 153.59,318.5 152,316.5 C 147.52,310.86 145.77,305.21 146.16,297.62 C 146.35,293.98 146.37,291 146.22,291 C 146.07,291 141.85,292.35 136.84,294 C 125.52,297.73 113,298.32 113,295.12 C 113,293.99 114.16,292.76 115.91,292.04 C 117.5,291.38 121.75,287.56 125.35,283.56 L 131.89,276.28 L 124.4,275.65 C 118.52,275.15 115.06,274.13 108.21,270.87 C 103.42,268.58 98.108,265.65 96.406,264.36 C 94.704,263.06 92.844,262 92.272,262 C 91.701,262 90.997,261.1 90.709,260 C 89.906,256.93 93.18,256.65 106.06,258.69 C 112.35,259.68 120.2,260.5 123.5,260.49 C 131.79,260.48 142,258.14 142,256.25 C 142,255.04 141,254.89 136.51,255.46 C 126.95,256.65 124.52,254.53 130.13,249.91 L 133.29,247.32 L 124.89,246.72 C 110.77,245.73 109.6,244.03 119.25,238.55 C 125.18,235.18 134,227.95 134,226.46 C 134,226.08 132.99,226.42 131.75,227.2 C 130.51,227.99 125.79,230.12 121.25,231.93 C 116.71,233.74 112.99,235.51 112.97,235.86 C 112.96,236.21 111.18,237.59 109.02,238.92 C 106.86,240.25 104.96,242.27 104.8,243.41 C 104.27,247.1 101.31,246.43 98.815,242.06 C 97.25,239.32 96.014,238.18 95,238.57 C 94.175,238.88 92.263,239.39 90.75,239.7 C 88.436,240.16 88,239.91 88,238.12 C 88,236.94 89.382,234.07 91.072,231.74 L 94.143,227.5 L 91.822,226.49 C 84.459,223.28 82.803,219.63 88.092,218.26 L 91.185,217.45 L 87.342,214.98 C 84.747,213.3 83.401,211.64 83.194,209.85 L 82.887,207.21 L 95.194,206.68 C 113.6,205.9 122.14,203.87 127,199.14 C 130.4,195.83 133.85,187.55 134.26,181.71 C 134.7,175.53 133.64,173.07 132.65,177.98 C 131.83,182.1 125.48,188.11 118,191.84 C 111.95,194.87 106,195.99 106,194.11 C 106,193.62 107.57,191.03 109.49,188.36 C 113.65,182.57 120.34,170 119.63,169.3 C 119.36,169.02 117.7,171.63 115.96,175.09 C 111.59,183.74 105.63,191.37 101.75,193.29 C 90.937,198.63 86.587,200 80.629,199.92 C 73.705,199.84 67.627,198.02 67.241,195.91 C 67.092,195.1 68.782,193.65 71.222,192.5 C 79.346,188.67 86.697,183.03 90.328,177.84 C 92.331,174.98 93.7,172.38 93.368,172.07 C 93.037,171.76 92.256,172.35 91.633,173.4 C 91.01,174.44 89.375,176.32 88,177.58 C 84.473,180.8 68.967,191 67.591,191 C 66.962,191 62.749,191.46 58.229,192.03 C 50.897,192.95 49.259,192.83 43.032,190.94 C 35.589,188.68 28,183.93 28,181.53 C 28,180.7 29.599,179.64 31.75,179.06 C 36.262,177.84 48.657,171.49 50.897,169.24 C 52.368,167.77 52.294,167.7 50,168.41 C 48.625,168.84 44.35,169.63 40.5,170.18 C 26.336,172.17 15.195,169.29 11.024,162.54 C 8.2546,158.06 8.4498,156.15 11.75,155.46 C 18.264,154.1 23.862,152.64 29,150.97 C 32.025,149.98 37.2,148.36 40.5,147.35 L 46.5,145.53 L 37.898,144.92 C 32.039,144.51 27.828,143.61 24.694,142.09 C 19.773,139.71 8.644,128.54 9.2995,126.64 C 9.5372,125.95 12.233,125.48 16.097,125.45 C 19.619,125.43 26.1,125.3 30.5,125.17 L 38.5,124.93 L 33.5,123.12 C 26.098,120.44 20.51,117.39 16.371,113.75 C 12.474,110.33 9.0586,104.03 9.022,100.2 C 9.0026,98.176 9.3775,97.968 12.25,98.411 C 14.038,98.686 17.75,99.187 20.5,99.524 C 23.25,99.861 27.714,100.78 30.42,101.56 C 33.126,102.35 35.553,102.78 35.813,102.52 C 36.073,102.26 35.434,101.78 34.393,101.45 C 30.166,100.1 26.23,97.473 21.171,92.616 C 15.077,86.767 12,81.491 12,76.895 L 12,73.711 L 18.262,74.296 C 21.707,74.617 25.335,75.191 26.325,75.571 C 27.624,76.07 27.013,74.54 24.132,70.083 C 21.935,66.684 19.846,62.575 19.489,60.951 C 19.133,59.328 18.491,58 18.063,58 C 16.95,58 15.949,39.261 16.809,34.511 C 17.796,29.051 20.274,28.729 22.301,33.795 C 23.158,35.937 26.252,39.843 29.179,42.48 C 34.137,46.945 51.175,59 52.528,59 C 52.861,59 51.109,56.413 48.635,53.25 C 46.161,50.087 42.696,44.372 40.934,40.548 C 37.914,33.993 37.765,33.127 38.312,25.363 C 39.001,15.6 41.587,9.5715 45.506,8.5879 C 49.023,7.7053 49.57,8.2242 50.936,13.733 C 51.585,16.355 53.893,21.508 56.064,25.184 C 60.26,32.29 74.218,46.99 81.575,52.052 C 84.009,53.726 86,55.454 86,55.89 C 86,57.059 100.43,63.532 108.41,65.945 C 121.21,69.814 125.99,74.518 126,83.25 C 126,85.862 125.59,88 125.08,88 C 124.57,88 123.87,89.303 123.52,90.896 C 122.59,95.139 119.88,97.053 113.59,97.907 C 110.52,98.324 107.74,98.93 107.41,99.254 C 107.09,99.577 106.58,102.49 106.29,105.72 C 105.78,111.35 105.9,111.75 109.04,114.89 C 113.13,118.98 114.96,119.68 123.83,120.55 L 130.92,121.25 L 133.71,117.98 C 138.41,112.46 138.44,112.19 134.4,109.81 C 130.71,107.63 130.7,107.61 133.09,106.7 C 134.42,106.2 137.67,104.84 140.31,103.69 L 145.13,101.6 L 139.88,98.938 L 134.63,96.278 L 138.07,95.141 C 141.43,94.033 147,89.678 147,88.16 C 147,87.742 146.61,86.972 146.13,86.45 C 145.66,85.927 144.02,82.125 142.5,78 C 140.98,73.875 139.34,70.073 138.87,69.55 C 137.25,67.779 137.95,57.199 140.06,51.579 C 142.66,44.622 145.86,41.954 155.09,39.04 C 161.55,37.003 163.02,36.857 166.83,37.877 C 172.18,39.307 177.59,43.305 179.7,47.381 C 181.86,51.568 182.68,66.893 180.97,71.213 C 180.26,73.021 179.13,75.175 178.48,76 C 177.82,76.825 176.8,78.949 176.2,80.72 C 175.17,83.805 175.32,84.109 179.7,87.97 L 184.28,92 L 180.14,92 C 177.86,92 176,92.41 176,92.911 C 176,94.298 181.95,99 183.7,99 C 184.96,99 185.02,99.277 184,100.5 C 183.22,101.44 181.01,102 178.13,102.01 L 173.5,102.01 L 176.5,104 C 178.29,105.18 181.19,105.99 183.69,105.99 C 189.19,106 189.92,107.48 185.54,109.73 L 182.02,111.53 L 185.76,116.3 L 189.5,121.07 L 196.81,120.49 C 205.83,119.77 207.81,119.04 211.96,114.89 C 215.1,111.75 215.22,111.35 214.71,105.72 C 214.42,102.49 213.91,99.577 213.59,99.254 C 213.26,98.93 210.48,98.324 207.41,97.907 C 201.12,97.053 198.41,95.139 197.48,90.896 C 197.13,89.303 196.43,88 195.92,88 C 195.41,88 195,85.862 195,83.25 C 195.01,74.518 199.79,69.814 212.59,65.945 C 220.57,63.532 235,57.059 235,55.89 C 235,55.454 236.99,53.726 239.43,52.052 C 246.78,46.99 260.74,32.29 264.94,25.184 C 267.11,21.508 269.41,16.355 270.06,13.733 C 271.43,8.2242 271.98,7.7053 275.49,8.5879 C 279.41,9.5715 282,15.6 282.69,25.363 C 283.24,33.127 283.09,33.993 280.07,40.548 C 278.3,44.372 274.84,50.087 272.37,53.25 C 269.89,56.413 268.14,59 268.47,59 C 269.82,59 286.86,46.945 291.82,42.48 C 294.75,39.843 297.84,35.937 298.7,33.795 C 300.73,28.729 303.2,29.051 304.19,34.511 C 305.05,39.261 304.05,58 302.94,58 C 302.51,58 301.87,59.328 301.51,60.951 C 301.15,62.575 299.07,66.684 296.87,70.083 C 293.99,74.54 293.38,76.07 294.67,75.571 C 295.67,75.191 299.29,74.617 302.74,74.296 L 309,73.711 L 309,76.895 C 309,81.491 305.92,86.767 299.83,92.616 C 294.77,97.473 290.83,100.1 286.61,101.45 C 285.57,101.78 284.93,102.26 285.19,102.52 C 285.45,102.78 287.87,102.35 290.58,101.56 C 293.29,100.78 297.75,99.861 300.5,99.524 C 303.25,99.187 306.96,98.686 308.75,98.411 C 311.62,97.968 312,98.176 311.98,100.2 C 311.94,104.03 308.53,110.33 304.63,113.75 C 300.49,117.39 294.9,120.44 287.5,123.12 L 282.5,124.93 L 290.5,125.17 C 294.9,125.3 301.38,125.43 304.9,125.45 C 308.77,125.48 311.46,125.95 311.7,126.64 C 312.36,128.54 301.23,139.71 296.31,142.09 C 293.17,143.61 288.96,144.51 283.1,144.92 L 274.5,145.53 L 280.5,147.35 C 283.8,148.36 288.98,149.98 292,150.97 C 297.14,152.64 302.74,154.1 309.25,155.46 C 312.55,156.15 312.75,158.06 309.98,162.54 C 305.8,169.29 294.66,172.17 280.5,170.18 C 276.65,169.63 272.38,168.84 271,168.41 C 268.71,167.7 268.63,167.77 270.1,169.24 C 272.34,171.49 284.74,177.84 289.25,179.06 C 291.4,179.64 293,180.7 293,181.53 C 293,183.93 285.41,188.68 277.97,190.94 C 271.74,192.83 270.1,192.95 262.77,192.03 C 258.25,191.46 254.04,191 253.41,191 C 252.03,191 236.53,180.8 233,177.58 C 231.63,176.32 229.99,174.44 229.37,173.4 C 228.74,172.35 227.96,171.76 227.63,172.07 C 227.3,172.38 228.67,174.98 230.67,177.84 C 234.3,183.03 241.65,188.67 249.78,192.5 C 252.22,193.65 253.91,195.1 253.76,195.91 C 253.37,198.02 247.29,199.84 240.37,199.92 C 234.41,200 230.06,198.63 219.25,193.29 C 215.37,191.37 209.41,183.74 205.04,175.09 C 203.3,171.63 201.64,169.02 201.37,169.3 C 200.66,170 207.35,182.57 211.51,188.36 C 213.43,191.03 215,193.62 215,194.11 C 215,195.99 209.05,194.87 203,191.84 C 195.52,188.11 189.17,182.1 188.35,177.98 C 187.36,173.07 186.3,175.53 186.74,181.71 C 187.15,187.55 190.6,195.83 194,199.14 C 198.86,203.87 207.4,205.9 225.81,206.68 L 238.11,207.21 L 237.81,209.85 C 237.6,211.64 236.25,213.3 233.66,214.98 L 229.82,217.45 L 232.91,218.26 C 238.2,219.63 236.54,223.28 229.18,226.49 L 226.86,227.5 L 229.93,231.74 C 231.62,234.07 233,236.94 233,238.12 C 233,239.91 232.56,240.16 230.25,239.7 C 228.74,239.39 226.82,238.88 226,238.57 C 224.99,238.18 223.75,239.32 222.19,242.06 C 219.69,246.43 216.73,247.1 216.2,243.41 C 216.04,242.27 214.14,240.25 211.98,238.92 C 209.82,237.59 208.04,236.21 208.03,235.86 C 208.01,235.51 204.29,233.74 199.75,231.93 C 195.21,230.12 190.49,227.99 189.25,227.2 C 188.01,226.42 187,226.08 187,226.46 C 187,227.95 195.82,235.18 201.75,238.55 C 211.4,244.03 210.23,245.73 196.11,246.72 L 187.71,247.32 L 190.87,249.91 C 196.48,254.53 194.05,256.65 184.49,255.46 C 180,254.89 179,255.04 179,256.25 C 179,258.14 189.21,260.48 197.5,260.49 C 200.8,260.5 208.65,259.68 214.94,258.69 C 227.82,256.65 231.09,256.93 230.29,260 C 230,261.1 229.3,262 228.73,262 C 228.16,262 226.3,263.06 224.59,264.36 C 222.89,265.65 217.58,268.58 212.79,270.87 C 205.94,274.13 202.48,275.15 196.6,275.65 L 189.11,276.28 L 195.65,283.56 C 199.25,287.56 203.5,291.38 205.1,292.04 C 206.84,292.76 208,293.99 208,295.12 C 208,298.32 195.48,297.73 184.16,294 C 179.15,292.35 174.93,291 174.78,291 C 174.63,291 174.65,293.98 174.84,297.62 C 175.23,305.23 173.48,310.86 168.95,316.56 C 167.33,318.6 165.05,322.9 163.87,326.13 C 162.7,329.36 161.23,332 160.61,332 C 159.99,332 158.45,329.33 157.19,326.07 z "
         style="fill:#000000;fill-opacity:1"
         id="path5402" />
      <path
         d="M 166.92,312.17 C 172.39,304.03 173.16,298.95 170.09,291.21 C 168.94,288.31 168,285.49 168,284.96 C 168,283.44 169.95,283.83 172.91,285.93 C 174.4,287 176.94,288.17 178.56,288.53 C 180.18,288.9 184.73,290.28 188.67,291.6 C 192.61,292.92 196.78,294 197.93,294 C 199.79,294 199.6,293.53 196.26,289.88 C 188.09,280.94 186.41,279.29 184.24,278.13 C 183.01,277.47 182,276.11 182,275.11 C 182,273.52 183.2,273.22 191.73,272.71 C 200.9,272.17 202.05,271.84 211.81,266.98 C 217.51,264.15 221.95,261.62 221.69,261.35 C 221.42,261.09 216.77,261.63 211.35,262.56 C 199.64,264.56 184.12,264.1 178.82,261.59 C 176.95,260.7 173.69,258.55 171.58,256.81 C 168.21,254.03 167.97,253.56 169.62,252.99 C 170.65,252.64 174.63,252.25 178.46,252.13 C 182.29,252.01 185.61,251.72 185.84,251.49 C 186.08,251.25 184.81,250.26 183.03,249.28 C 176.41,245.65 173.5,243.38 173.16,241.57 C 172.86,240.03 173.2,239.84 175.15,240.46 C 180.9,242.29 193.67,244.1 196.76,243.52 C 199.57,242.99 199.94,242.64 198.95,241.44 C 198.29,240.65 197.12,240 196.35,240 C 195.58,240 191.07,236.08 186.32,231.29 C 181.57,226.5 176.11,221.74 174.19,220.7 C 170.17,218.55 168,216.59 168,215.12 C 168,214.56 169.57,211.49 171.5,208.3 C 175.18,202.19 176.01,202.89 173.5,210 C 172.68,212.34 172.01,214.53 172.02,214.88 C 172.03,215.55 175.56,217.24 192,224.5 C 204.31,229.93 209.75,232.51 212.49,234.24 C 215,235.84 218,239.05 218,240.15 C 218,240.62 218.43,241 218.95,241 C 219.48,241 220.21,239.4 220.58,237.45 C 221.19,234.15 221.45,233.94 224.12,234.53 C 227.32,235.23 227.74,234.48 225.51,232.01 C 224.69,231.11 223.74,228.94 223.39,227.18 C 222.87,224.61 223.07,224 224.44,224 C 225.37,224 227.07,223.5 228.23,222.88 C 230.25,221.8 230.21,221.71 227.16,220.43 C 222.43,218.44 223.14,215.95 229.29,213 L 234.5,210.5 L 223,209.89 C 211.04,209.25 202.63,207.98 197.5,206.02 C 195.85,205.39 191.46,201.79 187.75,198.01 C 181.11,191.27 181,191.06 181.01,185.83 C 181.02,182.9 181.74,178.47 182.62,176 C 184.8,169.82 187,161.29 187,159.03 C 187,158.01 187.48,157.01 188.07,156.81 C 189.54,156.32 190.95,143.94 190.28,137.39 C 189.59,130.77 191.39,130.04 193.07,136.25 C 193.89,139.28 193.95,143.09 193.27,149.5 C 192.46,157.04 192.55,158.78 193.81,160.25 C 195.42,162.12 198.52,162.59 199.44,161.09 C 200.32,159.67 200.36,155.85 199.53,151.75 C 198.52,146.75 199.98,146.88 205.29,152.3 C 211.16,158.29 213.93,160 217.75,160 C 220.4,160 221.25,159.48 222.06,157.34 C 223.42,153.78 221.54,144.8 218.95,142.46 C 217.88,141.49 217,140.08 217,139.35 C 217,137.37 220.06,137.71 222.44,139.94 C 223.57,141 226.53,142.41 229,143.07 C 235.45,144.78 240.47,142.62 241.38,137.76 C 242.41,132.29 238.6,124.96 233.25,122.12 C 228.85,119.79 230.58,118.38 237.79,118.44 C 242.67,118.48 245.34,118 247.28,116.74 C 253.78,112.48 250.79,105.34 241.24,102.31 C 234.04,100.03 233.04,97.526 239.01,96.725 C 243.15,96.171 249.56,92.552 250.44,90.279 C 251.4,87.819 247.97,86.167 240.44,85.462 C 230.91,84.569 230.23,83.307 236.38,77.893 C 241.9,73.038 242.55,69.565 238.25,67.856 C 234.24,66.26 221.85,66.526 216.83,68.316 C 214.45,69.166 211.35,70.104 209.95,70.4 C 208.54,70.697 205.73,72.36 203.7,74.097 C 200.2,77.082 200,77.58 200,83.204 C 200,88.447 200.35,89.501 202.92,92.077 C 205.25,94.399 206.74,95.003 210.17,95.015 C 216.6,95.038 217.22,95.796 217.77,104.32 C 218.32,112.93 217.6,117 215.52,117 C 214.72,117 213.61,117.86 213.04,118.92 C 211.82,121.21 207.64,122.65 199.5,123.57 C 196.2,123.94 192.92,124.71 192.22,125.27 C 190.08,126.98 186.16,124.09 181.23,117.18 C 177.66,112.18 176.98,110.63 178.07,109.96 C 179.16,109.29 179.03,108.97 177.47,108.46 C 171.61,106.53 170.14,105.64 169.61,103.67 C 168.36,98.998 168.68,98.684 174.12,99.328 L 179.24,99.934 L 175.62,96.419 C 171.5,92.421 170.96,90 174.19,90 C 176.29,90 176.26,89.879 173.51,87.012 C 170.34,83.697 170.16,84.731 175.85,73 C 179.81,64.828 180.01,58.71 176.55,51.284 C 172.43,42.434 163.57,39.94 152.57,44.535 C 148.29,46.324 143,51.589 143,54.063 C 143,55.112 142.5,57.89 141.88,60.236 C 140.83,64.258 141,65.011 144.95,73.5 C 147.26,78.45 149.75,83.829 150.5,85.453 C 152.08,88.897 151.4,90.647 147.06,94.298 C 143.86,96.989 144.53,98 149.52,98 C 150.82,98 152.13,98.409 152.44,98.91 C 153.68,100.91 151.54,102.98 145.48,105.62 C 139.35,108.29 138.01,110 142.06,110 C 143.13,110 144,110.28 144,110.63 C 144,111.91 136.69,121.39 133.89,123.75 C 132.3,125.08 131,127.01 131,128.03 C 131,131.34 129.14,131.13 128.81,127.78 L 128.5,124.53 L 120.5,123.36 C 110.98,121.98 109.27,121.37 107.94,118.88 C 107.38,117.85 106.28,117 105.48,117 C 103.4,117 102.68,112.93 103.23,104.32 C 103.78,95.796 104.4,95.038 110.83,95.015 C 114.26,95.003 115.75,94.399 118.08,92.077 C 120.65,89.501 121,88.447 121,83.204 C 121,77.58 120.8,77.082 117.3,74.097 C 115.27,72.36 112.46,70.697 111.05,70.4 C 109.65,70.104 106.55,69.166 104.17,68.316 C 99.147,66.526 86.761,66.26 82.75,67.856 C 78.455,69.565 79.1,73.038 84.616,77.893 C 90.766,83.307 90.09,84.569 80.564,85.462 C 73.035,86.167 69.605,87.819 70.558,90.279 C 71.439,92.552 77.855,96.171 81.986,96.725 C 87.955,97.526 86.959,100.03 79.764,102.31 C 70.208,105.34 67.219,112.48 73.723,116.74 C 75.655,118 78.329,118.48 83.207,118.44 C 90.416,118.38 92.152,119.79 87.75,122.12 C 82.4,124.96 78.588,132.29 79.616,137.76 C 80.527,142.62 85.551,144.78 92,143.07 C 94.475,142.41 97.429,141 98.564,139.94 C 100.94,137.71 104,137.37 104,139.35 C 104,140.08 103.12,141.49 102.05,142.46 C 99.462,144.8 97.585,153.78 98.938,157.34 C 99.752,159.48 100.6,160 103.25,160 C 107.07,160 109.84,158.29 115.71,152.3 C 121.02,146.88 122.48,146.75 121.47,151.75 C 120.07,158.66 120.87,162 123.9,162 C 127.72,162 128.83,159.05 127.84,151.5 C 126.62,142.2 127.6,132 129.72,132 C 131.01,132 131.18,132.94 130.72,137.39 C 130.05,143.94 131.46,156.32 132.93,156.81 C 133.52,157.01 134,158.01 134,159.03 C 134,161.29 136.2,169.82 138.38,176 C 139.26,178.47 139.98,182.9 139.99,185.83 C 140,191.06 139.89,191.27 133.25,198.01 C 129.54,201.79 125.15,205.39 123.5,206.02 C 118.37,207.98 109.96,209.25 98,209.89 L 86.5,210.5 L 91.709,213 C 97.861,215.95 98.573,218.44 93.838,220.43 C 90.792,221.71 90.752,221.8 92.772,222.88 C 93.925,223.5 95.629,224 96.559,224 C 97.926,224 98.128,224.61 97.613,227.18 C 97.263,228.94 96.307,231.11 95.488,232.01 C 93.259,234.48 93.676,235.23 96.879,234.53 C 99.552,233.94 99.805,234.15 100.42,237.45 C 100.79,239.4 101.52,241 102.05,241 C 102.57,241 103,240.62 103,240.15 C 103,239.05 106,235.84 108.51,234.24 C 112.58,231.68 136.75,220.68 141,219.47 C 145.28,218.25 145.75,217.38 144.9,212.26 C 143.31,202.6 144.57,202.68 147.57,212.43 C 149.12,217.5 149.18,218.44 147.95,218.85 C 147.15,219.11 141.9,223.98 136.28,229.66 C 130.66,235.35 125.42,240 124.65,240 C 123.88,240 122.71,240.65 122.05,241.44 C 121.06,242.64 121.43,242.99 124.24,243.52 C 127.33,244.1 140.1,242.29 145.85,240.46 C 147.8,239.84 148.14,240.03 147.84,241.57 C 147.5,243.38 144.59,245.65 137.97,249.28 C 136.19,250.26 134.93,251.27 135.18,251.52 C 135.43,251.77 138.87,252.06 142.82,252.16 C 149.48,252.34 150,252.51 150,254.54 C 150,257.51 143.36,261.79 136.84,263.03 C 129.41,264.44 119.28,264.22 108.9,262.43 C 103.9,261.57 99.587,261.08 99.318,261.35 C 99.05,261.62 103.49,264.15 109.19,266.98 C 118.95,271.84 120.1,272.17 129.27,272.71 C 137.8,273.22 139,273.52 139,275.11 C 139,276.11 137.99,277.47 136.76,278.13 C 134.59,279.29 132.91,280.94 124.74,289.88 C 121.4,293.53 121.21,294 123.07,294 C 124.22,294 128.39,292.92 132.33,291.6 C 136.27,290.28 140.82,288.9 142.44,288.53 C 144.06,288.17 146.6,287 148.09,285.93 C 151.05,283.83 153,283.44 153,284.96 C 153,285.49 152.06,288.31 150.91,291.21 C 147.96,298.64 148.65,304.39 153.26,310.8 C 155.22,313.53 157.61,317.27 158.56,319.12 C 160.16,322.2 160.39,322.32 161.4,320.6 C 162,319.57 164.49,315.78 166.92,312.17 z "
         style="fill:#ffffff;fill-opacity:1"
         id="path5404" />
      <path
         d="M 156.03,66.025 C 154.94,64.939 153.78,62.956 153.44,61.619 C 152.8,59.062 154.39,55 156.04,55 C 157.49,55 157.19,52.872 155.48,50.976 C 154.34,49.722 154.2,48.683 154.91,46.897 C 155.44,45.579 155.9,45.182 155.94,46.016 C 156,47.493 163.22,52.775 168.4,55.139 C 170.8,56.232 175,61.905 175,64.057 C 175,64.576 174.15,65 173.12,65 C 172.09,65 169.63,65.675 167.65,66.5 C 162.72,68.56 158.38,68.383 156.03,66.025 z "
         style="fill:#000000;fill-opacity:1"
         id="path5406" />
      <path
         d="M 167,61.902 C 167,60.701 166.35,60.765 164.07,62.19 C 161.61,63.727 158.63,61.535 159.36,58.728 C 159.84,56.888 159.79,56.883 157.89,58.596 C 155.36,60.891 155.84,63.245 159.01,64.033 C 161.76,64.718 167,63.321 167,61.902 z "
         style="fill:#ffffff;fill-opacity:1"
         id="path5408" />
      <path
         d="M 164,60 C 164,59.45 163.55,59 163,59 C 162.45,59 162,59.45 162,60 C 162,60.55 162.45,61 163,61 C 163.55,61 164,60.55 164,60 z "
         style="fill:#ffffff;fill-opacity:1"
         id="path5410" />
      <path
         d="M 96.417,192.58 C 103.39,188.68 105.72,186.03 111.88,175 C 114.19,170.88 116.67,166.6 117.41,165.5 C 118.39,164.04 118.5,162.59 117.81,160.13 L 116.88,156.76 L 114.69,158.76 C 111.58,161.59 108.54,163 105.54,163 C 103.66,163 102.65,163.75 101.84,165.75 C 96.005,180.04 92.454,184.45 81.372,191.17 C 73.662,195.84 74.152,197.45 83.059,196.7 C 88.581,196.24 91.489,195.34 96.417,192.58 z "
         style="fill:#ffffff;fill-opacity:1"
         id="path5412" />
      <path
         d="M 245,195.71 C 245,195 242.58,192.96 239.63,191.17 C 228.55,184.45 225,180.04 219.16,165.75 C 218.35,163.75 217.34,163 215.46,163 C 212.46,163 209.42,161.59 206.31,158.76 L 204.12,156.76 L 203.19,160.13 C 202.5,162.59 202.61,164.04 203.59,165.5 C 204.33,166.6 206.81,170.88 209.12,175 C 215.14,185.78 217.53,188.59 223.76,192.15 C 230.07,195.76 233.52,196.75 240.25,196.9 C 243.51,196.97 245,196.6 245,195.71 z "
         style="fill:#ffffff;fill-opacity:1"
         id="path5414" />
      <path
         d="M 119.36,186.55 C 122.22,184.65 125.51,182.06 126.67,180.8 C 129.21,178.02 132.15,168.29 131.36,165.25 L 130.78,163.06 L 126.9,165.28 C 124.67,166.56 123.01,168.26 123.01,169.29 C 123,171.82 119.41,178.54 114.87,184.56 C 108.94,192.4 109.9,192.83 119.36,186.55 z "
         style="fill:#ffffff;fill-opacity:1"
         id="path5416" />
      <path
         d="M 210,190.34 C 210,189.98 208.26,187.38 206.13,184.56 C 201.59,178.54 198,171.82 197.99,169.29 C 197.99,168.26 196.33,166.56 194.1,165.28 L 190.22,163.06 L 189.64,165.25 C 188.85,168.3 191.79,178.02 194.36,180.83 C 196.58,183.26 207.91,191 209.24,191 C 209.66,191 210,190.7 210,190.34 z "
         style="fill:#ffffff;fill-opacity:1"
         id="path5418" />
      <path
         d="M 67.843,186.58 C 76.087,182.32 83.955,176.34 90.015,169.72 C 96.555,162.58 96.621,162.45 95.757,158.5 C 95.276,156.3 95.025,152.58 95.199,150.24 C 95.441,146.99 95.195,146.09 94.177,146.49 C 93.439,146.77 92.198,147 91.418,147 C 90.638,147 90,147.72 90,148.59 C 90,150.6 86.768,153.4 81,156.4 C 68.282,163 62.908,166.07 56.818,170.24 C 53.143,172.76 46.584,176.57 42.242,178.7 L 34.347,182.58 L 36.734,184.38 C 42.751,188.92 60.845,190.2 67.843,186.58 z "
         style="fill:#ffffff;fill-opacity:1"
         id="path5420" />
      <path
         d="M 276.43,187.56 C 279.48,186.77 283.02,185.32 284.31,184.35 L 286.65,182.58 L 278.76,178.7 C 274.42,176.57 267.86,172.76 264.18,170.24 C 258.09,166.07 252.72,163 240,156.4 C 234.23,153.4 231,150.6 231,148.59 C 231,147.72 230.36,147 229.58,147 C 228.8,147 227.56,146.77 226.82,146.49 C 225.8,146.09 225.56,146.99 225.8,150.24 C 225.98,152.58 225.72,156.3 225.24,158.5 C 224.38,162.45 224.45,162.58 230.99,169.72 C 236.78,176.05 244.33,181.88 252.13,186.07 C 257.88,189.17 267.92,189.78 276.43,187.56 z "
         style="fill:#ffffff;fill-opacity:1"
         id="path5422" />
      <path
         d="M 40,167.09 C 45.877,166.33 73.907,156.16 76.45,153.86 C 76.972,153.39 78.129,153 79.02,153 C 79.911,153 82.152,151.65 84,150 C 86.342,147.91 86.861,147 85.714,147 C 84.809,147 82.515,146.26 80.618,145.35 C 78,144.11 77.016,142.9 76.539,140.35 C 76.193,138.51 75.714,137 75.474,137 C 74.473,137 60.913,142.6 53.473,146.08 C 45.688,149.73 34.861,153.29 20.555,156.91 C 16.735,157.88 13.476,159.08 13.312,159.59 C 12.916,160.8 18.993,164.88 23.718,166.56 C 28.142,168.14 31.144,168.24 40,167.09 z "
         style="fill:#ffffff;fill-opacity:1"
         id="path5424" />
      <path
         d="M 297.28,166.56 C 302.01,164.88 308.08,160.8 307.69,159.59 C 307.52,159.08 304.27,157.88 300.45,156.91 C 286.14,153.29 275.31,149.73 267.53,146.08 C 260.09,142.6 246.53,137 245.53,137 C 245.29,137 244.81,138.51 244.46,140.35 C 243.98,142.9 243,144.11 240.38,145.35 C 238.48,146.26 236.19,147 235.29,147 C 234.14,147 234.66,147.91 237,150 C 238.85,151.65 241.09,153 241.98,153 C 242.87,153 244.03,153.39 244.55,153.86 C 245.07,154.33 252.03,157.32 260,160.5 C 277.95,167.66 289.11,169.48 297.28,166.56 z "
         style="fill:#ffffff;fill-opacity:1"
         id="path5426" />
      <path
         d="M 54.5,140.14 C 58.35,139.13 65.019,136.57 69.319,134.44 C 75.718,131.26 77.238,130.06 77.689,127.8 C 77.993,126.29 78.895,124.5 79.695,123.84 C 80.895,122.84 80.356,122.43 76.601,121.48 C 71.922,120.29 64.904,121.17 52.5,124.5 C 40.788,127.64 36.941,128.28 26.839,128.75 L 16.179,129.25 L 19.254,132.63 C 20.945,134.49 25.027,137.36 28.324,139 C 35.566,142.62 43.64,142.97 54.5,140.14 z "
         style="fill:#ffffff;fill-opacity:1"
         id="path5428" />
      <path
         d="M 292.68,139 C 295.97,137.36 300.05,134.49 301.75,132.63 L 304.82,129.25 L 294.16,128.75 C 284.06,128.28 280.21,127.64 268.5,124.5 C 256.1,121.17 249.08,120.29 244.4,121.48 C 240.64,122.43 240.1,122.84 241.31,123.84 C 242.1,124.5 243.01,126.29 243.31,127.8 C 243.76,130.06 245.28,131.27 251.68,134.44 C 261.66,139.39 270.64,141.8 279.59,141.91 C 285.57,141.99 287.62,141.53 292.68,139 z "
         style="fill:#ffffff;fill-opacity:1"
         id="path5430" />
      <path
         d="M 55.5,119.53 C 57.7,118.74 61.257,118.07 63.405,118.04 C 67.223,118 67.27,117.96 65.532,116.04 C 64.419,114.81 63.935,113.12 64.238,111.54 C 64.684,109.2 64.431,109 61.111,108.96 C 59.125,108.94 54.8,108.28 51.5,107.48 C 48.2,106.68 43.03,106.02 40.01,106.02 C 36.991,106.01 30.141,105.01 24.788,103.81 C 19.436,102.6 14.767,101.9 14.414,102.25 C 13.291,103.38 24.289,115.09 27.967,116.69 C 37.872,121 48.411,122.08 55.5,119.53 z "
         style="fill:#ffffff;fill-opacity:1"
         id="path5432" />
      <path
         d="M 284.5,119.6 C 287.25,118.84 291.09,117.53 293.03,116.68 C 296.71,115.09 307.71,103.38 306.59,102.25 C 306.23,101.9 301.56,102.6 296.21,103.81 C 290.86,105.01 284.01,106.01 280.99,106.02 C 277.97,106.02 272.8,106.68 269.5,107.48 C 266.2,108.28 261.87,108.94 259.89,108.96 C 256.57,109 256.32,109.2 256.76,111.54 C 257.07,113.12 256.58,114.81 255.47,116.04 C 253.73,117.96 253.78,118 257.6,118.06 C 259.74,118.09 263.07,118.71 265,119.44 C 269.7,121.21 278.38,121.28 284.5,119.6 z "
         style="fill:#ffffff;fill-opacity:1"
         id="path5434" />
      <path
         d="M 70.595,102.5 C 72.078,101.13 74.239,99.98 75.396,99.956 C 77.03,99.921 76.682,99.479 73.84,97.978 C 69.681,95.781 66,91.564 66,88.997 C 66,87.556 64.773,87.18 58.75,86.772 C 54.103,86.457 49.166,85.315 45,83.591 C 40.014,81.528 20.309,77.081 15.844,77.01 C 13.959,76.981 16.984,81.979 22.272,87.632 C 28.905,94.723 34.53,97.972 43.5,99.896 C 46.8,100.6 52.65,102.01 56.5,103.01 C 65.906,105.47 67.445,105.42 70.595,102.5 z "
         style="fill:#ffffff;fill-opacity:1"
         id="path5436" />
      <path
         d="M 263.93,103.09 C 268.09,102.04 274.2,100.6 277.5,99.894 C 286.47,97.973 292.09,94.723 298.73,87.632 C 304.02,81.979 307.04,76.981 305.16,77.01 C 300.69,77.081 280.99,81.528 276,83.591 C 271.83,85.315 266.9,86.457 262.25,86.772 C 256.23,87.18 255,87.556 255,88.997 C 255,91.564 251.32,95.781 247.16,97.978 C 244.34,99.469 243.98,99.922 245.59,99.956 C 246.74,99.98 248.77,101.08 250.09,102.39 C 253.1,105.39 254.54,105.46 263.93,103.09 z "
         style="fill:#ffffff;fill-opacity:1"
         id="path5438" />
      <path
         d="M 79,82.237 L 82.5,81.4 L 79.75,78.835 C 78.237,77.425 77,75.535 77,74.635 C 77,73.505 76.122,73 74.155,73 C 72.58,73 70.502,72.107 69.5,71 C 68.505,69.9 66.875,69 65.88,69 C 58.969,69 39.848,57.41 27.724,45.872 C 23.78,42.118 20.212,39.388 19.796,39.804 C 18.857,40.743 20.551,51.643 22.78,59 C 24.101,63.358 25.722,65.746 30.592,70.5 C 36.515,76.283 38.009,77.112 51.184,81.916 C 56.176,83.736 71.971,83.919 79,82.237 z "
         style="fill:#ffffff;fill-opacity:1"
         id="path5440" />
      <path
         d="M 275.8,79.76 C 286.96,75.435 295.69,67.345 298.22,59 C 300.45,51.643 302.14,40.743 301.2,39.804 C 300.79,39.388 297.22,42.118 293.28,45.872 C 281.15,57.41 262.03,69 255.12,69 C 254.12,69 252.5,69.9 251.5,71 C 250.5,72.107 248.42,73 246.85,73 C 244.65,73 244,73.466 244,75.031 C 244,76.149 243.31,77.327 242.47,77.649 C 241.63,77.971 240.51,79.044 239.98,80.032 C 239.13,81.633 239.7,81.935 245.26,82.81 C 255.9,84.484 266.29,83.447 275.8,79.76 z "
         style="fill:#ffffff;fill-opacity:1"
         id="path5442" />
      <path
         d="M 76.281,68.033 C 76.65,66.621 78.518,65.586 82.894,64.37 L 88.993,62.674 L 86.084,60.905 C 84.485,59.932 82.799,58.532 82.338,57.794 C 81.877,57.056 80.15,55.603 78.5,54.565 C 72.858,51.017 58.746,36.507 54.399,29.783 C 52.01,26.089 49.224,20.505 48.208,17.374 L 46.359,11.682 L 44.107,15.326 C 42.379,18.123 41.814,20.66 41.678,26.235 C 41.523,32.546 41.913,34.354 44.646,40 C 47.855,46.632 58.753,60.3 63.094,63.139 C 64.418,64.004 66.59,65.057 67.923,65.478 C 69.256,65.9 71.253,67.09 72.362,68.122 C 74.913,70.5 75.64,70.483 76.281,68.033 z "
         style="fill:#ffffff;fill-opacity:1"
         id="path5444" />
      <path
         d="M 248.64,68.122 C 249.75,67.09 251.74,65.9 253.08,65.478 C 254.41,65.057 256.58,64.004 257.91,63.139 C 262.25,60.3 273.14,46.632 276.35,40 C 279.09,34.354 279.48,32.546 279.32,26.235 C 279.19,20.66 278.62,18.123 276.89,15.326 L 274.64,11.682 L 272.79,17.374 C 271.78,20.505 268.99,26.089 266.6,29.783 C 262.25,36.507 248.14,51.017 242.5,54.565 C 240.85,55.603 239.12,57.056 238.66,57.794 C 238.2,58.532 236.52,59.932 234.92,60.905 L 232.01,62.674 L 238.11,64.37 C 242.48,65.586 244.35,66.621 244.72,68.033 C 245.36,70.483 246.09,70.5 248.64,68.122 z "
         style="fill:#ffffff;fill-opacity:1"
         id="path5446" />
    </g>
    <g
       transform="matrix(0.2696,-0.2521,0.2521,0.2696,51.757,135.25)"
       id="g5448">
      <rect
         width="320.78"
         height="338.55"
         x="0"
         y="0"
         transform="scale(0.5,0.5)"
         style="fill:#ffffff;fill-opacity:0;fill-rule:nonzero;stroke:none;stroke-opacity:1"
         id="rect5450" />
      <path
         d="M 157.19,326.07 C 155.92,322.81 153.59,318.5 152,316.5 C 147.52,310.86 145.77,305.21 146.16,297.62 C 146.35,293.98 146.37,291 146.22,291 C 146.07,291 141.85,292.35 136.84,294 C 125.52,297.73 113,298.32 113,295.12 C 113,293.99 114.16,292.76 115.91,292.04 C 117.5,291.38 121.75,287.56 125.35,283.56 L 131.89,276.28 L 124.4,275.65 C 118.52,275.15 115.06,274.13 108.21,270.87 C 103.42,268.58 98.108,265.65 96.406,264.36 C 94.704,263.06 92.844,262 92.272,262 C 91.701,262 90.997,261.1 90.709,260 C 89.906,256.93 93.18,256.65 106.06,258.69 C 112.35,259.68 120.2,260.5 123.5,260.49 C 131.79,260.48 142,258.14 142,256.25 C 142,255.04 141,254.89 136.51,255.46 C 126.95,256.65 124.52,254.53 130.13,249.91 L 133.29,247.32 L 124.89,246.72 C 110.77,245.73 109.6,244.03 119.25,238.55 C 125.18,235.18 134,227.95 134,226.46 C 134,226.08 132.99,226.42 131.75,227.2 C 130.51,227.99 125.79,230.12 121.25,231.93 C 116.71,233.74 112.99,235.51 112.97,235.86 C 112.96,236.21 111.18,237.59 109.02,238.92 C 106.86,240.25 104.96,242.27 104.8,243.41 C 104.27,247.1 101.31,246.43 98.815,242.06 C 97.25,239.32 96.014,238.18 95,238.57 C 94.175,238.88 92.263,239.39 90.75,239.7 C 88.436,240.16 88,239.91 88,238.12 C 88,236.94 89.382,234.07 91.072,231.74 L 94.143,227.5 L 91.822,226.49 C 84.459,223.28 82.803,219.63 88.092,218.26 L 91.185,217.45 L 87.342,214.98 C 84.747,213.3 83.401,211.64 83.194,209.85 L 82.887,207.21 L 95.194,206.68 C 113.6,205.9 122.14,203.87 127,199.14 C 130.4,195.83 133.85,187.55 134.26,181.71 C 134.7,175.53 133.64,173.07 132.65,177.98 C 131.83,182.1 125.48,188.11 118,191.84 C 111.95,194.87 106,195.99 106,194.11 C 106,193.62 107.57,191.03 109.49,188.36 C 113.65,182.57 120.34,170 119.63,169.3 C 119.36,169.02 117.7,171.63 115.96,175.09 C 111.59,183.74 105.63,191.37 101.75,193.29 C 90.937,198.63 86.587,200 80.629,199.92 C 73.705,199.84 67.627,198.02 67.241,195.91 C 67.092,195.1 68.782,193.65 71.222,192.5 C 79.346,188.67 86.697,183.03 90.328,177.84 C 92.331,174.98 93.7,172.38 93.368,172.07 C 93.037,171.76 92.256,172.35 91.633,173.4 C 91.01,174.44 89.375,176.32 88,177.58 C 84.473,180.8 68.967,191 67.591,191 C 66.962,191 62.749,191.46 58.229,192.03 C 50.897,192.95 49.259,192.83 43.032,190.94 C 35.589,188.68 28,183.93 28,181.53 C 28,180.7 29.599,179.64 31.75,179.06 C 36.262,177.84 48.657,171.49 50.897,169.24 C 52.368,167.77 52.294,167.7 50,168.41 C 48.625,168.84 44.35,169.63 40.5,170.18 C 26.336,172.17 15.195,169.29 11.024,162.54 C 8.2546,158.06 8.4498,156.15 11.75,155.46 C 18.264,154.1 23.862,152.64 29,150.97 C 32.025,149.98 37.2,148.36 40.5,147.35 L 46.5,145.53 L 37.898,144.92 C 32.039,144.51 27.828,143.61 24.694,142.09 C 19.773,139.71 8.644,128.54 9.2995,126.64 C 9.5372,125.95 12.233,125.48 16.097,125.45 C 19.619,125.43 26.1,125.3 30.5,125.17 L 38.5,124.93 L 33.5,123.12 C 26.098,120.44 20.51,117.39 16.371,113.75 C 12.474,110.33 9.0586,104.03 9.022,100.2 C 9.0026,98.176 9.3775,97.968 12.25,98.411 C 14.038,98.686 17.75,99.187 20.5,99.524 C 23.25,99.861 27.714,100.78 30.42,101.56 C 33.126,102.35 35.553,102.78 35.813,102.52 C 36.073,102.26 35.434,101.78 34.393,101.45 C 30.166,100.1 26.23,97.473 21.171,92.616 C 15.077,86.767 12,81.491 12,76.895 L 12,73.711 L 18.262,74.296 C 21.707,74.617 25.335,75.191 26.325,75.571 C 27.624,76.07 27.013,74.54 24.132,70.083 C 21.935,66.684 19.846,62.575 19.489,60.951 C 19.133,59.328 18.491,58 18.063,58 C 16.95,58 15.949,39.261 16.809,34.511 C 17.796,29.051 20.274,28.729 22.301,33.795 C 23.158,35.937 26.252,39.843 29.179,42.48 C 34.137,46.945 51.175,59 52.528,59 C 52.861,59 51.109,56.413 48.635,53.25 C 46.161,50.087 42.696,44.372 40.934,40.548 C 37.914,33.993 37.765,33.127 38.312,25.363 C 39.001,15.6 41.587,9.5715 45.506,8.5879 C 49.023,7.7053 49.57,8.2242 50.936,13.733 C 51.585,16.355 53.893,21.508 56.064,25.184 C 60.26,32.29 74.218,46.99 81.575,52.052 C 84.009,53.726 86,55.454 86,55.89 C 86,57.059 100.43,63.532 108.41,65.945 C 121.21,69.814 125.99,74.518 126,83.25 C 126,85.862 125.59,88 125.08,88 C 124.57,88 123.87,89.303 123.52,90.896 C 122.59,95.139 119.88,97.053 113.59,97.907 C 110.52,98.324 107.74,98.93 107.41,99.254 C 107.09,99.577 106.58,102.49 106.29,105.72 C 105.78,111.35 105.9,111.75 109.04,114.89 C 113.13,118.98 114.96,119.68 123.83,120.55 L 130.92,121.25 L 133.71,117.98 C 138.41,112.46 138.44,112.19 134.4,109.81 C 130.71,107.63 130.7,107.61 133.09,106.7 C 134.42,106.2 137.67,104.84 140.31,103.69 L 145.13,101.6 L 139.88,98.938 L 134.63,96.278 L 138.07,95.141 C 141.43,94.033 147,89.678 147,88.16 C 147,87.742 146.61,86.972 146.13,86.45 C 145.66,85.927 144.02,82.125 142.5,78 C 140.98,73.875 139.34,70.073 138.87,69.55 C 137.25,67.779 137.95,57.199 140.06,51.579 C 142.66,44.622 145.86,41.954 155.09,39.04 C 161.55,37.003 163.02,36.857 166.83,37.877 C 172.18,39.307 177.59,43.305 179.7,47.381 C 181.86,51.568 182.68,66.893 180.97,71.213 C 180.26,73.021 179.13,75.175 178.48,76 C 177.82,76.825 176.8,78.949 176.2,80.72 C 175.17,83.805 175.32,84.109 179.7,87.97 L 184.28,92 L 180.14,92 C 177.86,92 176,92.41 176,92.911 C 176,94.298 181.95,99 183.7,99 C 184.96,99 185.02,99.277 184,100.5 C 183.22,101.44 181.01,102 178.13,102.01 L 173.5,102.01 L 176.5,104 C 178.29,105.18 181.19,105.99 183.69,105.99 C 189.19,106 189.92,107.48 185.54,109.73 L 182.02,111.53 L 185.76,116.3 L 189.5,121.07 L 196.81,120.49 C 205.83,119.77 207.81,119.04 211.96,114.89 C 215.1,111.75 215.22,111.35 214.71,105.72 C 214.42,102.49 213.91,99.577 213.59,99.254 C 213.26,98.93 210.48,98.324 207.41,97.907 C 201.12,97.053 198.41,95.139 197.48,90.896 C 197.13,89.303 196.43,88 195.92,88 C 195.41,88 195,85.862 195,83.25 C 195.01,74.518 199.79,69.814 212.59,65.945 C 220.57,63.532 235,57.059 235,55.89 C 235,55.454 236.99,53.726 239.43,52.052 C 246.78,46.99 260.74,32.29 264.94,25.184 C 267.11,21.508 269.41,16.355 270.06,13.733 C 271.43,8.2242 271.98,7.7053 275.49,8.5879 C 279.41,9.5715 282,15.6 282.69,25.363 C 283.24,33.127 283.09,33.993 280.07,40.548 C 278.3,44.372 274.84,50.087 272.37,53.25 C 269.89,56.413 268.14,59 268.47,59 C 269.82,59 286.86,46.945 291.82,42.48 C 294.75,39.843 297.84,35.937 298.7,33.795 C 300.73,28.729 303.2,29.051 304.19,34.511 C 305.05,39.261 304.05,58 302.94,58 C 302.51,58 301.87,59.328 301.51,60.951 C 301.15,62.575 299.07,66.684 296.87,70.083 C 293.99,74.54 293.38,76.07 294.67,75.571 C 295.67,75.191 299.29,74.617 302.74,74.296 L 309,73.711 L 309,76.895 C 309,81.491 305.92,86.767 299.83,92.616 C 294.77,97.473 290.83,100.1 286.61,101.45 C 285.57,101.78 284.93,102.26 285.19,102.52 C 285.45,102.78 287.87,102.35 290.58,101.56 C 293.29,100.78 297.75,99.861 300.5,99.524 C 303.25,99.187 306.96,98.686 308.75,98.411 C 311.62,97.968 312,98.176 311.98,100.2 C 311.94,104.03 308.53,110.33 304.63,113.75 C 300.49,117.39 294.9,120.44 287.5,123.12 L 282.5,124.93 L 290.5,125.17 C 294.9,125.3 301.38,125.43 304.9,125.45 C 308.77,125.48 311.46,125.95 311.7,126.64 C 312.36,128.54 301.23,139.71 296.31,142.09 C 293.17,143.61 288.96,144.51 283.1,144.92 L 274.5,145.53 L 280.5,147.35 C 283.8,148.36 288.98,149.98 292,150.97 C 297.14,152.64 302.74,154.1 309.25,155.46 C 312.55,156.15 312.75,158.06 309.98,162.54 C 305.8,169.29 294.66,172.17 280.5,170.18 C 276.65,169.63 272.38,168.84 271,168.41 C 268.71,167.7 268.63,167.77 270.1,169.24 C 272.34,171.49 284.74,177.84 289.25,179.06 C 291.4,179.64 293,180.7 293,181.53 C 293,183.93 285.41,188.68 277.97,190.94 C 271.74,192.83 270.1,192.95 262.77,192.03 C 258.25,191.46 254.04,191 253.41,191 C 252.03,191 236.53,180.8 233,177.58 C 231.63,176.32 229.99,174.44 229.37,173.4 C 228.74,172.35 227.96,171.76 227.63,172.07 C 227.3,172.38 228.67,174.98 230.67,177.84 C 234.3,183.03 241.65,188.67 249.78,192.5 C 252.22,193.65 253.91,195.1 253.76,195.91 C 253.37,198.02 247.29,199.84 240.37,199.92 C 234.41,200 230.06,198.63 219.25,193.29 C 215.37,191.37 209.41,183.74 205.04,175.09 C 203.3,171.63 201.64,169.02 201.37,169.3 C 200.66,170 207.35,182.57 211.51,188.36 C 213.43,191.03 215,193.62 215,194.11 C 215,195.99 209.05,194.87 203,191.84 C 195.52,188.11 189.17,182.1 188.35,177.98 C 187.36,173.07 186.3,175.53 186.74,181.71 C 187.15,187.55 190.6,195.83 194,199.14 C 198.86,203.87 207.4,205.9 225.81,206.68 L 238.11,207.21 L 237.81,209.85 C 237.6,211.64 236.25,213.3 233.66,214.98 L 229.82,217.45 L 232.91,218.26 C 238.2,219.63 236.54,223.28 229.18,226.49 L 226.86,227.5 L 229.93,231.74 C 231.62,234.07 233,236.94 233,238.12 C 233,239.91 232.56,240.16 230.25,239.7 C 228.74,239.39 226.82,238.88 226,238.57 C 224.99,238.18 223.75,239.32 222.19,242.06 C 219.69,246.43 216.73,247.1 216.2,243.41 C 216.04,242.27 214.14,240.25 211.98,238.92 C 209.82,237.59 208.04,236.21 208.03,235.86 C 208.01,235.51 204.29,233.74 199.75,231.93 C 195.21,230.12 190.49,227.99 189.25,227.2 C 188.01,226.42 187,226.08 187,226.46 C 187,227.95 195.82,235.18 201.75,238.55 C 211.4,244.03 210.23,245.73 196.11,246.72 L 187.71,247.32 L 190.87,249.91 C 196.48,254.53 194.05,256.65 184.49,255.46 C 180,254.89 179,255.04 179,256.25 C 179,258.14 189.21,260.48 197.5,260.49 C 200.8,260.5 208.65,259.68 214.94,258.69 C 227.82,256.65 231.09,256.93 230.29,260 C 230,261.1 229.3,262 228.73,262 C 228.16,262 226.3,263.06 224.59,264.36 C 222.89,265.65 217.58,268.58 212.79,270.87 C 205.94,274.13 202.48,275.15 196.6,275.65 L 189.11,276.28 L 195.65,283.56 C 199.25,287.56 203.5,291.38 205.1,292.04 C 206.84,292.76 208,293.99 208,295.12 C 208,298.32 195.48,297.73 184.16,294 C 179.15,292.35 174.93,291 174.78,291 C 174.63,291 174.65,293.98 174.84,297.62 C 175.23,305.23 173.48,310.86 168.95,316.56 C 167.33,318.6 165.05,322.9 163.87,326.13 C 162.7,329.36 161.23,332 160.61,332 C 159.99,332 158.45,329.33 157.19,326.07 z "
         style="fill:#000000;fill-opacity:1"
         id="path5452" />
      <path
         d="M 166.92,312.17 C 172.39,304.03 173.16,298.95 170.09,291.21 C 168.94,288.31 168,285.49 168,284.96 C 168,283.44 169.95,283.83 172.91,285.93 C 174.4,287 176.94,288.17 178.56,288.53 C 180.18,288.9 184.73,290.28 188.67,291.6 C 192.61,292.92 196.78,294 197.93,294 C 199.79,294 199.6,293.53 196.26,289.88 C 188.09,280.94 186.41,279.29 184.24,278.13 C 183.01,277.47 182,276.11 182,275.11 C 182,273.52 183.2,273.22 191.73,272.71 C 200.9,272.17 202.05,271.84 211.81,266.98 C 217.51,264.15 221.95,261.62 221.69,261.35 C 221.42,261.09 216.77,261.63 211.35,262.56 C 199.64,264.56 184.12,264.1 178.82,261.59 C 176.95,260.7 173.69,258.55 171.58,256.81 C 168.21,254.03 167.97,253.56 169.62,252.99 C 170.65,252.64 174.63,252.25 178.46,252.13 C 182.29,252.01 185.61,251.72 185.84,251.49 C 186.08,251.25 184.81,250.26 183.03,249.28 C 176.41,245.65 173.5,243.38 173.16,241.57 C 172.86,240.03 173.2,239.84 175.15,240.46 C 180.9,242.29 193.67,244.1 196.76,243.52 C 199.57,242.99 199.94,242.64 198.95,241.44 C 198.29,240.65 197.12,240 196.35,240 C 195.58,240 191.07,236.08 186.32,231.29 C 181.57,226.5 176.11,221.74 174.19,220.7 C 170.17,218.55 168,216.59 168,215.12 C 168,214.56 169.57,211.49 171.5,208.3 C 175.18,202.19 176.01,202.89 173.5,210 C 172.68,212.34 172.01,214.53 172.02,214.88 C 172.03,215.55 175.56,217.24 192,224.5 C 204.31,229.93 209.75,232.51 212.49,234.24 C 215,235.84 218,239.05 218,240.15 C 218,240.62 218.43,241 218.95,241 C 219.48,241 220.21,239.4 220.58,237.45 C 221.19,234.15 221.45,233.94 224.12,234.53 C 227.32,235.23 227.74,234.48 225.51,232.01 C 224.69,231.11 223.74,228.94 223.39,227.18 C 222.87,224.61 223.07,224 224.44,224 C 225.37,224 227.07,223.5 228.23,222.88 C 230.25,221.8 230.21,221.71 227.16,220.43 C 222.43,218.44 223.14,215.95 229.29,213 L 234.5,210.5 L 223,209.89 C 211.04,209.25 202.63,207.98 197.5,206.02 C 195.85,205.39 191.46,201.79 187.75,198.01 C 181.11,191.27 181,191.06 181.01,185.83 C 181.02,182.9 181.74,178.47 182.62,176 C 184.8,169.82 187,161.29 187,159.03 C 187,158.01 187.48,157.01 188.07,156.81 C 189.54,156.32 190.95,143.94 190.28,137.39 C 189.59,130.77 191.39,130.04 193.07,136.25 C 193.89,139.28 193.95,143.09 193.27,149.5 C 192.46,157.04 192.55,158.78 193.81,160.25 C 195.42,162.12 198.52,162.59 199.44,161.09 C 200.32,159.67 200.36,155.85 199.53,151.75 C 198.52,146.75 199.98,146.88 205.29,152.3 C 211.16,158.29 213.93,160 217.75,160 C 220.4,160 221.25,159.48 222.06,157.34 C 223.42,153.78 221.54,144.8 218.95,142.46 C 217.88,141.49 217,140.08 217,139.35 C 217,137.37 220.06,137.71 222.44,139.94 C 223.57,141 226.53,142.41 229,143.07 C 235.45,144.78 240.47,142.62 241.38,137.76 C 242.41,132.29 238.6,124.96 233.25,122.12 C 228.85,119.79 230.58,118.38 237.79,118.44 C 242.67,118.48 245.34,118 247.28,116.74 C 253.78,112.48 250.79,105.34 241.24,102.31 C 234.04,100.03 233.04,97.526 239.01,96.725 C 243.15,96.171 249.56,92.552 250.44,90.279 C 251.4,87.819 247.97,86.167 240.44,85.462 C 230.91,84.569 230.23,83.307 236.38,77.893 C 241.9,73.038 242.55,69.565 238.25,67.856 C 234.24,66.26 221.85,66.526 216.83,68.316 C 214.45,69.166 211.35,70.104 209.95,70.4 C 208.54,70.697 205.73,72.36 203.7,74.097 C 200.2,77.082 200,77.58 200,83.204 C 200,88.447 200.35,89.501 202.92,92.077 C 205.25,94.399 206.74,95.003 210.17,95.015 C 216.6,95.038 217.22,95.796 217.77,104.32 C 218.32,112.93 217.6,117 215.52,117 C 214.72,117 213.61,117.86 213.04,118.92 C 211.82,121.21 207.64,122.65 199.5,123.57 C 196.2,123.94 192.92,124.71 192.22,125.27 C 190.08,126.98 186.16,124.09 181.23,117.18 C 177.66,112.18 176.98,110.63 178.07,109.96 C 179.16,109.29 179.03,108.97 177.47,108.46 C 171.61,106.53 170.14,105.64 169.61,103.67 C 168.36,98.998 168.68,98.684 174.12,99.328 L 179.24,99.934 L 175.62,96.419 C 171.5,92.421 170.96,90 174.19,90 C 176.29,90 176.26,89.879 173.51,87.012 C 170.34,83.697 170.16,84.731 175.85,73 C 179.81,64.828 180.01,58.71 176.55,51.284 C 172.43,42.434 163.57,39.94 152.57,44.535 C 148.29,46.324 143,51.589 143,54.063 C 143,55.112 142.5,57.89 141.88,60.236 C 140.83,64.258 141,65.011 144.95,73.5 C 147.26,78.45 149.75,83.829 150.5,85.453 C 152.08,88.897 151.4,90.647 147.06,94.298 C 143.86,96.989 144.53,98 149.52,98 C 150.82,98 152.13,98.409 152.44,98.91 C 153.68,100.91 151.54,102.98 145.48,105.62 C 139.35,108.29 138.01,110 142.06,110 C 143.13,110 144,110.28 144,110.63 C 144,111.91 136.69,121.39 133.89,123.75 C 132.3,125.08 131,127.01 131,128.03 C 131,131.34 129.14,131.13 128.81,127.78 L 128.5,124.53 L 120.5,123.36 C 110.98,121.98 109.27,121.37 107.94,118.88 C 107.38,117.85 106.28,117 105.48,117 C 103.4,117 102.68,112.93 103.23,104.32 C 103.78,95.796 104.4,95.038 110.83,95.015 C 114.26,95.003 115.75,94.399 118.08,92.077 C 120.65,89.501 121,88.447 121,83.204 C 121,77.58 120.8,77.082 117.3,74.097 C 115.27,72.36 112.46,70.697 111.05,70.4 C 109.65,70.104 106.55,69.166 104.17,68.316 C 99.147,66.526 86.761,66.26 82.75,67.856 C 78.455,69.565 79.1,73.038 84.616,77.893 C 90.766,83.307 90.09,84.569 80.564,85.462 C 73.035,86.167 69.605,87.819 70.558,90.279 C 71.439,92.552 77.855,96.171 81.986,96.725 C 87.955,97.526 86.959,100.03 79.764,102.31 C 70.208,105.34 67.219,112.48 73.723,116.74 C 75.655,118 78.329,118.48 83.207,118.44 C 90.416,118.38 92.152,119.79 87.75,122.12 C 82.4,124.96 78.588,132.29 79.616,137.76 C 80.527,142.62 85.551,144.78 92,143.07 C 94.475,142.41 97.429,141 98.564,139.94 C 100.94,137.71 104,137.37 104,139.35 C 104,140.08 103.12,141.49 102.05,142.46 C 99.462,144.8 97.585,153.78 98.938,157.34 C 99.752,159.48 100.6,160 103.25,160 C 107.07,160 109.84,158.29 115.71,152.3 C 121.02,146.88 122.48,146.75 121.47,151.75 C 120.07,158.66 120.87,162 123.9,162 C 127.72,162 128.83,159.05 127.84,151.5 C 126.62,142.2 127.6,132 129.72,132 C 131.01,132 131.18,132.94 130.72,137.39 C 130.05,143.94 131.46,156.32 132.93,156.81 C 133.52,157.01 134,158.01 134,159.03 C 134,161.29 136.2,169.82 138.38,176 C 139.26,178.47 139.98,182.9 139.99,185.83 C 140,191.06 139.89,191.27 133.25,198.01 C 129.54,201.79 125.15,205.39 123.5,206.02 C 118.37,207.98 109.96,209.25 98,209.89 L 86.5,210.5 L 91.709,213 C 97.861,215.95 98.573,218.44 93.838,220.43 C 90.792,221.71 90.752,221.8 92.772,222.88 C 93.925,223.5 95.629,224 96.559,224 C 97.926,224 98.128,224.61 97.613,227.18 C 97.263,228.94 96.307,231.11 95.488,232.01 C 93.259,234.48 93.676,235.23 96.879,234.53 C 99.552,233.94 99.805,234.15 100.42,237.45 C 100.79,239.4 101.52,241 102.05,241 C 102.57,241 103,240.62 103,240.15 C 103,239.05 106,235.84 108.51,234.24 C 112.58,231.68 136.75,220.68 141,219.47 C 145.28,218.25 145.75,217.38 144.9,212.26 C 143.31,202.6 144.57,202.68 147.57,212.43 C 149.12,217.5 149.18,218.44 147.95,218.85 C 147.15,219.11 141.9,223.98 136.28,229.66 C 130.66,235.35 125.42,240 124.65,240 C 123.88,240 122.71,240.65 122.05,241.44 C 121.06,242.64 121.43,242.99 124.24,243.52 C 127.33,244.1 140.1,242.29 145.85,240.46 C 147.8,239.84 148.14,240.03 147.84,241.57 C 147.5,243.38 144.59,245.65 137.97,249.28 C 136.19,250.26 134.93,251.27 135.18,251.52 C 135.43,251.77 138.87,252.06 142.82,252.16 C 149.48,252.34 150,252.51 150,254.54 C 150,257.51 143.36,261.79 136.84,263.03 C 129.41,264.44 119.28,264.22 108.9,262.43 C 103.9,261.57 99.587,261.08 99.318,261.35 C 99.05,261.62 103.49,264.15 109.19,266.98 C 118.95,271.84 120.1,272.17 129.27,272.71 C 137.8,273.22 139,273.52 139,275.11 C 139,276.11 137.99,277.47 136.76,278.13 C 134.59,279.29 132.91,280.94 124.74,289.88 C 121.4,293.53 121.21,294 123.07,294 C 124.22,294 128.39,292.92 132.33,291.6 C 136.27,290.28 140.82,288.9 142.44,288.53 C 144.06,288.17 146.6,287 148.09,285.93 C 151.05,283.83 153,283.44 153,284.96 C 153,285.49 152.06,288.31 150.91,291.21 C 147.96,298.64 148.65,304.39 153.26,310.8 C 155.22,313.53 157.61,317.27 158.56,319.12 C 160.16,322.2 160.39,322.32 161.4,320.6 C 162,319.57 164.49,315.78 166.92,312.17 z "
         style="fill:#ffffff;fill-opacity:1"
         id="path5454" />
      <path
         d="M 156.03,66.025 C 154.94,64.939 153.78,62.956 153.44,61.619 C 152.8,59.062 154.39,55 156.04,55 C 157.49,55 157.19,52.872 155.48,50.976 C 154.34,49.722 154.2,48.683 154.91,46.897 C 155.44,45.579 155.9,45.182 155.94,46.016 C 156,47.493 163.22,52.775 168.4,55.139 C 170.8,56.232 175,61.905 175,64.057 C 175,64.576 174.15,65 173.12,65 C 172.09,65 169.63,65.675 167.65,66.5 C 162.72,68.56 158.38,68.383 156.03,66.025 z "
         style="fill:#000000;fill-opacity:1"
         id="path5456" />
      <path
         d="M 167,61.902 C 167,60.701 166.35,60.765 164.07,62.19 C 161.61,63.727 158.63,61.535 159.36,58.728 C 159.84,56.888 159.79,56.883 157.89,58.596 C 155.36,60.891 155.84,63.245 159.01,64.033 C 161.76,64.718 167,63.321 167,61.902 z "
         style="fill:#ffffff;fill-opacity:1"
         id="path5458" />
      <path
         d="M 164,60 C 164,59.45 163.55,59 163,59 C 162.45,59 162,59.45 162,60 C 162,60.55 162.45,61 163,61 C 163.55,61 164,60.55 164,60 z "
         style="fill:#ffffff;fill-opacity:1"
         id="path5460" />
      <path
         d="M 96.417,192.58 C 103.39,188.68 105.72,186.03 111.88,175 C 114.19,170.88 116.67,166.6 117.41,165.5 C 118.39,164.04 118.5,162.59 117.81,160.13 L 116.88,156.76 L 114.69,158.76 C 111.58,161.59 108.54,163 105.54,163 C 103.66,163 102.65,163.75 101.84,165.75 C 96.005,180.04 92.454,184.45 81.372,191.17 C 73.662,195.84 74.152,197.45 83.059,196.7 C 88.581,196.24 91.489,195.34 96.417,192.58 z "
         style="fill:#ffffff;fill-opacity:1"
         id="path5462" />
      <path
         d="M 245,195.71 C 245,195 242.58,192.96 239.63,191.17 C 228.55,184.45 225,180.04 219.16,165.75 C 218.35,163.75 217.34,163 215.46,163 C 212.46,163 209.42,161.59 206.31,158.76 L 204.12,156.76 L 203.19,160.13 C 202.5,162.59 202.61,164.04 203.59,165.5 C 204.33,166.6 206.81,170.88 209.12,175 C 215.14,185.78 217.53,188.59 223.76,192.15 C 230.07,195.76 233.52,196.75 240.25,196.9 C 243.51,196.97 245,196.6 245,195.71 z "
         style="fill:#ffffff;fill-opacity:1"
         id="path5464" />
      <path
         d="M 119.36,186.55 C 122.22,184.65 125.51,182.06 126.67,180.8 C 129.21,178.02 132.15,168.29 131.36,165.25 L 130.78,163.06 L 126.9,165.28 C 124.67,166.56 123.01,168.26 123.01,169.29 C 123,171.82 119.41,178.54 114.87,184.56 C 108.94,192.4 109.9,192.83 119.36,186.55 z "
         style="fill:#ffffff;fill-opacity:1"
         id="path5466" />
      <path
         d="M 210,190.34 C 210,189.98 208.26,187.38 206.13,184.56 C 201.59,178.54 198,171.82 197.99,169.29 C 197.99,168.26 196.33,166.56 194.1,165.28 L 190.22,163.06 L 189.64,165.25 C 188.85,168.3 191.79,178.02 194.36,180.83 C 196.58,183.26 207.91,191 209.24,191 C 209.66,191 210,190.7 210,190.34 z "
         style="fill:#ffffff;fill-opacity:1"
         id="path5468" />
      <path
         d="M 67.843,186.58 C 76.087,182.32 83.955,176.34 90.015,169.72 C 96.555,162.58 96.621,162.45 95.757,158.5 C 95.276,156.3 95.025,152.58 95.199,150.24 C 95.441,146.99 95.195,146.09 94.177,146.49 C 93.439,146.77 92.198,147 91.418,147 C 90.638,147 90,147.72 90,148.59 C 90,150.6 86.768,153.4 81,156.4 C 68.282,163 62.908,166.07 56.818,170.24 C 53.143,172.76 46.584,176.57 42.242,178.7 L 34.347,182.58 L 36.734,184.38 C 42.751,188.92 60.845,190.2 67.843,186.58 z "
         style="fill:#ffffff;fill-opacity:1"
         id="path5470" />
      <path
         d="M 276.43,187.56 C 279.48,186.77 283.02,185.32 284.31,184.35 L 286.65,182.58 L 278.76,178.7 C 274.42,176.57 267.86,172.76 264.18,170.24 C 258.09,166.07 252.72,163 240,156.4 C 234.23,153.4 231,150.6 231,148.59 C 231,147.72 230.36,147 229.58,147 C 228.8,147 227.56,146.77 226.82,146.49 C 225.8,146.09 225.56,146.99 225.8,150.24 C 225.98,152.58 225.72,156.3 225.24,158.5 C 224.38,162.45 224.45,162.58 230.99,169.72 C 236.78,176.05 244.33,181.88 252.13,186.07 C 257.88,189.17 267.92,189.78 276.43,187.56 z "
         style="fill:#ffffff;fill-opacity:1"
         id="path5472" />
      <path
         d="M 40,167.09 C 45.877,166.33 73.907,156.16 76.45,153.86 C 76.972,153.39 78.129,153 79.02,153 C 79.911,153 82.152,151.65 84,150 C 86.342,147.91 86.861,147 85.714,147 C 84.809,147 82.515,146.26 80.618,145.35 C 78,144.11 77.016,142.9 76.539,140.35 C 76.193,138.51 75.714,137 75.474,137 C 74.473,137 60.913,142.6 53.473,146.08 C 45.688,149.73 34.861,153.29 20.555,156.91 C 16.735,157.88 13.476,159.08 13.312,159.59 C 12.916,160.8 18.993,164.88 23.718,166.56 C 28.142,168.14 31.144,168.24 40,167.09 z "
         style="fill:#ffffff;fill-opacity:1"
         id="path5474" />
      <path
         d="M 297.28,166.56 C 302.01,164.88 308.08,160.8 307.69,159.59 C 307.52,159.08 304.27,157.88 300.45,156.91 C 286.14,153.29 275.31,149.73 267.53,146.08 C 260.09,142.6 246.53,137 245.53,137 C 245.29,137 244.81,138.51 244.46,140.35 C 243.98,142.9 243,144.11 240.38,145.35 C 238.48,146.26 236.19,147 235.29,147 C 234.14,147 234.66,147.91 237,150 C 238.85,151.65 241.09,153 241.98,153 C 242.87,153 244.03,153.39 244.55,153.86 C 245.07,154.33 252.03,157.32 260,160.5 C 277.95,167.66 289.11,169.48 297.28,166.56 z "
         style="fill:#ffffff;fill-opacity:1"
         id="path5476" />
      <path
         d="M 54.5,140.14 C 58.35,139.13 65.019,136.57 69.319,134.44 C 75.718,131.26 77.238,130.06 77.689,127.8 C 77.993,126.29 78.895,124.5 79.695,123.84 C 80.895,122.84 80.356,122.43 76.601,121.48 C 71.922,120.29 64.904,121.17 52.5,124.5 C 40.788,127.64 36.941,128.28 26.839,128.75 L 16.179,129.25 L 19.254,132.63 C 20.945,134.49 25.027,137.36 28.324,139 C 35.566,142.62 43.64,142.97 54.5,140.14 z "
         style="fill:#ffffff;fill-opacity:1"
         id="path5478" />
      <path
         d="M 292.68,139 C 295.97,137.36 300.05,134.49 301.75,132.63 L 304.82,129.25 L 294.16,128.75 C 284.06,128.28 280.21,127.64 268.5,124.5 C 256.1,121.17 249.08,120.29 244.4,121.48 C 240.64,122.43 240.1,122.84 241.31,123.84 C 242.1,124.5 243.01,126.29 243.31,127.8 C 243.76,130.06 245.28,131.27 251.68,134.44 C 261.66,139.39 270.64,141.8 279.59,141.91 C 285.57,141.99 287.62,141.53 292.68,139 z "
         style="fill:#ffffff;fill-opacity:1"
         id="path5480" />
      <path
         d="M 55.5,119.53 C 57.7,118.74 61.257,118.07 63.405,118.04 C 67.223,118 67.27,117.96 65.532,116.04 C 64.419,114.81 63.935,113.12 64.238,111.54 C 64.684,109.2 64.431,109 61.111,108.96 C 59.125,108.94 54.8,108.28 51.5,107.48 C 48.2,106.68 43.03,106.02 40.01,106.02 C 36.991,106.01 30.141,105.01 24.788,103.81 C 19.436,102.6 14.767,101.9 14.414,102.25 C 13.291,103.38 24.289,115.09 27.967,116.69 C 37.872,121 48.411,122.08 55.5,119.53 z "
         style="fill:#ffffff;fill-opacity:1"
         id="path5482" />
      <path
         d="M 284.5,119.6 C 287.25,118.84 291.09,117.53 293.03,116.68 C 296.71,115.09 307.71,103.38 306.59,102.25 C 306.23,101.9 301.56,102.6 296.21,103.81 C 290.86,105.01 284.01,106.01 280.99,106.02 C 277.97,106.02 272.8,106.68 269.5,107.48 C 266.2,108.28 261.87,108.94 259.89,108.96 C 256.57,109 256.32,109.2 256.76,111.54 C 257.07,113.12 256.58,114.81 255.47,116.04 C 253.73,117.96 253.78,118 257.6,118.06 C 259.74,118.09 263.07,118.71 265,119.44 C 269.7,121.21 278.38,121.28 284.5,119.6 z "
         style="fill:#ffffff;fill-opacity:1"
         id="path5484" />
      <path
         d="M 70.595,102.5 C 72.078,101.13 74.239,99.98 75.396,99.956 C 77.03,99.921 76.682,99.479 73.84,97.978 C 69.681,95.781 66,91.564 66,88.997 C 66,87.556 64.773,87.18 58.75,86.772 C 54.103,86.457 49.166,85.315 45,83.591 C 40.014,81.528 20.309,77.081 15.844,77.01 C 13.959,76.981 16.984,81.979 22.272,87.632 C 28.905,94.723 34.53,97.972 43.5,99.896 C 46.8,100.6 52.65,102.01 56.5,103.01 C 65.906,105.47 67.445,105.42 70.595,102.5 z "
         style="fill:#ffffff;fill-opacity:1"
         id="path5486" />
      <path
         d="M 263.93,103.09 C 268.09,102.04 274.2,100.6 277.5,99.894 C 286.47,97.973 292.09,94.723 298.73,87.632 C 304.02,81.979 307.04,76.981 305.16,77.01 C 300.69,77.081 280.99,81.528 276,83.591 C 271.83,85.315 266.9,86.457 262.25,86.772 C 256.23,87.18 255,87.556 255,88.997 C 255,91.564 251.32,95.781 247.16,97.978 C 244.34,99.469 243.98,99.922 245.59,99.956 C 246.74,99.98 248.77,101.08 250.09,102.39 C 253.1,105.39 254.54,105.46 263.93,103.09 z "
         style="fill:#ffffff;fill-opacity:1"
         id="path5488" />
      <path
         d="M 79,82.237 L 82.5,81.4 L 79.75,78.835 C 78.237,77.425 77,75.535 77,74.635 C 77,73.505 76.122,73 74.155,73 C 72.58,73 70.502,72.107 69.5,71 C 68.505,69.9 66.875,69 65.88,69 C 58.969,69 39.848,57.41 27.724,45.872 C 23.78,42.118 20.212,39.388 19.796,39.804 C 18.857,40.743 20.551,51.643 22.78,59 C 24.101,63.358 25.722,65.746 30.592,70.5 C 36.515,76.283 38.009,77.112 51.184,81.916 C 56.176,83.736 71.971,83.919 79,82.237 z "
         style="fill:#ffffff;fill-opacity:1"
         id="path5490" />
      <path
         d="M 275.8,79.76 C 286.96,75.435 295.69,67.345 298.22,59 C 300.45,51.643 302.14,40.743 301.2,39.804 C 300.79,39.388 297.22,42.118 293.28,45.872 C 281.15,57.41 262.03,69 255.12,69 C 254.12,69 252.5,69.9 251.5,71 C 250.5,72.107 248.42,73 246.85,73 C 244.65,73 244,73.466 244,75.031 C 244,76.149 243.31,77.327 242.47,77.649 C 241.63,77.971 240.51,79.044 239.98,80.032 C 239.13,81.633 239.7,81.935 245.26,82.81 C 255.9,84.484 266.29,83.447 275.8,79.76 z "
         style="fill:#ffffff;fill-opacity:1"
         id="path5492" />
      <path
         d="M 76.281,68.033 C 76.65,66.621 78.518,65.586 82.894,64.37 L 88.993,62.674 L 86.084,60.905 C 84.485,59.932 82.799,58.532 82.338,57.794 C 81.877,57.056 80.15,55.603 78.5,54.565 C 72.858,51.017 58.746,36.507 54.399,29.783 C 52.01,26.089 49.224,20.505 48.208,17.374 L 46.359,11.682 L 44.107,15.326 C 42.379,18.123 41.814,20.66 41.678,26.235 C 41.523,32.546 41.913,34.354 44.646,40 C 47.855,46.632 58.753,60.3 63.094,63.139 C 64.418,64.004 66.59,65.057 67.923,65.478 C 69.256,65.9 71.253,67.09 72.362,68.122 C 74.913,70.5 75.64,70.483 76.281,68.033 z "
         style="fill:#ffffff;fill-opacity:1"
         id="path5494" />
      <path
         d="M 248.64,68.122 C 249.75,67.09 251.74,65.9 253.08,65.478 C 254.41,65.057 256.58,64.004 257.91,63.139 C 262.25,60.3 273.14,46.632 276.35,40 C 279.09,34.354 279.48,32.546 279.32,26.235 C 279.19,20.66 278.62,18.123 276.89,15.326 L 274.64,11.682 L 272.79,17.374 C 271.78,20.505 268.99,26.089 266.6,29.783 C 262.25,36.507 248.14,51.017 242.5,54.565 C 240.85,55.603 239.12,57.056 238.66,57.794 C 238.2,58.532 236.52,59.932 234.92,60.905 L 232.01,62.674 L 238.11,64.37 C 242.48,65.586 244.35,66.621 244.72,68.033 C 245.36,70.483 246.09,70.5 248.64,68.122 z "
         style="fill:#ffffff;fill-opacity:1"
         id="path5496" />
    </g>
    <path
       d="M 1.813,129.6 C 1.813,141.2 1.813,156.68 1.813,183.56 C 14.304,206.68 9.7481,224.5 37.626,252.38 C 74.161,288.91 93.403,269.65 129.94,306.19 C 166.47,342.72 147.22,362 183.75,398.53 C 220.29,435.07 239.56,415.81 276.09,452.35 C 312.63,488.88 293.37,508.12 329.91,544.66 C 344.3,559.06 355.98,564.76 367.13,568.66 L 422.69,588.47 C 429.77,583.15 436.92,577.5 444.09,571.53 C 409.19,538.35 389.99,555.93 354.31,520.25 C 317.78,483.72 337.04,464.41 300.5,427.88 C 263.97,391.34 244.69,410.63 208.16,374.1 C 171.62,337.56 190.88,318.29 154.34,281.75 C 117.81,245.22 98.567,264.51 62.032,227.97 C 25.497,191.44 44.754,172.13 8.2193,135.6 C 6.022,133.4 3.8924,131.41 1.813,129.6 z "
       style="fill:#2b5df2;fill-opacity:1;stroke:#000000;stroke-width:3;stroke-miterlimit:4;stroke-dasharray:none;stroke-opacity:1;display:inline"
       id="path8227" />
    <path
       d="M 125.71,2.2362 C 126.34,2.8899 126.99,3.5402 127.65,4.205 C 164.19,40.74 183.46,21.451 219.99,57.986 C 256.53,94.521 237.27,113.79 273.81,150.33 C 310.34,186.87 329.58,167.58 366.12,204.11 C 402.65,240.65 383.4,259.95 419.93,296.49 C 456.47,333.02 475.71,313.7 512.24,350.24 C 545.4,383.39 532.62,402.36 557.28,432.89 C 563.23,421.28 568.67,409.16 573.53,396.55 C 559.72,372.51 565.31,354.46 536.68,325.83 C 500.15,289.29 480.87,308.55 444.34,272.02 C 407.8,235.48 427.06,216.24 390.53,179.7 C 353.99,143.17 334.75,162.43 298.21,125.89 C 261.68,89.357 280.94,70.084 244.4,33.549 C 230,19.151 218.3,13.444 207.15,9.5487 L 186.65,2.2362 L 125.71,2.2362 z "
       style="fill:#2b5df2;fill-opacity:1;stroke:#000000;stroke-width:3;stroke-miterlimit:4;stroke-dasharray:none;stroke-opacity:1;display:inline"
       id="path8232" />
  </g>
  <g
     id="layer2">
    <path
       d="M 300,658.5 C 300,658.5 598.5,546.18 598.5,260.73 C 598.5,-24.723 598.5,2.1765 598.5,2.1765 L 1.5,2.1765 L 1.5,260.73 C 1.5,546.18 300,658.5 300,658.5 z "
       style="opacity:1;fill:url(#radialGradient3163);fill-opacity:1;fill-rule:evenodd;stroke:none;stroke-width:1px;stroke-linecap:butt;stroke-linejoin:miter;stroke-opacity:1"
       id="path2875" />
  </g>
  <g
     id="layer1">
    <path
       d="M 300,658.5 C 300,658.5 1.5,546.18 1.5,260.73 C 1.5,-24.723 1.5,2.1765 1.5,2.1765 L 598.5,2.1765 L 598.5,260.73 C 598.5,546.18 300,658.5 300,658.5 z "
       style="opacity:1;fill:none;fill-opacity:1;fill-rule:evenodd;stroke:#000000;stroke-width:3;stroke-linecap:butt;stroke-linejoin:miter;stroke-miterlimit:4;stroke-dasharray:none;stroke-opacity:1"
       id="path1411" />
  </g>
</svg>
