<?xml version="1.0" encoding="UTF-8" standalone="no"?>
<svg
   xmlns:dc="http://purl.org/dc/elements/1.1/"
   xmlns:cc="http://web.resource.org/cc/"
   xmlns:rdf="http://www.w3.org/1999/02/22-rdf-syntax-ns#"
   xmlns:svg="http://www.w3.org/2000/svg"
   xmlns="http://www.w3.org/2000/svg"
   xmlns:xlink="http://www.w3.org/1999/xlink"
   xmlns:sodipodi="http://sodipodi.sourceforge.net/DTD/sodipodi-0.dtd"
   xmlns:inkscape="http://www.inkscape.org/namespaces/inkscape"
   height="660"
   width="600"
   version="1.0"
   id="svg2"
   sodipodi:version="0.32"
   inkscape:version="0.45.1"
   sodipodi:docname="Blason_Meuse.svg"
   sodipodi:docbase="C:\Documents and Settings\Alexandre\Mes documents\Mes images\Blason\A publier"
   inkscape:export-filename="/Users/olivier/Desktop/Blason Rouge/Blason_Vide_3D.png"
   inkscape:export-xdpi="144"
   inkscape:export-ydpi="144"
   inkscape:output_extension="org.inkscape.output.svg.inkscape">
  <metadata
     id="metadata49">
    <rdf:RDF>
      <cc:Work
         rdf:about="">
        <dc:format>image/svg+xml</dc:format>
        <dc:type
           rdf:resource="http://purl.org/dc/dcmitype/StillImage" />
        <dc:title>Gabarit d'un blason en pointe pour le projet Blasons de Wikipédia</dc:title>
        <dc:date>03-AUG-2006</dc:date>
        <dc:creator>
          <cc:Agent>
            <dc:title>Jérôme BLUM (wagner51)</dc:title>
          </cc:Agent>
        </dc:creator>
        <cc:license
           rdf:resource="http://web.resource.org/cc/PublicDomain" />
        <dc:language>fr</dc:language>
        <dc:subject>
          <rdf:Bag>
            <rdf:li>gabarit modèle blason projet wikipédia</rdf:li>
          </rdf:Bag>
        </dc:subject>
      </cc:Work>
      <cc:License
         rdf:about="http://web.resource.org/cc/PublicDomain">
        <cc:permits
           rdf:resource="http://web.resource.org/cc/Reproduction" />
        <cc:permits
           rdf:resource="http://web.resource.org/cc/Distribution" />
        <cc:permits
           rdf:resource="http://web.resource.org/cc/DerivativeWorks" />
      </cc:License>
    </rdf:RDF>
  </metadata>
  <sodipodi:namedview
     inkscape:window-height="994"
     inkscape:window-width="1680"
     inkscape:pageshadow="2"
     inkscape:pageopacity="0.0"
     guidetolerance="10.0"
     gridtolerance="10.0"
     objecttolerance="10.0"
     borderopacity="1.0"
     bordercolor="#666666"
     pagecolor="#ffffff"
     id="base"
     showgrid="false"
     height="660px"
     inkscape:zoom="0.89095454"
     inkscape:cx="526.01122"
     inkscape:cy="371.70796"
     inkscape:window-x="-4"
     inkscape:window-y="-4"
     inkscape:current-layer="layer3" />
  <desc
     id="desc4">Flag of Canton of Valais (Wallis)</desc>
  <defs
     id="defs6">
    <linearGradient
       id="linearGradient2893">
      <stop
         style="stop-color:white;stop-opacity:0.3137255;"
         offset="0"
         id="stop2895" />
      <stop
         id="stop2897"
         offset="0.19"
         style="stop-color:white;stop-opacity:0.25098041;" />
      <stop
         style="stop-color:#6b6b6b;stop-opacity:0.1254902;"
         offset="0.60000002"
         id="stop2901" />
      <stop
         style="stop-color:black;stop-opacity:0.1254902;"
         offset="1"
         id="stop2899" />
    </linearGradient>
    <linearGradient
       id="linearGradient2885">
      <stop
         id="stop2887"
         offset="0"
         style="stop-color:white;stop-opacity:1;" />
      <stop
         style="stop-color:white;stop-opacity:1;"
         offset="0.22857143"
         id="stop2891" />
      <stop
         id="stop2889"
         offset="1"
         style="stop-color:black;stop-opacity:1;" />
    </linearGradient>
    <linearGradient
       id="linearGradient2955">
      <stop
         id="stop2867"
         offset="0"
         style="stop-color:#fd0000;stop-opacity:1;" />
      <stop
         style="stop-color:#e77275;stop-opacity:0.65882355;"
         offset="0.5"
         id="stop2873" />
      <stop
         style="stop-color:black;stop-opacity:0.32291666;"
         offset="1"
         id="stop2959" />
    </linearGradient>
    <radialGradient
       inkscape:collect="always"
       xlink:href="#linearGradient2955"
       id="radialGradient2961"
       cx="225.52438"
       cy="218.90099"
       fx="225.52438"
       fy="218.90099"
       r="300"
       gradientTransform="matrix(-4.167939e-4,2.182867,-1.884232,-3.599562e-4,615.5972,-289.1214)"
       gradientUnits="userSpaceOnUse" />
    <polygon
       id="star"
       transform="scale(53,53)"
       points="0,-1 0.58778525,0.80901699 -0.95105652,-0.30901699 0.95105652,-0.30901699 -0.58778525,0.80901699 0,-1 " />
    <clipPath
       id="clip">
      <path
         d="M 0,-200 L 0,600 L 300,600 L 300,-200 L 0,-200 z "
         id="path10" />
    </clipPath>
    <radialGradient
       inkscape:collect="always"
       xlink:href="#linearGradient2955"
       id="radialGradient1911"
       gradientUnits="userSpaceOnUse"
       gradientTransform="matrix(-4.167939e-4,2.182867,-1.884232,-3.599562e-4,615.5972,-289.1214)"
       cx="225.52438"
       cy="218.90099"
       fx="225.52438"
       fy="218.90099"
       r="300" />
    <radialGradient
       inkscape:collect="always"
       xlink:href="#linearGradient2955"
       id="radialGradient2865"
       gradientUnits="userSpaceOnUse"
       gradientTransform="matrix(0,1.748721,-1.593162,-1.049767e-7,551.7876,-191.2898)"
       cx="225.52438"
       cy="218.90099"
       fx="225.52438"
       fy="218.90099"
       r="300" />
    <radialGradient
       inkscape:collect="always"
       xlink:href="#linearGradient2955"
       id="radialGradient2871"
       gradientUnits="userSpaceOnUse"
       gradientTransform="matrix(0,1.386237,-1.323286,-5.741131e-8,-158.0823,-109.5408)"
       cx="225.52438"
       cy="218.90099"
       fx="225.52438"
       fy="218.90099"
       r="300" />
    <radialGradient
       inkscape:collect="always"
       xlink:href="#linearGradient2893"
       id="radialGradient3163"
       gradientUnits="userSpaceOnUse"
       gradientTransform="matrix(1.353218,0,0,1.348928,-77.62935,-85.74693)"
       cx="221.44487"
       cy="226.33101"
       fx="221.44487"
       fy="226.33101"
       r="300" />
    <linearGradient
       id="linearGradient2095">
      <stop
         id="stop2097"
         offset="0"
         style="stop-color:white;stop-opacity:0.3137255" />
      <stop
         id="stop2099"
         offset="0.19"
         style="stop-color:white;stop-opacity:0.25098041" />
      <stop
         id="stop2101"
         offset="0.60000002"
         style="stop-color:#6b6b6b;stop-opacity:0.1254902" />
      <stop
         id="stop2103"
         offset="1"
         style="stop-color:black;stop-opacity:0.1254902" />
    </linearGradient>
    <linearGradient
       id="linearGradient2105">
      <stop
         id="stop2107"
         offset="0"
         style="stop-color:white;stop-opacity:1" />
      <stop
         id="stop2109"
         offset="0.22857143"
         style="stop-color:white;stop-opacity:1" />
      <stop
         id="stop2111"
         offset="1"
         style="stop-color:black;stop-opacity:1" />
    </linearGradient>
    <linearGradient
       id="linearGradient2113">
      <stop
         id="stop2115"
         offset="0"
         style="stop-color:#fd0000;stop-opacity:1" />
      <stop
         id="stop2117"
         offset="0.5"
         style="stop-color:#e77275;stop-opacity:0.65882355" />
      <stop
         id="stop2119"
         offset="1"
         style="stop-color:black;stop-opacity:0.32291666" />
    </linearGradient>
    <radialGradient
       gradientTransform="matrix(-4.167939e-4,2.182867,-1.884232,-3.599562e-4,615.5972,-289.1214)"
       gradientUnits="userSpaceOnUse"
       xlink:href="#linearGradient2955"
       id="radialGradient2121"
       fy="218.90099"
       fx="225.52438"
       r="300"
       cy="218.90099"
       cx="225.52438" />
    <polygon
       id="polygon2123"
       transform="scale(53,53)"
       points="0,-1 0.58778525,0.80901699 -0.95105652,-0.30901699 0.95105652,-0.30901699 -0.58778525,0.80901699 0,-1 " />
    <clipPath
       id="clipPath2125">
      <path
         id="path2127"
         d="M 0,-200 L 0,600 L 300,600 L 300,-200 L 0,-200 z " />
    </clipPath>
    <radialGradient
       gradientTransform="matrix(-4.167939e-4,2.182867,-1.884232,-3.599562e-4,615.5972,-289.1214)"
       gradientUnits="userSpaceOnUse"
       xlink:href="#linearGradient2955"
       id="radialGradient2129"
       fy="218.90099"
       fx="225.52438"
       r="300"
       cy="218.90099"
       cx="225.52438" />
    <radialGradient
       gradientTransform="matrix(0,1.748721,-1.593162,-1.049767e-7,551.7876,-191.2898)"
       gradientUnits="userSpaceOnUse"
       xlink:href="#linearGradient2955"
       id="radialGradient2131"
       fy="218.90099"
       fx="225.52438"
       r="300"
       cy="218.90099"
       cx="225.52438" />
    <radialGradient
       gradientTransform="matrix(0,1.386237,-1.323286,-5.741131e-8,-158.0823,-109.5408)"
       gradientUnits="userSpaceOnUse"
       xlink:href="#linearGradient2955"
       id="radialGradient2133"
       fy="218.90099"
       fx="225.52438"
       r="300"
       cy="218.90099"
       cx="225.52438" />
    <radialGradient
       gradientTransform="matrix(1.353218,0,0,1.348928,-77.62935,-85.74693)"
       gradientUnits="userSpaceOnUse"
       xlink:href="#linearGradient2893"
       id="radialGradient2135"
       fy="226.33101"
       fx="221.44487"
       r="300"
       cy="226.33101"
       cx="221.44487" />
    <radialGradient
       gradientTransform="matrix(0,1.386237,-1.323286,-5.741131e-8,-158.0823,-109.5408)"
       gradientUnits="userSpaceOnUse"
       xlink:href="#linearGradient2955"
       id="radialGradient2293"
       fy="218.90099"
       fx="225.52438"
       r="300"
       cy="218.90099"
       cx="225.52438" />
    <radialGradient
       gradientTransform="matrix(0,1.748721,-1.593162,-1.049767e-7,551.7876,-191.2898)"
       gradientUnits="userSpaceOnUse"
       xlink:href="#linearGradient2955"
       id="radialGradient2291"
       fy="218.90099"
       fx="225.52438"
       r="300"
       cy="218.90099"
       cx="225.52438" />
    <radialGradient
       gradientTransform="matrix(-4.167939e-4,2.182867,-1.884232,-3.599562e-4,615.5972,-289.1214)"
       gradientUnits="userSpaceOnUse"
       xlink:href="#linearGradient2955"
       id="radialGradient2289"
       fy="218.90099"
       fx="225.52438"
       r="300"
       cy="218.90099"
       cx="225.52438" />
    <clipPath
       id="clipPath2285">
      <path
         id="path2287"
         d="M 0,-200 L 0,600 L 300,600 L 300,-200 L 0,-200 z " />
    </clipPath>
    <polygon
       id="polygon2283"
       transform="scale(53,53)"
       points="0,-1 0.58778525,0.80901699 -0.95105652,-0.30901699 0.95105652,-0.30901699 -0.58778525,0.80901699 0,-1 " />
    <radialGradient
       gradientTransform="matrix(-4.167939e-4,2.182867,-1.884232,-3.599562e-4,615.5972,-289.1214)"
       gradientUnits="userSpaceOnUse"
       xlink:href="#linearGradient2955"
       id="radialGradient2281"
       fy="218.90099"
       fx="225.52438"
       r="300"
       cy="218.90099"
       cx="225.52438" />
    <linearGradient
       id="linearGradient2273">
      <stop
         id="stop2275"
         offset="0"
         style="stop-color:#fd0000;stop-opacity:1" />
      <stop
         id="stop2277"
         offset="0.5"
         style="stop-color:#e77275;stop-opacity:0.65882355" />
      <stop
         id="stop2279"
         offset="1"
         style="stop-color:black;stop-opacity:0.32291666" />
    </linearGradient>
    <linearGradient
       id="linearGradient2265">
      <stop
         id="stop2267"
         offset="0"
         style="stop-color:white;stop-opacity:1" />
      <stop
         id="stop2269"
         offset="0.22857143"
         style="stop-color:white;stop-opacity:1" />
      <stop
         id="stop2271"
         offset="1"
         style="stop-color:black;stop-opacity:1" />
    </linearGradient>
    <linearGradient
       id="linearGradient2255">
      <stop
         id="stop2257"
         offset="0"
         style="stop-color:white;stop-opacity:0.3137255" />
      <stop
         id="stop2259"
         offset="0.19"
         style="stop-color:white;stop-opacity:0.25098041" />
      <stop
         id="stop2261"
         offset="0.60000002"
         style="stop-color:#6b6b6b;stop-opacity:0.1254902" />
      <stop
         id="stop2263"
         offset="1"
         style="stop-color:black;stop-opacity:0.1254902" />
    </linearGradient>
    <radialGradient
       gradientTransform="matrix(0,1.386237,-1.323286,-5.741131e-8,-158.0823,-109.5408)"
       gradientUnits="userSpaceOnUse"
       xlink:href="#linearGradient2955"
       id="radialGradient2302"
       fy="218.90099"
       fx="225.52438"
       r="300"
       cy="218.90099"
       cx="225.52438" />
    <radialGradient
       gradientTransform="matrix(0,1.748721,-1.593162,-1.049767e-7,551.7876,-191.2898)"
       gradientUnits="userSpaceOnUse"
       xlink:href="#linearGradient2955"
       id="radialGradient2300"
       fy="218.90099"
       fx="225.52438"
       r="300"
       cy="218.90099"
       cx="225.52438" />
    <radialGradient
       gradientTransform="matrix(-4.167939e-4,2.182867,-1.884232,-3.599562e-4,615.5972,-289.1214)"
       gradientUnits="userSpaceOnUse"
       xlink:href="#linearGradient2955"
       id="radialGradient2298"
       fy="218.90099"
       fx="225.52438"
       r="300"
       cy="218.90099"
       cx="225.52438" />
    <clipPath
       id="clipPath2294">
      <path
         id="path2296"
         d="M 0,-200 L 0,600 L 300,600 L 300,-200 L 0,-200 z " />
    </clipPath>
    <polygon
       id="polygon2292"
       transform="scale(53,53)"
       points="0,-1 0.58778525,0.80901699 -0.95105652,-0.30901699 0.95105652,-0.30901699 -0.58778525,0.80901699 0,-1 " />
    <radialGradient
       gradientTransform="matrix(-4.167939e-4,2.182867,-1.884232,-3.599562e-4,615.5972,-289.1214)"
       gradientUnits="userSpaceOnUse"
       xlink:href="#linearGradient2955"
       id="radialGradient2290"
       fy="218.90099"
       fx="225.52438"
       r="300"
       cy="218.90099"
       cx="225.52438" />
    <linearGradient
       id="linearGradient2282">
      <stop
         id="stop2284"
         offset="0"
         style="stop-color:#fd0000;stop-opacity:1" />
      <stop
         id="stop2286"
         offset="0.5"
         style="stop-color:#e77275;stop-opacity:0.65882355" />
      <stop
         id="stop2288"
         offset="1"
         style="stop-color:black;stop-opacity:0.32291666" />
    </linearGradient>
    <linearGradient
       id="linearGradient2274">
      <stop
         id="stop2276"
         offset="0"
         style="stop-color:white;stop-opacity:1" />
      <stop
         id="stop2278"
         offset="0.22857143"
         style="stop-color:white;stop-opacity:1" />
      <stop
         id="stop2280"
         offset="1"
         style="stop-color:black;stop-opacity:1" />
    </linearGradient>
    <linearGradient
       id="linearGradient2263">
      <stop
         id="stop2265"
         offset="0"
         style="stop-color:white;stop-opacity:0.3137255" />
      <stop
         id="stop2268"
         offset="0.19"
         style="stop-color:white;stop-opacity:0.25098041" />
      <stop
         id="stop2270"
         offset="0.60000002"
         style="stop-color:#6b6b6b;stop-opacity:0.1254902" />
      <stop
         id="stop2272"
         offset="1"
         style="stop-color:black;stop-opacity:0.1254902" />
    </linearGradient>
  </defs>
  <g
     inkscape:groupmode="layer"
     id="layer3"
     inkscape:label="Fond écu"
     style="display:inline">
    <path
       id="path2855"
       style="fill:#2b5df2;fill-opacity:1;fill-rule:evenodd;stroke:none;stroke-width:1px;stroke-linecap:butt;stroke-linejoin:miter;stroke-opacity:1"
       d="M 300,658.5 C 300,658.5 598.50001,546.17969 598.50001,260.72817 C 598.50001,-24.723354 598.50001,2.1764765 598.50001,2.1764765 L 1.5,2.1764765 L 1.5,260.72817 C 1.5,546.17969 300,658.5 300,658.5 z "
       sodipodi:nodetypes="cccccc" />
    <g
       id="g2304"
       transform="translate(-3.6885849,43.790112)">
      <path
         id="rect4923"
         d="M 0,3.375078e-014 L 600,3.375078e-014 L 600,660 L 0,660 L 0,3.375078e-014 z "
         style="fill:none;fill-opacity:1;fill-rule:nonzero;stroke:none;stroke-width:7.56018829;stroke-linecap:round;stroke-linejoin:round;stroke-miterlimit:4;stroke-opacity:1" />
    </g>
    <path
       style="fill:#fcef3c;fill-opacity:1;stroke:#000000;stroke-width:3;stroke-miterlimit:4;stroke-dasharray:none;stroke-opacity:1"
       sodipodi:nodetypes="cccccccccccccccccccccccccccc"
       id="path1415"
       d="M 6.34874,264.46007 L 1.50005,288.29026 L 1.50005,264.46007 L 1.50005,244.93246 L 1.50005,219.71926 L 1.50005,210.02188 L 1.50005,184.80868 L 1.50005,175.11131 L 1.50005,160.56523 L 6.34874,160.56523 L 6.34874,175.11131 L 20.89481,175.11131 L 20.89481,184.80868 L 6.34874,184.80868 L 6.34874,210.02188 L 31.56193,210.02188 L 31.56193,195.4758 L 41.25931,195.4758 L 41.25931,210.02188 L 55.80538,210.02188 L 55.80538,219.71926 L 41.25931,219.71926 L 41.25931,234.26533 L 31.56193,234.26533 L 31.56193,219.71926 L 6.34874,219.71926 L 6.34874,244.93246 L 6.34874,264.46007 z " />
    <path
       style="fill:#fcef3c;fill-opacity:1;stroke:#000000;stroke-width:3;stroke-miterlimit:4;stroke-dasharray:none;stroke-opacity:1;display:inline"
       sodipodi:nodetypes="cccccccccccccccccccccccccccccccccccccccc"
       id="path4252"
       d="M 379.4425,132.5044 L 374.59381,156.33458 L 369.74512,132.5044 L 369.74512,112.9768 L 369.74512,87.763581 L 344.53192,87.763581 L 344.53192,102.30965 L 334.83454,102.30965 L 334.83454,87.763581 L 320.28847,87.763581 L 320.28847,78.066204 L 334.83454,78.066204 L 334.83454,63.520134 L 344.53192,63.520134 L 344.53192,78.066204 L 369.74512,78.066204 L 369.74512,52.853013 L 355.19904,52.853013 L 355.19904,43.155634 L 369.74512,43.155634 L 369.74512,28.609564 L 379.4425,28.609564 L 379.4425,43.155634 L 393.98857,43.155634 L 393.98857,52.853013 L 379.4425,52.853013 L 379.4425,78.066204 L 404.65569,78.066204 L 404.65569,63.520134 L 414.35307,63.520134 L 414.35307,78.066204 L 428.89914,78.066204 L 428.89914,87.763581 L 414.35307,87.763581 L 414.35307,102.30965 L 404.65569,102.30965 L 404.65569,87.763581 L 379.4425,87.763581 L 379.4425,112.9768 L 379.4425,132.5044 z " />
    <path
       style="fill:#fcef3c;fill-opacity:1;stroke:#000000;stroke-width:3;stroke-miterlimit:4;stroke-dasharray:none;stroke-opacity:1;display:inline"
       sodipodi:nodetypes="cccccccccccccccccccccccccccccccccccccccc"
       id="path4256"
       d="M 155.58625,264.46007 L 150.73757,288.29025 L 145.88887,264.46007 L 145.88887,244.93246 L 145.88887,219.71927 L 120.67569,219.71927 L 120.67569,234.26533 L 110.97831,234.26533 L 110.97831,219.71927 L 96.432241,219.71927 L 96.432241,210.02188 L 110.97831,210.02188 L 110.97831,195.47581 L 120.67569,195.47581 L 120.67569,210.02188 L 145.88887,210.02188 L 145.88887,184.80869 L 131.34281,184.80869 L 131.34281,175.11131 L 145.88887,175.11131 L 145.88887,160.56524 L 155.58625,160.56524 L 155.58625,175.11131 L 170.13233,175.11131 L 170.13233,184.80869 L 155.58625,184.80869 L 155.58625,210.02188 L 180.79945,210.02188 L 180.79945,195.47581 L 190.49683,195.47581 L 190.49683,210.02188 L 205.0429,210.02188 L 205.0429,219.71927 L 190.49683,219.71927 L 190.49683,234.26533 L 180.79945,234.26533 L 180.79945,219.71927 L 155.58625,219.71927 L 155.58625,244.93246 L 155.58625,264.46007 z " />
    <path
       style="fill:#fcef3c;fill-opacity:1;stroke:#000000;stroke-width:3;stroke-miterlimit:4;stroke-dasharray:none;stroke-opacity:1;display:inline"
       sodipodi:nodetypes="cccccccccccccccccccccccccccccccccccccccc"
       id="path4260"
       d="M 80.967493,132.5044 L 76.118813,156.33458 L 71.270113,132.5044 L 71.270113,112.97679 L 71.270113,87.76359 L 46.056933,87.76359 L 46.056933,102.30966 L 36.359553,102.30966 L 36.359553,87.76359 L 21.813483,87.76359 L 21.813483,78.066204 L 36.359553,78.066204 L 36.359553,63.520134 L 46.056933,63.520134 L 46.056933,78.066204 L 71.270113,78.066204 L 71.270113,52.853015 L 56.724053,52.853015 L 56.724053,43.155634 L 71.270113,43.155634 L 71.270113,28.609564 L 80.967493,28.609564 L 80.967493,43.155634 L 95.513571,43.155634 L 95.513571,52.853015 L 80.967493,52.853015 L 80.967493,78.066204 L 106.18069,78.066204 L 106.18069,63.520134 L 115.87807,63.520134 L 115.87807,78.066204 L 130.42414,78.066204 L 130.42414,87.76359 L 115.87807,87.76359 L 115.87807,102.30966 L 106.18069,102.30966 L 106.18069,87.76359 L 80.967493,87.76359 L 80.967493,112.97679 L 80.967493,132.5044 z " />
    <path
       style="fill:#fcef3c;fill-opacity:1;stroke:#000000;stroke-width:3;stroke-miterlimit:4;stroke-dasharray:none;stroke-opacity:1;display:inline"
       sodipodi:nodetypes="cccccccccccccccccccccccccccccccccccccccc"
       id="path4262"
       d="M 528.68002,132.50441 L 523.83134,156.33459 L 518.98264,132.50441 L 518.98264,112.9768 L 518.98264,87.76359 L 493.76946,87.76359 L 493.76946,102.30966 L 484.07208,102.30966 L 484.07208,87.76359 L 469.52601,87.76359 L 469.52601,78.066211 L 484.07208,78.066211 L 484.07208,63.520131 L 493.76946,63.520131 L 493.76946,78.066211 L 518.98264,78.066211 L 518.98264,52.853012 L 504.43658,52.853012 L 504.43658,43.155631 L 518.98264,43.155631 L 518.98264,28.609561 L 528.68002,28.609561 L 528.68002,43.155631 L 543.2261,43.155631 L 543.2261,52.853012 L 528.68002,52.853012 L 528.68002,78.066211 L 553.89322,78.066211 L 553.89322,63.520131 L 563.5906,63.520131 L 563.5906,78.066211 L 578.13667,78.066211 L 578.13667,87.76359 L 563.5906,87.76359 L 563.5906,102.30966 L 553.89322,102.30966 L 553.89322,87.76359 L 528.68002,87.76359 L 528.68002,112.9768 L 528.68002,132.50441 z " />
    <path
       style="fill:#fcef3c;fill-opacity:1;stroke:#000000;stroke-width:3;stroke-miterlimit:4;stroke-dasharray:none;stroke-opacity:1;display:inline"
       sodipodi:nodetypes="cccccccccccccccccccccccccccccccccccccccc"
       id="path4264"
       d="M 230.205,132.5044 L 225.35632,156.33458 L 220.50762,132.5044 L 220.50762,112.97679 L 220.50762,87.76359 L 195.29444,87.76359 L 195.29444,102.30966 L 185.59706,102.30966 L 185.59706,87.76359 L 171.05099,87.76359 L 171.05099,78.06621 L 185.59706,78.06621 L 185.59706,63.52014 L 195.29444,63.52014 L 195.29444,78.06621 L 220.50762,78.06621 L 220.50762,52.853021 L 205.96156,52.853021 L 205.96156,43.15564 L 220.50762,43.15564 L 220.50762,28.609571 L 230.205,28.609571 L 230.205,43.15564 L 244.75108,43.15564 L 244.75108,52.853021 L 230.205,52.853021 L 230.205,78.06621 L 255.4182,78.06621 L 255.4182,63.52014 L 265.11558,63.52014 L 265.11558,78.06621 L 279.66165,78.06621 L 279.66165,87.76359 L 265.11558,87.76359 L 265.11558,102.30966 L 255.4182,102.30966 L 255.4182,87.76359 L 230.205,87.76359 L 230.205,112.97679 L 230.205,132.5044 z " />
    <path
       style="fill:#fcef3c;fill-opacity:1;stroke:#000000;stroke-width:3;stroke-miterlimit:4;stroke-dasharray:none;stroke-opacity:1;display:inline"
       sodipodi:nodetypes="cccccccccccccccccccccccccccccccccccccccc"
       id="path4270"
       d="M 454.0613,264.46007 L 449.21262,288.29025 L 444.36392,264.46007 L 444.36392,244.93246 L 444.36392,219.71926 L 419.15074,219.71926 L 419.15074,234.26533 L 409.45336,234.26533 L 409.45336,219.71926 L 394.90729,219.71926 L 394.90729,210.02188 L 409.45336,210.02188 L 409.45336,195.47581 L 419.15074,195.47581 L 419.15074,210.02188 L 444.36392,210.02188 L 444.36392,184.80869 L 429.81786,184.80869 L 429.81786,175.11131 L 444.36392,175.11131 L 444.36392,160.56524 L 454.0613,160.56524 L 454.0613,175.11131 L 468.60738,175.11131 L 468.60738,184.80869 L 454.0613,184.80869 L 454.0613,210.02188 L 479.2745,210.02188 L 479.2745,195.47581 L 488.97188,195.47581 L 488.97188,210.02188 L 503.51795,210.02188 L 503.51795,219.71926 L 488.97188,219.71926 L 488.97188,234.26533 L 479.2745,234.26533 L 479.2745,219.71926 L 454.0613,219.71926 L 454.0613,244.93246 L 454.0613,264.46007 z " />
    <path
       style="fill:#fcef3c;fill-opacity:1;stroke:#000000;stroke-width:3;stroke-miterlimit:4;stroke-dasharray:none;stroke-opacity:1;display:inline"
       sodipodi:nodetypes="cccccccccccccccccccccccccccccccccccccccc"
       id="path4272"
       d="M 304.8238,264.46007 L 299.97512,288.29025 L 295.12642,264.46007 L 295.12642,244.93246 L 295.12642,219.71927 L 269.91324,219.71927 L 269.91324,234.26533 L 260.21586,234.26533 L 260.21586,219.71927 L 245.66979,219.71927 L 245.66979,210.02188 L 260.21586,210.02188 L 260.21586,195.47581 L 269.91324,195.47581 L 269.91324,210.02188 L 295.12642,210.02188 L 295.12642,184.80869 L 280.58036,184.80869 L 280.58036,175.11131 L 295.12642,175.11131 L 295.12642,160.56524 L 304.8238,160.56524 L 304.8238,175.11131 L 319.36988,175.11131 L 319.36988,184.80869 L 304.8238,184.80869 L 304.8238,210.02188 L 330.037,210.02188 L 330.037,195.47581 L 339.73438,195.47581 L 339.73438,210.02188 L 354.28045,210.02188 L 354.28045,219.71927 L 339.73438,219.71927 L 339.73438,234.26533 L 330.037,234.26533 L 330.037,219.71927 L 304.8238,219.71927 L 304.8238,244.93246 L 304.8238,264.46007 z " />
    <path
       style="fill:#fcef3c;fill-opacity:1;stroke:#000000;stroke-width:3;stroke-miterlimit:4;stroke-dasharray:none;stroke-opacity:1;display:inline"
       sodipodi:nodetypes="cccccccccccccccccccccccccccc"
       id="path4274"
       d="M 593.60146,264.46008 L 598.45015,288.29026 L 598.45015,264.46008 L 598.45015,244.93246 L 598.45015,219.71926 L 598.45015,210.02188 L 598.45015,184.80869 L 598.45015,175.11131 L 598.45015,160.56524 L 593.60146,160.56524 L 593.60146,175.11131 L 579.05539,175.11131 L 579.05539,184.80869 L 593.60146,184.80869 L 593.60146,210.02188 L 568.38827,210.02188 L 568.38827,195.4758 L 558.69089,195.4758 L 558.69089,210.02188 L 544.14482,210.02188 L 544.14482,219.71926 L 558.69089,219.71926 L 558.69089,234.26533 L 568.38827,234.26533 L 568.38827,219.71926 L 593.60146,219.71926 L 593.60146,244.93246 L 593.60146,264.46008 z " />
    <path
       style="fill:#fcef3c;fill-opacity:1;stroke:#000000;stroke-width:3;stroke-miterlimit:4;stroke-dasharray:none;stroke-opacity:1;display:inline"
       sodipodi:nodetypes="cccccccccccccccccccccccccccccccccccccccc"
       id="path4309"
       d="M 379.4425,395.1852 L 374.59381,419.01538 L 369.74512,395.1852 L 369.74512,375.6576 L 369.74512,350.44438 L 344.53192,350.44438 L 344.53192,364.99045 L 334.83454,364.99045 L 334.83454,350.44438 L 320.28847,350.44438 L 320.28847,340.747 L 334.83454,340.747 L 334.83454,326.20093 L 344.53192,326.20093 L 344.53192,340.747 L 369.74512,340.747 L 369.74512,315.53381 L 355.19904,315.53381 L 355.19904,305.83643 L 369.74512,305.83643 L 369.74512,291.29036 L 379.4425,291.29036 L 379.4425,305.83643 L 393.98857,305.83643 L 393.98857,315.53381 L 379.4425,315.53381 L 379.4425,340.747 L 404.65569,340.747 L 404.65569,326.20093 L 414.35307,326.20093 L 414.35307,340.747 L 428.89914,340.747 L 428.89914,350.44438 L 414.35307,350.44438 L 414.35307,364.99045 L 404.65569,364.99045 L 404.65569,350.44438 L 379.4425,350.44438 L 379.4425,375.6576 L 379.4425,395.1852 z " />
    <path
       style="fill:#fcef3c;fill-opacity:1;stroke:#000000;stroke-width:3;stroke-miterlimit:4;stroke-dasharray:none;stroke-opacity:1;display:inline"
       sodipodi:nodetypes="cccccccccccccccccccccccccccccccccccccccc"
       id="path4313"
       d="M 80.967493,395.1852 L 76.118813,419.01538 L 71.270113,395.1852 L 71.270113,375.65759 L 71.270113,350.44439 L 46.056933,350.44439 L 46.056933,364.99046 L 36.359553,364.99046 L 36.359553,350.44439 L 21.813483,350.44439 L 21.813483,340.747 L 36.359553,340.747 L 36.359553,326.20093 L 46.056933,326.20093 L 46.056933,340.747 L 71.270113,340.747 L 71.270113,315.53381 L 56.724053,315.53381 L 56.724053,305.83643 L 71.270113,305.83643 L 71.270113,291.29036 L 80.967493,291.29036 L 80.967493,305.83643 L 95.513571,305.83643 L 95.513571,315.53381 L 80.967493,315.53381 L 80.967493,340.747 L 106.18069,340.747 L 106.18069,326.20093 L 115.87807,326.20093 L 115.87807,340.747 L 130.42414,340.747 L 130.42414,350.44439 L 115.87807,350.44439 L 115.87807,364.99046 L 106.18069,364.99046 L 106.18069,350.44439 L 80.967493,350.44439 L 80.967493,375.65759 L 80.967493,395.1852 z " />
    <path
       style="fill:#fcef3c;fill-opacity:1;stroke:#000000;stroke-width:3;stroke-miterlimit:4;stroke-dasharray:none;stroke-opacity:1;display:inline"
       sodipodi:nodetypes="cccccccccccccccccccccccccccccccccccccccc"
       id="path4315"
       d="M 528.68002,395.18521 L 523.83134,419.01539 L 518.98264,395.18521 L 518.98264,375.6576 L 518.98264,350.44439 L 493.76946,350.44439 L 493.76946,364.99046 L 484.07208,364.99046 L 484.07208,350.44439 L 469.52601,350.44439 L 469.52601,340.74701 L 484.07208,340.74701 L 484.07208,326.20093 L 493.76946,326.20093 L 493.76946,340.74701 L 518.98264,340.74701 L 518.98264,315.53381 L 504.43658,315.53381 L 504.43658,305.83643 L 518.98264,305.83643 L 518.98264,291.29036 L 528.68002,291.29036 L 528.68002,305.83643 L 543.2261,305.83643 L 543.2261,315.53381 L 528.68002,315.53381 L 528.68002,340.74701 L 553.89322,340.74701 L 553.89322,326.20093 L 563.5906,326.20093 L 563.5906,340.74701 L 578.13667,340.74701 L 578.13667,350.44439 L 563.5906,350.44439 L 563.5906,364.99046 L 553.89322,364.99046 L 553.89322,350.44439 L 528.68002,350.44439 L 528.68002,375.6576 L 528.68002,395.18521 z " />
    <path
       style="fill:#fcef3c;fill-opacity:1;stroke:#000000;stroke-width:3;stroke-miterlimit:4;stroke-dasharray:none;stroke-opacity:1;display:inline"
       sodipodi:nodetypes="cccccccccccccccccccccccccccccccccccccccc"
       id="path4317"
       d="M 230.205,395.1852 L 225.35632,419.01538 L 220.50762,395.1852 L 220.50762,375.65759 L 220.50762,350.44439 L 195.29444,350.44439 L 195.29444,364.99046 L 185.59706,364.99046 L 185.59706,350.44439 L 171.05099,350.44439 L 171.05099,340.74701 L 185.59706,340.74701 L 185.59706,326.20094 L 195.29444,326.20094 L 195.29444,340.74701 L 220.50762,340.74701 L 220.50762,315.53382 L 205.96156,315.53382 L 205.96156,305.83644 L 220.50762,305.83644 L 220.50762,291.29037 L 230.205,291.29037 L 230.205,305.83644 L 244.75108,305.83644 L 244.75108,315.53382 L 230.205,315.53382 L 230.205,340.74701 L 255.4182,340.74701 L 255.4182,326.20094 L 265.11558,326.20094 L 265.11558,340.74701 L 279.66165,340.74701 L 279.66165,350.44439 L 265.11558,350.44439 L 265.11558,364.99046 L 255.4182,364.99046 L 255.4182,350.44439 L 230.205,350.44439 L 230.205,375.65759 L 230.205,395.1852 z " />
    <path
       style="fill:#fcef3c;fill-opacity:1;stroke:#000000;stroke-width:3;stroke-miterlimit:4;stroke-dasharray:none;stroke-opacity:1;display:inline"
       sodipodi:nodetypes="cccccccccccccccccccccccccccccccccccccccc"
       id="path4311"
       d="M 155.5863,527.49435 L 150.73762,551.32452 L 145.88892,527.49435 L 145.88892,507.96674 L 145.88892,482.75355 L 120.67574,482.75355 L 120.67574,497.29961 L 110.97836,497.29961 L 110.97836,482.75355 L 96.432291,482.75355 L 96.432291,473.05616 L 110.97836,473.05616 L 110.97836,458.51009 L 120.67574,458.51009 L 120.67574,473.05616 L 145.88892,473.05616 L 145.88892,447.84297 L 131.34286,447.84297 L 131.34286,438.14559 L 145.88892,438.14559 L 145.88892,423.59952 L 155.5863,423.59952 L 155.5863,438.14559 L 170.13238,438.14559 L 170.13238,447.84297 L 155.5863,447.84297 L 155.5863,473.05616 L 180.7995,473.05616 L 180.7995,458.51009 L 190.49688,458.51009 L 190.49688,473.05616 L 205.04295,473.05616 L 205.04295,482.75355 L 190.49688,482.75355 L 190.49688,497.29961 L 180.7995,497.29961 L 180.7995,482.75355 L 155.5863,482.75355 L 155.5863,507.96674 L 155.5863,527.49435 z " />
    <path
       style="fill:#fcef3c;fill-opacity:1;stroke:#000000;stroke-width:3;stroke-miterlimit:4;stroke-dasharray:none;stroke-opacity:1;display:inline"
       sodipodi:nodetypes="cccccccccccccccccccccccccccccccccccccccc"
       id="path4319"
       d="M 454.06135,527.49435 L 449.21267,551.32452 L 444.36397,527.49435 L 444.36397,507.96674 L 444.36397,482.75354 L 419.15079,482.75354 L 419.15079,497.29961 L 409.45341,497.29961 L 409.45341,482.75354 L 394.90734,482.75354 L 394.90734,473.05616 L 409.45341,473.05616 L 409.45341,458.51009 L 419.15079,458.51009 L 419.15079,473.05616 L 444.36397,473.05616 L 444.36397,447.84297 L 429.81791,447.84297 L 429.81791,438.14559 L 444.36397,438.14559 L 444.36397,423.59952 L 454.06135,423.59952 L 454.06135,438.14559 L 468.60743,438.14559 L 468.60743,447.84297 L 454.06135,447.84297 L 454.06135,473.05616 L 479.27455,473.05616 L 479.27455,458.51009 L 488.97193,458.51009 L 488.97193,473.05616 L 503.518,473.05616 L 503.518,482.75354 L 488.97193,482.75354 L 488.97193,497.29961 L 479.27455,497.29961 L 479.27455,482.75354 L 454.06135,482.75354 L 454.06135,507.96674 L 454.06135,527.49435 z " />
    <path
       style="fill:#fcef3c;fill-opacity:1;stroke:#000000;stroke-width:3;stroke-miterlimit:4;stroke-dasharray:none;stroke-opacity:1;display:inline"
       sodipodi:nodetypes="cccccccccccccccccccccccccccccccccccccccc"
       id="path4321"
       d="M 304.82385,527.49435 L 299.97517,551.32452 L 295.12647,527.49435 L 295.12647,507.96674 L 295.12647,482.75355 L 269.91329,482.75355 L 269.91329,497.29961 L 260.21591,497.29961 L 260.21591,482.75355 L 245.66984,482.75355 L 245.66984,473.05616 L 260.21591,473.05616 L 260.21591,458.51009 L 269.91329,458.51009 L 269.91329,473.05616 L 295.12647,473.05616 L 295.12647,447.84297 L 280.58041,447.84297 L 280.58041,438.14559 L 295.12647,438.14559 L 295.12647,423.59952 L 304.82385,423.59952 L 304.82385,438.14559 L 319.36993,438.14559 L 319.36993,447.84297 L 304.82385,447.84297 L 304.82385,473.05616 L 330.03705,473.05616 L 330.03705,458.51009 L 339.73443,458.51009 L 339.73443,473.05616 L 354.2805,473.05616 L 354.2805,482.75355 L 339.73443,482.75355 L 339.73443,497.29961 L 330.03705,497.29961 L 330.03705,482.75355 L 304.82385,482.75355 L 304.82385,507.96674 L 304.82385,527.49435 z " />
    <g
       id="g2305"
       transform="translate(-6.914695,20)">
      <g
         id="g2402"
         transform="matrix(2.1034943,0,0,2.1034943,54.45624,61.406416)">
        <path
           sodipodi:nodetypes="csssssssssccscccccsssscccssssssssssssssssssccsssc"
           style="fill:#fcef3c"
           d="M 62.2941,184.75989 C 58.90876,183.89779 49.87392,176.42751 48.52808,173.37774 C 47.31212,170.62226 46.97193,170.47978 43.02045,171.07093 C 37.24618,171.93477 29.73207,168.44319 29.73207,164.89621 C 29.73207,162.94722 30.24627,162.48542 32.41635,162.48542 C 37.61666,162.48542 43.02958,158.83505 46.39002,153.06184 C 50.15087,146.60075 51.2488,143.24513 52.58427,134.13033 C 53.73636,126.26712 53.29526,124.17188 50.66362,125.00714 C 49.17184,125.48062 43.64757,123.50541 41.7924,121.83524 C 41.55058,121.61753 42.33808,120.74924 43.5424,119.90572 C 44.74672,119.06217 46.41775,117.87154 46.41775,116.80273 C 50.31357,106.52472 53.27504,94.03122 50.11859,82.698693 C 49.49168,82.489724 47.73207,80.631248 47.73207,78.568748 C 47.73207,73.697376 46.88691,72.991323 44.14226,75.569789 L 41.9664,76.363437 L 38.84175,75.408382 L 37.71178,72.957304 L 39.25575,66.597586 C 43.02579,59.49772 43.39474,56.452206 41.63968,46.919074 C 40.12669,38.700817 38.11744,36.408677 36.2192,40.735415 C 35.67628,41.972915 34.21957,43.129213 32.98207,43.304966 C 31.53611,43.510325 30.73207,44.314367 30.73207,45.554966 C 30.73207,47.033243 30.02937,47.485415 27.73207,47.485415 L 24.73207,47.485415 L 24.73207,38.485415 C 24.73207,30.485415 24.53207,29.485415 22.93207,29.485415 C 19.11355,29.485415 17.51707,25.557559 20.23207,22.842558 C 22.49973,20.574895 22.0735,19.526019 18.23207,17.920968 C 12.9548,15.715984 13.58107,13.175169 20.17014,10.058036 C 27.22743,6.719408 38.77915,6.420836 44.52191,9.428628 C 49.41706,11.992482 68.71345,31.89117 71.24461,36.985415 C 72.33771,39.185415 74.62886,43.253926 76.33604,46.026552 C 83.36229,57.437827 84.60123,63.648941 79.98207,64.304966 C 78.27059,64.548034 77.73207,64.129182 77.73207,62.554966 C 77.73207,61.105437 77.08943,60.485415 75.58703,60.485415 C 73.5298,60.485415 73.46919,60.782169 74.10645,67.735415 C 74.4719,71.722915 75.21392,86.68542 75.75538,100.98542 C 76.29685,115.28542 77.17339,130.13542 77.70325,133.98542 C 79.28137,145.45211 79.07536,148.48542 76.7185,148.48542 C 75.61104,148.48542 73.92354,148.06827 72.9685,147.55842 C 72.01346,147.04857 70.40185,146.37129 69.38713,146.05337 C 68.37241,145.73545 67.30262,144.5592 67.00981,143.43948 C 66.31143,140.7689 64.32612,141.48348 63.88625,144.56375 C 63.69605,145.89567 63.09316,147.5302 62.54649,148.19604 C 59.6925,155.72016 57.83784,158.93353 57.73207,165.73077 C 57.73207,171.22433 58.13351,172.6795 60.48207,175.69907 C 61.99457,177.64372 64.69457,180.19532 66.48207,181.3693 C 68.26957,182.54328 69.73207,183.94967 69.73207,184.49461 C 69.73207,185.50639 65.77909,185.64738 62.2941,184.75989 z "
           id="path1933" />
        <path
           sodipodi:nodetypes="csssssssssccsccccccssssccsssccccssssssssscccsssssssssssssssssccssssssssssssscccccccsssscccsssssssssssssssssccsssccscccssssccsssssssccsssccssssssssccsssccssssccssccsssccssssssc"
           style="fill:#000000;fill-opacity:1"
           d="M 62.29411,184.75989 C 58.90877,183.89779 49.87393,176.42751 48.52809,173.37774 C 47.31213,170.62226 46.97194,170.47978 43.02046,171.07093 C 37.24619,171.93477 29.73207,168.44319 29.73207,164.89621 C 29.73207,162.94723 30.24627,162.48542 32.41635,162.48542 C 37.61667,162.48542 43.02958,158.83505 46.39003,153.06184 C 50.15088,146.60075 51.24881,143.24513 52.58427,134.13033 C 53.73637,126.26712 53.29527,124.17189 50.66363,125.00714 C 49.17185,125.48062 43.64758,123.50542 41.79241,121.83524 C 41.55059,121.61754 42.33809,120.74925 43.54241,119.90572 C 44.74673,119.06218 46.16842,117.6222 46.16842,116.55339 C 52.86923,100.92109 48.44297,116.04934 47.15078,118.97949 C 45.96332,121.2683 45.92414,121.99303 46.95195,122.65653 C 49.13641,124.0667 50.92198,123.12313 52.95287,119.48542 L 54.90688,115.98542 L 54.44842,130.44244 C 54.11092,136.10883 54.60256,143.92397 51.7235,148.99576 C 50.77718,150.136 51.10636,150.90329 53.38137,152.86019 C 58.24887,157.47008 59.35125,149.36623 60.96848,145.48542 C 64.11719,138.58358 65.73208,134.67092 65.73208,133.94382 C 65.73208,133.3086 69.61291,124.79085 70.46674,123.55209 C 70.63101,123.31375 71.24486,123.5982 71.83085,124.18419 C 72.56171,124.91506 72.57736,125.83618 71.88069,127.11752 C 70.48027,129.6932 68.4891,141.28327 69.23868,142.49609 C 71.65105,143.53251 73.82806,145.77979 76.31189,146.23893 C 76.62406,145.92677 76.17129,138.87543 75.30577,130.56927 C 74.44024,122.26311 73.69866,109.05877 73.6578,101.22629 C 73.57954,86.22375 71.59212,61.740679 69.90416,54.985413 C 69.35444,52.785413 67.74084,47.679808 66.31838,43.639623 C 65.39265,38.002051 63.5383,33.721536 60.55927,28.007064 C 56.21978,22.250669 50.591,14.900825 44.00771,11.355123 C 37.24307,8.302071 35.81921,7.598631 24.35873,10.179662 C 22.29623,10.541317 20.15023,12.390194 18.82798,13.22167 C 16.53488,14.66365 16.5118,14.780191 18.32798,15.745998 C 24.32766,18.936498 27.20669,25.485413 22.60963,25.485413 C 20.87531,25.485413 20.70581,25.748849 21.68274,26.925972 C 23.18462,28.735633 24.98483,28.087693 26.25319,25.280946 C 26.79158,24.089565 27.79457,22.935687 28.48207,22.716772 C 30.48793,22.078065 29.93018,25.996147 27.73207,27.985413 C 26.03379,29.522335 25.73207,31.06538 25.73207,38.213725 C 25.73207,45.691456 25.9276,46.594832 27.48207,46.298859 C 28.9297,46.02323 29.32947,44.498703 29.79577,37.475535 L 30.35946,28.985413 L 30.54577,35.804964 C 30.72212,42.260139 30.85229,42.607441 32.98207,42.304964 C 34.62063,42.072252 35.32125,41.204988 35.56025,39.113591 C 35.74075,37.534088 35.40325,35.756588 34.81025,35.163591 C 33.25364,33.606979 33.40258,27.199379 34.98207,27.771592 C 35.66957,28.020657 37.02233,27.535916 37.9882,26.694389 C 40.89299,24.163566 41.14923,26.159169 38.28699,29.021398 C 34.59779,32.710605 35.5925,34.315173 39.52003,31.010384 C 42.0953,28.843437 42.73208,27.556539 42.73208,24.518964 C 42.73208,19.377083 40.5808,17.636693 37.73842,20.479078 C 35.02469,23.192797 30.60422,22.833283 29.26854,19.790229 C 28.73861,18.582879 27.27611,17.336805 26.01854,17.021177 C 24.76098,16.70555 23.73207,16.03244 23.73207,15.525378 C 23.73207,14.071751 25.60943,13.288661 26.98207,14.16973 C 29.32313,15.672414 37.22511,17.339918 37.5654,16.403067 C 38.1085,14.907961 42.38115,15.357646 43.79271,17.058473 C 46.04017,19.766492 45.01072,27.575423 41.98991,30.733656 C 39.46803,33.370276 38.18214,37.485413 39.88015,37.485413 C 40.32774,37.485413 40.97633,38.610413 41.32144,39.985413 C 43.873801,44.267702 44.559422,48.603445 44.28391,53.735413 C 43.745,60.029037 42.8879,63.266065 40.66946,67.385901 C 37.95071,72.43487 37.87438,72.872156 39.49675,74.104096 C 41.95119,75.967856 42.33739,75.848446 44.73208,72.485413 C 45.90697,70.835413 47.27213,69.485413 47.76573,69.485413 C 48.25934,69.485413 48.99315,71.847913 49.39643,74.735416 C 49.79971,77.622916 50.2982,79.197916 50.5042,78.235416 C 50.71019,77.272916 51.29573,76.485416 51.8054,76.485416 C 53.036,76.485416 52.99415,79.823346 51.74793,81.069556 C 50.58166,82.235836 52.60466,99.64067 54.01853,100.60458 C 54.87376,101.18764 53.23473,115.31611 52.19074,116.3601 C 51.05329,117.49754 50.42521,115.20644 51.43236,113.59374 C 52.05088,112.60334 52.63994,110.0363 52.7414,107.88922 C 52.99737,102.47215 52.86189,101.48542 51.86212,101.48542 C 51.06366,101.48542 50.08894,109.90108 49.05876,113.91977 C 45.34628,120.58952 46.73387,115.11996 48.11846,111.73542 C 50.17892,102.5893 50.77947,96.17012 50.17656,89.73623 C 50.53184,85.57966 47.87797,82.553327 47.73208,78.652076 C 47.73208,73.697096 46.08765,73.853605 43.33193,76.442465 C 41.18671,77.911689 40.27545,76.468058 38.84176,75.408376 C 35.88881,74.502153 36.97535,69.12022 39.25576,66.597584 C 43.0258,59.497718 43.39475,56.452204 41.63969,46.919072 C 40.1267,38.700815 38.11745,36.408675 36.2192,40.735413 C 35.67628,41.972913 34.21957,43.129211 32.98207,43.304964 C 31.53611,43.510323 30.73207,44.314365 30.73207,45.554964 C 30.73207,47.033241 30.02937,47.485413 27.73207,47.485413 L 24.73207,47.485413 L 24.73207,38.485413 C 24.73207,30.485413 24.53207,29.485413 22.93207,29.485413 C 19.11355,29.485413 17.51707,25.557557 20.23207,22.842556 C 22.49973,20.574893 22.0735,19.526017 18.23207,17.920966 C 12.9548,15.715982 13.58107,13.175167 20.17014,10.058034 C 27.22743,6.719406 38.77916,6.420834 44.52192,9.428626 C 49.41707,11.99248 68.71346,31.891168 71.24462,36.985413 C 72.33772,39.185413 74.62887,43.253924 76.33605,46.02655 C 83.3623,57.437825 84.60124,63.648939 79.98208,64.304964 C 78.2706,64.548032 77.73208,64.12918 77.73208,62.554964 C 77.73208,61.105435 77.08943,60.485413 75.58704,60.485413 C 73.52981,60.485413 73.4692,60.782167 74.10645,67.735413 C 74.4719,71.722913 75.21393,86.68542 75.75538,100.98542 C 76.29685,115.28542 77.1734,130.13542 77.70326,133.98542 C 79.28138,145.45211 79.07537,148.48542 76.7185,148.48542 C 75.61104,148.48542 73.92354,148.06827 72.9685,147.55842 C 72.01346,147.04857 70.40186,146.3713 69.38714,146.05337 C 68.37241,145.73545 67.30263,144.5592 67.00982,143.43948 C 66.31144,140.7689 64.32612,141.48348 63.88626,144.56375 C 62.04739,151.63305 59.18566,158.50349 57.73208,165.73077 C 57.73208,171.22433 58.13351,172.6795 60.48208,175.69907 C 61.99457,177.64372 64.69457,180.19532 66.48208,181.3693 C 68.26958,182.54328 69.73208,183.94967 69.73208,184.49461 C 69.73208,185.50639 65.77909,185.64738 62.29411,184.75989 z M 62.72844,181.22481 C 62.34812,179.98731 57.67991,174.2178 56.69723,173.2796 C 55.34481,171.98838 55.04041,170.6055 55.44488,167.59 C 59.86658,152.86296 49.30353,152.59657 47.98208,155.63043 C 46.17144,159.10529 41.24535,162.92135 37.1628,163.93244 C 33.09238,164.69605 32.83196,165.84954 36.22767,168.07449 C 39.21557,170.03224 45.43207,169.24107 47.40066,166.65252 C 48.50336,165.20253 48.68092,165.44123 48.76403,168.48542 C 48.84244,171.3575 49.66772,172.65819 53.36414,175.73542 C 58.53887,180.04333 63.72055,184.4531 62.72844,181.22481 z M 80.73208,60.068318 C 80.73208,56.880241 77.45418,49.329601 75.2907,47.534064 C 74.34765,46.751401 72.42541,43.832775 71.01905,41.048227 C 68.38121,35.825414 64.69522,30.538963 64.78026,32.100554 C 64.80676,32.587227 66.94835,38.835413 69.53935,45.985413 C 73.8053,57.757557 74.46191,58.955863 76.49117,58.672555 C 78.18928,58.435477 78.73208,58.859364 78.73208,60.422555 C 78.73208,61.557127 79.18207,62.485413 79.73208,62.485413 C 80.28208,62.485413 80.73208,61.39772 80.73208,60.068318 z M 33.73207,19.485413 C 33.73207,18.935413 33.28207,18.485413 32.73207,18.485413 C 32.18207,18.485413 31.73207,18.935413 31.73207,19.485413 C 31.73207,20.035413 32.18207,20.485413 32.73207,20.485413 C 33.28207,20.485413 33.73207,20.035413 33.73207,19.485413 z M 57.10838,139.02366 C 56.79987,138.21969 57.25209,136.14939 58.11333,134.423 C 58.97457,132.6966 59.98444,129.65714 60.35748,127.66862 C 60.73054,125.68011 61.91924,122.05589 62.99905,119.61479 C 64.76959,115.61219 64.91741,113.49805 64.50463,98.08093 C 64.25288,88.6784 64.22201,84.358836 64.43599,88.48192 C 64.64999,92.605 65.25416,96.4075 65.77857,96.93192 C 68.38553,99.53887 66.02965,122.18925 62.23666,130.98542 C 61.52517,132.63542 60.63482,135.44792 60.2581,137.23542 C 59.53813,140.65167 58.05601,141.49314 57.10838,139.02366 z M 56.32988,82.735416 C 55.28953,71.679611 54.84239,63.812593 55.40627,66.485413 C 55.69637,67.860413 56.28052,69.210413 56.7044,69.485413 C 57.90231,70.262572 59.09172,89.48542 57.94189,89.48542 C 57.40465,89.48542 56.67924,86.44792 56.32988,82.735416 z M 67.73208,73.652076 C 67.73208,71.910413 67.34415,70.485413 66.87,70.485413 C 66.39587,70.485413 65.69729,67.057359 65.31763,62.867516 C 64.70567,56.114288 63.83228,53.66258 57.62292,41.267515 C 53.05117,32.141412 50.72508,26.365063 50.92531,24.635412 C 51.17829,22.450002 51.97717,23.515828 55.48208,30.714851 C 57.36672,35.230656 59.18817,39.419582 62.03109,43.235413 C 62.32384,44.197913 63.44977,47.313017 64.53316,50.157866 C 66.50538,55.336717 69.37051,75.180316 68.3005,76.250316 C 67.98788,76.562956 67.73208,75.393746 67.73208,73.652076 z M 42.05079,70.360413 C 42.36359,69.604163 43.65733,65.727125 44.92579,61.744773 C 47.02751,55.146397 48.73208,52.479942 48.73208,55.790626 C 48.73208,58.590029 44.01513,70.891064 42.78435,71.301322 C 41.98968,71.566212 41.70376,71.199462 42.05079,70.360413 z M 52.97699,59.233906 C 52.37671,57.997235 51.14933,53.610413 50.24948,49.485413 C 49.34963,45.360413 48.15891,41.154093 47.60345,40.138034 C 47.04798,39.121976 46.84967,38.034476 47.16279,37.721368 C 48.12238,36.761782 48.8686,38.138279 49.83875,42.657549 C 50.34975,45.037874 51.18355,47.885413 51.69164,48.985413 C 52.68162,51.12869 54.76391,60.786919 54.32963,61.221193 C 54.18597,61.364857 53.57729,60.470578 52.97699,59.233906 z "
           id="path1927" />
      </g>
      <g
         id="g2298"
         transform="matrix(-2.1034943,0,0,2.1034943,559.37316,61.406416)"
         style="display:inline">
        <path
           sodipodi:nodetypes="csssssssssccscccccsssscccssssssssssssssssssccsssc"
           style="fill:#fcef3c"
           d="M 62.2941,184.75989 C 58.90876,183.89779 49.87392,176.42751 48.52808,173.37774 C 47.31212,170.62226 46.97193,170.47978 43.02045,171.07093 C 37.24618,171.93477 29.73207,168.44319 29.73207,164.89621 C 29.73207,162.94722 30.24627,162.48542 32.41635,162.48542 C 37.61666,162.48542 43.02958,158.83505 46.39002,153.06184 C 50.15087,146.60075 51.2488,143.24513 52.58427,134.13033 C 53.73636,126.26712 53.29526,124.17188 50.66362,125.00714 C 49.17184,125.48062 43.64757,123.50541 41.7924,121.83524 C 41.55058,121.61753 42.33808,120.74924 43.5424,119.90572 C 44.74672,119.06217 46.41775,117.87154 46.41775,116.80273 C 50.31357,106.52472 53.27504,94.03122 50.11859,82.698693 C 49.49168,82.489724 47.73207,80.631248 47.73207,78.568748 C 47.73207,73.697376 46.88691,72.991323 44.14226,75.569789 L 41.9664,76.363437 L 38.84175,75.408382 L 37.71178,72.957304 L 39.25575,66.597586 C 43.02579,59.49772 43.39474,56.452206 41.63968,46.919074 C 40.12669,38.700817 38.11744,36.408677 36.2192,40.735415 C 35.67628,41.972915 34.21957,43.129213 32.98207,43.304966 C 31.53611,43.510325 30.73207,44.314367 30.73207,45.554966 C 30.73207,47.033243 30.02937,47.485415 27.73207,47.485415 L 24.73207,47.485415 L 24.73207,38.485415 C 24.73207,30.485415 24.53207,29.485415 22.93207,29.485415 C 19.11355,29.485415 17.51707,25.557559 20.23207,22.842558 C 22.49973,20.574895 22.0735,19.526019 18.23207,17.920968 C 12.9548,15.715984 13.58107,13.175169 20.17014,10.058036 C 27.22743,6.719408 38.77915,6.420836 44.52191,9.428628 C 49.41706,11.992482 68.71345,31.89117 71.24461,36.985415 C 72.33771,39.185415 74.62886,43.253926 76.33604,46.026552 C 83.36229,57.437827 84.60123,63.648941 79.98207,64.304966 C 78.27059,64.548034 77.73207,64.129182 77.73207,62.554966 C 77.73207,61.105437 77.08943,60.485415 75.58703,60.485415 C 73.5298,60.485415 73.46919,60.782169 74.10645,67.735415 C 74.4719,71.722915 75.21392,86.68542 75.75538,100.98542 C 76.29685,115.28542 77.17339,130.13542 77.70325,133.98542 C 79.28137,145.45211 79.07536,148.48542 76.7185,148.48542 C 75.61104,148.48542 73.92354,148.06827 72.9685,147.55842 C 72.01346,147.04857 70.40185,146.37129 69.38713,146.05337 C 68.37241,145.73545 67.30262,144.5592 67.00981,143.43948 C 66.31143,140.7689 64.32612,141.48348 63.88625,144.56375 C 63.69605,145.89567 63.09316,147.5302 62.54649,148.19604 C 59.6925,155.72016 57.83784,158.93353 57.73207,165.73077 C 57.73207,171.22433 58.13351,172.6795 60.48207,175.69907 C 61.99457,177.64372 64.69457,180.19532 66.48207,181.3693 C 68.26957,182.54328 69.73207,183.94967 69.73207,184.49461 C 69.73207,185.50639 65.77909,185.64738 62.2941,184.75989 z "
           id="path2300" />
        <path
           sodipodi:nodetypes="csssssssssccsccccccssssccsssccccssssssssscccsssssssssssssssssccssssssssssssscccccccsssscccsssssssssssssssssccsssccscccssssccsssssssccsssccssssssssccsssccssssccssccsssccssssssc"
           style="fill:#000000;fill-opacity:1"
           d="M 62.29411,184.75989 C 58.90877,183.89779 49.87393,176.42751 48.52809,173.37774 C 47.31213,170.62226 46.97194,170.47978 43.02046,171.07093 C 37.24619,171.93477 29.73207,168.44319 29.73207,164.89621 C 29.73207,162.94723 30.24627,162.48542 32.41635,162.48542 C 37.61667,162.48542 43.02958,158.83505 46.39003,153.06184 C 50.15088,146.60075 51.24881,143.24513 52.58427,134.13033 C 53.73637,126.26712 53.29527,124.17189 50.66363,125.00714 C 49.17185,125.48062 43.64758,123.50542 41.79241,121.83524 C 41.55059,121.61754 42.33809,120.74925 43.54241,119.90572 C 44.74673,119.06218 46.16842,117.6222 46.16842,116.55339 C 52.86923,100.92109 48.44297,116.04934 47.15078,118.97949 C 45.96332,121.2683 45.92414,121.99303 46.95195,122.65653 C 49.13641,124.0667 50.92198,123.12313 52.95287,119.48542 L 54.90688,115.98542 L 54.44842,130.44244 C 54.11092,136.10883 54.60256,143.92397 51.7235,148.99576 C 50.77718,150.136 51.10636,150.90329 53.38137,152.86019 C 58.24887,157.47008 59.35125,149.36623 60.96848,145.48542 C 64.11719,138.58358 65.73208,134.67092 65.73208,133.94382 C 65.73208,133.3086 69.61291,124.79085 70.46674,123.55209 C 70.63101,123.31375 71.24486,123.5982 71.83085,124.18419 C 72.56171,124.91506 72.57736,125.83618 71.88069,127.11752 C 70.48027,129.6932 68.4891,141.28327 69.23868,142.49609 C 71.65105,143.53251 73.82806,145.77979 76.31189,146.23893 C 76.62406,145.92677 76.17129,138.87543 75.30577,130.56927 C 74.44024,122.26311 73.69866,109.05877 73.6578,101.22629 C 73.57954,86.22375 71.59212,61.740679 69.90416,54.985413 C 69.35444,52.785413 67.74084,47.679808 66.31838,43.639623 C 65.39265,38.002051 63.5383,33.721536 60.55927,28.007064 C 56.21978,22.250669 50.591,14.900825 44.00771,11.355123 C 37.24307,8.302071 35.81921,7.598631 24.35873,10.179662 C 22.29623,10.541317 20.15023,12.390194 18.82798,13.22167 C 16.53488,14.66365 16.5118,14.780191 18.32798,15.745998 C 24.32766,18.936498 27.20669,25.485413 22.60963,25.485413 C 20.87531,25.485413 20.70581,25.748849 21.68274,26.925972 C 23.18462,28.735633 24.98483,28.087693 26.25319,25.280946 C 26.79158,24.089565 27.79457,22.935687 28.48207,22.716772 C 30.48793,22.078065 29.93018,25.996147 27.73207,27.985413 C 26.03379,29.522335 25.73207,31.06538 25.73207,38.213725 C 25.73207,45.691456 25.9276,46.594832 27.48207,46.298859 C 28.9297,46.02323 29.32947,44.498703 29.79577,37.475535 L 30.35946,28.985413 L 30.54577,35.804964 C 30.72212,42.260139 30.85229,42.607441 32.98207,42.304964 C 34.62063,42.072252 35.32125,41.204988 35.56025,39.113591 C 35.74075,37.534088 35.40325,35.756588 34.81025,35.163591 C 33.25364,33.606979 33.40258,27.199379 34.98207,27.771592 C 35.66957,28.020657 37.02233,27.535916 37.9882,26.694389 C 40.89299,24.163566 41.14923,26.159169 38.28699,29.021398 C 34.59779,32.710605 35.5925,34.315173 39.52003,31.010384 C 42.0953,28.843437 42.73208,27.556539 42.73208,24.518964 C 42.73208,19.377083 40.5808,17.636693 37.73842,20.479078 C 35.02469,23.192797 30.60422,22.833283 29.26854,19.790229 C 28.73861,18.582879 27.27611,17.336805 26.01854,17.021177 C 24.76098,16.70555 23.73207,16.03244 23.73207,15.525378 C 23.73207,14.071751 25.60943,13.288661 26.98207,14.16973 C 29.32313,15.672414 37.22511,17.339918 37.5654,16.403067 C 38.1085,14.907961 42.38115,15.357646 43.79271,17.058473 C 46.04017,19.766492 45.01072,27.575423 41.98991,30.733656 C 39.46803,33.370276 38.18214,37.485413 39.88015,37.485413 C 40.32774,37.485413 40.97633,38.610413 41.32144,39.985413 C 43.873801,44.267702 44.559422,48.603445 44.28391,53.735413 C 43.745,60.029037 42.8879,63.266065 40.66946,67.385901 C 37.95071,72.43487 37.87438,72.872156 39.49675,74.104096 C 41.95119,75.967856 42.33739,75.848446 44.73208,72.485413 C 45.90697,70.835413 47.27213,69.485413 47.76573,69.485413 C 48.25934,69.485413 48.99315,71.847913 49.39643,74.735416 C 49.79971,77.622916 50.2982,79.197916 50.5042,78.235416 C 50.71019,77.272916 51.29573,76.485416 51.8054,76.485416 C 53.036,76.485416 52.99415,79.823346 51.74793,81.069556 C 50.58166,82.235836 52.60466,99.64067 54.01853,100.60458 C 54.87376,101.18764 53.23473,115.31611 52.19074,116.3601 C 51.05329,117.49754 50.42521,115.20644 51.43236,113.59374 C 52.05088,112.60334 52.63994,110.0363 52.7414,107.88922 C 52.99737,102.47215 52.86189,101.48542 51.86212,101.48542 C 51.06366,101.48542 50.08894,109.90108 49.05876,113.91977 C 45.34628,120.58952 46.73387,115.11996 48.11846,111.73542 C 50.17892,102.5893 50.77947,96.17012 50.17656,89.73623 C 50.53184,85.57966 47.87797,82.553327 47.73208,78.652076 C 47.73208,73.697096 46.08765,73.853605 43.33193,76.442465 C 41.18671,77.911689 40.27545,76.468058 38.84176,75.408376 C 35.88881,74.502153 36.97535,69.12022 39.25576,66.597584 C 43.0258,59.497718 43.39475,56.452204 41.63969,46.919072 C 40.1267,38.700815 38.11745,36.408675 36.2192,40.735413 C 35.67628,41.972913 34.21957,43.129211 32.98207,43.304964 C 31.53611,43.510323 30.73207,44.314365 30.73207,45.554964 C 30.73207,47.033241 30.02937,47.485413 27.73207,47.485413 L 24.73207,47.485413 L 24.73207,38.485413 C 24.73207,30.485413 24.53207,29.485413 22.93207,29.485413 C 19.11355,29.485413 17.51707,25.557557 20.23207,22.842556 C 22.49973,20.574893 22.0735,19.526017 18.23207,17.920966 C 12.9548,15.715982 13.58107,13.175167 20.17014,10.058034 C 27.22743,6.719406 38.77916,6.420834 44.52192,9.428626 C 49.41707,11.99248 68.71346,31.891168 71.24462,36.985413 C 72.33772,39.185413 74.62887,43.253924 76.33605,46.02655 C 83.3623,57.437825 84.60124,63.648939 79.98208,64.304964 C 78.2706,64.548032 77.73208,64.12918 77.73208,62.554964 C 77.73208,61.105435 77.08943,60.485413 75.58704,60.485413 C 73.52981,60.485413 73.4692,60.782167 74.10645,67.735413 C 74.4719,71.722913 75.21393,86.68542 75.75538,100.98542 C 76.29685,115.28542 77.1734,130.13542 77.70326,133.98542 C 79.28138,145.45211 79.07537,148.48542 76.7185,148.48542 C 75.61104,148.48542 73.92354,148.06827 72.9685,147.55842 C 72.01346,147.04857 70.40186,146.3713 69.38714,146.05337 C 68.37241,145.73545 67.30263,144.5592 67.00982,143.43948 C 66.31144,140.7689 64.32612,141.48348 63.88626,144.56375 C 62.04739,151.63305 59.18566,158.50349 57.73208,165.73077 C 57.73208,171.22433 58.13351,172.6795 60.48208,175.69907 C 61.99457,177.64372 64.69457,180.19532 66.48208,181.3693 C 68.26958,182.54328 69.73208,183.94967 69.73208,184.49461 C 69.73208,185.50639 65.77909,185.64738 62.29411,184.75989 z M 62.72844,181.22481 C 62.34812,179.98731 57.67991,174.2178 56.69723,173.2796 C 55.34481,171.98838 55.04041,170.6055 55.44488,167.59 C 59.86658,152.86296 49.30353,152.59657 47.98208,155.63043 C 46.17144,159.10529 41.24535,162.92135 37.1628,163.93244 C 33.09238,164.69605 32.83196,165.84954 36.22767,168.07449 C 39.21557,170.03224 45.43207,169.24107 47.40066,166.65252 C 48.50336,165.20253 48.68092,165.44123 48.76403,168.48542 C 48.84244,171.3575 49.66772,172.65819 53.36414,175.73542 C 58.53887,180.04333 63.72055,184.4531 62.72844,181.22481 z M 80.73208,60.068318 C 80.73208,56.880241 77.45418,49.329601 75.2907,47.534064 C 74.34765,46.751401 72.42541,43.832775 71.01905,41.048227 C 68.38121,35.825414 64.69522,30.538963 64.78026,32.100554 C 64.80676,32.587227 66.94835,38.835413 69.53935,45.985413 C 73.8053,57.757557 74.46191,58.955863 76.49117,58.672555 C 78.18928,58.435477 78.73208,58.859364 78.73208,60.422555 C 78.73208,61.557127 79.18207,62.485413 79.73208,62.485413 C 80.28208,62.485413 80.73208,61.39772 80.73208,60.068318 z M 33.73207,19.485413 C 33.73207,18.935413 33.28207,18.485413 32.73207,18.485413 C 32.18207,18.485413 31.73207,18.935413 31.73207,19.485413 C 31.73207,20.035413 32.18207,20.485413 32.73207,20.485413 C 33.28207,20.485413 33.73207,20.035413 33.73207,19.485413 z M 57.10838,139.02366 C 56.79987,138.21969 57.25209,136.14939 58.11333,134.423 C 58.97457,132.6966 59.98444,129.65714 60.35748,127.66862 C 60.73054,125.68011 61.91924,122.05589 62.99905,119.61479 C 64.76959,115.61219 64.91741,113.49805 64.50463,98.08093 C 64.25288,88.6784 64.22201,84.358836 64.43599,88.48192 C 64.64999,92.605 65.25416,96.4075 65.77857,96.93192 C 68.38553,99.53887 66.02965,122.18925 62.23666,130.98542 C 61.52517,132.63542 60.63482,135.44792 60.2581,137.23542 C 59.53813,140.65167 58.05601,141.49314 57.10838,139.02366 z M 56.32988,82.735416 C 55.28953,71.679611 54.84239,63.812593 55.40627,66.485413 C 55.69637,67.860413 56.28052,69.210413 56.7044,69.485413 C 57.90231,70.262572 59.09172,89.48542 57.94189,89.48542 C 57.40465,89.48542 56.67924,86.44792 56.32988,82.735416 z M 67.73208,73.652076 C 67.73208,71.910413 67.34415,70.485413 66.87,70.485413 C 66.39587,70.485413 65.69729,67.057359 65.31763,62.867516 C 64.70567,56.114288 63.83228,53.66258 57.62292,41.267515 C 53.05117,32.141412 50.72508,26.365063 50.92531,24.635412 C 51.17829,22.450002 51.97717,23.515828 55.48208,30.714851 C 57.36672,35.230656 59.18817,39.419582 62.03109,43.235413 C 62.32384,44.197913 63.44977,47.313017 64.53316,50.157866 C 66.50538,55.336717 69.37051,75.180316 68.3005,76.250316 C 67.98788,76.562956 67.73208,75.393746 67.73208,73.652076 z M 42.05079,70.360413 C 42.36359,69.604163 43.65733,65.727125 44.92579,61.744773 C 47.02751,55.146397 48.73208,52.479942 48.73208,55.790626 C 48.73208,58.590029 44.01513,70.891064 42.78435,71.301322 C 41.98968,71.566212 41.70376,71.199462 42.05079,70.360413 z M 52.97699,59.233906 C 52.37671,57.997235 51.14933,53.610413 50.24948,49.485413 C 49.34963,45.360413 48.15891,41.154093 47.60345,40.138034 C 47.04798,39.121976 46.84967,38.034476 47.16279,37.721368 C 48.12238,36.761782 48.8686,38.138279 49.83875,42.657549 C 50.34975,45.037874 51.18355,47.885413 51.69164,48.985413 C 52.68162,51.12869 54.76391,60.786919 54.32963,61.221193 C 54.18597,61.364857 53.57729,60.470578 52.97699,59.233906 z "
           id="path2302" />
      </g>
    </g>
    <path
       style="fill:#fcef3c;fill-opacity:1;stroke:#000000;stroke-width:3;stroke-miterlimit:4;stroke-dasharray:none;stroke-opacity:1;display:inline"
       sodipodi:nodetypes="ccccccccccccccccccccccccccccccccc"
       id="path4345"
       d="M 220.5077,617.04534 L 220.5077,613.83214 L 215.29452,613.83214 L 185.59714,594.13476 L 185.59714,589.58869 L 195.29452,589.58869 L 195.29452,600.54531 L 201.25871,604.13476 L 220.5077,604.13476 L 220.5077,578.92157 L 205.96164,578.92157 L 205.96164,569.22419 L 220.5077,569.22419 L 220.5077,554.67812 L 230.20508,554.67812 L 230.20508,569.22419 L 244.75116,569.22419 L 244.75116,578.92157 L 230.20508,578.92157 L 230.20508,604.13476 L 255.41828,604.13476 L 255.41828,589.58869 L 265.11566,589.58869 L 265.11566,604.13476 L 279.66173,604.13476 L 279.66173,613.83214 L 265.11566,613.83214 L 265.11566,628.37821 L 255.41828,628.37821 L 255.41828,613.83214 L 230.20508,613.83214 L 230.20508,623.32594 L 220.5077,617.04534 z " />
    <path
       style="fill:#fcef3c;fill-opacity:1;stroke:#000000;stroke-width:3;stroke-miterlimit:4;stroke-dasharray:none;stroke-opacity:1;display:inline"
       sodipodi:nodetypes="ccccccccccccccccccccccccccccccccc"
       id="path4362"
       d="M 379.46024,617.04534 L 379.46024,613.83214 L 384.67342,613.83214 L 414.3708,594.13476 L 414.3708,589.58869 L 404.67342,589.58869 L 404.67342,600.54531 L 398.70923,604.13476 L 379.46024,604.13476 L 379.46024,578.92157 L 394.0063,578.92157 L 394.0063,569.22419 L 379.46024,569.22419 L 379.46024,554.67812 L 369.76286,554.67812 L 369.76286,569.22419 L 355.21678,569.22419 L 355.21678,578.92157 L 369.76286,578.92157 L 369.76286,604.13476 L 344.54966,604.13476 L 344.54966,589.58869 L 334.85228,589.58869 L 334.85228,604.13476 L 320.30621,604.13476 L 320.30621,613.83214 L 334.85228,613.83214 L 334.85228,628.37821 L 344.54966,628.37821 L 344.54966,613.83214 L 369.76286,613.83214 L 369.76286,623.32594 L 379.46024,617.04534 z " />
  </g>
  <g
     inkscape:groupmode="layer"
     id="layer4"
     inkscape:label="Meubles"
     sodipodi:insensitive="true" />
  <g
     inkscape:groupmode="layer"
     id="layer2"
     inkscape:label="Reflet final"
     sodipodi:insensitive="true">
    <path
       sodipodi:nodetypes="cccccc"
       d="M 300.00001,658.5 C 300.00001,658.5 598.50001,546.17969 598.50001,260.72817 C 598.50001,-24.723334 598.50001,2.1764865 598.50001,2.1764865 L 1.5,2.1764865 L 1.5,260.72817 C 1.5,546.17969 300.00001,658.5 300.00001,658.5 z "
       style="opacity:1;fill:url(#radialGradient3163);fill-opacity:1;fill-rule:evenodd;stroke:none;stroke-width:1px;stroke-linecap:butt;stroke-linejoin:miter;stroke-opacity:1"
       id="path2875"
       inkscape:export-xdpi="144"
       inkscape:export-ydpi="144" />
  </g>
  <g
     inkscape:groupmode="layer"
     id="layer1"
     inkscape:label="Contour final"
     sodipodi:insensitive="true">
    <path
       sodipodi:nodetypes="cccccc"
       d="M 299.99999,658.50028 C 299.99999,658.50028 1.5,546.17992 1.5,260.72828 C 1.5,-24.723336 1.5,2.1764957 1.5,2.1764957 L 598.49999,2.1764957 L 598.49999,260.72828 C 598.49999,546.17992 299.99999,658.50028 299.99999,658.50028 z "
       style="opacity:1;fill:none;fill-opacity:1;fill-rule:evenodd;stroke:#000000;stroke-width:3.00000048;stroke-linecap:butt;stroke-linejoin:miter;stroke-miterlimit:4;stroke-dasharray:none;stroke-opacity:1"
       id="path1411"
       inkscape:export-xdpi="144"
       inkscape:export-ydpi="144" />
  </g>
</svg>
