<?xml version="1.0" encoding="UTF-8" standalone="no"?>
<svg
   xmlns:dc="http://purl.org/dc/elements/1.1/"
   xmlns:cc="http://web.resource.org/cc/"
   xmlns:rdf="http://www.w3.org/1999/02/22-rdf-syntax-ns#"
   xmlns:svg="http://www.w3.org/2000/svg"
   xmlns="http://www.w3.org/2000/svg"
   xmlns:xlink="http://www.w3.org/1999/xlink"
   xmlns:sodipodi="http://sodipodi.sourceforge.net/DTD/sodipodi-0.dtd"
   xmlns:inkscape="http://www.inkscape.org/namespaces/inkscape"
   height="660"
   width="600"
   version="1.0"
   id="svg2"
   sodipodi:version="0.32"
   inkscape:version="0.45.1"
   sodipodi:docname="58 Nièvre.svg"
   sodipodi:docbase="E:\Mes documents\Mes images\Héraldique"
   inkscape:export-filename="C:\Documents and Settings\Propriétaire\Bureau\58 - Nièvre.png"
   inkscape:export-xdpi="9.75"
   inkscape:export-ydpi="9.75"
   inkscape:output_extension="org.inkscape.output.svg.inkscape">
  <metadata
     id="metadata49">
    <rdf:RDF>
      <cc:Work
         rdf:about="">
        <dc:format>image/svg+xml</dc:format>
        <dc:type
           rdf:resource="http://purl.org/dc/dcmitype/StillImage" />
        <dc:title>Gabarit d'un blason en pointe pour le projet Blasons de Wikipédia</dc:title>
        <dc:date>03-AUG-2006</dc:date>
        <dc:creator>
          <cc:Agent>
            <dc:title>Jérôme BLUM (wagner51)</dc:title>
          </cc:Agent>
        </dc:creator>
        <cc:license
           rdf:resource="http://web.resource.org/cc/PublicDomain" />
        <dc:language>fr</dc:language>
        <dc:subject>
          <rdf:Bag>
            <rdf:li>gabarit modèle blason projet wikipédia</rdf:li>
          </rdf:Bag>
        </dc:subject>
      </cc:Work>
      <cc:License
         rdf:about="http://web.resource.org/cc/PublicDomain">
        <cc:permits
           rdf:resource="http://web.resource.org/cc/Reproduction" />
        <cc:permits
           rdf:resource="http://web.resource.org/cc/Distribution" />
        <cc:permits
           rdf:resource="http://web.resource.org/cc/DerivativeWorks" />
      </cc:License>
    </rdf:RDF>
  </metadata>
  <sodipodi:namedview
     inkscape:window-height="723"
     inkscape:window-width="1024"
     inkscape:pageshadow="2"
     inkscape:pageopacity="0.0"
     guidetolerance="10.0"
     gridtolerance="10.0"
     objecttolerance="10.0"
     borderopacity="1.0"
     bordercolor="#666666"
     pagecolor="#ffffff"
     id="base"
     showgrid="false"
     height="660px"
     inkscape:zoom="0.80151515"
     inkscape:cx="300"
     inkscape:cy="330"
     inkscape:window-x="-4"
     inkscape:window-y="-4"
     inkscape:current-layer="layer4" />
  <desc
     id="desc4">Flag of Canton of Valais (Wallis)</desc>
  <defs
     id="defs6">
    <linearGradient
       id="linearGradient2893">
      <stop
         style="stop-color:white;stop-opacity:0.3137255;"
         offset="0"
         id="stop2895" />
      <stop
         id="stop2897"
         offset="0.19"
         style="stop-color:white;stop-opacity:0.25098041;" />
      <stop
         style="stop-color:#6b6b6b;stop-opacity:0.1254902;"
         offset="0.60000002"
         id="stop2901" />
      <stop
         style="stop-color:black;stop-opacity:0.1254902;"
         offset="1"
         id="stop2899" />
    </linearGradient>
    <linearGradient
       id="linearGradient2885">
      <stop
         id="stop2887"
         offset="0"
         style="stop-color:white;stop-opacity:1;" />
      <stop
         style="stop-color:white;stop-opacity:1;"
         offset="0.22857143"
         id="stop2891" />
      <stop
         id="stop2889"
         offset="1"
         style="stop-color:black;stop-opacity:1;" />
    </linearGradient>
    <linearGradient
       id="linearGradient2955">
      <stop
         id="stop2867"
         offset="0"
         style="stop-color:#fd0000;stop-opacity:1;" />
      <stop
         style="stop-color:#e77275;stop-opacity:0.65882355;"
         offset="0.5"
         id="stop2873" />
      <stop
         style="stop-color:black;stop-opacity:0.32291666;"
         offset="1"
         id="stop2959" />
    </linearGradient>
    <radialGradient
       inkscape:collect="always"
       xlink:href="#linearGradient2955"
       id="radialGradient2961"
       cx="225.52438"
       cy="218.90099"
       fx="225.52438"
       fy="218.90099"
       r="300"
       gradientTransform="matrix(-4.167939e-4,2.182867,-1.884232,-3.599562e-4,615.5972,-289.1214)"
       gradientUnits="userSpaceOnUse" />
    <polygon
       id="star"
       transform="scale(53,53)"
       points="0,-1 0.58778525,0.80901699 -0.95105652,-0.30901699 0.95105652,-0.30901699 -0.58778525,0.80901699 0,-1 " />
    <clipPath
       id="clip">
      <path
         d="M 0,-200 L 0,600 L 300,600 L 300,-200 L 0,-200 z "
         id="path10" />
    </clipPath>
    <radialGradient
       inkscape:collect="always"
       xlink:href="#linearGradient2955"
       id="radialGradient1911"
       gradientUnits="userSpaceOnUse"
       gradientTransform="matrix(-4.167939e-4,2.182867,-1.884232,-3.599562e-4,615.5972,-289.1214)"
       cx="225.52438"
       cy="218.90099"
       fx="225.52438"
       fy="218.90099"
       r="300" />
    <radialGradient
       inkscape:collect="always"
       xlink:href="#linearGradient2955"
       id="radialGradient2865"
       gradientUnits="userSpaceOnUse"
       gradientTransform="matrix(0,1.748721,-1.593162,-1.049767e-7,551.7876,-191.2898)"
       cx="225.52438"
       cy="218.90099"
       fx="225.52438"
       fy="218.90099"
       r="300" />
    <radialGradient
       inkscape:collect="always"
       xlink:href="#linearGradient2955"
       id="radialGradient2871"
       gradientUnits="userSpaceOnUse"
       gradientTransform="matrix(0,1.386237,-1.323286,-5.741131e-8,-158.0823,-109.5408)"
       cx="225.52438"
       cy="218.90099"
       fx="225.52438"
       fy="218.90099"
       r="300" />
    <radialGradient
       inkscape:collect="always"
       xlink:href="#linearGradient2893"
       id="radialGradient3163"
       gradientUnits="userSpaceOnUse"
       gradientTransform="matrix(1.353218,0,0,1.348928,-77.62935,-85.74693)"
       cx="221.44487"
       cy="226.33101"
       fx="221.44487"
       fy="226.33101"
       r="300" />
    <linearGradient
       id="linearGradient9507">
      <stop
         style="stop-color:white;stop-opacity:0.3137255"
         offset="0"
         id="stop9509" />
      <stop
         style="stop-color:white;stop-opacity:0.25098041"
         offset="0.19"
         id="stop9511" />
      <stop
         style="stop-color:#6b6b6b;stop-opacity:0.1254902"
         offset="0.60000002"
         id="stop9513" />
      <stop
         style="stop-color:black;stop-opacity:0.1254902"
         offset="1"
         id="stop9515" />
    </linearGradient>
    <linearGradient
       id="linearGradient9517">
      <stop
         style="stop-color:white;stop-opacity:1"
         offset="0"
         id="stop9519" />
      <stop
         style="stop-color:white;stop-opacity:1"
         offset="0.22857143"
         id="stop9521" />
      <stop
         style="stop-color:black;stop-opacity:1"
         offset="1"
         id="stop9523" />
    </linearGradient>
    <linearGradient
       id="linearGradient9525">
      <stop
         style="stop-color:#fd0000;stop-opacity:1"
         offset="0"
         id="stop9527" />
      <stop
         style="stop-color:#e77275;stop-opacity:0.65882355"
         offset="0.5"
         id="stop9529" />
      <stop
         style="stop-color:black;stop-opacity:0.32291666"
         offset="1"
         id="stop9531" />
    </linearGradient>
    <radialGradient
       cx="225.52438"
       cy="218.90099"
       r="300"
       fx="225.52438"
       fy="218.90099"
       id="radialGradient9533"
       xlink:href="#linearGradient2955"
       gradientUnits="userSpaceOnUse"
       gradientTransform="matrix(-4.167939e-4,2.182867,-1.884232,-3.599562e-4,615.5972,-289.1214)" />
    <polygon
       points="0,-1 0.58778525,0.80901699 -0.95105652,-0.30901699 0.95105652,-0.30901699 -0.58778525,0.80901699 0,-1 "
       transform="scale(53,53)"
       id="polygon9535" />
    <clipPath
       id="clipPath9537">
      <path
         d="M 0,-200 L 0,600 L 300,600 L 300,-200 L 0,-200 z "
         id="path9539" />
    </clipPath>
    <radialGradient
       cx="225.52438"
       cy="218.90099"
       r="300"
       fx="225.52438"
       fy="218.90099"
       id="radialGradient9541"
       xlink:href="#linearGradient2955"
       gradientUnits="userSpaceOnUse"
       gradientTransform="matrix(-4.167939e-4,2.182867,-1.884232,-3.599562e-4,615.5972,-289.1214)" />
    <radialGradient
       cx="225.52438"
       cy="218.90099"
       r="300"
       fx="225.52438"
       fy="218.90099"
       id="radialGradient9543"
       xlink:href="#linearGradient2955"
       gradientUnits="userSpaceOnUse"
       gradientTransform="matrix(0,1.748721,-1.593162,-1.049767e-7,551.7876,-191.2898)" />
    <radialGradient
       cx="225.52438"
       cy="218.90099"
       r="300"
       fx="225.52438"
       fy="218.90099"
       id="radialGradient9545"
       xlink:href="#linearGradient2955"
       gradientUnits="userSpaceOnUse"
       gradientTransform="matrix(0,1.386237,-1.323286,-5.741131e-8,-158.0823,-109.5408)" />
    <radialGradient
       cx="221.44487"
       cy="226.33101"
       r="300"
       fx="221.44487"
       fy="226.33101"
       id="radialGradient9547"
       xlink:href="#linearGradient2893"
       gradientUnits="userSpaceOnUse"
       gradientTransform="matrix(1.353218,0,0,1.348928,-77.62935,-85.74693)" />
    <radialGradient
       r="300"
       fy="463.83829"
       fx="164.62383"
       cy="463.83829"
       cx="164.62383"
       gradientTransform="matrix(1.353218,0,0,1.348928,-77.62932,-465.5695)"
       gradientUnits="userSpaceOnUse"
       id="radialGradient2296"
       xlink:href="#linearGradient2893"
       inkscape:collect="always" />
    <radialGradient
       r="300"
       fy="218.90099"
       fx="225.52438"
       cy="218.90099"
       cx="225.52438"
       gradientTransform="matrix(0,1.386237,-1.323286,-5.741131e-8,-158.0823,-109.5408)"
       gradientUnits="userSpaceOnUse"
       id="radialGradient2294"
       xlink:href="#linearGradient2955"
       inkscape:collect="always" />
    <radialGradient
       r="300"
       fy="218.90099"
       fx="225.52438"
       cy="218.90099"
       cx="225.52438"
       gradientTransform="matrix(0,1.748721,-1.593162,-1.049767e-7,551.7876,-191.2898)"
       gradientUnits="userSpaceOnUse"
       id="radialGradient2292"
       xlink:href="#linearGradient2955"
       inkscape:collect="always" />
    <radialGradient
       r="300"
       fy="218.90099"
       fx="225.52438"
       cy="218.90099"
       cx="225.52438"
       gradientTransform="matrix(-4.167939e-4,2.182867,-1.884232,-3.599562e-4,615.5972,-289.1214)"
       gradientUnits="userSpaceOnUse"
       id="radialGradient2290"
       xlink:href="#linearGradient2955"
       inkscape:collect="always" />
    <clipPath
       id="clipPath2286">
      <path
         id="path2288"
         d="M 0,-200 L 0,600 L 300,600 L 300,-200 L 0,-200 z " />
    </clipPath>
    <polygon
       points="0,-1 0.58778525,0.80901699 -0.95105652,-0.30901699 0.95105652,-0.30901699 -0.58778525,0.80901699 0,-1 "
       transform="scale(53,53)"
       id="polygon2284" />
    <radialGradient
       gradientUnits="userSpaceOnUse"
       gradientTransform="matrix(-4.167939e-4,2.182867,-1.884232,-3.599562e-4,615.5972,-289.1214)"
       r="300"
       fy="218.90099"
       fx="225.52438"
       cy="218.90099"
       cx="225.52438"
       id="radialGradient2282"
       xlink:href="#linearGradient2955"
       inkscape:collect="always" />
    <linearGradient
       id="linearGradient2274">
      <stop
         style="stop-color:#fd0000;stop-opacity:1;"
         offset="0"
         id="stop2276" />
      <stop
         id="stop2278"
         offset="0.5"
         style="stop-color:#e77275;stop-opacity:0.65882355;" />
      <stop
         id="stop2280"
         offset="1"
         style="stop-color:black;stop-opacity:0.32291666;" />
    </linearGradient>
    <linearGradient
       id="linearGradient2266">
      <stop
         style="stop-color:white;stop-opacity:1;"
         offset="0"
         id="stop2268" />
      <stop
         id="stop2270"
         offset="0.22857143"
         style="stop-color:white;stop-opacity:1;" />
      <stop
         style="stop-color:black;stop-opacity:1;"
         offset="1"
         id="stop2272" />
    </linearGradient>
    <linearGradient
       id="linearGradient2256">
      <stop
         id="stop2258"
         offset="0"
         style="stop-color:white;stop-opacity:0.3137255;" />
      <stop
         style="stop-color:white;stop-opacity:0.25098041;"
         offset="0.19"
         id="stop2260" />
      <stop
         id="stop2262"
         offset="0.60000002"
         style="stop-color:#6b6b6b;stop-opacity:0.1254902;" />
      <stop
         id="stop2264"
         offset="1"
         style="stop-color:black;stop-opacity:0.1254902;" />
    </linearGradient>
    <radialGradient
       r="300"
       fy="218.90099"
       fx="225.52438"
       cy="218.90099"
       cx="225.52438"
       gradientTransform="matrix(0,1.386237,-1.323286,-5.741131e-8,-158.0823,-109.5408)"
       gradientUnits="userSpaceOnUse"
       id="radialGradient3367"
       xlink:href="#linearGradient2955"
       inkscape:collect="always" />
    <radialGradient
       r="300"
       fy="218.90099"
       fx="225.52438"
       cy="218.90099"
       cx="225.52438"
       gradientTransform="matrix(0,1.748721,-1.593162,-1.049767e-7,551.7876,-191.2898)"
       gradientUnits="userSpaceOnUse"
       id="radialGradient3365"
       xlink:href="#linearGradient2955"
       inkscape:collect="always" />
    <radialGradient
       r="300"
       fy="218.90099"
       fx="225.52438"
       cy="218.90099"
       cx="225.52438"
       gradientTransform="matrix(-4.167939e-4,2.182867,-1.884232,-3.599562e-4,615.5972,-289.1214)"
       gradientUnits="userSpaceOnUse"
       id="radialGradient3363"
       xlink:href="#linearGradient2955"
       inkscape:collect="always" />
    <clipPath
       id="clipPath3359">
      <path
         id="path3361"
         d="M 0,-200 L 0,600 L 300,600 L 300,-200 L 0,-200 z " />
    </clipPath>
    <polygon
       points="0,-1 0.58778525,0.80901699 -0.95105652,-0.30901699 0.95105652,-0.30901699 -0.58778525,0.80901699 0,-1 "
       transform="scale(53,53)"
       id="polygon3357" />
    <radialGradient
       gradientUnits="userSpaceOnUse"
       gradientTransform="matrix(-4.167939e-4,2.182867,-1.884232,-3.599562e-4,615.5972,-289.1214)"
       r="300"
       fy="218.90099"
       fx="225.52438"
       cy="218.90099"
       cx="225.52438"
       id="radialGradient3355"
       xlink:href="#linearGradient2955"
       inkscape:collect="always" />
    <linearGradient
       id="linearGradient3347">
      <stop
         style="stop-color:#fd0000;stop-opacity:1;"
         offset="0"
         id="stop3349" />
      <stop
         id="stop3351"
         offset="0.5"
         style="stop-color:#e77275;stop-opacity:0.65882355;" />
      <stop
         id="stop3353"
         offset="1"
         style="stop-color:black;stop-opacity:0.32291666;" />
    </linearGradient>
    <linearGradient
       id="linearGradient3339">
      <stop
         style="stop-color:white;stop-opacity:1;"
         offset="0"
         id="stop3341" />
      <stop
         id="stop3343"
         offset="0.22857143"
         style="stop-color:white;stop-opacity:1;" />
      <stop
         style="stop-color:black;stop-opacity:1;"
         offset="1"
         id="stop3345" />
    </linearGradient>
    <linearGradient
       id="linearGradient3329">
      <stop
         id="stop3331"
         offset="0"
         style="stop-color:white;stop-opacity:0.3137255;" />
      <stop
         style="stop-color:white;stop-opacity:0.25098041;"
         offset="0.19"
         id="stop3333" />
      <stop
         id="stop3335"
         offset="0.60000002"
         style="stop-color:#6b6b6b;stop-opacity:0.1254902;" />
      <stop
         id="stop3337"
         offset="1"
         style="stop-color:black;stop-opacity:0.1254902;" />
    </linearGradient>
  </defs>
  <g
     inkscape:groupmode="layer"
     id="layer3"
     inkscape:label="Fond écu"
     style="display:inline">
    <path
       id="path2855"
       style="fill:#2b5df2;fill-opacity:1;fill-rule:evenodd;stroke:none;stroke-width:1px;stroke-linecap:butt;stroke-linejoin:miter;stroke-opacity:1"
       d="M 300,658.5 C 300,658.5 598.50001,546.17969 598.50001,260.72817 C 598.50001,-24.723354 598.50001,2.1764765 598.50001,2.1764765 L 1.5,2.1764765 L 1.5,260.72817 C 1.5,546.17969 300,658.5 300,658.5 z "
       sodipodi:nodetypes="cccccc" />
  </g>
  <g
     inkscape:groupmode="layer"
     id="layer4"
     inkscape:label="Meubles">
    <g
       id="g2319"
       transform="translate(-1e-5,-379.41621)">
      <g
         transform="translate(2.384186e-7,379.8226)"
         style="display:inline"
         inkscape:label="Fond écu"
         id="g2321">
        <path
           sodipodi:nodetypes="cccccc"
           d="M 300,658.5 C 300,658.5 598.50001,546.17969 598.50001,260.72817 C 598.50001,-24.723354 598.50001,2.1764765 598.50001,2.1764765 L 1.5,2.1764765 L 1.5,260.72817 C 1.5,546.17969 300,658.5 300,658.5 z "
           style="fill:#2b5df2;fill-opacity:1;fill-rule:evenodd;stroke:none;stroke-width:1px;stroke-linecap:butt;stroke-linejoin:miter;stroke-opacity:1"
           id="path2323" />
      </g>
      <g
         transform="translate(2.384186e-7,379.8226)"
         inkscape:label="Meubles"
         id="g2325">
        <path
           id="path1979"
           d="M 1.5,100.1875 L 1.5,260.71875 C 1.5,271.47741 1.9339039,281.97996 2.75,292.25 L 346.875,636.375 C 377.33101,620.04406 418.76093,594.27711 459.21875,557.90625 L 1.5,100.1875 z "
           style="opacity:1;fill:#fcef3c;fill-opacity:1;fill-rule:evenodd;stroke:#000000;stroke-width:3;stroke-linecap:butt;stroke-linejoin:miter;stroke-miterlimit:4;stroke-dasharray:none;stroke-opacity:1" />
        <path
           id="path1985"
           d="M 93.4375,2.1875 L 93.46875,2.53125 L 545.4375,454.5 C 569.47616,414.17105 587.69592,367.27018 595,313.25 L 283.9375,2.1875 L 93.4375,2.1875 z "
           style="opacity:1;fill:#fcef3c;fill-opacity:1;fill-rule:evenodd;stroke:#000000;stroke-width:3;stroke-linecap:butt;stroke-linejoin:miter;stroke-miterlimit:4;stroke-dasharray:none;stroke-opacity:1" />
        <path
           id="path2003"
           d="M 473.3125,2.1875 L 598.5,127.375 C 598.5,101.47153 598.5,2.1875 598.5,2.1875 L 473.3125,2.1875 z "
           style="opacity:1;fill:#fcef3c;fill-opacity:1;fill-rule:evenodd;stroke:#000000;stroke-width:3;stroke-linecap:butt;stroke-linejoin:miter;stroke-miterlimit:4;stroke-dasharray:none;stroke-opacity:1" />
      </g>
    </g>
    <g
       id="g3369"
       transform="translate(-9.7807907e-6,-0.2967355)">
      <g
         transform="translate(-3.64567,-3.5469)"
         style="opacity:1;display:inline"
         inkscape:label="bordure"
         id="g3371">
        <path
           id="path5919"
           transform="translate(3.64567,3.5469)"
           d="M 1.125,1.1875 L 1.125,2.6875 L 1.125,260.75 C 1.1249999,546.7301 299.46875,659.21875 299.46875,659.21875 L 300,659.40625 L 300.53125,659.21875 C 300.53124,659.21874 598.875,546.7301 598.875,260.75 C 598.87499,118.28186 598.875,53.774112 598.875,24.875 C 598.87498,11.24761 598.875,6.4142837 598.875,4.1875 C 598.87498,4.0531529 598.875,3.0474811 598.875,2.9375 C 598.87498,2.4542739 598.875,2.2081231 598.875,2.09375 C 598.87498,2.0651617 598.875,2.0432583 598.875,2.03125 C 598.87498,2.0252509 598.875,2.0023557 598.875,2 C 598.87498,1.9998003 598.1222,1.9999301 597.375,2 L 597.375,1.1875 L 2.625,1.1875 L 1.125,1.1875 z M 149.5,33.90625 C 165.26891,34.314277 180.25381,59.244259 186.6875,74.46875 C 186.6875,74.468753 205.73731,33.90625 224.5,33.90625 C 243.26269,33.90625 261.75,74.46875 261.75,74.46875 C 261.75,74.468753 280.34179,34.04655 299.5,33.90625 C 318.65821,33.76595 338.375,73.90625 338.375,73.90625 C 338.37499,73.906248 356.2985,33.90625 374.5,33.90625 C 392.7015,33.90625 411.1875,73.90625 411.1875,73.90625 C 411.1875,73.906248 430.34179,33.90625 449.5,33.90625 C 468.65821,33.90625 485.15625,75.6875 485.15625,75.6875 C 490.46315,59.298632 517.34467,24.43737 543.46875,49.15625 C 568.20502,72.561941 529.84102,108.8337 520.75,109.1875 C 520.75,109.2406 520.75,109.47793 520.75,109.53125 C 526.62361,112.49007 553.98742,127.14794 554.5,143.90625 C 555.07389,162.66894 521.78125,183.96875 521.78125,183.96875 C 521.78127,183.96875 553.9375,204.23992 553.9375,222.875 C 553.93752,241.51008 521.78125,258.5 521.78125,258.5 C 521.78127,258.50001 551.51661,284.43911 549.4375,303.40625 C 547.35841,322.37338 511.21875,346.15625 511.21875,346.15625 C 511.21876,346.15626 537.77864,381.14812 527.90625,404.375 C 518.43833,426.65021 477.96129,427.26793 474.625,427.28125 C 474.46965,427.52249 474.31211,427.75944 474.15625,428 C 475.01724,431.81783 484.63995,476.10522 470.6875,492.71875 C 456.10839,510.07844 415.6875,496.71875 415.6875,496.71875 C 415.68749,496.71875 424.2653,539.29525 407.875,551.09375 C 391.73539,562.7118 351.57441,544.5606 350.34375,544 C 350.20569,544.0826 350.07516,544.16785 349.9375,544.25 C 348.94984,546.17087 324.447,593.37712 300.625,593.71875 C 276.31109,594.06745 252.84375,545.3125 252.84375,545.3125 C 252.84375,545.31252 211.58907,562.72433 194.5,548.90625 C 177.61505,535.25323 184.30583,491.27156 184.46875,490.21875 C 184.42566,490.17814 184.38684,490.1344 184.34375,490.09375 C 183.45116,490.44935 141.75934,506.92422 128.375,490.625 C 115.40446,474.82967 128.9996,428.66722 130.15625,424.84375 C 130.01133,424.614 129.86319,424.3866 129.71875,424.15625 C 126.21376,424.29459 83.108591,425.55018 74.5,403.90625 C 65.528928,381.35097 93.9375,345.125 93.9375,345.125 C 93.937499,345.12499 51.859702,323.22658 49.5,304.09375 C 47.140297,284.96092 85.0625,257.375 85.0625,257.375 C 85.062502,257.37499 44.640298,240.71679 44.5,222.375 C 44.359702,204.03322 84.5,184 84.5,184 C 84.5,183.99999 45.484702,162.16895 45.625,143.40625 C 45.752852,126.30815 78.531904,112.84157 84.40625,110.5625 C 76.161532,110.54651 35.179767,78.606676 60.71875,49.0625 C 88.050538,17.444364 113.73937,61.013873 115.46875,76.03125 C 121.74981,63.208218 133.74201,33.498506 149.5,33.90625 z M 84.40625,110.5625 C 84.939063,110.56353 85.329856,110.43114 85.5625,110.15625 L 85.5625,110.125 C 85.531007,110.13653 84.947693,110.35244 84.40625,110.5625 z "
           style="fill:#e20909;fill-opacity:1;fill-rule:evenodd;stroke:none;stroke-width:3;stroke-linecap:butt;stroke-linejoin:miter;stroke-miterlimit:4;stroke-opacity:1" />
        <path
           sodipodi:nodetypes="cczczczczczczczczczczcscscscscscscsczczcz"
           id="path2737"
           d="M 64.369947,52.806619 C 91.701727,21.188482 117.39199,64.751411 119.12137,79.768789 C 125.40243,66.945755 137.38804,37.246587 153.14603,37.654331 C 168.91494,38.062358 183.90636,62.991038 190.34005,78.21553 C 190.34005,78.21553 209.38334,37.654331 228.14603,37.654331 C 246.90872,37.654331 265.39081,78.21553 265.39081,78.21553 C 265.39081,78.21553 283.98782,37.794631 303.14603,37.654331 C 322.30424,37.514031 342.02364,77.65433 342.02364,77.65433 C 342.02364,77.65433 359.94453,37.654331 378.14603,37.654331 C 396.34753,37.654331 414.82962,77.65433 414.82962,77.65433 C 414.82962,77.65433 433.98782,37.654331 453.14603,37.654331 C 472.30424,37.654331 488.78679,79.440044 488.78679,79.440044 C 494.09368,63.051176 520.97912,28.189865 547.1032,52.908745 C 573.22729,77.627627 528.97083,116.69971 523.14602,112.65433 C 523.14602,112.65433 557.57213,128.89164 558.14602,147.65433 C 558.71991,166.41702 525.44157,187.7051 525.44157,187.7051 C 525.44157,187.7051 557.58482,207.99839 557.58482,226.63347 C 557.58482,245.26855 525.44157,262.24543 525.44157,262.24543 C 525.44157,262.24543 555.17437,288.17677 553.09526,307.14391 C 551.01615,326.11105 514.88038,349.89912 514.88038,349.89912 C 514.88038,349.89912 541.43635,384.88713 531.56396,408.11401 C 521.69157,431.34089 477.6356,431.02152 477.6356,431.02152 C 477.6356,431.02152 488.89828,479.12149 474.31918,496.48119 C 459.74008,513.84089 419.31918,500.46033 419.31918,500.46033 C 419.31918,500.46033 427.9035,543.04986 411.5132,554.84836 C 395.1229,566.64686 353.75799,547.65434 353.75799,547.65434 C 353.75799,547.65434 328.58234,597.10261 304.26842,597.45129 C 279.9545,597.79997 256.50232,549.04906 256.50232,549.04906 C 256.50232,549.04906 215.2351,566.47242 198.14603,552.65434 C 181.05696,538.83626 188.14603,493.77673 188.14603,493.77673 C 188.14603,493.77673 145.55257,510.86399 132.02364,494.38869 C 118.49471,477.91338 134.03032,427.87551 134.03032,427.87551 C 134.03032,427.87551 87.117097,430.20963 78.146027,407.65434 C 69.174957,385.09905 97.584837,348.87826 97.584837,348.87826 C 97.584837,348.87826 55.505727,326.99022 53.146027,307.85739 C 50.786327,288.72456 88.707217,261.12304 88.707217,261.12304 C 88.707217,261.12304 48.286327,244.46483 48.146037,226.12304 C 48.005737,207.78125 88.146027,187.75587 88.146027,187.75587 C 88.146027,187.75587 49.128127,165.90659 49.268427,147.14389 C 49.408727,128.38119 89.268417,113.82748 89.268417,113.82748 C 85.886087,118.78823 37.038157,84.424758 64.369947,52.806619 z "
           style="opacity:1;color:#000000;fill:none;fill-opacity:1;fill-rule:evenodd;stroke:#000000;stroke-width:3;stroke-linecap:butt;stroke-linejoin:miter;marker:none;marker-start:none;marker-mid:none;marker-end:none;stroke-miterlimit:4;stroke-dashoffset:0;stroke-opacity:1;visibility:visible;display:inline;overflow:visible" />
      </g>
      <g
         style="opacity:0.7"
         inkscape:label="gabarit"
         id="g3375" />
    </g>
  </g>
  <g
     inkscape:groupmode="layer"
     id="layer2"
     inkscape:label="Reflet final"
     sodipodi:insensitive="true">
    <path
       sodipodi:nodetypes="cccccc"
       d="M 300.00001,658.5 C 300.00001,658.5 598.50001,546.17969 598.50001,260.72817 C 598.50001,-24.723334 598.50001,2.1764865 598.50001,2.1764865 L 1.5,2.1764865 L 1.5,260.72817 C 1.5,546.17969 300.00001,658.5 300.00001,658.5 z "
       style="opacity:1;fill:url(#radialGradient3163);fill-opacity:1;fill-rule:evenodd;stroke:none;stroke-width:1px;stroke-linecap:butt;stroke-linejoin:miter;stroke-opacity:1"
       id="path2875"
       inkscape:export-xdpi="144"
       inkscape:export-ydpi="144" />
  </g>
  <g
     inkscape:groupmode="layer"
     id="layer1"
     inkscape:label="Contour final"
     sodipodi:insensitive="true">
    <path
       sodipodi:nodetypes="cccccc"
       d="M 299.99999,658.50028 C 299.99999,658.50028 1.5,546.17992 1.5,260.72828 C 1.5,-24.723336 1.5,2.1764957 1.5,2.1764957 L 598.49999,2.1764957 L 598.49999,260.72828 C 598.49999,546.17992 299.99999,658.50028 299.99999,658.50028 z "
       style="opacity:1;fill:none;fill-opacity:1;fill-rule:evenodd;stroke:#000000;stroke-width:3.00000048;stroke-linecap:butt;stroke-linejoin:miter;stroke-miterlimit:4;stroke-dasharray:none;stroke-opacity:1"
       id="path1411"
       inkscape:export-xdpi="144"
       inkscape:export-ydpi="144" />
  </g>
</svg>
