<?xml version="1.0" encoding="UTF-8" standalone="no"?>
<svg
   xmlns:dc="http://purl.org/dc/elements/1.1/"
   xmlns:cc="http://web.resource.org/cc/"
   xmlns:rdf="http://www.w3.org/1999/02/22-rdf-syntax-ns#"
   xmlns:svg="http://www.w3.org/2000/svg"
   xmlns="http://www.w3.org/2000/svg"
   xmlns:xlink="http://www.w3.org/1999/xlink"
   xmlns:sodipodi="http://sodipodi.sourceforge.net/DTD/sodipodi-0.dtd"
   xmlns:inkscape="http://www.inkscape.org/namespaces/inkscape"
   height="660"
   width="600"
   version="1.0"
   id="svg2"
   sodipodi:version="0.32"
   inkscape:version="0.45.1"
   sodipodi:docname="Blason_dpt_fr_HautesPyrenees.svg"
   sodipodi:docbase="C:\Documents and Settings\Propriétaire\Mes documents"
   inkscape:export-filename="/Users/olivier/Desktop/Blason Rouge/Blason_Vide_3D.png"
   inkscape:export-xdpi="144"
   inkscape:export-ydpi="144"
   inkscape:output_extension="org.inkscape.output.svg.inkscape">
  <metadata
     id="metadata49">
    <rdf:RDF>
      <cc:Work
         rdf:about="">
        <dc:format>image/svg+xml</dc:format>
        <dc:type
           rdf:resource="http://purl.org/dc/dcmitype/StillImage" />
        <dc:title>Gabarit d'un blason en pointe pour le projet Blasons de Wikipédia</dc:title>
        <dc:date>03-AUG-2006</dc:date>
        <dc:creator>
          <cc:Agent>
            <dc:title>Jérôme BLUM (wagner51)</dc:title>
          </cc:Agent>
        </dc:creator>
        <cc:license
           rdf:resource="http://web.resource.org/cc/PublicDomain" />
        <dc:language>fr</dc:language>
        <dc:subject>
          <rdf:Bag>
            <rdf:li>gabarit modèle blason projet wikipédia</rdf:li>
          </rdf:Bag>
        </dc:subject>
      </cc:Work>
      <cc:License
         rdf:about="http://web.resource.org/cc/PublicDomain">
        <cc:permits
           rdf:resource="http://web.resource.org/cc/Reproduction" />
        <cc:permits
           rdf:resource="http://web.resource.org/cc/Distribution" />
        <cc:permits
           rdf:resource="http://web.resource.org/cc/DerivativeWorks" />
      </cc:License>
    </rdf:RDF>
  </metadata>
  <sodipodi:namedview
     inkscape:window-height="723"
     inkscape:window-width="1024"
     inkscape:pageshadow="2"
     inkscape:pageopacity="0.0"
     guidetolerance="10.0"
     gridtolerance="10.0"
     objecttolerance="10.0"
     borderopacity="1.0"
     bordercolor="#666666"
     pagecolor="#ffffff"
     id="base"
     showgrid="false"
     height="660px"
     inkscape:zoom="0.80151481"
     inkscape:cx="300"
     inkscape:cy="329.99986"
     inkscape:window-x="-4"
     inkscape:window-y="-4"
     inkscape:current-layer="layer4" />
  <desc
     id="desc4">Flag of Canton of Valais (Wallis)</desc>
  <defs
     id="defs6">
    <linearGradient
       id="linearGradient2893">
      <stop
         style="stop-color:white;stop-opacity:0.3137255;"
         offset="0"
         id="stop2895" />
      <stop
         id="stop2897"
         offset="0.19"
         style="stop-color:white;stop-opacity:0.25098041;" />
      <stop
         style="stop-color:#6b6b6b;stop-opacity:0.1254902;"
         offset="0.60000002"
         id="stop2901" />
      <stop
         style="stop-color:black;stop-opacity:0.1254902;"
         offset="1"
         id="stop2899" />
    </linearGradient>
    <radialGradient
       inkscape:collect="always"
       xlink:href="#linearGradient2893"
       id="radialGradient3163"
       gradientUnits="userSpaceOnUse"
       gradientTransform="matrix(1.353218,0,0,1.348928,-77.62935,-85.74693)"
       cx="221.44487"
       cy="226.33101"
       fx="221.44487"
       fy="226.33101"
       r="300" />
  </defs>
  <g
     inkscape:groupmode="layer"
     id="layer3"
     inkscape:label="Fond écu"
     style="display:inline">
    <path
       id="path2855"
       style="fill:#fcef3c;fill-opacity:1;fill-rule:evenodd;stroke:none;stroke-width:1px;stroke-linecap:butt;stroke-linejoin:miter;stroke-opacity:1"
       d="M 300,658.5 C 300,658.5 598.50001,546.17969 598.50001,260.72817 C 598.50001,-24.723354 598.50001,2.1764765 598.50001,2.1764765 L 1.5,2.1764765 L 1.5,260.72817 C 1.5,546.17969 300,658.5 300,658.5 z "
       sodipodi:nodetypes="cccccc" />
  </g>
  <g
     inkscape:groupmode="layer"
     id="layer4"
     inkscape:label="Meubles">
    <g
       id="g2292"
       transform="matrix(0.6524259,0,0,0.6524259,95.602249,8.521181)">
      <path
         sodipodi:nodetypes="csccccsccccsscscsccscscc"
         id="path2307"
         style="fill:#e20909;fill-opacity:1;fill-rule:evenodd;stroke:#000000;stroke-width:2.5;stroke-linecap:butt;stroke-linejoin:miter;stroke-miterlimit:4;stroke-dasharray:none;stroke-opacity:1;display:inline"
         d="M 467.94482,188.60315 C 467.53552,186.0518 595.4346,222.74006 609.03225,149.41284 C 617.87554,101.72411 563.08825,76.732903 544.42728,71.823171 C 520.91053,68.352994 489.63939,78.309452 489.63939,78.309452 C 474.0402,78.828357 464.49843,67.266687 455.39462,54.831554 C 458.14683,65.581027 456.30237,75.888677 469.3181,87.624637 C 469.3181,87.624637 458.40349,88.079174 447.58752,83.911374 C 436.77155,79.743573 431.45157,66.944113 431.45157,66.944113 C 435.62059,81.580701 440.55197,94.139291 448.92635,97.313292 C 422.90145,96.71511 402.94202,80.694343 384.79143,60.074238 C 392.66773,79.466733 402.55754,97.130044 420.19893,108.13643 C 373.31572,109.08423 358.64924,69.766191 331.18356,24.434623 C 314.99493,-2.2844031 292.4277,-3.7724281 283.01547,9.1585929 C 269.39029,27.877598 276.32474,50.038423 281.78262,66.937687 C 281.78262,66.937687 263.70261,78.726949 276.5967,90.324144 C 291.55059,103.77398 298.56511,113.59776 318.80368,112.5971 C 315.15096,114.39329 303.43665,88.263959 306.64173,70.467742 C 309.22199,56.140964 290.23809,63.118601 290.23809,63.118601 C 280.4909,32.176023 288.9123,-9.9992571 320.69174,32.897193 C 355.43397,84.418312 359.26096,125.47709 431.11356,117.93064 C 471.92282,113.64457 508.94132,77.238385 534.07295,82.632129 C 551.30378,80.85512 614.4687,115.24348 597.50032,149.22132 C 558.05518,228.20706 423.31439,144.6258 421.72724,160.20655 L 467.94482,188.60315 z " />
      <g
         transform="translate(-57.014176,-105.42532)"
         style="fill:#fcef3c;fill-opacity:1;stroke:#000000;stroke-width:2.5;stroke-linecap:round;stroke-linejoin:round;stroke-miterlimit:4;stroke-dasharray:none;stroke-opacity:1"
         id="g2295">
        <g
           style="fill:#fcef3c;fill-opacity:1;stroke:#000000;stroke-width:2.5;stroke-linecap:round;stroke-linejoin:round;stroke-miterlimit:4;stroke-dasharray:none;stroke-opacity:1"
           id="g8990">
          <g
             style="fill:#fcef3c;fill-opacity:1;stroke:#000000;stroke-width:2.5;stroke-linecap:round;stroke-linejoin:round;stroke-miterlimit:4;stroke-dasharray:none;stroke-opacity:1"
             id="g7203">
            <path
               d="M 370.34823,418.67157 C 369.59061,418.2634 381.14253,411.22848 378.93815,408.11824 C 366.77198,397.72823 355.26008,391.91814 348.25987,417.68986 C 358.24624,408.39728 364.16766,414.00953 370.34823,418.67157 z "
               style="opacity:1;color:#000000;fill:#2b5df2;fill-opacity:1;fill-rule:nonzero;stroke:#000000;stroke-width:2.5;stroke-linecap:round;stroke-linejoin:round;marker:none;marker-start:none;marker-mid:none;marker-end:none;stroke-miterlimit:4;stroke-dasharray:none;stroke-dashoffset:0;stroke-opacity:1;visibility:visible;display:inline;overflow:visible"
               id="path7195" />
            <path
               d="M 363.96715,461.86659 C 365.59487,463.77168 361.50088,436.46906 353.1684,444.68675 C 337.81791,454.14291 338.34688,464.35524 350.46871,475.11961 C 352.82305,459.11816 358.42472,460.65234 363.96715,461.86659 z "
               style="opacity:1;color:#000000;fill:#2b5df2;fill-opacity:1;fill-rule:nonzero;stroke:#000000;stroke-width:2.5;stroke-linecap:round;stroke-linejoin:round;marker:none;marker-start:none;marker-mid:none;marker-end:none;stroke-miterlimit:4;stroke-dasharray:none;stroke-dashoffset:0;stroke-opacity:1;visibility:visible;display:inline;overflow:visible"
               id="path7197" />
            <path
               d="M 410.10729,474.87418 C 411.32197,472.07178 405.75519,469.78856 400.33657,469.50094 C 394.91796,469.21332 389.64752,470.9213 391.45489,476.10131 C 395.33051,486.87571 399.87551,491.41242 402.7443,493.86261 C 404.94246,492.26872 409.17652,485.49087 410.10729,474.87418 z "
               style="opacity:1;color:#000000;fill:#2b5df2;fill-opacity:1;fill-rule:nonzero;stroke:#000000;stroke-width:2.5;stroke-linecap:round;stroke-linejoin:round;marker:none;marker-start:none;marker-mid:none;marker-end:none;stroke-miterlimit:4;stroke-dasharray:none;stroke-dashoffset:0;stroke-opacity:1;visibility:visible;display:inline;overflow:visible"
               id="path7199" />
            <path
               d="M 439.31302,460.1486 C 439.9629,453.1393 419.27399,459.89988 423.60573,462.35744 C 427.93747,464.815 430.93148,468.34274 425.56914,478.55557 C 442.86792,475.24602 438.66314,467.1579 439.31302,460.1486 z "
               style="opacity:1;color:#000000;fill:#2b5df2;fill-opacity:1;fill-rule:nonzero;stroke:#000000;stroke-width:2.5;stroke-linecap:round;stroke-linejoin:round;marker:none;marker-start:none;marker-mid:none;marker-end:none;stroke-miterlimit:4;stroke-dasharray:none;stroke-dashoffset:0;stroke-opacity:1;visibility:visible;display:inline;overflow:visible"
               id="path7201" />
          </g>
          <path
             sodipodi:nodetypes="ccccscccccccccccccccccccccscccccccc"
             d="M 492.85714,341.6479 L 460.71429,298.79075 L 454.28572,309.1479 C 435.87268,325.06367 415.41129,332.13125 394.90612,360.32392 C 386.06961,366.7366 383.18522,363.00011 376.30563,367.20992 C 367.39047,372.66535 368.81381,380.5261 368.71369,390.21801 C 373.28573,374.04248 389.35929,368.63445 404.84079,370.27465 C 406.79744,376.66269 410.79285,384.00587 417.50001,392.54075 C 422.26166,398.58979 427.94408,408.94912 404.64286,423.79075 C 402.03815,424.57549 397.48481,426.04689 391.07143,424.50504 C 389.07128,419.49543 388.92313,415.59702 389.28571,412.00504 C 386.23306,395.07185 360.28411,409.33806 369.28571,424.50504 C 380.70401,434.28885 377.22992,437.08235 365.35714,435.93361 C 359.35626,437.01561 353.32749,438.1311 345,442.00504 C 344.89665,444.01315 344.88037,445.93419 345.71429,447.00504 C 358.68917,445.48151 360.09367,460.75588 360,464.1479 C 361.74289,464.54786 363.40726,465.02635 366.07143,464.50504 C 379.30279,455.51486 380.64491,455.99569 384.13731,456.2807 C 389.37285,458.18199 381.80774,476.26439 392.14286,482.00504 C 398.66177,468.44913 409.68652,476.36143 411.26508,481.59761 C 413.91596,477.7344 413.75834,471.4639 413.21429,464.86218 C 415.1274,450.20397 421.79278,458.32779 424.64286,464.50504 C 431.35308,455.70293 434.92867,458.91633 439.40897,465.57647 C 442.60237,466.03178 442.94341,465.5437 444.28571,464.1479 L 446.07143,453.79075 C 446.64678,439.89275 456.45739,439.87401 458.59155,452.16853 C 460.29886,450.3222 462.51981,449.27464 462.5462,447.36142 C 462.80481,428.61052 463.94144,432.99921 472.3164,445.17909 C 476.36401,406.87162 479.58873,432.74995 483.21429,427.36218 C 487.19063,417.7949 472.97014,404.54718 495,407.00504 C 491.46171,401.67842 482.68931,400.93166 485.71429,389.86218 C 486.84876,382.78834 480.28715,379.74578 471.78572,377.71932 C 454.07765,371.41391 464.45217,365.75522 468.57143,361.29075 L 483.93863,351.31087 L 492.85714,341.6479 z "
             style="opacity:1;color:#000000;fill:#e20909;fill-opacity:1;fill-rule:nonzero;stroke:#000000;stroke-width:2.5;stroke-linecap:round;stroke-linejoin:round;marker:none;marker-start:none;marker-mid:none;marker-end:none;stroke-miterlimit:4;stroke-dasharray:none;stroke-dashoffset:0;stroke-opacity:1;visibility:visible;display:inline;overflow:visible"
             id="path2770" />
        </g>
      </g>
      <g
         transform="translate(-57.014176,-105.42532)"
         style="fill:#fcef3c;fill-opacity:1;stroke:#000000;stroke-width:2.5;stroke-linecap:round;stroke-linejoin:round;stroke-miterlimit:4;stroke-dasharray:none;stroke-opacity:1"
         id="g9884">
        <g
           style="fill:#fcef3c;fill-opacity:1;stroke:#000000;stroke-width:2.5;stroke-linecap:round;stroke-linejoin:round;stroke-miterlimit:4;stroke-dasharray:none;stroke-opacity:1"
           id="g8094">
          <path
             d="M 101.78001,203.34341 C 102.80795,206.16368 99.974163,206.67653 90.562292,208.58668 C 85.860501,202.6467 83.903404,194.62879 72.616399,192.8794 C 87.844706,182.06541 100.86232,186.07278 101.78001,203.34341 z "
             style="opacity:1;color:#000000;fill:#2b5df2;fill-opacity:1;fill-rule:nonzero;stroke:#000000;stroke-width:2.5;stroke-linecap:round;stroke-linejoin:round;marker:none;marker-start:none;marker-mid:none;marker-end:none;stroke-miterlimit:4;stroke-dasharray:none;stroke-dashoffset:0;stroke-opacity:1;visibility:visible;display:inline;overflow:visible"
             id="path6302" />
          <path
             d="M 137.92956,220.61257 C 137.96415,226.79869 126.31535,213.59792 125.78457,210.32933 C 133.42197,208.92575 139.58647,200.66551 133.08781,192.00658 C 152.51401,198.09168 147.00388,218.58599 137.92956,220.61257 z "
             style="opacity:1;color:#000000;fill:#2b5df2;fill-opacity:1;fill-rule:nonzero;stroke:#000000;stroke-width:2.5;stroke-linecap:round;stroke-linejoin:round;marker:none;marker-start:none;marker-mid:none;marker-end:none;stroke-miterlimit:4;stroke-dasharray:none;stroke-dashoffset:0;stroke-opacity:1;visibility:visible;display:inline;overflow:visible"
             id="path7189" />
          <path
             d="M 80.254389,254.23597 C 89.166116,255.98129 85.051138,232.60849 72.400748,234.60187 C 59.750358,236.59525 54.954069,246.44272 60.620288,266.75271 C 64.305986,255.43296 71.342662,252.49065 80.254389,254.23597 z "
             style="opacity:1;color:#000000;fill:#2b5df2;fill-opacity:1;fill-rule:nonzero;stroke:#000000;stroke-width:2.5;stroke-linecap:round;stroke-linejoin:round;marker:none;marker-start:none;marker-mid:none;marker-end:none;stroke-miterlimit:4;stroke-dasharray:none;stroke-dashoffset:0;stroke-opacity:1;visibility:visible;display:inline;overflow:visible"
             id="path7191" />
          <path
             d="M 106.76043,295.46758 C 106.30364,282.98072 91.676781,270.74767 90.807718,279.26945 C 86.697365,284.14478 83.400816,291.35816 71.173617,283.19627 C 71.377181,310.09722 100.28369,300.15422 106.76043,295.46758 z "
             style="opacity:1;color:#000000;fill:#2b5df2;fill-opacity:1;fill-rule:nonzero;stroke:#000000;stroke-width:2.5;stroke-linecap:round;stroke-linejoin:round;marker:none;marker-start:none;marker-mid:none;marker-end:none;stroke-miterlimit:4;stroke-dasharray:none;stroke-dashoffset:0;stroke-opacity:1;visibility:visible;display:inline;overflow:visible"
             id="path7193" />
        </g>
        <path
           d="M 201.2729,362.93307 L 217.94042,304.59676 L 207.58635,292.72747 C 186.45351,284.17372 163.05793,269.96313 137.88582,251.31121 C 122.01688,241.86483 133.82993,229.96532 141.42136,229.08786 C 143.56753,226.2748 142.28602,223.22717 140.4112,219.74395 C 135.26136,214.18308 132.26385,211.25237 129.8046,210.40004 C 126.72187,209.41727 122.82357,205.91355 124.24876,216.46095 C 125.34847,223.92068 117.35649,239.97331 108.5914,223.27948 C 107.75191,217.55759 107.68214,211.34272 108.08632,206.8645 C 106.6337,204.10815 107.01719,199.51569 102.53048,199.79343 C 95.392268,202.36214 90.140232,203.78993 86.368043,204.33912 C 84.893862,211.02627 83.310611,216.96412 95.459416,218.48126 C 96.183523,223.23874 97.727444,228.69891 93.944187,229.59293 C 84.795053,228.89733 72.982554,221.67422 67.175144,236.664 C 83.613726,238.9865 82.124202,250.37195 76.266517,254.34167 C 77.781748,259.22407 80.643843,260.40259 84.852814,257.87721 C 97.647042,251.80579 98.180646,254.67888 101.01525,256.36198 C 103.1061,264.83161 101.86238,271.23697 89.903577,271.00919 C 87.062362,272.05562 85.897151,276.38871 87.630733,281.36326 C 101.35968,284.49337 101.49893,289.05548 102.78302,295.75793 C 109.3816,298.73995 109.71534,304.14783 110.10663,287.42417 C 111.81547,278.5891 121.33115,286.94985 117.43024,292.47493 C 124.87961,296.82636 129.37043,292.76678 120.96577,302.82899 C 123.38802,306.67214 146.1126,304.18019 128.54192,314.44575 C 136.36618,317.56204 154.93218,316.65018 137.88582,329.09296 C 141.75708,333.2236 169.62324,331.48883 146.47212,342.22494 C 182.51056,347.53109 169.22772,351.34265 162.63456,355.35693 L 186.37314,361.92292 L 201.2729,362.93307 z "
           style="opacity:1;color:#000000;fill:#e20909;fill-opacity:1;fill-rule:nonzero;stroke:#000000;stroke-width:2.5;stroke-linecap:round;stroke-linejoin:round;marker:none;marker-start:none;marker-mid:none;marker-end:none;stroke-miterlimit:4;stroke-dasharray:none;stroke-dashoffset:0;stroke-opacity:1;visibility:visible;display:inline;overflow:visible"
           id="path1883" />
      </g>
      <g
         style="stroke-width:2.5;stroke-miterlimit:4;stroke-dasharray:none"
         transform="translate(-57.014176,-105.42532)"
         id="g3690">
        <g
           style="fill:#fcef3c;fill-opacity:1;stroke:#000000;stroke-width:2.5;stroke-linecap:round;stroke-linejoin:round;stroke-miterlimit:4;stroke-dasharray:none;stroke-opacity:1"
           id="g1896">
          <path
             d="M 80.499816,423.58009 C 66.431558,433.37573 64.511529,451.50329 82.217799,457.44891 C 78.561446,446.03171 81.786988,438.59877 90.562292,434.37884"
             style="opacity:1;color:#000000;fill:#2b5df2;fill-opacity:1;fill-rule:nonzero;stroke:#000000;stroke-width:2.5;stroke-linecap:round;stroke-linejoin:round;marker:none;marker-start:none;marker-mid:none;marker-end:none;stroke-miterlimit:4;stroke-dasharray:none;stroke-dashoffset:0;stroke-opacity:1;visibility:visible;display:inline;overflow:visible"
             id="path1888" />
          <path
             d="M 117.31376,444.19589 C 110.24259,464.15834 117.84067,474.87278 140.87468,475.85588 C 131.92917,467.98053 131.35558,459.26799 135.4753,450.08612"
             style="opacity:1;color:#000000;fill:#2b5df2;fill-opacity:1;fill-rule:nonzero;stroke:#000000;stroke-width:2.5;stroke-linecap:round;stroke-linejoin:round;marker:none;marker-start:none;marker-mid:none;marker-end:none;stroke-miterlimit:4;stroke-dasharray:none;stroke-dashoffset:0;stroke-opacity:1;visibility:visible;display:inline;overflow:visible"
             id="path1890" />
          <path
             d="M 178.4249,432.41543 C 184.20526,449.60071 175.9265,455.85113 164.19017,459.41232 C 169.21844,449.49829 167.97943,442.09117 163.20847,436.09683"
             style="opacity:1;color:#000000;fill:#2b5df2;fill-opacity:1;fill-rule:nonzero;stroke:#000000;stroke-width:2.5;stroke-linecap:round;stroke-linejoin:round;marker:none;marker-start:none;marker-mid:none;marker-end:none;stroke-miterlimit:4;stroke-dasharray:none;stroke-dashoffset:0;stroke-opacity:1;visibility:visible;display:inline;overflow:visible"
             id="path1892" />
          <path
             d="M 118.54089,370.56801 C 104.26003,355.29439 87.172907,357.53956 81.726947,374.98569 C 94.885891,371.02054 98.590566,374.0217 99.397638,379.15793"
             style="opacity:1;color:#000000;fill:#2b5df2;fill-opacity:1;fill-rule:nonzero;stroke:#000000;stroke-width:2.5;stroke-linecap:round;stroke-linejoin:round;marker:none;marker-start:none;marker-mid:none;marker-end:none;stroke-miterlimit:4;stroke-dasharray:none;stroke-dashoffset:0;stroke-opacity:1;visibility:visible;display:inline;overflow:visible"
             id="path1894" />
        </g>
        <g
           style="fill:#fcef3c;fill-opacity:1;stroke:#000000;stroke-width:2.5;stroke-linecap:round;stroke-linejoin:round;stroke-miterlimit:4;stroke-dasharray:none;stroke-opacity:1"
           id="g2799">
          <path
             d="M 578.7645,436.45957 C 567.56269,445.35775 559.90006,455.23903 573.38468,470.99455 C 574.2619,459.28224 580.0865,451.52785 590.21831,447.21921"
             style="opacity:1;color:#000000;fill:#2b5df2;fill-opacity:1;fill-rule:nonzero;stroke:#000000;stroke-width:2.5;stroke-linecap:round;stroke-linejoin:round;marker:none;marker-start:none;marker-mid:none;marker-end:none;stroke-miterlimit:4;stroke-dasharray:none;stroke-dashoffset:0;stroke-opacity:1;visibility:visible;display:inline;overflow:visible"
             id="path2791" />
          <path
             d="M 606.70485,457.28468 C 596.55267,467.0591 594.67682,476.31625 606.70485,484.70441 C 609.291,478.1687 608.12081,469.89929 621.9766,468.56495"
             style="opacity:1;color:#000000;fill:#2b5df2;fill-opacity:1;fill-rule:nonzero;stroke:#000000;stroke-width:2.5;stroke-linecap:round;stroke-linejoin:round;marker:none;marker-start:none;marker-mid:none;marker-end:none;stroke-miterlimit:4;stroke-dasharray:none;stroke-dashoffset:0;stroke-opacity:1;visibility:visible;display:inline;overflow:visible"
             id="path2793" />
          <path
             d="M 647.6609,463.8793 C 657.52782,467.94238 659.23269,476.49459 659.98242,485.57212 C 675.63872,477.8396 671.16224,465.75404 670.56852,454.508"
             style="opacity:1;color:#000000;fill:#2b5df2;fill-opacity:1;fill-rule:nonzero;stroke:#000000;stroke-width:2.5;stroke-linecap:round;stroke-linejoin:round;marker:none;marker-start:none;marker-mid:none;marker-end:none;stroke-miterlimit:4;stroke-dasharray:none;stroke-dashoffset:0;stroke-opacity:1;visibility:visible;display:inline;overflow:visible"
             id="path2795" />
          <path
             d="M 661.89139,421.70846 C 670.33707,419.30003 677.09206,420.73409 680.46045,429.86496 C 686.63568,413.37558 676.87484,407.62572 661.89139,405.39545"
             style="opacity:1;color:#000000;fill:#2b5df2;fill-opacity:1;fill-rule:nonzero;stroke:#000000;stroke-width:2.5;stroke-linecap:round;stroke-linejoin:round;marker:none;marker-start:none;marker-mid:none;marker-end:none;stroke-miterlimit:4;stroke-dasharray:none;stroke-dashoffset:0;stroke-opacity:1;visibility:visible;display:inline;overflow:visible"
             id="path2797" />
        </g>
        <path
           sodipodi:nodetypes="ccccccccsscccccccccccccccccccccccccccssccccccccccccccccccccccccccccccccccccc"
           d="M 282.01179,397.2934 C 299.21751,381.22208 298.42179,394.05129 299.88157,400.88335 C 321.11944,364.7444 312.20646,377.38419 319.1448,382.66138 C 335.40287,351.63704 330.70635,369.95738 334.06946,369.2986 C 346.63577,341.65835 347.05222,351.10714 351.59726,347.95286 C 372.2101,323.65632 414.38825,316.91294 454.16092,308.21161 C 477.87897,315.12596 479.7248,353.49407 490.51946,371.02406 C 494.97145,372.44572 507.07013,377.09421 511.67224,392.80924 C 515.36099,377.09203 501.10528,368.50863 505.82054,369.91906 C 510.5358,371.3295 534.48902,379.50829 539.28693,380.39326 C 558.48574,383.93447 578.08626,385.01084 596.98646,390.12371 C 601.63101,396.61075 606.74919,402.78204 612.77884,408.34568 C 611.87136,413.02772 612.96578,417.30937 614.34072,421.53492 C 605.89178,423.73979 600.38594,419.8132 586.92099,432.4681 L 577.89678,433.33581 C 572.02161,432.866 572.13994,435.56921 574.07884,439.23626 C 577.16796,438.14743 582.56454,443.11569 589.35059,451.73132 C 611.24334,438.21967 612.32626,442.7751 615.03489,444.96316 C 605.47515,451.39659 600.59103,449.41322 603.58108,460.23491 C 612.45043,458.47743 615.94844,466.38837 620.41471,472.55643 C 624.64365,472.88614 629.1375,474.98189 632.04206,466.48244 C 634.41508,455.40385 643.96488,458.9135 645.57839,468.91204 C 664.20863,453.42407 666.49986,458.08754 671.95686,458.84657 C 677.23273,453.314 674.60387,449.36237 670.74206,445.65733 C 643.46841,433.44751 662.66296,426.04408 667.61829,424.83223 C 661.45935,421.05926 661.51502,412.81177 666.92412,400.70981 C 662.93482,400.53509 660.15726,399.7079 650.43758,402.61878 C 636.3535,396.21939 648.23577,395.28661 649.91695,392.20622 C 626.33598,375.02109 648.9507,383.0336 648.87569,378.6699 C 622.57895,361.96817 645.42714,367.97532 645.57839,363.39815 C 641.49201,357.94018 624.35226,370.26097 632.21561,348.99412 C 621.72869,350.32007 609.30419,354.39612 612.6053,336.15197 C 602.11463,341.20774 575.42019,350.54501 543.18826,311.68247 C 529.82548,293.4605 494.74963,262.39092 469.77976,263.26409 C 428.29276,268.20004 407.77911,261.84264 339.62282,281.13897 L 231.67934,285.13045 L 205.8215,287.38651 C 206.38169,335.37496 194.77299,359.40889 178.86787,371.02181 C 178.08267,371.59511 167.75036,376.31623 166.93698,376.8173 C 151.08455,386.58294 137.05023,396.30792 130.50402,394.28873 C 123.06237,393.25263 121.06083,389.76848 122.86814,384.57035 C 123.73416,380.00073 124.28689,375.49377 122.86814,371.38111 C 121.63779,369.4115 121.95255,366.28305 117.31478,366.86901 C 112.88142,375.74251 105.54372,378.22648 96.489673,376.93447 C 94.233667,377.92463 92.806791,381.20831 94.754247,384.91743 C 108.25262,393.17525 105.45625,394.60175 106.55514,406.08963 C 98.921733,408.19108 91.307462,410.30136 89.54797,415.11384 C 85.351764,414.71998 81.051219,414.16961 77.747074,415.11384 C 76.095704,418.91497 75.351596,422.53464 76.011649,425.87348 C 90.806362,431.69442 86.368318,434.3099 88.506714,438.02146 C 96.837296,436.17195 103.56902,429.52589 111.06725,425.17931 C 122.80588,420.78452 122.05321,430.11566 119.39729,434.8977 C 116.7363,435.37376 114.07532,439.06782 111.41433,442.18648 C 109.80798,445.87534 110.40983,447.35601 111.06725,448.7811 C 132.10132,446.79543 129.40133,452.06183 135.36321,454.68155 C 145.49028,456.75559 140.61542,450.64676 141.61074,447.73985 C 139.13603,438.50659 143.39219,438.02345 145.08159,434.20352 C 148.23652,431.5676 153.67221,427.9244 153.41164,438.02146 C 155.10255,446.6732 160.0198,445.18505 164.86545,443.92191 C 163.34465,433.73356 168.47898,432.14142 178.05468,436.28604 C 179.92566,435.31644 181.38465,433.6602 181.87262,430.38559 C 176.0986,417.6027 189.98719,414.85896 197.49145,421.01429 L 196.4502,433.50935 C 203.83911,421.23368 210.22845,415.75686 214.84571,414.41967 C 213.33885,421.81085 213.1163,427.73426 214.84571,431.42684 C 225.39837,412.71451 230.92441,411.59533 236.0179,411.99008 C 235.21859,418.67401 235.60941,422.38261 235.67082,426.91474 C 242.45528,421.53725 246.30076,415.7399 249.90131,409.90756 C 257.63914,404.51739 258.5241,410.66888 257.53718,419.97303 C 259.62082,420.3924 262.48475,417.74509 267.25557,412.33716 C 272.7255,400.76602 276.59043,400.46055 281.48606,402.27169 C 281.98062,395.17423 284.21265,384.6062 281.13897,381.44658 C 282.35787,379.91357 286.42222,382.3642 289.8161,383.87618 C 290.85448,377.34752 289.64949,368.12683 288.42776,358.88605 C 292.08268,358.93337 294.06707,360.65122 296.41072,362.00981 C 295.49597,353.3316 294.52114,344.87372 292.2457,341.1847"
           style="color:#000000;fill:#e20909;fill-opacity:1;fill-rule:nonzero;stroke:#000000;stroke-width:2.5;stroke-linecap:round;stroke-linejoin:round;marker:none;marker-start:none;marker-mid:none;marker-end:none;stroke-miterlimit:4;stroke-dasharray:none;stroke-dashoffset:0;stroke-opacity:1;visibility:visible;display:inline;overflow:visible"
           id="path13442" />
      </g>
      <path
         sodipodi:nodetypes="cccc"
         id="path2323"
         d="M 405.91623,207.58949 C 402.62159,204.98369 404.36097,205.93221 397.45334,203.56554 C 386.31079,206.99402 372.18986,212.21952 360.19019,219.07647 C 381.61817,213.77777 390.48808,209.30373 405.91623,207.58949 z "
         style="fill:#e20909;fill-opacity:1;fill-rule:evenodd;stroke:#000000;stroke-width:2.5;stroke-linecap:butt;stroke-linejoin:miter;stroke-miterlimit:4;stroke-dasharray:none;stroke-opacity:1" />
      <g
         style="stroke-width:1.6897018;stroke-miterlimit:4;stroke-dasharray:none"
         transform="matrix(1.4565172,-0.2600552,0.2600552,1.4565172,-57.208221,80.353079)"
         id="g2235">
        <path
           d="M 130.00497,65.064139 C 130.47281,62.284296 129.99308,60.313347 131.4446,56.69375 C 133.22902,60.451463 136.61586,62.156847 139.33624,64.715833"
           style="fill:#e20909;fill-opacity:1;fill-rule:evenodd;stroke:#000000;stroke-width:1.6897018;stroke-linecap:round;stroke-linejoin:round;stroke-miterlimit:4;stroke-dasharray:none;stroke-opacity:1"
           id="path2476" />
        <path
           d="M 160.41626,42.561106 C 136.95423,42.385451 118.45866,64.300178 97.739426,45.063998 C 109.14423,72.92704 134.5364,48.312276 161.37583,51.673153 L 160.41626,42.561106 z "
           style="fill:#2b5df2;fill-opacity:1;fill-rule:evenodd;stroke:#000000;stroke-width:1.6897018;stroke-linecap:round;stroke-linejoin:round;stroke-miterlimit:4;stroke-dasharray:none;stroke-opacity:1"
           id="path3447" />
        <path
           d="M 123.80891,39.8834 C 123.9726,43.367768 125.85764,46.095792 129.08475,48.234143 C 127.71568,43.771726 131.36582,41.466263 133.68894,38.590529"
           style="fill:#e20909;fill-opacity:1;fill-rule:evenodd;stroke:#000000;stroke-width:1.6897018;stroke-linecap:round;stroke-linejoin:round;stroke-miterlimit:4;stroke-dasharray:none;stroke-opacity:1"
           id="path2474" />
        <path
           d="M 134.07099,127.05634 L 130.93345,136.87623 L 139.52651,132.39715 C 125.17442,153.94443 139.7747,158.6135 155.2605,162.76633 C 151.56021,149.63581 166.72217,142.28818 172.70025,129.31074 C 166.74385,142.10063 168.7515,150.24332 190.86806,146.65203 C 170.24389,138.12164 194.56469,129.94899 188.46163,113.47519 C 191.51172,122.64375 199.32578,119.21125 205.63289,119.76479 C 186.82143,110.46052 199.56049,99.144551 202.12894,88.477077 L 196.12232,68.371655 C 198.56376,81.151606 206.86035,77.642785 213.98011,77.407855 C 200.43157,72.064599 213.13601,55.109534 197.54235,43.830694 C 203.30936,47.40614 208.98776,51.981353 215.2796,49.637128 C 202.07743,45.540238 208.70325,32.571 196.92234,27.220512 C 203.81651,28.843097 208.44559,27.161368 213.83527,26.589205 C 208.11398,24.558353 202.4902,25.140808 196.64678,19.838207 L 188.05137,8.6081102 L 162.75832,3.7767525 C 156.14398,4.4771411 149.72232,5.8353691 143.99363,9.5595866 C 138.97302,11.268975 132.7788,12.119057 132.30489,17.157479 C 122.20373,17.402063 101.85633,24.967414 116.29379,26.302797 C 115.13973,36.587769 117.17191,39.818117 122.66833,40.619017 C 134.57411,44.832046 138.74505,36.376903 148.17431,35.508632 C 167.4491,44.432972 157.1164,56.194103 150.27933,60.611057 C 142.84794,65.411975 131.59096,60.615593 131.59096,60.615593 C 126.90888,65.564741 126.83508,68.801759 131.36945,70.326636 C 136.25779,76.015068 138.69845,71.911181 141.90155,70.857586 C 162.05072,74.005527 160.77702,63.3581 168.89883,58.760967 C 162.13447,66.28389 168.24077,78.372463 145.74523,79.954848 C 134.12769,80.777077 135.98888,76.738236 124.93813,77.959287 C 113.8874,79.180356 110.00242,85.693107 101.54227,84.839069 C 93.97975,84.075643 83.516075,83.086246 93.323396,68.050488 C 75.737025,80.891486 89.504156,96.681769 110.61757,93.27901 C 91.611047,96.53265 79.051412,102.86036 64.972634,90.824465 C 82.312287,120.83255 95.657101,104.00247 119.83924,105.64083 C 95.613501,105.49416 95.561321,125.2353 70.14008,119.7399 C 75.850435,130.38617 84.086946,129.82478 94.996321,128.51489 C 90.52129,131.66005 85.994939,139.65126 77.827431,137.93445 C 81.349906,145.60538 94.459571,144.40953 105.77074,143.35994 C 118.64023,142.16573 126.19403,134.14022 134.07099,127.05634 z "
           style="fill:#e20909;fill-opacity:1;fill-rule:evenodd;stroke:#000000;stroke-width:1.6897018;stroke-linecap:round;stroke-linejoin:round;stroke-miterlimit:4;stroke-dasharray:none;stroke-opacity:1"
           id="path2462" />
        <path
           d="M 171.60227,13.84247 C 170.91241,4.0475852 179.95943,3.5465992 186.89239,1.0277603 C 185.60976,7.2276674 185.6807,15.40215 181.36292,17.174441"
           style="fill:#e20909;fill-opacity:1;fill-rule:evenodd;stroke:#000000;stroke-width:1.6897018;stroke-linecap:round;stroke-linejoin:round;stroke-miterlimit:4;stroke-dasharray:none;stroke-opacity:1"
           id="path2472" />
        <path
           sodipodi:nodetypes="ccc"
           d="M 133.48595,18.082995 C 136.25728,22.259817 138.77353,19.602387 141.34568,18.443048 C 148.15698,11.795543 152.12434,17.247594 156.68926,20.157286"
           style="fill:#e20909;fill-opacity:1;fill-rule:evenodd;stroke:#000000;stroke-width:1.6897018;stroke-linecap:round;stroke-linejoin:round;stroke-miterlimit:4;stroke-dasharray:none;stroke-opacity:1"
           id="path3449" />
        <path
           d="M 137.50838,21.058822 C 140.26472,22.990403 141.9451,23.753787 144.60422,23.080904 C 148.92234,22.124517 150.36689,19.735787 152.33608,20.015281 C 152.2711,18.297304 152.02426,16.644442 149.29105,15.881716 C 142.73406,16.845747 142.88208,19.069721 137.50838,21.058822 z "
           style="fill:#e20909;fill-opacity:1;fill-rule:evenodd;stroke:#000000;stroke-width:1.6897018;stroke-linecap:round;stroke-linejoin:round;stroke-miterlimit:4;stroke-dasharray:none;stroke-opacity:1"
           id="path3451" />
      </g>
    </g>
    <g
       id="g4423"
       transform="matrix(0.6524259,0,0,0.6524259,95.602249,259.64633)">
      <path
         sodipodi:nodetypes="csccccsccccsscscsccscscc"
         id="path4425"
         style="fill:#e20909;fill-opacity:1;fill-rule:evenodd;stroke:#000000;stroke-width:2.5;stroke-linecap:butt;stroke-linejoin:miter;stroke-miterlimit:4;stroke-dasharray:none;stroke-opacity:1;display:inline"
         d="M 467.94482,188.60315 C 467.53552,186.0518 595.4346,222.74006 609.03225,149.41284 C 617.87554,101.72411 563.08825,76.732903 544.42728,71.823171 C 520.91053,68.352994 489.63939,78.309452 489.63939,78.309452 C 474.0402,78.828357 464.49843,67.266687 455.39462,54.831554 C 458.14683,65.581027 456.30237,75.888677 469.3181,87.624637 C 469.3181,87.624637 458.40349,88.079174 447.58752,83.911374 C 436.77155,79.743573 431.45157,66.944113 431.45157,66.944113 C 435.62059,81.580701 440.55197,94.139291 448.92635,97.313292 C 422.90145,96.71511 402.94202,80.694343 384.79143,60.074238 C 392.66773,79.466733 402.55754,97.130044 420.19893,108.13643 C 373.31572,109.08423 358.64924,69.766191 331.18356,24.434623 C 314.99493,-2.2844031 292.4277,-3.7724281 283.01547,9.1585929 C 269.39029,27.877598 276.32474,50.038423 281.78262,66.937687 C 281.78262,66.937687 263.70261,78.726949 276.5967,90.324144 C 291.55059,103.77398 298.56511,113.59776 318.80368,112.5971 C 315.15096,114.39329 303.43665,88.263959 306.64173,70.467742 C 309.22199,56.140964 290.23809,63.118601 290.23809,63.118601 C 280.4909,32.176023 288.9123,-9.9992571 320.69174,32.897193 C 355.43397,84.418312 359.26096,125.47709 431.11356,117.93064 C 471.92282,113.64457 508.94132,77.238385 534.07295,82.632129 C 551.30378,80.85512 614.4687,115.24348 597.50032,149.22132 C 558.05518,228.20706 423.31439,144.6258 421.72724,160.20655 L 467.94482,188.60315 z " />
      <g
         transform="translate(-57.014176,-105.42532)"
         style="fill:#fcef3c;fill-opacity:1;stroke:#000000;stroke-width:2.5;stroke-linecap:round;stroke-linejoin:round;stroke-miterlimit:4;stroke-dasharray:none;stroke-opacity:1"
         id="g4427">
        <g
           style="fill:#fcef3c;fill-opacity:1;stroke:#000000;stroke-width:2.5;stroke-linecap:round;stroke-linejoin:round;stroke-miterlimit:4;stroke-dasharray:none;stroke-opacity:1"
           id="g4429">
          <g
             style="fill:#fcef3c;fill-opacity:1;stroke:#000000;stroke-width:2.5;stroke-linecap:round;stroke-linejoin:round;stroke-miterlimit:4;stroke-dasharray:none;stroke-opacity:1"
             id="g4431">
            <path
               d="M 370.34823,418.67157 C 369.59061,418.2634 381.14253,411.22848 378.93815,408.11824 C 366.77198,397.72823 355.26008,391.91814 348.25987,417.68986 C 358.24624,408.39728 364.16766,414.00953 370.34823,418.67157 z "
               style="opacity:1;color:#000000;fill:#2b5df2;fill-opacity:1;fill-rule:nonzero;stroke:#000000;stroke-width:2.5;stroke-linecap:round;stroke-linejoin:round;marker:none;marker-start:none;marker-mid:none;marker-end:none;stroke-miterlimit:4;stroke-dasharray:none;stroke-dashoffset:0;stroke-opacity:1;visibility:visible;display:inline;overflow:visible"
               id="path4433" />
            <path
               d="M 363.96715,461.86659 C 365.59487,463.77168 361.50088,436.46906 353.1684,444.68675 C 337.81791,454.14291 338.34688,464.35524 350.46871,475.11961 C 352.82305,459.11816 358.42472,460.65234 363.96715,461.86659 z "
               style="opacity:1;color:#000000;fill:#2b5df2;fill-opacity:1;fill-rule:nonzero;stroke:#000000;stroke-width:2.5;stroke-linecap:round;stroke-linejoin:round;marker:none;marker-start:none;marker-mid:none;marker-end:none;stroke-miterlimit:4;stroke-dasharray:none;stroke-dashoffset:0;stroke-opacity:1;visibility:visible;display:inline;overflow:visible"
               id="path4435" />
            <path
               d="M 410.10729,474.87418 C 411.32197,472.07178 405.75519,469.78856 400.33657,469.50094 C 394.91796,469.21332 389.64752,470.9213 391.45489,476.10131 C 395.33051,486.87571 399.87551,491.41242 402.7443,493.86261 C 404.94246,492.26872 409.17652,485.49087 410.10729,474.87418 z "
               style="opacity:1;color:#000000;fill:#2b5df2;fill-opacity:1;fill-rule:nonzero;stroke:#000000;stroke-width:2.5;stroke-linecap:round;stroke-linejoin:round;marker:none;marker-start:none;marker-mid:none;marker-end:none;stroke-miterlimit:4;stroke-dasharray:none;stroke-dashoffset:0;stroke-opacity:1;visibility:visible;display:inline;overflow:visible"
               id="path4437" />
            <path
               d="M 439.31302,460.1486 C 439.9629,453.1393 419.27399,459.89988 423.60573,462.35744 C 427.93747,464.815 430.93148,468.34274 425.56914,478.55557 C 442.86792,475.24602 438.66314,467.1579 439.31302,460.1486 z "
               style="opacity:1;color:#000000;fill:#2b5df2;fill-opacity:1;fill-rule:nonzero;stroke:#000000;stroke-width:2.5;stroke-linecap:round;stroke-linejoin:round;marker:none;marker-start:none;marker-mid:none;marker-end:none;stroke-miterlimit:4;stroke-dasharray:none;stroke-dashoffset:0;stroke-opacity:1;visibility:visible;display:inline;overflow:visible"
               id="path4439" />
          </g>
          <path
             sodipodi:nodetypes="ccccscccccccccccccccccccccscccccccc"
             d="M 492.85714,341.6479 L 460.71429,298.79075 L 454.28572,309.1479 C 435.87268,325.06367 415.41129,332.13125 394.90612,360.32392 C 386.06961,366.7366 383.18522,363.00011 376.30563,367.20992 C 367.39047,372.66535 368.81381,380.5261 368.71369,390.21801 C 373.28573,374.04248 389.35929,368.63445 404.84079,370.27465 C 406.79744,376.66269 410.79285,384.00587 417.50001,392.54075 C 422.26166,398.58979 427.94408,408.94912 404.64286,423.79075 C 402.03815,424.57549 397.48481,426.04689 391.07143,424.50504 C 389.07128,419.49543 388.92313,415.59702 389.28571,412.00504 C 386.23306,395.07185 360.28411,409.33806 369.28571,424.50504 C 380.70401,434.28885 377.22992,437.08235 365.35714,435.93361 C 359.35626,437.01561 353.32749,438.1311 345,442.00504 C 344.89665,444.01315 344.88037,445.93419 345.71429,447.00504 C 358.68917,445.48151 360.09367,460.75588 360,464.1479 C 361.74289,464.54786 363.40726,465.02635 366.07143,464.50504 C 379.30279,455.51486 380.64491,455.99569 384.13731,456.2807 C 389.37285,458.18199 381.80774,476.26439 392.14286,482.00504 C 398.66177,468.44913 409.68652,476.36143 411.26508,481.59761 C 413.91596,477.7344 413.75834,471.4639 413.21429,464.86218 C 415.1274,450.20397 421.79278,458.32779 424.64286,464.50504 C 431.35308,455.70293 434.92867,458.91633 439.40897,465.57647 C 442.60237,466.03178 442.94341,465.5437 444.28571,464.1479 L 446.07143,453.79075 C 446.64678,439.89275 456.45739,439.87401 458.59155,452.16853 C 460.29886,450.3222 462.51981,449.27464 462.5462,447.36142 C 462.80481,428.61052 463.94144,432.99921 472.3164,445.17909 C 476.36401,406.87162 479.58873,432.74995 483.21429,427.36218 C 487.19063,417.7949 472.97014,404.54718 495,407.00504 C 491.46171,401.67842 482.68931,400.93166 485.71429,389.86218 C 486.84876,382.78834 480.28715,379.74578 471.78572,377.71932 C 454.07765,371.41391 464.45217,365.75522 468.57143,361.29075 L 483.93863,351.31087 L 492.85714,341.6479 z "
             style="opacity:1;color:#000000;fill:#e20909;fill-opacity:1;fill-rule:nonzero;stroke:#000000;stroke-width:2.5;stroke-linecap:round;stroke-linejoin:round;marker:none;marker-start:none;marker-mid:none;marker-end:none;stroke-miterlimit:4;stroke-dasharray:none;stroke-dashoffset:0;stroke-opacity:1;visibility:visible;display:inline;overflow:visible"
             id="path4441" />
        </g>
      </g>
      <g
         transform="translate(-57.014176,-105.42532)"
         style="fill:#fcef3c;fill-opacity:1;stroke:#000000;stroke-width:2.5;stroke-linecap:round;stroke-linejoin:round;stroke-miterlimit:4;stroke-dasharray:none;stroke-opacity:1"
         id="g4443">
        <g
           style="fill:#fcef3c;fill-opacity:1;stroke:#000000;stroke-width:2.5;stroke-linecap:round;stroke-linejoin:round;stroke-miterlimit:4;stroke-dasharray:none;stroke-opacity:1"
           id="g4445">
          <path
             d="M 101.78001,203.34341 C 102.80795,206.16368 99.974163,206.67653 90.562292,208.58668 C 85.860501,202.6467 83.903404,194.62879 72.616399,192.8794 C 87.844706,182.06541 100.86232,186.07278 101.78001,203.34341 z "
             style="opacity:1;color:#000000;fill:#2b5df2;fill-opacity:1;fill-rule:nonzero;stroke:#000000;stroke-width:2.5;stroke-linecap:round;stroke-linejoin:round;marker:none;marker-start:none;marker-mid:none;marker-end:none;stroke-miterlimit:4;stroke-dasharray:none;stroke-dashoffset:0;stroke-opacity:1;visibility:visible;display:inline;overflow:visible"
             id="path4447" />
          <path
             d="M 137.92956,220.61257 C 137.96415,226.79869 126.31535,213.59792 125.78457,210.32933 C 133.42197,208.92575 139.58647,200.66551 133.08781,192.00658 C 152.51401,198.09168 147.00388,218.58599 137.92956,220.61257 z "
             style="opacity:1;color:#000000;fill:#2b5df2;fill-opacity:1;fill-rule:nonzero;stroke:#000000;stroke-width:2.5;stroke-linecap:round;stroke-linejoin:round;marker:none;marker-start:none;marker-mid:none;marker-end:none;stroke-miterlimit:4;stroke-dasharray:none;stroke-dashoffset:0;stroke-opacity:1;visibility:visible;display:inline;overflow:visible"
             id="path4449" />
          <path
             d="M 80.254389,254.23597 C 89.166116,255.98129 85.051138,232.60849 72.400748,234.60187 C 59.750358,236.59525 54.954069,246.44272 60.620288,266.75271 C 64.305986,255.43296 71.342662,252.49065 80.254389,254.23597 z "
             style="opacity:1;color:#000000;fill:#2b5df2;fill-opacity:1;fill-rule:nonzero;stroke:#000000;stroke-width:2.5;stroke-linecap:round;stroke-linejoin:round;marker:none;marker-start:none;marker-mid:none;marker-end:none;stroke-miterlimit:4;stroke-dasharray:none;stroke-dashoffset:0;stroke-opacity:1;visibility:visible;display:inline;overflow:visible"
             id="path4451" />
          <path
             d="M 106.76043,295.46758 C 106.30364,282.98072 91.676781,270.74767 90.807718,279.26945 C 86.697365,284.14478 83.400816,291.35816 71.173617,283.19627 C 71.377181,310.09722 100.28369,300.15422 106.76043,295.46758 z "
             style="opacity:1;color:#000000;fill:#2b5df2;fill-opacity:1;fill-rule:nonzero;stroke:#000000;stroke-width:2.5;stroke-linecap:round;stroke-linejoin:round;marker:none;marker-start:none;marker-mid:none;marker-end:none;stroke-miterlimit:4;stroke-dasharray:none;stroke-dashoffset:0;stroke-opacity:1;visibility:visible;display:inline;overflow:visible"
             id="path4453" />
        </g>
        <path
           d="M 201.2729,362.93307 L 217.94042,304.59676 L 207.58635,292.72747 C 186.45351,284.17372 163.05793,269.96313 137.88582,251.31121 C 122.01688,241.86483 133.82993,229.96532 141.42136,229.08786 C 143.56753,226.2748 142.28602,223.22717 140.4112,219.74395 C 135.26136,214.18308 132.26385,211.25237 129.8046,210.40004 C 126.72187,209.41727 122.82357,205.91355 124.24876,216.46095 C 125.34847,223.92068 117.35649,239.97331 108.5914,223.27948 C 107.75191,217.55759 107.68214,211.34272 108.08632,206.8645 C 106.6337,204.10815 107.01719,199.51569 102.53048,199.79343 C 95.392268,202.36214 90.140232,203.78993 86.368043,204.33912 C 84.893862,211.02627 83.310611,216.96412 95.459416,218.48126 C 96.183523,223.23874 97.727444,228.69891 93.944187,229.59293 C 84.795053,228.89733 72.982554,221.67422 67.175144,236.664 C 83.613726,238.9865 82.124202,250.37195 76.266517,254.34167 C 77.781748,259.22407 80.643843,260.40259 84.852814,257.87721 C 97.647042,251.80579 98.180646,254.67888 101.01525,256.36198 C 103.1061,264.83161 101.86238,271.23697 89.903577,271.00919 C 87.062362,272.05562 85.897151,276.38871 87.630733,281.36326 C 101.35968,284.49337 101.49893,289.05548 102.78302,295.75793 C 109.3816,298.73995 109.71534,304.14783 110.10663,287.42417 C 111.81547,278.5891 121.33115,286.94985 117.43024,292.47493 C 124.87961,296.82636 129.37043,292.76678 120.96577,302.82899 C 123.38802,306.67214 146.1126,304.18019 128.54192,314.44575 C 136.36618,317.56204 154.93218,316.65018 137.88582,329.09296 C 141.75708,333.2236 169.62324,331.48883 146.47212,342.22494 C 182.51056,347.53109 169.22772,351.34265 162.63456,355.35693 L 186.37314,361.92292 L 201.2729,362.93307 z "
           style="opacity:1;color:#000000;fill:#e20909;fill-opacity:1;fill-rule:nonzero;stroke:#000000;stroke-width:2.5;stroke-linecap:round;stroke-linejoin:round;marker:none;marker-start:none;marker-mid:none;marker-end:none;stroke-miterlimit:4;stroke-dasharray:none;stroke-dashoffset:0;stroke-opacity:1;visibility:visible;display:inline;overflow:visible"
           id="path4455" />
      </g>
      <g
         style="stroke-width:2.5;stroke-miterlimit:4;stroke-dasharray:none"
         transform="translate(-57.014176,-105.42532)"
         id="g4457">
        <g
           style="fill:#fcef3c;fill-opacity:1;stroke:#000000;stroke-width:2.5;stroke-linecap:round;stroke-linejoin:round;stroke-miterlimit:4;stroke-dasharray:none;stroke-opacity:1"
           id="g4459">
          <path
             d="M 80.499816,423.58009 C 66.431558,433.37573 64.511529,451.50329 82.217799,457.44891 C 78.561446,446.03171 81.786988,438.59877 90.562292,434.37884"
             style="opacity:1;color:#000000;fill:#2b5df2;fill-opacity:1;fill-rule:nonzero;stroke:#000000;stroke-width:2.5;stroke-linecap:round;stroke-linejoin:round;marker:none;marker-start:none;marker-mid:none;marker-end:none;stroke-miterlimit:4;stroke-dasharray:none;stroke-dashoffset:0;stroke-opacity:1;visibility:visible;display:inline;overflow:visible"
             id="path4461" />
          <path
             d="M 117.31376,444.19589 C 110.24259,464.15834 117.84067,474.87278 140.87468,475.85588 C 131.92917,467.98053 131.35558,459.26799 135.4753,450.08612"
             style="opacity:1;color:#000000;fill:#2b5df2;fill-opacity:1;fill-rule:nonzero;stroke:#000000;stroke-width:2.5;stroke-linecap:round;stroke-linejoin:round;marker:none;marker-start:none;marker-mid:none;marker-end:none;stroke-miterlimit:4;stroke-dasharray:none;stroke-dashoffset:0;stroke-opacity:1;visibility:visible;display:inline;overflow:visible"
             id="path4463" />
          <path
             d="M 178.4249,432.41543 C 184.20526,449.60071 175.9265,455.85113 164.19017,459.41232 C 169.21844,449.49829 167.97943,442.09117 163.20847,436.09683"
             style="opacity:1;color:#000000;fill:#2b5df2;fill-opacity:1;fill-rule:nonzero;stroke:#000000;stroke-width:2.5;stroke-linecap:round;stroke-linejoin:round;marker:none;marker-start:none;marker-mid:none;marker-end:none;stroke-miterlimit:4;stroke-dasharray:none;stroke-dashoffset:0;stroke-opacity:1;visibility:visible;display:inline;overflow:visible"
             id="path4465" />
          <path
             d="M 118.54089,370.56801 C 104.26003,355.29439 87.172907,357.53956 81.726947,374.98569 C 94.885891,371.02054 98.590566,374.0217 99.397638,379.15793"
             style="opacity:1;color:#000000;fill:#2b5df2;fill-opacity:1;fill-rule:nonzero;stroke:#000000;stroke-width:2.5;stroke-linecap:round;stroke-linejoin:round;marker:none;marker-start:none;marker-mid:none;marker-end:none;stroke-miterlimit:4;stroke-dasharray:none;stroke-dashoffset:0;stroke-opacity:1;visibility:visible;display:inline;overflow:visible"
             id="path4467" />
        </g>
        <g
           style="fill:#fcef3c;fill-opacity:1;stroke:#000000;stroke-width:2.5;stroke-linecap:round;stroke-linejoin:round;stroke-miterlimit:4;stroke-dasharray:none;stroke-opacity:1"
           id="g4469">
          <path
             d="M 578.7645,436.45957 C 567.56269,445.35775 559.90006,455.23903 573.38468,470.99455 C 574.2619,459.28224 580.0865,451.52785 590.21831,447.21921"
             style="opacity:1;color:#000000;fill:#2b5df2;fill-opacity:1;fill-rule:nonzero;stroke:#000000;stroke-width:2.5;stroke-linecap:round;stroke-linejoin:round;marker:none;marker-start:none;marker-mid:none;marker-end:none;stroke-miterlimit:4;stroke-dasharray:none;stroke-dashoffset:0;stroke-opacity:1;visibility:visible;display:inline;overflow:visible"
             id="path4471" />
          <path
             d="M 606.70485,457.28468 C 596.55267,467.0591 594.67682,476.31625 606.70485,484.70441 C 609.291,478.1687 608.12081,469.89929 621.9766,468.56495"
             style="opacity:1;color:#000000;fill:#2b5df2;fill-opacity:1;fill-rule:nonzero;stroke:#000000;stroke-width:2.5;stroke-linecap:round;stroke-linejoin:round;marker:none;marker-start:none;marker-mid:none;marker-end:none;stroke-miterlimit:4;stroke-dasharray:none;stroke-dashoffset:0;stroke-opacity:1;visibility:visible;display:inline;overflow:visible"
             id="path4473" />
          <path
             d="M 647.6609,463.8793 C 657.52782,467.94238 659.23269,476.49459 659.98242,485.57212 C 675.63872,477.8396 671.16224,465.75404 670.56852,454.508"
             style="opacity:1;color:#000000;fill:#2b5df2;fill-opacity:1;fill-rule:nonzero;stroke:#000000;stroke-width:2.5;stroke-linecap:round;stroke-linejoin:round;marker:none;marker-start:none;marker-mid:none;marker-end:none;stroke-miterlimit:4;stroke-dasharray:none;stroke-dashoffset:0;stroke-opacity:1;visibility:visible;display:inline;overflow:visible"
             id="path4475" />
          <path
             d="M 661.89139,421.70846 C 670.33707,419.30003 677.09206,420.73409 680.46045,429.86496 C 686.63568,413.37558 676.87484,407.62572 661.89139,405.39545"
             style="opacity:1;color:#000000;fill:#2b5df2;fill-opacity:1;fill-rule:nonzero;stroke:#000000;stroke-width:2.5;stroke-linecap:round;stroke-linejoin:round;marker:none;marker-start:none;marker-mid:none;marker-end:none;stroke-miterlimit:4;stroke-dasharray:none;stroke-dashoffset:0;stroke-opacity:1;visibility:visible;display:inline;overflow:visible"
             id="path4477" />
        </g>
        <path
           sodipodi:nodetypes="ccccccccsscccccccccccccccccccccccccccssccccccccccccccccccccccccccccccccccccc"
           d="M 282.01179,397.2934 C 299.21751,381.22208 298.42179,394.05129 299.88157,400.88335 C 321.11944,364.7444 312.20646,377.38419 319.1448,382.66138 C 335.40287,351.63704 330.70635,369.95738 334.06946,369.2986 C 346.63577,341.65835 347.05222,351.10714 351.59726,347.95286 C 372.2101,323.65632 414.38825,316.91294 454.16092,308.21161 C 477.87897,315.12596 479.7248,353.49407 490.51946,371.02406 C 494.97145,372.44572 507.07013,377.09421 511.67224,392.80924 C 515.36099,377.09203 501.10528,368.50863 505.82054,369.91906 C 510.5358,371.3295 534.48902,379.50829 539.28693,380.39326 C 558.48574,383.93447 578.08626,385.01084 596.98646,390.12371 C 601.63101,396.61075 606.74919,402.78204 612.77884,408.34568 C 611.87136,413.02772 612.96578,417.30937 614.34072,421.53492 C 605.89178,423.73979 600.38594,419.8132 586.92099,432.4681 L 577.89678,433.33581 C 572.02161,432.866 572.13994,435.56921 574.07884,439.23626 C 577.16796,438.14743 582.56454,443.11569 589.35059,451.73132 C 611.24334,438.21967 612.32626,442.7751 615.03489,444.96316 C 605.47515,451.39659 600.59103,449.41322 603.58108,460.23491 C 612.45043,458.47743 615.94844,466.38837 620.41471,472.55643 C 624.64365,472.88614 629.1375,474.98189 632.04206,466.48244 C 634.41508,455.40385 643.96488,458.9135 645.57839,468.91204 C 664.20863,453.42407 666.49986,458.08754 671.95686,458.84657 C 677.23273,453.314 674.60387,449.36237 670.74206,445.65733 C 643.46841,433.44751 662.66296,426.04408 667.61829,424.83223 C 661.45935,421.05926 661.51502,412.81177 666.92412,400.70981 C 662.93482,400.53509 660.15726,399.7079 650.43758,402.61878 C 636.3535,396.21939 648.23577,395.28661 649.91695,392.20622 C 626.33598,375.02109 648.9507,383.0336 648.87569,378.6699 C 622.57895,361.96817 645.42714,367.97532 645.57839,363.39815 C 641.49201,357.94018 624.35226,370.26097 632.21561,348.99412 C 621.72869,350.32007 609.30419,354.39612 612.6053,336.15197 C 602.11463,341.20774 575.42019,350.54501 543.18826,311.68247 C 529.82548,293.4605 494.74963,262.39092 469.77976,263.26409 C 428.29276,268.20004 407.77911,261.84264 339.62282,281.13897 L 231.67934,285.13045 L 205.8215,287.38651 C 206.38169,335.37496 194.77299,359.40889 178.86787,371.02181 C 178.08267,371.59511 167.75036,376.31623 166.93698,376.8173 C 151.08455,386.58294 137.05023,396.30792 130.50402,394.28873 C 123.06237,393.25263 121.06083,389.76848 122.86814,384.57035 C 123.73416,380.00073 124.28689,375.49377 122.86814,371.38111 C 121.63779,369.4115 121.95255,366.28305 117.31478,366.86901 C 112.88142,375.74251 105.54372,378.22648 96.489673,376.93447 C 94.233667,377.92463 92.806791,381.20831 94.754247,384.91743 C 108.25262,393.17525 105.45625,394.60175 106.55514,406.08963 C 98.921733,408.19108 91.307462,410.30136 89.54797,415.11384 C 85.351764,414.71998 81.051219,414.16961 77.747074,415.11384 C 76.095704,418.91497 75.351596,422.53464 76.011649,425.87348 C 90.806362,431.69442 86.368318,434.3099 88.506714,438.02146 C 96.837296,436.17195 103.56902,429.52589 111.06725,425.17931 C 122.80588,420.78452 122.05321,430.11566 119.39729,434.8977 C 116.7363,435.37376 114.07532,439.06782 111.41433,442.18648 C 109.80798,445.87534 110.40983,447.35601 111.06725,448.7811 C 132.10132,446.79543 129.40133,452.06183 135.36321,454.68155 C 145.49028,456.75559 140.61542,450.64676 141.61074,447.73985 C 139.13603,438.50659 143.39219,438.02345 145.08159,434.20352 C 148.23652,431.5676 153.67221,427.9244 153.41164,438.02146 C 155.10255,446.6732 160.0198,445.18505 164.86545,443.92191 C 163.34465,433.73356 168.47898,432.14142 178.05468,436.28604 C 179.92566,435.31644 181.38465,433.6602 181.87262,430.38559 C 176.0986,417.6027 189.98719,414.85896 197.49145,421.01429 L 196.4502,433.50935 C 203.83911,421.23368 210.22845,415.75686 214.84571,414.41967 C 213.33885,421.81085 213.1163,427.73426 214.84571,431.42684 C 225.39837,412.71451 230.92441,411.59533 236.0179,411.99008 C 235.21859,418.67401 235.60941,422.38261 235.67082,426.91474 C 242.45528,421.53725 246.30076,415.7399 249.90131,409.90756 C 257.63914,404.51739 258.5241,410.66888 257.53718,419.97303 C 259.62082,420.3924 262.48475,417.74509 267.25557,412.33716 C 272.7255,400.76602 276.59043,400.46055 281.48606,402.27169 C 281.98062,395.17423 284.21265,384.6062 281.13897,381.44658 C 282.35787,379.91357 286.42222,382.3642 289.8161,383.87618 C 290.85448,377.34752 289.64949,368.12683 288.42776,358.88605 C 292.08268,358.93337 294.06707,360.65122 296.41072,362.00981 C 295.49597,353.3316 294.52114,344.87372 292.2457,341.1847"
           style="color:#000000;fill:#e20909;fill-opacity:1;fill-rule:nonzero;stroke:#000000;stroke-width:2.5;stroke-linecap:round;stroke-linejoin:round;marker:none;marker-start:none;marker-mid:none;marker-end:none;stroke-miterlimit:4;stroke-dasharray:none;stroke-dashoffset:0;stroke-opacity:1;visibility:visible;display:inline;overflow:visible"
           id="path4479" />
      </g>
      <path
         sodipodi:nodetypes="cccc"
         id="path4481"
         d="M 405.91623,207.58949 C 402.62159,204.98369 404.36097,205.93221 397.45334,203.56554 C 386.31079,206.99402 372.18986,212.21952 360.19019,219.07647 C 381.61817,213.77777 390.48808,209.30373 405.91623,207.58949 z "
         style="fill:#e20909;fill-opacity:1;fill-rule:evenodd;stroke:#000000;stroke-width:2.5;stroke-linecap:butt;stroke-linejoin:miter;stroke-miterlimit:4;stroke-dasharray:none;stroke-opacity:1" />
      <g
         style="stroke-width:1.6897018;stroke-miterlimit:4;stroke-dasharray:none"
         transform="matrix(1.4565172,-0.2600552,0.2600552,1.4565172,-57.208221,80.353079)"
         id="g4483">
        <path
           d="M 130.00497,65.064139 C 130.47281,62.284296 129.99308,60.313347 131.4446,56.69375 C 133.22902,60.451463 136.61586,62.156847 139.33624,64.715833"
           style="fill:#e20909;fill-opacity:1;fill-rule:evenodd;stroke:#000000;stroke-width:1.6897018;stroke-linecap:round;stroke-linejoin:round;stroke-miterlimit:4;stroke-dasharray:none;stroke-opacity:1"
           id="path4485" />
        <path
           d="M 160.41626,42.561106 C 136.95423,42.385451 118.45866,64.300178 97.739426,45.063998 C 109.14423,72.92704 134.5364,48.312276 161.37583,51.673153 L 160.41626,42.561106 z "
           style="fill:#2b5df2;fill-opacity:1;fill-rule:evenodd;stroke:#000000;stroke-width:1.6897018;stroke-linecap:round;stroke-linejoin:round;stroke-miterlimit:4;stroke-dasharray:none;stroke-opacity:1"
           id="path4487" />
        <path
           d="M 123.80891,39.8834 C 123.9726,43.367768 125.85764,46.095792 129.08475,48.234143 C 127.71568,43.771726 131.36582,41.466263 133.68894,38.590529"
           style="fill:#e20909;fill-opacity:1;fill-rule:evenodd;stroke:#000000;stroke-width:1.6897018;stroke-linecap:round;stroke-linejoin:round;stroke-miterlimit:4;stroke-dasharray:none;stroke-opacity:1"
           id="path4489" />
        <path
           d="M 134.07099,127.05634 L 130.93345,136.87623 L 139.52651,132.39715 C 125.17442,153.94443 139.7747,158.6135 155.2605,162.76633 C 151.56021,149.63581 166.72217,142.28818 172.70025,129.31074 C 166.74385,142.10063 168.7515,150.24332 190.86806,146.65203 C 170.24389,138.12164 194.56469,129.94899 188.46163,113.47519 C 191.51172,122.64375 199.32578,119.21125 205.63289,119.76479 C 186.82143,110.46052 199.56049,99.144551 202.12894,88.477077 L 196.12232,68.371655 C 198.56376,81.151606 206.86035,77.642785 213.98011,77.407855 C 200.43157,72.064599 213.13601,55.109534 197.54235,43.830694 C 203.30936,47.40614 208.98776,51.981353 215.2796,49.637128 C 202.07743,45.540238 208.70325,32.571 196.92234,27.220512 C 203.81651,28.843097 208.44559,27.161368 213.83527,26.589205 C 208.11398,24.558353 202.4902,25.140808 196.64678,19.838207 L 188.05137,8.6081102 L 162.75832,3.7767525 C 156.14398,4.4771411 149.72232,5.8353691 143.99363,9.5595866 C 138.97302,11.268975 132.7788,12.119057 132.30489,17.157479 C 122.20373,17.402063 101.85633,24.967414 116.29379,26.302797 C 115.13973,36.587769 117.17191,39.818117 122.66833,40.619017 C 134.57411,44.832046 138.74505,36.376903 148.17431,35.508632 C 167.4491,44.432972 157.1164,56.194103 150.27933,60.611057 C 142.84794,65.411975 131.59096,60.615593 131.59096,60.615593 C 126.90888,65.564741 126.83508,68.801759 131.36945,70.326636 C 136.25779,76.015068 138.69845,71.911181 141.90155,70.857586 C 162.05072,74.005527 160.77702,63.3581 168.89883,58.760967 C 162.13447,66.28389 168.24077,78.372463 145.74523,79.954848 C 134.12769,80.777077 135.98888,76.738236 124.93813,77.959287 C 113.8874,79.180356 110.00242,85.693107 101.54227,84.839069 C 93.97975,84.075643 83.516075,83.086246 93.323396,68.050488 C 75.737025,80.891486 89.504156,96.681769 110.61757,93.27901 C 91.611047,96.53265 79.051412,102.86036 64.972634,90.824465 C 82.312287,120.83255 95.657101,104.00247 119.83924,105.64083 C 95.613501,105.49416 95.561321,125.2353 70.14008,119.7399 C 75.850435,130.38617 84.086946,129.82478 94.996321,128.51489 C 90.52129,131.66005 85.994939,139.65126 77.827431,137.93445 C 81.349906,145.60538 94.459571,144.40953 105.77074,143.35994 C 118.64023,142.16573 126.19403,134.14022 134.07099,127.05634 z "
           style="fill:#e20909;fill-opacity:1;fill-rule:evenodd;stroke:#000000;stroke-width:1.6897018;stroke-linecap:round;stroke-linejoin:round;stroke-miterlimit:4;stroke-dasharray:none;stroke-opacity:1"
           id="path4491" />
        <path
           d="M 171.60227,13.84247 C 170.91241,4.0475852 179.95943,3.5465992 186.89239,1.0277603 C 185.60976,7.2276674 185.6807,15.40215 181.36292,17.174441"
           style="fill:#e20909;fill-opacity:1;fill-rule:evenodd;stroke:#000000;stroke-width:1.6897018;stroke-linecap:round;stroke-linejoin:round;stroke-miterlimit:4;stroke-dasharray:none;stroke-opacity:1"
           id="path4493" />
        <path
           sodipodi:nodetypes="ccc"
           d="M 133.48595,18.082995 C 136.25728,22.259817 138.77353,19.602387 141.34568,18.443048 C 148.15698,11.795543 152.12434,17.247594 156.68926,20.157286"
           style="fill:#e20909;fill-opacity:1;fill-rule:evenodd;stroke:#000000;stroke-width:1.6897018;stroke-linecap:round;stroke-linejoin:round;stroke-miterlimit:4;stroke-dasharray:none;stroke-opacity:1"
           id="path4495" />
        <path
           d="M 137.50838,21.058822 C 140.26472,22.990403 141.9451,23.753787 144.60422,23.080904 C 148.92234,22.124517 150.36689,19.735787 152.33608,20.015281 C 152.2711,18.297304 152.02426,16.644442 149.29105,15.881716 C 142.73406,16.845747 142.88208,19.069721 137.50838,21.058822 z "
           style="fill:#e20909;fill-opacity:1;fill-rule:evenodd;stroke:#000000;stroke-width:1.6897018;stroke-linecap:round;stroke-linejoin:round;stroke-miterlimit:4;stroke-dasharray:none;stroke-opacity:1"
           id="path4497" />
      </g>
    </g>
  </g>
  <g
     inkscape:groupmode="layer"
     id="layer2"
     inkscape:label="Reflet final"
     sodipodi:insensitive="true">
    <path
       sodipodi:nodetypes="cccccc"
       d="M 300.00001,658.5 C 300.00001,658.5 598.50001,546.17969 598.50001,260.72817 C 598.50001,-24.723334 598.50001,2.1764865 598.50001,2.1764865 L 1.5,2.1764865 L 1.5,260.72817 C 1.5,546.17969 300.00001,658.5 300.00001,658.5 z "
       style="opacity:1;fill:url(#radialGradient3163);fill-opacity:1;fill-rule:evenodd;stroke:none;stroke-width:1px;stroke-linecap:butt;stroke-linejoin:miter;stroke-opacity:1"
       id="path2875"
       inkscape:export-xdpi="144"
       inkscape:export-ydpi="144" />
  </g>
  <g
     inkscape:groupmode="layer"
     id="layer1"
     inkscape:label="Contour final"
     sodipodi:insensitive="true">
    <path
       sodipodi:nodetypes="cccccc"
       d="M 299.99999,658.50028 C 299.99999,658.50028 1.5,546.17992 1.5,260.72828 C 1.5,-24.723336 1.5,2.1764957 1.5,2.1764957 L 598.49999,2.1764957 L 598.49999,260.72828 C 598.49999,546.17992 299.99999,658.50028 299.99999,658.50028 z "
       style="opacity:1;fill:none;fill-opacity:1;fill-rule:evenodd;stroke:#000000;stroke-width:3.00000048;stroke-linecap:butt;stroke-linejoin:miter;stroke-miterlimit:4;stroke-dasharray:none;stroke-opacity:1"
       id="path1411"
       inkscape:export-xdpi="144"
       inkscape:export-ydpi="144" />
  </g>
</svg>
