<?xml version="1.0" encoding="UTF-8" standalone="no"?>
<svg
   xmlns:ns="http://creativecommons.org/ns#"
   xmlns:dc="http://purl.org/dc/elements/1.1/"
   xmlns:cc="http://web.resource.org/cc/"
   xmlns:rdf="http://www.w3.org/1999/02/22-rdf-syntax-ns#"
   xmlns:svg="http://www.w3.org/2000/svg"
   xmlns="http://www.w3.org/2000/svg"
   xmlns:xlink="http://www.w3.org/1999/xlink"
   xmlns:sodipodi="http://sodipodi.sourceforge.net/DTD/sodipodi-0.dtd"
   xmlns:inkscape="http://www.inkscape.org/namespaces/inkscape"
   height="660"
   width="600"
   version="1.0"
   id="svg2"
   sodipodi:version="0.32"
   inkscape:version="0.45.1"
   sodipodi:docname="Blason_dpt_fr_Rhone.svg"
   sodipodi:docbase="C:\Documents and Settings\Propriétaire\Mes documents"
   inkscape:export-filename="/Users/olivier/Desktop/Blason Rouge/Blason_Vide_3D.png"
   inkscape:export-xdpi="144"
   inkscape:export-ydpi="144"
   inkscape:output_extension="org.inkscape.output.svg.inkscape">
  <metadata
     id="metadata49">
    <rdf:RDF>
      <ns:Work
         rdf:about="">
        <dc:format>image/svg+xml</dc:format>
        <dc:type
           rdf:resource="http://purl.org/dc/dcmitype/StillImage" />
        <dc:title>Gabarit d'un blason en pointe pour le projet Blasons de Wikipédia</dc:title>
        <dc:date>03-AUG-2006</dc:date>
        <dc:creator>
          <ns:Agent>
            <dc:title>Jérôme BLUM (wagner51)</dc:title>
          </ns:Agent>
        </dc:creator>
        <ns:license
           rdf:resource="http://web.resource.org/cc/PublicDomain" />
        <dc:language>fr</dc:language>
        <dc:subject>
          <rdf:Bag>
            <rdf:li>gabarit modèle blason projet wikipédia</rdf:li>
          </rdf:Bag>
        </dc:subject>
      </ns:Work>
      <ns:License
         rdf:about="http://web.resource.org/cc/PublicDomain">
        <ns:permits
           rdf:resource="http://web.resource.org/cc/Reproduction" />
        <ns:permits
           rdf:resource="http://web.resource.org/cc/Distribution" />
        <ns:permits
           rdf:resource="http://web.resource.org/cc/DerivativeWorks" />
      </ns:License>
      <cc:Work
         rdf:about="">
        <dc:format>image/svg+xml</dc:format>
        <dc:type
           rdf:resource="http://purl.org/dc/dcmitype/StillImage" />
      </cc:Work>
    </rdf:RDF>
  </metadata>
  <sodipodi:namedview
     inkscape:window-height="723"
     inkscape:window-width="1024"
     inkscape:pageshadow="2"
     inkscape:pageopacity="0.0"
     guidetolerance="10.0"
     gridtolerance="10.0"
     objecttolerance="10.0"
     borderopacity="1.0"
     bordercolor="#666666"
     pagecolor="#ffffff"
     id="base"
     showgrid="false"
     height="660px"
     inkscape:zoom="0.80026296"
     inkscape:cx="299.83051"
     inkscape:cy="329.71026"
     inkscape:window-x="-4"
     inkscape:window-y="-4"
     inkscape:current-layer="layer4"
     showguides="true"
     inkscape:guide-bbox="true" />
  <desc
     id="desc4">Flag of Canton of Valais (Wallis)</desc>
  <defs
     id="defs6">
    <linearGradient
       id="linearGradient2893">
      <stop
         style="stop-color:white;stop-opacity:0.3137255;"
         offset="0"
         id="stop2895" />
      <stop
         id="stop2897"
         offset="0.19"
         style="stop-color:white;stop-opacity:0.25098041;" />
      <stop
         style="stop-color:#6b6b6b;stop-opacity:0.1254902;"
         offset="0.60000002"
         id="stop2901" />
      <stop
         style="stop-color:black;stop-opacity:0.1254902;"
         offset="1"
         id="stop2899" />
    </linearGradient>
    <radialGradient
       inkscape:collect="always"
       xlink:href="#linearGradient2893"
       id="radialGradient3163"
       gradientUnits="userSpaceOnUse"
       gradientTransform="matrix(1.353218,0,0,1.348928,-77.62935,-85.74693)"
       cx="221.44487"
       cy="226.33101"
       fx="221.44487"
       fy="226.33101"
       r="300" />
  </defs>
  <g
     inkscape:groupmode="layer"
     id="layer3"
     inkscape:label="Fond écu"
     style="display:inline">
    <path
       style="fill:#fcef3c;fill-opacity:1;fill-rule:evenodd;stroke:none;stroke-width:1px;stroke-linecap:butt;stroke-linejoin:miter;stroke-opacity:0.94117647;display:inline"
       d="M 299.7165,659.30152 C 299.7165,659.30152 598.2165,546.76791 598.2165,260.77432 C 598.2165,-25.219276 598.2165,1.7316366 598.2165,1.7316366 L 1.21645,1.7316366 L 1.21645,260.77432 C 1.21645,546.76791 299.7165,659.30152 299.7165,659.30152 z "
       id="path19109" />
    <g
       style="stroke:none;stroke-opacity:1;display:inline"
       id="g2271"
       transform="matrix(1.0036653,0,0,1.0033336,-1.0365538,-9.5724106e-2)">
      <g
         style="stroke:none;stroke-opacity:1;display:inline"
         inkscape:label="parti 2"
         id="g2273" />
      <g
         inkscape:label="parti 1"
         id="g2275"
         style="stroke:none;stroke-opacity:1">
        <path
           id="path2214"
           d="M 291.62732,653.9566 C 272.94004,645.97184 241.0319,629.09975 220.75688,616.48232 C 128.54332,559.09654 61.549005,483.52078 28.216889,399.27946 C 13.728,362.66122 5.4231503,325.18354 2.8497216,284.80384 C 2.4503846,278.53784 2.2136956,224.10614 2.2136956,138.53601 L 2.2136956,2.248054 L 151.13527,2.248054 L 300.05684,2.248054 L 300.05684,329.75064 C 300.05684,509.87707 299.8461,657.23181 299.58853,657.20571 C 299.33096,657.17955 295.74842,655.71743 291.62732,653.9566 z "
           style="fill:#e20909;fill-opacity:1;stroke:#000000;stroke-width:3;stroke-miterlimit:4;stroke-dasharray:none;stroke-opacity:1" />
      </g>
    </g>
    <g
       style="stroke:none;stroke-opacity:1;display:inline"
       id="g2346"
       transform="matrix(1.0073576,0,0,1,-2.165248,-0.9577961)">
      <g
         style="stroke:none;stroke-opacity:1;display:inline"
         inkscape:label="parti 2"
         id="g2348" />
      <g
         inkscape:label="parti 1"
         id="g2350"
         style="stroke:none;stroke-opacity:1">
        <path
           style="fill:#2b5df2;fill-opacity:1;stroke:#000000;stroke-width:3;stroke-miterlimit:4;stroke-dasharray:none;stroke-opacity:1"
           d="M 2.09375,4.03125 L 2.09375,180.46875 L 298.84375,180.46875 L 298.84375,4.03125 L 149.90625,4.03125 L 2.09375,4.03125 z "
           transform="translate(1.2136958,-1.7945668)"
           id="path2352" />
      </g>
    </g>
  </g>
  <g
     inkscape:groupmode="layer"
     id="layer4"
     inkscape:label="Meubles"
     style="display:inline">
    <g
       style="display:inline"
       inkscape:label="chef"
       id="layer5"
       transform="translate(0.5509758,-0.6627292)" />
    <g
       id="g9480"
       transform="translate(-2.0908,-6.2381853)"
       style="stroke:#000000;stroke-width:2;stroke-miterlimit:4;stroke-dasharray:none;stroke-opacity:1">
      <g
         id="g3378"
         transform="matrix(0.1243912,0,0,0.1243912,107.49184,37.77572)"
         style="stroke:#000000;stroke-width:16.07830811;stroke-miterlimit:4;stroke-dasharray:none;stroke-opacity:1">
        <path
           sodipodi:nodetypes="ccscscc"
           id="path3380"
           style="opacity:1;fill:#fcef3c;fill-opacity:1;fill-rule:evenodd;stroke:#000000;stroke-width:16.07830811;stroke-linecap:butt;stroke-linejoin:miter;stroke-miterlimit:4;stroke-dasharray:none;stroke-opacity:1;display:inline"
           d="M 407.02914,608.69929 C 408.45371,546.74328 423.7803,489.15982 452.31871,434.59069 C 527.03313,277.40489 755.23905,281.15895 704.93393,473.402 C 686.39707,544.24137 623.42532,585.87586 548.61507,593.01701 C 554.01466,574.35164 583.71536,508.36456 559.73954,495.45545 C 521.40138,496.90385 473.7952,563.16055 462.34672,594.75617 C 460.69402,599.29227 461.15631,604.53418 459.31088,608.99624" />
        <g
           id="g3382"
           style="opacity:1;stroke:#000000;stroke-width:16.07830811;stroke-miterlimit:4;stroke-dasharray:none;stroke-opacity:1;display:inline"
           transform="translate(-38.53215,-48.5769)">
          <g
             id="g3384"
             style="fill:#fcef3c;fill-opacity:1;stroke:#000000;stroke-width:16.07830811;stroke-miterlimit:4;stroke-dasharray:none;stroke-opacity:1"
             transform="translate(0,4)">
            <path
               sodipodi:nodetypes="ccscscc"
               id="path3386"
               style="fill:#fcef3c;fill-opacity:1;fill-rule:evenodd;stroke:#000000;stroke-width:16.07830811;stroke-linecap:butt;stroke-linejoin:miter;stroke-miterlimit:4;stroke-dasharray:none;stroke-opacity:1"
               d="M 350.52292,657.37224 C 349.09835,595.41623 333.77176,537.83277 305.23335,483.26364 C 230.51893,326.07784 2.3130139,329.8319 52.618133,522.07495 C 71.154997,592.91432 134.12674,634.54881 208.93699,641.68996 C 203.5374,623.02459 173.8367,557.03751 197.81252,544.1284 C 236.15068,545.5768 283.75686,611.8335 295.20534,643.42912 C 296.85804,647.96522 296.39575,653.20713 298.24118,657.66919" />
            <path
               sodipodi:nodetypes="csccccsccc"
               id="path3388"
               style="fill:#fcef3c;fill-opacity:1;fill-rule:nonzero;stroke:#000000;stroke-width:16.07830811;stroke-linecap:butt;stroke-linejoin:miter;stroke-miterlimit:4;stroke-dasharray:none;stroke-opacity:1"
               d="M 393.6259,57.12017 C 314.9116,141.96961 262.06129,240.08175 284.84465,355.15142 C 297.41422,418.63533 327.88647,477.43115 349.3759,538.58892 C 362.81238,576.95877 366.24813,617.04065 364.65715,657.37017 L 431.4384,657.37017 C 428.24189,616.744 435.24511,577.37193 446.71965,538.58892 C 467.19384,477.05062 498.34544,418.68339 511.2509,355.15142 C 535.37892,236.37223 478.74399,146.7919 402.8134,57.49517 L 398.17297,51.576902 L 393.6259,57.12017 z " />
            <path
               sodipodi:nodetypes="cssscccssscc"
               id="path3390"
               style="fill:#fcef3c;fill-opacity:1;fill-rule:evenodd;stroke:#000000;stroke-width:16.07830811;stroke-linecap:butt;stroke-linejoin:miter;stroke-miterlimit:4;stroke-dasharray:none;stroke-opacity:1"
               d="M 331.34465,704.40142 C 317.38299,743.53144 260.45647,815.19349 230.21965,835.62017 C 222.37748,840.91802 267.70602,832.5686 288.0009,828.12017 C 314.61991,822.28553 349.21835,793.92258 348.40715,803.93267 C 348.33151,849.77093 361.21819,926.25691 394.8134,961.40142 L 397.99548,964.78902 L 401.28215,961.40142 C 434.85984,922.23047 447.51976,853.35944 447.6884,803.93267 C 446.8772,793.92258 481.47565,822.28553 508.09465,828.12017 C 528.38953,832.5686 573.71807,840.91802 565.8759,835.62017 C 535.63908,815.19349 478.74383,743.53144 464.78215,704.40142 L 331.34465,704.40142 z " />
            <rect
               id="rect3392"
               style="fill:#fcef3c;fill-opacity:1;stroke:#000000;stroke-width:16.07830811;stroke-miterlimit:4;stroke-dasharray:none;stroke-opacity:1"
               y="655.37946"
               x="239.3521"
               height="51.503345"
               width="317.88773" />
          </g>
        </g>
      </g>
      <g
         id="g9448"
         transform="matrix(0.1243912,0,0,0.1243912,13.919071,37.77572)"
         style="stroke:#000000;stroke-width:16.07830811;stroke-miterlimit:4;stroke-dasharray:none;stroke-opacity:1">
        <path
           sodipodi:nodetypes="ccscscc"
           id="path9450"
           style="opacity:1;fill:#fcef3c;fill-opacity:1;fill-rule:evenodd;stroke:#000000;stroke-width:16.07830811;stroke-linecap:butt;stroke-linejoin:miter;stroke-miterlimit:4;stroke-dasharray:none;stroke-opacity:1;display:inline"
           d="M 407.02914,608.69929 C 408.45371,546.74328 423.7803,489.15982 452.31871,434.59069 C 527.03313,277.40489 755.23905,281.15895 704.93393,473.402 C 686.39707,544.24137 623.42532,585.87586 548.61507,593.01701 C 554.01466,574.35164 583.71536,508.36456 559.73954,495.45545 C 521.40138,496.90385 473.7952,563.16055 462.34672,594.75617 C 460.69402,599.29227 461.15631,604.53418 459.31088,608.99624" />
        <g
           id="g9452"
           style="opacity:1;stroke:#000000;stroke-width:16.07830811;stroke-miterlimit:4;stroke-dasharray:none;stroke-opacity:1;display:inline"
           transform="translate(-38.53215,-48.5769)">
          <g
             id="g9454"
             style="fill:#fcef3c;fill-opacity:1;stroke:#000000;stroke-width:16.07830811;stroke-miterlimit:4;stroke-dasharray:none;stroke-opacity:1"
             transform="translate(0,4)">
            <path
               sodipodi:nodetypes="ccscscc"
               id="path9456"
               style="fill:#fcef3c;fill-opacity:1;fill-rule:evenodd;stroke:#000000;stroke-width:16.07830811;stroke-linecap:butt;stroke-linejoin:miter;stroke-miterlimit:4;stroke-dasharray:none;stroke-opacity:1"
               d="M 350.52292,657.37224 C 349.09835,595.41623 333.77176,537.83277 305.23335,483.26364 C 230.51893,326.07784 2.3130139,329.8319 52.618133,522.07495 C 71.154997,592.91432 134.12674,634.54881 208.93699,641.68996 C 203.5374,623.02459 173.8367,557.03751 197.81252,544.1284 C 236.15068,545.5768 283.75686,611.8335 295.20534,643.42912 C 296.85804,647.96522 296.39575,653.20713 298.24118,657.66919" />
            <path
               sodipodi:nodetypes="csccccsccc"
               id="path9458"
               style="fill:#fcef3c;fill-opacity:1;fill-rule:nonzero;stroke:#000000;stroke-width:16.07830811;stroke-linecap:butt;stroke-linejoin:miter;stroke-miterlimit:4;stroke-dasharray:none;stroke-opacity:1"
               d="M 393.6259,57.12017 C 314.9116,141.96961 262.06129,240.08175 284.84465,355.15142 C 297.41422,418.63533 327.88647,477.43115 349.3759,538.58892 C 362.81238,576.95877 366.24813,617.04065 364.65715,657.37017 L 431.4384,657.37017 C 428.24189,616.744 435.24511,577.37193 446.71965,538.58892 C 467.19384,477.05062 498.34544,418.68339 511.2509,355.15142 C 535.37892,236.37223 478.74399,146.7919 402.8134,57.49517 L 398.17297,51.576902 L 393.6259,57.12017 z " />
            <path
               sodipodi:nodetypes="cssscccssscc"
               id="path9460"
               style="fill:#fcef3c;fill-opacity:1;fill-rule:evenodd;stroke:#000000;stroke-width:16.07830811;stroke-linecap:butt;stroke-linejoin:miter;stroke-miterlimit:4;stroke-dasharray:none;stroke-opacity:1"
               d="M 331.34465,704.40142 C 317.38299,743.53144 260.45647,815.19349 230.21965,835.62017 C 222.37748,840.91802 267.70602,832.5686 288.0009,828.12017 C 314.61991,822.28553 349.21835,793.92258 348.40715,803.93267 C 348.33151,849.77093 361.21819,926.25691 394.8134,961.40142 L 397.99548,964.78902 L 401.28215,961.40142 C 434.85984,922.23047 447.51976,853.35944 447.6884,803.93267 C 446.8772,793.92258 481.47565,822.28553 508.09465,828.12017 C 528.38953,832.5686 573.71807,840.91802 565.8759,835.62017 C 535.63908,815.19349 478.74383,743.53144 464.78215,704.40142 L 331.34465,704.40142 z " />
            <rect
               id="rect9462"
               style="fill:#fcef3c;fill-opacity:1;stroke:#000000;stroke-width:16.07830811;stroke-miterlimit:4;stroke-dasharray:none;stroke-opacity:1"
               y="655.37946"
               x="239.3521"
               height="51.503345"
               width="317.88773" />
          </g>
        </g>
      </g>
      <g
         id="g9464"
         transform="matrix(0.1243912,0,0,0.1243912,201.06462,37.77572)"
         style="stroke:#000000;stroke-width:16.07830811;stroke-miterlimit:4;stroke-dasharray:none;stroke-opacity:1">
        <path
           sodipodi:nodetypes="ccscscc"
           id="path9466"
           style="opacity:1;fill:#fcef3c;fill-opacity:1;fill-rule:evenodd;stroke:#000000;stroke-width:16.07830811;stroke-linecap:butt;stroke-linejoin:miter;stroke-miterlimit:4;stroke-dasharray:none;stroke-opacity:1;display:inline"
           d="M 407.02914,608.69929 C 408.45371,546.74328 423.7803,489.15982 452.31871,434.59069 C 527.03313,277.40489 755.23905,281.15895 704.93393,473.402 C 686.39707,544.24137 623.42532,585.87586 548.61507,593.01701 C 554.01466,574.35164 583.71536,508.36456 559.73954,495.45545 C 521.40138,496.90385 473.7952,563.16055 462.34672,594.75617 C 460.69402,599.29227 461.15631,604.53418 459.31088,608.99624" />
        <g
           id="g9468"
           style="opacity:1;stroke:#000000;stroke-width:16.07830811;stroke-miterlimit:4;stroke-dasharray:none;stroke-opacity:1;display:inline"
           transform="translate(-38.53215,-48.5769)">
          <g
             id="g9470"
             style="fill:#fcef3c;fill-opacity:1;stroke:#000000;stroke-width:16.07830811;stroke-miterlimit:4;stroke-dasharray:none;stroke-opacity:1"
             transform="translate(0,4)">
            <path
               sodipodi:nodetypes="ccscscc"
               id="path9472"
               style="fill:#fcef3c;fill-opacity:1;fill-rule:evenodd;stroke:#000000;stroke-width:16.07830811;stroke-linecap:butt;stroke-linejoin:miter;stroke-miterlimit:4;stroke-dasharray:none;stroke-opacity:1"
               d="M 350.52292,657.37224 C 349.09835,595.41623 333.77176,537.83277 305.23335,483.26364 C 230.51893,326.07784 2.3130139,329.8319 52.618133,522.07495 C 71.154997,592.91432 134.12674,634.54881 208.93699,641.68996 C 203.5374,623.02459 173.8367,557.03751 197.81252,544.1284 C 236.15068,545.5768 283.75686,611.8335 295.20534,643.42912 C 296.85804,647.96522 296.39575,653.20713 298.24118,657.66919" />
            <path
               sodipodi:nodetypes="csccccsccc"
               id="path9474"
               style="fill:#fcef3c;fill-opacity:1;fill-rule:nonzero;stroke:#000000;stroke-width:16.07830811;stroke-linecap:butt;stroke-linejoin:miter;stroke-miterlimit:4;stroke-dasharray:none;stroke-opacity:1"
               d="M 393.6259,57.12017 C 314.9116,141.96961 262.06129,240.08175 284.84465,355.15142 C 297.41422,418.63533 327.88647,477.43115 349.3759,538.58892 C 362.81238,576.95877 366.24813,617.04065 364.65715,657.37017 L 431.4384,657.37017 C 428.24189,616.744 435.24511,577.37193 446.71965,538.58892 C 467.19384,477.05062 498.34544,418.68339 511.2509,355.15142 C 535.37892,236.37223 478.74399,146.7919 402.8134,57.49517 L 398.17297,51.576902 L 393.6259,57.12017 z " />
            <path
               sodipodi:nodetypes="cssscccssscc"
               id="path9476"
               style="fill:#fcef3c;fill-opacity:1;fill-rule:evenodd;stroke:#000000;stroke-width:16.07830811;stroke-linecap:butt;stroke-linejoin:miter;stroke-miterlimit:4;stroke-dasharray:none;stroke-opacity:1"
               d="M 331.34465,704.40142 C 317.38299,743.53144 260.45647,815.19349 230.21965,835.62017 C 222.37748,840.91802 267.70602,832.5686 288.0009,828.12017 C 314.61991,822.28553 349.21835,793.92258 348.40715,803.93267 C 348.33151,849.77093 361.21819,926.25691 394.8134,961.40142 L 397.99548,964.78902 L 401.28215,961.40142 C 434.85984,922.23047 447.51976,853.35944 447.6884,803.93267 C 446.8772,793.92258 481.47565,822.28553 508.09465,828.12017 C 528.38953,832.5686 573.71807,840.91802 565.8759,835.62017 C 535.63908,815.19349 478.74383,743.53144 464.78215,704.40142 L 331.34465,704.40142 z " />
            <rect
               id="rect9478"
               style="fill:#fcef3c;fill-opacity:1;stroke:#000000;stroke-width:16.07830811;stroke-miterlimit:4;stroke-dasharray:none;stroke-opacity:1"
               y="655.37946"
               x="239.3521"
               height="51.503345"
               width="317.88773" />
          </g>
        </g>
      </g>
    </g>
    <g
       id="g13005"
       transform="matrix(0.9579133,0,0,0.9579133,307.16537,79.673356)"
       style="fill:#000000;fill-opacity:1;stroke:#313131;stroke-opacity:1;stroke-width:1.00009051;stroke-miterlimit:4;stroke-dasharray:none">
      <g
         style="stroke:#313131;stroke-width:1.57026861;stroke-miterlimit:4;stroke-dasharray:none;stroke-opacity:1;fill:#000000;fill-opacity:1"
         transform="matrix(0.6258492,0.1180821,-0.1180821,0.6258492,28.993654,-34.234887)"
         id="g13007">
        <path
           d="M 325.01056,344.37855 C 327.55297,343.46328 339.11748,335.94624 366.24122,394.09782 C 396.148,421.712 415.48501,357.9909 416.91222,337.86294 C 415.91867,313.02426 399.62446,282.82037 399.62446,282.82037 C 396.06682,266.89121 406.09763,254.84446 417.11093,243.07841 C 406.59836,247.99073 395.64858,248.09384 386.11221,263.74423 C 386.11221,263.74423 383.52897,252.61648 385.71478,240.6939 C 387.90059,228.77132 400.02189,220.82292 400.02189,220.82292 C 385.78961,227.94479 373.84048,235.44718 372.20252,244.6681 C 367.77143,217.80887 380.36462,194.19236 398.03479,171.5429 C 379.63411,183.39647 363.40071,196.98388 355.51089,217.24614 C 345.44708,169.25263 382.97255,146.52001 424.26448,109.54544 C 455.25532,81.79493 430.62319,57.086061 430.62319,57.086061 C 406.94657,50.180149 387.31778,58.136542 371.01026,67.021551 C 371.01026,67.021551 355.39019,50.728236 345.97282,66.22672 C 335.05105,84.201054 326.31611,93.313858 331.2683,113.91705 C 328.71433,110.51175 353.29368,93.408068 372.20252,93.251245 C 387.42502,93.124995 376.57413,74.969948 376.57413,74.969948 C 406.48097,58.954495 451.45312,59.431269 413.53415,100.40478 C 367.32687,146.09502 325.87677,157.98823 347.5625,230.36099 C 359.87909,271.46567 404.46741,302.4474 403.79737,329.31847 C 408.96419,346.68037 391.63738,409.78842 369.818,376.41267 C 350.93495,331.68098 337.12761,327.71285 320.80908,329.10272 L 325.01056,344.37855 z "
           style="fill:#000000;fill-opacity:1;fill-rule:evenodd;stroke:#313131;stroke-width:1.57026861;stroke-linecap:butt;stroke-linejoin:miter;stroke-miterlimit:4;stroke-dasharray:none;stroke-opacity:1;display:inline"
           id="path13009"
           sodipodi:nodetypes="ccccccsccccsccscsccscccc" />
      </g>
      <path
         id="path13011"
         style="fill:#e20909;fill-opacity:1;fill-rule:evenodd;stroke:#00000f;stroke-width:1.00009051;stroke-linecap:round;stroke-linejoin:round;stroke-miterlimit:4;stroke-dasharray:none;stroke-opacity:0.94117647"
         d="M 15.357165,55.115446 C 10.801752,56.187099 3.8550816,58.71417 1.25,63.817487 C 7.2158803,62.243312 11.944753,60.915595 16.152419,60.237912 L 15.357165,55.115446 z " />
      <path
         id="path13013"
         style="fill:#e20909;fill-opacity:1;fill-rule:evenodd;stroke:#00000f;stroke-width:1.00009051;stroke-linecap:round;stroke-linejoin:round;stroke-miterlimit:4;stroke-dasharray:none;stroke-opacity:0.94117647"
         d="M 16.789526,44.323832 C 12.170166,45.110373 8.975802,44.59901 1.8634082,49.339043 C 8.0271064,48.771617 14.528337,48.93738 18.459172,50.443893 L 16.789526,44.323832 z " />
      <path
         id="path13015"
         style="fill:#e20909;fill-opacity:1;fill-rule:evenodd;stroke:#00000f;stroke-width:1.00009051;stroke-linecap:round;stroke-linejoin:round;stroke-miterlimit:4;stroke-dasharray:none;stroke-opacity:0.94117647"
         d="M 29.769547,38.455353 C 25.577972,36.326931 20.705319,37.065295 15.974486,37.206662 C 22.29609,38.789183 23.967367,40.053459 27.373492,42.443885 L 29.769547,38.455353 z " />
      <path
         id="path13017"
         style="fill:#e20909;fill-opacity:1;fill-rule:evenodd;stroke:#00000f;stroke-width:1.00009051;stroke-linecap:round;stroke-linejoin:round;stroke-miterlimit:4;stroke-dasharray:none;stroke-opacity:0.94117647"
         d="M 19.272499,67.517187 C 13.226948,69.362039 14.092083,70.675361 12.532425,75.183191 C 18.309085,71.265736 21.849666,71.225715 24.301661,68.798374 L 19.272499,67.517187 z " />
      <path
         id="path13019"
         style="fill:#000000;fill-rule:evenodd;stroke:#313131;stroke-width:1.00009051;stroke-linecap:round;stroke-linejoin:round;stroke-miterlimit:4;stroke-dasharray:none;stroke-opacity:1;fill-opacity:1"
         d="M 47.754632,51.235249 C 54.71637,64.119846 61.507722,62.325535 69.878125,69.20542 C 80.799864,78.182339 85.392173,89.23989 114.18541,89.239546 L 106.30192,132.49612 L 83.521524,119.62464 C 78.909408,116.06392 66.466181,112.54431 59.866781,99.924899 C 54.262185,100.65495 52.965816,105.60264 52.445463,111.31002 C 49.716715,104.65518 45.83866,97.967559 49.434477,91.49315 L 41.021494,81.842539 C 35.752608,88.464286 27.747708,86.297954 20.790968,87.49832 C 29.736137,84.082949 36.83551,78.486686 37.981731,72.31807 L 34.55235,67.123191 C 25.831594,67.114318 29.0245,70.132965 21.501057,70.684586 L 15.615883,67.926137 C 21.016092,62.381571 25.694653,64.363178 30.933704,61.855791 C 22.639045,58.371273 19.659159,63.491837 13.006235,61.488788 C 11.456754,58.876748 11.534971,57.007078 13.181171,55.111447 C 17.779383,54.043997 23.23726,53.481602 28.421236,54.052478 C 21.086888,48.804284 21.059866,51.246894 15.066509,50.30376 C 13.121606,47.186954 12.10417,45.259824 16.054012,43.569364 C 20.008232,44.401886 27.941567,44.125007 32.732194,47.847459 C 32.102364,44.233082 30.012719,43.043207 25.277938,41.754856 C 26.21331,37.752549 24.069605,39.208954 28.91442,37.164162 C 38.661907,40.24696 46.139592,43.720771 47.754632,51.235249 z " />
      <path
         id="path3534"
         style="fill:#e20909;fill-opacity:1;fill-rule:evenodd;stroke:#00000f;stroke-width:1.00009051;stroke-linecap:round;stroke-linejoin:round;stroke-miterlimit:4;stroke-dasharray:none;stroke-opacity:0.94117647"
         d="M 34.81008,329.66575 C 32.731351,332.92548 28.185035,335.7668 24.898812,337.55201 C 31.245905,337.30382 36.755893,334.25974 40.736842,331.98572 L 34.81008,329.66575 z " />
      <path
         id="path3532"
         style="fill:#e20909;fill-opacity:1;fill-rule:evenodd;stroke:#00000f;stroke-width:1.00009051;stroke-linecap:round;stroke-linejoin:round;stroke-miterlimit:4;stroke-dasharray:none;stroke-opacity:0.94117647"
         d="M 20.359657,321.77803 C 15.764394,324.60288 14.735474,329.21908 13.270678,332.13524 C 17.160512,329.22437 20.341093,328.34546 24.306897,325.93767 L 20.359657,321.77803 z " />
      <path
         id="path3530"
         style="fill:#e20909;fill-opacity:1;fill-rule:evenodd;stroke:#00000f;stroke-width:1.00009051;stroke-linecap:round;stroke-linejoin:round;stroke-miterlimit:4;stroke-dasharray:none;stroke-opacity:0.94117647"
         d="M 23.295509,307.74706 C 16.114133,308.32313 11.006009,312.85486 7.0728325,317.00599 C 12.995417,314.85799 18.170827,313.33698 23.783303,312.99215 C 27.617603,311.151 23.118623,308.25888 23.295509,307.74706 z " />
      <path
         id="path3528"
         style="fill:#e20909;fill-opacity:1;fill-rule:evenodd;stroke:#00000f;stroke-width:1.00009051;stroke-linecap:round;stroke-linejoin:round;stroke-miterlimit:4;stroke-dasharray:none;stroke-opacity:0.94117647"
         d="M 36.915471,300.0168 C 30.46668,297.71272 24.21011,299.25104 17.472248,299.35643 C 24.621952,300.66343 30.249408,303.01532 35.518304,305.61338 L 36.915471,300.0168 z " />
      <path
         id="path3524"
         style="fill:#000000;fill-rule:evenodd;stroke:#313131;stroke-width:1.00009051;stroke-linecap:round;stroke-linejoin:round;stroke-miterlimit:4;stroke-dasharray:none;stroke-opacity:1;fill-opacity:1"
         d="M 159.46149,211.35182 C 132.27614,215.60062 93.529479,210.72585 75.216681,230.89871 C 63.353847,239.00251 23.014727,251.16936 38.157366,231.58896 C 13.452797,244.40198 54.593107,253.94834 80.86045,233.46027 C 48.219478,257.24256 85.030931,260.57569 89.152937,283.51278 C 82.159289,296.6147 74.096745,291.31057 63.323256,303.42042 C 58.364264,305.9998 52.938995,305.0864 44.331539,303.79766 C 42.908254,300.21349 39.770476,298.5918 36.419622,297.95104 C 32.967892,299.0933 28.986037,301.61068 29.488808,304.45234 C 34.735995,305.40503 34.658529,308.15722 38.924008,310.79968 C 31.314807,308.47576 31.257063,304.70398 22.384386,306.9674 C 18.918712,309.50988 19.181576,312.91038 19.761259,314.41797 C 27.321516,315.10544 29.892117,315.05825 36.086067,316.9121 C 29.048927,317.03595 28.138163,315.4475 18.768655,321.49093 C 19.587187,324.58041 21.230503,325.78268 24.109982,327.68487 C 29.762477,326.46431 31.969105,321.71366 38.98604,324.19645 C 32.425003,328.21257 32.601753,329.26824 31.928504,330.69737 C 33.188921,332.29297 35.347229,333.49406 38.773113,334.13819 C 44.932475,333.40379 47.362692,330.49962 49.621502,327.49574 C 81.812391,329.37571 71.964369,320.58788 80.358093,318.46099 C 91.524789,323.5566 91.614183,317.72697 95.212396,312.85696 C 107.00739,320.24221 104.68562,312.70428 106.79897,310.34529 C 103.94736,299.56189 115.33804,297.81122 119.12884,288.63136 C 124.26223,284.55152 131.79353,281.20272 112.58207,269.7012 C 106.61762,258.86266 109.05094,250.39987 120.40012,244.45938 C 139.18637,249.68737 154.11192,245.3572 170.96784,245.80611 L 159.46149,211.35182 z " />
      <path
         id="path13026"
         style="fill:#000000;fill-rule:evenodd;stroke:#313131;stroke-width:1.00009051;stroke-linecap:round;stroke-linejoin:round;stroke-miterlimit:4;stroke-dasharray:none;stroke-opacity:1;fill-opacity:1"
         d="M 142.44523,209.21476 C 148.43732,215.19872 155.05191,221.1145 152.78283,228.00341 C 146.51267,232.46818 143.09915,236.66991 159.03681,239.08987 L 165.16672,223.38284 L 152.65992,209.06449 C 145.3472,207.23634 142.63594,207.61982 142.44523,209.21476 z " />
      <path
         id="path13028"
         style="fill:#e20909;fill-opacity:1;fill-rule:evenodd;stroke:#00000f;stroke-width:1.00009051;stroke-linecap:round;stroke-linejoin:round;stroke-miterlimit:4;stroke-dasharray:none;stroke-opacity:0.94117647"
         d="M 137.03676,345.94856 C 130.22543,345.57381 125.64913,347.56422 120.53886,351.40088 C 128.39031,350.28147 131.5307,349.2038 136.87975,349.56534 L 137.03676,345.94856 z " />
      <path
         id="path13030"
         style="fill:#e20909;fill-opacity:1;fill-rule:evenodd;stroke:#00000f;stroke-width:1.00009051;stroke-linecap:round;stroke-linejoin:round;stroke-miterlimit:4;stroke-dasharray:none;stroke-opacity:0.94117647"
         d="M 129.60193,358.83655 C 125.08584,361.44115 119.92263,365.69342 118.19424,370.92963 C 122.8035,367.49611 127.56256,365.39711 131.85056,363.46853 L 129.60193,358.83655 z " />
      <path
         id="path13032"
         style="fill:#e20909;fill-opacity:1;fill-rule:evenodd;stroke:#00000f;stroke-width:1.00009051;stroke-linecap:round;stroke-linejoin:round;stroke-miterlimit:4;stroke-dasharray:none;stroke-opacity:0.94117647"
         d="M 136.75732,369.75388 C 132.35061,373.46308 129.0562,378.24008 127.77538,383.37271 C 132.42024,379.14738 136.51218,376.80482 141.61239,374.65507 L 136.75732,369.75388 z " />
      <path
         id="path13034"
         style="fill:#e20909;fill-opacity:1;fill-rule:evenodd;stroke:#00000f;stroke-width:1.00009051;stroke-linecap:round;stroke-linejoin:round;stroke-miterlimit:4;stroke-dasharray:none;stroke-opacity:0.94117647"
         d="M 161.19221,371.15199 C 161.64898,373.98417 163.77449,378.02466 165.78641,380.7988 L 167.44873,370.57193 L 161.19221,371.15199 z " />
      <path
         sodipodi:nodetypes="cscsccccccccccccccccccccccccc"
         id="path13036"
         style="fill:#000000;fill-rule:evenodd;stroke:#313131;stroke-width:1.00009051;stroke-linecap:round;stroke-linejoin:round;stroke-miterlimit:4;stroke-dasharray:none;stroke-opacity:1;fill-opacity:1"
         d="M 100.85563,130.41243 C 109.83874,167.16295 137.42991,179.46661 148.93398,201.47403 C 162.07735,226.61744 157.3921,228.92861 157.3921,228.92861 C 151.90302,243.75668 138.17191,256.31308 142.24836,265.75864 C 160.0458,306.99715 118.52404,290.5852 139.12641,314.8816 C 127.88323,302.4125 147.18333,298.99132 154.79381,292.08053 C 159.27332,298.4713 164.23167,304.39552 173.88708,305.74305 C 171.04726,314.9705 163.9019,324.35866 168.82133,333.29648 C 162.97508,339.0183 160.07958,347.62882 149.90219,349.11057 C 145.86892,346.74892 145.5003,344.56084 137.79996,345.32967 C 133.64566,347.15018 135.21928,349.48518 134.93833,351.16111 C 144.92246,352.6825 136.98707,351.51295 145.08684,354.66941 C 134.57856,356.06795 138.08258,351.90679 128.7806,358.24197 C 128.18212,360.80316 131.63807,363.02514 132.1044,364.9451 C 141.63459,362.96865 137.52468,360.95242 147.12597,362.80066 C 141.91958,365.28892 140.66455,365.25034 136.54266,369.06221 C 135.57253,372.67116 140.91545,373.63237 141.13657,375.78687 C 150.82132,372.85905 147.81591,369.04467 158.90049,366.22562 C 158.7594,368.26636 158.57812,370.31661 160.33308,371.90826 C 163.2698,372.50786 166.0228,372.77304 168.86801,370.92069 C 169.64413,368.28634 171.0909,365.62697 168.59528,363.11474 C 177.53834,355.91142 191.97304,352.72902 189.93866,337.48813 C 192.61038,340.83218 195.6985,343.73252 201.32886,343.92387 C 197.68192,335.24417 211.24985,333.00248 199.71252,322.74809 C 202.79684,319.13971 204.82435,314.1776 210.9671,314.48698 L 211.20732,298.79595 C 179.65216,272.93403 214.12355,236.89052 187.88107,204.92089 C 188.80712,149.54355 184.71017,120.71634 175.59022,96.912139 L 100.85563,130.41243 z " />
      <path
         id="path13038"
         style="fill:#e20909;fill-opacity:1;fill-rule:evenodd;stroke:#00000f;stroke-width:1.00009051;stroke-linecap:round;stroke-linejoin:round;stroke-miterlimit:4;stroke-dasharray:none;stroke-opacity:0.94117647"
         d="M 51.055829,145.99311 C 48.500244,142.12861 45.39376,142.85638 42.449666,142.23047 L 48.090782,149.53424 L 51.055829,145.99311 z " />
      <path
         id="path13040"
         style="fill:#e20909;fill-opacity:1;fill-rule:evenodd;stroke:#00000f;stroke-width:1.00009051;stroke-linecap:round;stroke-linejoin:round;stroke-miterlimit:4;stroke-dasharray:none;stroke-opacity:0.94117647"
         d="M 38.715476,152.82457 C 34.76372,150.80531 32.465949,147.78855 24.196664,151.07955 C 30.514574,152.69506 32.291387,154.4801 34.749925,157.21982 L 38.715476,152.82457 z " />
      <path
         id="path13042"
         style="fill:#e20909;fill-opacity:1;fill-rule:evenodd;stroke:#00000f;stroke-width:1.00009051;stroke-linecap:round;stroke-linejoin:round;stroke-miterlimit:4;stroke-dasharray:none;stroke-opacity:0.94117647"
         d="M 31.991905,166.30727 C 27.314286,165.70959 22.107484,166.31713 19.129565,170.21785 C 22.542213,169.44859 25.974093,169.19517 29.451442,170.15925 L 31.991905,166.30727 z " />
      <path
         id="path13044"
         style="fill:#e20909;fill-opacity:1;fill-rule:evenodd;stroke:#00000f;stroke-width:1.00009051;stroke-linecap:round;stroke-linejoin:round;stroke-miterlimit:4;stroke-dasharray:none;stroke-opacity:0.94117647"
         d="M 41.030388,181.65195 C 37.902326,183.31087 34.83861,185.00723 34.463484,188.2679 C 38.123827,185.96877 42.214485,184.59312 46.470587,183.57248 L 41.030388,181.65195 z " />
      <path
         id="path13046"
         style="fill:#000000;fill-rule:evenodd;stroke:#313131;stroke-width:1.00009051;stroke-linecap:round;stroke-linejoin:round;stroke-miterlimit:4;stroke-dasharray:none;stroke-opacity:1;fill-opacity:1"
         d="M 52.662743,144.78965 C 48.387693,145.48046 48.172047,147.60435 47.053721,149.40959 C 48.195059,152.91831 52.560569,155.87886 56.903994,158.84319 C 51.19818,157.18248 45.531519,156.57009 39.703825,151.64419 L 34.755167,151.82891 C 31.998848,153.72869 32.198501,155.51816 32.68798,157.29678 C 38.76481,163.25548 43.876367,163.34649 49.300006,165.3345 C 43.138052,165.40345 37.456086,167.66031 30.706039,165.04844 C 25.924321,167.62754 28.642148,169.3308 28.875477,171.32423 C 35.23856,173.58485 42.376123,172.21727 49.155539,172.5275 C 48.453461,175.29194 45.062925,177.89148 39.950726,180.3854 C 38.517301,183.7622 42.251182,184.63388 45.518773,185.73163 C 49.88888,184.84717 53.662144,183.17682 55.160349,178.51085 C 62.11776,178.31601 69.454273,178.39874 75.355163,177.43033 C 79.57787,180.21309 73.113572,183.39478 70.32293,186.43933 C 87.471942,186.24764 87.125065,177.67464 100.76488,172.23464 C 98.127747,177.24497 100.59202,181.25176 103.31393,185.20788 C 104.72867,177.1467 112.7559,175.19644 119.74688,171.85281 L 124.52504,167.10052 C 129.004,169.11412 134.37908,168.75736 139.84427,168.16226 C 137.04571,165.10853 139.56753,161.85621 144.43976,158.51615 C 151.71446,162.84458 156.00437,162.12255 159.79552,160.55662 C 143.95809,155.46235 155.31718,139.80309 154.89059,128.7222 L 131.0662,110.00891 L 87.880113,147.88567 C 83.702359,151.20661 77.828329,154.40388 69.159923,155.28199 C 60.763987,153.71965 56.269264,149.55131 52.662743,144.78965 z " />
      <g
         style="stroke:#313131;stroke-width:1.00009053;stroke-miterlimit:4;stroke-dasharray:none;stroke-opacity:1;fill:#000000;fill-opacity:1"
         transform="matrix(0.9844319,-0.1757663,0.1757663,0.9844319,-23.516777,33.087624)"
         id="g13048">
        <path
           d="M 130.00497,65.064139 C 130.47281,62.284296 129.99308,60.313347 131.4446,56.69375 C 133.22902,60.451463 136.61586,62.156847 139.33624,64.715833"
           style="fill:#000000;fill-rule:evenodd;stroke:#313131;stroke-width:1.00009053;stroke-linecap:round;stroke-linejoin:round;stroke-miterlimit:4;stroke-dasharray:none;stroke-opacity:1;fill-opacity:1"
           id="path13050" />
        <path
           d="M 160.41626,42.561106 C 136.95423,42.385451 118.45866,64.300178 97.739426,45.063998 C 109.14423,72.92704 134.5364,48.312276 161.37583,51.673153 L 160.41626,42.561106 z "
           style="fill:#e20909;fill-opacity:1;fill-rule:evenodd;stroke:#00000f;stroke-width:1.00009053;stroke-linecap:round;stroke-linejoin:round;stroke-miterlimit:4;stroke-dasharray:none;stroke-opacity:0.94117647"
           id="path13052" />
        <path
           d="M 123.80891,39.8834 C 123.9726,43.367768 125.85764,46.095792 129.08475,48.234143 C 127.71568,43.771726 131.36582,41.466263 133.68894,38.590529"
           style="fill:#000000;fill-rule:evenodd;stroke:#313131;stroke-width:1.00009053;stroke-linecap:round;stroke-linejoin:round;stroke-miterlimit:4;stroke-dasharray:none;stroke-opacity:1;fill-opacity:1"
           id="path13054" />
        <path
           d="M 134.07099,127.05634 L 130.93345,136.87623 L 139.52651,132.39715 C 125.17442,153.94443 139.7747,158.6135 155.2605,162.76633 C 151.56021,149.63581 166.72217,142.28818 172.70025,129.31074 C 166.74385,142.10063 168.7515,150.24332 190.86806,146.65203 C 170.24389,138.12164 194.56469,129.94899 188.46163,113.47519 C 191.51172,122.64375 199.32578,119.21125 205.63289,119.76479 C 186.82143,110.46052 199.56049,99.144551 202.12894,88.477077 L 196.12232,68.371655 C 198.56376,81.151606 206.86035,77.642785 213.98011,77.407855 C 200.43157,72.064599 213.13601,55.109534 197.54235,43.830694 C 203.30936,47.40614 208.98776,51.981353 215.2796,49.637128 C 202.07743,45.540238 208.70325,32.571 196.92234,27.220512 C 203.81651,28.843097 208.44559,27.161368 213.83527,26.589205 C 208.11398,24.558353 202.4902,25.140808 196.64678,19.838207 L 188.05137,8.6081102 L 162.75832,3.7767525 C 156.14398,4.4771411 149.72232,5.8353691 143.99363,9.5595866 C 138.97302,11.268975 132.7788,12.119057 132.30489,17.157479 C 122.20373,17.402063 101.85633,24.967414 116.29379,26.302797 C 115.13973,36.587769 117.17191,39.818117 122.66833,40.619017 C 134.57411,44.832046 138.74505,36.376903 148.17431,35.508632 C 167.4491,44.432972 157.1164,56.194103 150.27933,60.611057 C 142.84794,65.411975 131.59096,60.615593 131.59096,60.615593 C 126.90888,65.564741 126.83508,68.801759 131.36945,70.326636 C 136.25779,76.015068 138.69845,71.911181 141.90155,70.857586 C 162.05072,74.005527 160.77702,63.3581 168.89883,58.760967 C 162.13447,66.28389 168.24077,78.372463 145.74523,79.954848 C 134.12769,80.777077 135.98888,76.738236 124.93813,77.959287 C 113.8874,79.180356 110.00242,85.693107 101.54227,84.839069 C 93.97975,84.075643 83.516075,83.086246 93.323396,68.050488 C 75.737025,80.891486 89.504156,96.681769 110.61757,93.27901 C 91.611047,96.53265 79.051412,102.86036 64.972634,90.824465 C 82.312287,120.83255 95.657101,104.00247 119.83924,105.64083 C 95.613501,105.49416 95.561321,125.2353 70.14008,119.7399 C 75.850435,130.38617 84.086946,129.82478 94.996321,128.51489 C 90.52129,131.66005 85.994939,139.65126 77.827431,137.93445 C 81.349906,145.60538 94.459571,144.40953 105.77074,143.35994 C 118.64023,142.16573 126.19403,134.14022 134.07099,127.05634 z "
           style="fill:#000000;fill-rule:evenodd;stroke:#313131;stroke-width:1.00009053;stroke-linecap:round;stroke-linejoin:round;stroke-miterlimit:4;stroke-dasharray:none;stroke-opacity:1;fill-opacity:1"
           id="path13056" />
        <path
           d="M 171.60227,13.84247 C 170.91241,4.0475852 179.95943,3.5465992 186.89239,1.0277603 C 185.60976,7.2276674 185.6807,15.40215 181.36292,17.174441"
           style="fill:#000000;fill-rule:evenodd;stroke:#313131;stroke-width:1.00009053;stroke-linecap:round;stroke-linejoin:round;stroke-miterlimit:4;stroke-dasharray:none;stroke-opacity:1;fill-opacity:1"
           id="path13058" />
        <path
           sodipodi:nodetypes="ccc"
           d="M 133.48595,18.082995 C 136.25728,22.259817 138.77353,19.602387 141.34568,18.443048 C 148.15698,11.795543 152.12434,17.247594 156.68926,20.157286"
           style="fill:#000000;fill-rule:evenodd;stroke:#313131;stroke-width:1.00009053;stroke-linecap:round;stroke-linejoin:round;stroke-miterlimit:4;stroke-dasharray:none;stroke-opacity:1;fill-opacity:1"
           id="path13060" />
        <path
           d="M 137.50838,21.058822 C 140.26472,22.990403 141.9451,23.753787 144.60422,23.080904 C 148.92234,22.124517 150.36689,19.735787 152.33608,20.015281 C 152.2711,18.297304 152.02426,16.644442 149.29105,15.881716 C 142.73406,16.845747 142.88208,19.069721 137.50838,21.058822 z "
           style="fill:#000000;fill-opacity:1;fill-rule:evenodd;stroke:#313131;stroke-width:1.00009053;stroke-linecap:round;stroke-linejoin:round;stroke-miterlimit:4;stroke-dasharray:none;stroke-opacity:1"
           id="path13062" />
      </g>
      <path
         id="path13064"
         style="fill:#000000;fill-rule:evenodd;stroke:#313131;stroke-width:1.00009051;stroke-linecap:round;stroke-linejoin:round;stroke-miterlimit:4;stroke-dasharray:none;stroke-opacity:1;fill-opacity:1"
         d="M 154.88513,292.14808 C 158.56426,284.07911 154.69691,276.29184 153.41497,268.40806" />
      <path
         id="path13066"
         style="fill:#000000;fill-rule:evenodd;stroke:#313131;stroke-width:1.00009051;stroke-linecap:butt;stroke-linejoin:miter;stroke-miterlimit:4;stroke-dasharray:none;stroke-opacity:1;fill-opacity:1"
         d="M 32.191214,46.467206 C 37.437577,52.717912 34.520009,56.062068 42.231099,59.097126" />
    </g>
    <path
       d="M 332.86833,160.30366 L 332.86833,160.34797 L 323.62734,160.40704 L 307.03812,209.66165 L 354.80174,209.66165 L 342.75879,173.89113 L 378.46088,173.89113 L 366.41792,209.66165 L 414.18155,209.66165 L 402.13857,173.89113 L 437.84069,173.89113 L 425.79772,209.66165 L 473.56135,209.66165 L 461.51838,173.89113 L 497.22049,173.89113 L 485.17752,209.66165 L 532.94114,209.66165 L 520.89818,173.89113 L 556.6003,173.89113 L 544.55732,209.66165 L 592.32095,209.66165 L 575.6946,160.30366 L 565.93405,160.3775 L 565.93405,160.30366 L 516.3148,160.30366 L 456.935,160.30366 L 397.5552,160.30366 L 338.1754,160.30366 L 332.86833,160.30366 z "
       style="fill:#e20909;fill-opacity:1;fill-rule:evenodd;stroke:#000000;stroke-width:2.23135138;stroke-linecap:butt;stroke-linejoin:miter;stroke-miterlimit:4;stroke-dasharray:none;stroke-opacity:1;display:inline"
       id="path3848" />
    <g
       id="g10029"
       style="stroke:#000000;stroke-opacity:1;fill:#ffffff;fill-opacity:1;stroke-width:2;stroke-miterlimit:4;stroke-dasharray:none">
      <path
         id="path9056"
         d="M 171.625 386.0625 C 147.30001 389.86424 112.63599 385.51216 96.25 403.5625 C 85.635333 410.81366 49.54437 421.70771 63.09375 404.1875 C 40.988514 415.65237 77.77767 424.17613 101.28125 405.84375 C 72.074653 427.12375 105.03045 430.10127 108.71875 450.625 C 102.46095 462.34837 95.233688 457.60181 85.59375 468.4375 C 81.156524 470.74548 76.295558 469.93439 68.59375 468.78125 C 67.320221 465.57418 64.529538 464.13584 61.53125 463.5625 C 60.996855 463.73935 60.445804 463.9731 59.90625 464.21875 C 65.481191 473.00409 71.44389 481.65743 77.78125 490.15625 C 101.17166 490.78411 93.752368 483.70314 100.84375 481.90625 C 110.83552 486.46572 110.90538 481.2326 114.125 476.875 C 124.67896 483.48319 122.60901 476.76703 124.5 474.65625 C 121.94843 465.00744 132.13931 463.43274 135.53125 455.21875 C 140.12452 451.56817 146.87759 448.57262 129.6875 438.28125 C 124.35061 428.58309 126.53244 421.00295 136.6875 415.6875 C 153.49713 420.36541 166.82385 416.50457 181.90625 416.90625 L 171.625 386.0625 z "
         style="fill:#ffffff;fill-opacity:1;stroke:#000000;stroke-width:2;stroke-miterlimit:4;stroke-dasharray:none;stroke-opacity:1;display:inline" />
      <g
         style="fill:#ffffff;fill-opacity:1;stroke:#000000;stroke-opacity:1;stroke-width:2.23517806;stroke-miterlimit:4;stroke-dasharray:none"
         transform="matrix(0.8947833,0,0,0.8947833,28.94212,196.9514)"
         id="g7984">
        <g
           id="g3046"
           transform="matrix(0.6258492,0.1180821,-0.1180821,0.6258492,28.993654,-34.234887)"
           style="fill:#ffffff;fill-opacity:1;stroke:#000000;stroke-width:3.5095123;stroke-miterlimit:4;stroke-dasharray:none;stroke-opacity:1">
          <path
             sodipodi:nodetypes="ccccccsccccsccscsccscccc"
             id="path2030"
             style="fill:#ffffff;fill-opacity:1;fill-rule:evenodd;stroke:#000000;stroke-width:3.5095123;stroke-linecap:butt;stroke-linejoin:miter;stroke-miterlimit:4;stroke-dasharray:none;stroke-opacity:1;display:inline"
             d="M 325.01056,344.37855 C 327.55297,343.46328 339.11748,335.94624 366.24122,394.09782 C 396.148,421.712 415.48501,357.9909 416.91222,337.86294 C 415.91867,313.02426 399.62446,282.82037 399.62446,282.82037 C 396.06682,266.89121 406.09763,254.84446 417.11093,243.07841 C 406.59836,247.99073 395.64858,248.09384 386.11221,263.74423 C 386.11221,263.74423 383.52897,252.61648 385.71478,240.6939 C 387.90059,228.77132 400.02189,220.82292 400.02189,220.82292 C 385.78961,227.94479 373.84048,235.44718 372.20252,244.6681 C 367.77143,217.80887 380.36462,194.19236 398.03479,171.5429 C 379.63411,183.39647 363.40071,196.98388 355.51089,217.24614 C 345.44708,169.25263 382.97255,146.52001 424.26448,109.54544 C 455.25532,81.79493 430.62319,57.086061 430.62319,57.086061 C 406.94657,50.180149 387.31778,58.136542 371.01026,67.021551 C 371.01026,67.021551 355.39019,50.728236 345.97282,66.22672 C 335.05105,84.201054 326.31611,93.313858 331.2683,113.91705 C 328.71433,110.51175 353.29368,93.408068 372.20252,93.251245 C 387.42502,93.124995 376.57413,74.969948 376.57413,74.969948 C 406.48097,58.954495 451.45312,59.431269 413.53415,100.40478 C 367.32687,146.09502 325.87677,157.98823 347.5625,230.36099 C 359.87909,271.46567 404.46741,302.4474 403.79737,329.31847 C 408.96419,346.68037 391.63738,409.78842 369.818,376.41267 C 350.93495,331.68098 337.12761,327.71285 320.80908,329.10272 L 325.01056,344.37855 z " />
        </g>
        <path
           d="M 15.357165,55.115446 C 10.801752,56.187099 3.8550816,58.71417 1.25,63.817487 C 7.2158803,62.243312 11.944753,60.915595 16.152419,60.237912 L 15.357165,55.115446 z "
           style="fill:#ffffff;fill-opacity:1;fill-rule:evenodd;stroke:#000000;stroke-width:2.23517806;stroke-linecap:round;stroke-linejoin:round;stroke-miterlimit:4;stroke-dasharray:none;stroke-opacity:1"
           id="path3249" />
        <path
           d="M 16.789526,44.323832 C 12.170166,45.110373 8.975802,44.59901 1.8634082,49.339043 C 8.0271064,48.771617 14.528337,48.93738 18.459172,50.443893 L 16.789526,44.323832 z "
           style="fill:#ffffff;fill-opacity:1;fill-rule:evenodd;stroke:#000000;stroke-width:2.23517806;stroke-linecap:round;stroke-linejoin:round;stroke-miterlimit:4;stroke-dasharray:none;stroke-opacity:1"
           id="path3247" />
        <path
           d="M 29.769547,38.455353 C 25.577972,36.326931 20.705319,37.065295 15.974486,37.206662 C 22.29609,38.789183 23.967367,40.053459 27.373492,42.443885 L 29.769547,38.455353 z "
           style="fill:#ffffff;fill-opacity:1;fill-rule:evenodd;stroke:#000000;stroke-width:2.23517806;stroke-linecap:round;stroke-linejoin:round;stroke-miterlimit:4;stroke-dasharray:none;stroke-opacity:1"
           id="path3245" />
        <path
           d="M 19.272499,67.517187 C 13.226948,69.362039 14.092083,70.675361 12.532425,75.183191 C 18.309085,71.265736 21.849666,71.225715 24.301661,68.798374 L 19.272499,67.517187 z "
           style="fill:#ffffff;fill-opacity:1;fill-rule:evenodd;stroke:#000000;stroke-width:2.23517806;stroke-linecap:round;stroke-linejoin:round;stroke-miterlimit:4;stroke-dasharray:none;stroke-opacity:1"
           id="path4220" />
        <path
           d="M 47.754632,51.235249 C 54.71637,64.119846 61.507722,62.325535 69.878125,69.20542 C 80.799864,78.182339 85.392173,89.23989 114.18541,89.239546 L 106.30192,132.49612 L 83.521524,119.62464 C 78.909408,116.06392 66.466181,112.54431 59.866781,99.924899 C 54.262185,100.65495 52.965816,105.60264 52.445463,111.31002 C 49.716715,104.65518 45.83866,97.967559 49.434477,91.49315 L 41.021494,81.842539 C 35.752608,88.464286 27.747708,86.297954 20.790968,87.49832 C 29.736137,84.082949 36.83551,78.486686 37.981731,72.31807 L 34.55235,67.123191 C 25.831594,67.114318 29.0245,70.132965 21.501057,70.684586 L 15.615883,67.926137 C 21.016092,62.381571 25.694653,64.363178 30.933704,61.855791 C 22.639045,58.371273 19.659159,63.491837 13.006235,61.488788 C 11.456754,58.876748 11.534971,57.007078 13.181171,55.111447 C 17.779383,54.043997 23.23726,53.481602 28.421236,54.052478 C 21.086888,48.804284 21.059866,51.246894 15.066509,50.30376 C 13.121606,47.186954 12.10417,45.259824 16.054012,43.569364 C 20.008232,44.401886 27.941567,44.125007 32.732194,47.847459 C 32.102364,44.233082 30.012719,43.043207 25.277938,41.754856 C 26.21331,37.752549 24.069605,39.208954 28.91442,37.164162 C 38.661907,40.24696 46.139592,43.720771 47.754632,51.235249 z "
           style="fill:#ffffff;fill-opacity:1;fill-rule:evenodd;stroke:#000000;stroke-width:2.23517806;stroke-linecap:round;stroke-linejoin:round;stroke-miterlimit:4;stroke-dasharray:none;stroke-opacity:1"
           id="path3243" />
        <path
           d="M 142.44523,209.21476 C 148.43732,215.19872 155.05191,221.1145 152.78283,228.00341 C 146.51267,232.46818 143.09915,236.66991 159.03681,239.08987 L 165.16672,223.38284 L 152.65992,209.06449 C 145.3472,207.23634 142.63594,207.61982 142.44523,209.21476 z "
           style="fill:#ffffff;fill-opacity:1;fill-rule:evenodd;stroke:#000000;stroke-width:2.23517806;stroke-linecap:round;stroke-linejoin:round;stroke-miterlimit:4;stroke-dasharray:none;stroke-opacity:1"
           id="path3526" />
        <path
           d="M 137.03676,345.94856 C 130.22543,345.57381 125.64913,347.56422 120.53886,351.40088 C 128.39031,350.28147 131.5307,349.2038 136.87975,349.56534 L 137.03676,345.94856 z "
           style="fill:#ffffff;fill-opacity:1;fill-rule:evenodd;stroke:#000000;stroke-width:2.23517806;stroke-linecap:round;stroke-linejoin:round;stroke-miterlimit:4;stroke-dasharray:none;stroke-opacity:1"
           id="path3536" />
        <path
           d="M 129.60193,358.83655 C 125.08584,361.44115 119.92263,365.69342 118.19424,370.92963 C 122.8035,367.49611 127.56256,365.39711 131.85056,363.46853 L 129.60193,358.83655 z "
           style="fill:#ffffff;fill-opacity:1;fill-rule:evenodd;stroke:#000000;stroke-width:2.23517806;stroke-linecap:round;stroke-linejoin:round;stroke-miterlimit:4;stroke-dasharray:none;stroke-opacity:1"
           id="path3538" />
        <path
           d="M 136.75732,369.75388 C 132.35061,373.46308 129.0562,378.24008 127.77538,383.37271 C 132.42024,379.14738 136.51218,376.80482 141.61239,374.65507 L 136.75732,369.75388 z "
           style="fill:#ffffff;fill-opacity:1;fill-rule:evenodd;stroke:#000000;stroke-width:2.23517806;stroke-linecap:round;stroke-linejoin:round;stroke-miterlimit:4;stroke-dasharray:none;stroke-opacity:1"
           id="path3540" />
        <path
           d="M 161.19221,371.15199 C 161.64898,373.98417 163.77449,378.02466 165.78641,380.7988 L 167.44873,370.57193 L 161.19221,371.15199 z "
           style="fill:#ffffff;fill-opacity:1;fill-rule:evenodd;stroke:#000000;stroke-width:2.23517806;stroke-linecap:round;stroke-linejoin:round;stroke-miterlimit:4;stroke-dasharray:none;stroke-opacity:1"
           id="path3542" />
        <path
           d="M 100.85563,130.41243 C 109.83874,167.16295 137.42991,179.46661 148.93398,201.47403 C 162.07735,226.61744 157.3921,228.92861 157.3921,228.92861 C 151.90302,243.75668 138.17191,256.31308 142.24836,265.75864 C 160.0458,306.99715 118.52404,290.5852 139.12641,314.8816 C 127.88323,302.4125 147.18333,298.99132 154.79381,292.08053 C 159.27332,298.4713 164.23167,304.39552 173.88708,305.74305 C 171.04726,314.9705 163.9019,324.35866 168.82133,333.29648 C 162.97508,339.0183 160.07958,347.62882 149.90219,349.11057 C 145.86892,346.74892 145.5003,344.56084 137.79996,345.32967 C 133.64566,347.15018 135.21928,349.48518 134.93833,351.16111 C 144.92246,352.6825 136.98707,351.51295 145.08684,354.66941 C 134.57856,356.06795 138.08258,351.90679 128.7806,358.24197 C 128.18212,360.80316 131.63807,363.02514 132.1044,364.9451 C 141.63459,362.96865 137.52468,360.95242 147.12597,362.80066 C 141.91958,365.28892 140.66455,365.25034 136.54266,369.06221 C 135.57253,372.67116 140.91545,373.63237 141.13657,375.78687 C 150.82132,372.85905 147.81591,369.04467 158.90049,366.22562 C 158.7594,368.26636 158.57812,370.31661 160.33308,371.90826 C 163.2698,372.50786 166.0228,372.77304 168.86801,370.92069 C 169.64413,368.28634 171.0909,365.62697 168.59528,363.11474 C 177.53834,355.91142 191.97304,352.72902 189.93866,337.48813 C 192.61038,340.83218 195.6985,343.73252 201.32886,343.92387 C 197.68192,335.24417 211.24985,333.00248 199.71252,322.74809 C 202.79684,319.13971 204.82435,314.1776 210.9671,314.48698 L 211.20732,298.79595 C 179.65216,272.93403 214.12355,236.89052 187.88107,204.92089 C 188.80712,149.54355 184.71017,120.71634 175.59022,96.912139 L 100.85563,130.41243 z "
           style="fill:#ffffff;fill-opacity:1;fill-rule:evenodd;stroke:#000000;stroke-width:2.23517806;stroke-linecap:round;stroke-linejoin:round;stroke-miterlimit:4;stroke-dasharray:none;stroke-opacity:1"
           id="path3453"
           sodipodi:nodetypes="cscsccccccccccccccccccccccccc" />
        <path
           d="M 51.055829,145.99311 C 48.500244,142.12861 45.39376,142.85638 42.449666,142.23047 L 48.090782,149.53424 L 51.055829,145.99311 z "
           style="fill:#ffffff;fill-opacity:1;fill-rule:evenodd;stroke:#000000;stroke-width:2.23517806;stroke-linecap:round;stroke-linejoin:round;stroke-miterlimit:4;stroke-dasharray:none;stroke-opacity:1"
           id="path2264" />
        <path
           d="M 38.715476,152.82457 C 34.76372,150.80531 32.465949,147.78855 24.196664,151.07955 C 30.514574,152.69506 32.291387,154.4801 34.749925,157.21982 L 38.715476,152.82457 z "
           style="fill:#ffffff;fill-opacity:1;fill-rule:evenodd;stroke:#000000;stroke-width:2.23517806;stroke-linecap:round;stroke-linejoin:round;stroke-miterlimit:4;stroke-dasharray:none;stroke-opacity:1"
           id="path2266" />
        <path
           d="M 31.991905,166.30727 C 27.314286,165.70959 22.107484,166.31713 19.129565,170.21785 C 22.542213,169.44859 25.974093,169.19517 29.451442,170.15925 L 31.991905,166.30727 z "
           style="fill:#ffffff;fill-opacity:1;fill-rule:evenodd;stroke:#000000;stroke-width:2.23517806;stroke-linecap:round;stroke-linejoin:round;stroke-miterlimit:4;stroke-dasharray:none;stroke-opacity:1"
           id="path2268" />
        <path
           d="M 41.030388,181.65195 C 37.902326,183.31087 34.83861,185.00723 34.463484,188.2679 C 38.123827,185.96877 42.214485,184.59312 46.470587,183.57248 L 41.030388,181.65195 z "
           style="fill:#ffffff;fill-opacity:1;fill-rule:evenodd;stroke:#000000;stroke-width:2.23517806;stroke-linecap:round;stroke-linejoin:round;stroke-miterlimit:4;stroke-dasharray:none;stroke-opacity:1"
           id="path2270" />
        <path
           d="M 52.662743,144.78965 C 48.387693,145.48046 48.172047,147.60435 47.053721,149.40959 C 48.195059,152.91831 52.560569,155.87886 56.903994,158.84319 C 51.19818,157.18248 45.531519,156.57009 39.703825,151.64419 L 34.755167,151.82891 C 31.998848,153.72869 32.198501,155.51816 32.68798,157.29678 C 38.76481,163.25548 43.876367,163.34649 49.300006,165.3345 C 43.138052,165.40345 37.456086,167.66031 30.706039,165.04844 C 25.924321,167.62754 28.642148,169.3308 28.875477,171.32423 C 35.23856,173.58485 42.376123,172.21727 49.155539,172.5275 C 48.453461,175.29194 45.062925,177.89148 39.950726,180.3854 C 38.517301,183.7622 42.251182,184.63388 45.518773,185.73163 C 49.88888,184.84717 53.662144,183.17682 55.160349,178.51085 C 62.11776,178.31601 69.454273,178.39874 75.355163,177.43033 C 79.57787,180.21309 73.113572,183.39478 70.32293,186.43933 C 87.471942,186.24764 87.125065,177.67464 100.76488,172.23464 C 98.127747,177.24497 100.59202,181.25176 103.31393,185.20788 C 104.72867,177.1467 112.7559,175.19644 119.74688,171.85281 L 124.52504,167.10052 C 129.004,169.11412 134.37908,168.75736 139.84427,168.16226 C 137.04571,165.10853 139.56753,161.85621 144.43976,158.51615 C 151.71446,162.84458 156.00437,162.12255 159.79552,160.55662 C 143.95809,155.46235 155.31718,139.80309 154.89059,128.7222 L 131.0662,110.00891 L 87.880113,147.88567 C 83.702359,151.20661 77.828329,154.40388 69.159923,155.28199 C 60.763987,153.71965 56.269264,149.55131 52.662743,144.78965 z "
           style="fill:#ffffff;fill-opacity:1;fill-rule:evenodd;stroke:#000000;stroke-width:2.23517806;stroke-linecap:round;stroke-linejoin:round;stroke-miterlimit:4;stroke-dasharray:none;stroke-opacity:1"
           id="path2262" />
        <g
           id="g2235"
           transform="matrix(0.9844319,-0.1757663,0.1757663,0.9844319,-23.516777,33.087624)"
           style="fill:#ffffff;fill-opacity:1;stroke:#000000;stroke-width:2.23517811;stroke-miterlimit:4;stroke-dasharray:none;stroke-opacity:1">
          <path
             id="path2476"
             style="fill:#ffffff;fill-opacity:1;fill-rule:evenodd;stroke:#000000;stroke-width:2.23517811;stroke-linecap:round;stroke-linejoin:round;stroke-miterlimit:4;stroke-dasharray:none;stroke-opacity:1"
             d="M 130.00497,65.064139 C 130.47281,62.284296 129.99308,60.313347 131.4446,56.69375 C 133.22902,60.451463 136.61586,62.156847 139.33624,64.715833" />
          <path
             id="path3447"
             style="fill:#ffffff;fill-opacity:1;fill-rule:evenodd;stroke:#000000;stroke-width:2.23517811;stroke-linecap:round;stroke-linejoin:round;stroke-miterlimit:4;stroke-dasharray:none;stroke-opacity:1"
             d="M 160.41626,42.561106 C 136.95423,42.385451 118.45866,64.300178 97.739426,45.063998 C 109.14423,72.92704 134.5364,48.312276 161.37583,51.673153 L 160.41626,42.561106 z " />
          <path
             id="path2474"
             style="fill:#ffffff;fill-opacity:1;fill-rule:evenodd;stroke:#000000;stroke-width:2.23517811;stroke-linecap:round;stroke-linejoin:round;stroke-miterlimit:4;stroke-dasharray:none;stroke-opacity:1"
             d="M 123.80891,39.8834 C 123.9726,43.367768 125.85764,46.095792 129.08475,48.234143 C 127.71568,43.771726 131.36582,41.466263 133.68894,38.590529" />
          <path
             id="path2462"
             style="fill:#ffffff;fill-opacity:1;fill-rule:evenodd;stroke:#000000;stroke-width:2.23517811;stroke-linecap:round;stroke-linejoin:round;stroke-miterlimit:4;stroke-dasharray:none;stroke-opacity:1"
             d="M 134.07099,127.05634 L 130.93345,136.87623 L 139.52651,132.39715 C 125.17442,153.94443 139.7747,158.6135 155.2605,162.76633 C 151.56021,149.63581 166.72217,142.28818 172.70025,129.31074 C 166.74385,142.10063 168.7515,150.24332 190.86806,146.65203 C 170.24389,138.12164 194.56469,129.94899 188.46163,113.47519 C 191.51172,122.64375 199.32578,119.21125 205.63289,119.76479 C 186.82143,110.46052 199.56049,99.144551 202.12894,88.477077 L 196.12232,68.371655 C 198.56376,81.151606 206.86035,77.642785 213.98011,77.407855 C 200.43157,72.064599 213.13601,55.109534 197.54235,43.830694 C 203.30936,47.40614 208.98776,51.981353 215.2796,49.637128 C 202.07743,45.540238 208.70325,32.571 196.92234,27.220512 C 203.81651,28.843097 208.44559,27.161368 213.83527,26.589205 C 208.11398,24.558353 202.4902,25.140808 196.64678,19.838207 L 188.05137,8.6081102 L 162.75832,3.7767525 C 156.14398,4.4771411 149.72232,5.8353691 143.99363,9.5595866 C 138.97302,11.268975 132.7788,12.119057 132.30489,17.157479 C 122.20373,17.402063 101.85633,24.967414 116.29379,26.302797 C 115.13973,36.587769 117.17191,39.818117 122.66833,40.619017 C 134.57411,44.832046 138.74505,36.376903 148.17431,35.508632 C 167.4491,44.432972 157.1164,56.194103 150.27933,60.611057 C 142.84794,65.411975 131.59096,60.615593 131.59096,60.615593 C 126.90888,65.564741 126.83508,68.801759 131.36945,70.326636 C 136.25779,76.015068 138.69845,71.911181 141.90155,70.857586 C 162.05072,74.005527 160.77702,63.3581 168.89883,58.760967 C 162.13447,66.28389 168.24077,78.372463 145.74523,79.954848 C 134.12769,80.777077 135.98888,76.738236 124.93813,77.959287 C 113.8874,79.180356 110.00242,85.693107 101.54227,84.839069 C 93.97975,84.075643 83.516075,83.086246 93.323396,68.050488 C 75.737025,80.891486 89.504156,96.681769 110.61757,93.27901 C 91.611047,96.53265 79.051412,102.86036 64.972634,90.824465 C 82.312287,120.83255 95.657101,104.00247 119.83924,105.64083 C 95.613501,105.49416 95.561321,125.2353 70.14008,119.7399 C 75.850435,130.38617 84.086946,129.82478 94.996321,128.51489 C 90.52129,131.66005 85.994939,139.65126 77.827431,137.93445 C 81.349906,145.60538 94.459571,144.40953 105.77074,143.35994 C 118.64023,142.16573 126.19403,134.14022 134.07099,127.05634 z " />
          <path
             id="path2472"
             style="fill:#ffffff;fill-opacity:1;fill-rule:evenodd;stroke:#000000;stroke-width:2.23517811;stroke-linecap:round;stroke-linejoin:round;stroke-miterlimit:4;stroke-dasharray:none;stroke-opacity:1"
             d="M 171.60227,13.84247 C 170.91241,4.0475852 179.95943,3.5465992 186.89239,1.0277603 C 185.60976,7.2276674 185.6807,15.40215 181.36292,17.174441" />
          <path
             id="path3449"
             style="fill:#ffffff;fill-opacity:1;fill-rule:evenodd;stroke:#000000;stroke-width:2.23517811;stroke-linecap:round;stroke-linejoin:round;stroke-miterlimit:4;stroke-dasharray:none;stroke-opacity:1"
             d="M 133.48595,18.082995 C 136.25728,22.259817 138.77353,19.602387 141.34568,18.443048 C 148.15698,11.795543 152.12434,17.247594 156.68926,20.157286"
             sodipodi:nodetypes="ccc" />
          <path
             id="path3451"
             style="fill:#ffffff;fill-opacity:1;fill-rule:evenodd;stroke:#000000;stroke-width:2.23517811;stroke-linecap:round;stroke-linejoin:round;stroke-miterlimit:4;stroke-dasharray:none;stroke-opacity:1"
             d="M 137.50838,21.058822 C 140.26472,22.990403 141.9451,23.753787 144.60422,23.080904 C 148.92234,22.124517 150.36689,19.735787 152.33608,20.015281 C 152.2711,18.297304 152.02426,16.644442 149.29105,15.881716 C 142.73406,16.845747 142.88208,19.069721 137.50838,21.058822 z " />
        </g>
        <path
           d="M 154.88513,292.14808 C 158.56426,284.07911 154.69691,276.29184 153.41497,268.40806"
           style="fill:#ffffff;fill-opacity:1;fill-rule:evenodd;stroke:#000000;stroke-width:2.23517806;stroke-linecap:round;stroke-linejoin:round;stroke-miterlimit:4;stroke-dasharray:none;stroke-opacity:1"
           id="path3518" />
        <path
           d="M 32.191214,46.467206 C 37.437577,52.717912 34.520009,56.062068 42.231099,59.097126"
           style="fill:#ffffff;fill-opacity:1;fill-rule:evenodd;stroke:#000000;stroke-width:2.23517806;stroke-linecap:butt;stroke-linejoin:miter;stroke-miterlimit:4;stroke-dasharray:none;stroke-opacity:1"
           id="path4248" />
      </g>
    </g>
  </g>
  <g
     inkscape:groupmode="layer"
     id="layer2"
     inkscape:label="Reflet final"
     style="display:inline"
     sodipodi:insensitive="true">
    <path
       sodipodi:nodetypes="cccccc"
       d="M 300.00001,658.5 C 300.00001,658.5 598.50001,546.17969 598.50001,260.72817 C 598.50001,-24.723334 598.50001,2.1764865 598.50001,2.1764865 L 1.5,2.1764865 L 1.5,260.72817 C 1.5,546.17969 300.00001,658.5 300.00001,658.5 z "
       style="opacity:1;fill:url(#radialGradient3163);fill-opacity:1;fill-rule:evenodd;stroke:none;stroke-width:1px;stroke-linecap:butt;stroke-linejoin:miter;stroke-opacity:1"
       id="path2875"
       inkscape:export-xdpi="144"
       inkscape:export-ydpi="144" />
  </g>
  <g
     inkscape:groupmode="layer"
     id="layer1"
     inkscape:label="Contour final"
     style="display:inline">
    <path
       sodipodi:nodetypes="cccccc"
       d="M 299.99999,658.50028 C 299.99999,658.50028 1.5,546.17992 1.5,260.72828 C 1.5,-24.723336 1.5,2.1764957 1.5,2.1764957 L 598.49999,2.1764957 L 598.49999,260.72828 C 598.49999,546.17992 299.99999,658.50028 299.99999,658.50028 z "
       style="opacity:1;fill:none;fill-opacity:1;fill-rule:evenodd;stroke:#000000;stroke-width:3.00000048;stroke-linecap:butt;stroke-linejoin:miter;stroke-miterlimit:4;stroke-dasharray:none;stroke-opacity:1"
       id="path1411"
       inkscape:export-xdpi="144"
       inkscape:export-ydpi="144" />
  </g>
</svg>
