<?xml version="1.0" encoding="UTF-8" standalone="no"?>
<svg
   xmlns:dc="http://purl.org/dc/elements/1.1/"
   xmlns:cc="http://web.resource.org/cc/"
   xmlns:rdf="http://www.w3.org/1999/02/22-rdf-syntax-ns#"
   xmlns:svg="http://www.w3.org/2000/svg"
   xmlns="http://www.w3.org/2000/svg"
   xmlns:xlink="http://www.w3.org/1999/xlink"
   xmlns:sodipodi="http://sodipodi.sourceforge.net/DTD/sodipodi-0.dtd"
   xmlns:inkscape="http://www.inkscape.org/namespaces/inkscape"
   height="660"
   width="600"
   version="1.0"
   id="svg2"
   sodipodi:version="0.32"
   inkscape:version="0.44.1"
   sodipodi:docname="Blason département fr Val-d'Oise.svg"
   sodipodi:docbase="C:\Documents and Settings\Standard\Mes documents\aaaOuiqui\Blasons\Blasons Yvelines svg"
   inkscape:export-filename="/Users/olivier/Desktop/Blason Rouge/Blason_Vide_3D.png"
   inkscape:export-xdpi="144"
   inkscape:export-ydpi="144">
  <metadata
     id="metadata49">
    <rdf:RDF>
      <cc:Work
         rdf:about="">
        <dc:format>image/svg+xml</dc:format>
        <dc:type
           rdf:resource="http://purl.org/dc/dcmitype/StillImage" />
        <dc:title>Gabarit d'un blason en pointe pour le projet Blasons de Wikipédia</dc:title>
        <dc:date>03-AUG-2006</dc:date>
        <dc:creator>
          <cc:Agent>
            <dc:title>Jérôme BLUM (wagner51)</dc:title>
          </cc:Agent>
        </dc:creator>
        <cc:license
           rdf:resource="http://web.resource.org/cc/PublicDomain" />
        <dc:language>fr</dc:language>
        <dc:subject>
          <rdf:Bag>
            <rdf:li>gabarit modèle blason projet wikipédia</rdf:li>
          </rdf:Bag>
        </dc:subject>
      </cc:Work>
      <cc:License
         rdf:about="http://web.resource.org/cc/PublicDomain">
        <cc:permits
           rdf:resource="http://web.resource.org/cc/Reproduction" />
        <cc:permits
           rdf:resource="http://web.resource.org/cc/Distribution" />
        <cc:permits
           rdf:resource="http://web.resource.org/cc/DerivativeWorks" />
      </cc:License>
    </rdf:RDF>
  </metadata>
  <sodipodi:namedview
     inkscape:window-height="712"
     inkscape:window-width="1016"
     inkscape:pageshadow="2"
     inkscape:pageopacity="0.0"
     guidetolerance="10.0"
     gridtolerance="10.0"
     objecttolerance="10.0"
     borderopacity="1.0"
     bordercolor="#666666"
     pagecolor="#ffffff"
     id="base"
     showgrid="false"
     height="660px"
     inkscape:zoom="0.89095454"
     inkscape:cx="452.88752"
     inkscape:cy="361.42442"
     inkscape:window-x="0"
     inkscape:window-y="0"
     inkscape:current-layer="layer3"
     showguides="true"
     inkscape:guide-bbox="true" />
  <desc
     id="desc4">Flag of Canton of Valais (Wallis)</desc>
  <defs
     id="defs6">
    <linearGradient
       id="linearGradient2893">
      <stop
         style="stop-color:white;stop-opacity:0.3137255;"
         offset="0"
         id="stop2895" />
      <stop
         id="stop2897"
         offset="0.19"
         style="stop-color:white;stop-opacity:0.25098041;" />
      <stop
         style="stop-color:#6b6b6b;stop-opacity:0.1254902;"
         offset="0.60000002"
         id="stop2901" />
      <stop
         style="stop-color:black;stop-opacity:0.1254902;"
         offset="1"
         id="stop2899" />
    </linearGradient>
    <radialGradient
       inkscape:collect="always"
       xlink:href="#linearGradient2893"
       id="radialGradient3163"
       gradientUnits="userSpaceOnUse"
       gradientTransform="matrix(1.353218,0,0,1.348928,-77.62935,-85.74693)"
       cx="221.44487"
       cy="226.33101"
       fx="221.44487"
       fy="226.33101"
       r="300" />
  </defs>
  <g
     inkscape:groupmode="layer"
     id="layer3"
     inkscape:label="Fond écu"
     style="display:inline">
    <rect
       y="-38.278225"
       x="855.11908"
       height="0"
       width="2"
       id="rect12745"
       style="fill:white;fill-opacity:1;fill-rule:evenodd;stroke:black;stroke-width:2;stroke-linecap:round;stroke-linejoin:round;stroke-miterlimit:4;stroke-dasharray:none;stroke-dashoffset:0;stroke-opacity:1" />
    <path
       sodipodi:nodetypes="cccccc"
       d="M 298.86909,658.47179 C 298.86909,658.47179 597.36909,546.15148 597.36909,260.69996 C 597.36909,-24.751565 597.36909,2.1482651 597.36909,2.1482651 L 0.369093,2.1482651 L 0.369093,260.69996 C 0.369093,546.15148 298.86909,658.47179 298.86909,658.47179 z "
       style="fill:#2b5df2;fill-opacity:1;fill-rule:evenodd;stroke:none;stroke-width:1px;stroke-linecap:butt;stroke-linejoin:miter;stroke-opacity:1;display:inline"
       id="path11575" />
    <g
       id="g3413"
       transform="translate(-0.912039,0)"
       style="stroke-width:2.5;stroke-miterlimit:4;stroke-dasharray:none">
      <g
         style="stroke:black;stroke-width:10.53035058;stroke-miterlimit:4;stroke-dasharray:none;stroke-opacity:1;display:inline"
         id="g3861"
         transform="matrix(0.237409,0,0,0.237409,310.9772,184.0457)">
        <path
           sodipodi:nodetypes="csssssscscsscccccccsscscssssssc"
           id="path3863"
           d="M -48.09683,-730.04688 C -18.63463,-698.20088 -1.311324,-680.63851 1.71567,-631.22551 C 4.516922,-585.49753 -25.91305,-547.26746 -32.47183,-503.03801 C -33.71586,-494.64886 -34.78343,-477.52504 -33.65933,-470.58029 C -32.82682,-465.43703 -30.2673,-449.72452 -27.47183,-469.16609 C -26.89689,-473.16463 -26.48464,-493.22641 -24.72183,-503.41301 C -21.50976,-521.97423 -11.22367,-554.61188 6.62192,-572.69426 C 24.45989,-590.7689 52.7264,-602.49289 77.93442,-593.03801 C 100.77409,-582.49963 102.93306,-552.73834 96.43442,-530.97551 C 88.29557,-503.71988 57.19325,-484.85525 29.30942,-483.00676 C 34.83452,-493.933 48.05897,-525.11969 33.71567,-523.88176 C 17.11291,-522.44882 -2.746744,-494.20056 -7.917294,-474.82293 C -9.864494,-467.52547 -9.07753,-456.19513 -19.50308,-456.66301 C -12.62837,-433.43496 6.77717,-418.06468 23.77817,-401.85051 C 6.05563,-400.37739 -11.47738,-408.7178 -26.94058,-416.66301 C -26.286749,-400.73784 -29.378446,-367.09562 -48.09683,-348.72551 C -65.471545,-367.64157 -67.052581,-390.71209 -67.37808,-416.66301 C -82.84128,-408.7178 -100.37429,-400.37739 -118.09683,-401.85051 C -101.09583,-418.06468 -81.690291,-433.43496 -74.81558,-456.66301 C -85.24113,-456.19513 -85.868385,-466.81836 -87.81558,-474.11582 C -92.98613,-493.49343 -111.43157,-522.44884 -128.03433,-523.88176 C -142.37763,-525.11969 -129.15318,-493.933 -123.62808,-483.00676 C -151.51191,-484.85525 -182.61422,-503.71988 -190.75308,-530.97551 C -197.25172,-552.73834 -195.09274,-582.49964 -172.25308,-593.03801 C -147.04505,-602.49289 -118.77855,-590.76891 -100.94058,-572.69426 C -83.094993,-554.61188 -72.808901,-521.97423 -69.59683,-503.41301 C -67.83402,-493.22641 -68.128878,-474.57884 -67.553937,-470.58029 C -64.758467,-451.13871 -61.491841,-465.43705 -60.65933,-470.58029 C -59.53523,-477.52504 -60.602801,-494.64887 -61.84683,-503.03801 C -68.40561,-547.26744 -95.955806,-587.0527 -96.03433,-631.22551 C -96.103977,-671.11179 -76.05061,-701.46041 -48.09683,-730.04688 z "
           style="fill:#fcef3c;fill-opacity:1;fill-rule:evenodd;stroke:black;stroke-width:10.53035058;stroke-linecap:butt;stroke-linejoin:miter;stroke-miterlimit:4;stroke-dasharray:none;stroke-opacity:1" />
        <rect
           transform="scale(-1,1)"
           ry="7.0119839"
           y="-474.15433"
           x="-20.840672"
           height="22"
           width="136"
           id="rect3865"
           style="fill:#fcef3c;fill-opacity:1;fill-rule:evenodd;stroke:black;stroke-width:10.53035058;stroke-linejoin:round;stroke-miterlimit:4;stroke-dasharray:none;stroke-opacity:1"
           rx="7.0119839" />
      </g>
      <g
         style="stroke:black;stroke-width:10.53035058;stroke-miterlimit:4;stroke-dasharray:none;stroke-opacity:1;display:inline"
         id="g3357"
         transform="matrix(0.237409,0,0,0.237409,560.7093,184.0457)">
        <path
           sodipodi:nodetypes="csssssscscsscccccccsscscssssssc"
           id="path3359"
           d="M -48.09683,-730.04688 C -18.63463,-698.20088 -1.311324,-680.63851 1.71567,-631.22551 C 4.516922,-585.49753 -25.91305,-547.26746 -32.47183,-503.03801 C -33.71586,-494.64886 -34.78343,-477.52504 -33.65933,-470.58029 C -32.82682,-465.43703 -30.2673,-449.72452 -27.47183,-469.16609 C -26.89689,-473.16463 -26.48464,-493.22641 -24.72183,-503.41301 C -21.50976,-521.97423 -11.22367,-554.61188 6.62192,-572.69426 C 24.45989,-590.7689 52.7264,-602.49289 77.93442,-593.03801 C 100.77409,-582.49963 102.93306,-552.73834 96.43442,-530.97551 C 88.29557,-503.71988 57.19325,-484.85525 29.30942,-483.00676 C 34.83452,-493.933 48.05897,-525.11969 33.71567,-523.88176 C 17.11291,-522.44882 -2.746744,-494.20056 -7.917294,-474.82293 C -9.864494,-467.52547 -9.07753,-456.19513 -19.50308,-456.66301 C -12.62837,-433.43496 6.77717,-418.06468 23.77817,-401.85051 C 6.05563,-400.37739 -11.47738,-408.7178 -26.94058,-416.66301 C -26.286749,-400.73784 -29.378446,-367.09562 -48.09683,-348.72551 C -65.471545,-367.64157 -67.052581,-390.71209 -67.37808,-416.66301 C -82.84128,-408.7178 -100.37429,-400.37739 -118.09683,-401.85051 C -101.09583,-418.06468 -81.690291,-433.43496 -74.81558,-456.66301 C -85.24113,-456.19513 -85.868385,-466.81836 -87.81558,-474.11582 C -92.98613,-493.49343 -111.43157,-522.44884 -128.03433,-523.88176 C -142.37763,-525.11969 -129.15318,-493.933 -123.62808,-483.00676 C -151.51191,-484.85525 -182.61422,-503.71988 -190.75308,-530.97551 C -197.25172,-552.73834 -195.09274,-582.49964 -172.25308,-593.03801 C -147.04505,-602.49289 -118.77855,-590.76891 -100.94058,-572.69426 C -83.094993,-554.61188 -72.808901,-521.97423 -69.59683,-503.41301 C -67.83402,-493.22641 -68.128878,-474.57884 -67.553937,-470.58029 C -64.758467,-451.13871 -61.491841,-465.43705 -60.65933,-470.58029 C -59.53523,-477.52504 -60.602801,-494.64887 -61.84683,-503.03801 C -68.40561,-547.26744 -95.955806,-587.0527 -96.03433,-631.22551 C -96.103977,-671.11179 -76.05061,-701.46041 -48.09683,-730.04688 z "
           style="fill:#fcef3c;fill-opacity:1;fill-rule:evenodd;stroke:black;stroke-width:10.53035058;stroke-linecap:butt;stroke-linejoin:miter;stroke-miterlimit:4;stroke-dasharray:none;stroke-opacity:1" />
        <rect
           transform="scale(-1,1)"
           ry="7.0119839"
           y="-474.15433"
           x="-20.840672"
           height="22"
           width="136"
           id="rect3361"
           style="fill:#fcef3c;fill-opacity:1;fill-rule:evenodd;stroke:black;stroke-width:10.53035058;stroke-linejoin:round;stroke-miterlimit:4;stroke-dasharray:none;stroke-opacity:1"
           rx="7.0119839" />
      </g>
      <g
         style="stroke:black;stroke-width:10.53035058;stroke-miterlimit:4;stroke-dasharray:none;stroke-opacity:1;display:inline"
         id="g3363"
         transform="matrix(0.237409,0,0,0.237409,61.24506,184.0456)">
        <path
           sodipodi:nodetypes="csssssscscsscccccccsscscssssssc"
           id="path3365"
           d="M -48.09683,-730.04688 C -18.63463,-698.20088 -1.311324,-680.63851 1.71567,-631.22551 C 4.516922,-585.49753 -25.91305,-547.26746 -32.47183,-503.03801 C -33.71586,-494.64886 -34.78343,-477.52504 -33.65933,-470.58029 C -32.82682,-465.43703 -30.2673,-449.72452 -27.47183,-469.16609 C -26.89689,-473.16463 -26.48464,-493.22641 -24.72183,-503.41301 C -21.50976,-521.97423 -11.22367,-554.61188 6.62192,-572.69426 C 24.45989,-590.7689 52.7264,-602.49289 77.93442,-593.03801 C 100.77409,-582.49963 102.93306,-552.73834 96.43442,-530.97551 C 88.29557,-503.71988 57.19325,-484.85525 29.30942,-483.00676 C 34.83452,-493.933 48.05897,-525.11969 33.71567,-523.88176 C 17.11291,-522.44882 -2.746744,-494.20056 -7.917294,-474.82293 C -9.864494,-467.52547 -9.07753,-456.19513 -19.50308,-456.66301 C -12.62837,-433.43496 6.77717,-418.06468 23.77817,-401.85051 C 6.05563,-400.37739 -11.47738,-408.7178 -26.94058,-416.66301 C -26.286749,-400.73784 -29.378446,-367.09562 -48.09683,-348.72551 C -65.471545,-367.64157 -67.052581,-390.71209 -67.37808,-416.66301 C -82.84128,-408.7178 -100.37429,-400.37739 -118.09683,-401.85051 C -101.09583,-418.06468 -81.690291,-433.43496 -74.81558,-456.66301 C -85.24113,-456.19513 -85.868385,-466.81836 -87.81558,-474.11582 C -92.98613,-493.49343 -111.43157,-522.44884 -128.03433,-523.88176 C -142.37763,-525.11969 -129.15318,-493.933 -123.62808,-483.00676 C -151.51191,-484.85525 -182.61422,-503.71988 -190.75308,-530.97551 C -197.25172,-552.73834 -195.09274,-582.49964 -172.25308,-593.03801 C -147.04505,-602.49289 -118.77855,-590.76891 -100.94058,-572.69426 C -83.094993,-554.61188 -72.808901,-521.97423 -69.59683,-503.41301 C -67.83402,-493.22641 -68.128878,-474.57884 -67.553937,-470.58029 C -64.758467,-451.13871 -61.491841,-465.43705 -60.65933,-470.58029 C -59.53523,-477.52504 -60.602801,-494.64887 -61.84683,-503.03801 C -68.40561,-547.26744 -95.955806,-587.0527 -96.03433,-631.22551 C -96.103977,-671.11179 -76.05061,-701.46041 -48.09683,-730.04688 z "
           style="fill:#fcef3c;fill-opacity:1;fill-rule:evenodd;stroke:black;stroke-width:10.53035058;stroke-linecap:butt;stroke-linejoin:miter;stroke-miterlimit:4;stroke-dasharray:none;stroke-opacity:1" />
        <rect
           transform="scale(-1,1)"
           ry="7.0119839"
           y="-474.15433"
           x="-20.840672"
           height="22"
           width="136"
           id="rect3367"
           style="fill:#fcef3c;fill-opacity:1;fill-rule:evenodd;stroke:black;stroke-width:10.53035058;stroke-linejoin:round;stroke-miterlimit:4;stroke-dasharray:none;stroke-opacity:1"
           rx="7.0119839" />
      </g>
    </g>
    <g
       id="g3405"
       transform="translate(-0.912089,0)"
       style="stroke-width:2.5;stroke-miterlimit:4;stroke-dasharray:none">
      <g
         style="stroke:black;stroke-width:10.53035058;stroke-miterlimit:4;stroke-dasharray:none;stroke-opacity:1;display:inline"
         id="g3369"
         transform="matrix(0.237409,0,0,0.237409,61.24506,345.67)">
        <path
           sodipodi:nodetypes="csssssscscsscccccccsscscssssssc"
           id="path3371"
           d="M -48.09683,-730.04688 C -18.63463,-698.20088 -1.311324,-680.63851 1.71567,-631.22551 C 4.516922,-585.49753 -25.91305,-547.26746 -32.47183,-503.03801 C -33.71586,-494.64886 -34.78343,-477.52504 -33.65933,-470.58029 C -32.82682,-465.43703 -30.2673,-449.72452 -27.47183,-469.16609 C -26.89689,-473.16463 -26.48464,-493.22641 -24.72183,-503.41301 C -21.50976,-521.97423 -11.22367,-554.61188 6.62192,-572.69426 C 24.45989,-590.7689 52.7264,-602.49289 77.93442,-593.03801 C 100.77409,-582.49963 102.93306,-552.73834 96.43442,-530.97551 C 88.29557,-503.71988 57.19325,-484.85525 29.30942,-483.00676 C 34.83452,-493.933 48.05897,-525.11969 33.71567,-523.88176 C 17.11291,-522.44882 -2.746744,-494.20056 -7.917294,-474.82293 C -9.864494,-467.52547 -9.07753,-456.19513 -19.50308,-456.66301 C -12.62837,-433.43496 6.77717,-418.06468 23.77817,-401.85051 C 6.05563,-400.37739 -11.47738,-408.7178 -26.94058,-416.66301 C -26.286749,-400.73784 -29.378446,-367.09562 -48.09683,-348.72551 C -65.471545,-367.64157 -67.052581,-390.71209 -67.37808,-416.66301 C -82.84128,-408.7178 -100.37429,-400.37739 -118.09683,-401.85051 C -101.09583,-418.06468 -81.690291,-433.43496 -74.81558,-456.66301 C -85.24113,-456.19513 -85.868385,-466.81836 -87.81558,-474.11582 C -92.98613,-493.49343 -111.43157,-522.44884 -128.03433,-523.88176 C -142.37763,-525.11969 -129.15318,-493.933 -123.62808,-483.00676 C -151.51191,-484.85525 -182.61422,-503.71988 -190.75308,-530.97551 C -197.25172,-552.73834 -195.09274,-582.49964 -172.25308,-593.03801 C -147.04505,-602.49289 -118.77855,-590.76891 -100.94058,-572.69426 C -83.094993,-554.61188 -72.808901,-521.97423 -69.59683,-503.41301 C -67.83402,-493.22641 -68.128878,-474.57884 -67.553937,-470.58029 C -64.758467,-451.13871 -61.491841,-465.43705 -60.65933,-470.58029 C -59.53523,-477.52504 -60.602801,-494.64887 -61.84683,-503.03801 C -68.40561,-547.26744 -95.955806,-587.0527 -96.03433,-631.22551 C -96.103977,-671.11179 -76.05061,-701.46041 -48.09683,-730.04688 z "
           style="fill:#fcef3c;fill-opacity:1;fill-rule:evenodd;stroke:black;stroke-width:10.53035058;stroke-linecap:butt;stroke-linejoin:miter;stroke-miterlimit:4;stroke-dasharray:none;stroke-opacity:1" />
        <rect
           transform="scale(-1,1)"
           ry="7.0119839"
           y="-474.15433"
           x="-20.840672"
           height="22"
           width="136"
           id="rect3373"
           style="fill:#fcef3c;fill-opacity:1;fill-rule:evenodd;stroke:black;stroke-width:10.53035058;stroke-linejoin:round;stroke-miterlimit:4;stroke-dasharray:none;stroke-opacity:1"
           rx="7.0119839" />
      </g>
      <g
         style="stroke:black;stroke-width:10.53035058;stroke-miterlimit:4;stroke-dasharray:none;stroke-opacity:1;display:inline"
         id="g3375"
         transform="matrix(0.237409,0,0,0.237409,560.7094,345.6701)">
        <path
           sodipodi:nodetypes="csssssscscsscccccccsscscssssssc"
           id="path3377"
           d="M -48.09683,-730.04688 C -18.63463,-698.20088 -1.311324,-680.63851 1.71567,-631.22551 C 4.516922,-585.49753 -25.91305,-547.26746 -32.47183,-503.03801 C -33.71586,-494.64886 -34.78343,-477.52504 -33.65933,-470.58029 C -32.82682,-465.43703 -30.2673,-449.72452 -27.47183,-469.16609 C -26.89689,-473.16463 -26.48464,-493.22641 -24.72183,-503.41301 C -21.50976,-521.97423 -11.22367,-554.61188 6.62192,-572.69426 C 24.45989,-590.7689 52.7264,-602.49289 77.93442,-593.03801 C 100.77409,-582.49963 102.93306,-552.73834 96.43442,-530.97551 C 88.29557,-503.71988 57.19325,-484.85525 29.30942,-483.00676 C 34.83452,-493.933 48.05897,-525.11969 33.71567,-523.88176 C 17.11291,-522.44882 -2.746744,-494.20056 -7.917294,-474.82293 C -9.864494,-467.52547 -9.07753,-456.19513 -19.50308,-456.66301 C -12.62837,-433.43496 6.77717,-418.06468 23.77817,-401.85051 C 6.05563,-400.37739 -11.47738,-408.7178 -26.94058,-416.66301 C -26.286749,-400.73784 -29.378446,-367.09562 -48.09683,-348.72551 C -65.471545,-367.64157 -67.052581,-390.71209 -67.37808,-416.66301 C -82.84128,-408.7178 -100.37429,-400.37739 -118.09683,-401.85051 C -101.09583,-418.06468 -81.690291,-433.43496 -74.81558,-456.66301 C -85.24113,-456.19513 -85.868385,-466.81836 -87.81558,-474.11582 C -92.98613,-493.49343 -111.43157,-522.44884 -128.03433,-523.88176 C -142.37763,-525.11969 -129.15318,-493.933 -123.62808,-483.00676 C -151.51191,-484.85525 -182.61422,-503.71988 -190.75308,-530.97551 C -197.25172,-552.73834 -195.09274,-582.49964 -172.25308,-593.03801 C -147.04505,-602.49289 -118.77855,-590.76891 -100.94058,-572.69426 C -83.094993,-554.61188 -72.808901,-521.97423 -69.59683,-503.41301 C -67.83402,-493.22641 -68.128878,-474.57884 -67.553937,-470.58029 C -64.758467,-451.13871 -61.491841,-465.43705 -60.65933,-470.58029 C -59.53523,-477.52504 -60.602801,-494.64887 -61.84683,-503.03801 C -68.40561,-547.26744 -95.955806,-587.0527 -96.03433,-631.22551 C -96.103977,-671.11179 -76.05061,-701.46041 -48.09683,-730.04688 z "
           style="fill:#fcef3c;fill-opacity:1;fill-rule:evenodd;stroke:black;stroke-width:10.53035058;stroke-linecap:butt;stroke-linejoin:miter;stroke-miterlimit:4;stroke-dasharray:none;stroke-opacity:1" />
        <rect
           transform="scale(-1,1)"
           ry="7.0119839"
           y="-474.15433"
           x="-20.840672"
           height="22"
           width="136"
           id="rect3379"
           style="fill:#fcef3c;fill-opacity:1;fill-rule:evenodd;stroke:black;stroke-width:10.53035058;stroke-linejoin:round;stroke-miterlimit:4;stroke-dasharray:none;stroke-opacity:1"
           rx="7.0119839" />
      </g>
    </g>
    <g
       transform="matrix(0.237409,0,0,0.237409,310.0651,731.7728)"
       id="g3381"
       style="stroke:black;stroke-width:10.53035058;stroke-miterlimit:4;stroke-dasharray:none;stroke-opacity:1;display:inline">
      <path
         style="fill:#fcef3c;fill-opacity:1;fill-rule:evenodd;stroke:black;stroke-width:10.53035058;stroke-linecap:butt;stroke-linejoin:miter;stroke-miterlimit:4;stroke-dasharray:none;stroke-opacity:1"
         d="M -48.09683,-730.04688 C -18.63463,-698.20088 -1.311324,-680.63851 1.71567,-631.22551 C 4.516922,-585.49753 -25.91305,-547.26746 -32.47183,-503.03801 C -33.71586,-494.64886 -34.78343,-477.52504 -33.65933,-470.58029 C -32.82682,-465.43703 -30.2673,-449.72452 -27.47183,-469.16609 C -26.89689,-473.16463 -26.48464,-493.22641 -24.72183,-503.41301 C -21.50976,-521.97423 -11.22367,-554.61188 6.62192,-572.69426 C 24.45989,-590.7689 52.7264,-602.49289 77.93442,-593.03801 C 100.77409,-582.49963 102.93306,-552.73834 96.43442,-530.97551 C 88.29557,-503.71988 57.19325,-484.85525 29.30942,-483.00676 C 34.83452,-493.933 48.05897,-525.11969 33.71567,-523.88176 C 17.11291,-522.44882 -2.746744,-494.20056 -7.917294,-474.82293 C -9.864494,-467.52547 -9.07753,-456.19513 -19.50308,-456.66301 C -12.62837,-433.43496 6.77717,-418.06468 23.77817,-401.85051 C 6.05563,-400.37739 -11.47738,-408.7178 -26.94058,-416.66301 C -26.286749,-400.73784 -29.378446,-367.09562 -48.09683,-348.72551 C -65.471545,-367.64157 -67.052581,-390.71209 -67.37808,-416.66301 C -82.84128,-408.7178 -100.37429,-400.37739 -118.09683,-401.85051 C -101.09583,-418.06468 -81.690291,-433.43496 -74.81558,-456.66301 C -85.24113,-456.19513 -85.868385,-466.81836 -87.81558,-474.11582 C -92.98613,-493.49343 -111.43157,-522.44884 -128.03433,-523.88176 C -142.37763,-525.11969 -129.15318,-493.933 -123.62808,-483.00676 C -151.51191,-484.85525 -182.61422,-503.71988 -190.75308,-530.97551 C -197.25172,-552.73834 -195.09274,-582.49964 -172.25308,-593.03801 C -147.04505,-602.49289 -118.77855,-590.76891 -100.94058,-572.69426 C -83.094993,-554.61188 -72.808901,-521.97423 -69.59683,-503.41301 C -67.83402,-493.22641 -68.128878,-474.57884 -67.553937,-470.58029 C -64.758467,-451.13871 -61.491841,-465.43705 -60.65933,-470.58029 C -59.53523,-477.52504 -60.602801,-494.64887 -61.84683,-503.03801 C -68.40561,-547.26744 -95.955806,-587.0527 -96.03433,-631.22551 C -96.103977,-671.11179 -76.05061,-701.46041 -48.09683,-730.04688 z "
         id="path3383"
         sodipodi:nodetypes="csssssscscsscccccccsscscssssssc" />
      <rect
         rx="7.0119839"
         style="fill:#fcef3c;fill-opacity:1;fill-rule:evenodd;stroke:black;stroke-width:10.53035058;stroke-linejoin:round;stroke-miterlimit:4;stroke-dasharray:none;stroke-opacity:1"
         id="rect3385"
         width="136"
         height="22"
         x="-20.840672"
         y="-474.15433"
         ry="7.0119839"
         transform="scale(-1,1)" />
    </g>
    <g
       id="g3424"
       transform="translate(0.771491,0)"
       style="stroke-width:2.5;stroke-miterlimit:4;stroke-dasharray:none">
      <g
         style="stroke:black;stroke-width:10.53035058;stroke-miterlimit:4;stroke-dasharray:none;stroke-opacity:1;display:inline"
         id="g3387"
         transform="matrix(0.237409,0,0,0.237409,442.8583,646.471)">
        <path
           sodipodi:nodetypes="csssssscscsscccccccsscscssssssc"
           id="path3389"
           d="M -48.09683,-730.04688 C -18.63463,-698.20088 -1.311324,-680.63851 1.71567,-631.22551 C 4.516922,-585.49753 -25.91305,-547.26746 -32.47183,-503.03801 C -33.71586,-494.64886 -34.78343,-477.52504 -33.65933,-470.58029 C -32.82682,-465.43703 -30.2673,-449.72452 -27.47183,-469.16609 C -26.89689,-473.16463 -26.48464,-493.22641 -24.72183,-503.41301 C -21.50976,-521.97423 -11.22367,-554.61188 6.62192,-572.69426 C 24.45989,-590.7689 52.7264,-602.49289 77.93442,-593.03801 C 100.77409,-582.49963 102.93306,-552.73834 96.43442,-530.97551 C 88.29557,-503.71988 57.19325,-484.85525 29.30942,-483.00676 C 34.83452,-493.933 48.05897,-525.11969 33.71567,-523.88176 C 17.11291,-522.44882 -2.746744,-494.20056 -7.917294,-474.82293 C -9.864494,-467.52547 -9.07753,-456.19513 -19.50308,-456.66301 C -12.62837,-433.43496 6.77717,-418.06468 23.77817,-401.85051 C 6.05563,-400.37739 -11.47738,-408.7178 -26.94058,-416.66301 C -26.286749,-400.73784 -29.378446,-367.09562 -48.09683,-348.72551 C -65.471545,-367.64157 -67.052581,-390.71209 -67.37808,-416.66301 C -82.84128,-408.7178 -100.37429,-400.37739 -118.09683,-401.85051 C -101.09583,-418.06468 -81.690291,-433.43496 -74.81558,-456.66301 C -85.24113,-456.19513 -85.868385,-466.81836 -87.81558,-474.11582 C -92.98613,-493.49343 -111.43157,-522.44884 -128.03433,-523.88176 C -142.37763,-525.11969 -129.15318,-493.933 -123.62808,-483.00676 C -151.51191,-484.85525 -182.61422,-503.71988 -190.75308,-530.97551 C -197.25172,-552.73834 -195.09274,-582.49964 -172.25308,-593.03801 C -147.04505,-602.49289 -118.77855,-590.76891 -100.94058,-572.69426 C -83.094993,-554.61188 -72.808901,-521.97423 -69.59683,-503.41301 C -67.83402,-493.22641 -68.128878,-474.57884 -67.553937,-470.58029 C -64.758467,-451.13871 -61.491841,-465.43705 -60.65933,-470.58029 C -59.53523,-477.52504 -60.602801,-494.64887 -61.84683,-503.03801 C -68.40561,-547.26744 -95.955806,-587.0527 -96.03433,-631.22551 C -96.103977,-671.11179 -76.05061,-701.46041 -48.09683,-730.04688 z "
           style="fill:#fcef3c;fill-opacity:1;fill-rule:evenodd;stroke:black;stroke-width:10.53035058;stroke-linecap:butt;stroke-linejoin:miter;stroke-miterlimit:4;stroke-dasharray:none;stroke-opacity:1" />
        <rect
           transform="scale(-1,1)"
           ry="7.0119839"
           y="-474.15433"
           x="-20.840672"
           height="22"
           width="136"
           id="rect3391"
           style="fill:#fcef3c;fill-opacity:1;fill-rule:evenodd;stroke:black;stroke-width:10.53035058;stroke-linejoin:round;stroke-miterlimit:4;stroke-dasharray:none;stroke-opacity:1"
           rx="7.0119839" />
      </g>
      <g
         style="stroke:black;stroke-width:10.53035058;stroke-miterlimit:4;stroke-dasharray:none;stroke-opacity:1;display:inline"
         id="g3393"
         transform="matrix(0.237409,0,0,0.237409,175.729,646.471)">
        <path
           sodipodi:nodetypes="csssssscscsscccccccsscscssssssc"
           id="path3395"
           d="M -48.09683,-730.04688 C -18.63463,-698.20088 -1.311324,-680.63851 1.71567,-631.22551 C 4.516922,-585.49753 -25.91305,-547.26746 -32.47183,-503.03801 C -33.71586,-494.64886 -34.78343,-477.52504 -33.65933,-470.58029 C -32.82682,-465.43703 -30.2673,-449.72452 -27.47183,-469.16609 C -26.89689,-473.16463 -26.48464,-493.22641 -24.72183,-503.41301 C -21.50976,-521.97423 -11.22367,-554.61188 6.62192,-572.69426 C 24.45989,-590.7689 52.7264,-602.49289 77.93442,-593.03801 C 100.77409,-582.49963 102.93306,-552.73834 96.43442,-530.97551 C 88.29557,-503.71988 57.19325,-484.85525 29.30942,-483.00676 C 34.83452,-493.933 48.05897,-525.11969 33.71567,-523.88176 C 17.11291,-522.44882 -2.746744,-494.20056 -7.917294,-474.82293 C -9.864494,-467.52547 -9.07753,-456.19513 -19.50308,-456.66301 C -12.62837,-433.43496 6.77717,-418.06468 23.77817,-401.85051 C 6.05563,-400.37739 -11.47738,-408.7178 -26.94058,-416.66301 C -26.286749,-400.73784 -29.378446,-367.09562 -48.09683,-348.72551 C -65.471545,-367.64157 -67.052581,-390.71209 -67.37808,-416.66301 C -82.84128,-408.7178 -100.37429,-400.37739 -118.09683,-401.85051 C -101.09583,-418.06468 -81.690291,-433.43496 -74.81558,-456.66301 C -85.24113,-456.19513 -85.868385,-466.81836 -87.81558,-474.11582 C -92.98613,-493.49343 -111.43157,-522.44884 -128.03433,-523.88176 C -142.37763,-525.11969 -129.15318,-493.933 -123.62808,-483.00676 C -151.51191,-484.85525 -182.61422,-503.71988 -190.75308,-530.97551 C -197.25172,-552.73834 -195.09274,-582.49964 -172.25308,-593.03801 C -147.04505,-602.49289 -118.77855,-590.76891 -100.94058,-572.69426 C -83.094993,-554.61188 -72.808901,-521.97423 -69.59683,-503.41301 C -67.83402,-493.22641 -68.128878,-474.57884 -67.553937,-470.58029 C -64.758467,-451.13871 -61.491841,-465.43705 -60.65933,-470.58029 C -59.53523,-477.52504 -60.602801,-494.64887 -61.84683,-503.03801 C -68.40561,-547.26744 -95.955806,-587.0527 -96.03433,-631.22551 C -96.103977,-671.11179 -76.05061,-701.46041 -48.09683,-730.04688 z "
           style="fill:#fcef3c;fill-opacity:1;fill-rule:evenodd;stroke:black;stroke-width:10.53035058;stroke-linecap:butt;stroke-linejoin:miter;stroke-miterlimit:4;stroke-dasharray:none;stroke-opacity:1" />
        <rect
           transform="scale(-1,1)"
           ry="7.0119839"
           y="-474.15433"
           x="-20.840672"
           height="22"
           width="136"
           id="rect3397"
           style="fill:#fcef3c;fill-opacity:1;fill-rule:evenodd;stroke:black;stroke-width:10.53035058;stroke-linejoin:round;stroke-miterlimit:4;stroke-dasharray:none;stroke-opacity:1"
           rx="7.0119839" />
      </g>
    </g>
    <g
       id="g3432"
       transform="translate(-0.350869,0)"
       style="stroke-width:2.5;stroke-miterlimit:4;stroke-dasharray:none">
      <g
         style="stroke:black;stroke-width:10.53035058;stroke-miterlimit:4;stroke-dasharray:none;stroke-opacity:1;display:inline"
         id="g3399"
         transform="matrix(0.237409,0,0,0.237409,82.57052,509.5392)">
        <path
           sodipodi:nodetypes="csssssscscsscccccccsscscssssssc"
           id="path3401"
           d="M -48.09683,-730.04688 C -18.63463,-698.20088 -1.311324,-680.63851 1.71567,-631.22551 C 4.516922,-585.49753 -25.91305,-547.26746 -32.47183,-503.03801 C -33.71586,-494.64886 -34.78343,-477.52504 -33.65933,-470.58029 C -32.82682,-465.43703 -30.2673,-449.72452 -27.47183,-469.16609 C -26.89689,-473.16463 -26.48464,-493.22641 -24.72183,-503.41301 C -21.50976,-521.97423 -11.22367,-554.61188 6.62192,-572.69426 C 24.45989,-590.7689 52.7264,-602.49289 77.93442,-593.03801 C 100.77409,-582.49963 102.93306,-552.73834 96.43442,-530.97551 C 88.29557,-503.71988 57.19325,-484.85525 29.30942,-483.00676 C 34.83452,-493.933 48.05897,-525.11969 33.71567,-523.88176 C 17.11291,-522.44882 -2.746744,-494.20056 -7.917294,-474.82293 C -9.864494,-467.52547 -9.07753,-456.19513 -19.50308,-456.66301 C -12.62837,-433.43496 6.77717,-418.06468 23.77817,-401.85051 C 6.05563,-400.37739 -11.47738,-408.7178 -26.94058,-416.66301 C -26.286749,-400.73784 -29.378446,-367.09562 -48.09683,-348.72551 C -65.471545,-367.64157 -67.052581,-390.71209 -67.37808,-416.66301 C -82.84128,-408.7178 -100.37429,-400.37739 -118.09683,-401.85051 C -101.09583,-418.06468 -81.690291,-433.43496 -74.81558,-456.66301 C -85.24113,-456.19513 -85.868385,-466.81836 -87.81558,-474.11582 C -92.98613,-493.49343 -111.43157,-522.44884 -128.03433,-523.88176 C -142.37763,-525.11969 -129.15318,-493.933 -123.62808,-483.00676 C -151.51191,-484.85525 -182.61422,-503.71988 -190.75308,-530.97551 C -197.25172,-552.73834 -195.09274,-582.49964 -172.25308,-593.03801 C -147.04505,-602.49289 -118.77855,-590.76891 -100.94058,-572.69426 C -83.094993,-554.61188 -72.808901,-521.97423 -69.59683,-503.41301 C -67.83402,-493.22641 -68.128878,-474.57884 -67.553937,-470.58029 C -64.758467,-451.13871 -61.491841,-465.43705 -60.65933,-470.58029 C -59.53523,-477.52504 -60.602801,-494.64887 -61.84683,-503.03801 C -68.40561,-547.26744 -95.955806,-587.0527 -96.03433,-631.22551 C -96.103977,-671.11179 -76.05061,-701.46041 -48.09683,-730.04688 z "
           style="fill:#fcef3c;fill-opacity:1;fill-rule:evenodd;stroke:black;stroke-width:10.53035058;stroke-linecap:butt;stroke-linejoin:miter;stroke-miterlimit:4;stroke-dasharray:none;stroke-opacity:1" />
        <rect
           transform="scale(-1,1)"
           ry="7.0119839"
           y="-474.15433"
           x="-20.840672"
           height="22"
           width="136"
           id="rect3403"
           style="fill:#fcef3c;fill-opacity:1;fill-rule:evenodd;stroke:black;stroke-width:10.53035058;stroke-linejoin:round;stroke-miterlimit:4;stroke-dasharray:none;stroke-opacity:1"
           rx="7.0119839" />
      </g>
      <g
         transform="matrix(0.237409,0,0,0.237409,538.2615,509.5393)"
         id="g3351"
         style="stroke:black;stroke-width:10.53035058;stroke-miterlimit:4;stroke-dasharray:none;stroke-opacity:1;display:inline">
        <path
           style="fill:#fcef3c;fill-opacity:1;fill-rule:evenodd;stroke:black;stroke-width:10.53035058;stroke-linecap:butt;stroke-linejoin:miter;stroke-miterlimit:4;stroke-dasharray:none;stroke-opacity:1"
           d="M -48.09683,-730.04688 C -18.63463,-698.20088 -1.311324,-680.63851 1.71567,-631.22551 C 4.516922,-585.49753 -25.91305,-547.26746 -32.47183,-503.03801 C -33.71586,-494.64886 -34.78343,-477.52504 -33.65933,-470.58029 C -32.82682,-465.43703 -30.2673,-449.72452 -27.47183,-469.16609 C -26.89689,-473.16463 -26.48464,-493.22641 -24.72183,-503.41301 C -21.50976,-521.97423 -11.22367,-554.61188 6.62192,-572.69426 C 24.45989,-590.7689 52.7264,-602.49289 77.93442,-593.03801 C 100.77409,-582.49963 102.93306,-552.73834 96.43442,-530.97551 C 88.29557,-503.71988 57.19325,-484.85525 29.30942,-483.00676 C 34.83452,-493.933 48.05897,-525.11969 33.71567,-523.88176 C 17.11291,-522.44882 -2.746744,-494.20056 -7.917294,-474.82293 C -9.864494,-467.52547 -9.07753,-456.19513 -19.50308,-456.66301 C -12.62837,-433.43496 6.77717,-418.06468 23.77817,-401.85051 C 6.05563,-400.37739 -11.47738,-408.7178 -26.94058,-416.66301 C -26.286749,-400.73784 -29.378446,-367.09562 -48.09683,-348.72551 C -65.471545,-367.64157 -67.052581,-390.71209 -67.37808,-416.66301 C -82.84128,-408.7178 -100.37429,-400.37739 -118.09683,-401.85051 C -101.09583,-418.06468 -81.690291,-433.43496 -74.81558,-456.66301 C -85.24113,-456.19513 -85.868385,-466.81836 -87.81558,-474.11582 C -92.98613,-493.49343 -111.43157,-522.44884 -128.03433,-523.88176 C -142.37763,-525.11969 -129.15318,-493.933 -123.62808,-483.00676 C -151.51191,-484.85525 -182.61422,-503.71988 -190.75308,-530.97551 C -197.25172,-552.73834 -195.09274,-582.49964 -172.25308,-593.03801 C -147.04505,-602.49289 -118.77855,-590.76891 -100.94058,-572.69426 C -83.094993,-554.61188 -72.808901,-521.97423 -69.59683,-503.41301 C -67.83402,-493.22641 -68.128878,-474.57884 -67.553937,-470.58029 C -64.758467,-451.13871 -61.491841,-465.43705 -60.65933,-470.58029 C -59.53523,-477.52504 -60.602801,-494.64887 -61.84683,-503.03801 C -68.40561,-547.26744 -95.955806,-587.0527 -96.03433,-631.22551 C -96.103977,-671.11179 -76.05061,-701.46041 -48.09683,-730.04688 z "
           id="path3353"
           sodipodi:nodetypes="csssssscscsscccccccsscscssssssc" />
        <rect
           rx="7.0119839"
           style="fill:#fcef3c;fill-opacity:1;fill-rule:evenodd;stroke:black;stroke-width:10.53035058;stroke-linejoin:round;stroke-miterlimit:4;stroke-dasharray:none;stroke-opacity:1"
           id="rect3355"
           width="136"
           height="22"
           x="-20.840672"
           y="-474.15433"
           ry="7.0119839"
           transform="scale(-1,1)" />
      </g>
    </g>
  </g>
  <g
     inkscape:groupmode="layer"
     id="layer4"
     inkscape:label="Meubles"
     style="display:inline">
    <path
       inkscape:export-ydpi="144"
       inkscape:export-xdpi="144"
       id="path2462"
       style="opacity:1;fill:#e20909;fill-opacity:1;fill-rule:evenodd;stroke:black;stroke-width:3;stroke-linecap:butt;stroke-linejoin:miter;stroke-miterlimit:4;stroke-dasharray:none;stroke-opacity:1;display:inline"
       d="M 298.86908,550.09479 C 298.86908,550.09479 98.848722,474.83061 98.848722,283.55374 C 98.848722,92.276903 98.848722,110.30207 98.848722,110.30207 L 498.88946,110.30207 L 498.88946,283.55374 C 498.88946,474.83061 298.86908,550.09479 298.86908,550.09479 z "
       sodipodi:nodetypes="cccccc" />
    <path
       style="opacity:1;fill:white;fill-opacity:1;fill-rule:evenodd;stroke:black;stroke-width:3;stroke-linecap:butt;stroke-linejoin:miter;stroke-miterlimit:4;stroke-dasharray:none;stroke-opacity:1;display:inline"
       d="M 439.8125 110.3125 C 430.98659 124.93444 434.28586 134.34246 422.15625 146.8125 C 406.69693 162.70569 389.01522 160.00316 372.96875 176.5 C 356.90324 193.0164 363.44238 207.18662 344.65625 226.5 C 325.87011 245.81338 309.36266 241.90364 295.46875 256.1875 C 281.57482 270.47135 282.41997 290.46414 267.15625 306.15625 C 251.89254 321.84836 233.03677 320.35283 217.96875 335.84375 C 202.90071 351.33468 205.70272 369.34692 189.65625 385.84375 C 173.60978 402.34059 157.72061 397.79608 140.5 415.5 C 139.47277 416.55606 138.50611 417.6107 137.625 418.65625 C 151.88743 441.37394 168.86229 460.84963 186.34375 477.3125 C 188.31399 474.10213 190.75201 470.83827 193.96875 467.53125 C 211.18936 449.82733 227.10977 454.34058 243.15625 437.84375 C 259.20272 421.34691 256.40073 403.36593 271.46875 387.875 C 286.53678 372.38408 305.36128 373.87961 320.625 358.1875 C 335.88871 342.49541 335.04359 322.47136 348.9375 308.1875 C 362.83141 293.90364 379.33888 297.81337 398.125 278.5 C 416.91112 259.18662 409.21691 246.23514 426.4375 228.53125 C 443.67594 210.809 457.79294 218.69176 475.625 198.84375 C 492.51258 180.04699 484.46952 172.22813 498.875 154.5 L 498.875 110.3125 L 439.8125 110.3125 z "
       id="path4341" />
    <g
       style="fill:#fcef3c;fill-opacity:1;stroke:black;stroke-width:10.30605507;stroke-miterlimit:4;stroke-dasharray:none;stroke-opacity:1"
       id="g5351"
       inkscape:label="Meubles"
       transform="matrix(0.291091,0,0,0.291091,118.909,123.9217)">
      <g
         style="fill:#fcef3c;fill-opacity:1;stroke:black;stroke-width:12.55638981;stroke-miterlimit:4;stroke-dasharray:none;stroke-opacity:1"
         id="g3924"
         transform="matrix(0.826041,0,0,0.815556,-1347.744,6.289439)">
        <g
           style="fill:#fcef3c;fill-opacity:1;stroke:black;stroke-width:12.55638981;stroke-miterlimit:4;stroke-dasharray:none;stroke-opacity:1"
           id="g3926">
          <g
             style="fill:#fcef3c;fill-opacity:1;stroke:black;stroke-width:12.55638981;stroke-miterlimit:4;stroke-dasharray:none;stroke-opacity:1"
             id="g3928"
             transform="translate(22,0)">
            <path
               sodipodi:nodetypes="cccccccc"
               id="path3930"
               d="M 2105.1064,155.74467 C 2169.9199,135.48258 2190.6543,84.014875 2230.5618,29.844929 C 2250.5141,14.516432 2253.3788,60.847204 2253.0146,70.933754 C 2251.7115,97.628979 2240.7436,123.72239 2221.893,142.78598 C 2202.7051,161.94309 2180.7531,179.97359 2154.3831,187.93356 C 2142.96,191.11409 2130.3379,192.51993 2118.8706,189.85497 C 2116.0179,185.96589 2112.6651,182.31216 2110.1146,178.28091 C 2108.4452,170.76883 2106.7758,163.25675 2105.1064,155.74467 z "
               style="fill:#fcef3c;fill-opacity:1;fill-rule:evenodd;stroke:black;stroke-width:12.55638981;stroke-linecap:butt;stroke-linejoin:miter;stroke-miterlimit:4;stroke-dasharray:none;stroke-opacity:1" />
            <path
               sodipodi:nodetypes="cccccccc"
               id="path3932"
               d="M 2131.9302,172.00313 C 2201.9073,173.97405 2241.3724,135.53423 2289.6294,90.022983 C 2312.4851,81.33804 2302.3556,125.44435 2298.9719,134.9705 C 2289.8834,159.9127 2271.9929,181.60028 2248.5334,194.25845 C 2225.6667,206.3907 2200.7467,216.41932 2174.5994,217.5936 C 2160.9289,218.08921 2147.0896,215.32595 2134.8715,209.10555 C 2133.2736,204.39617 2131.1486,199.75681 2129.8754,195.00429 C 2130.5603,187.33723 2131.2453,179.67018 2131.9302,172.00313 z "
               style="fill:#fcef3c;fill-opacity:1;fill-rule:evenodd;stroke:black;stroke-width:12.55638981;stroke-linecap:butt;stroke-linejoin:miter;stroke-miterlimit:4;stroke-dasharray:none;stroke-opacity:1" />
            <path
               sodipodi:nodetypes="cccccccc"
               id="path3934"
               d="M 2129.7517,214.86479 C 2198.694,228.92992 2251.4309,198.01459 2300.1709,167.98731 C 2324.8516,162.40763 2307.0293,203.58876 2301.4365,212.67916 C 2287.5792,235.11232 2265.9783,252.80834 2240.6244,260.53744 C 2216.5867,267.67483 2191.1023,272.13421 2166.018,269.02492 C 2151.0998,267.04632 2136.5821,261.29385 2124.8657,251.76152 C 2124.2847,246.82314 2123.1875,241.84406 2122.929,236.93111 C 2125.2032,229.57567 2127.4775,222.22023 2129.7517,214.86479 z "
               style="fill:#fcef3c;fill-opacity:1;fill-rule:evenodd;stroke:black;stroke-width:12.55638981;stroke-linecap:butt;stroke-linejoin:miter;stroke-miterlimit:4;stroke-dasharray:none;stroke-opacity:1" />
            <path
               sodipodi:nodetypes="cccccccc"
               style="fill:#fcef3c;fill-opacity:1;fill-rule:evenodd;stroke:black;stroke-width:12.55638981;stroke-linecap:butt;stroke-linejoin:miter;stroke-miterlimit:4;stroke-dasharray:none;stroke-opacity:1"
               d="M 2136.0671,245.4323 C 2203.5694,271.11793 2259.1415,250.67011 2311.16,221.29371 C 2336.3591,218.99671 2313.2935,257.4869 2306.5576,265.76595 C 2289.8798,286.18953 2266.146,300.90198 2239.9978,305.24162 C 2215.2321,309.16715 2189.383,310.24817 2164.9226,303.87823 C 2150.3924,299.96157 2136.7538,292.35608 2126.3877,281.37045 C 2126.4589,276.39852 2126.0237,271.31859 2126.4113,266.41414 C 2129.6299,259.42019 2132.8486,252.42625 2136.0671,245.4323 z "
               id="path3936" />
            <path
               sodipodi:nodetypes="cccccccc"
               id="path3938"
               d="M 2135.3813,266.20195 C 2192.2538,308.89819 2253.2145,306.69324 2309.794,294.84448 C 2334.5477,300.09118 2301.1446,330.05367 2292.2643,335.9744 C 2270.2991,350.56226 2243.2792,357.61006 2217.0156,354.03465 C 2192.1951,350.47185 2167.1795,343.87146 2145.691,330.56247 C 2132.9653,322.52973 2122.1808,311.23595 2115.521,297.67913 C 2117.0573,292.94995 2118.1416,287.96805 2119.9602,283.39677 C 2125.1005,277.66516 2130.241,271.93359 2135.3813,266.20195 z "
               style="fill:#fcef3c;fill-opacity:1;fill-rule:evenodd;stroke:black;stroke-width:12.55638981;stroke-linecap:butt;stroke-linejoin:miter;stroke-miterlimit:4;stroke-dasharray:none;stroke-opacity:1" />
            <path
               sodipodi:nodetypes="cccccccc"
               style="fill:#fcef3c;fill-opacity:1;fill-rule:evenodd;stroke:black;stroke-width:12.55638981;stroke-linecap:butt;stroke-linejoin:miter;stroke-miterlimit:4;stroke-dasharray:none;stroke-opacity:1"
               d="M 2147.6208,292.32412 C 2194.3295,348.52636 2255.9564,359.55697 2310.9212,359.94945 C 2333.8285,370.69773 2294.4775,392.26213 2284.4819,396.00396 C 2259.7709,405.20389 2231.8559,405.91046 2207.0975,396.44551 C 2183.7415,387.3216 2160.8875,375.19555 2142.9963,357.34089 C 2132.4353,346.62013 2124.5075,333.16635 2121.1114,318.44877 C 2123.6848,314.19397 2125.8756,309.59012 2128.6878,305.55338 C 2134.9988,301.14361 2141.3099,296.73392 2147.6208,292.32412 z "
               id="path3940" />
            <path
               sodipodi:nodetypes="cccccccc"
               inkscape:transform-center-y="-20.834145"
               inkscape:transform-center-x="-47.211288"
               id="path3942"
               d="M 2124.0611,310.91346 C 2157.7491,378.14735 2222.9803,404.96587 2261.9462,421.49338 C 2280.9355,438.21684 2237.1251,447.92095 2226.4819,448.7193 C 2200.1843,450.64446 2173.1848,443.5192 2152.0594,427.51038 C 2132.1851,412.22104 2113.6322,394.1896 2101.4455,372.04528 C 2094.3026,358.79962 2090.4519,343.666 2091.3056,328.58581 C 2094.9657,325.22005 2098.3563,321.41219 2102.1848,318.32254 C 2109.477,315.85283 2116.7691,313.38322 2124.0611,310.91346 z "
               style="fill:#fcef3c;fill-opacity:1;fill-rule:evenodd;stroke:black;stroke-width:12.55638981;stroke-linecap:butt;stroke-linejoin:miter;stroke-miterlimit:4;stroke-dasharray:none;stroke-opacity:1" />
            <path
               sodipodi:nodetypes="cccccccc"
               style="fill:#fcef3c;fill-opacity:1;fill-rule:evenodd;stroke:black;stroke-width:12.55638981;stroke-linecap:butt;stroke-linejoin:miter;stroke-miterlimit:4;stroke-dasharray:none;stroke-opacity:1"
               d="M 2060.4258,334.81192 C 2050.3191,383.55229 2069.4515,421.58866 2094.4465,449.68415 C 2098.554,466.33637 2070.4102,454.80247 2064.1759,451.13246 C 2048.7901,442.03799 2036.5122,427.6331 2030.9392,410.55305 C 2025.7845,394.35725 2022.4256,377.14554 2024.2014,360.10517 C 2025.345,349.96899 2029.0516,340.05447 2035.3566,331.98828 C 2038.6958,331.52937 2042.0555,330.71999 2045.3816,330.4799 C 2050.3963,331.92387 2055.4112,333.36804 2060.4258,334.81192 z "
               id="path3944" />
            <path
               sodipodi:nodetypes="cccccccc"
               id="path3946"
               d="M 2087.142,324.65802 C 2095.9218,390.47522 2136.91,424.36716 2183.6641,451.92218 C 2196.628,470.75883 2156.0931,469.62381 2146.5888,467.98153 C 2123.1156,463.88215 2101.0186,451.69564 2086.0251,433.01538 C 2071.9699,415.24103 2059.6761,395.35401 2053.8676,373.26306 C 2050.5215,360.08152 2050.4766,345.96967 2054.5431,332.93981 C 2058.4919,330.79518 2062.3016,328.20369 2066.3372,326.33813 C 2073.2721,325.77808 2080.2072,325.21814 2087.142,324.65802 z "
               style="fill:#fcef3c;fill-opacity:1;fill-rule:evenodd;stroke:black;stroke-width:12.55638981;stroke-linecap:butt;stroke-linejoin:miter;stroke-miterlimit:4;stroke-dasharray:none;stroke-opacity:1" />
            <path
               sodipodi:nodetypes="cssccccccccccccc"
               id="path3948"
               d="M 2031.4468,283.40424 C 2067.9258,297.46345 2103.686,267.99856 2070.6384,236.17021 C 2026.7631,193.91367 2062.1562,160.48016 2102.398,153.58274 C 2117.6723,150.96473 2129.0856,145.20162 2148.5105,155.74467 C 2145.4573,177.56526 2137.2267,181.88706 2126.8086,199.14894 C 2144.8023,198.20065 2158.0246,196.3202 2177.8723,211.91489 C 2171.7227,223.73571 2158.191,233.27133 2136.0621,238.85144 C 2157.6352,243.89595 2166.9992,245.10258 2179.1489,262.97872 C 2154.9985,280.41943 2147.8873,276.02596 2125.532,279.57446 C 2147.3493,289.64684 2158.7633,304.92703 2158.7233,328.08511 C 2130.2319,328.2583 2115.5046,333.02195 2097.4468,319.14892 C 2119.4901,342.87873 2114.2081,352.4345 2110.2129,372.76596 C 2083.8578,368.94577 2081.8252,360.41157 2068.0852,342.12766 C 2071.4472,361.29197 2062.8337,370.40633 2059.6237,380.75269 C 2043.0223,374.89678 2029.2255,366.37068 2029.8366,344.13799 C 2031.0517,323.73213 2028.3432,303.57785 2031.4468,283.40424 z "
               style="fill:#fcef3c;fill-opacity:1;fill-rule:evenodd;stroke:black;stroke-width:12.55638981;stroke-linecap:butt;stroke-linejoin:miter;stroke-miterlimit:4;stroke-dasharray:none;stroke-opacity:1" />
          </g>
          <g
             style="fill:#fcef3c;fill-opacity:1;stroke:black;stroke-width:12.55638981;stroke-miterlimit:4;stroke-dasharray:none;stroke-opacity:1"
             id="g3950"
             transform="matrix(-1,0,0,1,3964.87,0)">
            <path
               style="fill:#fcef3c;fill-opacity:1;fill-rule:evenodd;stroke:black;stroke-width:12.55638981;stroke-linecap:butt;stroke-linejoin:miter;stroke-miterlimit:4;stroke-dasharray:none;stroke-opacity:1"
               d="M 2105.1064,155.74467 C 2169.9199,135.48258 2190.6543,84.014875 2230.5618,29.844929 C 2250.5141,14.516432 2253.3788,60.847204 2253.0146,70.933754 C 2251.7115,97.628979 2240.7436,123.72239 2221.893,142.78598 C 2202.7051,161.94309 2180.7531,179.97359 2154.3831,187.93356 C 2142.96,191.11409 2130.3379,192.51993 2118.8706,189.85497 C 2116.0179,185.96589 2112.6651,182.31216 2110.1146,178.28091 C 2108.4452,170.76883 2106.7758,163.25675 2105.1064,155.74467 z "
               id="path3952"
               sodipodi:nodetypes="cccccccc" />
            <path
               style="fill:#fcef3c;fill-opacity:1;fill-rule:evenodd;stroke:black;stroke-width:12.55638981;stroke-linecap:butt;stroke-linejoin:miter;stroke-miterlimit:4;stroke-dasharray:none;stroke-opacity:1"
               d="M 2131.9302,172.00313 C 2201.9073,173.97405 2241.3724,135.53423 2289.6294,90.022983 C 2312.4851,81.33804 2302.3556,125.44435 2298.9719,134.9705 C 2289.8834,159.9127 2271.9929,181.60028 2248.5334,194.25845 C 2225.6667,206.3907 2200.7467,216.41932 2174.5994,217.5936 C 2160.9289,218.08921 2147.0896,215.32595 2134.8715,209.10555 C 2133.2736,204.39617 2131.1486,199.75681 2129.8754,195.00429 C 2130.5603,187.33723 2131.2453,179.67018 2131.9302,172.00313 z "
               id="path3954"
               sodipodi:nodetypes="cccccccc" />
            <path
               style="fill:#fcef3c;fill-opacity:1;fill-rule:evenodd;stroke:black;stroke-width:12.55638981;stroke-linecap:butt;stroke-linejoin:miter;stroke-miterlimit:4;stroke-dasharray:none;stroke-opacity:1"
               d="M 2129.7517,214.86479 C 2198.694,228.92992 2251.4309,198.01459 2300.1709,167.98731 C 2324.8516,162.40763 2307.0293,203.58876 2301.4365,212.67916 C 2287.5792,235.11232 2265.9783,252.80834 2240.6244,260.53744 C 2216.5867,267.67483 2191.1023,272.13421 2166.018,269.02492 C 2151.0998,267.04632 2136.5821,261.29385 2124.8657,251.76152 C 2124.2847,246.82314 2123.1875,241.84406 2122.929,236.93111 C 2125.2032,229.57567 2127.4775,222.22023 2129.7517,214.86479 z "
               id="path3956"
               sodipodi:nodetypes="cccccccc" />
            <path
               id="path3958"
               d="M 2136.0671,245.4323 C 2203.5694,271.11793 2259.1415,250.67011 2311.16,221.29371 C 2336.3591,218.99671 2313.2935,257.4869 2306.5576,265.76595 C 2289.8798,286.18953 2266.146,300.90198 2239.9978,305.24162 C 2215.2321,309.16715 2189.383,310.24817 2164.9226,303.87823 C 2150.3924,299.96157 2136.7538,292.35608 2126.3877,281.37045 C 2126.4589,276.39852 2126.0237,271.31859 2126.4113,266.41414 C 2129.6299,259.42019 2132.8486,252.42625 2136.0671,245.4323 z "
               style="fill:#fcef3c;fill-opacity:1;fill-rule:evenodd;stroke:black;stroke-width:12.55638981;stroke-linecap:butt;stroke-linejoin:miter;stroke-miterlimit:4;stroke-dasharray:none;stroke-opacity:1"
               sodipodi:nodetypes="cccccccc" />
            <path
               style="fill:#fcef3c;fill-opacity:1;fill-rule:evenodd;stroke:black;stroke-width:12.55638981;stroke-linecap:butt;stroke-linejoin:miter;stroke-miterlimit:4;stroke-dasharray:none;stroke-opacity:1"
               d="M 2135.3813,266.20195 C 2192.2538,308.89819 2253.2145,306.69324 2309.794,294.84448 C 2334.5477,300.09118 2301.1446,330.05367 2292.2643,335.9744 C 2270.2991,350.56226 2243.2792,357.61006 2217.0156,354.03465 C 2192.1951,350.47185 2167.1795,343.87146 2145.691,330.56247 C 2132.9653,322.52973 2122.1808,311.23595 2115.521,297.67913 C 2117.0573,292.94995 2118.1416,287.96805 2119.9602,283.39677 C 2125.1005,277.66516 2130.241,271.93359 2135.3813,266.20195 z "
               id="path3960"
               sodipodi:nodetypes="cccccccc" />
            <path
               id="path3962"
               d="M 2147.6208,292.32412 C 2194.3295,348.52636 2255.9564,359.55697 2310.9212,359.94945 C 2333.8285,370.69773 2294.4775,392.26213 2284.4819,396.00396 C 2259.7709,405.20389 2231.8559,405.91046 2207.0975,396.44551 C 2183.7415,387.3216 2160.8875,375.19555 2142.9963,357.34089 C 2132.4353,346.62013 2124.5075,333.16635 2121.1114,318.44877 C 2123.6848,314.19397 2125.8756,309.59012 2128.6878,305.55338 C 2134.9988,301.14361 2141.3099,296.73392 2147.6208,292.32412 z "
               style="fill:#fcef3c;fill-opacity:1;fill-rule:evenodd;stroke:black;stroke-width:12.55638981;stroke-linecap:butt;stroke-linejoin:miter;stroke-miterlimit:4;stroke-dasharray:none;stroke-opacity:1"
               sodipodi:nodetypes="cccccccc" />
            <path
               style="fill:#fcef3c;fill-opacity:1;fill-rule:evenodd;stroke:black;stroke-width:12.55638981;stroke-linecap:butt;stroke-linejoin:miter;stroke-miterlimit:4;stroke-dasharray:none;stroke-opacity:1"
               d="M 2124.0611,310.91346 C 2157.7491,378.14735 2222.9803,404.96587 2261.9462,421.49338 C 2280.9355,438.21684 2237.1251,447.92095 2226.4819,448.7193 C 2200.1843,450.64446 2173.1848,443.5192 2152.0594,427.51038 C 2132.1851,412.22104 2113.6322,394.1896 2101.4455,372.04528 C 2094.3026,358.79962 2090.4519,343.666 2091.3056,328.58581 C 2094.9657,325.22005 2098.3563,321.41219 2102.1848,318.32254 C 2109.477,315.85283 2116.7691,313.38322 2124.0611,310.91346 z "
               id="path3965"
               inkscape:transform-center-x="-47.211288"
               inkscape:transform-center-y="-20.834145"
               sodipodi:nodetypes="cccccccc" />
            <path
               id="path3967"
               d="M 2060.4258,334.81192 C 2050.3191,383.55229 2069.4515,421.58866 2094.4465,449.68415 C 2098.554,466.33637 2070.4102,454.80247 2064.1759,451.13246 C 2048.7901,442.03799 2036.5122,427.6331 2030.9392,410.55305 C 2025.7845,394.35725 2022.4256,377.14554 2024.2014,360.10517 C 2025.345,349.96899 2029.0516,340.05447 2035.3566,331.98828 C 2038.6958,331.52937 2042.0555,330.71999 2045.3816,330.4799 C 2050.3963,331.92387 2055.4112,333.36804 2060.4258,334.81192 z "
               style="fill:#fcef3c;fill-opacity:1;fill-rule:evenodd;stroke:black;stroke-width:12.55638981;stroke-linecap:butt;stroke-linejoin:miter;stroke-miterlimit:4;stroke-dasharray:none;stroke-opacity:1"
               sodipodi:nodetypes="cccccccc" />
            <path
               style="fill:#fcef3c;fill-opacity:1;fill-rule:evenodd;stroke:black;stroke-width:12.55638981;stroke-linecap:butt;stroke-linejoin:miter;stroke-miterlimit:4;stroke-dasharray:none;stroke-opacity:1"
               d="M 2087.142,324.65802 C 2095.9218,390.47522 2136.91,424.36716 2183.6641,451.92218 C 2196.628,470.75883 2156.0931,469.62381 2146.5888,467.98153 C 2123.1156,463.88215 2101.0186,451.69564 2086.0251,433.01538 C 2071.9699,415.24103 2059.6761,395.35401 2053.8676,373.26306 C 2050.5215,360.08152 2050.4766,345.96967 2054.5431,332.93981 C 2058.4919,330.79518 2062.3016,328.20369 2066.3372,326.33813 C 2073.2721,325.77808 2080.2072,325.21814 2087.142,324.65802 z "
               id="path3969"
               sodipodi:nodetypes="cccccccc" />
            <path
               style="fill:#fcef3c;fill-opacity:1;fill-rule:evenodd;stroke:black;stroke-width:12.55638981;stroke-linecap:butt;stroke-linejoin:miter;stroke-miterlimit:4;stroke-dasharray:none;stroke-opacity:1"
               d="M 2031.4468,283.40424 C 2067.9258,297.46345 2103.686,267.99856 2070.6384,236.17021 C 2026.7631,193.91367 2062.1562,160.48016 2102.398,153.58274 C 2117.6723,150.96473 2129.0856,145.20162 2148.5105,155.74467 C 2145.4573,177.56526 2137.2267,181.88706 2126.8086,199.14894 C 2144.8023,198.20065 2158.0246,196.3202 2177.8723,211.91489 C 2171.7227,223.73571 2158.191,233.27133 2136.0621,238.85144 C 2157.6352,243.89595 2166.9992,245.10258 2179.1489,262.97872 C 2154.9985,280.41943 2147.8873,276.02596 2125.532,279.57446 C 2147.3493,289.64684 2158.7633,304.92703 2158.7233,328.08511 C 2130.2319,328.2583 2115.5046,333.02195 2097.4468,319.14892 C 2119.4901,342.87873 2114.2081,352.4345 2110.2129,372.76596 C 2083.8578,368.94577 2081.8252,360.41157 2068.0852,342.12766 C 2071.4472,361.29197 2062.8337,370.40633 2059.6237,380.75269 C 2043.0223,374.89678 2029.2255,366.37068 2029.8366,344.13799 C 2031.0517,323.73213 2028.3432,303.57785 2031.4468,283.40424 z "
               id="path3971"
               sodipodi:nodetypes="cssccccccccccccc" />
          </g>
        </g>
        <g
           style="fill:#fcef3c;fill-opacity:1;stroke:black;stroke-width:12.55638981;stroke-miterlimit:4;stroke-dasharray:none;stroke-opacity:1"
           id="g3973">
          <path
             style="fill:#fcef3c;fill-opacity:1;fill-rule:evenodd;stroke:black;stroke-width:12.55638981;stroke-linecap:butt;stroke-linejoin:miter;stroke-miterlimit:4;stroke-dasharray:none;stroke-opacity:1"
             d="M 2055.1104,158.12765 C 2044.8249,186.99066 2025.941,204.69662 2049.5202,221.57447 L 2030.5414,220.85106 C 2044.0559,238.54079 2054.1779,242.81561 2064.6265,245.27659 L 2028.8818,243.82979 C 2040.6502,252.53912 2050.3392,259.01047 2059.7329,260.59574 L 2036.584,261.70213 C 2083.0862,312.45669 2051.2758,375.10477 2053.9648,436.59574 C 2085.947,492.26258 2143.7452,468.96511 2173.6903,481.82979 C 2159.9218,490.27631 2143.7514,501.98602 2174.4655,518.58463 C 2148.7962,527.07959 2144.6162,532.20409 2160.8298,559.17756 C 2139.7905,549.85549 2130.02,542.53349 2134.0499,572.7755 C 2078.7183,530.38255 2083.2011,544.94424 2031.0898,498.96918 L 2023.818,471.06383 C 2023.2137,471.97017 2021.6856,495.79251 2025.2223,504.76596 C 2050.2004,527.66737 2080.1998,549.5901 2099.7806,570.42553 C 2014.3612,536.24845 2015.6753,556.35102 2083.9457,584.68085 C 2066.3768,590.64433 2026.7017,579.06781 2022.5415,589.78723 C 2075.4384,621.75677 2138.5873,608.60878 2173.435,598.7234 C 2171.7373,632.80793 2093.8098,642.43131 2050.9339,640.40645 C 2080.3675,647.38431 2100.0186,663.91773 2108.489,684.81468 C 2077.5231,684.11837 2056.0784,685.36261 2023.818,662.55319 C 2035.8721,693.04198 2033.7868,718.05594 2023.608,734.18073 C 2015.8779,746.42647 2000.1306,758.20144 1993.1797,771.98091 C 1983.6896,756.64602 1970.6235,745.54294 1964.2229,734.44867 C 1953.6387,716.10289 1952.8901,693.74636 1963.818,661.2766 C 1943.4939,681.82192 1911.3345,688.34101 1878.2861,682.97872 C 1888.9886,661.07419 1909.5281,648.50349 1932.4563,640.85106 C 1892.171,642.70816 1820.9138,634.97307 1813.1797,598.7234 C 1877.3289,617.96182 1922.4025,610.04729 1963.818,591.06383 C 1962.4099,579.64793 1926.1557,591.07359 1902.9244,583.78723 C 1965.1534,557.27887 1982.22,536.89218 1887.2223,569.3617 C 1902.8239,548.78049 1930.5998,534.52491 1963.818,504.25532 C 1967.4669,484.78723 1963.0946,472.34042 1963.0946,472.34042 L 1957.2553,497.69258 C 1910.8551,537.51135 1927.7122,520.3784 1852.7542,570.63829 C 1858.2361,531.9244 1838.2196,556.7913 1824.6691,560.42553 C 1839.3413,531.18789 1841.5506,526.90305 1811.894,519.57447 C 1836.3867,502.72059 1836.5592,494.89362 1813.1797,482.55319 C 1849.2699,470.97337 1908.7901,488.65883 1932.6265,434.80851 C 1935.0953,375.7383 1904.2081,306.64205 1948.6691,262.97872 L 1917.8606,265.14893 C 1932.613,259.31608 1945.759,245.51597 1952.7116,237.44681 L 1926.7967,233.23404 C 1975.4431,216.59406 1943.5169,199.00144 1931.9031,157.02127 C 1927.0004,72.306145 2060.3795,71.944394 2055.1104,158.12765 z "
             id="path3975"
             sodipodi:nodetypes="ccccccccccccccccccccccscsccccccccccccccccccccc" />
          <g
             style="fill:#fcef3c;fill-opacity:1;stroke:black;stroke-width:12.55638981;stroke-miterlimit:4;stroke-dasharray:none;stroke-opacity:1"
             id="g3977"
             transform="translate(-12.51105,0)">
            <path
               sodipodi:nodetypes="ccccsssc"
               id="path3979"
               d="M 1983.5981,123.09436 C 1990.1151,125.20064 1992.632,125.30692 1999.1489,127.41319 C 2015.8902,144.45657 2026.3212,151.00946 2036.0814,156.00931 C 2037.3876,157.00865 2034.6938,154.00799 2036,155.00732 C 2030.9108,153.80374 2026.5717,148.61213 2022.0244,150.88311 C 2013.9226,154.92929 2004.5202,159.07774 1996.0547,154.97505 C 1982.421,148.36765 1975.8998,134.40704 1997.1489,127.21857 C 2002.1974,125.51068 1990.1151,125.80243 1983.5981,123.09436 z "
               style="fill:#fcef3c;fill-opacity:1;fill-rule:evenodd;stroke:black;stroke-width:12.55638981;stroke-linecap:butt;stroke-linejoin:miter;stroke-miterlimit:4;stroke-dasharray:none;stroke-opacity:1" />
            <path
               transform="matrix(0.769187,0,0,0.769187,589.8148,78.98581)"
               sodipodi:open="true"
               sodipodi:end="8.2424464"
               sodipodi:start="1.9974614"
               d="M 1828.7706,89.512742 A 12.186309,9.9295845 0 1 1 1829.1979,89.663083"
               sodipodi:ry="9.9295845"
               sodipodi:rx="12.186309"
               sodipodi:cy="80.473335"
               sodipodi:cx="1833.8137"
               id="path3981"
               style="opacity:1;fill:#fcef3c;fill-opacity:1;fill-rule:evenodd;stroke:black;stroke-width:16.32423592;stroke-linecap:round;stroke-linejoin:round;stroke-miterlimit:4;stroke-dasharray:none;stroke-dashoffset:0;stroke-opacity:1"
               sodipodi:type="arc" />
          </g>
        </g>
      </g>
    </g>
    <g
       transform="matrix(5.103707e-2,0,0,5.103707e-2,271.6823,299.7758)"
       style="fill:#fcef3c;fill-opacity:1;stroke:black;stroke-width:58.78080384;stroke-miterlimit:4;stroke-dasharray:none;stroke-opacity:1"
       id="g5408">
      <path
         d="M 1778.9,3200 C 1778.9,3322.11 1679.9,3421.1 1557.79,3421.1 C 1603.4,3500.1 1687.68,3548.76 1778.89,3548.76 C 1870.11,3548.76 1954.39,3500.1 2000,3421.1 C 2045.61,3500.1 2129.89,3548.76 2221.1,3548.76 C 2312.32,3548.76 2396.6,3500.1 2442.21,3421.1 C 2320.1,3421.1 2221.1,3322.11 2221.1,3200 L 2221.1,2221.1 L 3200,2221.1 C 3322.11,2221.1 3421.1,2320.1 3421.1,2442.21 C 3500.1,2396.6 3548.76,2312.32 3548.76,2221.11 C 3548.76,2129.89 3500.1,2045.61 3421.1,2000 C 3500.1,1954.39 3548.76,1870.11 3548.76,1778.9 C 3548.76,1687.68 3500.1,1603.4 3421.1,1557.79 C 3421.1,1679.9 3322.11,1778.9 3200,1778.9 L 2221.1,1778.9 L 2221.1,800 C 2221.1,677.887 2320.1,578.895 2442.21,578.895 C 2396.6,499.902 2312.32,451.24 2221.1,451.24 C 2129.89,451.24 2045.61,499.902 2000,578.895 C 1954.39,499.902 1870.11,451.24 1778.89,451.24 C 1687.68,451.24 1603.4,499.902 1557.79,578.895 C 1679.9,578.895 1778.9,677.887 1778.9,800 L 1778.9,1778.9 L 800,1778.9 C 677.887,1778.9 578.895,1679.9 578.895,1557.79 C 499.902,1603.4 451.24,1687.68 451.24,1778.9 C 451.24,1870.11 499.902,1954.39 578.895,2000 C 499.902,2045.61 451.24,2129.89 451.24,2221.11 C 451.24,2312.32 499.902,2396.6 578.895,2442.21 C 578.895,2320.1 677.887,2221.1 800,2221.1 L 1778.9,2221.1 L 1778.9,3200 z "
         id="path5410"
         style="fill:#fcef3c;fill-opacity:1;stroke:black;stroke-width:58.78080384;stroke-miterlimit:4;stroke-dasharray:none;stroke-opacity:1" />
    </g>
  </g>
  <g
     inkscape:groupmode="layer"
     id="layer2"
     inkscape:label="Reflet final"
     sodipodi:insensitive="true"
     style="display:inline">
    <path
       sodipodi:nodetypes="cccccc"
       d="M 300.00001,658.5 C 300.00001,658.5 598.50001,546.17969 598.50001,260.72817 C 598.50001,-24.723334 598.50001,2.1764865 598.50001,2.1764865 L 1.5,2.1764865 L 1.5,260.72817 C 1.5,546.17969 300.00001,658.5 300.00001,658.5 z "
       style="opacity:1;fill:url(#radialGradient3163);fill-opacity:1;fill-rule:evenodd;stroke:none;stroke-width:1px;stroke-linecap:butt;stroke-linejoin:miter;stroke-opacity:1"
       id="path2875"
       inkscape:export-xdpi="144"
       inkscape:export-ydpi="144" />
  </g>
  <g
     inkscape:groupmode="layer"
     id="layer1"
     inkscape:label="Contour final"
     style="display:inline"
     sodipodi:insensitive="true">
    <path
       sodipodi:nodetypes="cccccc"
       d="M 299.99999,658.50028 C 299.99999,658.50028 1.5,546.17992 1.5,260.72828 C 1.5,-24.723336 1.5,2.1764957 1.5,2.1764957 L 598.49999,2.1764957 L 598.49999,260.72828 C 598.49999,546.17992 299.99999,658.50028 299.99999,658.50028 z "
       style="opacity:1;fill:none;fill-opacity:1;fill-rule:evenodd;stroke:black;stroke-width:3.00000048;stroke-linecap:butt;stroke-linejoin:miter;stroke-miterlimit:4;stroke-dasharray:none;stroke-opacity:1"
       id="path1411"
       inkscape:export-xdpi="144"
       inkscape:export-ydpi="144" />
  </g>
</svg>
